<?xml version="1.0" standalone="no"?>
<!DOCTYPE svg PUBLIC "-//W3C//DTD SVG 1.1//EN" "http://www.w3.org/Graphics/SVG/1.1/DTD/svg11.dtd" >
<svg xmlns="http://www.w3.org/2000/svg" xmlns:xlink="http://www.w3.org/1999/xlink" version="1.1">
<metadata>
Created by FontForge 20170731 at Tue Jul 14 08:16:37 2020
 By Aleksey,,,
Copyright (c) 2020 by Cahya Sofyan. All rights reserved.
</metadata>
<defs>
<font id="Gliker-SemiBoldSemiExpanded" horiz-adv-x="0" >
  <font-face 
    font-family="Gliker-SemiBoldSemiExpanded"
    font-weight="400"
    font-stretch="semi-expanded"
    units-per-em="1000"
    panose-1="0 0 7 5 0 0 0 0 0 0"
    ascent="761"
    descent="-239"
    x-height="548"
    cap-height="704"
    bbox="-422 -297 1430 951"
    underline-thickness="50"
    underline-position="-150"
    unicode-range="U+0020-20AC"
  />
<missing-glyph horiz-adv-x="477" 
d="M89 -232v954h302v-954h-302zM159 -36h159v107h-159v-107zM159 -90h67l-67 -45v-31h159v31h-98l67 45h31v32h-159v-32zM159 129h159v107h-96v-53h33v22h31v-45h-95v76h-32v-107zM159 436h159v32h-63v67h-96v-99zM159 560h159v31h-63v36h63v31h-158v-31h62v-36h-63v-31z
M159 312h96v67h63v31h-159v-31h63v-36h-63v-31zM159 257h159v96h-32v-63h-127v-33zM191 40h95v-45h-95v45zM191 468v35h31v-35h-31z" />
    <glyph glyph-name=".notdef" horiz-adv-x="477" 
d="M89 -232v954h302v-954h-302zM159 -36h159v107h-159v-107zM159 -90h67l-67 -45v-31h159v31h-98l67 45h31v32h-159v-32zM159 129h159v107h-96v-53h33v22h31v-45h-95v76h-32v-107zM159 436h159v32h-63v67h-96v-99zM159 560h159v31h-63v36h63v31h-158v-31h62v-36h-63v-31z
M159 312h96v67h63v31h-159v-31h63v-36h-63v-31zM159 257h159v96h-32v-63h-127v-33zM191 40h95v-45h-95v45zM191 468v35h31v-35h-31z" />
    <glyph glyph-name=".null" 
 />
    <glyph glyph-name="uni000D" horiz-adv-x="333" 
 />
    <glyph glyph-name="space" unicode=" " horiz-adv-x="312" 
 />
    <glyph glyph-name="exclam" unicode="!" horiz-adv-x="317" 
d="M42 695q7 7 19 9q37 4 100 4q59 0 95 -4q12 -2 19 -9t7 -16v-2q-5 -209 -36 -405q-3 -19 -26 -24q-27 -3 -58 -3q-33 0 -63 3q-23 4 -26 24q-34 245 -38 405v2q0 9 7 16zM73 181q33 28 85 28q53 0 85.5 -29t32.5 -80q0 -50 -33 -78t-85 -28t-85 28.5t-33 78.5q0 51 33 80
z" />
    <glyph glyph-name="quotedbl" unicode="&#x22;" horiz-adv-x="413" 
d="M281 700h63q43 0 43 -41v-4l-10 -207q-2 -42 -45 -42h-39q-42 0 -45 42l-10 207v4q0 41 43 41zM69 700h63q43 0 43 -41v-4l-10 -207q-2 -42 -45 -42h-39q-42 0 -45 42l-10 207v4q0 41 43 41z" />
    <glyph glyph-name="numbersign" unicode="#" horiz-adv-x="798" 
d="M17 241q0 38 38 38h51q29 0 32 27l14 84q1 4 1 8q0 24 -27 24h-18q-38 0 -38 38v27q0 38 38 38h38q28 0 31 27l19 113q6 33 41 35q25 1 51 2q24 -1 49 -2q36 -3 36 -32q0 -4 -1 -9l-17 -103q-1 -4 -1 -8q0 -23 28 -23h94q28 0 31 27l19 113q4 32 41 35l50 2l50 -2
q36 -3 36 -32q0 -4 -1 -9l-18 -103q-1 -4 -1 -8q0 -23 28 -23h32q38 0 38 -39v-26q0 -38 -39 -38h-51q-27 0 -32 -27l-14 -85q-1 -4 -1 -8q0 -23 27 -23h13q38 0 38 -39v-27q0 -38 -39 -38h-32q-28 0 -31 -27l-19 -113q-6 -32 -41 -35l-50 -2l-50 2q-36 3 -36 32q0 4 1 9
l18 102q1 4 1 8q0 24 -28 24h-94q-28 0 -32 -27l-19 -113q-4 -32 -40 -35q-25 -1 -51 -2l-50 2q-35 3 -35 32q0 4 1 9l18 102q1 4 1 8q0 24 -29 24h-31q-38 0 -38 38v28zM342 279h94q28 0 31 27l15 84q1 4 1 8q0 24 -28 24h-94q-27 0 -32 -27l-14 -85q-1 -4 -1 -8
q0 -23 28 -23z" />
    <glyph glyph-name="dollar" unicode="$" horiz-adv-x="811" 
d="M22 247q0 21 10.5 25.5t15.5 4.5q10 0 20 -10q117 -104 310 -104q146 0 146 65q0 27 -35.5 45.5t-88 28t-114.5 25.5t-114.5 35t-88 59t-35.5 95q0 157 265 185q21 4 21 22v4q-4 45 -6 89v2q0 22 22 23q28 2 56 3q28 -1 56 -3q23 -1 23 -25q-5 -73 -7 -87v-4
q0 -18 22 -22q114 -8 204 -36q21 -8 21 -29q5 -69 8 -144v-3q0 -19 -10 -24.5t-15 -5.5q-9 0 -18 8q-105 75 -239 77q-68 0 -113.5 -15t-45.5 -43q0 -31 51.5 -49.5t125 -32t147 -32.5t125 -63.5t51.5 -112.5q-1 -84 -77.5 -135.5t-219.5 -64.5q-21 -3 -21 -21v-5
q1 -11 2 -23t2 -27t2 -23v-2q0 -21 -22 -23q-23 -2 -51 -2t-61 2q-23 2 -23 23v2q2 37 6 73v5q0 18 -21 21q-143 13 -263 45q-21 6 -21 31q-2 112 -2 173z" />
    <glyph glyph-name="percent" unicode="%" horiz-adv-x="913" 
d="M212 33q153 338 308 642q12 20 35 25q21 4 70 4q36 0 71 -4q10 -2 12.5 -7.5t2.5 -9.5q0 -6 -3 -12q-165 -364 -306 -641q-14 -27 -39 -30q-31 -4 -75 -4q-45 0 -66 4q-10 1 -12 7.5t-2 9.5q0 7 4 16zM570 285q50 46 137 46q88 0 138.5 -45.5t50.5 -127.5
q0 -166 -189 -166q-89 0 -138.5 41t-49.5 125q0 81 51 127zM68 664q50 45 137 45t137.5 -45t50.5 -127q0 -166 -188 -166q-89 0 -138.5 41t-49.5 125q0 82 51 127zM647 160q0 -32 15.5 -51.5t44.5 -19.5q30 0 45.5 19t15.5 52q0 34 -15.5 54t-45.5 20q-29 0 -44.5 -20.5
t-15.5 -53.5zM144 538q0 -32 16 -51.5t45 -19.5q30 0 45 19.5t15 51.5q0 34 -15 54t-45 20q-29 0 -45 -20.5t-16 -53.5z" />
    <glyph glyph-name="ampersand" unicode="&#x26;" horiz-adv-x="818" 
d="M63 304q35 36 122 58q9 2 12.5 6.5t3.5 7.5t-3 8t-14 9q-132 37 -132 152q0 56 50 94t125.5 53.5t171.5 15.5q152 0 278 -31q27 -8 30 -32q8 -83 9 -133v-2q0 -18 -8.5 -19t-10.5 -1q-14 0 -30 12q-49 31 -104.5 44.5t-156.5 13.5q-188 0 -188 -72q0 -32 36.5 -56
t104.5 -24q146 0 243 2q11 0 11 10v12q0 15 23 22q11 3 38 3q24 0 33 -3q23 -8 23 -23v-7q0 -10 12 -10q18 2 63 4h3q12 0 22 -8t10 -21v-51q0 -24 -27 -24q-20 -1 -57 -1q-22 0 -22 -18v-4q3 -45 7.5 -132t5.5 -101v-3q0 -20 -27 -32q-159 -31 -322 -31q-75 0 -139.5 11.5
t-117.5 36t-83.5 67t-30.5 99.5q0 61 36 98zM282 180q64 -24 158 -24q66 0 120 26.5t54 69.5v17q0 49 -48 52q-89 5 -158 5h-37q-82 -2 -118 -19.5t-36 -58.5q0 -44 65 -68z" />
    <glyph glyph-name="quotesingle" unicode="'" horiz-adv-x="201" 
d="M69 700h63q43 0 43 -41v-4l-10 -207q-2 -42 -45 -42h-39q-42 0 -45 42l-10 207v4q0 41 43 41z" />
    <glyph glyph-name="parenleft" unicode="(" horiz-adv-x="402" 
d="M97 560q58 104 167 171q14 8 26 8q20 0 36 -23l17 -29q10 -14 10 -28q0 -19 -20 -35q-114 -116 -114 -306q0 -189 114 -306q21 -17 21 -36q0 -13 -10 -27l-17 -28q-16 -24 -36 -24q-13 0 -27 9q-226 139 -226 413q0 136 59 241z" />
    <glyph glyph-name="parenright" unicode=")" horiz-adv-x="402" 
d="M60 12q114 117 114 306q0 190 -114 306q-20 16 -20 35q0 14 10 28l17 29q16 23 37 23q12 0 26 -8q109 -67 167.5 -171.5t58.5 -240.5q0 -273 -227 -413q-14 -9 -26 -9q-20 0 -36 24l-18 28q-9 14 -9 27q0 19 20 36z" />
    <glyph glyph-name="asterisk" unicode="*" horiz-adv-x="464" 
d="M22 576l10 18q11 19 26 19q10 0 22 -7l80 -55q9 -6 16 -6q4 0 10.5 3.5t6.5 19.5v3l-5 101v4q0 34 34 34h19q34 0 34 -34v-4l-4 -101v-3q0 -16 6 -19.5t10 -3.5q8 0 17 6l79 55q12 7 22 7q16 0 27 -19l10 -18q6 -11 6 -21q0 -18 -21 -30l-84 -46q-16 -8 -16 -19.5
t16 -20.5l84 -45q21 -13 21 -30q0 -10 -7 -21l-9 -17q-11 -19 -27 -19q-9 0 -20 7l-81 56q-9 6 -17 6q-4 0 -10 -3.5t-6 -19.5v-3l4 -101v-4q0 -34 -34 -34h-19q-34 0 -34 34v4l5 101v3q0 15 -6.5 19t-10.5 4q-7 0 -16 -6l-80 -56q-12 -8 -22 -8q-16 0 -27 21l-8 16
q-6 11 -6 21q0 17 20 30l83 45q15 9 15.5 14.5t0.5 6.5q0 10 -16 18l-84 47q-20 12 -20 30q0 10 6 21z" />
    <glyph glyph-name="plus" unicode="+" horiz-adv-x="644" 
d="M95 408h130q31 0 31 31v101q0 26 14 40t40 14h25q25 0 39.5 -14t14.5 -40v-101q0 -31 31 -31h129q54 0 54 -54v-12q0 -54 -54 -54h-129q-31 0 -31 -31v-103q0 -54 -54 -54h-25q-26 0 -40 14t-14 40v103q0 31 -31 31h-130q-25 0 -39.5 14t-14.5 40v12q0 54 54 54z" />
    <glyph glyph-name="comma" unicode="," horiz-adv-x="268" 
d="M15 102q0 51 33 79t86 28t86 -34t33 -92q-1 -66 -31 -120t-75 -83q-8 -5 -16 -5q-12 0 -22 13l-23 27q-8 9 -8 17q0 12 15 21q13 9 27 27q4 4 4 9q0 1 -1.5 4.5t-8.5 3.5h-2h-7q-35 0 -62.5 28.5t-27.5 76.5z" />
    <glyph glyph-name="hyphen" unicode="-" horiz-adv-x="512" 
d="M80 309h352q36 0 36 -36v-54q0 -36 -36 -36h-352q-36 0 -36 36v54q0 36 36 36z" />
    <glyph glyph-name="period" unicode="." horiz-adv-x="266" 
d="M15 101q0 51 33 79.5t85 28.5q53 0 85.5 -29t32.5 -80q0 -50 -33 -78t-85 -28t-85 28.5t-33 78.5z" />
    <glyph glyph-name="slash" unicode="/" horiz-adv-x="527" 
d="M19 30q131 369 251 644q10 21 39 26q25 4 97 4q42 0 86 -4q11 -1 15 -6.5t4 -10.5q0 -4 -2 -9q-131 -362 -250 -644q-11 -27 -41 -30q-37 -4 -92 -4q-65 0 -92 4q-17 2 -17 17q0 6 2 13z" />
    <glyph glyph-name="zero" unicode="0" horiz-adv-x="841" 
d="M126 608q108 100 294 100q187 0 295.5 -100t108.5 -271q0 -170 -107 -257.5t-297 -87.5q-189 0 -296 87.5t-107 257.5q0 171 109 271zM264 346q0 -85 42 -132q41 -48 114 -48t115.5 47.5t42.5 132.5t-42 136.5t-116 51.5q-73 0 -114.5 -51.5t-41.5 -136.5z" />
    <glyph glyph-name="one" unicode="1" horiz-adv-x="446" 
d="M12 649q0 12 7.5 21.5t19.5 11.5q122 22 240 22q64 0 91 -4q24 -3 27 -28q20 -231 22 -643q0 -25 -27 -29q-39 -4 -100 -4q-75 0 -112 4q-12 1 -19.5 10.5t-7.5 19.5v3q23 190 23 380v44q-1 29 -8.5 41t-26.5 12h-2q-31 0 -85 -29q-7 -4 -14 -4q-6 0 -15.5 5t-10.5 22
q-2 134 -2 145z" />
    <glyph glyph-name="two" unicode="2" horiz-adv-x="817" 
d="M21 140q3 66 55 116t125 78.5t145 51t122.5 47.5t50.5 55q0 29 -42 43.5t-107 14.5q-63 0 -134.5 -27t-120.5 -67q-9 -8 -18 -8q-6 0 -15.5 5t-9.5 23v5q3 71 13 161q3 22 22 29q129 41 302 41q354 0 354 -191q0 -55 -35.5 -99t-88.5 -69t-115 -46.5t-115.5 -35.5
t-88.5 -33t-35 -41t36.5 -31.5t130.5 -9.5q173 0 287 94q10 10 20 10q5 0 16 -4.5t12 -26.5l3 -194q0 -29 -26 -31q-77 -4 -376 -4q-241 0 -317 4q-52 4 -52 49v12q0 24 2 79z" />
    <glyph glyph-name="three" unicode="3" horiz-adv-x="799" 
d="M32 50q7 138 18 211q1 13 9 18.5t16 5.5q3 0 11 -2t15 -13q42 -65 98.5 -91t144.5 -26q91 0 147.5 23.5t56.5 69.5q0 45 -34.5 64t-112.5 19q-119 0 -186 -31q-9 -6 -17 -6q-4 0 -11.5 3t-7.5 19v86q0 13 9 20.5t20 7.5h3q98 -8 196 -8q75 0 107.5 15t32.5 47
q0 70 -163 70q-193 0 -273 -84q-12 -13 -24 -13q-4 0 -13 2.5t-9 21.5v2q2 83 12 165q3 26 29 32q122 30 294 30q98 0 174.5 -16t125.5 -53.5t49 -93.5q0 -60 -35 -96t-107 -56q-11 -3 -13.5 -7.5t-2.5 -7.5t3 -7.5t13 -6.5q86 -21 125.5 -57.5t39.5 -97.5q0 -73 -52 -123
t-136.5 -72t-195.5 -22q-190 0 -331 29q-25 8 -25 27v2z" />
    <glyph glyph-name="four" unicode="4" horiz-adv-x="890" 
d="M107 667q12 30 35 33q27 4 78 4q71 0 99 -4q14 -2 18.5 -10.5t4.5 -14.5q0 -7 -4 -15q-38 -86 -64 -220q-4 -14 -4 -25q0 -48 77 -50q19 -1 70 -1t70 1q26 1 40 14.5t14 35.5v9q0 66 -13 243v3q0 11 7 20t21 11q39 4 99 4q42 0 78 -4q26 -5 29 -28q16 -144 16 -275
q0 -9 5.5 -14.5t13.5 -5.5h3q30 2 46 2q16 -2 23.5 -8t7.5 -22q1 -25 1 -51q0 -25 -1 -50q0 -30 -27 -30h-38q-15 0 -20.5 -6.5t-5.5 -24.5v-6q0 -27 0.5 -73t0.5 -78q0 -27 -29 -31q-40 -4 -98 -4q-74 0 -111 4q-13 1 -20.5 9.5t-7.5 19.5v5q13 81 13 142q0 41 -43 41h-4
q-133 -5 -236 -5q-92 0 -160 4q-76 6 -76 64q3 157 92 387z" />
    <glyph glyph-name="five" unicode="5" horiz-adv-x="817" 
d="M18 70q0 36 5 159q1 20 11.5 25t15.5 5q9 0 18 -10q86 -97 312 -97q69 0 109 24.5t40 63.5q0 102 -184 102h-57q-57 0 -129.5 -1.5t-76.5 -1.5q-16 0 -26.5 7.5t-10.5 21.5q3 168 25 299q4 30 34 33q100 4 301 4q221 0 302 -4q27 -2 30 -30q6 -63 10 -178v-2
q0 -18 -9.5 -21.5t-13.5 -3.5q-12 0 -22 12q-80 86 -266 86q-154 0 -155 -62v-19q1 -23 51.5 -33.5t116.5 -10.5h12h17q318 0 318 -224q0 -102 -96.5 -162t-271.5 -60q-80 0 -197.5 14.5t-192.5 34.5q-20 6 -20 25v4z" />
    <glyph glyph-name="six" unicode="6" horiz-adv-x="811" 
d="M134 607q116 101 310 101q156 0 284 -58q20 -9 20 -38q0 -26 -4 -158q-1 -19 -10 -21t-12 -2q-12 0 -21 13q-84 102 -244 102q-71 0 -128 -36t-75 -88q-4 -8 -4 -15q0 -8 5.5 -13.5t12.5 -5.5q8 0 18 5q92 43 214 43q119 0 207 -56.5t88 -144.5q0 -116 -99 -179.5
t-269 -63.5q-192 0 -301 89t-109 255q0 169 117 271zM313 180q49 -28 113 -28q67 0 100.5 27t33.5 68q0 42 -33 66.5t-89 24.5q-61 0 -118 -23t-57 -61q0 -46 50 -74z" />
    <glyph glyph-name="seven" unicode="7" horiz-adv-x="763" 
d="M22 670q1 28 31 30q82 4 321 4q254 0 332 -4q38 -2 41 -33q2 -28 2 -50v-15q-2 -33 -15 -57q-125 -287 -270 -513q-20 -29 -47 -32q-42 -4 -113 -4q-79 0 -116 4q-13 2 -15 9.5t-2 10.5q0 11 11 26q17 24 86.5 118.5t112 159.5t66.5 119q10 21 10 39q0 22 -24 43t-109 21
q-184 0 -264 -99q-11 -13 -23 -13q-4 0 -14 3t-10 25q2 118 9 208z" />
    <glyph glyph-name="eight" unicode="8" horiz-adv-x="839" 
d="M202 367q11 2 14.5 7t3.5 8t-3.5 7.5t-15.5 7.5q-79 18 -117 52t-38 88q0 78 104.5 123.5t268.5 45.5q165 0 269.5 -45.5t104.5 -123.5q0 -54 -38 -88t-117 -52q-12 -3 -15.5 -7.5t-3.5 -7.5t3.5 -8t14.5 -7q185 -31 185 -167q0 -104 -108 -155q-109 -51 -295 -51
t-294 51t-108 155q0 136 185 167zM419 151q162 0 162 84q0 43 -44 67.5t-118 24.5t-118 -24.5t-44 -67.5q0 -84 162 -84zM305 440q41 -18 114 -18q74 0 114.5 17.5t40.5 48.5q0 32 -41.5 49.5t-113.5 17.5q-71 0 -112.5 -17.5t-41.5 -49.5v-1q0 -30 40 -47z" />
    <glyph glyph-name="nine" unicode="9" horiz-adv-x="813" 
d="M19 466q0 116 99 179t269 63q192 0 301 -88.5t109 -254.5q0 -169 -117.5 -271t-311.5 -102q-84 0 -177 16t-149 42q-18 8 -18 33v5q3 60 12 158q2 19 10.5 20.5t11.5 2.5q12 -1 23 -13q108 -101 275 -101q75 0 135 38.5t74 91.5q3 8 3 14q0 7 -4 10.5t-9 3.5q-7 0 -19 -6
q-89 -43 -222 -43q-124 0 -209.5 56.5t-85.5 145.5zM253 453q0 -42 33.5 -66.5t88.5 -24.5q61 0 118 23t57 61q0 46 -49 74t-114 28q-67 0 -100.5 -27t-33.5 -68z" />
    <glyph glyph-name="colon" unicode=":" horiz-adv-x="266" 
d="M48 181q33 28 85 28q53 0 85.5 -29t32.5 -80q0 -50 -33 -78t-85 -28t-85 28.5t-33 78.5q0 51 33 80zM48 517q33 28 85 28q53 0 85.5 -28.5t32.5 -79.5q0 -50 -33 -78t-85 -28t-85 28.5t-33 78.5t33 79z" />
    <glyph glyph-name="semicolon" unicode=";" horiz-adv-x="268" 
d="M15 102q0 51 33 79t86 28t86 -34t33 -92q-1 -66 -31 -120t-75 -83q-8 -5 -16 -5q-12 0 -22 13l-23 27q-8 9 -8 17q0 12 15 21q13 9 27 27q4 4 4 9q0 1 -1.5 4.5t-8.5 3.5h-2h-7q-35 0 -62.5 28.5t-27.5 76.5zM48 517q33 28 85 28q53 0 85.5 -28.5t32.5 -79.5
q0 -50 -33 -78t-85 -28t-85 28.5t-33 78.5t33 79z" />
    <glyph glyph-name="equal" unicode="=" horiz-adv-x="652" 
d="M44 388v12q0 54 54 54h457q25 0 39.5 -14t14.5 -40v-12q0 -28 -16 -42q16 -14 16 -42v-14q0 -26 -14.5 -40t-39.5 -14h-457q-54 0 -54 54v14q0 28 16 42q-16 14 -16 42z" />
    <glyph glyph-name="question" unicode="?" horiz-adv-x="590" 
d="M26 552v95q0 24 23 33q87 29 204 29q140 0 222.5 -52t82.5 -138v-2q0 -72 -46.5 -112t-144.5 -58q-23 -6 -26 -28l-3 -44q-3 -23 -31 -26q-22 -2 -43 -2q-22 0 -43 2q-28 3 -32 26l-10 92q-1 5 -1 9q0 21 28 24q98 5 137.5 28.5t39.5 67.5q0 37 -34 57.5t-99 20.5
q-57 0 -109.5 -12t-80.5 -28q-7 -6 -15 -6q-4 0 -11.5 4t-7.5 20zM145 101q0 51 33 79.5t85 28.5q53 0 85.5 -29t32.5 -80q0 -50 -33 -78t-85 -28t-85 28.5t-33 78.5z" />
    <glyph glyph-name="at" unicode="@" horiz-adv-x="960" 
d="M38 260q14 201 146.5 327t335.5 126q192 0 298.5 -100.5t106.5 -251.5q0 -19 -2 -39q-8 -120 -60.5 -190t-152.5 -70q-98 0 -137 62q-10 17 -14 17.5l-4 0.5q-7 0 -18 -14q-58 -65 -139 -65q-83 0 -127.5 47.5t-44.5 119.5q0 11 1 22q7 110 70 182t154 72q63 0 105 -47
q18 -23 27 -23q10 0 10 26v3q0 25 31 28q20 2 40 3q21 -1 41 -3q28 -3 28 -26v-6l-30 -228q-2 -12 -2 -25q0 -9 1 -19q6 -54 59 -55q44 0 68 54t28 135q1 16 1 32q0 128 -86 211.5t-257 83.5h-3q-174 0 -285 -109t-123 -282q-1 -17 -1 -33q0 -137 87.5 -223t261.5 -86
q104 0 193 28q14 4 24 4q21 0 26 -19q1 -5 1 -9q0 -25 -32 -35q-92 -31 -217 -31q-198 0 -304.5 101t-106.5 263q0 20 2 41zM388 190q24 -23 65 -23q45 0 80 45.5t39 97.5q1 5 1 10q0 33 -24.5 56t-65.5 23q-45 0 -78 -45t-37 -100q-1 -6 -1 -11q0 -33 21 -53z" />
    <glyph glyph-name="A" unicode="A" horiz-adv-x="879" 
d="M14 34q50 168 126.5 344.5t150.5 304.5q7 13 26 17q35 4 122 4q86 0 123 -4q19 -3 27 -17q72 -127 148.5 -304t127.5 -346q2 -6 2 -11q0 -6 -5 -13.5t-20 -9.5q-39 -3 -110 -3q-69 0 -108 4q-10 1 -17 8t-7 18q0 8 1 17q-1 41 -13 80q-18 49 -101 51q-24 1 -47 1
q-24 0 -48 -1q-80 -2 -101 -51q-12 -39 -12 -84v-13q0 -11 -7.5 -18t-17.5 -8q-37 -4 -117 -4q-66 0 -99 4q-15 2 -20.5 9.5t-5.5 14.5q0 5 2 10zM419 268h41q36 2 48 13.5t12 24.5q0 8 -4 18q-18 71 -53 160q-12 26 -24 27q-11 -1 -23 -27q-35 -89 -53 -160q-4 -11 -4 -20
q0 -34 60 -36z" />
    <glyph glyph-name="B" unicode="B" horiz-adv-x="844" 
d="M26 33q0 287 26 639q2 26 28 28q133 7 353 7q350 0 350 -145q0 -59 -60 -104.5t-166 -61.5q-17 -4 -17.5 -9l-0.5 -5q0 -9 16 -13q133 -19 202.5 -71t69.5 -119q0 -51 -35.5 -88.5t-96 -58t-130 -30.5t-149.5 -10q-239 0 -359 8q-13 1 -22 10.5t-9 22.5zM273 201
q1 -42 53 -45q58 -2 110 -2q65 0 104 21t39 56q0 81 -258 95q-5 1 -10 1q-36 0 -38 -41v-42v-43zM273 459q3 -32 39 -32h7q224 14 224 81q0 54 -131 54q-72 0 -96 -2q-40 -2 -43 -34q-1 -17 -1 -34q0 -16 1 -33z" />
    <glyph glyph-name="C" unicode="C" horiz-adv-x="833" 
d="M17 325q0 173 122.5 278t319.5 105q159 0 277 -55q17 -10 17 -31v-6q-2 -15 -10 -83.5t-11 -88.5q-2 -17 -10.5 -18.5t-10.5 -1.5q-12 0 -21 12q-83 103 -225 103q-91 0 -146 -53t-55 -147q0 -83 59 -125t156 -42q182 0 274 120q9 14 21 14q3 0 13.5 -3t12.5 -26
q5 -66 11 -205v-4q0 -20 -20 -28q-52 -19 -150.5 -33.5t-176.5 -14.5q-100 0 -180.5 19t-140.5 58.5t-93 104.5t-33 151z" />
    <glyph glyph-name="D" unicode="D" horiz-adv-x="850" 
d="M26 31q0 251 26 641q1 11 9 19t19 9q78 4 289 4q209 0 336.5 -104.5t127.5 -287.5q0 -161 -107 -240.5t-309 -79.5q-253 0 -363 8q-12 1 -20 10t-8 21zM273 250q3 -65 59 -68q24 -1 77 -1q82 0 132 36.5t50 107.5q0 91 -55.5 146.5t-148.5 56.5q-18 0 -64 -2
q-22 -1 -35 -17t-15 -41q-1 -54 -1 -108q0 -55 1 -110z" />
    <glyph glyph-name="E" unicode="E" horiz-adv-x="817" 
d="M53 674q3 24 31 26q60 4 302 4q233 0 303 -4q27 -1 30 -29q8 -96 8 -192v-2q0 -19 -9 -21.5t-13 -2.5q-12 0 -23 13q-82 83 -264 83q-71 0 -112 -17.5t-41 -51.5v-6q0 -54 130 -54q98 0 194 8h3q11 0 20 -7.5t9 -20.5v-87q0 -16 -7.5 -19t-11.5 -3q-8 0 -17 6
q-67 31 -169 31h-12q-140 -2 -140 -69v-16q0 -46 53 -67.5t140 -21.5q109 0 167 28t103 97q9 15 24 15q2 0 13 -1.5t13 -22.5q9 -68 18 -244v-3q0 -9 -6.5 -15.5t-18.5 -7.5q-81 -4 -386 -4q-256 0 -327 4q-31 2 -31 30q4 397 27 644z" />
    <glyph glyph-name="F" unicode="F" horiz-adv-x="747" 
d="M53 674q3 24 31 26q104 4 304 4q223 0 301 -4q27 -1 30 -29q7 -94 9 -205v-2q0 -18 -10 -21.5t-14 -3.5q-11 0 -20 12q-77 95 -266 95q-70 0 -111.5 -18t-41.5 -52v-8q0 -28 33 -45.5t97 -17.5q102 0 192 12h4q10 0 18.5 -7.5t8.5 -20.5q4 -67 5 -118v-3q0 -14 -7.5 -17
t-11.5 -3q-9 0 -18 6q-72 37 -183 37h-11q-128 0 -128 -94q0 -39 16 -101.5t17 -65.5t1 -7q0 -7 -6.5 -14t-19.5 -9q-28 -4 -107 -4q-55 0 -107 4q-32 3 -32 29q4 396 27 645z" />
    <glyph glyph-name="G" unicode="G" horiz-adv-x="873" 
d="M140 602q122 106 319 106q164 0 292 -52q21 -10 21 -36v-5q-4 -32 -24 -155q-2 -17 -10.5 -19t-11.5 -2q-10 0 -19 9q-99 84 -236 84q-90 0 -147.5 -54.5t-57.5 -148.5q0 -83 46.5 -122.5t120.5 -39.5h4q64 0 106.5 33.5t42.5 83.5q0 41 -23 72q-5 8 -5 15q0 5 4 13t20 9
q64 3 220 7q13 0 21 -8t9 -20q18 -187 18 -327v-15q0 -28 -28 -30q-39 -3 -84 -3q-46 0 -98 3q-28 4 -28 26v4q6 34 7 59v4q0 10 -3 14t-8 4q-2 0 -7 -2t-11 -13q-72 -104 -232 -104q-149 0 -245 84.5t-96 246.5q0 173 123 279z" />
    <glyph glyph-name="H" unicode="H" horiz-adv-x="846" 
d="M26 31q0 413 26 641q2 24 29 28q28 4 79 4q71 0 99 -4q15 -2 22 -10.5t7 -18.5v-5q-13 -115 -13 -171q0 -38 26 -53.5t75 -17.5q23 -1 45 -1t45 1q105 3 105 71q0 22 -14 172v3q0 11 7.5 20t21.5 11q39 4 100 4q43 0 78 -4q27 -5 30 -28q26 -228 26 -642q0 -12 -9 -20.5
t-21 -10.5q-41 -4 -99 -4q-73 0 -112 4q-13 1 -20.5 9t-7.5 20v5q19 122 19 175q0 66 -104 69q-23 1 -45 1q-23 0 -46 -1q-99 -3 -99 -69q0 -42 18 -175q1 -4 1 -7q0 -10 -8 -18t-21 -9q-37 -4 -112 -4q-58 0 -98 4q-12 2 -21 10.5t-9 20.5z" />
    <glyph glyph-name="I" unicode="I" horiz-adv-x="314" 
d="M47 672q3 23 29 28q32 4 83 4q50 0 79 -4q26 -5 28 -28q23 -312 23 -641q0 -13 -9 -21.5t-21 -9.5q-36 -4 -101 -4q-66 0 -103 4q-29 4 -29 31q0 328 21 641z" />
    <glyph glyph-name="J" unicode="J" horiz-adv-x="796" 
d="M20 66q5 152 8 201q2 24 11.5 27t13.5 3q12 0 22 -14q85 -111 241 -111q90 0 146.5 41.5t61.5 121.5q2 37 2 68t-2 56q-7 74 -111 74q-180 0 -276 -62q-11 -8 -20 -8q-6 0 -14.5 5t-8.5 22v3q0 69 9 179q2 26 29 28q75 5 281 5q219 0 299 -5q29 -2 32 -27
q28 -272 28 -378q0 -303 -440 -303q-71 0 -154 12t-137 30q-21 8 -21 28v4z" />
    <glyph glyph-name="K" unicode="K" horiz-adv-x="868" 
d="M51 672q1 23 28 28q26 4 90 4q61 0 97 -4q28 -5 28 -26v-5q-15 -92 -15 -138q0 -27 16.5 -44t39.5 -17q78 0 134 62t72 144q5 23 28 26q47 3 102 3q53 0 100 -3q14 -1 21 -10.5t7 -20.5v-5q-9 -103 -81 -170.5t-214 -89.5q-11 -2 -14.5 -6t-3.5 -7t3.5 -7.5t14.5 -6.5
q163 -20 247.5 -103.5t98.5 -240.5v-3q0 -11 -7.5 -20.5t-21.5 -11.5q-30 -4 -104 -4q-89 0 -132 4q-28 3 -30 30q-9 105 -77.5 188t-151.5 83q-20 0 -34 -19t-14 -47q0 -31 3 -63.5t10 -80.5t9 -60v-2q0 -11 -8 -19.5t-21 -9.5q-36 -4 -109 -4q-66 0 -107 4q-29 4 -29 31
q2 349 25 641z" />
    <glyph glyph-name="L" unicode="L" horiz-adv-x="809" 
d="M53 674q3 22 31 26q42 4 120 4q53 0 93 -4q15 -2 22 -10.5t7 -16.5q0 -4 -1 -8q-44 -173 -53 -254q-7 -60 -7 -123q0 -118 192 -118q107 0 164.5 28t101.5 98q10 16 25 16q2 0 12.5 -1.5t12.5 -23.5q9 -74 18 -261q0 -24 -26 -26q-80 -4 -381 -4q-256 0 -327 4
q-31 2 -31 30q4 397 27 644z" />
    <glyph glyph-name="M" unicode="M" horiz-adv-x="1060" 
d="M89 673q3 24 30 27q37 4 108 4q68 0 108 -4q45 -6 57 -37q9 -24 31.5 -96t26.5 -84q48 -138 81 -138q31 0 78 135q7 22 19.5 62t22.5 71t17 50q12 32 57 37q39 4 104 4q82 0 113 -4q25 -3 30 -27q58 -348 68 -641v-3q0 -11 -7.5 -19t-20.5 -10q-30 -4 -101 -4
q-68 0 -105 4q-30 4 -30 28v5q8 69 8 152q0 48 -3 100q-5 124 -32 124q-15 0 -27.5 -25.5t-30.5 -77.5q-3 -10 -5 -15q-9 -22 -60 -144q-18 -42 -40 -61t-55 -19q-34 0 -55 19t-40 61q-37 81 -61 146q-10 30 -15.5 45t-14.5 34.5t-17 27.5t-17 8q-26 0 -31 -125
q-3 -49 -3 -97q0 -77 8 -153v-3q0 -12 -8.5 -20t-21.5 -10q-37 -4 -104 -4q-73 0 -103 4q-13 1 -20.5 10t-7.5 22q11 309 69 641z" />
    <glyph glyph-name="N" unicode="N" horiz-adv-x="849" 
d="M26 31q2 388 29 641q1 23 28 28q21 4 75 4q34 0 71 -4q42 -4 76 -42q132 -192 188 -252q50 -54 74 -54q31 0 31 78t-31 233q-1 4 -1 7q0 10 7.5 19t22.5 11q37 4 88 4q47 0 84 -4q26 -5 29 -29q25 -239 26 -514q0 -165 -123 -165q-50 0 -100.5 35t-90.5 85t-76.5 100.5
t-69.5 85.5t-57 35q-35 0 -37 -82q0 -49 18 -217v-3q0 -12 -8 -21t-22 -11q-29 -3 -104 -3q-65 0 -97 4q-30 4 -30 31z" />
    <glyph glyph-name="O" unicode="O" horiz-adv-x="890" 
d="M136 603q118 105 309 105t309.5 -105.5t118.5 -279.5q0 -171 -114 -251q-115 -80 -314 -80t-313.5 80t-114.5 251q0 174 119 280zM268 335q0 -85 48.5 -126t128.5 -41q81 0 129 41t48 126q0 86 -50 141.5t-127 55.5t-127 -55.5t-50 -141.5z" />
    <glyph glyph-name="P" unicode="P" horiz-adv-x="795" 
d="M52 673q3 25 28 27q140 9 339 9q172 0 265.5 -53.5t93.5 -149.5q0 -93 -67 -158.5t-160 -88.5t-183 -23q-34 0 -70 3h-2q-12 0 -18 -9t-6 -24v-4q1 -35 15 -95.5t16 -73.5v-3q0 -11 -7.5 -19.5t-21.5 -10.5q-29 -4 -108 -4q-66 0 -112 4q-28 4 -28 29q0 386 26 644z
M275 392q3 -33 44 -33h18q96 0 150.5 32t54.5 79q0 74 -157 74q-37 0 -72 -3q-35 -1 -38 -35q-2 -26 -2 -54q0 -29 2 -60z" />
    <glyph glyph-name="Q" unicode="Q" horiz-adv-x="891" 
d="M17 321q0 175 118.5 281t309.5 106t309.5 -106t118.5 -281q0 -152 -96 -236t-254 -94q-14 -1 -18 -8.5t-4 -13.5q0 -5 3.5 -13t16.5 -11q43 -8 86 -8q94 0 168 26q7 3 14 3t15.5 -5.5t10.5 -20.5q0 -13 3.5 -59.5t4.5 -69.5q0 -13 -9 -22t-22 -10q-93 -8 -226 -8
q-146 0 -221 8q-14 1 -22.5 10t-8.5 20v3q3 22 12 79.5t13 86.5v4q0 15 -16 18q-141 15 -223.5 98.5t-82.5 222.5zM317 203q48 -42 128 -42q81 0 129 41.5t48 127.5q0 88 -49.5 144.5t-127.5 56.5q-77 0 -127 -57t-50 -144q0 -86 49 -127z" />
    <glyph glyph-name="R" unicode="R" horiz-adv-x="827" 
d="M26 30q0 246 26 645q2 25 28 27q92 5 350 5q346 0 346 -169q0 -74 -66 -128.5t-179 -67.5q-11 -1 -14.5 -5t-3.5 -7t3.5 -7t14.5 -5q125 -18 196.5 -92.5t78.5 -194.5v-2q0 -11 -8.5 -19t-21.5 -10q-41 -4 -107 -4q-71 0 -114 4q-28 3 -30 29q-3 99 -62.5 172.5
t-138.5 78.5h-3q-20 0 -32.5 -15t-12.5 -41q0 -23 2.5 -51.5t5 -47.5t7.5 -50t7 -42q1 -3 1 -6q0 -8 -8 -16.5t-21 -10.5q-41 -4 -111 -4q-75 0 -104 4q-12 2 -20.5 10t-8.5 20zM276 418q3 -34 36 -34q5 0 12 1q214 17 214 91q0 62 -151 62q-50 0 -73 -2q-35 -1 -38 -36
q-1 -20 -1 -40q0 -21 1 -42z" />
    <glyph glyph-name="S" unicode="S" horiz-adv-x="811" 
d="M38 275q5 2 9 2q11 0 21 -10q117 -104 310 -104q146 0 146 65q0 26 -35.5 44.5t-88 28t-114.5 25t-114.5 35t-88 59.5t-35.5 96q0 98 94 145t261 47q172 0 301 -41q21 -8 21 -29q5 -69 8 -144v-3q0 -19 -10 -24.5t-15 -5.5q-9 0 -18 8q-105 75 -239 77q-68 0 -113.5 -15
t-45.5 -43q0 -26 37 -43t92.5 -26t120.5 -24.5t120.5 -35.5t92.5 -61.5t37 -99.5q-1 -99 -99 -152.5t-278 -53.5q-78 0 -186.5 15t-183.5 36q-21 6 -21 31q-2 112 -2 173q0 21 16 28z" />
    <glyph glyph-name="T" unicode="T" horiz-adv-x="772" 
d="M19 672q3 26 30 28q64 4 337 4q256 0 336 -4q28 -2 30 -28q8 -86 8 -205v-2q0 -19 -9 -22t-12 -3q-12 0 -21 12q-33 34 -80.5 58.5t-97.5 24.5q-25 0 -37 -15.5t-12 -37.5q0 -6 1 -13q10 -150 39 -436v-3q0 -11 -7.5 -19.5t-21.5 -10.5q-39 -4 -112 -4q-77 0 -117 4
q-13 1 -21 10t-8 20v3q30 297 39 437q1 7 1 13q0 22 -12 37.5t-37 15.5q-45 0 -97 -25.5t-84 -58.5q-9 -11 -20 -11q-4 0 -13.5 3t-9.5 24q4 146 8 204z" />
    <glyph glyph-name="U" unicode="U" horiz-adv-x="823" 
d="M48 673q3 24 28 27q33 4 98 4q70 0 102 -4q13 -2 20.5 -10.5t7.5 -17.5q0 -3 -1 -7q-32 -176 -32 -312v-30q2 -69 38 -112t103 -43t103 44t38 111v29q0 135 -33 313q-1 3 -1 7q0 9 8 17.5t20 10.5q35 4 104 4q62 0 97 -4q24 -3 27 -27q27 -180 27 -364v-13
q0 -153 -100.5 -229t-289.5 -76q-190 0 -290.5 76t-100.5 229q0 176 27 377z" />
    <glyph glyph-name="V" unicode="V" horiz-adv-x="867" 
d="M17 690q7 9 22 10q50 4 97 4q62 0 120 -4q22 -2 24 -22q16 -124 52 -252t76 -203q13 -23 25 -23t25 23q42 75 77.5 202t51.5 253q2 20 24 22q58 4 111 4q70 0 107 -3q15 -1 20 -8.5t5 -14.5q0 -5 -2 -11q-42 -175 -116 -352t-151 -296q-10 -16 -29 -19q-36 -4 -124 -4
q-87 0 -122 4q-17 3 -29 19q-76 122 -150.5 298t-116.5 349q-1 5 -1 10q0 8 4 14z" />
    <glyph glyph-name="W" unicode="W" horiz-adv-x="1081" 
d="M36 700q29 4 105 4q70 0 100 -4q28 -2 28 -31q5 -121 29 -249q14 -125 43 -125q15 0 24.5 23t23.5 75q3 12 5 18q3 10 22.5 73.5t28.5 91.5q16 53 37 76.5t57 23.5q37 0 58.5 -23.5t36.5 -76.5q7 -19 50 -162q25 -91 36 -108q8 -13 19 -13q29 0 44 123q25 146 28 252v2
q0 26 29 30t102 4t104 -4q23 -3 23 -26v-6q-19 -166 -58 -344t-78 -297q-10 -26 -34 -27q-41 -4 -100 -4q-71 0 -103 4q-45 5 -54 38q-3 12 -17.5 78.5t-23.5 102.5q-31 134 -61 134t-63 -139q-29 -136 -39 -176q-5 -19 -18 -27t-36 -11q-32 -4 -100 -4q-63 0 -102 4
q-24 3 -34 27q-40 121 -78.5 298t-56.5 343v6q0 23 23 26z" />
    <glyph glyph-name="X" unicode="X" horiz-adv-x="842" 
d="M13 34q10 129 88.5 224t192.5 118q8 1 10 5t3 7l-3 6t-9 5q-102 25 -169 100t-75 166q-1 4 -1 7q0 24 29 28q31 4 99 4q72 0 101 -4q26 -4 27 -25q12 -82 44.5 -146.5t70.5 -64.5t71.5 67t43.5 144q2 21 25 25q30 4 103 4q58 0 99 -4q14 -2 21 -10.5t7 -19.5v-5
q-9 -90 -77 -165.5t-167 -101.5q-11 -3 -11 -12t11 -12q116 -29 193.5 -121t88.5 -219v-3q0 -11 -8 -20t-22 -11q-41 -4 -98 -4q-88 0 -121 4q-26 3 -28 26q-18 99 -56 186.5t-75 87.5q-38 0 -79 -91t-52 -182q-2 -24 -28 -27q-33 -4 -121 -4q-67 0 -98 4q-14 1 -22 10
t-8 21v3z" />
    <glyph glyph-name="Y" unicode="Y" horiz-adv-x="798" 
d="M18 689q8 10 22 11q30 4 97 4q77 0 108 -4q26 -4 28 -28q8 -60 26.5 -122t46 -106.5t53.5 -44.5q39 0 78.5 91.5t47.5 181.5q2 25 28 28q30 4 107 4q67 0 98 -4q14 -1 21.5 -10t7.5 -20v-5q-8 -109 -90 -224.5t-178 -136.5q-15 -3 -15 -17q0 -4 1 -8q23 -135 32 -249v-2
q0 -11 -8.5 -18.5t-20.5 -9.5q-36 -4 -106 -4q-74 0 -113 4q-12 2 -20 9.5t-8 18.5v2q6 89 33 250q1 3 1 6q0 14 -15 19q-97 25 -179 138.5t-90 221.5v3q0 12 7 21z" />
    <glyph glyph-name="Z" unicode="Z" horiz-adv-x="809" 
d="M20 30q0 40 1 66t13.5 43t43.5 41q231 223 297 282q29 20 35 31.5t6 17.5q0 7 -8 13.5t-26 10.5t-41 4q-171 0 -246 -91q-10 -13 -22 -13q-3 0 -12 3t-9 22v2q4 157 10 209q3 27 29 29q80 4 314 4q261 0 315 -4q29 -2 32 -28q2 -23 4 -58q0 -47 -47 -84
q-16 -16 -83.5 -84t-118.5 -117.5t-94 -87.5q-35 -25 -35 -44q0 -5 9 -18.5t73 -13.5q101 0 161.5 30t104.5 95q10 15 24 15q3 0 14 -2.5t12 -25.5q2 -20 4.5 -70t5.5 -107t4 -74q0 -10 -7.5 -17.5t-18.5 -8.5q-69 -4 -373 -4q-260 0 -340 4q-14 1 -22.5 8.5t-8.5 18.5v3z
" />
    <glyph glyph-name="bracketleft" unicode="[" horiz-adv-x="303" 
d="M81 700h161q35 0 35 -36v-15q0 -36 -35 -36h-43q-36 0 -36 -35v-624q0 -35 36 -35h43q35 0 35 -36v-15q0 -36 -35 -36h-161q-36 0 -36 36v796q0 36 36 36z" />
    <glyph glyph-name="backslash" unicode="\" horiz-adv-x="527" 
d="M20 692q5 7 15 8q44 4 87 4q71 0 96 -4q30 -5 40 -26q114 -262 250 -644q3 -8 3 -14q0 -14 -18 -16q-25 -4 -92 -4q-54 0 -92 4q-28 3 -41 30q-100 237 -250 644q-2 4 -2 8q0 6 4 10z" />
    <glyph glyph-name="bracketright" unicode="]" horiz-adv-x="303" 
d="M45 664q0 36 36 36h161q35 0 35 -36v-796q0 -36 -35 -36h-161q-36 0 -36 36v15q0 36 36 36h42q36 0 36 35v624q0 35 -36 35h-42q-36 0 -36 36v15z" />
    <glyph glyph-name="asciicircum" unicode="^" horiz-adv-x="468" 
d="M19 416l106 204q15 39 60 44l61 33h9q38 0 60 -33l107 -204q12 -19 12 -35q0 -24 -26 -41l-13 -45q-18 -13 -34 -13q-23 0 -40 27l-47 96q-23 38 -30 38.5t-8 0.5q-14 0 -35 -36l-50 -81q-18 -28 -47 -28q-13 0 -29 6l-28 -2q-34 14 -34 43q0 12 6 26z" />
    <glyph glyph-name="underscore" unicode="_" horiz-adv-x="531" 
d="M32 -13h466q36 0 36 -36v-50q0 -36 -36 -36h-466q-35 0 -35 36v50q0 36 35 36z" />
    <glyph glyph-name="a" unicode="a" horiz-adv-x="707" 
d="M16 145q0 76 73 119t197 56q88 9 119 18t31 31q0 17 -25.5 29t-79.5 12q-55 0 -118 -17.5t-110 -50.5q-9 -8 -18 -8q-5 0 -14.5 5t-9.5 24v3q1 26 10 124q3 26 22 33q101 29 249 29q155 0 231.5 -53t88.5 -157q17 -148 22 -308v-3q0 -11 -7.5 -20t-20.5 -11
q-32 -4 -92 -4q-59 0 -95 4q-37 6 -37 34q0 4 1 8q5 24 9 61v5q0 10 -4 11.5t-6 1.5q-7 0 -13 -11q-29 -56 -84.5 -87t-122.5 -31q-196 0 -196 153zM264 154q18 -12 61 -12q39 0 75 24.5t36 61.5q0 43 -61 43q-52 0 -91 -23t-39 -57q0 -26 19 -37z" />
    <glyph glyph-name="b" unicode="b" horiz-adv-x="783" 
d="M49 687q3 24 27 29q32 4 94 4q69 0 101 -4q13 -2 20 -11t7 -18v-5q-27 -138 -29 -228v-4q0 -14 4.5 -15t5.5 -1q7 0 15 12q71 106 210 106q117 0 189.5 -78t72.5 -209t-72 -202t-191 -71q-140 0 -211 102q-8 13 -15 13q-1 0 -5 -1.5t-4 -14.5v-4q1 -20 7 -56q1 -3 1 -6
q0 -8 -7.5 -15.5t-19.5 -9.5q-25 -4 -96 -4q-62 0 -101 4q-11 2 -18.5 10t-7.5 21q0 434 23 656zM306 184q37 -33 95 -34q58 0 95 33t37 90q0 54 -37 87.5t-95 33.5t-95 -33t-37 -88q0 -56 37 -89z" />
    <glyph glyph-name="c" unicode="c" horiz-adv-x="667" 
d="M116 473q100 79 263 79q137 0 214 -31q24 -10 24 -32v-4q-9 -75 -14 -114q-3 -21 -12 -25t-13 -4q-9 0 -19 9q-29 18 -75 30t-86 12q-76 0 -116 -32.5t-40 -93.5q0 -54 44.5 -84t123.5 -30q105 0 185 62q9 10 19 10q5 0 15 -4.5t11 -25.5q4 -52 8 -136v-6q0 -22 -21 -29
q-106 -32 -249 -32q-167 0 -264.5 68.5t-97.5 201.5q0 132 100 211z" />
    <glyph glyph-name="d" unicode="d" horiz-adv-x="783" 
d="M89 474q72 78 190 78q139 0 210 -106q8 -12 15 -12q1 0 5.5 1t4.5 15v4q-4 97 -29 228v5q0 9 7 18t20 11q32 4 100 4q63 0 95 -4q24 -5 27 -29q23 -222 23 -656q0 -27 -27 -31q-37 -4 -100 -4q-71 0 -96 4q-12 2 -19.5 9.5t-7.5 15.5q0 3 1 6q6 36 7 56v6q0 11 -4 12.5
t-5 1.5q-7 0 -16 -13q-69 -102 -210 -102q-119 0 -191.5 71t-72.5 202t73 209zM250 273q0 -57 37 -90t95 -33q58 1 95 34t37 89q0 55 -37 88t-95 33q-59 0 -95.5 -33.5t-36.5 -87.5z" />
    <glyph glyph-name="e" unicode="e" horiz-adv-x="683" 
d="M109 479q92 73 243 73q136 0 215 -49t79 -139q0 -70 -70 -114t-165 -44q-98 0 -171 35q-8 5 -14 5t-9 -3.5t-3 -8.5q0 -7 7 -16q21 -35 76 -58.5t113 -23.5q119 0 206 70q9 10 18 10q5 0 14.5 -4.5t10.5 -25.5q7 -76 8 -113q0 -23 -17 -32q-90 -49 -271 -49
q-169 0 -266 74.5t-97 209.5q0 129 93 203zM267 303q42 -13 90 -13q41 0 65 16t24 45q0 65 -99 65q-48 0 -85.5 -21.5t-37.5 -54.5q0 -24 43 -37z" />
    <glyph glyph-name="f" unicode="f" horiz-adv-x="533" 
d="M22 534q9 9 22 9h60q8 0 13 4t5 10v2q-3 18 -3 35q0 70 54.5 109.5t172.5 39.5q79 0 151 -23q21 -7 21 -30q1 -25 1 -88q-1 -19 -9.5 -22t-12.5 -3q-9 0 -18 9q-31 28 -81 28q-29 0 -46 -11t-17 -28v-2q1 -15 21 -24t50 -9q11 0 81 5h3q11 0 19.5 -8t9.5 -21v-82
q-1 -13 -9 -21t-19 -8h-3q-120 8 -121 8q-21 0 -23 -25v-17q0 -94 19 -340v-3q0 -10 -7.5 -18t-19.5 -10q-33 -4 -98 -4q-69 0 -108 4q-27 4 -27 31q0 209 7 359v3q0 7 -5 12.5t-13 5.5h-49q-12 0 -21 8.5t-9 21.5v72q0 12 9 21z" />
    <glyph glyph-name="g" unicode="g" horiz-adv-x="782" 
d="M93 478q72 74 189 74q69 0 125 -29.5t88 -84.5q7 -11 14 -11q1 0 5 1t4 14v3q-2 23 -10 68v4q0 9 7 17t19 10q32 4 90 4q46 0 88 -4q24 -4 27 -29q21 -153 21 -468q0 -285 -395 -285q-208 0 -316 28q-24 8 -24 31v3q3 49 9 140q1 16 10.5 21t14.5 5q8 0 15 -5
q98 -53 224 -53q92 0 159.5 43.5t67.5 107.5v18q0 11 -4 14.5t-8 3.5q-2 0 -7 -2t-11 -12q-62 -103 -212 -103q-117 0 -189.5 73t-72.5 200q0 129 72 203zM291 183q37 -34 96 -34q57 0 94 34t37 91q0 55 -36.5 87.5t-94.5 33.5q-59 0 -96 -33t-37 -88q0 -57 37 -91z" />
    <glyph glyph-name="h" unicode="h" horiz-adv-x="790" 
d="M25 31q0 401 24 656q1 24 26 29q32 4 91 4q62 0 101 -4q13 -2 20 -9.5t7 -16.5v-5q-22 -127 -26 -245v-4q0 -13 4 -15t6 -2q6 0 13 11q72 122 210 122q111 0 179.5 -73.5t78.5 -195.5q9 -115 9 -229v-23q0 -27 -27 -31q-45 -3 -91 -3q-54 0 -102 3q-13 2 -20.5 10.5
t-7.5 18.5v3q11 125 11 185v10q-2 65 -38.5 106t-96.5 41q-58 0 -95 -42t-37 -107q0 -87 11 -194v-3q0 -10 -7 -18.5t-19 -9.5q-50 -4 -96 -4q-44 0 -102 4q-11 1 -18.5 9t-7.5 19v3z" />
    <glyph glyph-name="i" unicode="i" horiz-adv-x="304" 
d="M29 31q0 278 18 485q1 25 26 28q31 4 81 4q49 0 77 -4q23 -3 26 -28q17 -213 17 -486q0 -12 -7.5 -20t-18.5 -10q-36 -4 -93 -4q-62 0 -99 4q-11 2 -19 10.5t-8 20.5zM31 671q0 39 32 63t89 24t89 -24t32 -63t-32 -63q-32 -25 -89 -25t-89 24.5t-32 63.5z" />
    <glyph glyph-name="j" unicode="j" horiz-adv-x="296" 
d="M-154 -186q0 88 1 105q0 19 8.5 23.5t13.5 4.5q8 0 17 -7q30 -19 69 -19q33 0 56.5 24t24.5 65q2 66 2 131q0 194 -16 373v3q0 9 7 17t19 10q32 4 97 4q57 0 84 -4q24 -3 27 -28q17 -198 17 -447v-76q-1 -81 -37.5 -134.5t-91 -75t-124.5 -21.5q-80 0 -153 22
q-21 7 -21 30zM46 736q32 24 88 24q57 0 89.5 -24t32.5 -63t-32.5 -63t-89.5 -24q-56 0 -88.5 24t-32.5 63t33 63z" />
    <glyph glyph-name="k" unicode="k" horiz-adv-x="787" 
d="M49 687q3 24 28 29q31 4 86 4q71 0 104 -4q12 -2 19.5 -11t7.5 -19v-3q-28 -173 -28 -273q0 -24 12 -39.5t29 -15.5q62 0 114.5 52t57.5 112q3 22 26 25q37 4 101 4q62 0 90 -4q27 -5 27 -25v-4q-20 -183 -271 -209q-10 -1 -13 -4.5t-3 -5.5t3 -5.5t13 -4.5
q151 -13 226.5 -76t90.5 -183v-4q0 -20 -27 -23q-39 -4 -94 -4q-90 0 -122 4q-25 3 -27 25q-7 80 -69 142t-128 62q-15 0 -25 -12t-11 -31v-19q0 -57 10 -136v-5q0 -9 -7 -17t-19 -10q-38 -3 -93 -3q-67 0 -104 4q-27 4 -27 31q2 447 23 656z" />
    <glyph glyph-name="l" unicode="l" horiz-adv-x="319" 
d="M49 687q3 24 28 29q31 4 87 4q70 0 103 -4q12 -2 19.5 -11t7.5 -19v-3q-18 -128 -21 -254t-3 -181q0 -121 7 -217v-3q0 -10 -7.5 -18t-19.5 -10q-33 -4 -93 -4q-67 0 -104 4q-27 4 -27 31q0 392 23 656z" />
    <glyph glyph-name="m" unicode="m" horiz-adv-x="1121" 
d="M42 516q3 25 27 28q31 4 82 4q66 0 97 -4q13 -2 20 -9.5t7 -15.5q0 -3 -1 -6q-14 -68 -14 -87q0 -17 4.5 -18.5t5.5 -1.5q6 0 13 14q25 58 72 94t103 36q130 0 177 -122q9 -21 19 -21t20 21q25 56 73.5 89t112.5 33q86 0 146.5 -59.5t73.5 -171.5q14 -113 19 -286v-2
q0 -25 -28 -31q-26 -4 -88 -4q-75 0 -105 4q-27 5 -27 27v5q6 91 6 154q0 23 -1 43q-1 58 -26.5 91.5t-66.5 33.5q-37 0 -62 -34.5t-25 -87.5v-4q0 -85 10 -195v-2q0 -26 -29 -31q-26 -4 -89 -4q-75 0 -105 4q-13 2 -20.5 10t-7.5 19v3q6 96 6 166v33q-2 56 -28 89.5
t-66 33.5q-37 0 -61.5 -36t-26.5 -94q-1 -17 -1 -40q0 -59 6 -152v-3q0 -11 -7 -19t-19 -10q-35 -4 -97 -4q-57 0 -92 4q-27 4 -27 32q1 300 20 484z" />
    <glyph glyph-name="n" unicode="n" horiz-adv-x="790" 
d="M48 514q3 27 27 30q31 4 91 4q54 0 94 -4q12 -2 18 -10t6 -15q0 -4 -1 -8q-15 -48 -15 -75v-3q0 -13 4 -14t5 -1q7 0 14 12q72 122 210 122q111 0 179 -73.5t79 -195.5q9 -112 9 -253q-1 -27 -28 -30q-40 -4 -92 -4q-56 0 -100 4q-13 2 -20.5 10t-7.5 19v3q11 119 11 193
q-2 66 -38.5 107.5t-96.5 41.5q-58 0 -95 -42.5t-37 -105.5v-3q0 -99 11 -192v-3q0 -10 -7.5 -18t-19.5 -10q-33 -4 -96 -4q-64 0 -101 4q-27 4 -27 31q1 294 24 483z" />
    <glyph glyph-name="o" unicode="o" horiz-adv-x="738" 
d="M16 262q0 131 98.5 210.5t254.5 79.5t254 -79.5t98 -210.5q0 -134 -96 -202t-256 -68t-256.5 68t-96.5 202zM235 272q0 -58 38 -92q37 -34 96 -34t96.5 34t37.5 92q0 57 -37 92t-97 35q-59 0 -96.5 -35t-37.5 -92z" />
    <glyph glyph-name="p" unicode="p" horiz-adv-x="783" 
d="M48 514q3 27 28 30q35 4 89 4q64 0 99 -4q13 -2 19.5 -9t6.5 -15q0 -4 -1 -8q-10 -41 -11 -63v-5q0 -7 2.5 -10.5t5.5 -3.5q2 0 6 1.5t9 10.5q30 51 86 80.5t117 29.5q118 0 190 -74t72 -206q0 -130 -73.5 -205t-192.5 -75q-69 0 -125.5 28.5t-85.5 81.5q-6 12 -13 12
q-1 0 -6 -2t-5 -18v-35q0 -125 18 -258v-5q0 -9 -7 -16.5t-20 -9.5q-48 -4 -109 -4q-46 0 -98 4q-25 3 -25 30q0 435 24 714zM270 269q0 -55 37 -88t95 -33t95 33t37 88q0 57 -37 90.5t-95 33.5t-95 -33.5t-37 -90.5z" />
    <glyph glyph-name="q" unicode="q" horiz-adv-x="790" 
d="M96 478q72 74 190 74q61 0 117 -29.5t86 -80.5q5 -9 9 -10.5t6 -1.5q3 0 5.5 3.5t2.5 10.5v5q-1 22 -11 63q-1 4 -1 8q0 8 6.5 15t19.5 9q35 4 99 4q54 0 89 -4q26 -4 28 -30q24 -279 24 -714q0 -27 -25 -30q-52 -4 -98 -4q-61 0 -109 4q-13 2 -20 9.5t-7 16.5v5
q19 135 19 268v25q-1 16 -6 18t-6 2q-7 0 -13 -12q-29 -53 -85.5 -81.5t-125.5 -28.5q-119 0 -192.5 75t-73.5 205q0 132 72 206zM294 181q36 -33 94 -33t95 33t37 88q0 57 -37 90.5t-95 33.5q-57 0 -94 -33.5t-37 -90.5q0 -55 37 -88z" />
    <glyph glyph-name="r" unicode="r" horiz-adv-x="634" 
d="M42 516q3 25 27 28q32 4 89 4q70 0 97 -4q15 -2 21.5 -10t6.5 -17q0 -3 -1 -7q-15 -60 -15 -102q0 -16 4.5 -17t5.5 -1q8 0 13 13q54 149 193 149q69 0 115 -34q20 -13 20 -38q-2 -59 -11 -152q-1 -19 -12 -22.5t-16 -3.5q-11 0 -19 8q-60 50 -140 50q-61 0 -107.5 -44
t-46.5 -110q0 -78 13 -173v-5q0 -10 -7.5 -18.5t-19.5 -10.5q-25 -3 -104 -3q-42 0 -98 4q-26 4 -26 31q0 288 18 485z" />
    <glyph glyph-name="s" unicode="s" horiz-adv-x="675" 
d="M21 188q1 20 11 23.5t14 3.5q10 0 19 -8q48 -30 112.5 -49t120.5 -19q57 0 83.5 10.5t26.5 34.5q0 20 -38 31.5t-92.5 20.5t-108.5 23.5t-92 49.5t-38 89q0 77 79.5 115.5t220.5 38.5q132 0 242 -26q23 -6 26 -30q3 -55 5 -103v-3q0 -19 -9 -23.5t-14 -4.5q-9 0 -18 7
q-85 44 -182 46q-117 0 -117 -42q0 -19 39.5 -30.5t96 -20t113.5 -23.5t96.5 -51t39.5 -91q0 -78 -81.5 -121.5t-235.5 -43.5q-151 0 -298 39q-24 8 -24 32q0 62 3 125z" />
    <glyph glyph-name="t" unicode="t" horiz-adv-x="605" 
d="M11 514q0 13 8.5 21.5t20.5 8.5h78q7 0 12 5t5 12q2 41 6 81q5 25 29 30q8 1 81 4q60 0 95 -4q13 -2 21 -10.5t8 -19.5v-2q-8 -72 -8 -76q0 -9 5 -15t13 -6q25 0 84 1t84 1h2q11 0 19.5 -8.5t8.5 -21.5v-90q0 -12 -8.5 -21t-19.5 -9h-2q-72 6 -150 6q-40 0 -45 -36
q-4 -37 -4 -77q0 -26 3 -74.5t88 -48.5q20 0 56.5 8t52.5 16q7 5 14 5q6 0 16 -5.5t11 -24.5l-1 -114q-2 -24 -22 -33q-79 -25 -200 -25q-111 0 -181 50.5t-71 149.5q0 113 9 191v2q0 6 -4.5 11t-12.5 5l-72 -1q-12 0 -20.5 9t-8.5 21v42v42z" />
    <glyph glyph-name="u" unicode="u" horiz-adv-x="768" 
d="M47 514q3 27 28 30q43 5 88 5q65 0 100 -5q13 -2 20 -9.5t7 -17.5v-5q-28 -136 -28 -207q0 -66 31 -105t94 -39q52 0 83.5 44t31.5 110q0 95 -18 197v5q0 9 6.5 17t18.5 10q42 5 98 5q45 0 88 -5q11 -1 18.5 -10t9.5 -21q21 -239 21 -463v-20q0 -27 -24 -30
q-30 -5 -91 -5q-50 0 -98 5q-12 1 -19.5 8t-7.5 16q0 3 1 6q8 45 8 74q0 16 -4 17t-5 1q-7 0 -14 -12q-70 -119 -209 -119q-125 0 -191 65.5t-66 186.5q1 107 23 271z" />
    <glyph glyph-name="v" unicode="v" horiz-adv-x="745" 
d="M17 533q6 10 18 11q46 4 94 4q74 0 105 -4q22 -3 24 -26q7 -87 34.5 -185t59.5 -163q10 -20 21 -20t20 20q32 66 60 164.5t34 183.5q2 23 25 26q32 4 107 4q48 0 90 -4q14 -1 19 -9t5 -14q0 -5 -2 -9q-36 -136 -91 -269t-114 -224q-9 -16 -28 -19q-31 -4 -125 -4
q-95 0 -126 4q-18 3 -29 19q-61 94 -116.5 227.5t-87.5 265.5q-1 4 -1 7q0 7 4 14z" />
    <glyph glyph-name="w" unicode="w" horiz-adv-x="988" 
d="M41 544q27 4 91 4q66 0 91 -4q29 -5 31 -31q3 -103 29 -216q14 -81 35 -81q13 0 22 17.5t20 56.5q48 164 49 167q27 83 84 84q59 0 85 -84q9 -27 26 -88t23 -79q13 -41 21.5 -57t20.5 -16q20 0 36 80q26 123 29 215q0 27 31 32q32 4 91 4q64 0 91 -4q26 -5 26 -26v-5
q-22 -227 -121 -486q-9 -24 -39 -27q-54 -4 -95 -4q-54 0 -98 4q-38 5 -46 31q-4 14 -19.5 89t-31.5 127.5t-29 52.5t-29 -53t-32 -129.5t-19 -86.5q-8 -28 -47 -31q-43 -4 -97 -4q-56 0 -95 4q-30 3 -39 27q-40 99 -74.5 230.5t-46.5 255.5v5q0 21 26 26z" />
    <glyph glyph-name="x" unicode="x" horiz-adv-x="791" 
d="M10 30q7 88 75 163.5t169 93.5q12 2 12 11.5t-12 11.5q-90 18 -148 77t-62 125v4q0 24 26 28q29 4 95 4q68 0 97 -4q24 -4 27 -27q11 -63 44 -110.5t62 -47.5q31 0 65.5 49.5t41.5 110.5q3 21 25 25q29 4 99 4q66 0 95 -4q26 -4 26 -28v-4q-5 -63 -63.5 -122t-146.5 -81
q-7 -2 -9 -6t-2 -6t2 -6t9 -5q103 -23 171 -97.5t73 -158.5v-3q0 -9 -7 -17.5t-19 -9.5q-39 -4 -91 -4q-78 0 -118 4q-27 3 -30 26q-13 68 -52.5 134t-68.5 66t-69 -67t-51 -133q-3 -23 -29 -26q-40 -4 -118 -4q-54 0 -91 4q-12 1 -19.5 9.5t-7.5 18.5v2z" />
    <glyph glyph-name="y" unicode="y" horiz-adv-x="772" 
d="M12 -176q2 20 5 71.5t4 67.5q2 17 11 22t15 5q7 0 14 -5q97 -56 224 -56q90 0 162 50t72 112v16q0 11 -4 14.5t-7 3.5t-7 -2t-8 -11q-52 -113 -207 -113q-125 0 -191 66t-66 182q1 102 23 267q3 27 28 30q43 5 88 5q65 0 101 -5q13 -2 19.5 -9.5t6.5 -17.5v-5
q-27 -131 -27 -202q0 -67 30.5 -108t93.5 -41q51 0 81.5 45.5t30.5 112.5q0 82 -18 193v5q0 9 6.5 17t18.5 10q42 5 100 5q45 0 88 -5q11 -1 18.5 -10t9.5 -21q22 -231 22 -452v-19q0 -92 -58 -157.5t-145.5 -94.5t-192.5 -29q-204 0 -317 29q-24 7 -24 30v4z" />
    <glyph glyph-name="z" unicode="z" horiz-adv-x="722" 
d="M19 26q0 32 2 50q4 43 50 73q66 61 234 200q29 19 29 33q0 4 -7 14t-60 10q-112 0 -174 -62q-9 -11 -21 -11q-4 0 -14.5 3t-10.5 23v2q1 46 9 153q3 28 30 30q142 4 275 4q185 0 279 -4q27 -2 30 -25q4 -28 4 -51v-4q0 -38 -42 -67q-71 -70 -228 -201q-30 -20 -30 -33
q0 -8 12 -14q18 -9 61 -9q130 0 193 84q11 17 26 17q2 0 12 -1.5t12 -26.5q8 -80 14 -187v-2q0 -10 -8 -17.5t-21 -7.5q-231 -3 -327 -3q-220 0 -300 3q-12 0 -20.5 8t-8.5 19z" />
    <glyph glyph-name="braceleft" unicode="{" horiz-adv-x="327" 
d="M3 276q0 9 4.5 17t8 10.5t15.5 11.5q33 17 33 54v4l-10 179v12q0 58 39 97t98 39h81q34 0 36 -35l5 -72v-3q0 -14 -8.5 -23t-24.5 -9h-19q-23 0 -37 -17.5t-14 -43.5v-4l6 -120v-5q0 -24 -18.5 -49.5t-47.5 -34.5q-16 -6 -16 -18t16 -17q29 -10 47.5 -35.5t18.5 -48.5v-5
l-6 -121v-4q0 -25 14 -42.5t37 -17.5h19q16 0 24.5 -9t8.5 -23v-3l-5 -73q-2 -35 -36 -35h-81q-59 0 -98 39t-39 97v12l10 180v2q0 33 -33 56q-23 17 -26 27q-2 5 -2 12v19z" />
    <glyph glyph-name="bar" unicode="|" horiz-adv-x="296" 
d="M126 700h44q54 0 54 -54v-675q0 -54 -54 -54h-44q-55 0 -55 54v675q0 54 55 54z" />
    <glyph glyph-name="braceright" unicode="}" horiz-adv-x="327" 
d="M11 -35q9 10 25 10h19q23 0 37 17.5t14 42.5v4l-6 121v5q0 23 18.5 48.5t47.5 35.5q16 5 16 17t-16 18q-29 9 -47.5 34.5t-18.5 49.5v5l6 120v4q0 26 -14 43.5t-37 17.5h-19q-16 0 -24.5 9t-8.5 23v3l4 72q3 35 37 35h80q59 0 98.5 -39t39.5 -98v-11l-10 -179v-4
q0 -37 33 -54q23 -17 26 -27q2 -5 2 -12v-19q0 -9 -4.5 -17t-8 -10.5t-15.5 -11.5q-33 -23 -33 -56v-2l10 -180v-11q0 -59 -39.5 -98t-98.5 -39h-80q-34 0 -37 35l-4 73v3q0 14 8 22z" />
    <glyph glyph-name="asciitilde" unicode="~" horiz-adv-x="506" 
d="M60 461q34 14 77 14q49 0 111 -19q63 -20 106 -20q25 0 44 7q17 6 30 6q7 0 18 -3t20 -27l5 -13q6 -16 6 -29q0 -29 -31 -40q-33 -15 -76 -15q-49 0 -112 20q-24 7 -39 11t-32.5 7t-30.5 3q-7 0 -19.5 -1.5t-29.5 -7.5t-30 -6q-6 0 -17 3t-20 27l-5 14q-6 16 -6 29
q0 29 31 40z" />
    <glyph glyph-name="exclamdown" unicode="&#xa1;" horiz-adv-x="317" 
d="M35 25q4 160 38 405q3 20 26 24q60 3 63 3q31 0 58 -3q23 -5 26 -24q31 -198 36 -405v-3q0 -9 -7 -16t-19 -8q-36 -4 -95 -4q-63 0 -100 4q-11 1 -18.5 8.5t-7.5 16.5v2zM73 680q33 28 85 28t85 -28t33 -78q0 -51 -32.5 -80t-85.5 -29q-52 0 -85 28.5t-33 79.5
q0 50 33 79z" />
    <glyph glyph-name="cent" unicode="&#xa2;" horiz-adv-x="592" 
d="M72 500q55 65 152 90q18 6 18 22v2q-2 12 -4.5 36.5t-3.5 36.5v2q0 6 4.5 11t12.5 7q19 2 70 2q49 0 67 -2q17 -4 17 -17v-3q-4 -38 -5 -64v-3q0 -17 19 -20q66 -6 107 -23q20 -7 20 -27v-5q-7 -69 -12 -102q-2 -19 -10 -22t-11 -3q-9 0 -18 8q-25 15 -69.5 26t-79.5 11
q-147 0 -147 -116q0 -50 41 -77.5t117 -27.5q99 0 170 55q8 9 17 9q4 0 12.5 -3.5t10.5 -21.5q5 -60 8 -123v-4q0 -20 -19 -28q-54 -15 -136 -23q-20 -3 -20 -21v-2q1 -11 2.5 -32.5t2.5 -32.5v-2q0 -6 -4.5 -11.5t-12.5 -6.5q-18 -2 -67 -2q-51 0 -70 2q-8 1 -12.5 7
t-4.5 12v2q3 25 7 70v3q0 17 -22 21q-95 20 -149 79.5t-54 153.5q0 92 56 157z" />
    <glyph glyph-name="sterling" unicode="&#xa3;" horiz-adv-x="879" 
d="M20 33v100q1 19 9.5 28t20.5 9h3q56 -4 81 -4q23 0 36.5 16t13.5 41v49q0 21 -12 38.5t-35 17.5q-46 0 -83 -6h-6q-10 0 -16.5 6.5t-6.5 21.5v48q0 28 25 28h4l103 -3q28 0 30 30q3 64 23 111t50.5 74t75.5 43.5t88.5 21.5t98.5 5q119 0 233 -31q24 -9 27 -37
q6 -70 8 -156v-3q0 -18 -8.5 -20t-10.5 -2q-13 0 -25 13q-40 39 -88.5 58.5t-120.5 19.5q-142 0 -142 -68v-6q0 -55 126 -55q79 0 135 8h5q9 0 17 -7t8 -19q0 -15 0.5 -44t0.5 -43q0 -16 -7.5 -19t-11.5 -3q-8 0 -17 6q-61 32 -120 32q-135 -2 -135 -71v-18q0 -90 188 -90
q138 0 206 90q10 14 24 14q2 0 12 -1.5t12 -21.5q10 -71 17 -209v-3q0 -20 -23 -22q-78 -4 -324 -4q-337 0 -457 4q-32 1 -32 33z" />
    <glyph glyph-name="yen" unicode="&#xa5;" horiz-adv-x="797" 
d="M61 659q37 5 96 5q70 0 105 -6q25 -8 25 -36q12 -87 49 -165t73 -78q38 1 76.5 80.5t45.5 161.5v3q0 18 22 20q98 -13 106 -15q2 0 38 -2.5t53 -4.5q22 -3 22 -23q0 -4 -1 -9q-7 -72 -65.5 -157t-132.5 -123q-14 -7 -17.5 -11.5t-3.5 -6.5q0 -3 4 -5t14 -2h6q41 8 91 26
q5 1 9 1q8 0 13.5 -5.5t5.5 -18.5v-3q0 -32 -2 -72q-3 -28 -23 -28q-4 0 -10 2q-52 11 -127 18h-4q-12 0 -17 -5.5t-5 -14.5q0 -4 1 -9q1 -17 5 -56.5t5 -55.5v-5q0 -8 -6 -14t-18 -6q-80 8 -107 32q-72 3 -104 7q-10 2 -16 9t-6 15v3q0 2 12 111q2 5 2 10q0 7 -5 12.5
t-17 5.5h-3q-20 -4 -62 -18.5t-63 -17.5h-1q-11 0 -19 17.5t-8 39.5q-1 12 -1 25q0 24 3 49q3 30 27 30q3 0 7 -1q40 -6 96 -8h4q20 0 20 8v2q-2 10 -27 22q-73 27 -128 97.5t-64 139.5v5q0 22 27 25z" />
    <glyph glyph-name="brokenbar" unicode="&#xa6;" horiz-adv-x="285" 
d="M126 251h33q54 0 54 -54v-202q0 -55 -54 -55h-33q-55 0 -55 55v202q0 54 55 54zM71 646q0 54 55 54h33q54 0 54 -54v-199q0 -54 -54 -54h-33q-55 0 -55 54v199z" />
    <glyph glyph-name="section" unicode="&#xa7;" horiz-adv-x="579" 
d="M103 431q14 8 17.5 12.5t3.5 7.5t-3 7.5t-17 13.5q-57 34 -57 94q0 63 65 106t177 43q77 0 162 -24q38 -9 40 -52l2 -33v-8q0 -22 -6.5 -25.5t-11.5 -3.5q-11 0 -28 11q-69 38 -143 38q-41 0 -67 -13.5t-26 -34.5t34.5 -34t84 -23t99 -25t84 -49.5t34.5 -86.5
q0 -59 -59 -97q-20 -13 -20 -21.5t20 -22.5q50 -35 50 -91q0 -67 -66.5 -111.5t-184.5 -44.5q-71 0 -165 25q-38 11 -40 53v32v4q0 25 8 29.5t13 4.5q12 0 28 -10q70 -40 141 -40q47 0 74.5 15t27.5 38q0 18 -25 31t-62.5 20t-81 19t-81 27t-62.5 46.5t-25 74.5q0 62 66 98z
M229 300q28 -20 71 -20q39 0 62 17.5t23 39.5q0 27 -29 46t-71 19q-39 0 -62 -17.5t-23 -38.5q0 -27 29 -46z" />
    <glyph glyph-name="copyright" unicode="&#xa9;" horiz-adv-x="766" 
d="M126 613q95 102 258 102q162 0 257 -101.5t95 -264.5t-95 -264q-95 -102 -258 -102t-258 101t-95 264t96 265zM94 348q0 -135 77 -219t212 -84t212 84.5t77 219.5t-76.5 219t-211.5 84q-136 0 -213 -84.5t-77 -219.5zM179 351q0 101 60 159t163 58q58 0 105 -21
q28 -9 28 -41v-6l-1 -8q-3 -28 -24 -28q-8 0 -19 4q-36 14 -73 14q-65 0 -104 -34t-39 -96q0 -64 38 -98t100 -34q49 0 82 15q15 6 25 6q5 0 12.5 -2.5t8.5 -21.5v-10v-8q0 -29 -21 -39q-53 -25 -120 -25q-103 0 -162 57.5t-59 158.5z" />
    <glyph glyph-name="ordfeminine" unicode="&#xaa;" horiz-adv-x="471" 
d="M11 437q0 50 48.5 79t130.5 37q60 7 80 12.5t20 20.5q0 28 -69 28q-86 0 -153 -46q-5 -5 -10 -5q-4 0 -10.5 4t-6.5 15v2q0 10 7 83q2 17 14 22q64 19 166 19q104 0 154.5 -35t58.5 -105q12 -101 15 -205v-3q0 -16 -19 -20q-24 -3 -61 -3q-36 0 -63 3q-25 4 -25 22
q0 3 1 6q1 5 3 21.5t3 19.5v3q0 7 -3.5 8t-4.5 1q-5 0 -8 -7q-19 -37 -56 -58t-81 -21q-131 0 -131 102zM164 467q0 -33 53 -33q26 0 50 16.5t24 41.5q0 29 -41 29q-35 0 -60.5 -15.5t-25.5 -38.5z" />
    <glyph glyph-name="guillemotleft" unicode="&#xab;" horiz-adv-x="496" 
d="M241 267l110 134q15 19 40 19h49q21 0 25 -8t4 -12q0 -9 -10 -21l-90 -112q-9 -12 -9 -24t9 -24l91 -115q9 -11 9 -21q0 -4 -3.5 -12t-24.5 -8h-49q-25 0 -41 19l-110 137q-9 12 -9 24t9 24zM36 267l109 134q16 19 41 19h48q21 0 24.5 -8t3.5 -12q0 -9 -9 -21l-90 -112
q-10 -12 -10 -25q0 -11 9 -23l92 -115q9 -11 9 -21q0 -4 -3.5 -12t-24.5 -8h-49q-25 0 -41 19l-110 137q-9 12 -9 23q0 13 10 25z" />
    <glyph glyph-name="logicalnot" unicode="&#xac;" horiz-adv-x="404" 
d="M36 235v13q0 53 54 53h224q54 0 54 -54v-92q0 -54 -48 -54h-31q-44 0 -44 38v21q0 24 -24 24h-131q-54 0 -54 51z" />
    <glyph glyph-name="uni00AD" unicode="&#xad;" horiz-adv-x="348" 
d="M68 301h212q36 0 36 -36v-46q0 -35 -36 -35h-212q-36 0 -36 35v46q0 36 36 36z" />
    <glyph glyph-name="registered" unicode="&#xae;" horiz-adv-x="784" 
d="M133 613q95 102 258 102t257.5 -101.5t94.5 -264.5t-95 -264q-95 -102 -258 -102t-258 101t-95 264t96 265zM102 348q0 -135 77 -219q76 -84 211 -84t212 84.5t77 219.5t-76.5 219t-211.5 84q-136 0 -212.5 -84.5t-76.5 -219.5zM222 527q0 38 38 38h161q76 0 120 -35
t44 -103q0 -74 -60 -111q-13 -8 -13 -18q0 -6 4 -13l51 -89q8 -12 8 -22q0 -5 -4.5 -14t-26.5 -9h-25q-32 0 -46 26l-48 94q-10 16 -28 16h-58q-23 0 -23 -24v-74q0 -38 -38 -38h-18q-38 0 -38 38v338zM316 461v-78q0 -24 23 -24h85q68 0 68 63t-69 63h-84q-23 0 -23 -24z
" />
    <glyph glyph-name="degree" unicode="&#xb0;" horiz-adv-x="408" 
d="M36 543q0 70 46 113t120 43t120.5 -43.5t46.5 -112.5t-46 -112q-47 -43 -121 -43t-120 43t-46 112zM125 543q0 -32 22 -52q22 -21 55 -21t55 20.5t22 52.5q0 33 -22 54t-55 21t-55 -21t-22 -54z" />
    <glyph glyph-name="plusminus" unicode="&#xb1;" horiz-adv-x="623" 
d="M99 452h119q31 0 31 30v73q0 54 54 54h24q54 0 54 -53v-74q0 -30 30 -30h109q54 0 54 -54v-12q0 -54 -54 -54h-109q-30 0 -30 -30v-75q0 -54 -54 -54h-24q-54 0 -54 53v76q0 30 -31 30h-119q-54 0 -54 54v12q0 54 54 54zM91 118h442q54 0 54 -50v-5q0 -25 -14 -38.5
t-40 -13.5h-442q-54 0 -54 51v4q0 52 54 52z" />
    <glyph glyph-name="twosuperior" unicode="&#xb2;" horiz-adv-x="559" 
d="M21 329q2 44 36.5 77.5t83 52.5t96.5 34t81.5 31.5t33.5 36.5q0 39 -99 39q-42 0 -89.5 -18t-80.5 -44q-6 -6 -12 -6q-4 0 -10.5 3.5t-6.5 15.5v3q5 79 9 107q2 14 15 20q87 28 201 28q236 0 236 -128q0 -44 -33 -76t-79.5 -50t-93.5 -31t-80 -27.5t-33 -31.5
q0 -15 24.5 -21t87.5 -6q116 0 191 62q7 7 14 7q3 0 10 -3t8 -18q2 -74 2 -129q0 -19 -17 -21q-59 -3 -251 -3q-154 0 -211 3q-35 3 -35 33q0 42 2 60z" />
    <glyph glyph-name="threesuperior" unicode="&#xb3;" horiz-adv-x="552" 
d="M32 269q5 93 12 142q1 9 6.5 12.5t10.5 3.5q2 0 7 -1.5t10 -9.5q28 -43 65.5 -60.5t96.5 -17.5q60 0 98 16t38 46t-23 43t-75 13q-78 0 -124 -21q-6 -4 -11 -4q-3 0 -8 2.5t-5 12.5v57q0 8 6 13t13 5h3q67 -5 130 -5q93 0 93 42q0 46 -108 46q-128 0 -183 -56
q-8 -9 -16 -9q-2 0 -8 2t-6 14v2q0 46 8 110q1 16 20 21q86 21 195 21q102 0 167.5 -27.5t65.5 -82.5q0 -74 -95 -101q-11 -3 -11 -9q0 -1 0.5 -4.5t10.5 -5.5q58 -14 84 -38.5t26 -65.5q0 -72 -71 -108t-185 -36q-134 0 -221 20q-16 5 -16 17v1z" />
    <glyph glyph-name="paragraph" unicode="&#xb6;" horiz-adv-x="795" 
d="M26 506q0 96 94 149.5t266 53.5q199 0 339 -9q25 -2 28 -27q25 -248 25 -644q0 -25 -28 -29q-46 -4 -111 -4q-77 0 -107 4q-13 2 -20.5 10t-7.5 18v4q1 12 14.5 75t14.5 97q0 38 -26 38q-39 -3 -76 -3q-87 0 -179 22t-159 87t-67 158z" />
    <glyph glyph-name="periodcentered" unicode="&#xb7;" horiz-adv-x="266" 
d="M15 295q0 51 33 79.5t85 28.5q53 0 85.5 -29t32.5 -80q0 -50 -33 -78t-85 -28t-85 28.5t-33 78.5z" />
    <glyph glyph-name="onesuperior" unicode="&#xb9;" horiz-adv-x="309" 
d="M11 668q0 17 17 21q82 15 161 15q42 0 60 -3q16 -2 18 -18q15 -162 15 -429q0 -17 -18 -19q-29 -3 -67 -3q-55 0 -74 2q-8 2 -13 7.5t-5 12.5v2q15 124 15 254v30q-1 35 -23 35t-58 -19q-5 -3 -10 -3q-4 0 -10 3t-7 14q-1 53 -1 79v19z" />
    <glyph glyph-name="ordmasculine" unicode="&#xba;" horiz-adv-x="492" 
d="M11 515q0 88 65.5 141t169.5 53t169.5 -53t65.5 -141q0 -90 -64 -135t-171 -45t-171 45t-64 135zM157 522q0 -39 25 -62t64 -23t64 23t25 62q0 38 -25 61t-64 23t-64 -23t-25 -61z" />
    <glyph glyph-name="guillemotright" unicode="&#xbb;" horiz-adv-x="496" 
d="M35 104l92 115q9 11 9 23t-10 25l-90 112q-9 12 -9 21q0 4 3.5 12t24.5 8h49q25 0 41 -19l109 -134q10 -12 10 -25q0 -11 -9 -23l-111 -137q-15 -19 -40 -19h-50q-21 0 -24.5 8t-3.5 12q0 10 9 21zM241 104l92 115q10 12 10 23q0 13 -11 25l-90 112q-10 12 -10 21
q0 4 4 12t26 8h47q25 0 41 -19l110 -134q10 -12 10 -24t-10 -24l-110 -137q-16 -19 -41 -19h-48q-22 0 -26 8t-4 12q0 10 10 21z" />
    <glyph glyph-name="questiondown" unicode="&#xbf;" horiz-adv-x="590" 
d="M26 57v94q0 16 7.5 20t11.5 4q8 0 15 -6q28 -16 80.5 -28t109.5 -12q65 0 99 20.5t34 57.5q0 44 -39.5 67.5t-137.5 29.5q-28 2 -28 23q0 4 1 9l10 92q4 23 32 26q21 2 43 3q21 -1 43 -3q28 -3 31 -26l3 -44q3 -22 26 -28q98 -18 144.5 -57.5t46.5 -111.5v-2
q0 -86 -82.5 -138.5t-222.5 -52.5q-117 0 -204 29q-23 9 -23 34zM178 681q33 28 85 28t85 -28t33 -78q0 -51 -32.5 -80t-85.5 -29q-52 0 -85 28.5t-33 79.5q0 50 33 79z" />
    <glyph glyph-name="Agrave" unicode="&#xc0;" horiz-adv-x="879" 
d="M14 34q50 168 126.5 344.5t150.5 304.5q7 13 26 17q35 4 122 4q86 0 123 -4q19 -3 27 -17q72 -127 148.5 -304t127.5 -346q2 -6 2 -11q0 -6 -5 -13.5t-20 -9.5q-39 -3 -110 -3q-69 0 -108 4q-10 1 -17 8t-7 18q0 8 1 17q-1 41 -13 80q-18 49 -101 51q-24 1 -47 1
q-24 0 -48 -1q-80 -2 -101 -51q-12 -39 -12 -84v-13q0 -11 -7.5 -18t-17.5 -8q-37 -4 -117 -4q-66 0 -99 4q-15 2 -20.5 9.5t-5.5 14.5q0 5 2 10zM419 268h41q36 2 48 13.5t12 24.5q0 8 -4 18q-18 71 -53 160q-12 26 -24 27q-11 -1 -23 -27q-35 -89 -53 -160q-4 -11 -4 -20
q0 -34 60 -36zM263 882q5 13 28 13h94q26 0 40 -22l53 -85q8 -10 8 -19q0 -5 -4.5 -13t-25.5 -8h-41q-24 0 -41 16l-98 90q-14 11 -14 22q0 3 1 6z" />
    <glyph glyph-name="Aacute" unicode="&#xc1;" horiz-adv-x="879" 
d="M14 34q50 168 126.5 344.5t150.5 304.5q7 13 26 17q35 4 122 4q86 0 123 -4q19 -3 27 -17q72 -127 148.5 -304t127.5 -346q2 -6 2 -11q0 -6 -5 -13.5t-20 -9.5q-39 -3 -110 -3q-69 0 -108 4q-10 1 -17 8t-7 18q0 8 1 17q-1 41 -13 80q-18 49 -101 51q-24 1 -47 1
q-24 0 -48 -1q-80 -2 -101 -51q-12 -39 -12 -84v-13q0 -11 -7.5 -18t-17.5 -8q-37 -4 -117 -4q-66 0 -99 4q-15 2 -20.5 9.5t-5.5 14.5q0 5 2 10zM419 268h41q36 2 48 13.5t12 24.5q0 8 -4 18q-18 71 -53 160q-12 26 -24 27q-11 -1 -23 -27q-35 -89 -53 -160q-4 -11 -4 -20
q0 -34 60 -36zM400 788l53 85q12 22 40 22h93q23 0 26 -8.5t3 -11.5q0 -10 -13 -21l-99 -90q-17 -16 -41 -16h-41q-20 0 -24.5 8t-4.5 13q0 9 8 19z" />
    <glyph glyph-name="Acircumflex" unicode="&#xc2;" horiz-adv-x="879" 
d="M14 34q50 168 126.5 344.5t150.5 304.5q7 13 26 17q35 4 122 4q86 0 123 -4q19 -3 27 -17q72 -127 148.5 -304t127.5 -346q2 -6 2 -11q0 -6 -5 -13.5t-20 -9.5q-39 -3 -110 -3q-69 0 -108 4q-10 1 -17 8t-7 18q0 8 1 17q-1 41 -13 80q-18 49 -101 51q-24 1 -47 1
q-24 0 -48 -1q-80 -2 -101 -51q-12 -39 -12 -84v-13q0 -11 -7.5 -18t-17.5 -8q-37 -4 -117 -4q-66 0 -99 4q-15 2 -20.5 9.5t-5.5 14.5q0 5 2 10zM261 771l74 87q17 18 39 18h129q23 0 39 -17l74 -88q10 -11 10 -20q0 -4 -3 -11.5t-23 -7.5h-65q-24 0 -39 16l-35 39
q-11 13 -22 13t-22 -12l-34 -39q-16 -17 -39 -17h-67q-20 0 -23 7.5t-3 10.5q0 9 10 21zM419 268h41q36 2 48 13.5t12 24.5q0 8 -4 18q-18 71 -53 160q-12 26 -24 27q-11 -1 -23 -27q-35 -89 -53 -160q-4 -11 -4 -20q0 -34 60 -36z" />
    <glyph glyph-name="Atilde" unicode="&#xc3;" horiz-adv-x="879" 
d="M14 34q50 168 126.5 344.5t150.5 304.5q7 13 26 17q35 4 122 4q86 0 123 -4q19 -3 27 -17q72 -127 148.5 -304t127.5 -346q2 -6 2 -11q0 -6 -5 -13.5t-20 -9.5q-39 -3 -110 -3q-69 0 -108 4q-10 1 -17 8t-7 18q0 8 1 17q-1 41 -13 80q-18 49 -101 51q-24 1 -47 1
q-24 0 -48 -1q-80 -2 -101 -51q-12 -39 -12 -84v-13q0 -11 -7.5 -18t-17.5 -8q-37 -4 -117 -4q-66 0 -99 4q-15 2 -20.5 9.5t-5.5 14.5q0 5 2 10zM263 859q30 16 74 16q42 0 96 -15q6 -1 23 -6t22 -6t17 -4t19 -3q1 0 4.5 0.5t14 1t19 3t17.5 7.5q11 5 19 5q16 0 23 -19
l18 -50q3 -9 3 -16q0 -17 -17 -26q-31 -16 -73 -16q-44 0 -99 16q-38 11 -51 14t-29 3q-5 0 -19.5 -0.5t-35.5 -10.5q-11 -6 -20 -6q-15 0 -22 20l-17 49q-3 9 -3 16q0 18 17 27zM419 268h41q36 2 48 13.5t12 24.5q0 8 -4 18q-18 71 -53 160q-12 26 -24 27q-11 -1 -23 -27
q-35 -89 -53 -160q-4 -11 -4 -20q0 -34 60 -36z" />
    <glyph glyph-name="Adieresis" unicode="&#xc4;" horiz-adv-x="879" 
d="M14 34q50 168 126.5 344.5t150.5 304.5q7 13 26 17q35 4 122 4q86 0 123 -4q19 -3 27 -17q72 -127 148.5 -304t127.5 -346q2 -6 2 -11q0 -6 -5 -13.5t-20 -9.5q-39 -3 -110 -3q-69 0 -108 4q-10 1 -17 8t-7 18q0 8 1 17q-1 41 -13 80q-18 49 -101 51q-24 1 -47 1
q-24 0 -48 -1q-80 -2 -101 -51q-12 -39 -12 -84v-13q0 -11 -7.5 -18t-17.5 -8q-37 -4 -117 -4q-66 0 -99 4q-15 2 -20.5 9.5t-5.5 14.5q0 5 2 10zM419 268h41q36 2 48 13.5t12 24.5q0 8 -4 18q-18 71 -53 160q-12 26 -24 27q-11 -1 -23 -27q-35 -89 -53 -160q-4 -11 -4 -20
q0 -34 60 -36zM252 807q0 33 22.5 52.5t58.5 19.5q37 0 59.5 -19.5t22.5 -52.5t-22 -52q-23 -19 -60 -19t-59 19t-22 52zM462 807q0 33 22 52.5t58 19.5q37 0 59.5 -19.5t22.5 -52.5t-22.5 -52t-59.5 -19q-36 0 -58 18.5t-22 49.5v3z" />
    <glyph glyph-name="Aring" unicode="&#xc5;" horiz-adv-x="879" 
d="M14 34q50 168 126.5 344.5t150.5 304.5q7 13 26 17q35 4 122 4q86 0 123 -4q19 -3 27 -17q72 -127 148.5 -304t127.5 -346q2 -6 2 -11q0 -6 -5 -13.5t-20 -9.5q-39 -3 -110 -3q-69 0 -108 4q-10 1 -17 8t-7 18q0 8 1 17q-1 41 -13 80q-18 49 -101 51q-24 1 -47 1
q-24 0 -48 -1q-80 -2 -101 -51q-12 -39 -12 -84v-13q0 -11 -7.5 -18t-17.5 -8q-37 -4 -117 -4q-66 0 -99 4q-15 2 -20.5 9.5t-5.5 14.5q0 5 2 10zM343 922q36 29 95 29t95.5 -29.5t36.5 -80.5q0 -52 -36 -81q-37 -30 -96 -30t-95.5 29.5t-36.5 81.5q0 51 37 81zM419 268h41
q36 2 48 13.5t12 24.5q0 8 -4 18q-18 71 -53 160q-12 26 -24 27q-11 -1 -23 -27q-35 -89 -53 -160q-4 -11 -4 -20q0 -34 60 -36zM392 840q0 -23 13 -35.5t33 -12.5q21 0 34 12.5t13 35.5t-13 35.5t-34 12.5q-20 0 -33 -12.5t-13 -35.5z" />
    <glyph glyph-name="AE" unicode="&#xc6;" horiz-adv-x="1416" 
d="M18 41q96 183 209.5 353t218.5 289q14 15 32 17q50 4 445 4q296 0 366 -4q27 -2 29 -29q7 -79 9 -192v-2q0 -19 -9 -21.5t-13 -2.5q-12 0 -24 13q-82 83 -264 83q-71 0 -112 -17.5t-41 -51.5v-6q0 -54 130 -54q98 0 194 8h3q11 0 20 -7.5t9 -20.5v-87q0 -16 -7.5 -19
t-11.5 -3q-8 0 -17 6q-66 31 -168 31h-13q-140 -2 -140 -69v-16q0 -46 53 -67.5t141 -21.5q109 0 167 28t102 97q9 15 24 15q3 0 13.5 -1.5t13.5 -22.5q8 -56 17 -244v-3q0 -21 -25 -23q-81 -4 -389 -4q-74 0 -133 -1q-180 1 -233 5q-19 2 -19 16q0 3 1 7q8 43 8 100v4
q0 45 -85 47q-21 0 -42 1q-22 -1 -43 -1q-89 -2 -118 -51q-11 -21 -45 -100q-8 -21 -30 -23q-60 -4 -117 -4q-49 0 -95 4q-14 1 -16 9t-2 12q0 10 7 20zM445 287q9 -15 45 -17h32q37 1 56.5 16.5t19.5 40.5v2v32q0 64 -6 130q-2 19 -7 24t-9 5t-11.5 -5t-19.5 -24
q-49 -81 -90 -162q-13 -18 -13 -31q0 -6 3 -11z" />
    <glyph glyph-name="Ccedilla" unicode="&#xc7;" horiz-adv-x="833" 
d="M140 603q122 105 319 105q159 0 277 -55q17 -10 17 -31v-6q-2 -15 -10 -83.5t-11 -88.5q-2 -17 -10.5 -18.5t-10.5 -1.5q-12 0 -21 12q-83 103 -225 103q-91 0 -146 -53t-55 -147q0 -83 59 -125t156 -42q182 0 274 120q9 14 21 14q3 0 13.5 -3t12.5 -26q5 -66 11 -205v-4
q0 -20 -20 -28q-94 -33 -252 -45q46 -49 46 -100q0 -54 -38 -80.5t-96 -26.5q-50 0 -95 18q-12 5 -12 19q0 6 2 14l4 11q5 17 20 17q7 0 15 -3q13 -5 30 -5q26 0 41 13t15 35q0 46 -47 86q-189 7 -298 89t-109 243q0 173 123 278z" />
    <glyph glyph-name="Egrave" unicode="&#xc8;" horiz-adv-x="817" 
d="M26 30q4 397 27 644q3 24 31 26q60 4 302 4q233 0 303 -4q27 -1 30 -29q8 -96 8 -192v-2q0 -19 -9 -21.5t-13 -2.5q-12 0 -23 13q-82 83 -264 83q-71 0 -112 -17.5t-41 -51.5v-6q0 -54 130 -54q98 0 194 8h3q11 0 20 -7.5t9 -20.5v-87q0 -16 -7.5 -19t-11.5 -3
q-8 0 -17 6q-67 31 -169 31h-12q-140 -2 -140 -69v-16q0 -46 53 -67.5t140 -21.5q109 0 167 28t103 97q9 15 24 15q2 0 13 -1.5t13 -22.5q9 -68 18 -244v-3q0 -9 -6.5 -15.5t-18.5 -7.5q-81 -4 -386 -4q-256 0 -327 4q-31 2 -31 30zM210 882q5 13 28 13h94q26 0 40 -22
l53 -85q8 -10 8 -19q0 -5 -4.5 -13t-25.5 -8h-41q-24 0 -41 16l-98 90q-14 11 -14 22q0 3 1 6z" />
    <glyph glyph-name="Eacute" unicode="&#xc9;" horiz-adv-x="817" 
d="M26 30q4 397 27 644q3 24 31 26q60 4 302 4q233 0 303 -4q27 -1 30 -29q8 -96 8 -192v-2q0 -19 -9 -21.5t-13 -2.5q-12 0 -23 13q-82 83 -264 83q-71 0 -112 -17.5t-41 -51.5v-6q0 -54 130 -54q98 0 194 8h3q11 0 20 -7.5t9 -20.5v-87q0 -16 -7.5 -19t-11.5 -3
q-8 0 -17 6q-67 31 -169 31h-12q-140 -2 -140 -69v-16q0 -46 53 -67.5t140 -21.5q109 0 167 28t103 97q9 15 24 15q2 0 13 -1.5t13 -22.5q9 -68 18 -244v-3q0 -9 -6.5 -15.5t-18.5 -7.5q-81 -4 -386 -4q-256 0 -327 4q-31 2 -31 30zM346 788l53 85q12 22 40 22h93
q23 0 26 -8.5t3 -11.5q0 -10 -13 -21l-99 -90q-17 -16 -41 -16h-41q-20 0 -24.5 8t-4.5 13q0 9 8 19z" />
    <glyph glyph-name="Ecircumflex" unicode="&#xca;" horiz-adv-x="817" 
d="M53 674q3 24 31 26q60 4 302 4q233 0 303 -4q27 -1 30 -29q8 -96 8 -192v-2q0 -19 -9 -21.5t-13 -2.5q-12 0 -23 13q-82 83 -264 83q-71 0 -112 -17.5t-41 -51.5v-6q0 -54 130 -54q98 0 194 8h3q11 0 20 -7.5t9 -20.5v-87q0 -16 -7.5 -19t-11.5 -3q-8 0 -17 6
q-67 31 -169 31h-12q-140 -2 -140 -69v-16q0 -46 53 -67.5t140 -21.5q109 0 167 28t103 97q9 15 24 15q2 0 13 -1.5t13 -22.5q9 -68 18 -244v-3q0 -9 -6.5 -15.5t-18.5 -7.5q-81 -4 -386 -4q-256 0 -327 4q-31 2 -31 30q4 397 27 644zM208 771l74 87q16 18 39 18h129
q23 0 39 -17l74 -88q10 -11 10 -20q0 -4 -3 -11.5t-23 -7.5h-65q-24 0 -39 16l-35 39q-11 13 -22 13t-22 -12l-34 -39q-16 -17 -39 -17h-67q-20 0 -23 7.5t-3 10.5q0 9 10 21z" />
    <glyph glyph-name="Edieresis" unicode="&#xcb;" horiz-adv-x="817" 
d="M53 674q3 24 31 26q60 4 302 4q233 0 303 -4q27 -1 30 -29q8 -96 8 -192v-2q0 -19 -9 -21.5t-13 -2.5q-12 0 -23 13q-82 83 -264 83q-71 0 -112 -17.5t-41 -51.5v-6q0 -54 130 -54q98 0 194 8h3q11 0 20 -7.5t9 -20.5v-87q0 -16 -7.5 -19t-11.5 -3q-8 0 -17 6
q-67 31 -169 31h-12q-140 -2 -140 -69v-16q0 -46 53 -67.5t140 -21.5q109 0 167 28t103 97q9 15 24 15q2 0 13 -1.5t13 -22.5q9 -68 18 -244v-3q0 -9 -6.5 -15.5t-18.5 -7.5q-81 -4 -386 -4q-256 0 -327 4q-31 2 -31 30q4 397 27 644zM221 861q22 19 58 19q37 0 59.5 -19.5
t22.5 -52.5t-22 -52q-23 -19 -60 -19t-59 19t-22 52t23 53zM408 808q0 33 22 52.5t58 19.5q37 0 59.5 -19.5t22.5 -52.5t-22.5 -52t-59.5 -19q-36 0 -58 18.5t-22 49.5v3z" />
    <glyph glyph-name="Igrave" unicode="&#xcc;" horiz-adv-x="314" 
d="M26 31q0 328 21 641q3 23 29 28q32 4 83 4q50 0 79 -4q26 -5 28 -28q23 -312 23 -641q0 -13 -9 -21.5t-21 -9.5q-36 -4 -101 -4q-66 0 -103 4q-29 4 -29 31zM-19 882q5 13 28 13h94q26 0 40 -22l53 -85q8 -10 8 -19q0 -5 -4.5 -13t-25.5 -8h-41q-24 0 -41 16l-98 90
q-14 11 -14 22q0 3 1 6z" />
    <glyph glyph-name="Iacute" unicode="&#xcd;" horiz-adv-x="314" 
d="M47 672q3 23 29 28q32 4 83 4q50 0 79 -4q26 -5 28 -28q23 -312 23 -641q0 -13 -9 -21.5t-21 -9.5q-36 -4 -101 -4q-66 0 -103 4q-29 4 -29 31q0 328 21 641zM118 788l53 85q12 22 40 22h93q23 0 26 -8.5t3 -11.5q0 -10 -13 -21l-99 -90q-17 -16 -41 -16h-41
q-20 0 -24.5 8t-4.5 13q0 9 8 19z" />
    <glyph glyph-name="Icircumflex" unicode="&#xce;" horiz-adv-x="314" 
d="M47 672q3 23 29 28q32 4 83 4q50 0 79 -4q26 -5 28 -28q23 -312 23 -641q0 -13 -9 -21.5t-21 -9.5q-36 -4 -101 -4q-66 0 -103 4q-29 4 -29 31q0 328 21 641zM-21 771l74 87q16 18 39 18h129q23 0 39 -17l74 -88q10 -11 10 -20q0 -4 -3 -11.5t-23 -7.5h-65q-24 0 -39 16
l-35 39q-11 13 -22 13t-22 -12l-34 -39q-16 -17 -39 -17h-67q-20 0 -23 7.5t-3 10.5q0 9 10 21z" />
    <glyph glyph-name="Idieresis" unicode="&#xcf;" horiz-adv-x="314" 
d="M47 672q3 23 29 28q32 4 83 4q50 0 79 -4q26 -5 28 -28q23 -312 23 -641q0 -13 -9 -21.5t-21 -9.5q-36 -4 -101 -4q-66 0 -103 4q-29 4 -29 31q0 328 21 641zM-8 860q23 19 59 19q37 0 59.5 -19.5t22.5 -52.5t-22 -52q-23 -19 -60 -19t-59 19t-22 52t22 53zM180 807
q0 33 22 52.5t58 19.5q37 0 59.5 -19.5t22.5 -52.5t-22.5 -52t-59.5 -19q-36 0 -58 18.5t-22 49.5v3z" />
    <glyph glyph-name="Eth" unicode="&#xd0;" horiz-adv-x="897" 
d="M-2 399q0 21 23 21h42q20 0 22 22q6 115 14 230q1 11 9 19t19 9q78 4 289 4q209 0 336.5 -104.5t127.5 -287.5q0 -161 -107 -240.5t-309 -79.5q-253 0 -363 8q-12 1 -20 10t-8 21q0 153 7 283q0 22 -22 22h-37q-23 0 -23 22v41zM318 442q0 -22 22 -22h135q22 0 22 -21
v-41q0 -22 -22 -22h-135q-22 0 -22 -22q0 -12 0.5 -35t0.5 -35q3 -62 59 -65q25 -1 78 -1q83 0 133 38t50 113q0 95 -56 152.5t-150 58.5h-15q-23 0 -48 -2q-50 -2 -51 -47q0 -32 -1 -49z" />
    <glyph glyph-name="Ntilde" unicode="&#xd1;" horiz-adv-x="849" 
d="M55 672q1 23 28 28q21 4 75 4q34 0 71 -4q42 -4 76 -42q132 -192 188 -252q50 -54 74 -54q31 0 31 78t-31 233q-1 4 -1 7q0 10 7.5 19t22.5 11q37 4 88 4q47 0 84 -4q26 -5 29 -29q25 -239 26 -514q0 -165 -123 -165q-50 0 -100.5 35t-90.5 85t-76.5 100.5t-69.5 85.5
t-57 35q-35 0 -37 -82q0 -49 18 -217v-3q0 -12 -8 -21t-22 -11q-29 -3 -104 -3q-65 0 -97 4q-30 4 -30 31q2 388 29 641zM249 859q30 16 74 16q42 0 96 -15q6 -1 23 -6t22 -6t17 -4t19 -3q1 0 4.5 0.5t14 1t19 3t17.5 7.5q11 5 19 5q16 0 23 -19l18 -50q3 -9 3 -16
q0 -17 -17 -26q-31 -16 -73 -16q-44 0 -99 16q-38 11 -51 14t-29 3q-5 0 -19.5 -0.5t-35.5 -10.5q-11 -6 -20 -6q-15 0 -22 20l-17 49q-3 9 -3 16q0 18 17 27z" />
    <glyph glyph-name="Ograve" unicode="&#xd2;" horiz-adv-x="890" 
d="M17 323q0 174 118.5 279.5t309.5 105.5t309.5 -105.5t118.5 -279.5q0 -171 -114 -251q-115 -80 -314 -80t-313.5 80t-114.5 251zM317 209q48 -41 128 -41q81 0 129 41t48 126q0 86 -50 141.5t-127 55.5t-127 -55.5t-50 -141.5q0 -85 49 -126zM269 882q5 13 28 13h94
q26 0 40 -22l53 -85q8 -10 8 -19q0 -5 -4.5 -13t-25.5 -8h-41q-24 0 -41 16l-98 90q-14 11 -14 22q0 3 1 6z" />
    <glyph glyph-name="Oacute" unicode="&#xd3;" horiz-adv-x="890" 
d="M136 603q118 105 309 105t309.5 -105.5t118.5 -279.5q0 -171 -114 -251q-115 -80 -314 -80t-313.5 80t-114.5 251q0 174 119 280zM268 335q0 -85 48.5 -126t128.5 -41q81 0 129 41t48 126q0 86 -50 141.5t-127 55.5t-127 -55.5t-50 -141.5zM406 788l53 85q12 22 40 22h93
q23 0 26 -8.5t3 -11.5q0 -10 -13 -21l-99 -90q-17 -16 -41 -16h-41q-20 0 -24.5 8t-4.5 13q0 9 8 19z" />
    <glyph glyph-name="Ocircumflex" unicode="&#xd4;" horiz-adv-x="890" 
d="M136 603q118 105 309 105t309.5 -105.5t118.5 -279.5q0 -171 -114 -251q-115 -80 -314 -80t-313.5 80t-114.5 251q0 174 119 280zM268 335q0 -85 48.5 -126t128.5 -41q81 0 129 41t48 126q0 86 -50 141.5t-127 55.5t-127 -55.5t-50 -141.5zM267 771l74 87q17 18 39 18
h129q23 0 39 -17l74 -88q10 -11 10 -20q0 -4 -3 -11.5t-23 -7.5h-65q-24 0 -39 16l-35 39q-11 13 -22 13t-22 -12l-34 -39q-16 -17 -39 -17h-67q-20 0 -23 7.5t-3 10.5q0 9 10 21z" />
    <glyph glyph-name="Otilde" unicode="&#xd5;" horiz-adv-x="890" 
d="M17 323q0 174 118.5 279.5t309.5 105.5t309.5 -105.5t118.5 -279.5q0 -171 -114 -251q-115 -80 -314 -80t-313.5 80t-114.5 251zM268 335q0 -85 48.5 -126t128.5 -41q81 0 129 41t48 126q0 86 -50 141.5t-127 55.5t-127 -55.5t-50 -141.5zM269 859q30 16 74 16
q42 0 96 -15q6 -1 23 -6t22 -6t17 -4t19 -3q1 0 4.5 0.5t14 1t19 3t17.5 7.5q11 5 19 5q16 0 23 -19l18 -50q3 -9 3 -16q0 -17 -17 -26q-31 -16 -73 -16q-44 0 -99 16q-38 11 -51 14t-29 3q-5 0 -19.5 -0.5t-35.5 -10.5q-11 -6 -20 -6q-15 0 -22 20l-17 49q-3 9 -3 16
q0 18 17 27z" />
    <glyph glyph-name="Odieresis" unicode="&#xd6;" horiz-adv-x="890" 
d="M136 603q118 105 309 105t309.5 -105.5t118.5 -279.5q0 -171 -114 -251q-115 -80 -314 -80t-313.5 80t-114.5 251q0 174 119 280zM268 335q0 -85 48.5 -126t128.5 -41q81 0 129 41t48 126q0 86 -50 141.5t-127 55.5t-127 -55.5t-50 -141.5zM258 807q0 33 22.5 52.5
t58.5 19.5q37 0 59.5 -19.5t22.5 -52.5t-22 -52q-23 -19 -60 -19t-59 19t-22 52zM468 807q0 33 22 52.5t58 19.5q37 0 59.5 -19.5t22.5 -52.5t-22.5 -52t-59.5 -19q-36 0 -58 18.5t-22 49.5v3z" />
    <glyph glyph-name="multiply" unicode="&#xd7;" horiz-adv-x="513" 
d="M73 257l67 65q13 13 14 25q-1 12 -14 25l-67 65q-20 19 -20 38t20 38l11 11q19 18 38 18t38 -18l71 -68q12 -12 24 -12q13 0 26 13l71 67q19 18 39 18q19 0 38 -18l11 -11q20 -19 20 -38t-20 -38l-67 -65q-12 -12 -12 -25t12 -25l67 -65q20 -19 20 -38t-20 -38l-11 -11
q-19 -18 -38 -18t-39 18l-71 67q-13 12 -25 12q-13 0 -25 -12l-71 -67q-19 -18 -38 -18t-38 18l-11 11q-20 19 -20 38t20 38z" />
    <glyph glyph-name="Oslash" unicode="&#xd8;" horiz-adv-x="890" 
d="M8 100l59 39q-50 75 -50 184q0 174 118.5 279.5t309.5 105.5q197 0 317 -112l79 52q6 5 11 5q7 0 13 -8l11 -19q3 -5 3 -10q0 -7 -7 -13l-73 -48q74 -98 74 -232q0 -171 -114.5 -251t-313.5 -80q-234 0 -342 104l-65 -43q-6 -4 -11 -4q-8 0 -13 8l-11 18q-4 6 -4 11
q0 8 9 14zM445 161q81 0 129.5 42t48.5 130q0 52 -18 94l-308 -203q46 -63 148 -63zM274 275l304 200q-51 64 -133 64q-78 0 -128 -58.5t-50 -147.5q0 -34 7 -58z" />
    <glyph glyph-name="Ugrave" unicode="&#xd9;" horiz-adv-x="823" 
d="M21 296q0 176 27 377q3 24 28 27q33 4 98 4q70 0 102 -4q13 -2 20.5 -10.5t7.5 -17.5q0 -3 -1 -7q-32 -176 -32 -312v-30q2 -69 38 -112t103 -43t103 44t38 111v29q0 135 -33 313q-1 3 -1 7q0 9 8 17.5t20 10.5q35 4 104 4q62 0 97 -4q24 -3 27 -27q27 -180 27 -364v-13
q0 -153 -100.5 -229t-289.5 -76q-190 0 -290.5 76t-100.5 229zM236 882q5 13 28 13h94q26 0 40 -22l53 -85q8 -10 8 -19q0 -5 -4.5 -13t-25.5 -8h-41q-24 0 -41 16l-98 90q-14 11 -14 22q0 3 1 6z" />
    <glyph glyph-name="Uacute" unicode="&#xda;" horiz-adv-x="823" 
d="M21 296q0 176 27 377q3 24 28 27q33 4 98 4q70 0 102 -4q13 -2 20.5 -10.5t7.5 -17.5q0 -3 -1 -7q-32 -176 -32 -312v-30q2 -69 38 -112t103 -43t103 44t38 111v29q0 135 -33 313q-1 3 -1 7q0 9 8 17.5t20 10.5q35 4 104 4q62 0 97 -4q24 -3 27 -27q27 -180 27 -364v-13
q0 -153 -100.5 -229t-289.5 -76q-190 0 -290.5 76t-100.5 229zM373 788l53 85q12 22 40 22h93q23 0 26 -8.5t3 -11.5q0 -10 -13 -21l-99 -90q-17 -16 -41 -16h-41q-20 0 -24.5 8t-4.5 13q0 9 8 19z" />
    <glyph glyph-name="Ucircumflex" unicode="&#xdb;" horiz-adv-x="823" 
d="M48 673q3 24 28 27q33 4 98 4q70 0 102 -4q13 -2 20.5 -10.5t7.5 -17.5q0 -3 -1 -7q-32 -176 -32 -312v-30q2 -69 38 -112t103 -43t103 44t38 111v29q0 135 -33 313q-1 3 -1 7q0 9 8 17.5t20 10.5q35 4 104 4q62 0 97 -4q24 -3 27 -27q27 -180 27 -364v-13
q0 -153 -100.5 -229t-289.5 -76q-190 0 -290.5 76t-100.5 229q0 176 27 377zM234 771l74 87q16 18 39 18h129q23 0 39 -17l74 -88q10 -11 10 -20q0 -4 -3 -11.5t-23 -7.5h-65q-24 0 -39 16l-35 39q-11 13 -22 13t-22 -12l-34 -39q-16 -17 -39 -17h-67q-20 0 -23 7.5t-3 10.5
q0 9 10 21z" />
    <glyph glyph-name="Udieresis" unicode="&#xdc;" horiz-adv-x="823" 
d="M48 673q3 24 28 27q33 4 98 4q70 0 102 -4q13 -2 20.5 -10.5t7.5 -17.5q0 -3 -1 -7q-32 -176 -32 -312v-30q2 -69 38 -112t103 -43t103 44t38 111v29q0 135 -33 313q-1 3 -1 7q0 9 8 17.5t20 10.5q35 4 104 4q62 0 97 -4q24 -3 27 -27q27 -180 27 -364v-13
q0 -153 -100.5 -229t-289.5 -76q-190 0 -290.5 76t-100.5 229q0 176 27 377zM248 860q22 19 58 19q37 0 59.5 -19.5t22.5 -52.5t-22 -52q-23 -19 -60 -19t-59 19t-22 52t23 53zM435 807q0 33 22 52.5t58 19.5q37 0 59.5 -19.5t22.5 -52.5t-22.5 -52t-59.5 -19
q-36 0 -58 18.5t-22 49.5v3z" />
    <glyph glyph-name="Yacute" unicode="&#xdd;" horiz-adv-x="798" 
d="M18 689q8 10 22 11q30 4 97 4q77 0 108 -4q26 -4 28 -28q8 -60 26.5 -122t46 -106.5t53.5 -44.5q39 0 78.5 91.5t47.5 181.5q2 25 28 28q30 4 107 4q67 0 98 -4q14 -1 21.5 -10t7.5 -20v-5q-8 -109 -90 -224.5t-178 -136.5q-15 -3 -15 -17q0 -4 1 -8q23 -135 32 -249v-2
q0 -11 -8.5 -18.5t-20.5 -9.5q-36 -4 -106 -4q-74 0 -113 4q-12 2 -20 9.5t-8 18.5v2q6 89 33 250q1 3 1 6q0 14 -15 19q-97 25 -179 138.5t-90 221.5v3q0 12 7 21zM360 788l53 85q12 22 40 22h93q23 0 26 -8.5t3 -11.5q0 -10 -13 -21l-99 -90q-17 -16 -41 -16h-41
q-20 0 -24.5 8t-4.5 13q0 9 8 19z" />
    <glyph glyph-name="Thorn" unicode="&#xde;" horiz-adv-x="795" 
d="M52 673q3 25 28 27q49 4 205 6h3q14 0 21 -7t7 -20v-6l-3 -40v-6q0 -12 7 -18.5t18 -6.5q4 0 9 1q73 12 139 12q36 0 101 -7t128 -48.5t63 -99.5q0 -93 -65.5 -157.5t-157 -87t-181.5 -22.5q-35 0 -71 3h-3q-11 0 -17.5 -7.5t-6.5 -25.5q1 -24 12 -69.5t13 -61.5v-3
q0 -11 -7.5 -19t-21.5 -10q-29 -4 -107 -4q-65 0 -111 4q-28 4 -28 29q0 386 26 644zM275 338q3 -29 44 -29h7q104 0 160 29.5t56 71.5q0 67 -144 67h-13l-72 -3q-35 0 -38 -31q-2 -24 -2 -50q0 -27 2 -55z" />
    <glyph glyph-name="germandbls" unicode="&#xdf;" horiz-adv-x="856" 
d="M572 -7q-54 0 -123.5 12t-116.5 28q-20 8 -20 31l3 128q1 20 13.5 25t22.5 -6q77 -59 180 -59q81 0 81 62q0 36 -59 69.5t-153 53.5q-30 5 -41.5 21.5t-0.5 35t42 28.5q69 24 94 45t25 46q0 40 -99 40q-58 0 -96.5 -33.5t-43.5 -82.5q-14 -162 -1 -403q1 -16 -8 -24
t-27 -10q-88 -9 -187 0q-14 2 -22.5 11t-8.5 22q-1 302 15 436q12 88 68 146.5t130 81.5t163 23q94 0 172 -14.5t131.5 -48t53.5 -82.5q2 -130 -190 -174q-11 -3 -15 -9t0 -12t14 -7q139 -10 206.5 -66t67.5 -128q0 -83 -73.5 -134.5t-196.5 -51.5z" />
    <glyph glyph-name="agrave" unicode="&#xe0;" horiz-adv-x="707" 
d="M89 264q73 43 197 56q88 9 119 18t31 31q0 17 -25.5 29t-79.5 12q-55 0 -118 -17.5t-110 -50.5q-9 -8 -18 -8q-5 0 -14.5 5t-9.5 24v3q1 26 10 124q3 26 22 33q101 29 249 29q155 0 231.5 -53t88.5 -157q17 -148 22 -308v-3q0 -11 -7.5 -20t-20.5 -11q-32 -4 -92 -4
q-59 0 -95 4q-37 6 -37 34q0 4 1 8q5 24 9 61v5q0 10 -4 11.5t-6 1.5q-7 0 -13 -11q-29 -56 -84.5 -87t-122.5 -31q-196 0 -196 153q0 76 73 119zM166 730q5 13 28 13h94q26 0 40 -22l53 -85q8 -10 8 -19q0 -5 -4.5 -13t-25.5 -8h-41q-24 0 -41 16l-98 90q-14 11 -14 22
q0 3 1 6zM245 191q0 -26 18.5 -37.5t61.5 -11.5q39 0 75 24.5t36 61.5q0 43 -61 43q-52 0 -91 -23t-39 -57z" />
    <glyph glyph-name="aacute" unicode="&#xe1;" horiz-adv-x="707" 
d="M16 145q0 76 73 119t197 56q88 9 119 18t31 31q0 17 -25.5 29t-79.5 12q-55 0 -118 -17.5t-110 -50.5q-9 -8 -18 -8q-5 0 -14.5 5t-9.5 24v3q1 26 10 124q3 26 22 33q101 29 249 29q155 0 231.5 -53t88.5 -157q17 -148 22 -308v-3q0 -11 -7.5 -20t-20.5 -11
q-32 -4 -92 -4q-59 0 -95 4q-37 6 -37 34q0 4 1 8q5 24 9 61v5q0 10 -4 11.5t-6 1.5q-7 0 -13 -11q-29 -56 -84.5 -87t-122.5 -31q-196 0 -196 153zM245 191q0 -26 18.5 -37.5t61.5 -11.5q39 0 75 24.5t36 61.5q0 43 -61 43q-52 0 -91 -23t-39 -57zM303 636l53 85
q12 22 40 22h93q23 0 26 -8.5t3 -11.5q0 -10 -13 -21l-99 -90q-17 -16 -41 -16h-41q-20 0 -24.5 8t-4.5 13q0 9 8 19z" />
    <glyph glyph-name="acircumflex" unicode="&#xe2;" horiz-adv-x="707" 
d="M89 264q73 43 197 56q88 9 119 18t31 31q0 17 -25.5 29t-79.5 12q-55 0 -118 -17.5t-110 -50.5q-9 -8 -18 -8q-5 0 -14.5 5t-9.5 24v3q1 26 10 124q3 26 22 33q101 29 249 29q155 0 231.5 -53t88.5 -157q17 -148 22 -308v-3q0 -11 -7.5 -20t-20.5 -11q-32 -4 -92 -4
q-59 0 -95 4q-37 6 -37 34q0 4 1 8q5 24 9 61v5q0 10 -4 11.5t-6 1.5q-7 0 -13 -11q-29 -56 -84.5 -87t-122.5 -31q-196 0 -196 153q0 76 73 119zM164 619l74 87q16 18 39 18h129q23 0 39 -17l74 -88q10 -11 10 -20q0 -4 -3 -11.5t-23 -7.5h-65q-24 0 -39 16l-35 39
q-11 13 -22 13t-22 -12l-34 -39q-16 -17 -39 -17h-67q-20 0 -23 7.5t-3 10.5q0 9 10 21zM264 154q18 -12 61 -12q39 0 75 24.5t36 61.5q0 43 -61 43q-52 0 -91 -23t-39 -57q0 -26 19 -37z" />
    <glyph glyph-name="atilde" unicode="&#xe3;" horiz-adv-x="707" 
d="M16 145q0 76 73 119t197 56q88 9 119 18t31 31q0 17 -25.5 29t-79.5 12q-55 0 -118 -17.5t-110 -50.5q-9 -8 -18 -8q-5 0 -14.5 5t-9.5 24v3q1 26 10 124q3 26 22 33q101 29 249 29q155 0 231.5 -53t88.5 -157q17 -148 22 -308v-3q0 -11 -7.5 -20t-20.5 -11
q-32 -4 -92 -4q-59 0 -95 4q-37 6 -37 34q0 4 1 8q5 24 9 61v5q0 10 -4 11.5t-6 1.5q-7 0 -13 -11q-29 -56 -84.5 -87t-122.5 -31q-196 0 -196 153zM166 707q30 16 74 16q42 0 96 -15q6 -1 23 -6t22 -6t17 -4t19 -3q1 0 4.5 0.5t14 1t19 3t17.5 7.5q11 5 19 5q16 0 23 -19
l18 -50q3 -9 3 -16q0 -17 -17 -26q-31 -16 -73 -16q-44 0 -99 16q-38 11 -51 14t-29 3q-5 0 -19.5 -0.5t-35.5 -10.5q-11 -6 -20 -6q-15 0 -22 20l-17 49q-3 9 -3 16q0 18 17 27zM245 191q0 -26 18.5 -37.5t61.5 -11.5q39 0 75 24.5t36 61.5q0 43 -61 43q-52 0 -91 -23
t-39 -57z" />
    <glyph glyph-name="adieresis" unicode="&#xe4;" horiz-adv-x="707" 
d="M16 145q0 76 73 119t197 56q88 9 119 18t31 31q0 17 -25.5 29t-79.5 12q-55 0 -118 -17.5t-110 -50.5q-9 -8 -18 -8q-5 0 -14.5 5t-9.5 24v3q1 26 10 124q3 26 22 33q101 29 249 29q155 0 231.5 -53t88.5 -157q17 -148 22 -308v-3q0 -11 -7.5 -20t-20.5 -11
q-32 -4 -92 -4q-59 0 -95 4q-37 6 -37 34q0 4 1 8q5 24 9 61v5q0 10 -4 11.5t-6 1.5q-7 0 -13 -11q-29 -56 -84.5 -87t-122.5 -31q-196 0 -196 153zM264 154q18 -12 61 -12q39 0 75 24.5t36 61.5q0 43 -61 43q-52 0 -91 -23t-39 -57q0 -26 19 -37zM155 655q0 33 22.5 52.5
t58.5 19.5q37 0 59.5 -19.5t22.5 -52.5t-22 -52q-23 -19 -60 -19t-59 19t-22 52zM365 655q0 33 22 52.5t58 19.5q37 0 59.5 -19.5t22.5 -52.5t-22.5 -52t-59.5 -19q-36 0 -58 18.5t-22 49.5v3z" />
    <glyph glyph-name="aring" unicode="&#xe5;" horiz-adv-x="707" 
d="M16 145q0 76 73 119t197 56q88 9 119 18t31 31q0 17 -25.5 29t-79.5 12q-55 0 -118 -17.5t-110 -50.5q-9 -8 -18 -8q-5 0 -14.5 5t-9.5 24v3q1 26 10 124q3 26 22 33q101 29 249 29q155 0 231.5 -53t88.5 -157q17 -148 22 -308v-3q0 -11 -7.5 -20t-20.5 -11
q-32 -4 -92 -4q-59 0 -95 4q-37 6 -37 34q0 4 1 8q5 24 9 61v5q0 10 -4 11.5t-6 1.5q-7 0 -13 -11q-29 -56 -84.5 -87t-122.5 -31q-196 0 -196 153zM209 689q0 51 36.5 80.5t95.5 29.5t95.5 -29.5t36.5 -80.5q0 -52 -36 -81q-37 -30 -96 -30t-95.5 29.5t-36.5 81.5zM245 191
q0 -26 18.5 -37.5t61.5 -11.5q39 0 75 24.5t36 61.5q0 43 -61 43q-52 0 -91 -23t-39 -57zM308 653q13 -13 33 -13q21 0 34 12.5t13 35.5t-13 35.5t-34 12.5q-20 0 -33 -12.5t-13 -35.5t13 -35z" />
    <glyph glyph-name="ae" unicode="&#xe6;" horiz-adv-x="1134" 
d="M89 264q73 43 197 56q88 9 119 18t31 31q0 17 -25.5 29t-79.5 12q-55 0 -118 -17.5t-110 -50.5q-9 -8 -18 -8q-5 0 -14.5 5t-9.5 24v3q1 26 10 124q3 26 22 33q101 29 239 29q80 0 135 -29t77 -81q7 -15 17.5 -15t17.5 15q24 52 86 81t140 29q135 0 213.5 -49t78.5 -138
q0 -70 -70 -114.5t-166 -44.5q-99 0 -170 35q-8 5 -14 5t-9 -3.5t-3 -8.5q0 -7 7 -16q21 -35 76 -58.5t113 -23.5q119 0 206 70q9 10 18 10q5 0 14 -4.5t11 -25.5q5 -59 7 -113v-4q0 -19 -16 -28q-90 -49 -271 -49q-90 0 -160.5 37t-100.5 95q-8 14 -17 14t-16 -15
q-27 -60 -103.5 -95.5t-205.5 -35.5q-99 0 -155 38t-56 115q0 76 73 119zM675 340q0 -24 42.5 -37t89.5 -13q41 0 65.5 16t24.5 45q0 65 -99 65q-48 0 -85.5 -21.5t-37.5 -54.5zM245 191q0 -26 18.5 -37.5t61.5 -11.5q39 0 75 24.5t36 61.5q0 43 -61 43q-52 0 -91 -23
t-39 -57z" />
    <glyph glyph-name="ccedilla" unicode="&#xe7;" horiz-adv-x="667" 
d="M16 262q0 132 100 211t263 79q137 0 214 -31q24 -10 24 -32v-4q-9 -75 -14 -114q-3 -21 -12 -25t-13 -4q-9 0 -19 9q-29 18 -75 30t-86 12q-76 0 -116 -32.5t-40 -93.5q0 -54 44.5 -84t123.5 -30q105 0 185 62q9 10 19 10q5 0 15 -4.5t11 -25.5q4 -52 8 -136v-6
q0 -22 -21 -29q-78 -23 -178 -29q45 -50 45 -100q0 -54 -38 -80.5t-96 -26.5q-50 0 -95 18q-12 5 -12 19q0 6 2 14l4 11q5 17 20 17q7 0 15 -3q13 -5 30 -5q26 0 41 13t15 35q0 44 -47 86q-147 9 -232 77.5t-85 191.5z" />
    <glyph glyph-name="egrave" unicode="&#xe8;" horiz-adv-x="683" 
d="M109 479q92 73 243 73q136 0 215 -49t79 -139q0 -70 -70 -114t-165 -44q-98 0 -171 35q-8 5 -14 5t-9 -3.5t-3 -8.5q0 -7 7 -16q21 -35 76 -58.5t113 -23.5q119 0 206 70q9 10 18 10q5 0 14.5 -4.5t10.5 -25.5q7 -76 8 -113q0 -23 -17 -32q-90 -49 -271 -49
q-169 0 -266 74.5t-97 209.5q0 129 93 203zM267 303q42 -13 90 -13q41 0 65 16t24 45q0 65 -99 65q-48 0 -85.5 -21.5t-37.5 -54.5q0 -24 43 -37zM172 726q5 13 28 13h94q26 0 40 -22l53 -85q8 -10 8 -19q0 -5 -4.5 -13t-25.5 -8h-41q-24 0 -41 16l-98 90q-14 11 -14 22
q0 3 1 6z" />
    <glyph glyph-name="eacute" unicode="&#xe9;" horiz-adv-x="683" 
d="M109 479q92 73 243 73q136 0 215 -49t79 -139q0 -70 -70 -114t-165 -44q-98 0 -171 35q-8 5 -14 5t-9 -3.5t-3 -8.5q0 -7 7 -16q21 -35 76 -58.5t113 -23.5q119 0 206 70q9 10 18 10q5 0 14.5 -4.5t10.5 -25.5q7 -76 8 -113q0 -23 -17 -32q-90 -49 -271 -49
q-169 0 -266 74.5t-97 209.5q0 129 93 203zM267 303q42 -13 90 -13q41 0 65 16t24 45q0 65 -99 65q-48 0 -85.5 -21.5t-37.5 -54.5q0 -24 43 -37zM308 632l53 85q12 22 40 22h93q23 0 26 -8.5t3 -11.5q0 -10 -13 -21l-99 -90q-17 -16 -41 -16h-41q-20 0 -24.5 8t-4.5 13
q0 9 8 19z" />
    <glyph glyph-name="ecircumflex" unicode="&#xea;" horiz-adv-x="683" 
d="M16 276q0 129 92.5 202.5t243.5 73.5q136 0 215 -49t79 -139q0 -70 -70 -114t-165 -44q-98 0 -171 35q-8 5 -14 5t-9 -3.5t-3 -8.5q0 -7 7 -16q21 -35 76 -58.5t113 -23.5q119 0 206 70q9 10 18 10q5 0 14.5 -4.5t10.5 -25.5q7 -76 8 -113q0 -23 -17 -32
q-90 -49 -271 -49q-169 0 -266 74.5t-97 209.5zM170 615l74 87q16 18 39 18h129q23 0 39 -17l74 -88q10 -11 10 -20q0 -4 -3 -11.5t-23 -7.5h-65q-24 0 -39 16l-35 39q-11 13 -22 13t-22 -12l-34 -39q-16 -17 -39 -17h-67q-20 0 -23 7.5t-3 10.5q0 9 10 21zM267 303
q42 -13 90 -13q41 0 65 16t24 45q0 65 -99 65q-48 0 -85.5 -21.5t-37.5 -54.5q0 -24 43 -37z" />
    <glyph glyph-name="edieresis" unicode="&#xeb;" horiz-adv-x="683" 
d="M16 276q0 129 92.5 202.5t243.5 73.5q136 0 215 -49t79 -139q0 -70 -70 -114t-165 -44q-98 0 -171 35q-8 5 -14 5t-9 -3.5t-3 -8.5q0 -7 7 -16q21 -35 76 -58.5t113 -23.5q119 0 206 70q9 10 18 10q5 0 14.5 -4.5t10.5 -25.5q7 -76 8 -113q0 -23 -17 -32
q-90 -49 -271 -49q-169 0 -266 74.5t-97 209.5zM267 303q42 -13 90 -13q41 0 65 16t24 45q0 65 -99 65q-48 0 -85.5 -21.5t-37.5 -54.5q0 -24 43 -37zM183 704q22 19 58 19q37 0 59.5 -19.5t22.5 -52.5t-22 -52q-23 -19 -60 -19t-59 19t-22 52t23 53zM370 651q0 33 22 52.5
t58 19.5q37 0 59.5 -19.5t22.5 -52.5t-22.5 -52t-59.5 -19q-36 0 -58 18.5t-22 49.5v3z" />
    <glyph glyph-name="igrave" unicode="&#xec;" horiz-adv-x="304" 
d="M29 31q0 278 18 485q1 25 26 28q31 4 81 4q49 0 77 -4q23 -3 26 -28q17 -213 17 -486q0 -12 -7.5 -20t-18.5 -10q-36 -4 -93 -4q-62 0 -99 4q-11 2 -19 10.5t-8 20.5zM-24 726q5 13 28 13h94q26 0 40 -22l53 -85q8 -10 8 -19q0 -5 -4.5 -13t-25.5 -8h-41q-24 0 -41 16
l-98 90q-14 11 -14 22q0 3 1 6z" />
    <glyph glyph-name="iacute" unicode="&#xed;" horiz-adv-x="304" 
d="M29 31q0 278 18 485q1 25 26 28q31 4 81 4q49 0 77 -4q23 -3 26 -28q17 -213 17 -486q0 -12 -7.5 -20t-18.5 -10q-36 -4 -93 -4q-62 0 -99 4q-11 2 -19 10.5t-8 20.5zM113 632l53 85q12 22 40 22h93q23 0 26 -8.5t3 -11.5q0 -10 -13 -21l-99 -90q-17 -16 -41 -16h-41
q-20 0 -24.5 8t-4.5 13q0 9 8 19z" />
    <glyph glyph-name="icircumflex" unicode="&#xee;" horiz-adv-x="304" 
d="M47 516q1 25 26 28q31 4 81 4q49 0 77 -4q23 -3 26 -28q17 -213 17 -486q0 -12 -7.5 -20t-18.5 -10q-36 -4 -93 -4q-62 0 -99 4q-11 2 -19 10.5t-8 20.5q0 278 18 485zM-26 615l74 87q17 18 39 18h129q23 0 39 -17l74 -88q10 -11 10 -20q0 -4 -3 -11.5t-23 -7.5h-65
q-24 0 -39 16l-35 39q-11 13 -22 13t-22 -12l-34 -39q-16 -17 -39 -17h-67q-20 0 -23 7.5t-3 10.5q0 9 10 21z" />
    <glyph glyph-name="idieresis" unicode="&#xef;" horiz-adv-x="304" 
d="M29 31q0 278 18 485q1 25 26 28q31 4 81 4q49 0 77 -4q23 -3 26 -28q17 -213 17 -486q0 -12 -7.5 -20t-18.5 -10q-36 -4 -93 -4q-62 0 -99 4q-11 2 -19 10.5t-8 20.5zM-35 651q0 33 22.5 52.5t58.5 19.5q37 0 59.5 -19.5t22.5 -52.5t-22 -52q-23 -19 -60 -19t-59 19
t-22 52zM175 651q0 33 22 52.5t58 19.5q37 0 59.5 -19.5t22.5 -52.5t-22.5 -52t-59.5 -19q-36 0 -58 18.5t-22 49.5v3z" />
    <glyph glyph-name="eth" unicode="&#xf0;" horiz-adv-x="811" 
d="M385 -8q-170 0 -269 68t-99 197q0 101 87.5 164.5t207.5 62.5q119 0 213 -50q20 -12 31.5 0t3.5 34q-13 44 -64 82q-13 13 -25 -4l-27 -32q-19 -24 -43 -5l-19 15q-25 20 -5 42l14 17q6 7 4.5 14.5t-11.5 9.5q-16 9 -34 9q-74 0 -128 -18t-112 -57q-18 -14 -30 -9t-12 28
q-5 90 -5 118q0 32 20 43q131 64 284 64q73 0 133 -36q15 -7 24 7l36 45q19 24 43 5l20 -16q24 -18 5 -42l-24 -30q-11 -14 4 -25q90 -51 138.5 -133.5t48.5 -186.5q0 -184 -109.5 -282.5t-300.5 -98.5zM385 170q65 0 114 30.5t49 81.5q0 42 -57 67.5t-118 25.5
q-55 0 -88.5 -26.5t-33.5 -73.5q0 -46 33.5 -75.5t100.5 -29.5z" />
    <glyph glyph-name="ntilde" unicode="&#xf1;" horiz-adv-x="790" 
d="M48 514q3 27 27 30q31 4 91 4q54 0 94 -4q12 -2 18 -10t6 -15q0 -4 -1 -8q-15 -48 -15 -75v-3q0 -13 4 -14t5 -1q7 0 14 12q72 122 210 122q111 0 179 -73.5t79 -195.5q9 -112 9 -253q-1 -27 -28 -30q-40 -4 -92 -4q-56 0 -100 4q-13 2 -20.5 10t-7.5 19v3q11 119 11 193
q-2 66 -38.5 107.5t-96.5 41.5q-58 0 -95 -42.5t-37 -105.5v-3q0 -99 11 -192v-3q0 -10 -7.5 -18t-19.5 -10q-33 -4 -96 -4q-64 0 -101 4q-27 4 -27 31q1 294 24 483zM219 703q30 16 74 16q42 0 96 -15q6 -1 23 -6t22 -6t17 -4t19 -3q1 0 4.5 0.5t14 1t19 3t17.5 7.5
q11 5 19 5q16 0 23 -19l18 -50q3 -9 3 -16q0 -17 -17 -26q-31 -16 -73 -16q-44 0 -99 16q-38 11 -51 14t-29 3q-5 0 -19.5 -0.5t-35.5 -10.5q-11 -6 -20 -6q-15 0 -22 20l-17 49q-3 9 -3 16q0 18 17 27z" />
    <glyph glyph-name="ograve" unicode="&#xf2;" horiz-adv-x="738" 
d="M16 262q0 131 98.5 210.5t254.5 79.5t254 -79.5t98 -210.5q0 -134 -96 -202t-256 -68t-256.5 68t-96.5 202zM273 180q37 -34 96 -34t96.5 34t37.5 92q0 57 -37 92t-97 35q-59 0 -96.5 -35t-37.5 -92q0 -58 38 -92zM193 726q5 13 28 13h94q26 0 40 -22l53 -85q8 -10 8 -19
q0 -5 -4.5 -13t-25.5 -8h-41q-24 0 -41 16l-98 90q-14 11 -14 22q0 3 1 6z" />
    <glyph glyph-name="oacute" unicode="&#xf3;" horiz-adv-x="738" 
d="M16 262q0 131 98.5 210.5t254.5 79.5t254 -79.5t98 -210.5q0 -134 -96 -202t-256 -68t-256.5 68t-96.5 202zM273 180q37 -34 96 -34t96.5 34t37.5 92q0 57 -37 92t-97 35q-59 0 -96.5 -35t-37.5 -92q0 -58 38 -92zM330 632l53 85q12 22 40 22h93q23 0 26 -8.5t3 -11.5
q0 -10 -13 -21l-99 -90q-17 -16 -41 -16h-41q-20 0 -24.5 8t-4.5 13q0 9 8 19z" />
    <glyph glyph-name="ocircumflex" unicode="&#xf4;" horiz-adv-x="738" 
d="M16 262q0 131 98.5 210.5t254.5 79.5t254 -79.5t98 -210.5q0 -134 -96 -202t-256 -68t-256.5 68t-96.5 202zM235 272q0 -58 38 -92q37 -34 96 -34t96.5 34t37.5 92q0 57 -37 92t-97 35q-59 0 -96.5 -35t-37.5 -92zM191 615l74 87q17 18 39 18h129q23 0 39 -17l74 -88
q10 -11 10 -20q0 -4 -3 -11.5t-23 -7.5h-65q-24 0 -39 16l-35 39q-11 13 -22 13t-22 -12l-34 -39q-16 -17 -39 -17h-67q-20 0 -23 7.5t-3 10.5q0 9 10 21z" />
    <glyph glyph-name="otilde" unicode="&#xf5;" horiz-adv-x="738" 
d="M16 262q0 131 98.5 210.5t254.5 79.5t254 -79.5t98 -210.5q0 -134 -96 -202t-256 -68t-256.5 68t-96.5 202zM273 180q37 -34 96 -34t96.5 34t37.5 92q0 57 -37 92t-97 35q-59 0 -96.5 -35t-37.5 -92q0 -58 38 -92zM193 703q30 16 74 16q42 0 96 -15q6 -1 23 -6t22 -6
t17 -4t19 -3q1 0 4.5 0.5t14 1t19 3t17.5 7.5q11 5 19 5q16 0 23 -19l18 -50q3 -9 3 -16q0 -17 -17 -26q-31 -16 -73 -16q-44 0 -99 16q-38 11 -51 14t-29 3q-5 0 -19.5 -0.5t-35.5 -10.5q-11 -6 -20 -6q-15 0 -22 20l-17 49q-3 9 -3 16q0 18 17 27z" />
    <glyph glyph-name="odieresis" unicode="&#xf6;" horiz-adv-x="738" 
d="M115 473q98 79 254 79t254 -79.5t98 -210.5q0 -134 -96 -202t-256 -68t-256.5 68t-96.5 202q0 131 99 211zM235 272q0 -58 38 -92q37 -34 96 -34t96.5 34t37.5 92q0 57 -37 92t-97 35q-59 0 -96.5 -35t-37.5 -92zM182 651q0 33 22.5 52.5t58.5 19.5q37 0 59.5 -19.5
t22.5 -52.5t-22 -52q-23 -19 -60 -19t-59 19t-22 52zM392 651q0 33 22 52.5t58 19.5q37 0 59.5 -19.5t22.5 -52.5t-22.5 -52t-59.5 -19q-36 0 -58 18.5t-22 49.5v3z" />
    <glyph glyph-name="divide" unicode="&#xf7;" horiz-adv-x="605" 
d="M303 459q-44 0 -73 23.5t-29 63.5t29 63.5t73 23.5q45 -1 73 -24t28 -63t-28.5 -63.5t-72.5 -23.5zM522 295h-439q-54 0 -54 51v4q0 51 54 51h439q54 0 54 -50v-5q0 -51 -54 -51zM303 62q-45 1 -73.5 24t-28.5 63t29 63.5t73 23.5t72.5 -23.5t28.5 -63.5t-28.5 -63.5
t-72.5 -23.5z" />
    <glyph glyph-name="oslash" unicode="&#xf8;" horiz-adv-x="738" 
d="M116 473q98 79 254 79q155 0 252 -78l57 38q6 5 12 5t12 -8l11 -19q3 -5 3 -10q0 -7 -7 -13l-48 -32q60 -73 60 -173q0 -134 -96 -202t-256 -68q-169 0 -262 72l-49 -33q-6 -4 -11 -4q-8 0 -13 8l-11 18q-3 5 -3 10q0 8 8 15l38 26q-50 62 -50 158q0 131 99 211zM370 126
q68 0 111.5 39t43.5 107q0 36 -13 63l-254 -171q43 -38 112 -38zM226 210l254 169q-42 39 -110 39q-69 0 -112.5 -40t-43.5 -106q0 -35 12 -62z" />
    <glyph glyph-name="ugrave" unicode="&#xf9;" horiz-adv-x="768" 
d="M47 514q3 27 28 30q43 5 88 5q65 0 100 -5q13 -2 20 -9.5t7 -17.5v-5q-28 -136 -28 -207q0 -66 31 -105t94 -39q52 0 83.5 44t31.5 110q0 95 -18 197v5q0 9 6.5 17t18.5 10q42 5 98 5q45 0 88 -5q11 -1 18.5 -10t9.5 -21q21 -239 21 -463v-20q0 -27 -24 -30
q-30 -5 -91 -5q-50 0 -98 5q-12 1 -19.5 8t-7.5 16q0 3 1 6q8 45 8 74q0 16 -4 17t-5 1q-7 0 -14 -12q-70 -119 -209 -119q-125 0 -191 65.5t-66 186.5q1 107 23 271zM209 726q5 13 28 13h94q26 0 40 -22l53 -85q8 -10 8 -19q0 -5 -4.5 -13t-25.5 -8h-41q-24 0 -41 16
l-98 90q-14 11 -14 22q0 3 1 6z" />
    <glyph glyph-name="uacute" unicode="&#xfa;" horiz-adv-x="768" 
d="M47 514q3 27 28 30q43 5 88 5q65 0 100 -5q13 -2 20 -9.5t7 -17.5v-5q-28 -136 -28 -207q0 -66 31 -105t94 -39q52 0 83.5 44t31.5 110q0 95 -18 197v5q0 9 6.5 17t18.5 10q42 5 98 5q45 0 88 -5q11 -1 18.5 -10t9.5 -21q21 -239 21 -463v-20q0 -27 -24 -30
q-30 -5 -91 -5q-50 0 -98 5q-12 1 -19.5 8t-7.5 16q0 3 1 6q8 45 8 74q0 16 -4 17t-5 1q-7 0 -14 -12q-70 -119 -209 -119q-125 0 -191 65.5t-66 186.5q1 107 23 271zM345 632l53 85q12 22 40 22h93q23 0 26 -8.5t3 -11.5q0 -10 -13 -21l-99 -90q-17 -16 -41 -16h-41
q-20 0 -24.5 8t-4.5 13q0 9 8 19z" />
    <glyph glyph-name="ucircumflex" unicode="&#xfb;" horiz-adv-x="768" 
d="M24 243q1 107 23 271q3 27 28 30q43 5 88 5q65 0 100 -5q13 -2 20 -9.5t7 -17.5v-5q-28 -136 -28 -207q0 -66 31 -105t94 -39q52 0 83.5 44t31.5 110q0 95 -18 197v5q0 9 6.5 17t18.5 10q42 5 98 5q45 0 88 -5q11 -1 18.5 -10t9.5 -21q21 -239 21 -463v-20q0 -27 -24 -30
q-30 -5 -91 -5q-50 0 -98 5q-12 1 -19.5 8t-7.5 16q0 3 1 6q8 45 8 74q0 16 -4 17t-5 1q-7 0 -14 -12q-70 -119 -209 -119q-125 0 -191 65.5t-66 186.5zM207 615l74 87q17 18 39 18h129q23 0 39 -17l74 -88q10 -11 10 -20q0 -4 -3 -11.5t-23 -7.5h-65q-24 0 -39 16l-35 39
q-11 13 -22 13t-22 -12l-34 -39q-16 -17 -39 -17h-67q-20 0 -23 7.5t-3 10.5q0 9 10 21z" />
    <glyph glyph-name="udieresis" unicode="&#xfc;" horiz-adv-x="768" 
d="M47 514q3 27 28 30q43 5 88 5q65 0 100 -5q13 -2 20 -9.5t7 -17.5v-5q-28 -136 -28 -207q0 -66 31 -105t94 -39q52 0 83.5 44t31.5 110q0 95 -18 197v5q0 9 6.5 17t18.5 10q42 5 98 5q45 0 88 -5q11 -1 18.5 -10t9.5 -21q21 -239 21 -463v-20q0 -27 -24 -30
q-30 -5 -91 -5q-50 0 -98 5q-12 1 -19.5 8t-7.5 16q0 3 1 6q8 45 8 74q0 16 -4 17t-5 1q-7 0 -14 -12q-70 -119 -209 -119q-125 0 -191 65.5t-66 186.5q1 107 23 271zM197 651q0 33 22.5 52.5t58.5 19.5q37 0 59.5 -19.5t22.5 -52.5t-22 -52q-23 -19 -60 -19t-59 19t-22 52z
M407 651q0 33 22 52.5t58 19.5q37 0 59.5 -19.5t22.5 -52.5t-22.5 -52t-59.5 -19q-36 0 -58 18.5t-22 49.5v3z" />
    <glyph glyph-name="yacute" unicode="&#xfd;" horiz-adv-x="772" 
d="M12 -176q2 20 5 71.5t4 67.5q2 17 11 22t15 5q7 0 14 -5q97 -56 224 -56q90 0 162 50t72 112v16q0 11 -4 14.5t-7 3.5t-7 -2t-8 -11q-52 -113 -207 -113q-125 0 -191 66t-66 182q1 102 23 267q3 27 28 30q43 5 88 5q65 0 101 -5q13 -2 19.5 -9.5t6.5 -17.5v-5
q-27 -131 -27 -202q0 -67 30.5 -108t93.5 -41q51 0 81.5 45.5t30.5 112.5q0 82 -18 193v5q0 9 6.5 17t18.5 10q42 5 100 5q45 0 88 -5q11 -1 18.5 -10t9.5 -21q22 -231 22 -452v-19q0 -92 -58 -157.5t-145.5 -94.5t-192.5 -29q-204 0 -317 29q-24 7 -24 30v4zM340 632l53 85
q12 22 40 22h93q23 0 26 -8.5t3 -11.5q0 -10 -13 -21l-99 -90q-17 -16 -41 -16h-41q-20 0 -24.5 8t-4.5 13q0 9 8 19z" />
    <glyph glyph-name="thorn" unicode="&#xfe;" horiz-adv-x="783" 
d="M30 272q6 282 18 420q3 27 28 30q43 5 89 5q62 0 105 -5q25 -4 25 -27v-5q-17 -182 -17 -241v-4q0 -13 4 -14t5 -1q7 0 14 12q30 51 86 80.5t117 29.5q118 0 190 -74t72 -206q0 -130 -73.5 -205t-192.5 -75q-69 0 -125.5 28.5t-85.5 81.5q-6 12 -13 12q-1 0 -6 -2t-5 -18
v-35q0 -125 18 -258v-5q0 -9 -7 -16.5t-20 -9.5q-48 -4 -109 -4q-46 0 -98 4q-25 3 -25 30q0 190 6 472zM270 269q0 -55 37 -88t95 -33t95 33t37 88q0 57 -37 90.5t-95 33.5t-95 -33.5t-37 -90.5z" />
    <glyph glyph-name="ydieresis" unicode="&#xff;" horiz-adv-x="772" 
d="M12 -176q2 20 5 71.5t4 67.5q2 17 11 22t15 5q7 0 14 -5q97 -56 224 -56q90 0 162 50t72 112v16q0 11 -4 14.5t-7 3.5t-7 -2t-8 -11q-52 -113 -207 -113q-125 0 -191 66t-66 182q1 102 23 267q3 27 28 30q43 5 88 5q65 0 101 -5q13 -2 19.5 -9.5t6.5 -17.5v-5
q-27 -131 -27 -202q0 -67 30.5 -108t93.5 -41q51 0 81.5 45.5t30.5 112.5q0 82 -18 193v5q0 9 6.5 17t18.5 10q42 5 100 5q45 0 88 -5q11 -1 18.5 -10t9.5 -21q22 -231 22 -452v-19q0 -92 -58 -157.5t-145.5 -94.5t-192.5 -29q-204 0 -317 29q-24 7 -24 30v4zM192 651
q0 33 22.5 52.5t58.5 19.5q37 0 59.5 -19.5t22.5 -52.5t-22 -52q-23 -19 -60 -19t-59 19t-22 52zM402 651q0 33 22 52.5t58 19.5q37 0 59.5 -19.5t22.5 -52.5t-22.5 -52t-59.5 -19q-36 0 -58 18.5t-22 49.5v3z" />
    <glyph glyph-name="Amacron" unicode="&#x100;" horiz-adv-x="879" 
d="M14 34q50 168 126.5 344.5t150.5 304.5q7 13 26 17q35 4 122 4q86 0 123 -4q19 -3 27 -17q72 -127 148.5 -304t127.5 -346q2 -6 2 -11q0 -6 -5 -13.5t-20 -9.5q-39 -3 -110 -3q-69 0 -108 4q-10 1 -17 8t-7 18q0 8 1 17q-1 41 -13 80q-18 49 -101 51q-24 1 -47 1
q-24 0 -48 -1q-80 -2 -101 -51q-12 -39 -12 -84v-13q0 -11 -7.5 -18t-17.5 -8q-37 -4 -117 -4q-66 0 -99 4q-15 2 -20.5 9.5t-5.5 14.5q0 5 2 10zM253 802q0 32 32 32h306q32 0 32 -32v-34q0 -33 -32 -33h-306q-32 0 -32 33v34zM419 268h41q36 2 48 13.5t12 24.5q0 8 -4 18
q-18 71 -53 160q-12 26 -24 27q-11 -1 -23 -27q-35 -89 -53 -160q-4 -11 -4 -20q0 -34 60 -36z" />
    <glyph glyph-name="amacron" unicode="&#x101;" horiz-adv-x="707" 
d="M89 264q73 43 197 56q88 9 119 18t31 31q0 17 -25.5 29t-79.5 12q-55 0 -118 -17.5t-110 -50.5q-9 -8 -18 -8q-5 0 -14.5 5t-9.5 24v3q1 26 10 124q3 26 22 33q101 29 249 29q155 0 231.5 -53t88.5 -157q17 -148 22 -308v-3q0 -11 -7.5 -20t-20.5 -11q-32 -4 -92 -4
q-59 0 -95 4q-37 6 -37 34q0 4 1 8q5 24 9 61v5q0 10 -4 11.5t-6 1.5q-7 0 -13 -11q-29 -56 -84.5 -87t-122.5 -31q-196 0 -196 153q0 76 73 119zM156 650q0 32 32 32h306q32 0 32 -32v-34q0 -33 -32 -33h-306q-32 0 -32 33v34zM264 154q18 -12 61 -12q39 0 75 24.5t36 61.5
q0 43 -61 43q-52 0 -91 -23t-39 -57q0 -26 19 -37z" />
    <glyph glyph-name="Abreve" unicode="&#x102;" horiz-adv-x="879" 
d="M14 34q50 168 126.5 344.5t150.5 304.5q7 13 26 17q35 4 122 4q86 0 123 -4q19 -3 27 -17q72 -127 148.5 -304t127.5 -346q2 -6 2 -11q0 -6 -5 -13.5t-20 -9.5q-39 -3 -110 -3q-69 0 -108 4q-10 1 -17 8t-7 18q0 8 1 17q-1 41 -13 80q-18 49 -101 51q-24 1 -47 1
q-24 0 -48 -1q-80 -2 -101 -51q-12 -39 -12 -84v-13q0 -11 -7.5 -18t-17.5 -8q-37 -4 -117 -4q-66 0 -99 4q-15 2 -20.5 9.5t-5.5 14.5q0 5 2 10zM301 842l27 10q6 3 11 3q14 0 30 -16q24 -28 68 -28q45 0 69 28q16 16 30 16q5 0 11 -3l27 -10q24 -10 24 -23q0 -6 -5 -12
q-50 -78 -156 -78q-98 0 -150 70q-8 10 -8 19q0 14 22 24zM419 268h41q36 2 48 13.5t12 24.5q0 8 -4 18q-18 71 -53 160q-12 26 -24 27q-11 -1 -23 -27q-35 -89 -53 -160q-4 -11 -4 -20q0 -34 60 -36z" />
    <glyph glyph-name="abreve" unicode="&#x103;" horiz-adv-x="707" 
d="M89 264q73 43 197 56q88 9 119 18t31 31q0 17 -25.5 29t-79.5 12q-55 0 -118 -17.5t-110 -50.5q-9 -8 -18 -8q-5 0 -14.5 5t-9.5 24v3q1 26 10 124q3 26 22 33q101 29 249 29q155 0 231.5 -53t88.5 -157q17 -148 22 -308v-3q0 -11 -7.5 -20t-20.5 -11q-32 -4 -92 -4
q-59 0 -95 4q-37 6 -37 34q0 4 1 8q5 24 9 61v5q0 10 -4 11.5t-6 1.5q-7 0 -13 -11q-29 -56 -84.5 -87t-122.5 -31q-196 0 -196 153q0 76 73 119zM204 690l27 10q6 3 11 3q14 0 30 -16q24 -28 68 -28q45 0 69 28q16 16 30 16q5 0 11 -3l27 -10q24 -10 24 -23q0 -6 -5 -12
q-50 -78 -156 -78q-98 0 -150 70q-8 10 -8 19q0 14 22 24zM245 191q0 -26 18.5 -37.5t61.5 -11.5q39 0 75 24.5t36 61.5q0 43 -61 43q-52 0 -91 -23t-39 -57z" />
    <glyph glyph-name="Aogonek" unicode="&#x104;" horiz-adv-x="879" 
d="M14 34q50 168 126.5 344.5t150.5 304.5q7 13 26 17q35 4 122 4q86 0 123 -4q19 -3 27 -17q72 -127 148.5 -304t127.5 -346q2 -6 2 -11q0 -6 -5 -13.5t-20 -9.5q-8 0 -21.5 -0.5t-32 -1.5t-27.5 -1q-3 -4 -10 -10q-59 -43 -59 -94q0 -23 15.5 -36t41.5 -13q12 0 30 6
q8 3 15 3q15 0 20 -18l4 -11q2 -7 2 -12q0 -16 -13 -21q-43 -17 -95 -17q-57 0 -95 26.5t-38 79.5q0 64 65 119q-3 0 -10 0.5t-10 1.5q-10 1 -17 8t-7 18q0 8 1 17q-1 41 -13 80q-18 49 -101 51q-24 1 -47 1q-24 0 -48 -1q-80 -2 -101 -51q-12 -39 -12 -84v-13
q0 -11 -7.5 -18t-17.5 -8q-37 -4 -117 -4q-66 0 -99 4q-15 2 -20.5 9.5t-5.5 14.5q0 5 2 10zM419 268h41q36 2 48 13.5t12 24.5q0 8 -4 18q-18 71 -53 160q-12 26 -24 27q-11 -1 -23 -27q-35 -89 -53 -160q-4 -11 -4 -20q0 -34 60 -36z" />
    <glyph glyph-name="aogonek" unicode="&#x105;" horiz-adv-x="707" 
d="M89 264q73 43 197 56q88 9 119 18t31 31q0 17 -25.5 29t-79.5 12q-55 0 -118 -17.5t-110 -50.5q-9 -8 -18 -8q-5 0 -14.5 5t-9.5 24v3q1 26 10 124q3 26 22 33q101 29 249 29q155 0 231.5 -53t88.5 -157q17 -148 22 -308v-3q0 -11 -7.5 -20t-20.5 -11q-17 -2 -68 -4
q-2 -1 -4.5 -4t-4.5 -4q-59 -43 -59 -94q0 -23 15.5 -36t41.5 -13q12 0 30 6q8 3 15 3q15 0 20 -18l4 -11q2 -7 2 -12q0 -16 -13 -21q-43 -17 -95 -17q-57 0 -95 26.5t-38 79.5q0 62 64 119h-2q-37 6 -37 34q0 4 1 8q5 24 9 61v5q0 10 -4 11.5t-6 1.5q-7 0 -13 -11
q-29 -56 -84.5 -87t-122.5 -31q-196 0 -196 153q0 76 73 119zM245 191q0 -26 18.5 -37.5t61.5 -11.5q39 0 75 24.5t36 61.5q0 43 -61 43q-52 0 -91 -23t-39 -57z" />
    <glyph glyph-name="Cacute" unicode="&#x106;" horiz-adv-x="833" 
d="M17 325q0 173 122.5 278t319.5 105q159 0 277 -55q17 -10 17 -31v-6q-2 -15 -10 -83.5t-11 -88.5q-2 -17 -10.5 -18.5t-10.5 -1.5q-12 0 -21 12q-83 103 -225 103q-91 0 -146 -53t-55 -147q0 -83 59 -125t156 -42q182 0 274 120q9 14 21 14q3 0 13.5 -3t12.5 -26
q5 -66 11 -205v-4q0 -20 -20 -28q-52 -19 -150.5 -33.5t-176.5 -14.5q-100 0 -180.5 19t-140.5 58.5t-93 104.5t-33 151zM407 788l53 85q12 22 40 22h93q23 0 26 -8.5t3 -11.5q0 -10 -13 -21l-99 -90q-17 -16 -41 -16h-41q-20 0 -24.5 8t-4.5 13q0 9 8 19z" />
    <glyph glyph-name="cacute" unicode="&#x107;" horiz-adv-x="667" 
d="M116 473q100 79 263 79q137 0 214 -31q24 -10 24 -32v-4q-9 -75 -14 -114q-3 -21 -12 -25t-13 -4q-9 0 -19 9q-29 18 -75 30t-86 12q-76 0 -116 -32.5t-40 -93.5q0 -54 44.5 -84t123.5 -30q105 0 185 62q9 10 19 10q5 0 15 -4.5t11 -25.5q4 -52 8 -136v-6q0 -22 -21 -29
q-106 -32 -249 -32q-167 0 -264.5 68.5t-97.5 201.5q0 132 100 211zM341 632l53 85q12 22 40 22h93q23 0 26 -8.5t3 -11.5q0 -10 -13 -21l-99 -90q-17 -16 -41 -16h-41q-20 0 -24.5 8t-4.5 13q0 9 8 19z" />
    <glyph glyph-name="Cdotaccent" unicode="&#x10a;" horiz-adv-x="833" 
d="M17 325q0 173 122.5 278t319.5 105q159 0 277 -55q17 -10 17 -31v-6q-2 -15 -10 -83.5t-11 -88.5q-2 -17 -10.5 -18.5t-10.5 -1.5q-12 0 -21 12q-83 103 -225 103q-91 0 -146 -53t-55 -147q0 -83 59 -125t156 -42q182 0 274 120q9 14 21 14q3 0 13.5 -3t12.5 -26
q5 -66 11 -205v-4q0 -20 -20 -28q-52 -19 -150.5 -33.5t-176.5 -14.5q-100 0 -180.5 19t-140.5 58.5t-93 104.5t-33 151zM388 860q22 19 58 19q37 0 59.5 -19.5t22.5 -52.5t-22 -52q-23 -19 -60 -19t-59 19t-22 52t23 53z" />
    <glyph glyph-name="cdotaccent" unicode="&#x10b;" horiz-adv-x="667" 
d="M116 473q100 79 263 79q137 0 214 -31q24 -10 24 -32v-4q-9 -75 -14 -114q-3 -21 -12 -25t-13 -4q-9 0 -19 9q-29 18 -75 30t-86 12q-76 0 -116 -32.5t-40 -93.5q0 -54 44.5 -84t123.5 -30q105 0 185 62q9 10 19 10q5 0 15 -4.5t11 -25.5q4 -52 8 -136v-6q0 -22 -21 -29
q-106 -32 -249 -32q-167 0 -264.5 68.5t-97.5 201.5q0 132 100 211zM322 704q22 19 58 19q37 0 59.5 -19.5t22.5 -52.5t-22 -52q-23 -19 -60 -19t-59 19t-22 52t23 53z" />
    <glyph glyph-name="Ccaron" unicode="&#x10c;" horiz-adv-x="833" 
d="M17 325q0 173 122.5 278t319.5 105q159 0 277 -55q17 -10 17 -31v-6q-2 -15 -10 -83.5t-11 -88.5q-2 -17 -10.5 -18.5t-10.5 -1.5q-12 0 -21 12q-83 103 -225 103q-91 0 -146 -53t-55 -147q0 -83 59 -125t156 -42q182 0 274 120q9 14 21 14q3 0 13.5 -3t12.5 -26
q5 -66 11 -205v-4q0 -20 -20 -28q-52 -19 -150.5 -33.5t-176.5 -14.5q-100 0 -180.5 19t-140.5 58.5t-93 104.5t-33 151zM259 864q5 12 25 12h67q23 0 39 -17l34 -39q11 -12 22 -12t22 13l35 39q15 16 39 16h65q20 0 23 -7.5t3 -11.5q0 -9 -10 -20l-74 -88q-16 -17 -39 -17
h-129q-23 0 -39 17l-74 88q-10 11 -10 20q0 4 1 7z" />
    <glyph glyph-name="ccaron" unicode="&#x10d;" horiz-adv-x="667" 
d="M116 473q100 79 263 79q137 0 214 -31q24 -10 24 -32v-4q-9 -75 -14 -114q-3 -21 -12 -25t-13 -4q-9 0 -19 9q-29 18 -75 30t-86 12q-76 0 -116 -32.5t-40 -93.5q0 -54 44.5 -84t123.5 -30q105 0 185 62q9 10 19 10q5 0 15 -4.5t11 -25.5q4 -52 8 -136v-6q0 -22 -21 -29
q-106 -32 -249 -32q-167 0 -264.5 68.5t-97.5 201.5q0 132 100 211zM193 708q5 12 25 12h67q23 0 39 -17l34 -39q11 -12 22 -12t22 13l35 39q15 16 39 16h65q20 0 23 -7.5t3 -11.5q0 -9 -10 -20l-74 -88q-16 -17 -39 -17h-129q-23 0 -39 17l-74 88q-10 11 -10 20q0 4 1 7z
" />
    <glyph glyph-name="Dcaron" unicode="&#x10e;" horiz-adv-x="850" 
d="M52 672q1 11 9 19t19 9q78 4 289 4q209 0 336.5 -104.5t127.5 -287.5q0 -161 -107 -240.5t-309 -79.5q-253 0 -363 8q-12 1 -20 10t-8 21q0 251 26 641zM273 250q3 -65 59 -68q24 -1 77 -1q82 0 132 36.5t50 107.5q0 91 -55.5 146.5t-148.5 56.5q-18 0 -64 -2
q-22 -1 -35 -17t-15 -41q-1 -54 -1 -108q0 -55 1 -110zM182 864q5 12 25 12h67q23 0 39 -17l34 -39q11 -12 22 -12t22 13l35 39q15 16 39 16h65q20 0 23 -7.5t3 -11.5q0 -9 -10 -20l-74 -88q-16 -17 -39 -17h-129q-23 0 -39 17l-74 88q-10 11 -10 20q0 4 1 7z" />
    <glyph glyph-name="dcaron" unicode="&#x10f;" horiz-adv-x="933" 
d="M812 600l-18 23q-14 17 5 31q12 8 22 22q4 5 2.5 9.5t-8.5 3.5q-32 -2 -56 22t-24 64q0 42 27 64.5t70 22.5q44 0 70.5 -27.5t26.5 -74.5q0 -54 -24.5 -98t-61.5 -68q-18 -10 -31 6zM280 -8q-119 0 -191.5 71t-72.5 202t72.5 209t190.5 78q139 0 210 -106q9 -14 17.5 -12
t7.5 20q-4 97 -29 228q-2 12 6 22t21 12q32 4 100 4q63 0 95 -4q24 -5 27 -29q23 -222 23 -656q0 -27 -27 -31q-37 -4 -100 -4q-71 0 -96 4q-12 2 -20.5 10.5t-5.5 20.5q6 36 7 56q2 17 -6.5 19.5t-18.5 -12.5q-69 -102 -210 -102zM382 150q58 1 95 34t37 89q0 55 -37 88
t-95 33q-59 0 -95.5 -33.5t-36.5 -87.5q0 -57 37 -90t95 -33z" />
    <glyph glyph-name="Dcroat" unicode="&#x110;" horiz-adv-x="897" 
d="M464 -8q-253 0 -363 8q-12 1 -20 10t-8 21q0 153 7 283q0 22 -22 22h-37q-23 0 -23 22v41q0 21 23 21h42q20 0 22 22q6 115 14 230q1 11 9 19t19 9q78 4 289 4q209 0 336.5 -104.5t127.5 -287.5q0 -161 -107 -240.5t-309 -79.5zM378 179q25 -1 78 -1q83 0 133 38t50 113
q0 95 -56 152.5t-150 58.5q-30 1 -63 -2q-50 -2 -51 -47q0 -32 -1 -49q0 -22 22 -22h135q22 0 22 -21v-41q0 -22 -22 -22h-135q-22 0 -22 -22q0 -12 0.5 -35t0.5 -35q3 -62 59 -65z" />
    <glyph glyph-name="dcroat" unicode="&#x111;" horiz-adv-x="783" 
d="M280 -8q-119 0 -191.5 71t-72.5 202t72.5 209t190.5 78q139 0 210 -106q9 -14 17.5 -12t7.5 20q-2 50 -7 88q-1 21 -24 21l-78 -3q-23 0 -23 23v18q0 23 23 23h65q26 0 21 23l-6 35q-2 12 6 22t21 12q32 4 100 4q63 0 95 -4q24 -5 27 -29l3 -41q1 -22 24 -22h26
q23 0 23 -23v-15q0 -23 -23 -23h-20q-23 0 -22 -24q12 -250 12 -508q0 -27 -27 -31q-37 -4 -100 -4q-71 0 -96 4q-12 2 -20.5 10.5t-5.5 20.5q6 36 7 56q2 17 -6.5 19.5t-18.5 -12.5q-69 -102 -210 -102zM382 150q58 1 95 34t37 89q0 55 -37 88t-95 33q-59 0 -95.5 -33.5
t-36.5 -87.5q0 -57 37 -90t95 -33z" />
    <glyph glyph-name="Emacron" unicode="&#x112;" horiz-adv-x="817" 
d="M53 674q3 24 31 26q60 4 302 4q233 0 303 -4q27 -1 30 -29q8 -96 8 -192v-2q0 -19 -9 -21.5t-13 -2.5q-12 0 -23 13q-82 83 -264 83q-71 0 -112 -17.5t-41 -51.5v-6q0 -54 130 -54q98 0 194 8h3q11 0 20 -7.5t9 -20.5v-87q0 -16 -7.5 -19t-11.5 -3q-8 0 -17 6
q-67 31 -169 31h-12q-140 -2 -140 -69v-16q0 -46 53 -67.5t140 -21.5q109 0 167 28t103 97q9 15 24 15q2 0 13 -1.5t13 -22.5q9 -68 18 -244v-3q0 -9 -6.5 -15.5t-18.5 -7.5q-81 -4 -386 -4q-256 0 -327 4q-31 2 -31 30q4 397 27 644zM200 768v34q0 32 32 32h306
q32 0 32 -32v-34q0 -33 -32 -33h-306q-32 0 -32 33z" />
    <glyph glyph-name="emacron" unicode="&#x113;" horiz-adv-x="683" 
d="M16 276q0 129 92.5 202.5t243.5 73.5q136 0 215 -49t79 -139q0 -70 -70 -114t-165 -44q-98 0 -171 35q-8 5 -14 5t-9 -3.5t-3 -8.5q0 -7 7 -16q21 -35 76 -58.5t113 -23.5q119 0 206 70q9 10 18 10q5 0 14.5 -4.5t10.5 -25.5q7 -76 8 -113q0 -23 -17 -32
q-90 -49 -271 -49q-169 0 -266 74.5t-97 209.5zM162 612v34q0 32 32 32h306q32 0 32 -32v-34q0 -33 -32 -33h-306q-32 0 -32 33zM224 340q0 -24 42.5 -37t90.5 -13q41 0 65 16t24 45q0 65 -99 65q-48 0 -85.5 -21.5t-37.5 -54.5z" />
    <glyph glyph-name="Edotaccent" unicode="&#x116;" horiz-adv-x="817" 
d="M53 674q3 24 31 26q60 4 302 4q233 0 303 -4q27 -1 30 -29q8 -96 8 -192v-2q0 -19 -9 -21.5t-13 -2.5q-12 0 -23 13q-82 83 -264 83q-71 0 -112 -17.5t-41 -51.5v-6q0 -54 130 -54q98 0 194 8h3q11 0 20 -7.5t9 -20.5v-87q0 -16 -7.5 -19t-11.5 -3q-8 0 -17 6
q-67 31 -169 31h-12q-140 -2 -140 -69v-16q0 -46 53 -67.5t140 -21.5q109 0 167 28t103 97q9 15 24 15q2 0 13 -1.5t13 -22.5q9 -68 18 -244v-3q0 -9 -6.5 -15.5t-18.5 -7.5q-81 -4 -386 -4q-256 0 -327 4q-31 2 -31 30q4 397 27 644zM304 808q0 33 22.5 52.5t58.5 19.5
q37 0 59.5 -19.5t22.5 -52.5t-22 -52q-23 -19 -60 -19t-59 19t-22 52z" />
    <glyph glyph-name="edotaccent" unicode="&#x117;" horiz-adv-x="683" 
d="M109 479q92 73 243 73q136 0 215 -49t79 -139q0 -70 -70 -114t-165 -44q-98 0 -171 35q-8 5 -14 5t-9 -3.5t-3 -8.5q0 -7 7 -16q21 -35 76 -58.5t113 -23.5q119 0 206 70q9 10 18 10q5 0 14.5 -4.5t10.5 -25.5q7 -76 8 -113q0 -23 -17 -32q-90 -49 -271 -49
q-169 0 -266 74.5t-97 209.5q0 129 93 203zM267 303q42 -13 90 -13q41 0 65 16t24 45q0 65 -99 65q-48 0 -85.5 -21.5t-37.5 -54.5q0 -24 43 -37zM289 704q22 19 58 19q37 0 59.5 -19.5t22.5 -52.5t-22 -52q-23 -19 -60 -19t-59 19t-22 52t23 53z" />
    <glyph glyph-name="Eogonek" unicode="&#x118;" horiz-adv-x="817" 
d="M26 30q4 397 27 644q3 24 31 26q60 4 302 4q233 0 303 -4q27 -1 30 -29q8 -96 8 -192v-2q0 -19 -9 -21.5t-13 -2.5q-12 0 -23 13q-82 83 -264 83q-71 0 -112 -17.5t-41 -51.5v-6q0 -54 130 -54q98 0 194 8h3q11 0 20 -7.5t9 -20.5v-87q0 -16 -7.5 -19t-11.5 -3
q-8 0 -17 6q-67 31 -169 31h-12q-140 -2 -140 -69v-16q0 -46 53 -67.5t140 -21.5q109 0 167 28t103 97q9 15 24 15q2 0 13 -1.5t13 -22.5q9 -68 18 -244v-2q0 -10 -9 -18l-8 -8q-59 -43 -59 -94q0 -23 15.5 -36t41.5 -13q12 0 30 6q8 3 15 3q15 0 20 -18l4 -11q2 -7 2 -12
q0 -16 -13 -21q-42 -17 -95 -17q-57 0 -95 26.5t-38 79.5q0 55 51 106q-91 -1 -273 -1q-256 0 -327 4q-31 2 -31 30z" />
    <glyph glyph-name="eogonek" unicode="&#x119;" horiz-adv-x="683" 
d="M16 276q0 129 92.5 202.5t243.5 73.5q136 0 215 -49t79 -139q0 -70 -70 -114t-165 -44q-98 0 -171 35q-8 5 -14 5t-9 -3.5t-3 -8.5q0 -7 7 -16q21 -35 76 -58.5t113 -23.5q119 0 206 70q9 10 18 10q5 0 14.5 -4.5t10.5 -25.5q7 -76 8 -113q0 -22 -16 -31l-3 -3
q-59 -43 -59 -94q0 -23 15.5 -36t41.5 -13q12 0 30 6q8 3 15 3q15 0 20 -18l4 -11q2 -7 2 -12q0 -16 -13 -21q-42 -17 -95 -17q-57 0 -95 26.5t-38 79.5q0 34 21 67q-56 -7 -118 -7q-169 0 -266 74.5t-97 209.5zM224 340q0 -24 42.5 -37t90.5 -13q41 0 65 16t24 45
q0 65 -99 65q-48 0 -85.5 -21.5t-37.5 -54.5z" />
    <glyph glyph-name="Ecaron" unicode="&#x11a;" horiz-adv-x="817" 
d="M53 674q3 24 31 26q60 4 302 4q233 0 303 -4q27 -1 30 -29q8 -96 8 -192v-2q0 -19 -9 -21.5t-13 -2.5q-12 0 -23 13q-82 83 -264 83q-71 0 -112 -17.5t-41 -51.5v-6q0 -54 130 -54q98 0 194 8h3q11 0 20 -7.5t9 -20.5v-87q0 -16 -7.5 -19t-11.5 -3q-8 0 -17 6
q-67 31 -169 31h-12q-140 -2 -140 -69v-16q0 -46 53 -67.5t140 -21.5q109 0 167 28t103 97q9 15 24 15q2 0 13 -1.5t13 -22.5q9 -68 18 -244v-3q0 -9 -6.5 -15.5t-18.5 -7.5q-81 -4 -386 -4q-256 0 -327 4q-31 2 -31 30q4 397 27 644zM199 864q5 12 25 12h67q23 0 39 -17
l34 -39q11 -12 22 -12t22 13l35 39q15 16 39 16h65q20 0 23 -7.5t3 -11.5q0 -9 -10 -20l-74 -88q-16 -17 -39 -17h-129q-23 0 -39 17l-74 88q-10 11 -10 20q0 4 1 7z" />
    <glyph glyph-name="ecaron" unicode="&#x11b;" horiz-adv-x="683" 
d="M109 479q92 73 243 73q136 0 215 -49t79 -139q0 -70 -70 -114t-165 -44q-98 0 -171 35q-8 5 -14 5t-9 -3.5t-3 -8.5q0 -7 7 -16q21 -35 76 -58.5t113 -23.5q119 0 206 70q9 10 18 10q5 0 14.5 -4.5t10.5 -25.5q7 -76 8 -113q0 -23 -17 -32q-90 -49 -271 -49
q-169 0 -266 74.5t-97 209.5q0 129 93 203zM161 708q5 12 25 12h67q23 0 39 -17l34 -39q11 -12 22 -12t22 13l35 39q15 16 39 16h65q20 0 23 -7.5t3 -11.5q0 -9 -10 -20l-74 -88q-16 -17 -39 -17h-129q-23 0 -39 17l-74 88q-10 11 -10 20q0 4 1 7zM224 340q0 -24 42.5 -37
t90.5 -13q41 0 65 16t24 45q0 65 -99 65q-48 0 -85.5 -21.5t-37.5 -54.5z" />
    <glyph glyph-name="Gcircumflex" unicode="&#x11c;" horiz-adv-x="873" 
d="M17 323q0 173 122.5 279t319.5 106q164 0 292 -52q21 -10 21 -36v-5q-4 -32 -24 -155q-2 -17 -10.5 -19t-11.5 -2q-10 0 -19 9q-99 84 -236 84q-90 0 -147.5 -54.5t-57.5 -148.5q0 -83 46.5 -122.5t120.5 -39.5h4q64 0 106.5 33.5t42.5 83.5q0 41 -23 72q-5 8 -5 15
q0 5 4 13t20 9q64 3 220 7q13 0 21 -8t9 -20q18 -187 18 -327v-15q0 -28 -28 -30q-39 -3 -84 -3q-46 0 -98 3q-28 4 -28 26v4q6 34 7 59v4q0 10 -3 14t-8 4q-2 0 -7 -2t-11 -13q-72 -104 -232 -104q-149 0 -245 84.5t-96 246.5zM280 771l74 87q16 18 39 18h129q23 0 39 -17
l74 -88q10 -11 10 -20q0 -4 -3 -11.5t-23 -7.5h-65q-24 0 -39 16l-35 39q-11 13 -22 13t-22 -12l-34 -39q-16 -17 -39 -17h-67q-20 0 -23 7.5t-3 10.5q0 9 10 21z" />
    <glyph glyph-name="gcircumflex" unicode="&#x11d;" horiz-adv-x="782" 
d="M93 478q72 74 189 74q69 0 125 -29.5t88 -84.5q7 -11 14 -11q1 0 5 1t4 14v3q-2 23 -10 68v4q0 9 7 17t19 10q32 4 90 4q46 0 88 -4q24 -4 27 -29q21 -153 21 -468q0 -285 -395 -285q-208 0 -316 28q-24 8 -24 31v3q3 49 9 140q1 16 10.5 21t14.5 5q8 0 15 -5
q98 -53 224 -53q92 0 159.5 43.5t67.5 107.5v18q0 11 -4 14.5t-8 3.5q-2 0 -7 -2t-11 -12q-62 -103 -212 -103q-117 0 -189.5 73t-72.5 200q0 129 72 203zM254 274q0 -57 37 -91t96 -34q57 0 94 34t37 91q0 55 -36.5 87.5t-94.5 33.5q-59 0 -96 -33t-37 -88zM214 615l74 87
q16 18 39 18h129q23 0 39 -17l74 -88q10 -11 10 -20q0 -4 -3 -11.5t-23 -7.5h-65q-24 0 -39 16l-35 39q-11 13 -22 13t-22 -12l-34 -39q-16 -17 -39 -17h-67q-20 0 -23 7.5t-3 10.5q0 9 10 21z" />
    <glyph glyph-name="Gbreve" unicode="&#x11e;" horiz-adv-x="873" 
d="M140 602q122 106 319 106q164 0 292 -52q21 -10 21 -36v-5q-4 -32 -24 -155q-2 -17 -10.5 -19t-11.5 -2q-10 0 -19 9q-99 84 -236 84q-90 0 -147.5 -54.5t-57.5 -148.5q0 -83 46.5 -122.5t120.5 -39.5h4q64 0 106.5 33.5t42.5 83.5q0 41 -23 72q-5 8 -5 15q0 5 4 13t20 9
q64 3 220 7q13 0 21 -8t9 -20q18 -187 18 -327v-15q0 -28 -28 -30q-39 -3 -84 -3q-46 0 -98 3q-28 4 -28 26v4q6 34 7 59v4q0 10 -3 14t-8 4q-2 0 -7 -2t-11 -13q-72 -104 -232 -104q-149 0 -245 84.5t-96 246.5q0 173 123 279zM320 842l27 10q6 3 11 3q14 0 30 -16
q24 -28 68 -28q45 0 69 28q16 16 30 16q5 0 11 -3l27 -10q24 -10 24 -23q0 -6 -5 -12q-50 -78 -156 -78q-98 0 -150 70q-8 10 -8 19q0 14 22 24z" />
    <glyph glyph-name="gbreve" unicode="&#x11f;" horiz-adv-x="782" 
d="M21 275q0 129 72 203t189 74q69 0 125 -29.5t88 -84.5q7 -11 14 -11q1 0 5 1t4 14v3q-2 23 -10 68v4q0 9 7 17t19 10q32 4 90 4q46 0 88 -4q24 -4 27 -29q21 -153 21 -468q0 -285 -395 -285q-208 0 -316 28q-24 8 -24 31v3q3 49 9 140q1 16 10.5 21t14.5 5q8 0 15 -5
q98 -53 224 -53q92 0 159.5 43.5t67.5 107.5v18q0 11 -4 14.5t-8 3.5q-2 0 -7 -2t-11 -12q-62 -103 -212 -103q-117 0 -189.5 73t-72.5 200zM291 183q37 -34 96 -34q57 0 94 34t37 91q0 55 -36.5 87.5t-94.5 33.5q-59 0 -96 -33t-37 -88q0 -57 37 -91zM254 686l27 10
q6 3 11 3q14 0 30 -16q24 -28 68 -28q45 0 69 28q16 16 30 16q5 0 11 -3l27 -10q24 -10 24 -23q0 -6 -5 -12q-50 -78 -156 -78q-98 0 -150 70q-8 10 -8 19q0 14 22 24z" />
    <glyph glyph-name="Gdotaccent" unicode="&#x120;" horiz-adv-x="873" 
d="M140 602q122 106 319 106q164 0 292 -52q21 -10 21 -36v-5q-4 -32 -24 -155q-2 -17 -10.5 -19t-11.5 -2q-10 0 -19 9q-99 84 -236 84q-90 0 -147.5 -54.5t-57.5 -148.5q0 -83 46.5 -122.5t120.5 -39.5h4q64 0 106.5 33.5t42.5 83.5q0 41 -23 72q-5 8 -5 15q0 5 4 13t20 9
q64 3 220 7q13 0 21 -8t9 -20q18 -187 18 -327v-15q0 -28 -28 -30q-39 -3 -84 -3q-46 0 -98 3q-28 4 -28 26v4q6 34 7 59v4q0 10 -3 14t-8 4q-2 0 -7 -2t-11 -13q-72 -104 -232 -104q-149 0 -245 84.5t-96 246.5q0 173 123 279zM377 807q0 33 22.5 52.5t58.5 19.5
q37 0 59.5 -19.5t22.5 -52.5t-22 -52q-23 -19 -60 -19t-59 19t-22 52z" />
    <glyph glyph-name="gdotaccent" unicode="&#x121;" horiz-adv-x="782" 
d="M93 478q72 74 189 74q69 0 125 -29.5t88 -84.5q7 -11 14 -11q1 0 5 1t4 14v3q-2 23 -10 68v4q0 9 7 17t19 10q32 4 90 4q46 0 88 -4q24 -4 27 -29q21 -153 21 -468q0 -285 -395 -285q-208 0 -316 28q-24 8 -24 31v3q3 49 9 140q1 16 10.5 21t14.5 5q8 0 15 -5
q98 -53 224 -53q92 0 159.5 43.5t67.5 107.5v18q0 11 -4 14.5t-8 3.5q-2 0 -7 -2t-11 -12q-62 -103 -212 -103q-117 0 -189.5 73t-72.5 200q0 129 72 203zM291 183q37 -34 96 -34q57 0 94 34t37 91q0 55 -36.5 87.5t-94.5 33.5q-59 0 -96 -33t-37 -88q0 -57 37 -91zM310 651
q0 33 22.5 52.5t58.5 19.5q37 0 59.5 -19.5t22.5 -52.5t-22 -52q-23 -19 -60 -19t-59 19t-22 52z" />
    <glyph glyph-name="uni0122" unicode="&#x122;" horiz-adv-x="873" 
d="M140 602q122 106 319 106q164 0 292 -52q21 -10 21 -36v-5q-4 -32 -24 -155q-2 -17 -10.5 -19t-11.5 -2q-10 0 -19 9q-99 84 -236 84q-90 0 -147.5 -54.5t-57.5 -148.5q0 -83 46.5 -122.5t120.5 -39.5h4q64 0 106.5 33.5t42.5 83.5q0 41 -23 72q-5 8 -5 15q0 5 4 13t20 9
q64 3 220 7q13 0 21 -8t9 -20q18 -187 18 -327v-15q0 -28 -28 -30q-39 -3 -84 -3q-46 0 -98 3q-28 4 -28 26v4q6 34 7 59v4q0 10 -3 14t-8 4q-2 0 -7 -2t-11 -13q-72 -104 -232 -104q-149 0 -245 84.5t-96 246.5q0 173 123 279zM294 -45q27 23 71 23t71 -28t27 -76
q-1 -54 -25.5 -98.5t-61.5 -68.5q-7 -4 -13 -4q-10 0 -19 10l-18 23q-7 7 -7 14q0 9 12 17q13 9 22 22q3 4 3 7q0 2 -1 4.5t-6 2.5h-2h-5q-30 0 -52.5 23.5t-22.5 63.5q0 42 27 65z" />
    <glyph glyph-name="uni0123" unicode="&#x123;" horiz-adv-x="782" 
d="M93 478q72 74 189 74q69 0 125 -29.5t88 -84.5q7 -11 14 -11q1 0 5 1t4 14v3q-2 23 -10 68v4q0 9 7 17t19 10q32 4 90 4q46 0 88 -4q24 -4 27 -29q21 -153 21 -468q0 -285 -395 -285q-208 0 -316 28q-24 8 -24 31v3q3 49 9 140q1 16 10.5 21t14.5 5q8 0 15 -5
q98 -53 224 -53q92 0 159.5 43.5t67.5 107.5v18q0 11 -4 14.5t-8 3.5q-2 0 -7 -2t-11 -12q-62 -103 -212 -103q-117 0 -189.5 73t-72.5 200q0 129 72 203zM291 183q37 -34 96 -34q57 0 94 34t37 91q0 55 -36.5 87.5t-94.5 33.5q-59 0 -96 -33t-37 -88q0 -57 37 -91zM293 675
q1 55 26 99.5t62 67.5q7 5 14 5q9 0 17 -11l19 -22q6 -8 6 -15q0 -9 -11 -17q-13 -8 -23 -22q-3 -4 -3 -7q0 -1 1 -3.5t6 -2.5h3h5q29 0 52 -23.5t23 -63.5q0 -42 -27 -65.5t-71 -23.5t-71.5 28.5t-27.5 75.5z" />
    <glyph glyph-name="Hbar" unicode="&#x126;" horiz-adv-x="844" 
d="M-13 574q0 21 21 21h17q19 0 21 20q4 45 5 57q3 25 30 28q28 4 78 4q71 0 100 -4q14 -2 21 -10.5t7 -18.5v-5q-4 -32 -5 -49v-5q0 -17 20 -17h238q20 0 20 17v5q-2 34 -4 50v3q0 11 7.5 20t21.5 11q39 4 100 4q42 0 78 -4q27 -5 29 -28l6 -58q2 -20 21 -20h17
q21 0 21 -21v-31q0 -22 -21 -22h-11q-19 0 -19 -18v-3q12 -210 12 -469q0 -12 -9 -20.5t-21 -10.5q-40 -4 -99 -4q-74 0 -111 4q-13 1 -20.5 9t-7.5 20v5q18 131 18 175q0 69 -103 69h-91q-99 0 -99 -69q0 -42 18 -175q1 -4 1 -7q0 -10 -8 -18t-21 -9q-37 -4 -111 -4
q-58 0 -98 4q-12 2 -21 10.5t-9 20.5q0 259 12 469v3q0 18 -19 18h-12q-20 0 -20 22v31zM274 500v-21q0 -32 24.5 -42.5t76.5 -12.5h90q52 2 78 12.5t26 42.5v22q0 20 -21 20h-253q-21 0 -21 -21z" />
    <glyph glyph-name="hbar" unicode="&#x127;" horiz-adv-x="790" 
d="M-25 601q0 21 21 21h27q21 0 23 21l3 44q1 24 26 29q32 4 91 4q62 0 101 -4q13 -2 20 -9.5t7 -16.5v-5l-6 -40v-5q0 -18 21 -18h81q22 0 22 -21v-18q0 -21 -19 -21h-3l-92 1q-20 0 -23 -21q-6 -69 -7 -102v-4q0 -13 4 -15t6 -2q6 0 13 11q72 122 210 122
q111 0 179.5 -73.5t78.5 -195.5q9 -115 9 -229v-23q0 -27 -27 -31q-45 -3 -91 -3q-54 0 -102 3q-13 2 -20.5 10.5t-7.5 18.5v3q11 125 11 185v10q-2 65 -38.5 106t-96.5 41q-58 0 -95 -42t-37 -107q0 -87 11 -194v-3q0 -10 -7 -18.5t-19 -9.5q-50 -4 -96 -4q-44 0 -102 4
q-11 1 -18.5 9t-7.5 19v3q0 250 14 509q0 23 -22 23h-21q-21 0 -21 21v17z" />
    <glyph glyph-name="Imacron" unicode="&#x12a;" horiz-adv-x="314" 
d="M47 672q3 23 29 28q32 4 83 4q50 0 79 -4q26 -5 28 -28q23 -312 23 -641q0 -13 -9 -21.5t-21 -9.5q-36 -4 -101 -4q-66 0 -103 4q-29 4 -29 31q0 328 21 641zM4 834h306q32 0 32 -32v-34q0 -33 -32 -33h-306q-32 0 -32 33v34q0 32 32 32z" />
    <glyph glyph-name="imacron" unicode="&#x12b;" horiz-adv-x="304" 
d="M29 31q0 278 18 485q1 25 26 28q31 4 81 4q49 0 77 -4q23 -3 26 -28q17 -213 17 -486q0 -12 -7.5 -20t-18.5 -10q-36 -4 -93 -4q-62 0 -99 4q-11 2 -19 10.5t-8 20.5zM-33 612v34q0 32 32 32h306q32 0 32 -32v-34q0 -33 -32 -33h-306q-32 0 -32 33z" />
    <glyph glyph-name="Iogonek" unicode="&#x12e;" horiz-adv-x="314" 
d="M85 -2q-14 0 -30 2q-29 4 -29 31q0 328 21 641q3 23 29 28q32 4 83 4q50 0 79 -4q26 -5 28 -28q23 -312 23 -641q0 -13 -9 -21.5t-21 -9.5q-21 -3 -55 -3q-1 -1 -2 -2.5t-3 -3t-3 -2.5q-59 -43 -59 -94q0 -23 15.5 -36t41.5 -13q12 0 30 6q8 3 15 3q15 0 20 -18l4 -11
q2 -7 2 -12q0 -16 -13 -21q-42 -17 -95 -17q-57 0 -95 26.5t-38 79.5q0 61 61 116z" />
    <glyph glyph-name="iogonek" unicode="&#x12f;" horiz-adv-x="304" 
d="M47 516q1 25 26 28q31 4 81 4q49 0 77 -4q23 -3 26 -28q17 -213 17 -486v-3l2 -1q15 -8 15 -17t-14 -20q-59 -43 -59 -94q0 -23 15.5 -36t41.5 -13q12 0 30 6q8 3 15 3q15 0 20 -18l4 -11q2 -7 2 -12q0 -16 -13 -21q-42 -17 -95 -17q-57 0 -95 26.5t-38 79.5q0 60 59 114
h-9q-62 0 -99 4q-11 2 -19 10.5t-8 20.5q0 278 18 485zM71 651q0 33 22.5 52.5t58.5 19.5q37 0 59.5 -19.5t22.5 -52.5t-22 -52q-23 -19 -60 -19t-59 19t-22 52z" />
    <glyph glyph-name="Idotaccent" unicode="&#x130;" horiz-adv-x="314" 
d="M26 31q0 328 21 641q3 23 29 28q32 4 83 4q50 0 79 -4q26 -5 28 -28q23 -312 23 -641q0 -13 -9 -21.5t-21 -9.5q-36 -4 -101 -4q-66 0 -103 4q-29 4 -29 31zM76 807q0 33 22.5 52.5t58.5 19.5q37 0 59.5 -19.5t22.5 -52.5t-22 -52q-23 -19 -60 -19t-59 19t-22 52z" />
    <glyph glyph-name="dotlessi" unicode="&#x131;" horiz-adv-x="304" 
d="M29 31q0 278 18 485q1 25 26 28q31 4 81 4q49 0 77 -4q23 -3 26 -28q17 -213 17 -486q0 -12 -7.5 -20t-18.5 -10q-36 -4 -93 -4q-62 0 -99 4q-11 2 -19 10.5t-8 20.5z" />
    <glyph glyph-name="uni0136" unicode="&#x136;" horiz-adv-x="868" 
d="M51 672q1 23 28 28q26 4 90 4q61 0 97 -4q28 -5 28 -26v-5q-15 -92 -15 -138q0 -27 16.5 -44t39.5 -17q78 0 134 62t72 144q5 23 28 26q47 3 102 3q53 0 100 -3q14 -1 21 -10.5t7 -20.5v-5q-9 -103 -81 -170.5t-214 -89.5q-11 -2 -14.5 -6t-3.5 -7t3.5 -7.5t14.5 -6.5
q163 -20 247.5 -103.5t98.5 -240.5v-3q0 -11 -7.5 -20.5t-21.5 -11.5q-30 -4 -104 -4q-89 0 -132 4q-28 3 -30 30q-9 105 -77.5 188t-151.5 83q-20 0 -34 -19t-14 -47q0 -31 3 -63.5t10 -80.5t9 -60v-2q0 -11 -8 -19.5t-21 -9.5q-36 -4 -109 -4q-66 0 -107 4q-29 4 -29 31
q2 349 25 641zM335 -110q0 42 27 65t71 23t71 -28t27 -76q-1 -54 -25.5 -98.5t-61.5 -68.5q-7 -4 -13 -4q-10 0 -19 10l-18 23q-7 7 -7 14q0 9 12 17q13 9 22 22q3 4 3 7q0 2 -1 4.5t-6 2.5h-2h-5q-30 0 -52.5 23.5t-22.5 63.5z" />
    <glyph glyph-name="uni0137" unicode="&#x137;" horiz-adv-x="787" 
d="M49 687q3 24 28 29q31 4 86 4q71 0 104 -4q12 -2 19.5 -11t7.5 -19v-3q-28 -173 -28 -273q0 -24 12 -39.5t29 -15.5q62 0 114.5 52t57.5 112q3 22 26 25q37 4 101 4q62 0 90 -4q27 -5 27 -25v-4q-20 -183 -271 -209q-10 -1 -13 -4.5t-3 -5.5t3 -5.5t13 -4.5
q151 -13 226.5 -76t90.5 -183v-4q0 -20 -27 -23q-39 -4 -94 -4q-90 0 -122 4q-25 3 -27 25q-7 80 -69 142t-128 62q-15 0 -25 -12t-11 -31v-19q0 -57 10 -136v-5q0 -9 -7 -17t-19 -10q-38 -3 -93 -3q-67 0 -104 4q-27 4 -27 31q2 447 23 656zM323 -45q27 23 71 23t71 -28
t27 -76q-1 -54 -25.5 -98.5t-61.5 -68.5q-7 -4 -13 -4q-10 0 -19 10l-18 23q-7 7 -7 14q0 9 12 17q13 9 22 22q3 4 3 7q0 2 -1 4.5t-6 2.5h-2h-5q-30 0 -52.5 23.5t-22.5 63.5q0 42 27 65z" />
    <glyph glyph-name="Lacute" unicode="&#x139;" horiz-adv-x="809" 
d="M26 30q4 397 27 644q3 22 31 26q42 4 120 4q53 0 93 -4q15 -2 22 -10.5t7 -16.5q0 -4 -1 -8q-44 -173 -53 -254q-7 -60 -7 -123q0 -118 192 -118q107 0 164.5 28t101.5 98q10 16 25 16q2 0 12.5 -1.5t12.5 -23.5q9 -74 18 -261q0 -24 -26 -26q-80 -4 -381 -4
q-256 0 -327 4q-31 2 -31 30zM154 788l53 85q12 22 40 22h93q23 0 26 -8.5t3 -11.5q0 -10 -13 -21l-99 -90q-17 -16 -41 -16h-41q-20 0 -24.5 8t-4.5 13q0 9 8 19z" />
    <glyph glyph-name="lacute" unicode="&#x13a;" horiz-adv-x="319" 
d="M26 31q0 392 23 656q3 24 28 29q31 4 87 4q70 0 103 -4q12 -2 19.5 -11t7.5 -19v-3q-18 -128 -21 -254t-3 -181q0 -121 7 -217v-3q0 -10 -7.5 -18t-19.5 -10q-33 -4 -93 -4q-67 0 -104 4q-27 4 -27 31zM121 806l53 85q12 22 40 22h93q23 0 26 -8.5t3 -11.5q0 -10 -13 -21
l-99 -90q-17 -16 -41 -16h-41q-20 0 -24.5 8t-4.5 13q0 9 8 19z" />
    <glyph glyph-name="uni013B" unicode="&#x13b;" horiz-adv-x="809" 
d="M53 674q3 22 31 26q42 4 120 4q53 0 93 -4q15 -2 22 -10.5t7 -16.5q0 -4 -1 -8q-44 -173 -53 -254q-7 -60 -7 -123q0 -118 192 -118q107 0 164.5 28t101.5 98q10 16 25 16q2 0 12.5 -1.5t12.5 -23.5q9 -74 18 -261q0 -24 -26 -26q-80 -4 -381 -4q-256 0 -327 4
q-31 2 -31 30q4 397 27 644zM334 -45q27 23 71 23t71 -28t27 -76q-1 -54 -25.5 -98.5t-61.5 -68.5q-7 -4 -13 -4q-10 0 -19 10l-18 23q-7 7 -7 14q0 9 12 17q13 9 22 22q3 4 3 7q0 2 -1 4.5t-6 2.5h-2h-5q-30 0 -52.5 23.5t-22.5 63.5q0 42 27 65z" />
    <glyph glyph-name="uni013C" unicode="&#x13c;" horiz-adv-x="319" 
d="M49 687q3 24 28 29q31 4 87 4q70 0 103 -4q12 -2 19.5 -11t7.5 -19v-3q-18 -128 -21 -254t-3 -181q0 -121 7 -217v-3q0 -10 -7.5 -18t-19.5 -10q-33 -4 -93 -4q-67 0 -104 4q-27 4 -27 31q0 392 23 656zM62 -110q0 42 27 65t71 23t71 -28t27 -76q-1 -54 -25.5 -98.5
t-61.5 -68.5q-7 -4 -13 -4q-10 0 -19 10l-18 23q-7 7 -7 14q0 9 12 17q13 9 22 22q3 4 3 7q0 2 -1 4.5t-6 2.5h-2h-5q-30 0 -52.5 23.5t-22.5 63.5z" />
    <glyph glyph-name="Lcaron" unicode="&#x13d;" horiz-adv-x="809" 
d="M53 674q3 22 31 26q42 4 120 4q53 0 93 -4q15 -2 22 -10.5t7 -16.5q0 -4 -1 -8q-44 -173 -53 -254q-7 -60 -7 -123q0 -118 192 -118q107 0 164.5 28t101.5 98q10 16 25 16q2 0 12.5 -1.5t12.5 -23.5q9 -74 18 -261q0 -24 -26 -26q-80 -4 -381 -4q-256 0 -327 4
q-31 2 -31 30q4 397 27 644zM6 864q5 12 25 12h67q23 0 39 -17l34 -39q11 -12 22 -12t22 13l35 39q15 16 39 16h65q20 0 23 -7.5t3 -11.5q0 -9 -10 -20l-74 -88q-16 -17 -39 -17h-129q-23 0 -39 17l-74 88q-10 11 -10 20q0 4 1 7z" />
    <glyph glyph-name="lcaron" unicode="&#x13e;" horiz-adv-x="489" 
d="M26 31q0 392 23 656q3 24 28 29q31 4 87 4q70 0 103 -4q12 -2 19.5 -11t7.5 -19v-3q-18 -128 -21 -254t-3 -181q0 -121 7 -217v-3q0 -10 -7.5 -18t-19.5 -10q-33 -4 -93 -4q-67 0 -104 4q-27 4 -27 31zM292 775q0 41 27 64t71 23q43 0 70 -27.5t27 -74.5
q-1 -54 -25.5 -98t-61.5 -68q-6 -4 -12 -4q-10 0 -19 10l-18 23q-6 7 -6 14q0 9 11 17q11 7 22 22q3 4 3 7q0 1 -1 3.5t-6 2.5h-2h-5q-29 0 -52 23t-23 63z" />
    <glyph glyph-name="Lslash" unicode="&#x141;" horiz-adv-x="816" 
d="M-20 364q0 19 18 25l28 10q18 5 18 24q9 173 16 251q3 22 31 26q43 4 121 4q52 0 92 -4q15 -2 22 -10.5t7 -16.5q0 -4 -1 -8q-29 -118 -36 -160q-1 -4 -1 -7q0 -8 4 -11.5t10 -3.5q4 0 9 2l140 37q6 2 10 2q15 0 15 -20v-46q0 -19 -18 -25l-172 -47q-18 -6 -19 -24
q-1 -32 -1 -54v-20q0 -118 192 -118q107 0 164 28t101 98q10 16 25 16q2 0 12.5 -1.5t12.5 -23.5q9 -74 18 -261v-3q0 -21 -26 -23q-80 -4 -381 -4q-257 0 -326 4q-32 2 -32 30q2 123 6 255q0 20 -15 20q-4 0 -10 -2l-9 -3q-4 -2 -8 -2q-5 0 -11 4.5t-6 15.5v46z" />
    <glyph glyph-name="lslash" unicode="&#x142;" horiz-adv-x="319" 
d="M-21 319q0 16 15 22l22 9q15 6 16 22q6 196 17 315q3 24 28 29q31 4 87 4q70 0 103 -4q12 -2 19.5 -11t7.5 -19v-3q-12 -90 -18 -213v-3q0 -9 4.5 -11.5t8.5 -2.5t9 2l22 9q6 2 10 2q13 0 13 -17v-53q0 -16 -16 -22l-41 -17q-15 -6 -15 -22q-1 -43 -1 -83q0 -121 7 -221
v-3q0 -10 -7.5 -18t-19.5 -10q-33 -4 -93 -4q-67 0 -104 4q-27 4 -27 31q0 65 2 207q0 17 -12 17q-4 0 -10 -2l-5 -2q-5 -2 -9 -2t-8.5 3.5t-4.5 13.5v53z" />
    <glyph glyph-name="Nacute" unicode="&#x143;" horiz-adv-x="849" 
d="M55 672q1 23 28 28q21 4 75 4q34 0 71 -4q42 -4 76 -42q132 -192 188 -252q50 -54 74 -54q31 0 31 78t-31 233q-1 4 -1 7q0 10 7.5 19t22.5 11q37 4 88 4q47 0 84 -4q26 -5 29 -29q25 -239 26 -514q0 -165 -123 -165q-50 0 -100.5 35t-90.5 85t-76.5 100.5t-69.5 85.5
t-57 35q-35 0 -37 -82q0 -49 18 -217v-3q0 -12 -8 -21t-22 -11q-29 -3 -104 -3q-65 0 -97 4q-30 4 -30 31q2 388 29 641zM386 788l53 85q12 22 40 22h93q23 0 26 -8.5t3 -11.5q0 -10 -13 -21l-99 -90q-17 -16 -41 -16h-41q-20 0 -24.5 8t-4.5 13q0 9 8 19z" />
    <glyph glyph-name="nacute" unicode="&#x144;" horiz-adv-x="790" 
d="M48 514q3 27 27 30q31 4 91 4q54 0 94 -4q12 -2 18 -10t6 -15q0 -4 -1 -8q-15 -48 -15 -75v-3q0 -13 4 -14t5 -1q7 0 14 12q72 122 210 122q111 0 179 -73.5t79 -195.5q9 -112 9 -253q-1 -27 -28 -30q-40 -4 -92 -4q-56 0 -100 4q-13 2 -20.5 10t-7.5 19v3q11 119 11 193
q-2 66 -38.5 107.5t-96.5 41.5q-58 0 -95 -42.5t-37 -105.5v-3q0 -99 11 -192v-3q0 -10 -7.5 -18t-19.5 -10q-33 -4 -96 -4q-64 0 -101 4q-27 4 -27 31q1 294 24 483zM356 632l53 85q12 22 40 22h93q23 0 26 -8.5t3 -11.5q0 -10 -13 -21l-99 -90q-17 -16 -41 -16h-41
q-20 0 -24.5 8t-4.5 13q0 9 8 19z" />
    <glyph glyph-name="uni0145" unicode="&#x145;" horiz-adv-x="849" 
d="M26 31q2 388 29 641q1 23 28 28q21 4 75 4q34 0 71 -4q42 -4 76 -42q132 -192 188 -252q50 -54 74 -54q31 0 31 78t-31 233q-1 4 -1 7q0 10 7.5 19t22.5 11q37 4 88 4q47 0 84 -4q26 -5 29 -29q25 -239 26 -514q0 -165 -123 -165q-50 0 -100.5 35t-90.5 85t-76.5 100.5
t-69.5 85.5t-57 35q-35 0 -37 -82q0 -49 18 -217v-3q0 -12 -8 -21t-22 -11q-29 -3 -104 -3q-65 0 -97 4q-30 4 -30 31zM327 -110q0 42 27 65t71 23t71 -28t27 -76q-1 -54 -25.5 -98.5t-61.5 -68.5q-7 -4 -13 -4q-10 0 -19 10l-18 23q-7 7 -7 14q0 9 12 17q13 9 22 22
q3 4 3 7q0 2 -1 4.5t-6 2.5h-2h-5q-30 0 -52.5 23.5t-22.5 63.5z" />
    <glyph glyph-name="uni0146" unicode="&#x146;" horiz-adv-x="790" 
d="M48 514q3 27 27 30q31 4 91 4q54 0 94 -4q12 -2 18 -10t6 -15q0 -4 -1 -8q-15 -48 -15 -75v-3q0 -13 4 -14t5 -1q7 0 14 12q72 122 210 122q111 0 179 -73.5t79 -195.5q9 -112 9 -253q-1 -27 -28 -30q-40 -4 -92 -4q-56 0 -100 4q-13 2 -20.5 10t-7.5 19v3q11 119 11 193
q-2 66 -38.5 107.5t-96.5 41.5q-58 0 -95 -42.5t-37 -105.5v-3q0 -99 11 -192v-3q0 -10 -7.5 -18t-19.5 -10q-33 -4 -96 -4q-64 0 -101 4q-27 4 -27 31q1 294 24 483zM325 -45q27 23 71 23t71 -28t27 -76q-1 -54 -25.5 -98.5t-61.5 -68.5q-7 -4 -13 -4q-10 0 -19 10l-18 23
q-7 7 -7 14q0 9 12 17q13 9 22 22q3 4 3 7q0 2 -1 4.5t-6 2.5h-2h-5q-30 0 -52.5 23.5t-22.5 63.5q0 42 27 65z" />
    <glyph glyph-name="Ncaron" unicode="&#x147;" horiz-adv-x="849" 
d="M26 31q2 388 29 641q1 23 28 28q21 4 75 4q34 0 71 -4q42 -4 76 -42q132 -192 188 -252q50 -54 74 -54q31 0 31 78t-31 233q-1 4 -1 7q0 10 7.5 19t22.5 11q37 4 88 4q47 0 84 -4q26 -5 29 -29q25 -239 26 -514q0 -165 -123 -165q-50 0 -100.5 35t-90.5 85t-76.5 100.5
t-69.5 85.5t-57 35q-35 0 -37 -82q0 -49 18 -217v-3q0 -12 -8 -21t-22 -11q-29 -3 -104 -3q-65 0 -97 4q-30 4 -30 31zM238 864q5 12 25 12h67q23 0 39 -17l34 -39q11 -12 22 -12t22 13l35 39q15 16 39 16h65q20 0 23 -7.5t3 -11.5q0 -9 -10 -20l-74 -88q-16 -17 -39 -17
h-129q-23 0 -39 17l-74 88q-10 11 -10 20q0 4 1 7z" />
    <glyph glyph-name="ncaron" unicode="&#x148;" horiz-adv-x="790" 
d="M48 514q3 27 27 30q31 4 91 4q54 0 94 -4q12 -2 18 -10t6 -15q0 -4 -1 -8q-15 -48 -15 -75v-3q0 -13 4 -14t5 -1q7 0 14 12q72 122 210 122q111 0 179 -73.5t79 -195.5q9 -112 9 -253q-1 -27 -28 -30q-40 -4 -92 -4q-56 0 -100 4q-13 2 -20.5 10t-7.5 19v3q11 119 11 193
q-2 66 -38.5 107.5t-96.5 41.5q-58 0 -95 -42.5t-37 -105.5v-3q0 -99 11 -192v-3q0 -10 -7.5 -18t-19.5 -10q-33 -4 -96 -4q-64 0 -101 4q-27 4 -27 31q1 294 24 483zM209 708q5 12 25 12h67q23 0 39 -17l34 -39q11 -12 22 -12t22 13l35 39q15 16 39 16h65q20 0 23 -7.5
t3 -11.5q0 -9 -10 -20l-74 -88q-16 -17 -39 -17h-129q-23 0 -39 17l-74 88q-10 11 -10 20q0 4 1 7z" />
    <glyph glyph-name="Eng" unicode="&#x14a;" horiz-adv-x="849" 
d="M55 672q1 23 28 28q21 4 75 4q34 0 71 -4q46 -4 84 -37q28 -28 90 -101t106.5 -118.5t63.5 -45.5q12 0 15.5 21.5t3.5 41.5q0 16 -2.5 46.5t-8.5 73.5t-14 82q-1 4 -1 7q0 10 7.5 19t22.5 11q37 4 88 4q47 0 84 -4q26 -5 29 -29q27 -257 29 -659q-1 -120 -73.5 -185
t-183.5 -65q-80 0 -153 22q-21 7 -21 30q0 88 1 105q0 19 9 23.5t14 4.5q8 0 16 -7q30 -19 69 -19q32 0 55.5 20.5t23.5 62.5v52q0 46 -50 114.5t-113 118t-98 49.5q-51 0 -53 -87q0 -49 18 -217v-3q0 -12 -8 -21t-22 -11q-29 -3 -104 -3q-65 0 -97 4q-30 4 -30 31
q2 388 29 641z" />
    <glyph glyph-name="eng" unicode="&#x14b;" horiz-adv-x="790" 
d="M48 514q3 27 27 30q31 4 91 4q54 0 94 -4q12 -2 18 -10t6 -15q0 -4 -1 -8q-15 -48 -15 -75v-3q0 -13 4 -14t5 -1q7 0 14 12q72 122 210 122q111 0 179.5 -73t78.5 -196q6 -78 6 -187q0 -49 -1 -103q-4 -119 -72.5 -175t-177.5 -56q-80 0 -153 22q-19 8 -21 30q0 71 1 105
q0 20 8.5 24t13.5 4q8 0 17 -7q28 -18 69 -18q30 0 53 20.5t25 53.5q4 83 5 170q-1 29 -1 59q-2 66 -38.5 107.5t-96.5 41.5q-58 0 -95 -42.5t-37 -105.5v-3q0 -99 11 -192v-3q0 -10 -7.5 -18t-19.5 -10q-33 -4 -96 -4q-64 0 -101 4q-27 4 -27 31q1 294 24 483z" />
    <glyph glyph-name="Omacron" unicode="&#x14c;" horiz-adv-x="890" 
d="M17 323q0 174 118.5 279.5t309.5 105.5t309.5 -105.5t118.5 -279.5q0 -171 -114 -251q-115 -80 -314 -80t-313.5 80t-114.5 251zM317 209q48 -41 128 -41q81 0 129 41t48 126q0 86 -50 141.5t-127 55.5t-127 -55.5t-50 -141.5q0 -85 49 -126zM260 768v34q0 32 32 32h306
q32 0 32 -32v-34q0 -33 -32 -33h-306q-32 0 -32 33z" />
    <glyph glyph-name="omacron" unicode="&#x14d;" horiz-adv-x="738" 
d="M115 473q98 79 254 79t254 -79.5t98 -210.5q0 -134 -96 -202t-256 -68t-256.5 68t-96.5 202q0 131 99 211zM235 272q0 -58 38 -92q37 -34 96 -34t96.5 34t37.5 92q0 57 -37 92t-97 35q-59 0 -96.5 -35t-37.5 -92zM184 612v34q0 32 32 32h306q32 0 32 -32v-34
q0 -33 -32 -33h-306q-32 0 -32 33z" />
    <glyph glyph-name="Ohungarumlaut" unicode="&#x150;" horiz-adv-x="890" 
d="M136 603q118 105 309 105t309.5 -105.5t118.5 -279.5q0 -171 -114 -251q-115 -80 -314 -80t-313.5 80t-114.5 251q0 174 119 280zM317 209q48 -41 128 -41q81 0 129 41t48 126q0 86 -50 141.5t-127 55.5t-127 -55.5t-50 -141.5q0 -85 49 -126zM287 786l61 86q14 20 38 20
h73q20 0 23.5 -8t3.5 -11q0 -9 -9 -20l-67 -87q-15 -18 -39 -18h-65q-20 0 -23.5 7t-3.5 11q0 9 8 20zM489 786l61 86q14 20 38 20h73q20 0 23.5 -8t3.5 -11q0 -9 -9 -20l-67 -87q-15 -18 -39 -18h-65q-20 0 -23.5 7t-3.5 11q0 9 8 20z" />
    <glyph glyph-name="ohungarumlaut" unicode="&#x151;" horiz-adv-x="738" 
d="M115 473q98 79 254 79t254 -79.5t98 -210.5q0 -134 -96 -202t-256 -68t-256.5 68t-96.5 202q0 131 99 211zM235 272q0 -58 38 -92q37 -34 96 -34t96.5 34t37.5 92q0 57 -37 92t-97 35q-59 0 -96.5 -35t-37.5 -92zM211 630l61 86q14 20 38 20h73q20 0 23.5 -8t3.5 -11
q0 -9 -9 -20l-67 -87q-15 -18 -39 -18h-65q-20 0 -23.5 7t-3.5 11q0 9 8 20zM413 630l61 86q14 20 38 20h73q20 0 23.5 -8t3.5 -11q0 -9 -9 -20l-67 -87q-15 -18 -39 -18h-65q-20 0 -23.5 7t-3.5 11q0 9 8 20z" />
    <glyph glyph-name="OE" unicode="&#x152;" horiz-adv-x="1452" 
d="M124 603q106 105 277 105q97 0 177 -37.5t128 -104.5q11 -20 19 -20q1 0 5.5 1t5.5 26q4 67 7 101q3 24 31 26q60 4 247 4q233 0 304 -4q27 -2 29 -29q7 -79 9 -192q0 -21 -9.5 -23.5t-12.5 -2.5q-12 0 -24 13q-82 83 -264 83q-71 0 -112 -17.5t-41 -51.5v-6
q0 -54 130 -54q98 0 194 8h3q11 0 20 -7.5t9 -20.5v-87q0 -16 -7.5 -19t-11.5 -3q-8 0 -17 6q-66 31 -168 31h-13q-140 -2 -140 -69v-16q0 -46 53 -67.5t140 -21.5q109 0 167 28t103 97q9 15 24 15q3 0 13.5 -1.5t13.5 -22.5q8 -70 17 -244v-3q0 -21 -25 -23q-81 -4 -386 -4
q-200 0 -271 4q-31 2 -31 30v47v5q0 21 -5.5 23.5t-6.5 2.5q-9 0 -21 -17q-99 -99 -283 -99q-178 0 -281 80t-103 251q0 174 107 280zM312 208q48 -42 128 -42t128.5 41.5t48.5 126.5q0 87 -49.5 143.5t-127.5 56.5q-77 0 -126.5 -56.5t-49.5 -143.5q0 -85 48 -126z" />
    <glyph glyph-name="oe" unicode="&#x153;" horiz-adv-x="1194" 
d="M106 473q89 79 230 79q176 0 262 -115q7 -11 14 -11q8 0 15 12q81 114 259 114q125 0 198.5 -49t73.5 -139q0 -70 -64.5 -114t-152.5 -44q-90 0 -157 35q-8 5 -13 5q-6 0 -9.5 -4t-3.5 -8q0 -7 7 -16q19 -35 70 -58.5t105 -23.5q109 0 190 70q8 10 17 10q4 0 12.5 -4.5
t9.5 -25.5q5 -59 7 -113v-5q0 -19 -14 -27q-84 -49 -251 -49q-197 0 -276 110q-7 12 -15 12q-7 0 -14 -12q-79 -110 -270 -110q-146 0 -233 68t-87 202q0 131 90 211zM235 272q0 -58 38 -92q37 -34 96 -34t96.5 34t37.5 92q0 57 -37 92t-97 35q-59 0 -96.5 -35t-37.5 -92z
M788 303q40 -13 84 -13q39 0 61.5 16t22.5 45q0 65 -93 65q-45 0 -80.5 -21.5t-35.5 -54.5q0 -24 41 -37z" />
    <glyph glyph-name="Racute" unicode="&#x154;" horiz-adv-x="827" 
d="M52 675q2 25 28 27q92 5 350 5q346 0 346 -169q0 -74 -66 -128.5t-179 -67.5q-11 -1 -14.5 -5t-3.5 -7t3.5 -7t14.5 -5q125 -18 196.5 -92.5t78.5 -194.5v-2q0 -11 -8.5 -19t-21.5 -10q-41 -4 -107 -4q-71 0 -114 4q-28 3 -30 29q-3 99 -62.5 172.5t-138.5 78.5h-3
q-20 0 -32.5 -15t-12.5 -41q0 -23 2.5 -51.5t5 -47.5t7.5 -50t7 -42q1 -3 1 -6q0 -8 -8 -16.5t-21 -10.5q-41 -4 -111 -4q-75 0 -104 4q-12 2 -20.5 10t-8.5 20q0 246 26 645zM276 418q3 -34 36 -34q5 0 12 1q214 17 214 91q0 62 -151 62q-50 0 -73 -2q-35 -1 -38 -36
q-1 -20 -1 -40q0 -21 1 -42zM373 788l53 85q12 22 40 22h93q23 0 26 -8.5t3 -11.5q0 -10 -13 -21l-99 -90q-17 -16 -41 -16h-41q-20 0 -24.5 8t-4.5 13q0 9 8 19z" />
    <glyph glyph-name="racute" unicode="&#x155;" horiz-adv-x="634" 
d="M24 31q0 288 18 485q3 25 27 28q32 4 89 4q70 0 97 -4q15 -2 21.5 -10t6.5 -17q0 -3 -1 -7q-15 -60 -15 -102q0 -16 4.5 -17t5.5 -1q8 0 13 13q54 149 193 149q69 0 115 -34q20 -13 20 -38q-2 -59 -11 -152q-1 -19 -12 -22.5t-16 -3.5q-11 0 -19 8q-60 50 -140 50
q-61 0 -107.5 -44t-46.5 -110q0 -78 13 -173v-5q0 -10 -7.5 -18.5t-19.5 -10.5q-25 -3 -104 -3q-42 0 -98 4q-26 4 -26 31zM171 632l53 85q12 22 40 22h93q23 0 26 -8.5t3 -11.5q0 -10 -13 -21l-99 -90q-17 -16 -41 -16h-41q-20 0 -24.5 8t-4.5 13q0 9 8 19z" />
    <glyph glyph-name="uni0156" unicode="&#x156;" horiz-adv-x="827" 
d="M26 30q0 246 26 645q2 25 28 27q92 5 350 5q346 0 346 -169q0 -74 -66 -128.5t-179 -67.5q-11 -1 -14.5 -5t-3.5 -7t3.5 -7t14.5 -5q125 -18 196.5 -92.5t78.5 -194.5v-2q0 -11 -8.5 -19t-21.5 -10q-41 -4 -107 -4q-71 0 -114 4q-28 3 -30 29q-3 99 -62.5 172.5
t-138.5 78.5h-3q-20 0 -32.5 -15t-12.5 -41q0 -23 2.5 -51.5t5 -47.5t7.5 -50t7 -42q1 -3 1 -6q0 -8 -8 -16.5t-21 -10.5q-41 -4 -111 -4q-75 0 -104 4q-12 2 -20.5 10t-8.5 20zM342 -45q27 23 71 23t71 -28t27 -76q-1 -54 -25.5 -98.5t-61.5 -68.5q-7 -4 -13 -4
q-10 0 -19 10l-18 23q-7 7 -7 14q0 9 12 17q13 9 22 22q3 4 3 7q0 2 -1 4.5t-6 2.5h-2h-5q-30 0 -52.5 23.5t-22.5 63.5q0 42 27 65zM276 418q3 -34 36 -34q5 0 12 1q214 17 214 91q0 62 -151 62q-50 0 -73 -2q-35 -1 -38 -36q-1 -20 -1 -40q0 -21 1 -42z" />
    <glyph glyph-name="uni0157" unicode="&#x157;" horiz-adv-x="634" 
d="M42 516q3 25 27 28q32 4 89 4q70 0 97 -4q15 -2 21.5 -10t6.5 -17q0 -3 -1 -7q-15 -60 -15 -102q0 -16 4.5 -17t5.5 -1q8 0 13 13q54 149 193 149q69 0 115 -34q20 -13 20 -38q-2 -59 -11 -152q-1 -19 -12 -22.5t-16 -3.5q-11 0 -19 8q-60 50 -140 50q-61 0 -107.5 -44
t-46.5 -110q0 -78 13 -173v-5q0 -10 -7.5 -18.5t-19.5 -10.5q-25 -3 -104 -3q-42 0 -98 4q-26 4 -26 31q0 288 18 485zM71 -110q0 42 27 65t71 23t71 -28t27 -76q-1 -54 -25.5 -98.5t-61.5 -68.5q-7 -4 -13 -4q-10 0 -19 10l-18 23q-7 7 -7 14q0 9 12 17q13 9 22 22q3 4 3 7
q0 2 -1 4.5t-6 2.5h-2h-5q-30 0 -52.5 23.5t-22.5 63.5z" />
    <glyph glyph-name="Rcaron" unicode="&#x158;" horiz-adv-x="827" 
d="M26 30q0 246 26 645q2 25 28 27q92 5 350 5q346 0 346 -169q0 -74 -66 -128.5t-179 -67.5q-11 -1 -14.5 -5t-3.5 -7t3.5 -7t14.5 -5q125 -18 196.5 -92.5t78.5 -194.5v-2q0 -11 -8.5 -19t-21.5 -10q-41 -4 -107 -4q-71 0 -114 4q-28 3 -30 29q-3 99 -62.5 172.5
t-138.5 78.5h-3q-20 0 -32.5 -15t-12.5 -41q0 -23 2.5 -51.5t5 -47.5t7.5 -50t7 -42q1 -3 1 -6q0 -8 -8 -16.5t-21 -10.5q-41 -4 -111 -4q-75 0 -104 4q-12 2 -20.5 10t-8.5 20zM276 418q3 -34 36 -34q5 0 12 1q214 17 214 91q0 62 -151 62q-50 0 -73 -2q-35 -1 -38 -36
q-1 -20 -1 -40q0 -21 1 -42zM226 864q5 12 25 12h67q23 0 39 -17l34 -39q11 -12 22 -12t22 13l35 39q15 16 39 16h65q20 0 23 -7.5t3 -11.5q0 -9 -10 -20l-74 -88q-16 -17 -39 -17h-129q-23 0 -39 17l-74 88q-10 11 -10 20q0 4 1 7z" />
    <glyph glyph-name="rcaron" unicode="&#x159;" horiz-adv-x="634" 
d="M24 31q0 288 18 485q3 25 27 28q32 4 89 4q70 0 97 -4q15 -2 21.5 -10t6.5 -17q0 -3 -1 -7q-15 -60 -15 -102q0 -16 4.5 -17t5.5 -1q8 0 13 13q54 149 193 149q69 0 115 -34q20 -13 20 -38q-2 -59 -11 -152q-1 -19 -12 -22.5t-16 -3.5q-11 0 -19 8q-60 50 -140 50
q-61 0 -107.5 -44t-46.5 -110q0 -78 13 -173v-5q0 -10 -7.5 -18.5t-19.5 -10.5q-25 -3 -104 -3q-42 0 -98 4q-26 4 -26 31zM23 708q5 12 25 12h67q23 0 39 -17l34 -39q11 -12 22 -12t22 13l35 39q15 16 39 16h65q20 0 23 -7.5t3 -11.5q0 -9 -10 -20l-74 -88q-16 -17 -39 -17
h-129q-23 0 -39 17l-74 88q-10 11 -10 20q0 4 1 7z" />
    <glyph glyph-name="Sacute" unicode="&#x15a;" horiz-adv-x="811" 
d="M22 247q0 21 10.5 25.5t15.5 4.5q10 0 20 -10q117 -104 310 -104q146 0 146 65q0 26 -35.5 44.5t-88 28t-114.5 25t-114.5 35t-88 59.5t-35.5 96q0 98 94 145t261 47q172 0 301 -41q21 -8 21 -29q5 -69 8 -144v-3q0 -19 -10 -24.5t-15 -5.5q-9 0 -18 8q-105 75 -239 77
q-68 0 -113.5 -15t-45.5 -43q0 -26 37 -43t92.5 -26t120.5 -24.5t120.5 -35.5t92.5 -61.5t37 -99.5q-1 -99 -99 -152.5t-278 -53.5q-78 0 -186.5 15t-183.5 36q-21 6 -21 31q-2 112 -2 173zM367 788l53 85q12 22 40 22h93q23 0 26 -8.5t3 -11.5q0 -10 -13 -21l-99 -90
q-17 -16 -41 -16h-41q-20 0 -24.5 8t-4.5 13q0 9 8 19z" />
    <glyph glyph-name="sacute" unicode="&#x15b;" horiz-adv-x="675" 
d="M21 188q1 20 11 23.5t14 3.5q10 0 19 -8q48 -30 112.5 -49t120.5 -19q57 0 83.5 10.5t26.5 34.5q0 20 -38 31.5t-92.5 20.5t-108.5 23.5t-92 49.5t-38 89q0 77 79.5 115.5t220.5 38.5q132 0 242 -26q23 -6 26 -30q3 -55 5 -103v-3q0 -19 -9 -23.5t-14 -4.5q-9 0 -18 7
q-85 44 -182 46q-117 0 -117 -42q0 -19 39.5 -30.5t96 -20t113.5 -23.5t96.5 -51t39.5 -91q0 -78 -81.5 -121.5t-235.5 -43.5q-151 0 -298 39q-24 8 -24 32q0 62 3 125zM301 632l53 85q12 22 40 22h93q23 0 26 -8.5t3 -11.5q0 -10 -13 -21l-99 -90q-17 -16 -41 -16h-41
q-20 0 -24.5 8t-4.5 13q0 9 8 19z" />
    <glyph glyph-name="Scedilla" unicode="&#x15e;" horiz-adv-x="811" 
d="M22 247q0 21 10.5 25.5t15.5 4.5q10 0 20 -10q117 -104 310 -104q146 0 146 65q0 26 -35.5 44.5t-88 28t-114.5 25t-114.5 35t-88 59.5t-35.5 96q0 98 94 145t261 47q172 0 301 -41q21 -8 21 -29q5 -69 8 -144v-3q0 -19 -10 -24.5t-15 -5.5q-9 0 -18 8q-105 75 -239 77
q-68 0 -113.5 -15t-45.5 -43q0 -26 37 -43t92.5 -26t120.5 -24.5t120.5 -35.5t92.5 -61.5t37 -99.5q-1 -89 -81.5 -141.5t-228.5 -62.5q45 -50 45 -99q0 -54 -38 -80.5t-96 -26.5q-50 0 -95 18q-12 5 -12 19q0 6 2 14l4 11q5 17 20 17q7 0 15 -3q13 -5 30 -5q26 0 41 13
t15 35q0 44 -47 86q-185 11 -321 50q-21 6 -21 31q-2 112 -2 173z" />
    <glyph glyph-name="scedilla" unicode="&#x15f;" horiz-adv-x="675" 
d="M18 63q0 62 3 125q1 20 11 23.5t14 3.5q10 0 19 -8q48 -30 112.5 -49t120.5 -19q57 0 83.5 10.5t26.5 34.5q0 20 -38 31.5t-92.5 20.5t-108.5 23.5t-92 49.5t-38 89q0 77 79.5 115.5t220.5 38.5q132 0 242 -26q23 -6 26 -30q3 -55 5 -103v-3q0 -19 -9 -23.5t-14 -4.5
q-9 0 -18 7q-85 44 -182 46q-117 0 -117 -42q0 -19 39.5 -30.5t96 -20t113.5 -23.5t96.5 -51t39.5 -91q0 -68 -63 -110t-183 -52q45 -50 45 -100q0 -54 -38 -80.5t-96 -26.5q-50 0 -95 18q-12 5 -12 19q0 6 2 14l4 11q5 17 20 17q7 0 15 -3q13 -5 30 -5q26 0 41 13t15 35
q0 44 -47 86q-142 8 -253 38q-24 8 -24 32z" />
    <glyph glyph-name="Scaron" unicode="&#x160;" horiz-adv-x="811" 
d="M22 247q0 21 10.5 25.5t15.5 4.5q10 0 20 -10q117 -104 310 -104q146 0 146 65q0 26 -35.5 44.5t-88 28t-114.5 25t-114.5 35t-88 59.5t-35.5 96q0 98 94 145t261 47q172 0 301 -41q21 -8 21 -29q5 -69 8 -144v-3q0 -19 -10 -24.5t-15 -5.5q-9 0 -18 8q-105 75 -239 77
q-68 0 -113.5 -15t-45.5 -43q0 -26 37 -43t92.5 -26t120.5 -24.5t120.5 -35.5t92.5 -61.5t37 -99.5q-1 -99 -99 -152.5t-278 -53.5q-78 0 -186.5 15t-183.5 36q-21 6 -21 31q-2 112 -2 173zM219 864q5 12 25 12h67q23 0 39 -17l34 -39q11 -12 22 -12t22 13l35 39
q15 16 39 16h65q20 0 23 -7.5t3 -11.5q0 -9 -10 -20l-74 -88q-16 -17 -39 -17h-129q-23 0 -39 17l-74 88q-10 11 -10 20q0 4 1 7z" />
    <glyph glyph-name="scaron" unicode="&#x161;" horiz-adv-x="675" 
d="M21 188q1 20 11 23.5t14 3.5q10 0 19 -8q48 -30 112.5 -49t120.5 -19q57 0 83.5 10.5t26.5 34.5q0 20 -38 31.5t-92.5 20.5t-108.5 23.5t-92 49.5t-38 89q0 77 79.5 115.5t220.5 38.5q132 0 242 -26q23 -6 26 -30q3 -55 5 -103v-3q0 -19 -9 -23.5t-14 -4.5q-9 0 -18 7
q-85 44 -182 46q-117 0 -117 -42q0 -19 39.5 -30.5t96 -20t113.5 -23.5t96.5 -51t39.5 -91q0 -78 -81.5 -121.5t-235.5 -43.5q-151 0 -298 39q-24 8 -24 32q0 62 3 125zM153 708q5 12 25 12h67q23 0 39 -17l34 -39q11 -12 22 -12t22 13l35 39q15 16 39 16h65q20 0 23 -7.5
t3 -11.5q0 -9 -10 -20l-74 -88q-16 -17 -39 -17h-129q-23 0 -39 17l-74 88q-10 11 -10 20q0 4 1 7z" />
    <glyph glyph-name="uni0162" unicode="&#x162;" horiz-adv-x="772" 
d="M19 672q3 26 30 28q64 4 337 4q256 0 336 -4q28 -2 30 -28q8 -86 8 -205v-2q0 -19 -9 -22t-12 -3q-12 0 -21 12q-33 34 -80.5 58.5t-97.5 24.5q-25 0 -37 -15.5t-12 -37.5q0 -6 1 -13q10 -150 39 -436v-3q0 -11 -7.5 -19.5t-21.5 -10.5l-43 -3q48 -50 48 -102
q0 -54 -38 -80.5t-96 -26.5q-50 0 -95 18q-12 5 -12 19q0 6 2 14l4 11q5 17 20 17q7 0 15 -3q13 -5 30 -5q26 0 41 13t15 35q0 46 -51 90q-44 0 -69 3q-13 1 -21 10t-8 20v3q30 297 39 437q1 7 1 13q0 22 -12 37.5t-37 15.5q-45 0 -97 -25.5t-84 -58.5q-9 -11 -20 -11
q-4 0 -13.5 3t-9.5 24q4 146 8 204z" />
    <glyph glyph-name="uni0163" unicode="&#x163;" horiz-adv-x="605" 
d="M11 514q0 13 8.5 21.5t20.5 8.5h78q7 0 12 5t5 12q2 41 6 81q5 25 29 30q8 1 81 4q60 0 95 -4q13 -2 21 -10.5t8 -19.5v-2q-8 -72 -8 -76q0 -9 5 -15t13 -6q25 0 84 1t84 1h2q11 0 19.5 -8.5t8.5 -21.5v-90q0 -12 -8.5 -21t-19.5 -9h-2q-72 6 -150 6q-40 0 -45 -36
q-4 -37 -4 -77q0 -26 3 -74.5t88 -48.5q20 0 56.5 8t52.5 16q7 5 14 5q6 0 16 -5.5t11 -24.5l-1 -114q-2 -24 -22 -33q-56 -17 -133 -22q45 -50 45 -100q0 -54 -38 -80.5t-96 -26.5q-50 0 -95 18q-12 5 -12 19q0 6 2 14l4 11q5 17 20 17q7 0 15 -3q13 -5 30 -5q26 0 41 13
t15 35q0 46 -49 88q-91 11 -145.5 60.5t-55.5 136.5q0 113 9 191v2q0 6 -4.5 11t-12.5 5l-72 -1q-12 0 -20.5 9t-8.5 21v42v42z" />
    <glyph glyph-name="Tcaron" unicode="&#x164;" horiz-adv-x="772" 
d="M19 672q3 26 30 28q64 4 337 4q256 0 336 -4q28 -2 30 -28q8 -86 8 -205v-2q0 -19 -9 -22t-12 -3q-12 0 -21 12q-33 34 -80.5 58.5t-97.5 24.5q-25 0 -37 -15.5t-12 -37.5q0 -6 1 -13q10 -150 39 -436v-3q0 -11 -7.5 -19.5t-21.5 -10.5q-39 -4 -112 -4q-77 0 -117 4
q-13 1 -21 10t-8 20v3q30 297 39 437q1 7 1 13q0 22 -12 37.5t-37 15.5q-45 0 -97 -25.5t-84 -58.5q-9 -11 -20 -11q-4 0 -13.5 3t-9.5 24q4 146 8 204zM199 864q5 12 25 12h67q23 0 39 -17l34 -39q11 -12 22 -12t22 13l35 39q15 16 39 16h65q20 0 23 -7.5t3 -11.5
q0 -9 -10 -20l-74 -88q-16 -17 -39 -17h-129q-23 0 -39 17l-74 88q-10 11 -10 20q0 4 1 7z" />
    <glyph glyph-name="tcaron" unicode="&#x165;" horiz-adv-x="612" 
d="M11 514q0 13 8.5 21.5t20.5 8.5h78q7 0 12 5t5 12q2 41 6 81q5 25 29 30q8 1 81 4q60 0 95 -4q13 -2 21 -10.5t8 -19.5v-2q-8 -72 -8 -76q0 -9 5 -15t13 -6q25 0 84 1t84 1h2q11 0 19.5 -8.5t8.5 -21.5v-90q0 -12 -8.5 -21t-19.5 -9h-2q-72 6 -150 6q-40 0 -45 -36
q-4 -37 -4 -77q0 -26 3 -74.5t88 -48.5q20 0 56.5 8t52.5 16q7 5 14 5q6 0 16 -5.5t11 -24.5l-1 -114q-2 -24 -22 -33q-79 -25 -200 -25q-111 0 -181 50.5t-71 149.5q0 113 9 191v2q0 6 -4.5 11t-12.5 5l-72 -1q-12 0 -20.5 9t-8.5 21v42v42zM407 839q27 23 71 23
q43 0 70 -27.5t27 -74.5q-1 -54 -25.5 -98t-61.5 -68q-6 -4 -12 -4q-10 0 -19 10l-18 23q-6 7 -6 14q0 9 11 17q11 7 22 22q3 4 3 7q0 1 -1 3.5t-6 2.5h-2h-5q-29 0 -52 23t-23 63q0 41 27 64z" />
    <glyph glyph-name="Tbar" unicode="&#x166;" horiz-adv-x="772" 
d="M19 672q3 26 30 28q64 4 337 4q256 0 336 -4q28 -2 30 -28q8 -86 8 -205v-2q0 -19 -9 -22t-12 -3q-12 0 -21 12q-33 34 -80.5 58.5t-97.5 24.5q-25 0 -37 -15.5t-12 -37.5q0 -6 1 -13l3 -78q4 -28 35 -28h155q33 0 33 -33v-49q0 -32 -33 -32h-138q-31 0 -31 -27v-5
t15 -184v-3q0 -11 -7.5 -19.5t-21.5 -10.5q-39 -4 -112 -4q-77 0 -117 4q-13 1 -21 10t-8 20v3q1 16 4 51.5t6 69t5 62.5q1 4 1 8q0 25 -32 25h-142q-32 0 -32 32v49q0 33 32 33h158q31 0 35 28q1 17 2.5 45t1.5 34q1 7 1 13q0 22 -12 37.5t-37 15.5q-45 0 -97 -25.5
t-84 -58.5q-9 -11 -20 -11q-4 0 -13.5 3t-9.5 24q4 146 8 204z" />
    <glyph glyph-name="tbar" unicode="&#x167;" horiz-adv-x="605" 
d="M20 537q8 8 20 8h78q7 0 12 5.5t5 12.5q1 38 6 79q5 25 29 30q8 1 81 4q60 0 95 -4q13 -2 21 -10.5t8 -19.5v-2q-8 -72 -8 -76q0 -8 5.5 -14t12.5 -6q18 0 168 3q12 0 21 -9t9 -22v-80q0 -15 -8.5 -25t-19.5 -10h-2q-63 7 -150 7q-39 0 -45 -35q-2 -22 -2 -28
q0 -21 20 -21h180q20 0 20 -20v-30q0 -21 -20 -21h-178q-18 0 -18 -17v-3q2 -34 27.5 -58t57.5 -24q19 0 55.5 8.5t53.5 16.5q7 5 14 5q6 0 16 -6.5t11 -27.5q0 -19 -0.5 -51t-0.5 -46q-2 -24 -22 -33q-79 -25 -200 -25q-111 0 -181.5 48t-70.5 140q0 8 0.5 25.5t0.5 27.5
q0 20 -18 20h-55q-19 0 -19 21v30q0 20 20 20h57q18 0 20 19q0 8 0.5 15.5t1.5 16t1 14.5v2q0 7 -4.5 11.5t-10.5 4.5h-2q-48 0 -72 -1q-12 0 -20.5 10t-8.5 24v75q0 13 9 22z" />
    <glyph glyph-name="Umacron" unicode="&#x16a;" horiz-adv-x="823" 
d="M48 673q3 24 28 27q33 4 98 4q70 0 102 -4q13 -2 20.5 -10.5t7.5 -17.5q0 -3 -1 -7q-32 -176 -32 -312v-30q2 -69 38 -112t103 -43t103 44t38 111v29q0 135 -33 313q-1 3 -1 7q0 9 8 17.5t20 10.5q35 4 104 4q62 0 97 -4q24 -3 27 -27q27 -180 27 -364v-13
q0 -153 -100.5 -229t-289.5 -76q-190 0 -290.5 76t-100.5 229q0 176 27 377zM227 768v34q0 32 32 32h306q32 0 32 -32v-34q0 -33 -32 -33h-306q-32 0 -32 33z" />
    <glyph glyph-name="umacron" unicode="&#x16b;" horiz-adv-x="768" 
d="M24 243q1 107 23 271q3 27 28 30q43 5 88 5q65 0 100 -5q13 -2 20 -9.5t7 -17.5v-5q-28 -136 -28 -207q0 -66 31 -105t94 -39q52 0 83.5 44t31.5 110q0 95 -18 197v5q0 9 6.5 17t18.5 10q42 5 98 5q45 0 88 -5q11 -1 18.5 -10t9.5 -21q21 -239 21 -463v-20q0 -27 -24 -30
q-30 -5 -91 -5q-50 0 -98 5q-12 1 -19.5 8t-7.5 16q0 3 1 6q8 45 8 74q0 16 -4 17t-5 1q-7 0 -14 -12q-70 -119 -209 -119q-125 0 -191 65.5t-66 186.5zM199 612v34q0 32 32 32h306q32 0 32 -32v-34q0 -33 -32 -33h-306q-32 0 -32 33z" />
    <glyph glyph-name="Uring" unicode="&#x16e;" horiz-adv-x="823" 
d="M21 296q0 176 27 377q3 24 28 27q33 4 98 4q70 0 102 -4q13 -2 20.5 -10.5t7.5 -17.5q0 -3 -1 -7q-32 -176 -32 -312v-30q2 -69 38 -112t103 -43t103 44t38 111v29q0 135 -33 313q-1 3 -1 7q0 9 8 17.5t20 10.5q35 4 104 4q62 0 97 -4q24 -3 27 -27q27 -180 27 -364v-13
q0 -153 -100.5 -229t-289.5 -76q-190 0 -290.5 76t-100.5 229zM280 841q0 51 36.5 80.5t95.5 29.5t95.5 -29.5t36.5 -80.5q0 -52 -36 -81q-37 -30 -96 -30t-95.5 29.5t-36.5 81.5zM379 805q13 -13 33 -13q21 0 34 12.5t13 35.5t-13 35.5t-34 12.5q-20 0 -33 -12.5t-13 -35.5
t13 -35z" />
    <glyph glyph-name="uring" unicode="&#x16f;" horiz-adv-x="768" 
d="M47 514q3 27 28 30q43 5 88 5q65 0 100 -5q13 -2 20 -9.5t7 -17.5v-5q-28 -136 -28 -207q0 -66 31 -105t94 -39q52 0 83.5 44t31.5 110q0 95 -18 197v5q0 9 6.5 17t18.5 10q42 5 98 5q45 0 88 -5q11 -1 18.5 -10t9.5 -21q21 -239 21 -463v-20q0 -27 -24 -30
q-30 -5 -91 -5q-50 0 -98 5q-12 1 -19.5 8t-7.5 16q0 3 1 6q8 45 8 74q0 16 -4 17t-5 1q-7 0 -14 -12q-70 -119 -209 -119q-125 0 -191 65.5t-66 186.5q1 107 23 271zM289 766q36 29 95 29t95.5 -29.5t36.5 -80.5q0 -52 -36 -81q-37 -30 -96 -30t-95.5 29.5t-36.5 81.5
q0 51 37 81zM351 649q13 -13 33 -13q21 0 34 12.5t13 35.5t-13 35.5t-34 12.5q-20 0 -33 -12.5t-13 -35.5t13 -35z" />
    <glyph glyph-name="Uhungarumlaut" unicode="&#x170;" horiz-adv-x="823" 
d="M48 673q3 24 28 27q33 4 98 4q70 0 102 -4q13 -2 20.5 -10.5t7.5 -17.5q0 -3 -1 -7q-32 -176 -32 -312v-30q2 -69 38 -112t103 -43t103 44t38 111v29q0 135 -33 313q-1 3 -1 7q0 9 8 17.5t20 10.5q35 4 104 4q62 0 97 -4q24 -3 27 -27q27 -180 27 -364v-13
q0 -153 -100.5 -229t-289.5 -76q-190 0 -290.5 76t-100.5 229q0 176 27 377zM456 786l61 86q14 20 38 20h73q20 0 23.5 -8t3.5 -11q0 -9 -9 -20l-67 -87q-15 -18 -39 -18h-65q-20 0 -23.5 7t-3.5 11q0 9 8 20zM254 786l61 86q14 20 38 20h73q20 0 23.5 -8t3.5 -11
q0 -9 -9 -20l-67 -87q-15 -18 -39 -18h-65q-20 0 -23.5 7t-3.5 11q0 9 8 20z" />
    <glyph glyph-name="uhungarumlaut" unicode="&#x171;" horiz-adv-x="768" 
d="M47 514q3 27 28 30q43 5 88 5q65 0 100 -5q13 -2 20 -9.5t7 -17.5v-5q-28 -136 -28 -207q0 -66 31 -105t94 -39q52 0 83.5 44t31.5 110q0 95 -18 197v5q0 9 6.5 17t18.5 10q42 5 98 5q45 0 88 -5q11 -1 18.5 -10t9.5 -21q21 -239 21 -463v-20q0 -27 -24 -30
q-30 -5 -91 -5q-50 0 -98 5q-12 1 -19.5 8t-7.5 16q0 3 1 6q8 45 8 74q0 16 -4 17t-5 1q-7 0 -14 -12q-70 -119 -209 -119q-125 0 -191 65.5t-66 186.5q1 107 23 271zM226 630l61 86q14 20 38 20h73q20 0 23.5 -8t3.5 -11q0 -9 -9 -20l-67 -87q-15 -18 -39 -18h-65
q-20 0 -23.5 7t-3.5 11q0 9 8 20zM428 630l61 86q14 20 38 20h73q20 0 23.5 -8t3.5 -11q0 -9 -9 -20l-67 -87q-15 -18 -39 -18h-65q-20 0 -23.5 7t-3.5 11q0 9 8 20z" />
    <glyph glyph-name="Uogonek" unicode="&#x172;" horiz-adv-x="823" 
d="M48 673q3 24 28 27q33 4 98 4q70 0 102 -4q13 -2 20.5 -10.5t7.5 -17.5q0 -3 -1 -7q-32 -176 -32 -312v-30q2 -69 38 -112t103 -43t103 44t38 111v29q0 135 -33 313q-1 3 -1 7q0 9 8 17.5t20 10.5q35 4 104 4q62 0 97 -4q24 -3 27 -27q27 -180 27 -364v-13
q0 -143 -88.5 -219t-256.5 -85l-4 -3q-59 -43 -59 -94q0 -23 15.5 -36t41.5 -13q12 0 30 6q8 3 15 3q15 0 20 -18l4 -11q2 -7 2 -12q0 -16 -13 -21q-42 -17 -95 -17q-57 0 -95 26.5t-38 79.5q0 58 57 112q-317 30 -317 302q0 176 27 377z" />
    <glyph glyph-name="uogonek" unicode="&#x173;" horiz-adv-x="768" 
d="M24 243q1 107 23 271q3 27 28 30q43 5 88 5q65 0 100 -5q13 -2 20 -9.5t7 -17.5v-5q-28 -136 -28 -207q0 -66 31 -105t94 -39q52 0 83.5 44t31.5 110q0 95 -18 197v5q0 9 6.5 17t18.5 10q42 5 98 5q45 0 88 -5q11 -1 18.5 -10t9.5 -21q21 -239 21 -463v-20q0 -27 -24 -30
q-3 0 -4 -1q-2 -1 -6 -5q-59 -43 -59 -94q0 -23 15.5 -36t41.5 -13q12 0 30 6q8 3 15 3q15 0 20 -18l4 -11q2 -7 2 -12q0 -16 -13 -21q-42 -17 -95 -17q-57 0 -95 26.5t-38 79.5q0 57 54 109q-45 2 -61 4q-12 1 -19.5 8t-7.5 16q0 3 1 6q8 45 8 74q0 16 -4 17t-5 1
q-7 0 -14 -12q-70 -119 -209 -119q-125 0 -191 65.5t-66 186.5z" />
    <glyph glyph-name="Wcircumflex" unicode="&#x174;" horiz-adv-x="1081" 
d="M36 700q29 4 105 4q70 0 100 -4q28 -2 28 -31q5 -121 29 -249q14 -125 43 -125q15 0 24.5 23t23.5 75q3 12 5 18q3 10 22.5 73.5t28.5 91.5q16 53 37 76.5t57 23.5q37 0 58.5 -23.5t36.5 -76.5q7 -19 50 -162q25 -91 36 -108q8 -13 19 -13q29 0 44 123q25 146 28 252v2
q0 26 29 30t102 4t104 -4q23 -3 23 -26v-6q-19 -166 -58 -344t-78 -297q-10 -26 -34 -27q-41 -4 -100 -4q-71 0 -103 4q-45 5 -54 38q-3 12 -17.5 78.5t-23.5 102.5q-31 134 -61 134t-63 -139q-29 -136 -39 -176q-5 -19 -18 -27t-36 -11q-32 -4 -100 -4q-63 0 -102 4
q-24 3 -34 27q-40 121 -78.5 298t-56.5 343v6q0 23 23 26zM363 771l74 87q17 18 39 18h129q23 0 39 -17l74 -88q10 -11 10 -20q0 -4 -3 -11.5t-23 -7.5h-65q-24 0 -39 16l-35 39q-11 13 -22 13t-22 -12l-34 -39q-16 -17 -39 -17h-67q-20 0 -23 7.5t-3 10.5q0 9 10 21z" />
    <glyph glyph-name="wcircumflex" unicode="&#x175;" horiz-adv-x="988" 
d="M41 544q27 4 91 4q66 0 91 -4q29 -5 31 -31q3 -103 29 -216q14 -81 35 -81q13 0 22 17.5t20 56.5q48 164 49 167q27 83 84 84q59 0 85 -84q9 -27 26 -88t23 -79q13 -41 21.5 -57t20.5 -16q20 0 36 80q26 123 29 215q0 27 31 32q32 4 91 4q64 0 91 -4q26 -5 26 -26v-5
q-22 -227 -121 -486q-9 -24 -39 -27q-54 -4 -95 -4q-54 0 -98 4q-38 5 -46 31q-4 14 -19.5 89t-31.5 127.5t-29 52.5t-29 -53t-32 -129.5t-19 -86.5q-8 -28 -47 -31q-43 -4 -97 -4q-56 0 -95 4q-30 3 -39 27q-40 99 -74.5 230.5t-46.5 255.5v5q0 21 26 26zM317 615l74 87
q17 18 39 18h129q23 0 39 -17l74 -88q10 -11 10 -20q0 -4 -3 -11.5t-23 -7.5h-65q-24 0 -39 16l-35 39q-11 13 -22 13t-22 -12l-34 -39q-16 -17 -39 -17h-67q-20 0 -23 7.5t-3 10.5q0 9 10 21z" />
    <glyph glyph-name="Ycircumflex" unicode="&#x176;" horiz-adv-x="798" 
d="M18 689q8 10 22 11q30 4 97 4q77 0 108 -4q26 -4 28 -28q8 -60 26.5 -122t46 -106.5t53.5 -44.5q39 0 78.5 91.5t47.5 181.5q2 25 28 28q30 4 107 4q67 0 98 -4q14 -1 21.5 -10t7.5 -20v-5q-8 -109 -90 -224.5t-178 -136.5q-15 -3 -15 -17q0 -4 1 -8q23 -135 32 -249v-2
q0 -11 -8.5 -18.5t-20.5 -9.5q-36 -4 -106 -4q-74 0 -113 4q-12 2 -20 9.5t-8 18.5v2q6 89 33 250q1 3 1 6q0 14 -15 19q-97 25 -179 138.5t-90 221.5v3q0 12 7 21zM221 771l74 87q16 18 39 18h129q23 0 39 -17l74 -88q10 -11 10 -20q0 -4 -3 -11.5t-23 -7.5h-65
q-24 0 -39 16l-35 39q-11 13 -22 13t-22 -12l-34 -39q-16 -17 -39 -17h-67q-20 0 -23 7.5t-3 10.5q0 9 10 21z" />
    <glyph glyph-name="ycircumflex" unicode="&#x177;" horiz-adv-x="772" 
d="M12 -176q2 20 5 71.5t4 67.5q2 17 11 22t15 5q7 0 14 -5q97 -56 224 -56q90 0 162 50t72 112v16q0 11 -4 14.5t-7 3.5t-7 -2t-8 -11q-52 -113 -207 -113q-125 0 -191 66t-66 182q1 102 23 267q3 27 28 30q43 5 88 5q65 0 101 -5q13 -2 19.5 -9.5t6.5 -17.5v-5
q-27 -131 -27 -202q0 -67 30.5 -108t93.5 -41q51 0 81.5 45.5t30.5 112.5q0 82 -18 193v5q0 9 6.5 17t18.5 10q42 5 100 5q45 0 88 -5q11 -1 18.5 -10t9.5 -21q22 -231 22 -452v-19q0 -92 -58 -157.5t-145.5 -94.5t-192.5 -29q-204 0 -317 29q-24 7 -24 30v4zM201 615l74 87
q17 18 39 18h129q23 0 39 -17l74 -88q10 -11 10 -20q0 -4 -3 -11.5t-23 -7.5h-65q-24 0 -39 16l-35 39q-11 13 -22 13t-22 -12l-34 -39q-16 -17 -39 -17h-67q-20 0 -23 7.5t-3 10.5q0 9 10 21z" />
    <glyph glyph-name="Ydieresis" unicode="&#x178;" horiz-adv-x="798" 
d="M18 689q8 10 22 11q30 4 97 4q77 0 108 -4q26 -4 28 -28q8 -60 26.5 -122t46 -106.5t53.5 -44.5q39 0 78.5 91.5t47.5 181.5q2 25 28 28q30 4 107 4q67 0 98 -4q14 -1 21.5 -10t7.5 -20v-5q-8 -109 -90 -224.5t-178 -136.5q-15 -3 -15 -17q0 -4 1 -8q23 -135 32 -249v-2
q0 -11 -8.5 -18.5t-20.5 -9.5q-36 -4 -106 -4q-74 0 -113 4q-12 2 -20 9.5t-8 18.5v2q6 89 33 250q1 3 1 6q0 14 -15 19q-97 25 -179 138.5t-90 221.5v3q0 12 7 21zM212 807q0 33 22.5 52.5t58.5 19.5q37 0 59.5 -19.5t22.5 -52.5t-22 -52q-23 -19 -60 -19t-59 19t-22 52z
M422 807q0 33 22 52.5t58 19.5q37 0 59.5 -19.5t22.5 -52.5t-22.5 -52t-59.5 -19q-36 0 -58 18.5t-22 49.5v3z" />
    <glyph glyph-name="Zacute" unicode="&#x179;" horiz-adv-x="809" 
d="M20 30q0 40 1 66t13.5 43t43.5 41q231 223 297 282q29 20 35 31.5t6 17.5q0 7 -8 13.5t-26 10.5t-41 4q-171 0 -246 -91q-10 -13 -22 -13q-3 0 -12 3t-9 22v2q4 157 10 209q3 27 29 29q80 4 314 4q261 0 315 -4q29 -2 32 -28q2 -23 4 -58q0 -47 -47 -84
q-16 -16 -83.5 -84t-118.5 -117.5t-94 -87.5q-35 -25 -35 -44q0 -5 9 -18.5t73 -13.5q101 0 161.5 30t104.5 95q10 15 24 15q3 0 14 -2.5t12 -25.5q2 -20 4.5 -70t5.5 -107t4 -74q0 -10 -7.5 -17.5t-18.5 -8.5q-69 -4 -373 -4q-260 0 -340 4q-14 1 -22.5 8.5t-8.5 18.5v3z
M366 788l53 85q12 22 40 22h93q23 0 26 -8.5t3 -11.5q0 -10 -13 -21l-99 -90q-17 -16 -41 -16h-41q-20 0 -24.5 8t-4.5 13q0 9 8 19z" />
    <glyph glyph-name="zacute" unicode="&#x17a;" horiz-adv-x="722" 
d="M21 76q4 43 50 73q66 61 234 200q29 19 29 33q0 4 -7 14t-60 10q-112 0 -174 -62q-9 -11 -21 -11q-4 0 -14.5 3t-10.5 23v2q1 46 9 153q3 28 30 30q142 4 275 4q185 0 279 -4q27 -2 30 -25q4 -28 4 -51v-4q0 -38 -42 -67q-71 -70 -228 -201q-30 -20 -30 -33q0 -8 12 -14
q18 -9 61 -9q130 0 193 84q11 17 26 17q2 0 12 -1.5t12 -26.5q8 -80 14 -187v-2q0 -10 -8 -17.5t-21 -7.5q-231 -3 -327 -3q-220 0 -300 3q-12 0 -20.5 8t-8.5 19q0 32 2 50zM321 632l53 85q12 22 40 22h93q23 0 26 -8.5t3 -11.5q0 -10 -13 -21l-99 -90q-17 -16 -41 -16h-41
q-20 0 -24.5 8t-4.5 13q0 9 8 19z" />
    <glyph glyph-name="Zdotaccent" unicode="&#x17b;" horiz-adv-x="809" 
d="M20 30q0 40 1 66t13.5 43t43.5 41q231 223 297 282q29 20 35 31.5t6 17.5q0 7 -8 13.5t-26 10.5t-41 4q-171 0 -246 -91q-10 -13 -22 -13q-3 0 -12 3t-9 22v2q4 157 10 209q3 27 29 29q80 4 314 4q261 0 315 -4q29 -2 32 -28q2 -23 4 -58q0 -47 -47 -84
q-16 -16 -83.5 -84t-118.5 -117.5t-94 -87.5q-35 -25 -35 -44q0 -5 9 -18.5t73 -13.5q101 0 161.5 30t104.5 95q10 15 24 15q3 0 14 -2.5t12 -25.5q2 -20 4.5 -70t5.5 -107t4 -74q0 -10 -7.5 -17.5t-18.5 -8.5q-69 -4 -373 -4q-260 0 -340 4q-14 1 -22.5 8.5t-8.5 18.5v3z
M347 860q22 19 58 19q37 0 59.5 -19.5t22.5 -52.5t-22 -52q-23 -19 -60 -19t-59 19t-22 52t23 53z" />
    <glyph glyph-name="zdotaccent" unicode="&#x17c;" horiz-adv-x="722" 
d="M21 76q4 43 50 73q66 61 234 200q29 19 29 33q0 4 -7 14t-60 10q-112 0 -174 -62q-9 -11 -21 -11q-4 0 -14.5 3t-10.5 23v2q1 46 9 153q3 28 30 30q142 4 275 4q185 0 279 -4q27 -2 30 -25q4 -28 4 -51v-4q0 -38 -42 -67q-71 -70 -228 -201q-30 -20 -30 -33q0 -8 12 -14
q18 -9 61 -9q130 0 193 84q11 17 26 17q2 0 12 -1.5t12 -26.5q8 -80 14 -187v-2q0 -10 -8 -17.5t-21 -7.5q-231 -3 -327 -3q-220 0 -300 3q-12 0 -20.5 8t-8.5 19q0 32 2 50zM279 651q0 33 22.5 52.5t58.5 19.5q37 0 59.5 -19.5t22.5 -52.5t-22 -52q-23 -19 -60 -19t-59 19
t-22 52z" />
    <glyph glyph-name="Zcaron" unicode="&#x17d;" horiz-adv-x="809" 
d="M20 30q0 40 1 66t13.5 43t43.5 41q231 223 297 282q29 20 35 31.5t6 17.5q0 7 -8 13.5t-26 10.5t-41 4q-171 0 -246 -91q-10 -13 -22 -13q-3 0 -12 3t-9 22v2q4 157 10 209q3 27 29 29q80 4 314 4q261 0 315 -4q29 -2 32 -28q2 -23 4 -58q0 -47 -47 -84
q-16 -16 -83.5 -84t-118.5 -117.5t-94 -87.5q-35 -25 -35 -44q0 -5 9 -18.5t73 -13.5q101 0 161.5 30t104.5 95q10 15 24 15q3 0 14 -2.5t12 -25.5q2 -20 4.5 -70t5.5 -107t4 -74q0 -10 -7.5 -17.5t-18.5 -8.5q-69 -4 -373 -4q-260 0 -340 4q-14 1 -22.5 8.5t-8.5 18.5v3z
M218 864q5 12 25 12h67q23 0 39 -17l34 -39q11 -12 22 -12t22 13l35 39q15 16 39 16h65q20 0 23 -7.5t3 -11.5q0 -9 -10 -20l-74 -88q-16 -17 -39 -17h-129q-23 0 -39 17l-74 88q-10 11 -10 20q0 4 1 7z" />
    <glyph glyph-name="zcaron" unicode="&#x17e;" horiz-adv-x="722" 
d="M21 76q4 43 50 73q66 61 234 200q29 19 29 33q0 4 -7 14t-60 10q-112 0 -174 -62q-9 -11 -21 -11q-4 0 -14.5 3t-10.5 23v2q1 46 9 153q3 28 30 30q142 4 275 4q185 0 279 -4q27 -2 30 -25q4 -28 4 -51v-4q0 -38 -42 -67q-71 -70 -228 -201q-30 -20 -30 -33q0 -8 12 -14
q18 -9 61 -9q130 0 193 84q11 17 26 17q2 0 12 -1.5t12 -26.5q8 -80 14 -187v-2q0 -10 -8 -17.5t-21 -7.5q-231 -3 -327 -3q-220 0 -300 3q-12 0 -20.5 8t-8.5 19q0 32 2 50zM173 708q5 12 25 12h67q23 0 39 -17l34 -39q11 -12 22 -12t22 13l35 39q15 16 39 16h65
q20 0 23 -7.5t3 -11.5q0 -9 -10 -20l-74 -88q-16 -17 -39 -17h-129q-23 0 -39 17l-74 88q-10 11 -10 20q0 4 1 7z" />
    <glyph glyph-name="uni0218" unicode="&#x218;" horiz-adv-x="811" 
d="M22 247q0 21 10.5 25.5t15.5 4.5q10 0 20 -10q117 -104 310 -104q146 0 146 65q0 26 -35.5 44.5t-88 28t-114.5 25t-114.5 35t-88 59.5t-35.5 96q0 98 94 145t261 47q172 0 301 -41q21 -8 21 -29q5 -69 8 -144v-3q0 -19 -10 -24.5t-15 -5.5q-9 0 -18 8q-105 75 -239 77
q-68 0 -113.5 -15t-45.5 -43q0 -26 37 -43t92.5 -26t120.5 -24.5t120.5 -35.5t92.5 -61.5t37 -99.5q-1 -99 -99 -152.5t-278 -53.5q-78 0 -186.5 15t-183.5 36q-21 6 -21 31q-2 112 -2 173zM308 -110q0 42 27 65t71 23t71 -28t27 -76q-1 -54 -25.5 -98.5t-61.5 -68.5
q-7 -4 -13 -4q-10 0 -19 10l-18 23q-7 7 -7 14q0 9 12 17q13 9 22 22q3 4 3 7q0 2 -1 4.5t-6 2.5h-2h-5q-30 0 -52.5 23.5t-22.5 63.5z" />
    <glyph glyph-name="uni0219" unicode="&#x219;" horiz-adv-x="675" 
d="M21 188q1 20 11 23.5t14 3.5q10 0 19 -8q48 -30 112.5 -49t120.5 -19q57 0 83.5 10.5t26.5 34.5q0 20 -38 31.5t-92.5 20.5t-108.5 23.5t-92 49.5t-38 89q0 77 79.5 115.5t220.5 38.5q132 0 242 -26q23 -6 26 -30q3 -55 5 -103v-3q0 -19 -9 -23.5t-14 -4.5q-9 0 -18 7
q-85 44 -182 46q-117 0 -117 -42q0 -19 39.5 -30.5t96 -20t113.5 -23.5t96.5 -51t39.5 -91q0 -78 -81.5 -121.5t-235.5 -43.5q-151 0 -298 39q-24 8 -24 32q0 62 3 125zM264 -45q27 23 71 23t71 -28t27 -76q-1 -54 -25.5 -98.5t-61.5 -68.5q-7 -4 -13 -4q-10 0 -19 10
l-18 23q-7 7 -7 14q0 9 12 17q13 9 22 22q3 4 3 7q0 2 -1 4.5t-6 2.5h-2h-5q-30 0 -52.5 23.5t-22.5 63.5q0 42 27 65z" />
    <glyph glyph-name="uni021A" unicode="&#x21a;" horiz-adv-x="772" 
d="M19 672q3 26 30 28q64 4 337 4q256 0 336 -4q28 -2 30 -28q8 -86 8 -205v-2q0 -19 -9 -22t-12 -3q-12 0 -21 12q-33 34 -80.5 58.5t-97.5 24.5q-25 0 -37 -15.5t-12 -37.5q0 -6 1 -13q10 -150 39 -436v-3q0 -11 -7.5 -19.5t-21.5 -10.5q-39 -4 -112 -4q-77 0 -117 4
q-13 1 -21 10t-8 20v3q30 297 39 437q1 7 1 13q0 22 -12 37.5t-37 15.5q-45 0 -97 -25.5t-84 -58.5q-9 -11 -20 -11q-4 0 -13.5 3t-9.5 24q4 146 8 204zM315 -45q27 23 71 23t71 -28t27 -76q-1 -54 -25.5 -98.5t-61.5 -68.5q-7 -4 -13 -4q-10 0 -19 10l-18 23q-7 7 -7 14
q0 9 12 17q13 9 22 22q3 4 3 7q0 2 -1 4.5t-6 2.5h-2h-5q-30 0 -52.5 23.5t-22.5 63.5q0 42 27 65z" />
    <glyph glyph-name="uni021B" unicode="&#x21b;" horiz-adv-x="605" 
d="M11 514q0 13 8.5 21.5t20.5 8.5h78q7 0 12 5t5 12q2 41 6 81q5 25 29 30q8 1 81 4q60 0 95 -4q13 -2 21 -10.5t8 -19.5v-2q-8 -72 -8 -76q0 -9 5 -15t13 -6q25 0 84 1t84 1h2q11 0 19.5 -8.5t8.5 -21.5v-90q0 -12 -8.5 -21t-19.5 -9h-2q-72 6 -150 6q-40 0 -45 -36
q-4 -37 -4 -77q0 -26 3 -74.5t88 -48.5q20 0 56.5 8t52.5 16q7 5 14 5q6 0 16 -5.5t11 -24.5l-1 -114q-2 -24 -22 -33q-79 -25 -200 -25q-111 0 -181 50.5t-71 149.5q0 113 9 191v2q0 6 -4.5 11t-12.5 5l-72 -1q-12 0 -20.5 9t-8.5 21v42v42zM293 -45q27 23 71 23t71 -28
t27 -76q-1 -54 -25.5 -98.5t-61.5 -68.5q-7 -4 -13 -4q-10 0 -19 10l-18 23q-7 7 -7 14q0 9 12 17q13 9 22 22q3 4 3 7q0 2 -1 4.5t-6 2.5h-2h-5q-30 0 -52.5 23.5t-22.5 63.5q0 42 27 65z" />
    <glyph glyph-name="gravecomb" unicode="&#x300;" 
d="M-378 726q5 13 28 13h94q26 0 40 -22l53 -85q8 -10 8 -19q0 -5 -4.5 -13t-25.5 -8h-41q-24 0 -41 16l-98 90q-14 11 -14 22q0 3 1 6z" />
    <glyph glyph-name="acutecomb" unicode="&#x301;" 
d="M-371 632l53 85q12 22 40 22h93q23 0 26 -8.5t3 -11.5q0 -10 -13 -21l-99 -90q-17 -16 -41 -16h-41q-20 0 -24.5 8t-4.5 13q0 9 8 19z" />
    <glyph glyph-name="uni0302" unicode="&#x302;" 
d="M-411 615l74 87q17 18 39 18h129q23 0 39 -17l74 -88q10 -11 10 -20q0 -4 -3 -11.5t-23 -7.5h-65q-24 0 -39 16l-35 39q-11 13 -22 13t-22 -12l-34 -39q-16 -17 -39 -17h-67q-20 0 -23 7.5t-3 10.5q0 9 10 21z" />
    <glyph glyph-name="tildecomb" unicode="&#x303;" 
d="M-382 703q30 16 74 16q42 0 96 -15q6 -1 23 -6t22 -6t17 -4t19 -3q1 0 4.5 0.5t14 1t19 3t17.5 7.5q11 5 19 5q16 0 23 -19l18 -50q3 -9 3 -16q0 -17 -17 -26q-31 -16 -74 -16t-98 16q-38 11 -51 14t-30 3q-4 0 -18.5 -0.5t-35.5 -10.5q-11 -6 -20 -6q-15 0 -22 20
l-17 49q-3 9 -3 16q0 18 17 27z" />
    <glyph glyph-name="uni0304" unicode="&#x304;" 
d="M-374 678h306q32 0 32 -32v-34q0 -33 -32 -33h-306q-32 0 -32 33v34q0 32 32 32z" />
    <glyph glyph-name="uni0306" unicode="&#x306;" 
d="M-333 686l27 10q6 3 11 3q14 0 30 -16q24 -28 68 -28q45 0 69 28q16 16 30 16q5 0 11 -3l27 -10q24 -10 24 -23q0 -6 -5 -12q-50 -78 -156 -78q-98 0 -150 70q-8 10 -8 19q0 14 22 24z" />
    <glyph glyph-name="uni0307" unicode="&#x307;" 
d="M-310 653q0 33 22.5 52.5t58.5 19.5q37 0 59.5 -19.5t22.5 -52.5t-23 -52q-22 -19 -59 -19t-59 19t-22 52z" />
    <glyph glyph-name="uni0308" unicode="&#x308;" 
d="M-416 653q0 33 22.5 52.5t58.5 19.5q37 0 59.5 -19.5t22.5 -52.5t-23 -52q-22 -19 -59 -19t-59 19t-22 52zM-206 653q0 33 22 52.5t58 19.5q37 0 59.5 -19.5t22.5 -52.5t-22.5 -52t-59.5 -19q-36 0 -58 18.5t-22 49.5v3z" />
    <glyph glyph-name="uni030A" unicode="&#x30a;" 
d="M-254 766q37 29 96 29t95.5 -29.5t36.5 -80.5q0 -52 -37 -81q-36 -30 -95 -30t-95.5 29.5t-36.5 81.5q0 51 36 81zM-204 684q0 -23 13 -35.5t33 -12.5q21 0 34 12.5t13 35.5t-13 35.5t-34 12.5q-20 0 -33 -12.5t-13 -35.5z" />
    <glyph glyph-name="uni030B" unicode="&#x30b;" 
d="M-212 630l61 86q14 20 38 20h73q20 0 23.5 -8t3.5 -11q0 -9 -9 -20l-67 -87q-15 -18 -39 -18h-65q-20 0 -23.5 7t-3.5 11q0 9 8 20zM-414 630l61 86q14 20 38 20h73q20 0 23.5 -8t3.5 -11q0 -9 -9 -20l-67 -87q-15 -18 -39 -18h-65q-20 0 -23.5 7t-3.5 11q0 9 8 20z" />
    <glyph glyph-name="uni030C" unicode="&#x30c;" 
d="M-420 708q5 12 25 12h67q23 0 39 -17l34 -39q11 -12 22 -12t22 13l35 39q15 16 39 16h65q20 0 23 -7.5t3 -11.5q0 -9 -10 -20l-74 -88q-16 -17 -39 -17h-129q-23 0 -39 17l-74 88q-10 11 -10 20q0 4 1 7z" />
    <glyph glyph-name="uni0312" unicode="&#x312;" 
d="M-207 775q25 44 62 67q7 5 14 5q9 0 17 -11l19 -22q6 -8 6 -15q0 -9 -11 -17q-13 -8 -23 -22q-3 -4 -3 -7q0 -1 1 -3.5t6 -2.5h3h5q29 0 52 -23.5t23 -63.5q0 -42 -27 -65.5t-71 -23.5t-71.5 28.5t-27.5 75.5q1 55 26 100z" />
    <glyph glyph-name="uni0326" unicode="&#x326;" 
d="M-232 -110q0 42 27 65t71 23t71 -28t27 -76q-1 -54 -25.5 -98.5t-61.5 -68.5q-7 -4 -13 -4q-10 0 -19 10l-18 23q-7 7 -7 14q0 9 12 17q13 9 22 22q3 4 3 7q0 2 -1 4.5t-6 2.5h-2h-5q-30 0 -52.5 23.5t-22.5 63.5z" />
    <glyph glyph-name="uni0327" unicode="&#x327;" 
d="M-258 -161l4 11q5 17 20 17q7 0 15 -3q13 -5 30 -5q26 0 41 13t15 35q0 51 -58 95q-15 11 -15 20t16 17l15 7q11 5 21 5q8 0 16 -3q51 -23 85 -67.5t34 -85.5q0 -54 -38 -80.5t-96 -26.5q-50 0 -95 18q-12 5 -12 19q0 6 2 14z" />
    <glyph glyph-name="uni0328" unicode="&#x328;" 
d="M-227 -21q34 44 85 67q8 4 17 4q10 0 20 -6l16 -7q15 -8 15 -17t-14 -20q-59 -43 -59 -94q0 -23 15.5 -36t41.5 -13q12 0 30 6q8 3 15 3q15 0 20 -18l4 -11q2 -7 2 -12q0 -16 -13 -21q-43 -17 -95 -17q-57 0 -95 26.5t-38 79.5q0 42 33 86z" />
    <glyph glyph-name="Wgrave" unicode="&#x1e80;" horiz-adv-x="1081" 
d="M36 700q29 4 105 4q70 0 100 -4q28 -2 28 -31q5 -121 29 -249q14 -125 43 -125q15 0 24.5 23t23.5 75q3 12 5 18q3 10 22.5 73.5t28.5 91.5q16 53 37 76.5t57 23.5q37 0 58.5 -23.5t36.5 -76.5q7 -19 50 -162q25 -91 36 -108q8 -13 19 -13q29 0 44 123q25 146 28 252v2
q0 26 29 30t102 4t104 -4q23 -3 23 -26v-6q-19 -166 -58 -344t-78 -297q-10 -26 -34 -27q-41 -4 -100 -4q-71 0 -103 4q-45 5 -54 38q-3 12 -17.5 78.5t-23.5 102.5q-31 134 -61 134t-63 -139q-29 -136 -39 -176q-5 -19 -18 -27t-36 -11q-32 -4 -100 -4q-63 0 -102 4
q-24 3 -34 27q-40 121 -78.5 298t-56.5 343v6q0 23 23 26zM365 882q5 13 28 13h94q26 0 40 -22l53 -85q8 -10 8 -19q0 -5 -4.5 -13t-25.5 -8h-41q-24 0 -41 16l-98 90q-14 11 -14 22q0 3 1 6z" />
    <glyph glyph-name="wgrave" unicode="&#x1e81;" horiz-adv-x="988" 
d="M41 544q27 4 91 4q66 0 91 -4q29 -5 31 -31q3 -103 29 -216q14 -81 35 -81q13 0 22 17.5t20 56.5q48 164 49 167q27 83 84 84q59 0 85 -84q9 -27 26 -88t23 -79q13 -41 21.5 -57t20.5 -16q20 0 36 80q26 123 29 215q0 27 31 32q32 4 91 4q64 0 91 -4q26 -5 26 -26v-5
q-22 -227 -121 -486q-9 -24 -39 -27q-54 -4 -95 -4q-54 0 -98 4q-38 5 -46 31q-4 14 -19.5 89t-31.5 127.5t-29 52.5t-29 -53t-32 -129.5t-19 -86.5q-8 -28 -47 -31q-43 -4 -97 -4q-56 0 -95 4q-30 3 -39 27q-40 99 -74.5 230.5t-46.5 255.5v5q0 21 26 26zM319 726
q5 13 28 13h94q26 0 40 -22l53 -85q8 -10 8 -19q0 -5 -4.5 -13t-25.5 -8h-41q-24 0 -41 16l-98 90q-14 11 -14 22q0 3 1 6z" />
    <glyph glyph-name="Wacute" unicode="&#x1e82;" horiz-adv-x="1081" 
d="M36 700q29 4 105 4q70 0 100 -4q28 -2 28 -31q5 -121 29 -249q14 -125 43 -125q15 0 24.5 23t23.5 75q3 12 5 18q3 10 22.5 73.5t28.5 91.5q16 53 37 76.5t57 23.5q37 0 58.5 -23.5t36.5 -76.5q7 -19 50 -162q25 -91 36 -108q8 -13 19 -13q29 0 44 123q25 146 28 252v2
q0 26 29 30t102 4t104 -4q23 -3 23 -26v-6q-19 -166 -58 -344t-78 -297q-10 -26 -34 -27q-41 -4 -100 -4q-71 0 -103 4q-45 5 -54 38q-3 12 -17.5 78.5t-23.5 102.5q-31 134 -61 134t-63 -139q-29 -136 -39 -176q-5 -19 -18 -27t-36 -11q-32 -4 -100 -4q-63 0 -102 4
q-24 3 -34 27q-40 121 -78.5 298t-56.5 343v6q0 23 23 26zM502 788l53 85q12 22 40 22h93q23 0 26 -8.5t3 -11.5q0 -10 -13 -21l-99 -90q-17 -16 -41 -16h-41q-20 0 -24.5 8t-4.5 13q0 9 8 19z" />
    <glyph glyph-name="wacute" unicode="&#x1e83;" horiz-adv-x="988" 
d="M41 544q27 4 91 4q66 0 91 -4q29 -5 31 -31q3 -103 29 -216q14 -81 35 -81q13 0 22 17.5t20 56.5q48 164 49 167q27 83 84 84q59 0 85 -84q9 -27 26 -88t23 -79q13 -41 21.5 -57t20.5 -16q20 0 36 80q26 123 29 215q0 27 31 32q32 4 91 4q64 0 91 -4q26 -5 26 -26v-5
q-22 -227 -121 -486q-9 -24 -39 -27q-54 -4 -95 -4q-54 0 -98 4q-38 5 -46 31q-4 14 -19.5 89t-31.5 127.5t-29 52.5t-29 -53t-32 -129.5t-19 -86.5q-8 -28 -47 -31q-43 -4 -97 -4q-56 0 -95 4q-30 3 -39 27q-40 99 -74.5 230.5t-46.5 255.5v5q0 21 26 26zM455 632l53 85
q12 22 40 22h93q23 0 26 -8.5t3 -11.5q0 -10 -13 -21l-99 -90q-17 -16 -41 -16h-41q-20 0 -24.5 8t-4.5 13q0 9 8 19z" />
    <glyph glyph-name="Wdieresis" unicode="&#x1e84;" horiz-adv-x="1081" 
d="M36 700q29 4 105 4q70 0 100 -4q28 -2 28 -31q5 -121 29 -249q14 -125 43 -125q15 0 24.5 23t23.5 75q3 12 5 18q3 10 22.5 73.5t28.5 91.5q16 53 37 76.5t57 23.5q37 0 58.5 -23.5t36.5 -76.5q7 -19 50 -162q25 -91 36 -108q8 -13 19 -13q29 0 44 123q25 146 28 252v2
q0 26 29 30t102 4t104 -4q23 -3 23 -26v-6q-19 -166 -58 -344t-78 -297q-10 -26 -34 -27q-41 -4 -100 -4q-71 0 -103 4q-45 5 -54 38q-3 12 -17.5 78.5t-23.5 102.5q-31 134 -61 134t-63 -139q-29 -136 -39 -176q-5 -19 -18 -27t-36 -11q-32 -4 -100 -4q-63 0 -102 4
q-24 3 -34 27q-40 121 -78.5 298t-56.5 343v6q0 23 23 26zM377 860q22 19 58 19q37 0 59.5 -19.5t22.5 -52.5t-22 -52q-23 -19 -60 -19t-59 19t-22 52t23 53zM564 807q0 33 22 52.5t58 19.5q37 0 59.5 -19.5t22.5 -52.5t-22.5 -52t-59.5 -19q-36 0 -58 18.5t-22 49.5v3z" />
    <glyph glyph-name="wdieresis" unicode="&#x1e85;" horiz-adv-x="988" 
d="M41 544q27 4 91 4q66 0 91 -4q29 -5 31 -31q3 -103 29 -216q14 -81 35 -81q13 0 22 17.5t20 56.5q48 164 49 167q27 83 84 84q59 0 85 -84q9 -27 26 -88t23 -79q13 -41 21.5 -57t20.5 -16q20 0 36 80q26 123 29 215q0 27 31 32q32 4 91 4q64 0 91 -4q26 -5 26 -26v-5
q-22 -227 -121 -486q-9 -24 -39 -27q-54 -4 -95 -4q-54 0 -98 4q-38 5 -46 31q-4 14 -19.5 89t-31.5 127.5t-29 52.5t-29 -53t-32 -129.5t-19 -86.5q-8 -28 -47 -31q-43 -4 -97 -4q-56 0 -95 4q-30 3 -39 27q-40 99 -74.5 230.5t-46.5 255.5v5q0 21 26 26zM330 704
q22 19 58 19q37 0 59.5 -19.5t22.5 -52.5t-22 -52q-23 -19 -60 -19t-59 19t-22 52t23 53zM517 651q0 33 22 52.5t58 19.5q37 0 59.5 -19.5t22.5 -52.5t-22.5 -52t-59.5 -19q-36 0 -58 18.5t-22 49.5v3z" />
    <glyph glyph-name="Germandbls" unicode="&#x1e9e;" horiz-adv-x="856" 
d="M572 -7q-54 0 -123.5 12t-116.5 28q-20 8 -20 31l3 128q1 20 13.5 25t22.5 -6q77 -59 180 -59q81 0 81 62q0 36 -59 69.5t-153 53.5q-30 5 -41.5 22t-0.5 35t42 28q70 23 102 50.5t32 53.5q0 32 -53 32l-162 1q-46 0 -47 -38q-8 -214 7 -487q1 -16 -8 -24t-27 -10
q-88 -9 -187 0q-14 2 -22.5 11t-8.5 22q0 287 26 639q2 26 28 28q119 7 308 7q229 0 326 -7q24 -3 38 -18t14 -36q1 -42 -18.5 -87t-66 -89.5t-112.5 -68.5q-11 -4 -15 -10t0 -11t14 -7q142 -18 208 -71t66 -123q0 -83 -73.5 -134.5t-196.5 -51.5z" />
    <glyph glyph-name="Ygrave" unicode="&#x1ef2;" horiz-adv-x="798" 
d="M18 689q8 10 22 11q30 4 97 4q77 0 108 -4q26 -4 28 -28q8 -60 26.5 -122t46 -106.5t53.5 -44.5q39 0 78.5 91.5t47.5 181.5q2 25 28 28q30 4 107 4q67 0 98 -4q14 -1 21.5 -10t7.5 -20v-5q-8 -109 -90 -224.5t-178 -136.5q-15 -3 -15 -17q0 -4 1 -8q23 -135 32 -249v-2
q0 -11 -8.5 -18.5t-20.5 -9.5q-36 -4 -106 -4q-74 0 -113 4q-12 2 -20 9.5t-8 18.5v2q6 89 33 250q1 3 1 6q0 14 -15 19q-97 25 -179 138.5t-90 221.5v3q0 12 7 21zM223 882q5 13 28 13h94q26 0 40 -22l53 -85q8 -10 8 -19q0 -5 -4.5 -13t-25.5 -8h-41q-24 0 -41 16l-98 90
q-14 11 -14 22q0 3 1 6z" />
    <glyph glyph-name="ygrave" unicode="&#x1ef3;" horiz-adv-x="772" 
d="M12 -176q2 20 5 71.5t4 67.5q2 17 11 22t15 5q7 0 14 -5q97 -56 224 -56q90 0 162 50t72 112v16q0 11 -4 14.5t-7 3.5t-7 -2t-8 -11q-52 -113 -207 -113q-125 0 -191 66t-66 182q1 102 23 267q3 27 28 30q43 5 88 5q65 0 101 -5q13 -2 19.5 -9.5t6.5 -17.5v-5
q-27 -131 -27 -202q0 -67 30.5 -108t93.5 -41q51 0 81.5 45.5t30.5 112.5q0 82 -18 193v5q0 9 6.5 17t18.5 10q42 5 100 5q45 0 88 -5q11 -1 18.5 -10t9.5 -21q22 -231 22 -452v-19q0 -92 -58 -157.5t-145.5 -94.5t-192.5 -29q-204 0 -317 29q-24 7 -24 30v4zM203 726
q5 13 28 13h94q26 0 40 -22l53 -85q8 -10 8 -19q0 -5 -4.5 -13t-25.5 -8h-41q-24 0 -41 16l-98 90q-14 11 -14 22q0 3 1 6z" />
    <glyph glyph-name="endash" unicode="&#x2013;" horiz-adv-x="548" 
d="M481 182h-413q-36 0 -36 36v48q0 36 36 36h413q35 0 35 -36v-48q0 -36 -35 -36z" />
    <glyph glyph-name="emdash" unicode="&#x2014;" horiz-adv-x="729" 
d="M661 183h-593q-36 0 -36 35v48q0 36 36 36h593q36 0 36 -36v-48q0 -35 -36 -35z" />
    <glyph glyph-name="quoteleft" unicode="&#x2018;" horiz-adv-x="268" 
d="M159 810l22 -27q18 -22 -6 -39q-16 -11 -27 -27q-5 -5 -3 -11t10 -5q40 3 69 -27t29 -78q0 -51 -33 -79t-86 -28q-54 0 -86.5 34t-32.5 92q1 66 31 119.5t75 82.5q20 14 38 -7z" />
    <glyph glyph-name="quoteright" unicode="&#x2019;" horiz-adv-x="268" 
d="M109 502l-23 27q-18 22 7 38q16 11 27 27q5 6 3 11.5t-11 4.5q-39 -3 -68 27.5t-29 78.5q0 51 33 79t86 28t86 -34.5t33 -91.5q-1 -67 -31 -120.5t-75 -82.5q-21 -14 -38 8z" />
    <glyph glyph-name="quotesinglbase" unicode="&#x201a;" horiz-adv-x="268" 
d="M109 -112l-23 27q-18 22 7 38q13 9 27 27q5 6 3 12t-11 5q-39 -3 -68 27t-29 78q0 51 33 79t86 28t86 -34t33 -92q-1 -66 -31 -120t-75 -83q-21 -14 -38 8z" />
    <glyph glyph-name="quotedblleft" unicode="&#x201c;" horiz-adv-x="539" 
d="M159 810l22 -27q18 -22 -6 -39q-16 -11 -27 -27q-5 -5 -3 -11t10 -5q40 3 69 -27t29 -78q0 -51 -33 -79t-86 -28q-54 0 -86.5 34t-32.5 92q1 66 31 119.5t75 82.5q20 14 38 -7zM430 810l22 -27q18 -22 -6 -39q-16 -11 -27 -27q-5 -5 -3 -11t10 -5q40 3 69 -27t29 -78
q0 -51 -33 -79t-86 -28q-54 0 -86.5 34t-32.5 92q1 66 31 119.5t75 82.5q20 14 38 -7z" />
    <glyph glyph-name="quotedblright" unicode="&#x201d;" horiz-adv-x="539" 
d="M109 502l-23 27q-18 22 7 38q16 11 27 27q5 6 3 11.5t-11 4.5q-39 -3 -68 27.5t-29 78.5q0 51 33 79t86 28t86 -34.5t33 -91.5q-1 -67 -31 -120.5t-75 -82.5q-21 -14 -38 8zM380 502l-23 27q-18 22 7 38q16 11 27 27q5 6 3 11.5t-11 4.5q-39 -3 -68 27.5t-29 78.5
q0 51 33 79t86 28t86 -34.5t33 -91.5q-1 -67 -31 -120.5t-75 -82.5q-21 -14 -38 8z" />
    <glyph glyph-name="quotedblbase" unicode="&#x201e;" horiz-adv-x="539" 
d="M109 -112l-23 27q-18 22 7 38q13 9 27 27q5 6 3 12t-11 5q-39 -3 -68 27t-29 78q0 51 33 79t86 28t86 -34t33 -92q-1 -66 -31 -120t-75 -83q-21 -14 -38 8zM380 -112l-23 27q-18 22 7 38q13 9 27 27q5 6 3 12t-11 5q-39 -3 -68 27t-29 78q0 51 33 79t86 28t86 -34t33 -92
q-1 -66 -31 -120t-75 -83q-21 -14 -38 8z" />
    <glyph glyph-name="bullet" unicode="&#x2022;" horiz-adv-x="353" 
d="M178 96q-62 0 -105 42.5t-43 103.5t43 104t105 43q61 0 104 -43t43 -104t-43 -103.5t-104 -42.5z" />
    <glyph glyph-name="ellipsis" unicode="&#x2026;" horiz-adv-x="806" 
d="M133 -6q-52 0 -85 28.5t-33 78.5q0 51 33 79.5t85 28.5q53 0 85.5 -29t32.5 -80q0 -50 -33 -78t-85 -28zM405 -6q-52 0 -85 28.5t-33 78.5q0 51 33 79.5t85 28.5q53 0 85.5 -29t32.5 -80q0 -50 -33 -78t-85 -28zM673 -6q-52 0 -85 28.5t-33 78.5q0 51 33 79.5t85 28.5
q53 0 85.5 -29t32.5 -80q0 -50 -33 -78t-85 -28z" />
    <glyph glyph-name="guilsinglleft" unicode="&#x2039;" horiz-adv-x="287" 
d="M232 63h-47q-26 0 -40 19l-109 137q-19 23 0 47l108 135q16 19 41 19h46q22 0 28 -12t-8 -29l-90 -112q-19 -23 0 -48l90 -115q14 -16 8.5 -28.5t-27.5 -12.5z" />
    <glyph glyph-name="guilsinglright" unicode="&#x203a;" horiz-adv-x="287" 
d="M102 63h-47q-21 0 -26.5 12.5t7.5 28.5l90 115q20 24 0 48l-90 112q-13 17 -7 29t27 12h46q25 0 41 -19l109 -135q18 -23 0 -47l-109 -137q-15 -19 -41 -19z" />
    <glyph glyph-name="Euro" unicode="&#x20ac;" horiz-adv-x="901" 
d="M530 -8q-163 0 -274.5 59t-147.5 175q-6 21 -27 21h-60q-23 0 -23 25v23q0 25 23 25h50q22 0 22 25v9q0 25 -22 25h-50q-23 0 -23 25v23q0 24 23 24h65q20 0 29 22q40 106 148.5 170.5t255.5 64.5q157 0 289 -60q19 -10 17 -35q-2 -31 -14 -146q-2 -15 -20 -17.5
t-34 12.5q-46 47 -96.5 67.5t-144.5 20.5q-120 0 -165 -67q-13 -10 -8.5 -21t21.5 -11h321q23 0 23 -24v-23q0 -25 -23 -25h-365q-31 0 -31 -23v-12q0 -24 30 -24h366q23 0 23 -25v-23q0 -25 -23 -25h-324q-16 0 -21 -11t7 -20q25 -34 67 -48.5t112 -14.5q175 0 277 88
q16 10 33.5 4.5t18.5 -29.5l11 -144q0 -25 -22 -33q-49 -20 -146 -33.5t-168 -13.5z" />
    <glyph glyph-name="i.loclTRK" horiz-adv-x="304" 
d="M29 31q0 278 18 485q1 25 26 28q31 4 81 4q49 0 77 -4q23 -3 26 -28q17 -213 17 -486q0 -12 -7.5 -20t-18.5 -10q-36 -4 -93 -4q-62 0 -99 4q-11 2 -19 10.5t-8 20.5zM71 651q0 33 22.5 52.5t58.5 19.5q37 0 59.5 -19.5t22.5 -52.5t-22 -52q-23 -19 -60 -19t-59 19
t-22 52z" />
    </font>
</defs>
</svg>
