<?xml version="1.0" standalone="no"?>
<!DOCTYPE svg PUBLIC "-//W3C//DTD SVG 1.1//EN" "http://www.w3.org/Graphics/SVG/1.1/DTD/svg11.dtd" >
<svg xmlns="http://www.w3.org/2000/svg" xmlns:xlink="http://www.w3.org/1999/xlink" version="1.1">
<metadata>
Created by FontForge 20170731 at Sun Feb 17 16:40:22 2019
 By Aleksey,,,
Copyright (c) 2018 by Cahya Sofyan. All rights reserved. Desktop use is strictly prohibited.
</metadata>
<defs>
<font id="Matahari-900Black" horiz-adv-x="1325" >
  <font-face 
    font-family="Matahari 900 Black"
    font-weight="900"
    font-stretch="normal"
    units-per-em="2048"
    panose-1="2 0 9 3 0 0 0 2 0 4"
    ascent="1536"
    descent="-512"
    x-height="1030"
    cap-height="1434"
    bbox="-455 -995 3127 2247"
    underline-thickness="0"
    underline-position="0"
    unicode-range="U+000D-FB04"
  />
<missing-glyph horiz-adv-x="1269" 
d="M934 387v657h-8l-189 -327l189 -330h8zM459 1210v-8l172 -301h8l172 301v8h-352zM811 223v8l-172 301h-8l-172 -301v-8h352zM121 1434h1028v-1434h-1028v1434zM336 387h8l188 330l-188 327h-8v-657z" />
    <glyph glyph-name="uniFB00" unicode="ff" horiz-adv-x="1613" 
d="M905 737h-346v-737h-346v737h-219v293h219v88q0 176 133 291t338 115q74 0 156 -15l-11 -307q-47 10 -104 10q-166 0 -166 -159v-23h346v88q0 176 133 291t338 115q106 0 230 -31l-29 -309q-70 29 -160 28q-166 0 -166 -159v-23h353v-293h-353v-737h-346v737z" />
    <glyph glyph-name="uniFB01" unicode="fi" horiz-adv-x="1339" 
d="M557 1053v-23h688v-1030h-346v737h-342v-737h-346v737h-217v293h217v88q0 174 146.5 290t353.5 116q188 0 356 -47l-55 -310q-160 45 -262 45q-80 0 -136.5 -40.5t-56.5 -118.5z" />
    <glyph glyph-name="uniFB02" unicode="fl" horiz-adv-x="1443" 
d="M1081 1403l54 88h186v-1491h-346v1110q-109 102 -225 102q-80 0 -136.5 -41t-56.5 -118v-23h303v-293h-303v-737h-346v737h-217v293h217v88q0 176 139 291t355 115q208 0 376 -121z" />
    <glyph glyph-name="uniFB03" unicode="ffi" horiz-adv-x="2029" 
d="M1251 1053v-23h686v-1030h-346v737h-340v-737h-346v737h-346v-737h-346v737h-219v293h219v88q0 176 133 291t338 115q74 0 156 -15l-9 -307q-49 10 -106 10q-166 0 -166 -159v-23h346v88q0 174 145.5 290t352.5 116q190 0 358 -47l-57 -310q-160 45 -260 45
q-82 0 -137.5 -40.5t-55.5 -118.5z" />
    <glyph glyph-name="uniFB04" unicode="ffl" horiz-adv-x="2134" 
d="M1776 1401l51 88h186v-1489h-346v1112q-106 100 -225 100q-80 0 -136.5 -41t-56.5 -118v-23h301v-293h-301v-737h-346v737h-346v-737h-346v737h-217v293h217v88q0 176 134 291t337 115q74 0 156 -15l-9 -307q-49 10 -106 10q-166 0 -166 -159v-23h346v88q0 176 139.5 289
t354.5 113q211 0 379 -119z" />
    <glyph glyph-name="T_h.liga" unicode="Th" horiz-adv-x="2453" 
d="M1878 1059q201 0 327 -146.5t126 -375.5v-537h-346v524q0 92 -61.5 151.5t-154.5 59.5q-92 2 -152.5 -57.5t-60.5 -151.5v-526h-346v1100h-403v-1100h-367v1100h-411v334h1527v-510h7q116 135 315 135z" />
    <glyph glyph-name="f_b.liga" unicode="fb" horiz-adv-x="2179" 
d="M2111 514q0 -238 -132 -391.5t-332 -153.5q-240 0 -375 209h-6l-107 -178h-184v1108q-109 104 -225 104q-80 0 -136.5 -41t-56.5 -118v-23h301v-293h-301v-737h-346v737h-217v293h217v88q0 176 139 291t357 115q207 0 376 -123l54 88h184v-567h6q127 137 320 137
q201 0 332.5 -153.5t131.5 -391.5zM1321 514q0 -96 61.5 -158.5t157.5 -62.5t157.5 62.5t61.5 158.5t-61.5 158.5t-157.5 62.5q-94 2 -156.5 -60.5t-62.5 -158.5v-2z" />
    <glyph glyph-name="f_f_j.liga" unicode="ffj" horiz-adv-x="2031" 
d="M1251 1030h686v-1118q0 -178 -134 -293t-337 -113q-82 0 -178 19l23 307q47 -14 114 -14q166 0 166 159v760h-340v-737h-346v737h-346v-737h-346v737h-219v293h219v88q0 176 133 291t338 115q74 0 156 -15l-11 -307q-47 10 -104 10q-166 0 -166 -159v-23h346v88
q0 174 145.5 290t352.5 116q190 0 358 -47l-57 -310q-160 45 -260 45q-82 0 -137.5 -41t-55.5 -118v-23z" />
    <glyph glyph-name="f_h.liga" unicode="fh" horiz-adv-x="2217" 
d="M1642 1059q201 0 327 -146.5t126 -375.5v-537h-346v524q0 92 -61.5 151.5t-153.5 59.5q-92 2 -152.5 -56t-60.5 -151v-528h-346v1108q-109 104 -223 104q-82 0 -138.5 -41t-56.5 -118v-23h301v-293h-301v-737h-346v737h-217v293h217v88q2 176 141.5 291t354.5 115
q207 0 376 -123l54 88h184v-565h8q114 135 313 135z" />
    <glyph glyph-name="f_j.liga" unicode="fj" horiz-adv-x="1337" 
d="M557 1053v-23h686v-1110q0 -178 -133 -292.5t-338 -112.5q-82 0 -178 18l22 307q51 -14 115 -14q166 0 166 160v751h-340v-737h-346v737h-217v293h217v88q0 174 145.5 290t352.5 116q190 0 358 -47l-57 -310q-160 45 -260 45q-80 0 -136.5 -40.5t-56.5 -118.5z" />
    <glyph glyph-name="f_k.liga" unicode="fk" horiz-adv-x="2072" 
d="M2052 1030l-373 -414l400 -616h-367l-252 381l-139 -158v-223h-346v1108q-109 104 -225 104q-80 0 -136.5 -41t-56.5 -118v-23h301v-293h-301v-737h-346v737h-217v293h217v88q0 176 139 291t357 115q207 0 376 -123l54 88h184v-850h6l340 391h385z" />
    <glyph glyph-name="f_t.liga" unicode="ft" horiz-adv-x="1628" 
d="M1413 281q98 0 168 28l29 -309q-141 -31 -238 -31q-203 0 -333 115t-132 293v360h-348v-737h-346v737h-219v293h219v88q0 174 145.5 290t352.5 116q152 0 296 -44t246 -110v-340h355v-293h-355v-297q0 -159 160 -159zM559 1030h348v199q-72 20 -155 20q-82 0 -137.5 -41
t-55.5 -118v-60z" />
    <glyph glyph-name="f_y.liga" unicode="fy" horiz-adv-x="1908" 
d="M1374 399l217 631h346l-387 -1114q-78 -227 -208 -317.5t-357 -87.5q-84 0 -154 18v319q78 -27 181 -26q127 0 186 96l-315 819h-326v-737h-346v737h-217v293h217v88q0 176 134 291t339 115q109 0 227 -31l-26 -309q-70 29 -162 28q-78 0 -122 -39.5t-44 -119.5v-23h580
l229 -631h8z" />
    <glyph glyph-name="r_f.liga" unicode="rf" horiz-adv-x="1587" 
d="M1225 1053v-23h354v-293h-354v-737h-346v735h-41q-68 0 -126.5 -14t-116.5 -48t-92 -103.5t-34 -170.5v-399h-346v1030h184l123 -209h2q63 115 171 176.5t237 61.5h39v59q0 176 134 291t339 115q109 0 227 -31l-27 -309q-70 29 -161 28q-78 0 -122 -39.5t-44 -119.5z" />
    <glyph glyph-name="r_t.liga" unicode="rt" horiz-adv-x="1587" 
d="M1540 307l29 -309q-129 -29 -238 -31q-205 0 -334 115t-129 293l-2 360h-28q-68 0 -126.5 -14t-116.5 -48t-92 -103.5t-34 -170.5v-399h-346v1030h184l123 -209h2q63 115 171 176.5t237 61.5h43l86 309h243v-338h355v-293h-355v-297q2 -160 160 -159q102 -1 168 26z" />
    <glyph glyph-name="t_f.liga" unicode="tf" horiz-adv-x="1736" 
d="M1540 1212q-166 0 -168 -159v-23h354v-293h-354v-737h-346l2 737h-457v-297q0 -160 158 -159q70 0 129 14l16 -309q-82 -16 -184 -17q-203 0 -333 115t-132 293v360h-217v293h223l97 340h243v-340h457v88q0 176 133 291t338 115q106 0 230 -31l-29 -309q-70 28 -160 28z
" />
    <glyph glyph-name="t_t.liga" unicode="tt" horiz-adv-x="1732" 
d="M1686 307l28 -309q-129 -29 -237 -31q-205 0 -335 115t-130 293v362h-441v-297q0 -160 160 -159q68 0 127 14l16 -309q-82 -16 -184 -17q-203 0 -333 115t-132 293v360h-217v293h223l97 340h243v-340h447l96 338h244v-338h354v-293h-354v-297q0 -160 158 -159
q104 -1 170 26z" />
    <glyph glyph-name=".notdef" horiz-adv-x="1269" 
d="M934 387v657h-8l-189 -327l189 -330h8zM459 1210v-8l172 -301h8l172 301v8h-352zM811 223v8l-172 301h-8l-172 -301v-8h352zM121 1434h1028v-1434h-1028v1434zM336 387h8l188 330l-188 327h-8v-657z" />
    <glyph glyph-name="glyph1" horiz-adv-x="0" 
 />
    <glyph glyph-name="glyph2" horiz-adv-x="681" 
 />
    <glyph glyph-name="glyph3" horiz-adv-x="0" 
 />
    <glyph glyph-name="glyph3" horiz-adv-x="0" 
 />
    <glyph glyph-name="uni000D" unicode="&#xd;" horiz-adv-x="530" 
 />
    <glyph glyph-name="space" unicode=" " horiz-adv-x="530" 
 />
    <glyph glyph-name="exclam" unicode="!" horiz-adv-x="585" 
d="M420 457h-254l-55 977h366zM293 373q84 0 143.5 -58.5t59.5 -140.5q0 -84 -60.5 -144.5t-142.5 -60.5t-141.5 60.5t-59.5 144.5q0 82 59.5 140.5t141.5 58.5z" />
    <glyph glyph-name="quotedbl" unicode="&#x22;" horiz-adv-x="894" 
d="M246 1464q72 0 122 -48t50 -128q0 -16 -25.5 -115.5t-52.5 -191.5l-25 -92h-137q-102 362 -102 399q0 80 48 128t122 48zM715 889h-135q-102 362 -103 399q0 80 48 128t122 48t122 -48t48 -128q0 -16 -25.5 -115.5t-50.5 -191.5z" />
    <glyph glyph-name="numbersign" unicode="#" horiz-adv-x="1277" 
d="M1233 1434l-94 -330h133v-264h-207l-70 -244h226v-264h-299l-93 -332h-309l94 332h-168l-92 -332h-307l90 332h-131v264h207l68 244h-224v264h297l95 330h309l-94 -330h167l93 330h309zM688 596l68 244h-168l-68 -244h168z" />
    <glyph glyph-name="dollar" unicode="$" horiz-adv-x="1378" 
d="M758 885q274 -59 412.5 -165t138.5 -296q0 -184 -120 -296t-327 -144v-193h-299v189q-137 18 -276.5 67t-231.5 109l135 290q227 -154 506 -153q92 0 160 27.5t68 80.5q0 47 -63.5 83t-213.5 69q-272 61 -413.5 168.5t-141.5 310.5q0 172 126 281.5t345 140.5v188h299
v-188q217 -33 369 -123l-101 -307q-203 115 -411 115q-123 0 -183.5 -30t-60.5 -73q0 -49 64.5 -82.5t218.5 -68.5z" />
    <glyph glyph-name="percent" unicode="%" horiz-adv-x="2179" 
d="M2154 401q0 -182 -121.5 -307t-314.5 -125q-184 0 -310 121t-126 311q0 182 122 306t314 124q184 0 310 -120t126 -310zM463 604q-184 0 -310 121t-126 311q0 180 121.5 304t314.5 124q184 0 311 -118.5t127 -309.5q0 -182 -121.5 -307t-316.5 -125zM1599 1434
l-647 -1434h-366l647 1434h366zM467 1217q-72 0 -118 -53.5t-46 -131.5q0 -80 47 -132t117 -52q72 0 118 54t46 130q0 82 -47 133.5t-117 51.5zM1556 399q0 -82 47.5 -133t116.5 -51q72 0 118 53.5t46 130.5q0 80 -47 131.5t-117 51.5q-72 0 -118 -52.5t-46 -130.5z" />
    <glyph glyph-name="ampersand" unicode="&#x26;" horiz-adv-x="1568" 
d="M557 -31q-225 0 -369.5 112t-144.5 302q0 274 287 408q2 2 2 6q-90 131 -90 274q0 164 123.5 278.5t326.5 114.5q193 0 311.5 -106.5t118.5 -265.5q0 -221 -327 -326v-6l198 -197h6v250h537v-268h-180q-76 -145 -142 -195v-4q94 -94 295 -94l-65 -283q-305 0 -457 144
q-2 0 -4 2q-184 -146 -426 -146zM512 571q-98 -59 -98 -149q0 -63 46 -102t119.5 -39t161.5 57v6l-225 227h-4zM682 1169q-47 0 -77 -34.5t-30 -85.5q0 -61 52 -119h4q158 51 157 139q0 45 -29.5 72.5t-76.5 27.5z" />
    <glyph glyph-name="quotesingle" unicode="'" horiz-adv-x="489" 
d="M313 889h-135q-102 362 -102 399q0 80 48 128t121.5 48t122 -48t48.5 -128q0 -16 -25.5 -115.5t-50.5 -191.5z" />
    <glyph glyph-name="parenleft" unicode="(" horiz-adv-x="643" 
d="M354 1599l297 -165q-233 -379 -233 -827.5t233 -827.5l-297 -162q-147 186 -225 445.5t-78 543.5q0 283 78 545t225 448z" />
    <glyph glyph-name="parenright" unicode=")" horiz-adv-x="641" 
d="M-8 1434l297 165q147 -186 225 -448t78 -545q0 -285 -78 -544t-225 -445l-297 162q233 379 233 827.5t-233 827.5z" />
    <glyph glyph-name="asterisk" unicode="*" horiz-adv-x="870" 
d="M836 1130l-267 -79v-9l267 -79l-131 -222l-201 191l-8 -4l63 -269h-250l64 269l-6 4l-203 -191l-131 222l268 79v9l-268 79l131 222l203 -191l6 4l-64 269h250l-63 -269l8 -4l201 191z" />
    <glyph glyph-name="plus" unicode="+" horiz-adv-x="1060" 
d="M705 1092v-342h339v-347h-339v-342h-347v342h-342v347h342v342h347z" />
    <glyph glyph-name="comma" unicode="," horiz-adv-x="573" 
d="M274 346q92 0 156 -67.5t64 -182.5q0 -129 -66 -241.5t-180 -192.5l-137 111q55 27 110 87t74 117q-25 -8 -51 -8q-72 0 -120 49.5t-48 128.5q0 82 59 140.5t139 58.5z" />
    <glyph glyph-name="hyphen" unicode="-" horiz-adv-x="1005" 
d="M987 831v-346h-969v346h969z" />
    <glyph glyph-name="period" unicode="." horiz-adv-x="585" 
d="M293 -31q-82 0 -142.5 61.5t-60.5 143.5t60.5 141.5t142.5 59.5q84 0 143.5 -59.5t59.5 -141.5q0 -84 -60.5 -144.5t-142.5 -60.5z" />
    <glyph glyph-name="slash" unicode="/" horiz-adv-x="843" 
d="M887 1520l-641 -1878l-289 98l641 1880z" />
    <glyph glyph-name="zero" unicode="0" horiz-adv-x="1327" 
d="M663.5 1464q264.5 0 432.5 -201.5t168 -545.5q0 -346 -168 -547t-432.5 -201t-432.5 201t-168 547q0 344 168 545.5t432.5 201.5zM663.5 303q108.5 0 173 106.5t64.5 307.5q0 199 -64.5 306t-173 107t-173 -107.5t-64.5 -305.5q0 -201 64.5 -307.5t173 -106.5z" />
    <glyph glyph-name="one" unicode="1" horiz-adv-x="1327" 
d="M848 1434v-1100h344v-334h-1057v334h346v631h-6l-143 -115l-193 250l391 334h318z" />
    <glyph glyph-name="two" unicode="2" horiz-adv-x="1327" 
d="M707 336v-8h473v-328h-1033v272l437 361q137 111 177 185.5t40 156.5q0 70 -59.5 115t-135.5 45q-170 0 -321 -127l-117 282q213 174 442 174q242 0 400.5 -128t158.5 -353q0 -143 -80.5 -275.5t-257.5 -275.5z" />
    <glyph glyph-name="three" unicode="3" horiz-adv-x="1327" 
d="M930 754q129 -33 209 -125t80 -240q0 -174 -155 -297t-450 -123q-301 0 -505 125l104 297q180 -100 352 -98q129 0 208 50t79 112q0 137 -236 137h-266v297h244q207 0 207 117q0 61 -73 99t-200 38q-162 4 -286 -90l-86 290q160 121 440 121q244 0 403.5 -109.5
t159.5 -285.5q0 -111 -61.5 -190.5t-167.5 -116.5v-8z" />
    <glyph glyph-name="four" unicode="4" horiz-adv-x="1327" 
d="M1083 827v-258h217v-293h-217v-276h-372v276h-588l-96 259l573 899h432l-557 -859v-8h236v260h372z" />
    <glyph glyph-name="five" unicode="5" horiz-adv-x="1327" 
d="M788 936q197 0 320 -115.5t123 -331.5q0 -242 -156.5 -381t-423.5 -139q-305 0 -555 131l92 303q209 -106 443 -106q109 0 172 49t63 127q0 80 -59 125t-160 45q-152 0 -278 -108l-234 61v838h1000v-330h-629l-2 -254q2 0 4 -1t4 -1q88 88 276 88z" />
    <glyph glyph-name="six" unicode="6" horiz-adv-x="1327" 
d="M778 938q199 0 335 -120t136 -333q0 -236 -162.5 -376t-404.5 -140q-281 0 -444 185q-162 176 -162 522q0 207 80 383t247.5 290.5t391.5 114.5q213 0 385 -82l-97 -321q-111 72 -282 72q-141 0 -225 -78t-103 -211q-2 -16 -2 -39h6q117 133 301 133zM670 264
q94 0 155.5 56.5t61.5 144.5q0 86 -61.5 142.5t-156 56.5t-155.5 -56.5t-61 -142.5t62.5 -143.5t154.5 -57.5z" />
    <glyph glyph-name="seven" unicode="7" horiz-adv-x="1327" 
d="M164 1128v306h997v-242l-491 -1192h-396l471 1128h-581z" />
    <glyph glyph-name="eight" unicode="8" horiz-adv-x="1327" 
d="M1001 741q111 -57 174.5 -147t63.5 -203q0 -184 -163 -303t-412.5 -119t-412.5 119t-163 303q0 113 62.5 204t175.5 146q8 4 0 9q-188 115 -189 313q0 174 149.5 287.5t377 113.5t377 -113.5t149.5 -287.5q0 -199 -191 -313q-4 -5 2 -9zM663.5 1153q-75.5 0 -123.5 -41
t-48 -104q0 -66 48 -107t123.5 -41t124 41t48.5 107q0 63 -48.5 104t-124 41zM664 289q88 0 145 44t57 113.5t-57 114.5t-145 45q-90 0 -146.5 -45t-56.5 -114.5t56.5 -113.5t146.5 -44z" />
    <glyph glyph-name="nine" unicode="9" horiz-adv-x="1327" 
d="M641 1464q283 0 446 -184q162 -184 162 -522q0 -207 -79.5 -383t-247.5 -291t-394 -115q-211 0 -383 82l97 322q113 -74 280 -74q141 0 226.5 79t103.5 212v16q2 16 2 23h-6q-119 -133 -301 -133q-199 0 -335 118.5t-136 331.5q0 236 162.5 377t402.5 141zM655.5 768
q94.5 0 155.5 56.5t61 144.5q0 86 -63.5 143t-153.5 57q-94 0 -155.5 -57t-61.5 -143q0 -88 61.5 -144.5t156 -56.5z" />
    <glyph glyph-name="colon" unicode=":" horiz-adv-x="585" 
d="M293 653q-82 0 -142.5 61.5t-60.5 143.5t60.5 141.5t142.5 59.5q84 0 143.5 -59.5t59.5 -141.5q0 -84 -60.5 -144.5t-142.5 -60.5zM293 -31q-82 0 -142.5 61.5t-60.5 143.5t60.5 141.5t142.5 59.5q84 0 143.5 -59.5t59.5 -141.5q0 -84 -60.5 -144.5t-142.5 -60.5z" />
    <glyph glyph-name="semicolon" unicode=";" horiz-adv-x="573" 
d="M278.5 653q-81.5 0 -142 61.5t-60.5 143.5t60.5 141.5t142.5 59.5q84 0 143 -59.5t59 -141.5q0 -84 -60.5 -144.5t-142 -60.5zM274 348q92 0 156 -67.5t64 -182.5q0 -129 -66 -241.5t-180 -192.5l-137 111q55 27 110 87t74 118q-25 -8 -51 -9q-72 0 -120 49.5t-48 129.5
q0 82 59 140t139 58z" />
    <glyph glyph-name="less" unicode="&#x3c;" horiz-adv-x="1015" 
d="M999 754l-573 -197v-6l573 -201v-313l-983 381v264l983 391v-319z" />
    <glyph glyph-name="equal" unicode="=" horiz-adv-x="1054" 
d="M1038 942v-280h-1022v280h1022zM1038 461v-281h-1022v281h1022z" />
    <glyph glyph-name="greater" unicode="&#x3e;" horiz-adv-x="1015" 
d="M590 557l-574 197v319l983 -391v-264l-983 -381v313l574 201v6z" />
    <glyph glyph-name="question" unicode="?" horiz-adv-x="864" 
d="M346 373q84 0 143.5 -58.5t59.5 -140.5q0 -84 -60.5 -144.5t-142.5 -60.5t-142.5 60.5t-60.5 144.5q0 82 59.5 140.5t143.5 58.5zM365 1464q195 0 332 -93t137 -269q0 -66 -19.5 -126.5t-67 -121.5t-71 -87t-82.5 -87q-82 -82 -74 -223h-346q-8 82 10.5 149.5t44 102
t76.5 92.5q23 25 62 62.5t56 57t33.5 50t16.5 61.5q0 53 -50 88t-120 35q-131 0 -235 -78l-66 283q127 104 363 104z" />
    <glyph glyph-name="at" unicode="@" horiz-adv-x="1492" 
d="M696 -362q-311 0 -499.5 205.5t-163.5 502.5q25 295 250 504t528 209q297 0 483.5 -188.5t163.5 -442.5q-18 -213 -114.5 -324.5t-235.5 -111.5q-207 0 -260 153h-6q-37 -66 -105.5 -107.5t-146.5 -41.5q-129 0 -206 89t-65 237q14 172 132 296.5t264 124.5
q84 0 132 -38.5t62 -92.5h9l32 111h258l-102 -391q-10 -37 -12 -70q-10 -117 67 -117q55 0 110.5 69t67.5 214q18 223 -134 373.5t-398 150.5q-248 0 -440.5 -172t-214.5 -434q-20 -268 136 -434t412 -166q205 0 408 115l29 -103q-210 -120 -441 -120zM825 379
q10 63 -20.5 104t-83.5 41q-57 0 -95 -49t-44 -127q-4 -61 25.5 -97t82.5 -36q108 0 135 164z" />
    <glyph glyph-name="A" unicode="A" horiz-adv-x="1490" 
d="M537 1434h417l549 -1434h-416l-71 215h-539l-71 -215h-418zM750 1008h-9l-166 -498h343z" />
    <glyph glyph-name="B" unicode="B" horiz-adv-x="1460" 
d="M1102 762q129 -45 203.5 -137.5t74.5 -223.5q0 -174 -140 -287.5t-353 -113.5h-760v1434h707q217 0 350 -104.5t133 -272.5q0 -199 -215 -287v-8zM872 324q63 0 103.5 35.5t40.5 91t-40 91.5t-104 36h-378v-254h378zM801 1110h-307v-252h307q66 0 106.5 35t40.5 90
q0 57 -40.5 92t-106.5 35z" />
    <glyph glyph-name="C" unicode="C" horiz-adv-x="1345" 
d="M883 305q94 0 202.5 28.5t174.5 67.5l61 -325q-190 -106 -451 -107q-352 0 -573 203t-221 532.5t220 544.5t574 215q231 0 424 -96l-92 -334q-150 94 -332 94q-201 0 -314.5 -122.5t-113.5 -300.5q0 -184 123 -292t318 -108z" />
    <glyph glyph-name="D" unicode="D" horiz-adv-x="1511" 
d="M735 1434q305 0 502 -202t197 -515.5t-197 -515t-502 -201.5h-608v1434h608zM735 334q141 0 232.5 107.5t91.5 275.5t-91 275.5t-233 107.5h-241v-766h241z" />
    <glyph glyph-name="E" unicode="E" horiz-adv-x="1378" 
d="M494 545v-211h809v-334h-1176v1434h1159v-334h-792v-256h729v-299h-729z" />
    <glyph glyph-name="F" unicode="F" horiz-adv-x="1302" 
d="M127 0v1434h1145v-334h-778v-328h694v-299h-694v-473h-367z" />
    <glyph glyph-name="G" unicode="G" horiz-adv-x="1523" 
d="M838 541v293l602 2v-693q-143 -86 -274.5 -130t-295.5 -44q-358 0 -576 202t-218 529q0 330 220 547t574 217q289 0 488 -112l-115 -312q-150 88 -358 88q-201 0 -322 -122.5t-121 -305.5q0 -176 119 -285.5t309 -109.5q121 0 203 37v199h-235z" />
    <glyph glyph-name="H" unicode="H" horiz-adv-x="1519" 
d="M1028 879v555h367v-1434h-367v526h-534v-526h-367v1434h367v-555h534z" />
    <glyph glyph-name="I" unicode="I" horiz-adv-x="620" 
d="M127 0v1434h367v-1434h-367z" />
    <glyph glyph-name="J" unicode="J" horiz-adv-x="952" 
d="M465 559v875h366v-883q0 -287 -139 -434.5t-411 -147.5q-164 0 -301 62l75 315q102 -41 219 -41q191 0 191 254z" />
    <glyph glyph-name="K" unicode="K" horiz-adv-x="1513" 
d="M1466 1436l-540 -582l581 -854h-448l-410 608l-155 -166v-442h-367v1434h367v-572h8l516 574h448z" />
    <glyph glyph-name="L" unicode="L" horiz-adv-x="1277" 
d="M494 1434v-1100h743v-334h-1110v1434h367z" />
    <glyph glyph-name="M" unicode="M" horiz-adv-x="1875" 
d="M487 868v-868h-366v1434h471l342 -824h8l342 824h471v-1434h-366v868h-7l-348 -868h-192l-348 868h-7z" />
    <glyph glyph-name="N" unicode="N" horiz-adv-x="1521" 
d="M494 774v-774h-367v1434h305l588 -777h8v777h367v-1434h-308l-587 774h-6z" />
    <glyph glyph-name="O" unicode="O" horiz-adv-x="1622" 
d="M811 1464q319 0 527 -211t208 -536.5t-208 -536.5t-527 -211t-527 211t-208 536.5t208 536.5t527 211zM811 305q162 0 265.5 116t103.5 296t-103.5 295.5t-265.5 115.5t-264.5 -115.5t-102.5 -295.5t102.5 -296t264.5 -116z" />
    <glyph glyph-name="P" unicode="P" horiz-adv-x="1435" 
d="M872 410h-378v-410h-367v1434h745q229 0 380 -149.5t151 -369.5q0 -227 -149 -366t-382 -139zM850 1100h-356v-365h356q88 0 137 53.5t49 129t-49 129t-137 53.5z" />
    <glyph glyph-name="Q" unicode="Q" horiz-adv-x="1622" 
d="M1546 717q0 -209 -90 -376t-248 -263v-6q170 -61 328 -60l-45 -315q-141 0 -321.5 53t-311.5 139q-66 43 -113 84q-293 23 -481 230t-188 514q0 326 208 536.5t527 210.5t527 -210.5t208 -536.5zM444 717q0 -180 102.5 -296t264.5 -116t265.5 116t103.5 296t-103.5 295.5
t-265.5 115.5t-264.5 -115.5t-102.5 -295.5z" />
    <glyph glyph-name="R" unicode="R" horiz-adv-x="1497" 
d="M1116 608q109 -45 162 -182l158 -426h-406l-158 397q-14 37 -38.5 59.5t-59.5 30t-53.5 9.5t-52.5 2h-174v-498h-367v1434h733q225 0 364.5 -119t139.5 -322q0 -262 -248 -375v-10zM991 942q0 70 -46 114t-118 44h-333v-314h333q72 0 118 44t46 112z" />
    <glyph glyph-name="S" unicode="S" horiz-adv-x="1372" 
d="M754 885q274 -59 412.5 -165t138.5 -296q0 -223 -171 -339t-450 -116q-156 0 -336 55.5t-297 131.5l135 288q223 -152 506 -151q92 0 160 26.5t68 81.5q0 47 -63.5 81t-215.5 69q-272 61 -412.5 168.5t-140.5 312.5q0 203 175 317.5t462 114.5q131 0 272.5 -41t229.5 -92
l-101 -309q-197 115 -411 115q-123 0 -183.5 -30t-60.5 -73q0 -49 63.5 -81.5t219.5 -67.5z" />
    <glyph glyph-name="T" unicode="T" horiz-adv-x="1249" 
d="M440 0v1100h-411v334h1192v-334h-414v-1100h-367z" />
    <glyph glyph-name="U" unicode="U" horiz-adv-x="1509" 
d="M755.5 -31q-272.5 0 -450.5 155t-178 392v918h367v-918q0 -92 73.5 -151.5t188 -59.5t187.5 59.5t73 151.5v918h366v-918q0 -238 -177 -392.5t-449.5 -154.5z" />
    <glyph glyph-name="V" unicode="V" horiz-adv-x="1470" 
d="M944 0h-420l-536 1434h391l352 -1012h8l351 1012h393z" />
    <glyph glyph-name="W" unicode="W" horiz-adv-x="2095" 
d="M1712 1434h387l-411 -1434h-420l-215 776h-9l-215 -776h-419l-414 1434h387l235 -916h7l245 916h357l246 -916h6z" />
    <glyph glyph-name="X" unicode="X" horiz-adv-x="1474" 
d="M1444 1434l-434 -695l469 -739h-439l-301 479h-6l-299 -479h-440l469 739l-434 695h438l266 -437h6l265 437h440z" />
    <glyph glyph-name="Y" unicode="Y" horiz-adv-x="1357" 
d="M682 915l262 519h426l-508 -912v-522h-366v522l-508 912h426l262 -519h6z" />
    <glyph glyph-name="Z" unicode="Z" horiz-adv-x="1337" 
d="M606 340v-6h672v-334h-1219v240l674 852v8h-653v334h1180v-269z" />
    <glyph glyph-name="bracketleft" unicode="[" horiz-adv-x="622" 
d="M631 -102v-279h-598v1976h598v-276h-281v-1421h281z" />
    <glyph glyph-name="backslash" unicode="\" horiz-adv-x="843" 
d="M598 -303l-641 1878l289 100l641 -1880z" />
    <glyph glyph-name="bracketright" unicode="]" horiz-adv-x="622" 
d="M-8 -381v279h280v1421h-280v276h598v-1976h-598z" />
    <glyph glyph-name="asciicircum" unicode="^" horiz-adv-x="847" 
d="M420 1227l-141 -191h-283l295 398h264l297 -398h-293l-131 191h-8z" />
    <glyph glyph-name="underscore" unicode="_" horiz-adv-x="1075" 
d="M1124 -31v-346h-1173v346h1173z" />
    <glyph glyph-name="grave" unicode="`" horiz-adv-x="464" 
d="M-43 1540h342l209 -364h-258z" />
    <glyph glyph-name="a" unicode="a" horiz-adv-x="1216" 
d="M63 293q0 150 115 243t346 93q137 0 250 -39q-6 70 -67.5 110.5t-169.5 40.5q-33 0 -67 -4t-64.5 -10t-59.5 -13t-51.5 -14.5t-38.5 -13.5t-27 -10l-10 -4l-96 284q23 12 62.5 28.5t155.5 45.5t220 29q297 0 428 -122t131 -390v-547h-166l-90 137h-6q-115 -168 -383 -168
q-182 0 -297 91.5t-115 232.5zM762 393q-74 33 -170 33q-88 0 -136 -32t-48 -77q0 -43 43 -69.5t120 -26.5q82 0 136.5 45t54.5 105v22z" />
    <glyph glyph-name="b" unicode="b" horiz-adv-x="1329" 
d="M797 1059q201 0 333 -153.5t132 -391.5q-2 -238 -134.5 -391.5t-332.5 -153.5q-117 0 -215.5 55.5t-159.5 155.5h-4l-107 -180h-186v1489h346v-569h4q134 139 324 139zM688 293q96 0 158.5 62.5t62.5 158.5t-62.5 158.5t-156.5 62.5q-96 2 -158.5 -60.5t-62.5 -158.5
t62.5 -159.5t156.5 -63.5z" />
    <glyph glyph-name="c" unicode="c" horiz-adv-x="1046" 
d="M707 293q164 0 280 67l37 -325q-158 -66 -326 -66q-283 2 -461 154.5t-178 392.5t175.5 392.5t453.5 150.5q74 0 169 -18.5t151 -49.5l-86 -305q-94 49 -226 49q-127 2 -205.5 -61.5t-78.5 -161.5q-2 -90 83 -154.5t212 -64.5z" />
    <glyph glyph-name="d" unicode="d" horiz-adv-x="1327" 
d="M530 1059q190 0 324 -139h4v569h346v-1489h-186l-107 180h-4q-61 -100 -159.5 -155.5t-215.5 -55.5q-201 0 -332.5 153.5t-133.5 391.5q0 238 131.5 391.5t332.5 153.5zM639 293q94 0 156.5 63.5t62.5 159.5t-62.5 158.5t-158.5 60.5q-94 0 -156.5 -62.5t-62.5 -158.5
t62.5 -158.5t158.5 -62.5z" />
    <glyph glyph-name="e" unicode="e" horiz-adv-x="1222" 
d="M618 1059q250 0 397.5 -149.5t147.5 -395.5q0 -55 -6 -98h-725q66 -123 279 -123q180 0 319 72l64 -304q-158 -92 -385 -92q-301 0 -475.5 151.5t-174.5 393.5q0 240 156.5 392.5t402.5 152.5zM422 602h393q-2 63 -57.5 98t-136.5 35q-156 0 -199 -133z" />
    <glyph glyph-name="f" unicode="f" horiz-adv-x="921" 
d="M725 1212q-166 0 -168 -159v-23h354v-293h-354v-737h-346v737h-217v293h219v88q0 176 133 291t338 115q106 0 229 -31l-28 -309q-70 28 -160 28z" />
    <glyph glyph-name="g" unicode="g" horiz-adv-x="1265" 
d="M1198 909q-84 6 -143 -18v-4q78 -96 78 -215q0 -170 -140.5 -277.5t-365.5 -107.5q-121 4 -213 32q-14 -16 -15 -43q0 -57 125 -57h248q217 0 317.5 -71.5t100.5 -215.5q0 -170 -155.5 -295.5t-438.5 -125.5q-262 0 -388 82.5t-126 203.5q0 109 106 185v6
q-125 68 -125 190q0 154 152 256v4q-92 98 -92 234q0 172 139 279.5t365 107.5q113 0 215 -33q74 88 176 133t180 31v-281zM626.5 530q71.5 0 114.5 37t43 94.5t-43 94.5t-114.5 37t-113.5 -37t-42 -94.5t42 -94.5t113.5 -37zM418 -57q-16 -27 -17 -58q0 -45 55.5 -75.5
t161.5 -30.5q88 0 157 24.5t69 69.5q0 70 -152 70h-274z" />
    <glyph glyph-name="h" unicode="h" horiz-adv-x="1333" 
d="M784 1059q201 0 327 -146.5t126 -375.5v-537h-346v524q0 92 -61.5 151.5t-153.5 59.5q-92 2 -152.5 -57.5t-60.5 -151.5v-526h-346v1489h346v-565h8q114 135 313 135z" />
    <glyph glyph-name="i" unicode="i" horiz-adv-x="598" 
d="M127 0v1030h346v-1030h-346zM299 1571q90 0 150.5 -61.5t60.5 -149.5t-60.5 -149.5t-150.5 -61.5t-150.5 61.5t-60.5 149.5t60.5 149.5t150.5 61.5z" />
    <glyph glyph-name="j" unicode="j" horiz-adv-x="540" 
d="M94 -18v1048h346v-1114q-2 -178 -135 -293t-338 -112q-82 0 -178 18l25 305q49 -12 112 -12q168 0 168 160zM266 1571q90 0 150.5 -61.5t60.5 -149.5t-60.5 -149.5t-150.5 -61.5t-150.5 61.5t-60.5 149.5t60.5 149.5t150.5 61.5z" />
    <glyph glyph-name="k" unicode="k" horiz-adv-x="1210" 
d="M1194 1030l-373 -414l402 -616h-369l-252 381l-139 -158v-223h-346v1489h346v-850h8l338 391h385z" />
    <glyph glyph-name="l" unicode="l" horiz-adv-x="579" 
d="M117 0v1489h346v-1489h-346z" />
    <glyph glyph-name="m" unicode="m" horiz-adv-x="1986" 
d="M1454 1059q174 0 292 -147.5t118 -374.5v-537h-344v524q0 92 -50.5 151.5t-130.5 59.5q-76 2 -126 -53t-50 -139v-543h-344v524q0 92 -50 151.5t-130 59.5q-76 2 -125 -51t-49 -133v-551h-342v1030h184l109 -188h4q55 102 141 159.5t193 57.5q219 0 338 -217h4
q118 217 358 217z" />
    <glyph glyph-name="n" unicode="n" horiz-adv-x="1355" 
d="M463 526v-526h-346v1030h186l107 -184h8q61 100 159.5 156.5t217.5 56.5q197 0 320.5 -146.5t121.5 -375.5v-537h-346l2 524q0 92 -62.5 151.5t-154.5 59.5q-92 2 -151.5 -57.5t-61.5 -151.5z" />
    <glyph glyph-name="o" unicode="o" horiz-adv-x="1261" 
d="M631 1059q248 0 409.5 -153.5t161.5 -391.5t-161.5 -391.5t-409.5 -153.5q-248 2 -410 156t-162 391.5t162 391t410 151.5zM631 293q96 0 157.5 62.5t61.5 158.5t-61.5 158.5t-157.5 62.5q-94 2 -156.5 -60.5t-62.5 -158.5t62.5 -159.5t156.5 -63.5z" />
    <glyph glyph-name="p" unicode="p" horiz-adv-x="1320" 
d="M797 -29q-195 0 -324 140h-4v-570h-346v1489h186l107 -180h4q131 209 375 209q201 0 333 -152.5t134 -390.5q0 -238 -132 -391.5t-333 -153.5zM688 737q-94 0 -156.5 -63.5t-62.5 -159.5t62.5 -158.5t158.5 -60.5q94 0 156.5 62.5t62.5 158.5t-62.5 158.5t-158.5 62.5z
" />
    <glyph glyph-name="q" unicode="q" horiz-adv-x="1320" 
d="M524 -29q-201 0 -333 154t-132 391q2 238 134.5 390.5t332.5 152.5q244 0 375 -209h4l107 180h186v-1489h-346v570h-4q-129 -140 -324 -140zM633 737q-96 0 -158.5 -62.5t-62.5 -158.5t62.5 -158.5t156.5 -62.5q96 -2 158.5 60.5t62.5 158.5t-62.5 159.5t-156.5 63.5z
" />
    <glyph glyph-name="r" unicode="r" horiz-adv-x="823" 
d="M432 823q59 111 154.5 173.5t212.5 62.5l-2 -324q-133 0 -230.5 -73.5t-97.5 -221.5v-440h-346v1030h184l121 -207h4z" />
    <glyph glyph-name="s" unicode="s" horiz-adv-x="1019" 
d="M961 297q0 -152 -120 -239t-304 -87q-279 0 -506 119l88 262q178 -109 389 -108q117 0 117 49q0 31 -33 47t-129 43q-178 45 -280.5 127t-102.5 227q0 143 111.5 232.5t359.5 89.5q80 0 196.5 -25.5t178.5 -54.5l-68 -258q-133 66 -301 65q-139 0 -139 -51q0 -25 37 -41
t137 -45q188 -53 278.5 -132t90.5 -220z" />
    <glyph glyph-name="t" unicode="t" horiz-adv-x="964" 
d="M729 281q96 0 170 28l27 -309q-141 -31 -238 -31q-203 0 -333 115t-130 293v360h-217v293h223l62 303h278v-303h353v-293h-353v-297q0 -159 158 -159z" />
    <glyph glyph-name="u" unicode="u" horiz-adv-x="1368" 
d="M899 504v526h346v-1030h-186l-107 184h-8q-133 -215 -377 -215q-197 0 -320.5 147.5t-121.5 377.5v536h346l-2 -524q0 -92 62.5 -151.5t154.5 -59.5q92 -2 151.5 57.5t61.5 151.5z" />
    <glyph glyph-name="v" unicode="v" horiz-adv-x="1120" 
d="M563 399l217 631h369l-385 -1030h-408l-385 1030h367l219 -631h6z" />
    <glyph glyph-name="w" unicode="w" horiz-adv-x="1828" 
d="M1298 399l170 631h369l-305 -1030h-418l-196 569h-7l-196 -569h-418l-305 1030h368l170 -631h7l208 631h338l209 -631h6z" />
    <glyph glyph-name="x" unicode="x" horiz-adv-x="1275" 
d="M1255 1030l-356 -489l385 -541h-426l-217 317h-6l-217 -317h-426l383 541l-357 489h410l207 -307h6l205 307h409z" />
    <glyph glyph-name="y" unicode="y" horiz-adv-x="1110" 
d="M793 1030h346l-387 -1118q-78 -227 -206 -313t-360 -86q-84 0 -153 18v319q78 -27 180 -26q131 0 186 90l-428 1116h367l229 -631h8z" />
    <glyph glyph-name="z" unicode="z" horiz-adv-x="1236" 
d="M1133 825l-529 -540v-4h561v-281h-1093v203l544 542v5h-512v280h1029v-205z" />
    <glyph glyph-name="braceleft" unicode="{" horiz-adv-x="612" 
d="M160 293q-14 174 -191 176v279q176 2 191 176l30 350q16 184 105.5 259t304.5 60l21 -266q-39 0 -62.5 -9t-35 -32.5t-15.5 -44t-8 -61.5l-31 -299q-12 -127 -50 -183.5t-106 -87.5v-6q70 -31 109 -86t47 -182l31 -299q4 -41 8 -61.5t15.5 -44t35 -33t62.5 -9.5l-21 -266
q-215 -14 -304 60.5t-106 259.5z" />
    <glyph glyph-name="bar" unicode="|" horiz-adv-x="569" 
d="M127 -377v1976h317v-1976h-317z" />
    <glyph glyph-name="braceright" unicode="}" horiz-adv-x="612" 
d="M453 293l-31 -350q-16 -184 -105.5 -259t-304.5 -61l-20 266q39 0 62.5 9.5t34.5 33t15.5 44t8.5 61.5l30 299q8 127 47 182t109 86v6q-68 31 -105.5 87.5t-50.5 183.5l-30 299q-4 41 -8.5 61.5t-15.5 44t-34.5 32.5t-62.5 9l20 266q215 14 304.5 -60.5t105.5 -258.5
l31 -350q14 -174 190 -176v-279q-176 -2 -190 -176z" />
    <glyph glyph-name="asciitilde" unicode="~" horiz-adv-x="919" 
d="M225 539l-213 86q37 117 111 190.5t174 73.5q90 0 188 -45q43 -20 97 -21q66 0 116 74l209 -72q-37 -121 -109.5 -200.5t-168.5 -79.5q-78 0 -183 41q-78 29 -108 28q-66 1 -113 -75z" />
    <glyph glyph-name="uni007F" horiz-adv-x="0" 
 />
    <glyph glyph-name="uni00A0" unicode="&#xa0;" horiz-adv-x="0" 
 />
    <glyph glyph-name="exclamdown" unicode="&#xa1;" horiz-adv-x="585" 
d="M166 571h254l57 -977h-366zM293 655q-82 0 -141.5 58.5t-59.5 140.5q0 84 59.5 144.5t141.5 60.5t142.5 -60.5t60.5 -144.5q0 -82 -59.5 -140.5t-143.5 -58.5z" />
    <glyph glyph-name="cent" unicode="&#xa2;" horiz-adv-x="1048" 
d="M864 555l156 -266q-98 -92 -270 -119v-170h-299v190q-180 55 -282.5 196.5t-100.5 332.5q0 193 102 334t281 192v189h299v-170q154 -27 268 -136l-154 -254q-80 74 -192 76q-113 0 -183.5 -66.5t-70.5 -164.5t67.5 -166t171.5 -68q131 0 207 70z" />
    <glyph glyph-name="sterling" unicode="&#xa3;" horiz-adv-x="1071" 
d="M465 301v-4h629v-297h-1096l-4 180q98 41 171 130t73 196q0 14 -5 63h-239v283h184q-18 86 -18 149q-4 209 133 336t360 127q113 0 227.5 -25.5t172.5 -56.5l-70 -305q-35 20 -112.5 40t-135.5 20q-109 0 -156 -59.5t-44 -147.5q0 -39 8 -78h493v-283h-444q2 -12 2 -26
q0 -131 -129 -242z" />
    <glyph glyph-name="currency" unicode="&#xa4;" horiz-adv-x="1359" 
d="M1108 1442l231 -232l-178 -178q63 -117 62 -256q0 -135 -62 -248l178 -178l-231 -231l-190 190q-113 -45 -238 -45q-133 4 -238 49l-194 -194l-232 231l185 185q-59 113 -60 249q2 131 60 242l-185 184l232 232l194 -195q106 49 244 49q133 -4 229 -47zM475 782
q-2 -92 57.5 -151.5t149.5 -59.5q88 -2 147.5 57.5t61.5 149.5q0 92 -58.5 151.5t-148.5 59.5q-90 2 -149.5 -57.5t-59.5 -149.5z" />
    <glyph glyph-name="yen" unicode="&#xa5;" horiz-adv-x="1232" 
d="M858 1434h387l-387 -723l2 -6h311v-205h-393v-86h393v-205h-393v-209h-332v209h-387v205h387v86h-387v205h314v6l-385 723h387l237 -506h6z" />
    <glyph glyph-name="brokenbar" unicode="&#xa6;" horiz-adv-x="569" 
d="M127 829v766h317v-766h-317zM127 -381v768h317v-768h-317z" />
    <glyph glyph-name="section" unicode="&#xa7;" horiz-adv-x="1110" 
d="M1040 600q0 -156 -139 -252v-4q94 -88 94 -244q0 -178 -125 -280.5t-329 -102.5q-274 0 -504 127l108 299q63 -39 175 -73.5t219 -34.5q37 0 57 16.5t20 42.5q0 29 -23.5 49.5t-107.5 53.5q-104 41 -167.5 71.5t-128 75.5t-94 102.5t-29.5 128.5q0 186 135 275v4
q-94 90 -95 231q0 166 118 272.5t317 106.5q33 0 64.5 -2t63 -7t57.5 -10t55.5 -14.5t49 -14.5t48 -16t40 -15.5t37 -14.5t29.5 -12l-74 -318q-63 33 -168.5 67t-183.5 34q-76 0 -76 -49q0 -20 20.5 -38t96.5 -50q246 -104 309 -150q121 -82 131 -225v-29zM635 487
q55 16 55 66q0 23 -7 36t-51 40.5t-130 62.5l-33 13q-57 -12 -57 -60q0 -37 31.5 -65.5t142.5 -73.5z" />
    <glyph glyph-name="dieresis" unicode="&#xa8;" horiz-adv-x="653" 
d="M375 1360q0 74 49 123t120.5 49t120 -49t48.5 -123q0 -70 -48.5 -119t-119.5 -49q-74 0 -122 49t-48 119zM-59 1360q0 74 50 123t122 49q70 0 116.5 -49t46.5 -123q0 -70 -47 -119t-116 -49q-74 0 -123 49t-49 119z" />
    <glyph glyph-name="copyright" unicode="&#xa9;" horiz-adv-x="1542" 
d="M825 496q119 0 203 53l33 -176q-98 -55 -242 -56q-190 0 -308 109t-118 285q0 178 118 292.5t308 114.5q125 0 228 -51l-50 -180q-78 51 -178 51q-109 0 -169 -65.5t-60 -161.5q0 -98 65.5 -156.5t169.5 -58.5zM772 1460q313 0 518 -209t205 -534q0 -324 -205 -534
t-518 -210t-519 210t-206 534q0 326 206 534.5t519 208.5zM772 121q244 0 401.5 168t157.5 428q0 262 -157.5 430t-401.5 168t-401.5 -168t-157.5 -430q0 -260 157.5 -428t401.5 -168z" />
    <glyph glyph-name="ordfeminine" unicode="&#xaa;" horiz-adv-x="774" 
d="M348 1462q178 0 257 -72.5t79 -234.5v-328h-100l-54 82h-2q-72 -98 -231 -98q-111 0 -178.5 53.5t-67.5 139.5q0 90 68.5 145t208.5 55q86 0 149 -22q-6 90 -143 90q-41 0 -88 -10.5t-74 -20.5t-27 -12l-57 172q121 61 260 61zM469 1049v14q-43 20 -102 20
q-51 0 -80 -19.5t-29 -45.5q0 -57 96 -57q51 0 83 26.5t32 61.5z" />
    <glyph glyph-name="guillemotleft" unicode="&#xab;" horiz-adv-x="1236" 
d="M705 197h-365l-322 438l322 430h365l-322 -430zM854 197l-319 438l319 430h365l-320 -430l320 -438h-365z" />
    <glyph glyph-name="logicalnot" unicode="&#xac;" horiz-adv-x="1148" 
d="M1126 164h-346v321h-764v346h1110v-667z" />
    <glyph glyph-name="uni00AD" unicode="&#xad;" horiz-adv-x="1005" 
d="M987 887v-346h-969v346h969z" />
    <glyph glyph-name="registered" unicode="&#xae;" horiz-adv-x="1542" 
d="M987 659q61 -27 88 -100l86 -229h-219l-88 215q-20 53 -111 53h-92v-268h-198v776h395q123 0 198.5 -64.5t75.5 -175.5q0 -141 -135 -202v-5zM831 756q39 0 64 23.5t25 60.5t-25 61.5t-64 24.5h-180v-170h180zM772 1460q313 0 518 -209t205 -534q0 -324 -205 -534
t-518 -210t-519 210t-206 534q0 326 206 534.5t519 208.5zM772 121q244 0 401.5 168t157.5 428q0 262 -157.5 430t-401.5 168t-401.5 -168t-157.5 -430q0 -260 157.5 -428t401.5 -168z" />
    <glyph glyph-name="macron" unicode="&#xaf;" horiz-adv-x="518" 
d="M-43 1452h604v-201h-604v201z" />
    <glyph glyph-name="degree" unicode="&#xb0;" horiz-adv-x="514" 
d="M256 1464q104 0 177 -68.5t73 -174.5q0 -104 -69.5 -176t-180.5 -72q-104 0 -176 69.5t-72 178.5q0 102 69.5 172.5t178.5 70.5zM258 1143q35 0 56.5 21.5t21.5 54t-22.5 54t-55.5 21.5q-35 0 -56.5 -22.5t-21.5 -52.5q0 -33 22.5 -54.5t55.5 -21.5z" />
    <glyph glyph-name="plusminus" unicode="&#xb1;" horiz-adv-x="1144" 
d="M397 430v342h-381v305h381v342h346v-342h383v-305h-383v-342h-346zM16 0v305h1112v-305h-1112z" />
    <glyph glyph-name="uni00B2" unicode="&#xb2;" horiz-adv-x="788" 
d="M424 907h303v-196h-664v163l281 216q156 119 156 202q0 41 -44 69t-96 28q-109 0 -208 -76l-76 168q145 104 284 104q158 0 259.5 -75.5t101.5 -211.5q0 -166 -217 -327l-80 -60v-4z" />
    <glyph glyph-name="uni00B3" unicode="&#xb3;" horiz-adv-x="841" 
d="M592 1161q84 -20 137 -74.5t53 -142.5q0 -104 -100 -177t-299 -73t-332 74l68 178q125 -61 246 -59q86 0 138 29.5t52 66.5q0 86 -156 86h-188v170h174q135 0 135 72q0 37 -47 60.5t-131 23.5q-115 0 -201 -56l-59 174q102 72 291 72q164 0 267 -64.5t103 -170.5
q0 -66 -40.5 -114t-110.5 -69v-6z" />
    <glyph glyph-name="acute" unicode="&#xb4;" horiz-adv-x="466" 
d="M164 1540h346l-295 -364h-258z" />
    <glyph glyph-name="mu" unicode="&#xb5;" horiz-adv-x="1390" 
d="M922 502v528h346v-1030h-185l-108 184h-8q-61 -100 -158.5 -157.5t-218.5 -57.5q-68 0 -125 19v-447h-342v1489h371v-524q0 -92 61 -152.5t153.5 -60.5t152 59.5t61.5 149.5z" />
    <glyph glyph-name="paragraph" unicode="&#xb6;" horiz-adv-x="1280" 
d="M12 1063q0 160 110.5 265.5t280.5 105.5h754v-1700h-246v1454h-135v-1454h-246v950h-127q-168 0 -279.5 109.5t-111.5 269.5z" />
    <glyph glyph-name="periodcentered" unicode="&#xb7;" horiz-adv-x="585" 
d="M293 635q-82 0 -142.5 61.5t-60.5 143.5t60.5 141t142.5 59q84 0 143.5 -59t59.5 -141q0 -84 -60.5 -144.5t-142.5 -60.5z" />
    <glyph glyph-name="cedilla" unicode="&#xb8;" horiz-adv-x="448" 
d="M305 -117q0 -2 2 -6q78 -12 131.5 -63.5t53.5 -126.5q0 -121 -89.5 -177.5t-230.5 -56.5q-123 0 -215 53l53 152q80 -45 146 -45q41 0 67.5 16.5t24.5 51.5q0 94 -160 83l-16 74l84 166h217z" />
    <glyph glyph-name="uni00B9" unicode="&#xb9;" horiz-adv-x="530" 
d="M260 1567h191v-856h-220v583h-4l-127 -100l-108 147z" />
    <glyph glyph-name="ordmasculine" unicode="&#xba;" horiz-adv-x="778" 
d="M389 1462q150 0 246 -92t96 -233.5t-97 -233.5t-244.5 -92t-245 92t-97.5 234q2 143 98.5 234t243.5 91zM389 1004q57 0 94 37.5t37 95t-37 94.5t-94 37t-94 -37t-37 -94.5t37 -95t94 -37.5z" />
    <glyph glyph-name="guillemotright" unicode="&#xbb;" horiz-adv-x="1236" 
d="M897 197h-365l322 438l-322 430h365l322 -430zM702 635l-319 -438h-365l320 438l-320 430h365z" />
    <glyph glyph-name="onequarter" unicode="&#xbc;" horiz-adv-x="1828" 
d="M260 1434h191v-856h-220v583h-4l-127 -100l-108 147zM1501 1278l-1061 -1274l-192 156l1061 1276zM1436 338v225h-4l-211 -221v-4h215zM1657 340h131v-176h-131v-166h-221v166h-389l-74 153l497 537h187v-514z" />
    <glyph glyph-name="onehalf" unicode="&#xbd;" horiz-adv-x="1896" 
d="M260 1434h191v-856h-220v583h-4l-127 -100l-108 147zM1475 1278l-1061 -1274l-193 156l1061 1276zM1532 195h303v-197h-664v164l281 215q156 119 156 203q0 41 -44 68.5t-96 27.5q-109 0 -208 -76l-76 168q145 104 284 104q158 0 259.5 -75.5t101.5 -210.5
q0 -166 -217 -328l-80 -59v-4z" />
    <glyph glyph-name="threequarters" unicode="&#xbe;" horiz-adv-x="2033" 
d="M592 1028q84 -20 137 -74.5t53 -142.5q0 -104 -100 -177t-299 -73t-332 74l68 178q125 -61 246 -59q86 0 138 29.5t52 66.5q0 86 -156 86h-188v170h174q135 0 135 72q0 37 -47 60.5t-131 23.5q-115 0 -201 -56l-59 174q102 72 291 72q164 0 267 -64.5t103 -170.5
q0 -66 -40.5 -114t-110.5 -69v-6zM670 4l-193 156l1061 1276l193 -158zM1640 338v225h-4l-211 -221v-4h215zM1862 340h131v-176h-131v-166h-222v166h-389l-73 153l497 537h187v-514z" />
    <glyph glyph-name="questiondown" unicode="&#xbf;" horiz-adv-x="718" 
d="M518 655q-84 0 -143.5 58.5t-59.5 140.5q0 84 60.5 144.5t142.5 60.5t142.5 -60.5t60.5 -144.5q0 -82 -59.5 -140.5t-143.5 -58.5zM500 -436q-195 0 -332 93t-137 269q0 66 19.5 126.5t66.5 122t70.5 87t82.5 86.5q82 82 74 223h346q8 -82 -10 -149.5t-44 -102t-77 -92.5
q-23 -25 -61.5 -62.5t-56 -57t-34 -50t-16.5 -61.5q0 -53 50.5 -88t119.5 -35q131 0 236 78l65 -283q-126 -104 -362 -104z" />
    <glyph glyph-name="Agrave" unicode="&#xc0;" horiz-adv-x="1490" 
d="M537 1434h417l549 -1434h-416l-71 215h-539l-71 -215h-418zM317 1944h342l209 -365h-258zM750 1008h-9l-166 -498h343z" />
    <glyph glyph-name="Aacute" unicode="&#xc1;" horiz-adv-x="1490" 
d="M537 1434h417l549 -1434h-416l-71 215h-539l-71 -215h-418zM829 1921h347l-295 -365h-258zM750 1008h-9l-166 -498h343z" />
    <glyph glyph-name="Acircumflex" unicode="&#xc2;" horiz-adv-x="1490" 
d="M537 1434h417l549 -1434h-416l-71 215h-539l-71 -215h-418zM625 1944h247l248 -365h-237l-133 188h-5l-131 -188h-241zM750 1008h-9l-166 -498h343z" />
    <glyph glyph-name="Atilde" unicode="&#xc3;" horiz-adv-x="1490" 
d="M537 1434h417l549 -1434h-416l-71 215h-539l-71 -215h-418zM932 1917l170 -35q-6 -268 -207 -268q-72 0 -170 53q-72 39 -96 39q-59 0 -66 -100l-174 39q4 127 60.5 197.5t146.5 70.5q70 0 160 -51q86 -45 104 -45q62 0 72 100zM750 1008h-9l-166 -498h343z" />
    <glyph glyph-name="Adieresis" unicode="&#xc4;" horiz-adv-x="1490" 
d="M537 1434h417l549 -1434h-416l-71 215h-539l-71 -215h-418zM795 1761q0 74 49 123t120.5 49t120 -49t48.5 -123q0 -70 -48.5 -119t-119.5 -49q-74 0 -122 49t-48 119zM360 1761q0 74 50.5 123t121.5 49q70 0 117 -49t47 -123q0 -70 -47 -119t-117 -49q-74 0 -123 49
t-49 119zM750 1008h-9l-166 -498h343z" />
    <glyph glyph-name="Aring" unicode="&#xc5;" horiz-adv-x="1490" 
d="M537 1434h417l549 -1434h-416l-71 215h-539l-71 -215h-418zM471 1782q0 104 75 172.5t208 68.5q129 0 198.5 -66.5t69.5 -172.5q0 -102 -75 -168t-197 -66q-125 0 -202 66t-77 166zM750 1008h-9l-166 -498h343zM840 1786q0 41 -24.5 69.5t-70.5 28.5q-41 0 -64.5 -29.5
t-23.5 -70.5q0 -37 26 -65.5t65 -28.5q43 0 67.5 27.5t24.5 68.5z" />
    <glyph glyph-name="AE" unicode="&#xc6;" horiz-adv-x="2293" 
d="M1405 545v-211h809v-334h-1176v215h-489l-131 -215h-432l950 1434h1259v-334h-790v-256h727v-299h-727zM1038 510v498h-6l-303 -498h309z" />
    <glyph glyph-name="Ccedilla" unicode="&#xc7;" horiz-adv-x="1341" 
d="M856 -117v-2l2 -4q78 -12 131 -63.5t53 -126.5q0 -121 -89 -177.5t-230 -56.5q-123 0 -215 53l53 152q80 -45 146 -45q41 0 67.5 16.5t24.5 51.5q0 94 -160 83l-16 74l73 146q-283 47 -451.5 240.5t-168.5 480.5q0 330 220 544.5t574 214.5q231 0 424 -96l-92 -334
q-150 94 -332 94q-201 0 -314.5 -122.5t-113.5 -300.5q0 -184 123 -292t318 -108q94 0 202.5 28.5t174.5 67.5l61 -325q-170 -96 -418 -107z" />
    <glyph glyph-name="Egrave" unicode="&#xc8;" horiz-adv-x="1378" 
d="M494 545v-211h809v-334h-1176v1434h1159v-334h-792v-256h729v-299h-729zM324 1944h342l208 -365h-258z" />
    <glyph glyph-name="Eacute" unicode="&#xc9;" horiz-adv-x="1378" 
d="M494 545v-211h809v-334h-1176v1434h1159v-334h-792v-256h729v-299h-729zM811 1944h346l-295 -365h-258z" />
    <glyph glyph-name="Ecircumflex" unicode="&#xca;" horiz-adv-x="1378" 
d="M494 545v-211h809v-334h-1176v1434h1159v-334h-792v-256h729v-299h-729zM594 1944h248l248 -365h-238l-133 188h-4l-131 -188h-242z" />
    <glyph glyph-name="Edieresis" unicode="&#xcb;" horiz-adv-x="1378" 
d="M494 545v-211h809v-334h-1176v1434h1159v-334h-792v-256h729v-299h-729zM764 1761q0 74 49 123t121 49t120 -49t48 -123q0 -70 -48 -119t-120 -49q-74 0 -122 49t-48 119zM330 1761q0 74 50 123t122 49q70 0 117 -49t47 -123q0 -70 -47.5 -119t-116.5 -49q-74 0 -123 49
t-49 119z" />
    <glyph glyph-name="Igrave" unicode="&#xcc;" horiz-adv-x="602" 
d="M109 0v1434h366v-1434h-366zM-127 1944h342l209 -365h-258z" />
    <glyph glyph-name="Iacute" unicode="&#xcd;" horiz-adv-x="532" 
d="M82 0v1434h367v-1434h-367zM340 1923h346l-295 -364h-258z" />
    <glyph glyph-name="Icircumflex" unicode="&#xce;" horiz-adv-x="606" 
d="M121 0v1434h366v-1434h-366zM182 1944h248l248 -365h-238l-133 188h-4l-131 -188h-242z" />
    <glyph glyph-name="Idieresis" unicode="&#xcf;" horiz-adv-x="573" 
d="M104 0v1434h367v-1434h-367zM336 1761q0 74 49 123t121 49t120 -49t48 -123q0 -70 -48 -119t-120 -49q-74 0 -122 49t-48 119zM-98 1761q0 74 50 123t122 49q70 0 117 -49t47 -123q0 -70 -47.5 -119t-116.5 -49q-74 0 -123 49t-49 119z" />
    <glyph glyph-name="Eth" unicode="&#xd0;" horiz-adv-x="1562" 
d="M788 1434q305 0 502 -202t197 -515.5t-196.5 -515t-502.5 -201.5h-610v575h-198v283h198v576h610zM788 334q141 0 232.5 107.5t91.5 275.5t-91 275.5t-233 107.5h-243v-242h207v-283h-207v-241h243z" />
    <glyph glyph-name="Ntilde" unicode="&#xd1;" horiz-adv-x="1521" 
d="M494 774v-774h-367v1434h305l588 -777h8v777h367v-1434h-308l-587 774h-6zM946 1915l170 -35q-6 -268 -207 -268q-72 0 -170 53q-72 39 -96 39q-59 0 -65 -100l-175 38q4 127 60.5 198t146.5 71q70 0 160 -51q86 -45 104 -45q62 0 72 100z" />
    <glyph glyph-name="Ograve" unicode="&#xd2;" horiz-adv-x="1622" 
d="M811 1464q319 0 527 -211t208 -536.5t-208 -536.5t-527 -211t-527 211t-208 536.5t208 536.5t527 211zM811 305q162 0 265.5 116t103.5 296t-103.5 295.5t-265.5 115.5t-264.5 -115.5t-102.5 -295.5t102.5 -296t264.5 -116zM410 1921h342l209 -365h-259z" />
    <glyph glyph-name="Oacute" unicode="&#xd3;" horiz-adv-x="1622" 
d="M811 1464q319 0 527 -211t208 -536.5t-208 -536.5t-527 -211t-527 211t-208 536.5t208 536.5t527 211zM811 305q162 0 265.5 116t103.5 296t-103.5 295.5t-265.5 115.5t-264.5 -115.5t-102.5 -295.5t102.5 -296t264.5 -116zM901 1921h346l-295 -365h-258z" />
    <glyph glyph-name="Ocircumflex" unicode="&#xd4;" horiz-adv-x="1622" 
d="M811 1464q319 0 527 -211t208 -536.5t-208 -536.5t-527 -211t-527 211t-208 536.5t208 536.5t527 211zM811 305q162 0 265.5 116t103.5 296t-103.5 295.5t-265.5 115.5t-264.5 -115.5t-102.5 -295.5t102.5 -296t264.5 -116zM690 1944h248l248 -365h-238l-133 188h-4
l-131 -188h-242z" />
    <glyph glyph-name="Otilde" unicode="&#xd5;" horiz-adv-x="1622" 
d="M811 1464q319 0 527 -211t208 -536.5t-208 -536.5t-527 -211t-527 211t-208 536.5t208 536.5t527 211zM811 305q162 0 265.5 116t103.5 296t-103.5 295.5t-265.5 115.5t-264.5 -115.5t-102.5 -295.5t102.5 -296t264.5 -116zM997 1917l170 -35q-6 -268 -206 -268
q-72 0 -170 53q-72 39 -97 39q-59 0 -65 -100l-174 39q4 127 60 197.5t147 70.5q70 0 159 -51q86 -45 105 -45q61 0 71 100z" />
    <glyph glyph-name="Odieresis" unicode="&#xd6;" horiz-adv-x="1622" 
d="M811 1464q319 0 527 -211t208 -536.5t-208 -536.5t-527 -211t-527 211t-208 536.5t208 536.5t527 211zM811 305q162 0 265.5 116t103.5 296t-103.5 295.5t-265.5 115.5t-264.5 -115.5t-102.5 -295.5t102.5 -296t264.5 -116zM860 1761q0 74 49 123t121 49t120 -49t48 -123
q0 -70 -48 -119t-120 -49q-74 0 -122 49t-48 119zM426 1761q0 74 50 123t122 49q70 0 117 -49t47 -123q0 -70 -47 -119t-117 -49q-74 0 -123 49t-49 119z" />
    <glyph glyph-name="multiply" unicode="&#xd7;" horiz-adv-x="1161" 
d="M821 1202l246 -244l-242 -241l242 -242l-246 -246l-241 242l-242 -242l-244 246l242 242l-242 241l244 244l242 -241z" />
    <glyph glyph-name="Oslash" unicode="&#xd8;" horiz-adv-x="1622" 
d="M1315 1274q231 -211 231 -557q0 -326 -208 -537t-527 -211q-154 0 -289 54l-82 -132l-217 138l84 131q-231 211 -231 557q0 326 208 536.5t527 210.5q154 0 289 -53l82 131l217 -137zM444 717q0 -137 62 -242l405 641q-45 12 -100 12q-162 0 -264.5 -115.5t-102.5 -295.5
zM811 305q162 0 264.5 116t102.5 296q0 137 -62 241l-405 -641q47 -12 100 -12z" />
    <glyph glyph-name="Ugrave" unicode="&#xd9;" horiz-adv-x="1509" 
d="M755.5 -31q-272.5 0 -450.5 155t-178 392v918h367v-918q0 -92 73.5 -151.5t188 -59.5t187.5 59.5t73 151.5v918h366v-918q0 -238 -177 -392.5t-449.5 -154.5zM326 1944h342l209 -365h-259z" />
    <glyph glyph-name="Uacute" unicode="&#xda;" horiz-adv-x="1509" 
d="M755.5 -31q-272.5 0 -450.5 155t-178 392v918h367v-918q0 -92 73.5 -151.5t188 -59.5t187.5 59.5t73 151.5v918h366v-918q0 -238 -177 -392.5t-449.5 -154.5zM827 1944h347l-295 -365h-258z" />
    <glyph glyph-name="Ucircumflex" unicode="&#xdb;" horiz-adv-x="1509" 
d="M755.5 -31q-272.5 0 -450.5 155t-178 392v918h367v-918q0 -92 73.5 -151.5t188 -59.5t187.5 59.5t73 151.5v918h366v-918q0 -238 -177 -392.5t-449.5 -154.5zM633 1944h248l247 -365h-237l-133 188h-4l-131 -188h-242z" />
    <glyph glyph-name="Udieresis" unicode="&#xdc;" horiz-adv-x="1509" 
d="M755.5 -31q-272.5 0 -450.5 155t-178 392v918h367v-918q0 -92 73.5 -151.5t188 -59.5t187.5 59.5t73 151.5v918h366v-918q0 -238 -177 -392.5t-449.5 -154.5zM803 1761q0 74 49 123t120.5 49t120 -49t48.5 -123q0 -70 -48.5 -119t-119.5 -49q-74 0 -122 49t-48 119z
M369 1761q0 74 50 123t122 49q70 0 117 -49t47 -123q0 -70 -47.5 -119t-116.5 -49q-74 0 -123 49t-49 119z" />
    <glyph glyph-name="Yacute" unicode="&#xdd;" horiz-adv-x="1357" 
d="M682 915l262 519h426l-508 -912v-522h-366v522l-508 912h426l262 -519h6zM754 1944h346l-295 -365h-258z" />
    <glyph glyph-name="Thorn" unicode="&#xde;" horiz-adv-x="1394" 
d="M831 1229q229 0 380 -149.5t151 -368.5q0 -225 -149.5 -365.5t-381.5 -140.5h-337v-205h-367v1434h367v-205h337zM811 530q88 0 137 53.5t49 129t-49 129t-137 53.5h-317v-365h317z" />
    <glyph glyph-name="germandbls" unicode="&#xdf;" horiz-adv-x="1249" 
d="M1073 707q57 -63 84 -94t59.5 -106t32.5 -153q0 -174 -119.5 -279.5t-330.5 -105.5q-150 0 -238 37l41 270q68 -31 156 -30q70 0 109.5 32.5t39.5 83.5q0 70 -80 152q-8 8 -36.5 37t-42 42t-35 42t-31.5 52.5t-19.5 56t-9.5 67.5q0 182 183 276q16 49 16 80q0 57 -46 93
t-114 36q-96 0 -158.5 -77.5t-62.5 -251.5v-967h-348v958q0 317 143.5 483.5t429.5 166.5q207 0 344.5 -114t137.5 -300q0 -115 -54 -184q-127 -61 -127 -154q0 -73 76 -149z" />
    <glyph glyph-name="agrave" unicode="&#xe0;" horiz-adv-x="1249" 
d="M70 293q0 150 114.5 243t345.5 93q137 0 250 -39q-6 70 -67.5 110.5t-169.5 40.5q-33 0 -67 -4t-64.5 -10t-59 -13t-51 -14.5t-39 -13.5t-26.5 -10l-11 -4l-96 284q23 12 62.5 28.5t155.5 45.5t220 29q297 0 428 -122t131 -390v-547h-165l-91 137h-6q-115 -168 -383 -168
q-182 0 -296.5 91.5t-114.5 232.5zM768 393q-74 33 -170 33q-88 0 -136 -32t-48 -77q0 -43 43 -69.5t121 -26.5q82 0 136 45t54 105v22zM209 1544h342l209 -364h-258z" />
    <glyph glyph-name="aacute" unicode="&#xe1;" horiz-adv-x="1249" 
d="M70 293q0 150 114.5 243t345.5 93q137 0 250 -39q-6 70 -67.5 110.5t-169.5 40.5q-33 0 -67 -4t-64.5 -10t-59 -13t-51 -14.5t-39 -13.5t-26.5 -10l-11 -4l-96 284q23 12 62.5 28.5t155.5 45.5t220 29q297 0 428 -122t131 -390v-547h-165l-91 137h-6q-115 -168 -383 -168
q-182 0 -296.5 91.5t-114.5 232.5zM768 393q-74 33 -170 33q-88 0 -136 -32t-48 -77q0 -43 43 -69.5t121 -26.5q82 0 136 45t54 105v22zM647 1544h346l-295 -364h-258z" />
    <glyph glyph-name="acircumflex" unicode="&#xe2;" horiz-adv-x="1249" 
d="M70 293q0 150 114.5 243t345.5 93q137 0 250 -39q-6 70 -67.5 110.5t-169.5 40.5q-33 0 -67 -4t-64.5 -10t-59 -13t-51 -14.5t-39 -13.5t-26.5 -10l-11 -4l-96 284q23 12 62.5 28.5t155.5 45.5t220 29q297 0 428 -122t131 -390v-547h-165l-91 137h-6q-115 -168 -383 -168
q-182 0 -296.5 91.5t-114.5 232.5zM768 393q-74 33 -170 33q-88 0 -136 -32t-48 -77q0 -43 43 -69.5t121 -26.5q82 0 136 45t54 105v22zM477 1544h248l248 -364h-238l-133 188h-4l-131 -188h-242z" />
    <glyph glyph-name="atilde" unicode="&#xe3;" horiz-adv-x="1249" 
d="M70 293q0 150 114.5 243t345.5 93q137 0 250 -39q-6 70 -67.5 110.5t-169.5 40.5q-33 0 -67 -4t-64.5 -10t-59 -13t-51 -14.5t-39 -13.5t-26.5 -10l-11 -4l-96 284q23 12 62.5 28.5t155.5 45.5t220 29q297 0 428 -122t131 -390v-547h-165l-91 137h-6q-115 -168 -383 -168
q-182 0 -296.5 91.5t-114.5 232.5zM768 393q-74 33 -170 33q-88 0 -136 -32t-48 -77q0 -43 43 -69.5t121 -26.5q82 0 136 45t54 105v22zM784 1518l170 -35q-6 -268 -206 -269q-72 0 -170 54q-72 39 -97 39q-59 0 -65 -101l-174 39q4 127 60 197.5t147 70.5q70 0 159 -51
q86 -45 105 -45q61 1 71 101z" />
    <glyph glyph-name="adieresis" unicode="&#xe4;" horiz-adv-x="1249" 
d="M70 293q0 150 114.5 243t345.5 93q137 0 250 -39q-6 70 -67.5 110.5t-169.5 40.5q-33 0 -67 -4t-64.5 -10t-59 -13t-51 -14.5t-39 -13.5t-26.5 -10l-11 -4l-96 284q23 12 62.5 28.5t155.5 45.5t220 29q297 0 428 -122t131 -390v-547h-165l-91 137h-6q-115 -168 -383 -168
q-182 0 -296.5 91.5t-114.5 232.5zM768 393q-74 33 -170 33q-88 0 -136 -32t-48 -77q0 -43 43 -69.5t121 -26.5q82 0 136 45t54 105v22zM647 1364q0 74 49 123t121 49t120 -49t48 -123q0 -70 -48 -119t-120 -49q-74 0 -122 49t-48 119zM213 1364q0 74 50 123t122 49
q70 0 117 -49t47 -123q0 -70 -47 -119t-117 -49q-74 0 -123 49t-49 119z" />
    <glyph glyph-name="aring" unicode="&#xe5;" horiz-adv-x="1249" 
d="M70 293q0 150 114.5 243t345.5 93q137 0 250 -39q-6 70 -67.5 110.5t-169.5 40.5q-33 0 -67 -4t-64.5 -10t-59 -13t-51 -14.5t-39 -13.5t-26.5 -10l-11 -4l-96 284q23 12 62.5 28.5t155.5 45.5t220 29q297 0 428 -122t131 -390v-547h-165l-91 137h-6q-115 -168 -383 -168
q-182 0 -296.5 91.5t-114.5 232.5zM768 393q-74 33 -170 33q-88 0 -136 -32t-48 -77q0 -43 43 -69.5t121 -26.5q82 0 136 45t54 105v22zM692 1389q0 41 -24.5 69.5t-69.5 28.5q-41 0 -64.5 -30t-23.5 -71q0 -37 25.5 -65.5t64.5 -28.5q43 0 67.5 28t24.5 69zM324 1384
q0 104 74.5 173t207.5 69q129 0 198.5 -66.5t69.5 -173.5q0 -102 -74.5 -167.5t-197.5 -65.5q-125 0 -201.5 65.5t-76.5 165.5z" />
    <glyph glyph-name="ae" unicode="&#xe6;" horiz-adv-x="1988" 
d="M1397 1059q250 0 388 -148.5t138 -396.5q0 -8 -1 -24.5t-3 -40t-2 -37.5h-725q63 -119 276 -119q195 0 334 72l49 -304q-158 -92 -370 -92q-342 0 -512 217h-6q-129 -217 -451 -217q-197 0 -319.5 93.5t-122.5 236.5q0 150 123.5 240t373.5 90q106 0 211 -23
q-27 135 -237 135q-31 0 -66 -4t-64.5 -10t-58 -13t-51 -14.5t-39 -13.5t-26.5 -10l-11 -4l-96 284q23 12 62.5 28.5t154.5 45.5t219 29q328 0 457 -150h6q154 150 369 150zM768 383v27q-74 23 -170 22q-88 0 -136 -32.5t-48 -80.5q0 -45 43 -71.5t118 -26.5
q82 0 137.5 49.5t55.5 112.5zM1180 602h391q-8 66 -61.5 100.5t-131.5 34.5q-155 0 -198 -135z" />
    <glyph glyph-name="ccedilla" unicode="&#xe7;" horiz-adv-x="1058" 
d="M659 -117v-2l3 -4q78 -12 131 -63.5t53 -126.5q0 -121 -89 -177.5t-231 -56.5q-123 0 -215 53l54 152q80 -45 145 -45q41 0 67.5 16.5t24.5 51.5q0 94 -160 83l-16 74l78 156q-201 49 -319.5 189.5t-118.5 332.5q0 240 175 392.5t453 150.5q74 0 169 -18.5t151 -49.5
l-86 -305q-94 49 -226 49q-127 2 -205.5 -61.5t-78.5 -161.5q-2 -90 83 -154.5t212 -64.5q164 0 280 67l37 -325q-150 -61 -323 -66z" />
    <glyph glyph-name="egrave" unicode="&#xe8;" horiz-adv-x="1234" 
d="M625 1059q250 0 397 -149.5t147 -395.5q0 -55 -6 -98h-725q66 -123 279 -123q180 0 319 72l64 -304q-158 -92 -385 -92q-301 0 -475 151.5t-174 393.5q0 240 156.5 392.5t402.5 152.5zM428 602h393q-2 63 -57 98t-137 35q-156 0 -199 -133zM225 1540h342l209 -364h-258z
" />
    <glyph glyph-name="eacute" unicode="&#xe9;" horiz-adv-x="1234" 
d="M625 1059q250 0 397 -149.5t147 -395.5q0 -55 -6 -98h-725q66 -123 279 -123q180 0 319 72l64 -304q-158 -92 -385 -92q-301 0 -475 151.5t-174 393.5q0 240 156.5 392.5t402.5 152.5zM428 602h393q-2 63 -57 98t-137 35q-156 0 -199 -133zM684 1540h346l-295 -364h-258z
" />
    <glyph glyph-name="ecircumflex" unicode="&#xea;" horiz-adv-x="1234" 
d="M625 1059q250 0 397 -149.5t147 -395.5q0 -55 -6 -98h-725q66 -123 279 -123q180 0 319 72l64 -304q-158 -92 -385 -92q-301 0 -475 151.5t-174 393.5q0 240 156.5 392.5t402.5 152.5zM428 602h393q-2 63 -57 98t-137 35q-156 0 -199 -133zM496 1540h247l248 -364h-237
l-133 188h-5l-131 -188h-241z" />
    <glyph glyph-name="edieresis" unicode="&#xeb;" horiz-adv-x="1234" 
d="M625 1059q250 0 397 -149.5t147 -395.5q0 -55 -6 -98h-725q66 -123 279 -123q180 0 319 72l64 -304q-158 -92 -385 -92q-301 0 -475 151.5t-174 393.5q0 240 156.5 392.5t402.5 152.5zM428 602h393q-2 63 -57 98t-137 35q-156 0 -199 -133zM666 1358q0 74 49 123
t120.5 49t120 -49t48.5 -123q0 -70 -48.5 -119t-119.5 -49q-74 0 -122 49t-48 119zM231 1358q0 74 50.5 123t121.5 49q70 0 117 -49t47 -123q0 -70 -47 -119t-117 -49q-74 0 -123 49t-49 119z" />
    <glyph glyph-name="igrave" unicode="&#xec;" horiz-adv-x="501" 
d="M66 0v1030h346v-1030h-346zM-182 1540h342l209 -364h-258z" />
    <glyph glyph-name="iacute" unicode="&#xed;" horiz-adv-x="536" 
d="M92 0v1030h346v-1030h-346zM342 1540h346l-295 -364h-258z" />
    <glyph glyph-name="icircumflex" unicode="&#xee;" horiz-adv-x="587" 
d="M121 0v1030h346v-1030h-346zM172 1540h248l248 -364h-238l-133 188h-4l-131 -188h-242z" />
    <glyph glyph-name="idieresis" unicode="&#xef;" horiz-adv-x="634" 
d="M152 0v1030h346v-1030h-346zM373 1358q0 74 49 123t120.5 49t120 -49t48.5 -123q0 -70 -48.5 -119t-119.5 -49q-74 0 -122 49t-48 119zM-61 1358q0 74 50 123t122 49q70 0 116.5 -49t46.5 -123q0 -70 -47 -119t-116 -49q-74 0 -123 49t-49 119z" />
    <glyph glyph-name="eth" unicode="&#xf0;" horiz-adv-x="1333" 
d="M885 1309q383 -287 383 -744q0 -266 -160 -426q-170 -170 -442 -170q-260 0 -430 150.5t-170 400.5q0 236 162.5 381.5t385.5 145.5q98 0 168 -43l6 4q-84 102 -206 163l-340 -137l-64 133l240 101q0 4 2 8q-74 49 -176 86l116 227q193 -66 373 -178l326 133l71 -131
l-243 -96q0 -4 -2 -8zM846 373q51 76 51 178q0 88 -65.5 152.5t-163.5 64.5q-109 0 -169.5 -68.5t-60.5 -171.5q0 -94 56.5 -168.5t177.5 -74.5q113 0 174 88z" />
    <glyph glyph-name="ntilde" unicode="&#xf1;" horiz-adv-x="1368" 
d="M469 526v-526h-346v1030h186l107 -184h8q61 100 159.5 156.5t217.5 56.5q197 0 320.5 -146.5t121.5 -375.5v-537h-346l2 524q0 92 -62.5 151.5t-154.5 59.5q-92 2 -151.5 -57.5t-61.5 -151.5zM870 1513l170 -34q-6 -268 -206 -269q-72 0 -170 54q-72 39 -97 39
q-59 0 -65 -101l-174 39q4 127 60 197.5t147 70.5q70 0 159 -51q86 -45 105 -45q61 0 71 100z" />
    <glyph glyph-name="ograve" unicode="&#xf2;" horiz-adv-x="1273" 
d="M637 1059q248 0 409.5 -153.5t161.5 -391.5t-161.5 -391.5t-409.5 -153.5q-248 2 -409.5 156t-161.5 391.5t161.5 391t409.5 151.5zM637 293q96 0 157.5 62.5t61.5 158.5t-61.5 158.5t-157.5 62.5q-94 2 -156.5 -60.5t-62.5 -158.5t62.5 -159.5t156.5 -63.5zM221 1540
h342l209 -364h-258z" />
    <glyph glyph-name="oacute" unicode="&#xf3;" horiz-adv-x="1273" 
d="M637 1059q248 0 409.5 -153.5t161.5 -391.5t-161.5 -391.5t-409.5 -153.5q-248 2 -409.5 156t-161.5 391.5t161.5 391t409.5 151.5zM637 293q96 0 157.5 62.5t61.5 158.5t-61.5 158.5t-157.5 62.5q-94 2 -156.5 -60.5t-62.5 -158.5t62.5 -159.5t156.5 -63.5zM702 1540
h347l-295 -364h-258z" />
    <glyph glyph-name="ocircumflex" unicode="&#xf4;" horiz-adv-x="1273" 
d="M637 1059q248 0 409.5 -153.5t161.5 -391.5t-161.5 -391.5t-409.5 -153.5q-248 2 -409.5 156t-161.5 391.5t161.5 391t409.5 151.5zM637 293q96 0 157.5 62.5t61.5 158.5t-61.5 158.5t-157.5 62.5q-94 2 -156.5 -60.5t-62.5 -158.5t62.5 -159.5t156.5 -63.5zM516 1540
h248l248 -364h-238l-133 188h-4l-131 -188h-242z" />
    <glyph glyph-name="otilde" unicode="&#xf5;" horiz-adv-x="1273" 
d="M637 1059q248 0 409.5 -153.5t161.5 -391.5t-161.5 -391.5t-409.5 -153.5q-248 2 -409.5 156t-161.5 391.5t161.5 391t409.5 151.5zM637 293q96 0 157.5 62.5t61.5 158.5t-61.5 158.5t-157.5 62.5q-94 2 -156.5 -60.5t-62.5 -158.5t62.5 -159.5t156.5 -63.5zM823 1513
l170 -34q-6 -268 -207 -269q-72 0 -170 54q-72 39 -96 39q-59 0 -65 -101l-174 39q4 127 60 197.5t146 70.5q70 0 160 -51q86 -45 105 -45q61 0 71 100z" />
    <glyph glyph-name="odieresis" unicode="&#xf6;" horiz-adv-x="1273" 
d="M637 1059q248 0 409.5 -153.5t161.5 -391.5t-161.5 -391.5t-409.5 -153.5q-248 2 -409.5 156t-161.5 391.5t161.5 391t409.5 151.5zM637 293q96 0 157.5 62.5t61.5 158.5t-61.5 158.5t-157.5 62.5q-94 2 -156.5 -60.5t-62.5 -158.5t62.5 -159.5t156.5 -63.5zM686 1358
q0 74 49 123t121 49t120 -49t48 -123q0 -70 -48 -119t-120 -49q-74 0 -122 49t-48 119zM252 1358q0 74 50 123t122 49q70 0 117 -49t47 -123q0 -70 -47 -119t-117 -49q-74 0 -123 49t-49 119z" />
    <glyph glyph-name="divide" unicode="&#xf7;" horiz-adv-x="1021" 
d="M16 557v317h990v-317h-990zM309 1143q0 82 60.5 141t142.5 59t141.5 -59t59.5 -141q0 -84 -59.5 -144.5t-141.5 -60.5t-142.5 60.5t-60.5 144.5zM512 496q82 0 141.5 -59.5t59.5 -141.5q0 -84 -59.5 -144.5t-141.5 -60.5t-142.5 60.5t-60.5 144.5q0 82 60.5 141.5
t142.5 59.5z" />
    <glyph glyph-name="oslash" unicode="&#xf8;" horiz-adv-x="1273" 
d="M1040 911q168 -156 168 -397q0 -238 -162.5 -391.5t-408.5 -153.5q-84 0 -178 25l-66 -103l-217 138l57 88q-168 158 -167 399q0 238 161.5 391.5t409.5 151.5q92 0 178 -23l66 103l215 -138zM637 260q109 0 180.5 71.5t71.5 182.5q0 61 -27 119l-235 -373h10zM385 516
q0 -66 25 -119l235 371h-8q-109 0 -180.5 -70.5t-71.5 -181.5z" />
    <glyph glyph-name="ugrave" unicode="&#xf9;" horiz-adv-x="1368" 
d="M899 504v526h346v-1030h-186l-107 184h-8q-133 -215 -377 -215q-197 0 -320.5 147.5t-121.5 377.5v536h346l-2 -524q0 -92 62.5 -151.5t154.5 -59.5q92 -2 151.5 57.5t61.5 151.5zM289 1540h342l209 -364h-258z" />
    <glyph glyph-name="uacute" unicode="&#xfa;" horiz-adv-x="1368" 
d="M899 504v526h346v-1030h-186l-107 184h-8q-133 -215 -377 -215q-197 0 -320.5 147.5t-121.5 377.5v536h346l-2 -524q0 -92 62.5 -151.5t154.5 -59.5q92 -2 151.5 57.5t61.5 151.5zM748 1540h346l-295 -364h-258z" />
    <glyph glyph-name="ucircumflex" unicode="&#xfb;" horiz-adv-x="1368" 
d="M899 504v526h346v-1030h-186l-107 184h-8q-133 -215 -377 -215q-197 0 -320.5 147.5t-121.5 377.5v536h346l-2 -524q0 -92 62.5 -151.5t154.5 -59.5q92 -2 151.5 57.5t61.5 151.5zM563 1540h248l248 -364h-238l-133 188h-4l-131 -188h-242z" />
    <glyph glyph-name="udieresis" unicode="&#xfc;" horiz-adv-x="1368" 
d="M899 504v526h346v-1030h-186l-107 184h-8q-133 -215 -377 -215q-197 0 -320.5 147.5t-121.5 377.5v536h346l-2 -524q0 -92 62.5 -151.5t154.5 -59.5q92 -2 151.5 57.5t61.5 151.5zM733 1358q0 74 49 123t121 49t120 -49t48 -123q0 -70 -48 -119t-120 -49q-74 0 -122 49
t-48 119zM299 1358q0 74 50 123t122 49q70 0 117 -49t47 -123q0 -70 -47 -119t-117 -49q-74 0 -123 49t-49 119z" />
    <glyph glyph-name="yacute" unicode="&#xfd;" horiz-adv-x="1110" 
d="M793 1030h346l-387 -1118q-78 -227 -206 -313t-360 -86q-84 0 -153 18v319q78 -27 180 -26q131 0 186 90l-428 1116h367l229 -631h8zM623 1540h346l-295 -364h-258z" />
    <glyph glyph-name="thorn" unicode="&#xfe;" horiz-adv-x="1320" 
d="M799 1059q201 0 332 -153.5t131 -391.5t-132.5 -391.5t-332.5 -153.5q-195 0 -322 144h-6v-572h-346v1948h346v-571h6q129 141 324 141zM690 293q96 0 157.5 62.5t63.5 158.5q0 96 -62.5 158.5t-158.5 62.5q-94 2 -156.5 -61.5t-62.5 -157.5q0 -96 62.5 -159.5
t156.5 -63.5z" />
    <glyph glyph-name="ydieresis" unicode="&#xff;" horiz-adv-x="1110" 
d="M793 1030h346l-387 -1118q-78 -227 -206 -313t-360 -86q-84 0 -153 18v319q78 -27 180 -26q131 0 186 90l-428 1116h367l229 -631h8zM604 1360q0 74 49 123t121 49t120 -49t48 -123q0 -70 -48 -119t-120 -49q-74 0 -122 49t-48 119zM170 1360q0 74 50 123t122 49
q70 0 117 -49t47 -123q0 -70 -47 -119t-117 -49q-74 0 -123 49t-49 119z" />
    <glyph glyph-name="Amacron" unicode="&#x100;" horiz-adv-x="1490" 
d="M537 1434h417l549 -1434h-416l-71 215h-539l-71 -215h-418zM444 1855h605v-200h-605v200zM750 1008h-9l-166 -498h343z" />
    <glyph glyph-name="amacron" unicode="&#x101;" horiz-adv-x="1247" 
d="M70 293q0 150 114.5 243t345.5 93q137 0 250 -39q-6 70 -67.5 110.5t-169.5 40.5q-33 0 -67 -4t-64.5 -10t-59 -13t-51 -14.5t-39 -13.5t-26.5 -10l-11 -4l-96 284q23 12 62.5 28.5t155.5 45.5t220 29q297 0 428 -122t131 -390v-547h-165l-91 137h-6q-115 -168 -383 -168
q-182 0 -296.5 91.5t-114.5 232.5zM768 393q-74 33 -170 33q-88 0 -136 -32t-48 -77q0 -43 43 -69.5t121 -26.5q82 0 136 45t54 105v22zM297 1456h604v-201h-604v201z" />
    <glyph glyph-name="Abreve" unicode="&#x102;" horiz-adv-x="1490" 
d="M537 1434h417l549 -1434h-416l-71 215h-539l-71 -215h-418zM889 1921h190q-2 -154 -86 -248t-245.5 -94t-245.5 94t-88 248h190q4 -63 43 -105t100.5 -42t99.5 42t42 105zM750 1008h-9l-166 -498h343z" />
    <glyph glyph-name="abreve" unicode="&#x103;" horiz-adv-x="1249" 
d="M70 293q0 150 114.5 243t345.5 93q137 0 250 -39q-6 70 -67.5 110.5t-169.5 40.5q-33 0 -67 -4t-64.5 -10t-59 -13t-51 -14.5t-39 -13.5t-26.5 -10l-11 -4l-96 284q23 12 62.5 28.5t155.5 45.5t220 29q297 0 428 -122t131 -390v-547h-165l-91 137h-6q-115 -168 -383 -168
q-182 0 -296.5 91.5t-114.5 232.5zM768 393q-74 33 -170 33q-88 0 -136 -32t-48 -77q0 -43 43 -69.5t121 -26.5q82 0 136 45t54 105v22zM741 1522h191q-2 -154 -86 -248t-246 -94t-246 94t-88 248h191q4 -63 43 -105.5t100.5 -42.5t99 42.5t41.5 105.5z" />
    <glyph glyph-name="Aogonek" unicode="&#x104;" horiz-adv-x="1576" 
d="M561 1434h418l549 -1434h-101q-59 -119 -59 -176q0 -55 35 -92t92 -37q59 0 109 20l51 -172q-100 -76 -244 -75q-129 0 -200.5 64.5t-71.5 188.5q0 76 30.5 155t63.5 124h-121l-72 215h-538l-72 -215h-418zM774 1008h-8l-166 -498h342z" />
    <glyph glyph-name="aogonek" unicode="&#x105;" horiz-adv-x="1251" 
d="M70 293q0 150 114.5 243t345.5 93q137 0 250 -39q-6 70 -67.5 110.5t-169.5 40.5q-33 0 -67 -4t-64.5 -10t-59 -13t-51 -14.5t-39 -13.5t-26.5 -10l-11 -4l-96 284q23 12 62.5 28.5t155.5 45.5t220 29q297 0 428 -122t131 -390v-547q-59 -119 -59 -176q0 -55 35 -92
t92 -37q59 0 109 20l51 -172q-100 -76 -244 -75q-129 0 -200.5 64.5t-71.5 188.5q0 74 35.5 161t72.5 138l-76 117h-6q-115 -168 -383 -168q-182 0 -296.5 91.5t-114.5 232.5zM768 393q-74 33 -170 33q-88 0 -136 -32t-48 -77q0 -43 43 -69.5t121 -26.5q82 0 136 45t54 105
v22z" />
    <glyph glyph-name="Cacute" unicode="&#x106;" horiz-adv-x="1341" 
d="M883 305q94 0 202.5 28.5t174.5 67.5l61 -325q-190 -106 -451 -107q-352 0 -573 203t-221 532.5t220 544.5t574 215q231 0 424 -96l-92 -334q-150 94 -332 94q-201 0 -314.5 -122.5t-113.5 -300.5q0 -184 123 -292t318 -108zM782 1944h346l-294 -365h-259z" />
    <glyph glyph-name="cacute" unicode="&#x107;" horiz-adv-x="1058" 
d="M713 293q164 0 280 67l37 -325q-158 -66 -325 -66q-283 2 -461 154.5t-178 392.5t175 392.5t453 150.5q74 0 169 -18.5t151 -49.5l-86 -305q-94 49 -226 49q-127 2 -205.5 -61.5t-78.5 -161.5q-2 -90 83 -154.5t212 -64.5zM649 1540h346l-295 -364h-258z" />
    <glyph glyph-name="Ccircumflex" unicode="&#x108;" horiz-adv-x="1341" 
d="M883 305q94 0 202.5 28.5t174.5 67.5l61 -325q-190 -106 -451 -107q-352 0 -573 203t-221 532.5t220 544.5t574 215q231 0 424 -96l-92 -334q-150 94 -332 94q-201 0 -314.5 -122.5t-113.5 -300.5q0 -184 123 -292t318 -108zM606 1944h248l248 -365h-238l-133 188h-4
l-131 -188h-242z" />
    <glyph glyph-name="ccircumflex" unicode="&#x109;" horiz-adv-x="1058" 
d="M713 293q164 0 280 67l37 -325q-158 -66 -325 -66q-283 2 -461 154.5t-178 392.5t175 392.5t453 150.5q74 0 169 -18.5t151 -49.5l-86 -305q-94 49 -226 49q-127 2 -205.5 -61.5t-78.5 -161.5q-2 -90 83 -154.5t212 -64.5zM461 1540h248l247 -364h-237l-133 188h-4
l-131 -188h-242z" />
    <glyph glyph-name="Cdotaccent" unicode="&#x10a;" horiz-adv-x="1341" 
d="M883 305q94 0 202.5 28.5t174.5 67.5l61 -325q-190 -106 -451 -107q-352 0 -573 203t-221 532.5t220 544.5t574 215q231 0 424 -96l-92 -334q-150 94 -332 94q-201 0 -314.5 -122.5t-113.5 -300.5q0 -184 123 -292t318 -108zM567 1763q0 74 49.5 123t120.5 49
q70 0 117 -49t47 -123q0 -70 -46 -119t-118 -49q-74 0 -122 49t-48 119z" />
    <glyph glyph-name="cdotaccent" unicode="&#x10b;" horiz-adv-x="1058" 
d="M713 293q164 0 280 67l37 -325q-158 -66 -325 -66q-283 2 -461 154.5t-178 392.5t175 392.5t453 150.5q74 0 169 -18.5t151 -49.5l-86 -305q-94 49 -226 49q-127 2 -205.5 -61.5t-78.5 -161.5q-2 -90 83 -154.5t212 -64.5zM414 1360q0 74 49 123t121 49q70 0 117 -49
t47 -123q0 -70 -46.5 -119t-117.5 -49q-74 0 -122 49t-48 119z" />
    <glyph glyph-name="Ccaron" unicode="&#x10c;" horiz-adv-x="1341" 
d="M883 305q94 0 202.5 28.5t174.5 67.5l61 -325q-190 -106 -451 -107q-352 0 -573 203t-221 532.5t220 544.5t574 215q231 0 424 -96l-92 -334q-150 94 -332 94q-201 0 -314.5 -122.5t-113.5 -300.5q0 -184 123 -292t318 -108zM948 1579h-248l-249 365h239l133 -189h4
l131 189h242z" />
    <glyph glyph-name="ccaron" unicode="&#x10d;" horiz-adv-x="1058" 
d="M713 293q164 0 280 67l37 -325q-158 -66 -325 -66q-283 2 -461 154.5t-178 392.5t175 392.5t453 150.5q74 0 169 -18.5t151 -49.5l-86 -305q-94 49 -226 49q-127 2 -205.5 -61.5t-78.5 -161.5q-2 -90 83 -154.5t212 -64.5zM737 1176h-248l-249 364h239l133 -188h4
l132 188h241z" />
    <glyph glyph-name="Dcaron" unicode="&#x10e;" horiz-adv-x="1511" 
d="M735 1434q305 0 502 -202t197 -515.5t-197 -515t-502 -201.5h-608v1434h608zM735 334q141 0 232.5 107.5t91.5 275.5t-91 275.5t-233 107.5h-241v-766h241zM903 1579h-248l-249 365h239l133 -189h4l131 189h242z" />
    <glyph glyph-name="dcaron" unicode="&#x10f;" horiz-adv-x="1753" 
d="M530 1059q190 0 324 -139h4v569h346v-1489h-186l-107 180h-4q-61 -100 -159.5 -155.5t-215.5 -55.5q-201 0 -332.5 153.5t-133.5 391.5q0 238 131.5 391.5t332.5 153.5zM639 293q94 0 156.5 63.5t62.5 159.5t-62.5 158.5t-158.5 60.5q-94 0 -156.5 -62.5t-62.5 -158.5
t62.5 -158.5t158.5 -62.5zM1262 1143q63 12 109 56t46 109.5t-69 125.5l256 32q39 -31 66.5 -87t27.5 -115q0 -145 -106.5 -230.5t-270.5 -89.5z" />
    <glyph glyph-name="Dcroat" unicode="&#x110;" horiz-adv-x="1562" 
d="M788 1434q305 0 502 -202t197 -515.5t-196.5 -515t-502.5 -201.5h-610v575h-198v283h198v576h610zM788 334q141 0 232.5 107.5t91.5 275.5t-91 275.5t-233 107.5h-243v-242h207v-283h-207v-241h243z" />
    <glyph glyph-name="dcroat" unicode="&#x111;" horiz-adv-x="1392" 
d="M1202 1489v-141h213v-252h-213v-1096h-184l-107 180h-6q-135 -211 -375 -211q-201 0 -332.5 153.5t-131.5 391.5t131 391.5t331 153.5q190 0 322 -137h6v174h-213v252h213v141h346zM637 293q96 0 157.5 62.5t61.5 158.5t-62.5 158.5t-156.5 62.5q-96 0 -158.5 -62.5
t-60.5 -158.5q0 -96 61.5 -158.5t157.5 -62.5z" />
    <glyph glyph-name="Emacron" unicode="&#x112;" horiz-adv-x="1378" 
d="M494 545v-211h809v-334h-1176v1434h1159v-334h-792v-256h729v-299h-729zM414 1855h604v-200h-604v200z" />
    <glyph glyph-name="emacron" unicode="&#x113;" horiz-adv-x="1234" 
d="M625 1059q250 0 397 -149.5t147 -395.5q0 -55 -6 -98h-725q66 -123 279 -123q180 0 319 72l64 -304q-158 -92 -385 -92q-301 0 -475 151.5t-174 393.5q0 240 156.5 392.5t402.5 152.5zM428 602h393q-2 63 -57 98t-137 35q-156 0 -199 -133zM315 1452h605v-201h-605v201z
" />
    <glyph glyph-name="Ebreve" unicode="&#x114;" horiz-adv-x="1378" 
d="M494 545v-211h809v-334h-1176v1434h1159v-334h-792v-256h729v-299h-729zM858 1921h191q-2 -154 -86 -248t-246 -94t-246 94t-88 248h190q4 -63 43 -105t100.5 -42t99.5 42t42 105z" />
    <glyph glyph-name="ebreve" unicode="&#x115;" horiz-adv-x="1234" 
d="M625 1059q250 0 397 -149.5t147 -395.5q0 -55 -6 -98h-725q66 -123 279 -123q180 0 319 72l64 -304q-158 -92 -385 -92q-301 0 -475 151.5t-174 393.5q0 240 156.5 392.5t402.5 152.5zM428 602h393q-2 63 -57 98t-137 35q-156 0 -199 -133zM760 1518h190
q-2 -154 -86 -248t-245.5 -94t-245.5 94t-88 248h190q4 -63 43 -105.5t100.5 -42.5t99.5 42.5t42 105.5z" />
    <glyph glyph-name="Edotaccent" unicode="&#x116;" horiz-adv-x="1378" 
d="M494 545v-211h809v-334h-1176v1434h1159v-334h-792v-256h729v-299h-729zM549 1763q0 74 49 123t121 49q70 0 117 -49t47 -123q0 -70 -46 -119t-118 -49q-74 0 -122 49t-48 119z" />
    <glyph glyph-name="edotaccent" unicode="&#x117;" horiz-adv-x="1234" 
d="M625 1059q250 0 397 -149.5t147 -395.5q0 -55 -6 -98h-725q66 -123 279 -123q180 0 319 72l64 -304q-158 -92 -385 -92q-301 0 -475 151.5t-174 393.5q0 240 156.5 392.5t402.5 152.5zM428 602h393q-2 63 -57 98t-137 35q-156 0 -199 -133zM451 1360q0 74 49 123t121 49
q70 0 116.5 -49t46.5 -123q0 -70 -46 -119t-117 -49q-74 0 -122 49t-48 119z" />
    <glyph glyph-name="Eogonek" unicode="&#x118;" horiz-adv-x="1425" 
d="M494 545v-211h809v-334q-59 -119 -60 -176q0 -55 35 -92t92 -37q59 0 109 20l51 -172q-100 -76 -244 -75q-129 0 -200.5 64.5t-71.5 188.5q0 76 30.5 155t63.5 124h-981v1434h1159v-334h-792v-256h729v-299h-729z" />
    <glyph glyph-name="eogonek" unicode="&#x119;" horiz-adv-x="1234" 
d="M625 1059q250 0 397 -149.5t147 -395.5q0 -55 -6 -98h-725q66 -123 279 -123q180 0 319 72l64 -304q-158 -92 -385 -92h-6q-43 -82 -43 -145q0 -55 34.5 -92t92.5 -37q59 0 108 20l51 -172q-100 -76 -243 -75q-129 0 -201 64.5t-72 188.5q0 137 86 269
q-217 45 -336.5 184t-119.5 340q0 240 156.5 392.5t402.5 152.5zM428 602h393q-2 63 -57 98t-137 35q-156 0 -199 -133z" />
    <glyph glyph-name="Ecaron" unicode="&#x11a;" horiz-adv-x="1378" 
d="M494 545v-211h809v-334h-1176v1434h1159v-334h-792v-256h729v-299h-729zM838 1579h-248l-250 365h240l133 -189h4l131 189h242z" />
    <glyph glyph-name="ecaron" unicode="&#x11b;" horiz-adv-x="1234" 
d="M625 1059q250 0 397 -149.5t147 -395.5q0 -55 -6 -98h-725q66 -123 279 -123q180 0 319 72l64 -304q-158 -92 -385 -92q-301 0 -475 151.5t-174 393.5q0 240 156.5 392.5t402.5 152.5zM428 602h393q-2 63 -57 98t-137 35q-156 0 -199 -133zM739 1176h-247l-250 364h239
l133 -188h4l132 188h241z" />
    <glyph glyph-name="Gcircumflex" unicode="&#x11c;" horiz-adv-x="1523" 
d="M838 541v293l602 2v-693q-143 -86 -274.5 -130t-295.5 -44q-358 0 -576 202t-218 529q0 330 220 547t574 217q289 0 488 -112l-115 -312q-150 88 -358 88q-201 0 -322 -122.5t-121 -305.5q0 -176 119 -285.5t309 -109.5q121 0 203 37v199h-235zM637 1944h248l248 -365
h-238l-133 188h-4l-131 -188h-242z" />
    <glyph glyph-name="gcircumflex" unicode="&#x11d;" horiz-adv-x="1265" 
d="M1198 909q-84 6 -143 -18v-4q78 -96 78 -215q0 -170 -140.5 -277.5t-365.5 -107.5q-121 4 -213 32q-14 -16 -15 -43q0 -57 125 -57h248q217 0 317.5 -71.5t100.5 -215.5q0 -170 -155.5 -295.5t-438.5 -125.5q-262 0 -388 82.5t-126 203.5q0 109 106 185v6
q-125 68 -125 190q0 154 152 256v4q-92 98 -92 234q0 172 139 279.5t365 107.5q113 0 215 -33q74 88 176 133t180 31v-281zM510 1540h248l248 -364h-238l-133 188h-4l-131 -188h-242zM626.5 530q71.5 0 114.5 37t43 94.5t-43 94.5t-114.5 37t-113.5 -37t-42 -94.5t42 -94.5
t113.5 -37zM418 -57q-16 -27 -17 -58q0 -45 55.5 -75.5t161.5 -30.5q88 0 157 24.5t69 69.5q0 70 -152 70h-274z" />
    <glyph glyph-name="Gbreve" unicode="&#x11e;" horiz-adv-x="1523" 
d="M838 541v293l602 2v-693q-143 -86 -274.5 -130t-295.5 -44q-358 0 -576 202t-218 529q0 330 220 547t574 217q289 0 488 -112l-115 -312q-150 88 -358 88q-201 0 -322 -122.5t-121 -305.5q0 -176 119 -285.5t309 -109.5q121 0 203 37v199h-235zM901 1921h191
q-2 -154 -86 -248t-246 -94t-246 94t-88 248h190q4 -63 43 -105t100.5 -42t99.5 42t42 105z" />
    <glyph glyph-name="gbreve" unicode="&#x11f;" horiz-adv-x="1265" 
d="M1198 909q-84 6 -143 -18v-4q78 -96 78 -215q0 -170 -140.5 -277.5t-365.5 -107.5q-121 4 -213 32q-14 -16 -15 -43q0 -57 125 -57h248q217 0 317.5 -71.5t100.5 -215.5q0 -170 -155.5 -295.5t-438.5 -125.5q-262 0 -388 82.5t-126 203.5q0 109 106 185v6
q-125 68 -125 190q0 154 152 256v4q-92 98 -92 234q0 172 139 279.5t365 107.5q113 0 215 -33q74 88 176 133t180 31v-281zM774 1518h191q-2 -154 -86 -248t-246 -94t-246 94t-88 248h190q4 -63 43 -105.5t100.5 -42.5t99.5 42.5t42 105.5zM626.5 530q71.5 0 114.5 37
t43 94.5t-43 94.5t-114.5 37t-113.5 -37t-42 -94.5t42 -94.5t113.5 -37zM418 -57q-16 -27 -17 -58q0 -45 55.5 -75.5t161.5 -30.5q88 0 157 24.5t69 69.5q0 70 -152 70h-274z" />
    <glyph glyph-name="Gdotaccent" unicode="&#x120;" horiz-adv-x="1523" 
d="M838 541v293l602 2v-693q-143 -86 -274.5 -130t-295.5 -44q-358 0 -576 202t-218 529q0 330 220 547t574 217q289 0 488 -112l-115 -312q-150 88 -358 88q-201 0 -322 -122.5t-121 -305.5q0 -176 119 -285.5t309 -109.5q121 0 203 37v199h-235zM592 1763q0 74 49 123
t121 49q70 0 117 -49t47 -123q0 -70 -46 -119t-118 -49q-74 0 -122 49t-48 119z" />
    <glyph glyph-name="gdotaccent" unicode="&#x121;" horiz-adv-x="1265" 
d="M1198 909q-84 6 -143 -18v-4q78 -96 78 -215q0 -170 -140.5 -277.5t-365.5 -107.5q-121 4 -213 32q-14 -16 -15 -43q0 -57 125 -57h248q217 0 317.5 -71.5t100.5 -215.5q0 -170 -155.5 -295.5t-438.5 -125.5q-262 0 -388 82.5t-126 203.5q0 109 106 185v6
q-125 68 -125 190q0 154 152 256v4q-92 98 -92 234q0 172 139 279.5t365 107.5q113 0 215 -33q74 88 176 133t180 31v-281zM465 1360q0 74 49 123t121 49q70 0 117 -49t47 -123q0 -70 -46 -119t-118 -49q-74 0 -122 49t-48 119zM626.5 530q71.5 0 114.5 37t43 94.5t-43 94.5
t-114.5 37t-113.5 -37t-42 -94.5t42 -94.5t113.5 -37zM418 -57q-16 -27 -17 -58q0 -45 55.5 -75.5t161.5 -30.5q88 0 157 24.5t69 69.5q0 70 -152 70h-274z" />
    <glyph glyph-name="uni0122" unicode="&#x122;" horiz-adv-x="1523" 
d="M838 541v293l602 2v-693q-143 -86 -274.5 -130t-295.5 -44q-358 0 -576 202t-218 529q0 330 220 547t574 217q289 0 488 -112l-115 -312q-150 88 -358 88q-201 0 -322 -122.5t-121 -305.5q0 -176 119 -285.5t309 -109.5q121 0 203 37v199h-235zM541 -399q63 12 109 56
t46 109.5t-69 124.5l256 33q39 -31 66.5 -87t27.5 -116q0 -145 -106.5 -230t-270.5 -89z" />
    <glyph glyph-name="uni0123" unicode="&#x123;" horiz-adv-x="1265" 
d="M1198 909q-84 6 -143 -18v-4q78 -96 78 -215q0 -170 -140.5 -277.5t-365.5 -107.5q-121 4 -213 32q-14 -16 -15 -43q0 -57 125 -57h248q217 0 317.5 -71.5t100.5 -215.5q0 -170 -155.5 -295.5t-438.5 -125.5q-262 0 -388 82.5t-126 203.5q0 109 106 185v6
q-125 68 -125 190q0 154 152 256v4q-92 98 -92 234q0 172 139 279.5t365 107.5q113 0 215 -33q74 88 176 133t180 31v-281zM827 1710l60 -199q-63 -12 -109.5 -56t-46.5 -109.5t70 -124.5l-256 -33q-39 31 -66.5 87t-27.5 116q0 145 106 230t270 89zM626.5 530
q71.5 0 114.5 37t43 94.5t-43 94.5t-114.5 37t-113.5 -37t-42 -94.5t42 -94.5t113.5 -37zM418 -57q-16 -27 -17 -58q0 -45 55.5 -75.5t161.5 -30.5q88 0 157 24.5t69 69.5q0 70 -152 70h-274z" />
    <glyph glyph-name="Hcircumflex" unicode="&#x124;" horiz-adv-x="1519" 
d="M1028 879v555h367v-1434h-367v526h-534v-526h-367v1434h367v-555h534zM639 1944h248l248 -365h-238l-133 188h-4l-131 -188h-242z" />
    <glyph glyph-name="hcircumflex" unicode="&#x125;" horiz-adv-x="1343" 
d="M768 1059q201 0 327 -146.5t126 -375.5v-537h-347v524q0 92 -61 151.5t-154 59.5q-92 2 -152.5 -57.5t-60.5 -151.5v-526h-346v1489h346v-565h9q114 135 313 135zM150 1944h247l248 -365h-237l-134 188h-4l-131 -188h-241z" />
    <glyph glyph-name="Hbar" unicode="&#x126;" horiz-adv-x="1624" 
d="M1446 1434v-197h199v-201h-199v-1036h-367v526h-534v-526h-367v1036h-198v201h198v197h367v-197h534v197h367zM1079 879v157h-534v-157h534z" />
    <glyph glyph-name="hbar" unicode="&#x127;" horiz-adv-x="1427" 
d="M850 1059q201 0 328 -146.5t127 -375.5v-537h-347v524q0 92 -61 151.5t-156 59.5q-92 2 -151.5 -57.5t-59.5 -151.5v-526h-346v1096h-207v252h207v141h346v-141h218v-252h-218v-172h7q116 135 313 135z" />
    <glyph glyph-name="Itilde" unicode="&#x128;" horiz-adv-x="552" 
d="M100 0v1434h367v-1434h-367zM469 1917l170 -35q-6 -268 -207 -268q-72 0 -170 53q-72 39 -96 39q-59 0 -66 -100l-174 39q4 127 60.5 197.5t146.5 70.5q70 0 160 -51q86 -45 104 -45q62 0 72 100z" />
    <glyph glyph-name="itilde" unicode="&#x129;" horiz-adv-x="575" 
d="M141 0v1030h346v-1030h-346zM500 1513l170 -34q-6 -268 -207 -269q-72 0 -170 54q-72 39 -96 39q-59 0 -66 -101l-174 39q4 127 60.5 197.5t146.5 70.5q70 0 160 -51q86 -45 104 -45q62 0 72 100z" />
    <glyph glyph-name="Imacron" unicode="&#x12a;" horiz-adv-x="534" 
d="M86 0v1434h367v-1434h-367zM-33 1855h604v-200h-604v200z" />
    <glyph glyph-name="imacron" unicode="&#x12b;" horiz-adv-x="485" 
d="M72 0v1030h346v-1030h-346zM-57 1452h604v-201h-604v201z" />
    <glyph glyph-name="Ibreve" unicode="&#x12c;" horiz-adv-x="581" 
d="M106 0v1434h367v-1434h-367zM432 1921h191q-2 -154 -86 -248t-246 -94t-246 94t-88 248h190q4 -63 43 -105t100.5 -42t99.5 42t42 105z" />
    <glyph glyph-name="ibreve" unicode="&#x12d;" horiz-adv-x="495" 
d="M76 0v1030h346v-1030h-346zM391 1518h191q-2 -154 -86 -248t-246 -94t-246 94t-88 248h190q4 -63 43 -105.5t100.5 -42.5t99.5 42.5t42 105.5z" />
    <glyph glyph-name="Iogonek" unicode="&#x12e;" horiz-adv-x="593" 
d="M113 0v1434h366v-1434h-69q-59 -119 -60 -176q0 -55 35 -92t92 -37q59 0 109 20l51 -172q-100 -76 -244 -75q-129 0 -200.5 64.5t-71.5 188.5q0 76 30.5 155t63.5 124h-102z" />
    <glyph glyph-name="iogonek" unicode="&#x12f;" horiz-adv-x="540" 
d="M98 0v1030h346v-1030h-69q-59 -119 -60 -176q0 -55 35 -92t92 -37q59 0 109 20l51 -172q-100 -76 -244 -75q-129 0 -200.5 64.5t-71.5 188.5q0 76 30.5 155t63.5 124h-82zM270 1571q90 0 150.5 -61.5t60.5 -149.5t-60.5 -149.5t-150.5 -61.5t-150.5 61.5t-60.5 149.5
t60.5 149.5t150.5 61.5z" />
    <glyph glyph-name="Idotaccent" unicode="&#x130;" horiz-adv-x="616" 
d="M125 0v1434h367v-1434h-367zM141 1763q0 74 49.5 123t120.5 49q70 0 117 -49t47 -123q0 -70 -46 -119t-118 -49q-74 0 -122 49t-48 119z" />
    <glyph glyph-name="dotlessi" unicode="&#x131;" horiz-adv-x="591" 
d="M123 0v1030h346v-1030h-346z" />
    <glyph glyph-name="IJ" unicode="&#x132;" horiz-adv-x="1587" 
d="M127 0v1434h367v-1434h-367zM1094 559v875h366v-883q0 -287 -139 -434.5t-412 -147.5q-164 0 -301 62l76 315q102 -41 219 -41q191 0 191 254z" />
    <glyph glyph-name="ij" unicode="&#x133;" horiz-adv-x="1112" 
d="M133 0v1030h346v-1030h-346zM305 1571q90 0 150.5 -61.5t60.5 -149.5t-60.5 -149.5t-150.5 -61.5t-150.5 61.5t-60.5 149.5t60.5 149.5t150.5 61.5zM637 -18v1048h346v-1114q-2 -178 -135 -293t-338 -112q-82 0 -178 18l24 305q49 -12 113 -12q168 0 168 160zM809 1571
q90 0 150.5 -61.5t60.5 -149.5t-60.5 -149.5t-150.5 -61.5t-150.5 61.5t-60.5 149.5t60.5 149.5t150.5 61.5z" />
    <glyph glyph-name="Jcircumflex" unicode="&#x134;" horiz-adv-x="962" 
d="M471 559v875h367v-883q0 -287 -139.5 -434.5t-411.5 -147.5q-164 0 -301 62l75 315q102 -41 220 -41q190 0 190 254zM537 1944h247l248 -365h-237l-133 188h-5l-131 -188h-241z" />
    <glyph glyph-name="jcircumflex" unicode="&#x135;" horiz-adv-x="516" 
d="M102 1540h248l248 -364h-238l-133 188h-4l-131 -188h-242zM63 -18v1048h347v-1114q-2 -178 -135.5 -293t-337.5 -112q-82 0 -179 18l25 305q49 -12 113 -12q167 0 167 160z" />
    <glyph glyph-name="uni0136" unicode="&#x136;" horiz-adv-x="1513" 
d="M1466 1436l-540 -582l581 -854h-448l-410 608l-155 -166v-442h-367v1434h367v-572h8l516 574h448zM573 -399q63 12 109.5 56t46.5 109.5t-70 124.5l256 33q39 -31 67 -87t28 -116q0 -145 -106.5 -230t-270.5 -89z" />
    <glyph glyph-name="uni0137" unicode="&#x137;" horiz-adv-x="1222" 
d="M1200 1030l-373 -414l402 -616h-369l-252 381l-139 -158v-223h-346v1489h346v-850h8l338 391h385zM459 -399q63 12 109 56t46 109.5t-69 124.5l256 33q39 -31 66.5 -87t27.5 -116q0 -145 -106.5 -230t-270.5 -89z" />
    <glyph glyph-name="kgreenlandic" unicode="&#x138;" horiz-adv-x="1222" 
d="M1200 1030l-373 -414l402 -616h-369l-252 381l-139 -158v-223h-346v1030h346v-391h8l338 391h385z" />
    <glyph glyph-name="Lacute" unicode="&#x139;" horiz-adv-x="1347" 
d="M563 1434v-1100h744v-334h-1110v1434h366zM461 1944h346l-295 -365h-258z" />
    <glyph glyph-name="lacute" unicode="&#x13a;" horiz-adv-x="501" 
d="M66 0v1489h346v-1489h-346zM311 1944h346l-295 -365h-258z" />
    <glyph glyph-name="uni013B" unicode="&#x13b;" horiz-adv-x="1277" 
d="M494 1434v-1100h743v-334h-1110v1434h367zM481 -399q63 12 109.5 56t46.5 109.5t-70 124.5l256 33q39 -31 67 -87t28 -116q0 -145 -106.5 -230t-270.5 -89z" />
    <glyph glyph-name="uni013C" unicode="&#x13c;" horiz-adv-x="657" 
d="M115 0v1489h346v-1489h-346zM70 -399q63 12 109 56t46 109.5t-69 124.5l256 33q39 -31 66.5 -87t27.5 -116q0 -145 -106.5 -230t-270.5 -89z" />
    <glyph glyph-name="Lcaron" unicode="&#x13d;" horiz-adv-x="1277" 
d="M494 1434v-1100h743v-334h-1110v1434h367zM780 944l-59 199q63 12 109.5 56t46.5 109.5t-70 125.5l256 32q39 -31 66.5 -87t27.5 -115q0 -145 -106.5 -230.5t-270.5 -89.5z" />
    <glyph glyph-name="lcaron" unicode="&#x13e;" horiz-adv-x="1011" 
d="M123 0v1489h346v-1489h-346zM565 1143q63 12 109.5 56t46.5 109.5t-70 125.5l256 32q39 -31 66.5 -87t27.5 -115q0 -145 -106.5 -230.5t-269.5 -89.5z" />
    <glyph glyph-name="Ldot" unicode="&#x13f;" horiz-adv-x="1277" 
d="M494 1434v-1100h743v-334h-1110v1434h367zM952 700q-82 0 -142 61.5t-60 143.5t60 141.5t142 59.5q84 0 143.5 -59.5t59.5 -141.5q0 -84 -60.5 -144.5t-142.5 -60.5z" />
    <glyph glyph-name="ldot" unicode="&#x140;" horiz-adv-x="968" 
d="M123 0v1489h346v-1489h-346zM776 702q-82 0 -142.5 61.5t-60.5 143.5t60.5 141.5t142.5 59.5q84 0 143.5 -59.5t59.5 -141.5q0 -84 -60.5 -144.5t-142.5 -60.5z" />
    <glyph glyph-name="Lslash" unicode="&#x141;" horiz-adv-x="1337" 
d="M553 616v-282h743v-334h-1110v481l-206 -75v333l206 78v617h367v-484l207 78v-336z" />
    <glyph glyph-name="lslash" unicode="&#x142;" horiz-adv-x="737" 
d="M543 1489v-512l215 80v-334l-215 -80v-643h-346v516l-217 -80v334l217 80v639h346z" />
    <glyph glyph-name="Nacute" unicode="&#x143;" horiz-adv-x="1521" 
d="M494 774v-774h-367v1434h305l588 -777h8v777h367v-1434h-308l-587 774h-6zM823 1944h346l-295 -365h-258z" />
    <glyph glyph-name="nacute" unicode="&#x144;" horiz-adv-x="1368" 
d="M469 526v-526h-346v1030h186l107 -184h8q61 100 159.5 156.5t217.5 56.5q197 0 320.5 -146.5t121.5 -375.5v-537h-346l2 524q0 92 -62.5 151.5t-154.5 59.5q-92 2 -151.5 -57.5t-61.5 -151.5zM797 1540h346l-295 -364h-258z" />
    <glyph glyph-name="uni0145" unicode="&#x145;" horiz-adv-x="1521" 
d="M494 774v-774h-367v1434h305l588 -777h8v777h367v-1434h-308l-587 774h-6zM543 -399q63 12 109 56t46 109.5t-69 124.5l256 33q39 -31 66.5 -87t27.5 -116q0 -145 -106.5 -230t-270.5 -89z" />
    <glyph glyph-name="uni0146" unicode="&#x146;" horiz-adv-x="1368" 
d="M469 526v-526h-346v1030h186l107 -184h8q61 100 159.5 156.5t217.5 56.5q197 0 320.5 -146.5t121.5 -375.5v-537h-346l2 524q0 92 -62.5 151.5t-154.5 59.5q-92 2 -151.5 -57.5t-61.5 -151.5zM467 -399q63 12 109.5 56t46.5 109.5t-70 124.5l256 33q39 -31 66.5 -87
t27.5 -116q0 -145 -106.5 -230t-270.5 -89z" />
    <glyph glyph-name="Ncaron" unicode="&#x147;" horiz-adv-x="1521" 
d="M494 774v-774h-367v1434h305l588 -777h8v777h367v-1434h-308l-587 774h-6zM883 1579h-248l-250 365h240l133 -189h4l131 189h242z" />
    <glyph glyph-name="ncaron" unicode="&#x148;" horiz-adv-x="1368" 
d="M469 526v-526h-346v1030h186l107 -184h8q61 100 159.5 156.5t217.5 56.5q197 0 320.5 -146.5t121.5 -375.5v-537h-346l2 524q0 92 -62.5 151.5t-154.5 59.5q-92 2 -151.5 -57.5t-61.5 -151.5zM807 1176h-248l-250 364h240l133 -188h4l131 188h242z" />
    <glyph glyph-name="napostrophe" unicode="&#x149;" horiz-adv-x="1720" 
d="M821 526v-526h-346v1030h187l106 -184h8q61 100 159.5 156.5t217.5 56.5q197 0 320.5 -146.5t121.5 -375.5v-537h-346l2 524q0 92 -62.5 151.5t-154.5 59.5q-92 2 -151.5 -57.5t-61.5 -151.5zM141 944l-59 199q63 12 109.5 56t46.5 109.5t-70 125.5l256 32
q39 -31 66.5 -87t27.5 -115q0 -145 -106.5 -230.5t-270.5 -89.5z" />
    <glyph glyph-name="Eng" unicode="&#x14a;" horiz-adv-x="1519" 
d="M1028 657v777h365v-1516q0 -182 -132.5 -294.5t-338.5 -110.5q-82 0 -179 18l23 305q51 -12 115 -12q166 0 168 160v69l-549 721h-6v-774h-367v1434h305l588 -777h8z" />
    <glyph glyph-name="eng" unicode="&#x14b;" horiz-adv-x="1366" 
d="M801 1059q197 0 319.5 -146.5t122.5 -375.5v-619q0 -178 -134 -292.5t-337 -112.5q-82 0 -178 18l22 305q49 -12 115 -12q166 0 166 160v540q0 92 -61.5 151.5t-153.5 59.5q-92 2 -151.5 -57.5t-61.5 -151.5v-526h-346v1030h184l109 -184h6q131 213 379 213z" />
    <glyph glyph-name="Omacron" unicode="&#x14c;" horiz-adv-x="1622" 
d="M811 1464q319 0 527 -211t208 -536.5t-208 -536.5t-527 -211t-527 211t-208 536.5t208 536.5t527 211zM811 305q162 0 265.5 116t103.5 296t-103.5 295.5t-265.5 115.5t-264.5 -115.5t-102.5 -295.5t102.5 -296t264.5 -116zM510 1855h604v-200h-604v200z" />
    <glyph glyph-name="omacron" unicode="&#x14d;" horiz-adv-x="1273" 
d="M637 1059q248 0 409.5 -153.5t161.5 -391.5t-161.5 -391.5t-409.5 -153.5q-248 2 -409.5 156t-161.5 391.5t161.5 391t409.5 151.5zM637 293q96 0 157.5 62.5t61.5 158.5t-61.5 158.5t-157.5 62.5q-94 2 -156.5 -60.5t-62.5 -158.5t62.5 -159.5t156.5 -63.5zM336 1452
h604v-201h-604v201z" />
    <glyph glyph-name="Obreve" unicode="&#x14e;" horiz-adv-x="1622" 
d="M811 1464q319 0 527 -211t208 -536.5t-208 -536.5t-527 -211t-527 211t-208 536.5t208 536.5t527 211zM811 305q162 0 265.5 116t103.5 296t-103.5 295.5t-265.5 115.5t-264.5 -115.5t-102.5 -295.5t102.5 -296t264.5 -116zM954 1921h191q-2 -154 -86 -248t-246 -94
t-246 94t-88 248h191q4 -63 43 -105t100 -42t99 42t42 105z" />
    <glyph glyph-name="obreve" unicode="&#x14f;" horiz-adv-x="1273" 
d="M637 1059q248 0 409.5 -153.5t161.5 -391.5t-161.5 -391.5t-409.5 -153.5q-248 2 -409.5 156t-161.5 391.5t161.5 391t409.5 151.5zM637 293q96 0 157.5 62.5t61.5 158.5t-61.5 158.5t-157.5 62.5q-94 2 -156.5 -60.5t-62.5 -158.5t62.5 -159.5t156.5 -63.5zM780 1518
h191q-2 -154 -86 -248t-246 -94t-246 94t-88 248h191q4 -63 43 -105.5t100 -42.5t99 42.5t42 105.5z" />
    <glyph glyph-name="Ohungarumlaut" unicode="&#x150;" horiz-adv-x="1622" 
d="M811 1464q319 0 527 -211t208 -536.5t-208 -536.5t-527 -211t-527 211t-208 536.5t208 536.5t527 211zM811 305q162 0 265.5 116t103.5 296t-103.5 295.5t-265.5 115.5t-264.5 -115.5t-102.5 -295.5t102.5 -296t264.5 -116zM1096 1942h309l-275 -359h-227zM678 1942h309
l-276 -359h-226z" />
    <glyph glyph-name="ohungarumlaut" unicode="&#x151;" horiz-adv-x="1282" 
d="M637 1059q248 0 409.5 -153.5t161.5 -391.5t-161.5 -391.5t-409.5 -153.5q-248 2 -409.5 156t-161.5 391.5t161.5 391t409.5 151.5zM637 293q96 0 157.5 62.5t61.5 158.5t-61.5 158.5t-157.5 62.5q-94 2 -156.5 -60.5t-62.5 -158.5t62.5 -159.5t156.5 -63.5zM907 1538
h310l-275 -358h-227zM489 1538h310l-277 -358h-225z" />
    <glyph glyph-name="OE" unicode="&#x152;" horiz-adv-x="2441" 
d="M1552 545v-211h809v-334h-1175q-127 -31 -246 -31q-389 0 -626.5 209t-237.5 539t237.5 538.5t626.5 208.5q119 0 246 -30h1157v-334h-791v-256h727v-299h-727zM1186 350v733q-104 45 -246 45q-238 0 -371 -113.5t-133 -298t133 -298t371 -113.5q142 0 246 45z" />
    <glyph glyph-name="oe" unicode="&#x153;" horiz-adv-x="2019" 
d="M1427 1059q252 0 389.5 -148.5t137.5 -396.5q0 -8 -1 -24.5t-3 -40t-2 -37.5h-725q68 -119 276 -119q184 0 320 72l63 -304q-158 -92 -371 -92q-313 0 -485 189h-6q-156 -188 -416 -189q-233 2 -385.5 156t-152.5 391q2 238 154.5 391.5t383.5 151.5q260 0 414 -187h8
q155 187 401 187zM637 293q96 0 157.5 62.5t63.5 158.5q0 96 -62.5 158.5t-158.5 62.5q-94 2 -156.5 -61.5t-62.5 -157.5q0 -96 62.5 -159.5t156.5 -63.5zM1212 602h392q-8 66 -62.5 100.5t-132.5 34.5q-156 0 -197 -135z" />
    <glyph glyph-name="Racute" unicode="&#x154;" horiz-adv-x="1497" 
d="M1116 608q109 -45 162 -182l158 -426h-406l-158 397q-14 37 -38.5 59.5t-59.5 30t-53.5 9.5t-52.5 2h-174v-498h-367v1434h733q225 0 364.5 -119t139.5 -322q0 -262 -248 -375v-10zM991 942q0 70 -46 114t-118 44h-333v-314h333q72 0 118 44t46 112zM741 1944h346
l-294 -365h-258z" />
    <glyph glyph-name="racute" unicode="&#x155;" horiz-adv-x="837" 
d="M432 823q59 111 154.5 173.5t212.5 62.5l-2 -324q-133 0 -230.5 -73.5t-97.5 -221.5v-440h-346v1030h184l121 -207h4zM446 1540h347l-295 -364h-258z" />
    <glyph glyph-name="uni0156" unicode="&#x156;" horiz-adv-x="1497" 
d="M1116 608q109 -45 162 -182l158 -426h-406l-158 397q-14 37 -38.5 59.5t-59.5 30t-53.5 9.5t-52.5 2h-174v-498h-367v1434h733q225 0 364.5 -119t139.5 -322q0 -262 -248 -375v-10zM563 -399q63 12 109.5 56t46.5 109.5t-70 124.5l256 33q39 -31 66.5 -87t27.5 -116
q0 -145 -106.5 -230t-269.5 -89zM991 942q0 70 -46 114t-118 44h-333v-314h333q72 0 118 44t46 112z" />
    <glyph glyph-name="uni0157" unicode="&#x157;" horiz-adv-x="868" 
d="M471 823q59 111 154.5 173.5t212.5 62.5l-2 -324q-133 0 -230.5 -73.5t-97.5 -221.5v-440h-346v1030h184l121 -207h4zM88 -399q63 12 109.5 56t46.5 109.5t-70 124.5l256 33q39 -31 66.5 -87t27.5 -116q0 -145 -106.5 -230t-270.5 -89z" />
    <glyph glyph-name="Rcaron" unicode="&#x158;" horiz-adv-x="1497" 
d="M1116 608q109 -45 162 -182l158 -426h-406l-158 397q-14 37 -38.5 59.5t-59.5 30t-53.5 9.5t-52.5 2h-174v-498h-367v1434h733q225 0 364.5 -119t139.5 -322q0 -262 -248 -375v-10zM829 1579h-247l-250 365h239l134 -189h4l131 189h241zM991 942q0 70 -46 114t-118 44
h-333v-314h333q72 0 118 44t46 112z" />
    <glyph glyph-name="rcaron" unicode="&#x159;" horiz-adv-x="868" 
d="M444 823q59 111 154.5 173.5t212.5 62.5l-2 -324q-133 0 -230.5 -73.5t-97.5 -221.5v-440h-346v1030h184l121 -207h4zM606 1176h-248l-249 364h239l133 -188h4l131 188h242z" />
    <glyph glyph-name="Sacute" unicode="&#x15a;" horiz-adv-x="1372" 
d="M754 885q274 -59 412.5 -165t138.5 -296q0 -223 -171 -339t-450 -116q-156 0 -336 55.5t-297 131.5l135 288q223 -152 506 -151q92 0 160 26.5t68 81.5q0 47 -63.5 81t-215.5 69q-272 61 -412.5 168.5t-140.5 312.5q0 203 175 317.5t462 114.5q131 0 272.5 -41t229.5 -92
l-101 -309q-197 115 -411 115q-123 0 -183.5 -30t-60.5 -73q0 -49 63.5 -81.5t219.5 -67.5zM717 1944h346l-295 -365h-258z" />
    <glyph glyph-name="sacute" unicode="&#x15b;" horiz-adv-x="1032" 
d="M967 297q0 -152 -120 -239t-304 -87q-279 0 -506 119l88 262q178 -109 389 -108q117 0 117 49q0 31 -33 47t-129 43q-178 45 -280.5 127t-102.5 227q0 143 111.5 232.5t359.5 89.5q80 0 196.5 -25.5t178.5 -54.5l-68 -258q-133 66 -301 65q-139 0 -139 -51q0 -25 37 -41
t137 -45q188 -53 278.5 -132t90.5 -220zM582 1540h346l-295 -364h-258z" />
    <glyph glyph-name="Scircumflex" unicode="&#x15c;" horiz-adv-x="1372" 
d="M754 885q274 -59 412.5 -165t138.5 -296q0 -223 -171 -339t-450 -116q-156 0 -336 55.5t-297 131.5l135 288q223 -152 506 -151q92 0 160 26.5t68 81.5q0 47 -63.5 81t-215.5 69q-272 61 -412.5 168.5t-140.5 312.5q0 203 175 317.5t462 114.5q131 0 272.5 -41t229.5 -92
l-101 -309q-197 115 -411 115q-123 0 -183.5 -30t-60.5 -73q0 -49 63.5 -81.5t219.5 -67.5zM557 1944h248l248 -365h-238l-133 188h-4l-131 -188h-242z" />
    <glyph glyph-name="scircumflex" unicode="&#x15d;" horiz-adv-x="1032" 
d="M967 297q0 -152 -120 -239t-304 -87q-279 0 -506 119l88 262q178 -109 389 -108q117 0 117 49q0 31 -33 47t-129 43q-178 45 -280.5 127t-102.5 227q0 143 111.5 232.5t359.5 89.5q80 0 196.5 -25.5t178.5 -54.5l-68 -258q-133 66 -301 65q-139 0 -139 -51q0 -25 37 -41
t137 -45q188 -53 278.5 -132t90.5 -220zM381 1540h248l248 -364h-238l-133 188h-4l-131 -188h-242z" />
    <glyph glyph-name="Scedilla" unicode="&#x15e;" horiz-adv-x="1372" 
d="M780 -117q0 -2 2 -6q78 -12 131.5 -63.5t53.5 -126.5q0 -121 -89.5 -177.5t-230.5 -56.5q-123 0 -215 53l53 152q80 -45 146 -45q41 0 67.5 16.5t24.5 51.5q0 94 -160 83l-16 74l67 135q-147 10 -303.5 62.5t-259.5 120.5l135 288q223 -152 506 -151q92 0 160 26.5
t68 81.5q0 47 -63.5 81t-215.5 69q-272 61 -412.5 168.5t-140.5 312.5q0 203 175 317.5t462 114.5q131 0 272.5 -41t229.5 -92l-101 -309q-197 115 -411 115q-123 0 -183.5 -30t-60.5 -73q0 -49 63.5 -81.5t219.5 -67.5q274 -59 412.5 -165t138.5 -296.5t-127 -303
t-344 -140.5z" />
    <glyph glyph-name="scedilla" unicode="&#x15f;" horiz-adv-x="1032" 
d="M598 -117v-2l2 -4q78 -12 131 -63.5t53 -126.5q0 -121 -89 -177.5t-230 -56.5q-123 0 -215 53l53 152q80 -45 146 -45q41 0 67.5 16.5t24.5 51.5q0 94 -160 83l-16 74l69 139q-213 16 -397 113l88 262q178 -109 389 -108q117 0 117 49q0 31 -33 47t-129 43
q-178 45 -280.5 127t-102.5 227q0 143 111.5 232.5t359.5 89.5q80 0 196.5 -25.5t178.5 -54.5l-68 -258q-133 66 -301 65q-139 0 -139 -51q0 -25 37 -41t137 -45q188 -53 278.5 -132t90.5 -220q0 -127 -87 -209t-229 -106z" />
    <glyph glyph-name="Scaron" unicode="&#x160;" horiz-adv-x="1372" 
d="M754 885q274 -59 412.5 -165t138.5 -296q0 -223 -171 -339t-450 -116q-156 0 -336 55.5t-297 131.5l135 288q223 -152 506 -151q92 0 160 26.5t68 81.5q0 47 -63.5 81t-215.5 69q-272 61 -412.5 168.5t-140.5 312.5q0 203 175 317.5t462 114.5q131 0 272.5 -41t229.5 -92
l-101 -309q-197 115 -411 115q-123 0 -183.5 -30t-60.5 -73q0 -49 63.5 -81.5t219.5 -67.5zM801 1579h-248l-250 365h240l133 -189h4l131 189h242z" />
    <glyph glyph-name="scaron" unicode="&#x161;" horiz-adv-x="1032" 
d="M967 297q0 -152 -120 -239t-304 -87q-279 0 -506 119l88 262q178 -109 389 -108q117 0 117 49q0 31 -33 47t-129 43q-178 45 -280.5 127t-102.5 227q0 143 111.5 232.5t359.5 89.5q80 0 196.5 -25.5t178.5 -54.5l-68 -258q-133 66 -301 65q-139 0 -139 -51q0 -25 37 -41
t137 -45q188 -53 278.5 -132t90.5 -220zM625 1176h-248l-250 364h240l133 -188h4l131 188h242z" />
    <glyph glyph-name="uni0162" unicode="&#x162;" horiz-adv-x="1249" 
d="M440 0v1100h-411v334h1192v-334h-414v-1100h-59l-66 -117q0 -2 2 -6q78 -12 131 -63.5t53 -126.5q0 -121 -89 -177.5t-230 -56.5q-123 0 -215 53l53 152q80 -45 145 -45q41 0 68 16.5t25 51.5q0 94 -160 83l-16 74l81 162h-90z" />
    <glyph glyph-name="uni0163" unicode="&#x163;" horiz-adv-x="948" 
d="M711 -117q0 -2 2 -6q78 -12 131 -63.5t53 -126.5q0 -121 -89 -177.5t-230 -56.5q-123 0 -216 53l54 152q80 -45 145 -45q41 0 67.5 16.5t24.5 51.5q0 94 -159 83l-17 74l74 148q-147 35 -234.5 140t-87.5 251v360h-217v293h224l61 303h278v-303h353v-293h-353v-297
q0 -160 158 -159q96 0 170 28l27 -309q-109 -23 -170 -27z" />
    <glyph glyph-name="Tcaron" unicode="&#x164;" horiz-adv-x="1249" 
d="M440 0v1100h-411v334h1192v-334h-414v-1100h-367zM748 1579h-248l-250 365h239l134 -189h4l131 189h241z" />
    <glyph glyph-name="tcaron" unicode="&#x165;" horiz-adv-x="1007" 
d="M733 281q96 0 170 28l27 -309q-141 -31 -238 -31q-203 0 -333 115t-130 293v360h-217v293h224l61 303h278v-303h353v-293h-353v-297q0 -159 158 -159zM799 1094l-60 198q63 12 109.5 56.5t46.5 110t-70 124.5l256 33q39 -31 67 -87t28 -116q0 -145 -106.5 -230
t-270.5 -89z" />
    <glyph glyph-name="Tbar" unicode="&#x166;" horiz-adv-x="1249" 
d="M29 1100v334h1192v-334h-414v-215h317v-336h-317v-549h-367v549h-317v336h317v215h-411z" />
    <glyph glyph-name="tbar" unicode="&#x167;" horiz-adv-x="950" 
d="M735 281q98 0 168 28l29 -309q-141 -31 -238 -31q-205 0 -334 115t-129 293v31h-219v231h219v98h-219v293h226l61 303h279v-303h352v-293h-352v-98h352v-231h-350q14 -127 155 -127z" />
    <glyph glyph-name="Utilde" unicode="&#x168;" horiz-adv-x="1509" 
d="M755.5 -31q-272.5 0 -450.5 155t-178 392v918h367v-918q0 -92 73.5 -151.5t188 -59.5t187.5 59.5t73 151.5v918h366v-918q0 -238 -177 -392.5t-449.5 -154.5zM940 1917l170 -35q-6 -268 -207 -268q-72 0 -170 53q-72 39 -96 39q-59 0 -66 -100l-174 39q4 127 60.5 197.5
t146.5 70.5q70 0 160 -51q86 -45 104 -45q62 0 72 100z" />
    <glyph glyph-name="utilde" unicode="&#x169;" horiz-adv-x="1368" 
d="M899 504v526h346v-1030h-186l-107 184h-8q-133 -215 -377 -215q-197 0 -320.5 147.5t-121.5 377.5v536h346l-2 -524q0 -92 62.5 -151.5t154.5 -59.5q92 -2 151.5 57.5t61.5 151.5zM870 1513l170 -34q-6 -268 -206 -269q-72 0 -170 54q-72 39 -97 39q-59 0 -65 -101
l-174 39q4 127 60 197.5t147 70.5q70 0 159 -51q86 -45 105 -45q61 0 71 100z" />
    <glyph glyph-name="Umacron" unicode="&#x16a;" horiz-adv-x="1509" 
d="M755.5 -31q-272.5 0 -450.5 155t-178 392v918h367v-918q0 -92 73.5 -151.5t188 -59.5t187.5 59.5t73 151.5v918h366v-918q0 -238 -177 -392.5t-449.5 -154.5zM453 1855h604v-200h-604v200z" />
    <glyph glyph-name="umacron" unicode="&#x16b;" horiz-adv-x="1368" 
d="M899 504v526h346v-1030h-186l-107 184h-8q-133 -215 -377 -215q-197 0 -320.5 147.5t-121.5 377.5v536h346l-2 -524q0 -92 62.5 -151.5t154.5 -59.5q92 -2 151.5 57.5t61.5 151.5zM383 1452h604v-201h-604v201z" />
    <glyph glyph-name="Ubreve" unicode="&#x16c;" horiz-adv-x="1509" 
d="M755.5 -31q-272.5 0 -450.5 155t-178 392v918h367v-918q0 -92 73.5 -151.5t188 -59.5t187.5 59.5t73 151.5v918h366v-918q0 -238 -177 -392.5t-449.5 -154.5zM897 1921h190q-2 -154 -85.5 -248t-245.5 -94t-246 94t-88 248h190q4 -63 43 -105t100.5 -42t99.5 42t42 105z
" />
    <glyph glyph-name="ubreve" unicode="&#x16d;" horiz-adv-x="1368" 
d="M899 504v526h346v-1030h-186l-107 184h-8q-133 -215 -377 -215q-197 0 -320.5 147.5t-121.5 377.5v536h346l-2 -524q0 -92 62.5 -151.5t154.5 -59.5q92 -2 151.5 57.5t61.5 151.5zM827 1518h191q-2 -154 -86 -248t-246 -94t-246 94t-88 248h191q4 -63 43 -105.5
t100.5 -42.5t99 42.5t41.5 105.5z" />
    <glyph glyph-name="Uring" unicode="&#x16e;" horiz-adv-x="1509" 
d="M755.5 -31q-272.5 0 -450.5 155t-178 392v918h367v-918q0 -92 73.5 -151.5t188 -59.5t187.5 59.5t73 151.5v918h366v-918q0 -238 -177 -392.5t-449.5 -154.5zM848 1786q0 41 -24.5 69.5t-69.5 28.5q-41 0 -64.5 -29.5t-23.5 -70.5q0 -37 25.5 -65.5t64.5 -28.5
q43 0 67.5 27.5t24.5 68.5zM479 1782q0 104 75 172.5t208 68.5q129 0 198.5 -66.5t69.5 -172.5q0 -102 -74.5 -168t-197.5 -66q-125 0 -202 66t-77 166z" />
    <glyph glyph-name="uring" unicode="&#x16f;" horiz-adv-x="1368" 
d="M899 504v526h346v-1030h-186l-107 184h-8q-133 -215 -377 -215q-197 0 -320.5 147.5t-121.5 377.5v536h346l-2 -524q0 -92 62.5 -151.5t154.5 -59.5q92 -2 151.5 57.5t61.5 151.5zM778 1382q0 41 -24.5 70t-69.5 29q-41 0 -64.5 -30t-23.5 -71q0 -37 25.5 -65.5
t64.5 -28.5q43 0 67.5 27.5t24.5 68.5zM410 1378q0 104 74.5 173t207.5 69q129 0 199 -66.5t70 -173.5q0 -102 -75 -167.5t-198 -65.5q-125 0 -201.5 65.5t-76.5 165.5z" />
    <glyph glyph-name="Uhungarumlaut" unicode="&#x170;" horiz-adv-x="1509" 
d="M755.5 -31q-272.5 0 -450.5 155t-178 392v918h367v-918q0 -92 73.5 -151.5t188 -59.5t187.5 59.5t73 151.5v918h366v-918q0 -238 -177 -392.5t-449.5 -154.5zM1061 1942h309l-274 -359h-228zM643 1942h309l-276 -359h-225z" />
    <glyph glyph-name="uhungarumlaut" unicode="&#x171;" horiz-adv-x="1392" 
d="M899 504v526h346v-1030h-186l-107 184h-8q-133 -215 -377 -215q-197 0 -320.5 147.5t-121.5 377.5v536h346l-2 -524q0 -92 62.5 -151.5t154.5 -59.5q92 -2 151.5 57.5t61.5 151.5zM961 1538h309l-275 -358h-227zM543 1538h309l-277 -358h-225z" />
    <glyph glyph-name="Uogonek" unicode="&#x172;" horiz-adv-x="1509" 
d="M1382 516q0 -217 -150.5 -366.5t-387.5 -174.5q-45 -90 -45 -151q0 -55 34.5 -92t92.5 -37q59 0 108 20l51 -172q-100 -76 -243 -75q-129 0 -201 64.5t-72 188.5q0 127 78 256q-229 29 -374.5 177.5t-145.5 361.5v918h367v-918q0 -92 73.5 -151.5t188 -59.5t187.5 59.5
t73 151.5v918h366v-918z" />
    <glyph glyph-name="uogonek" unicode="&#x173;" horiz-adv-x="1417" 
d="M899 504v526h346v-1030h-2q-59 -119 -59 -176q0 -55 34.5 -92t92.5 -37q59 0 108 20l51 -172q-100 -76 -243 -75q-129 0 -201 64.5t-72 188.5q0 74 33 156t68 129l-103 178h-8q-133 -215 -377 -215q-197 0 -320.5 147.5t-121.5 377.5v536h346l-2 -524q0 -92 62.5 -151.5
t154.5 -59.5q92 -2 151.5 57.5t61.5 151.5z" />
    <glyph glyph-name="Wcircumflex" unicode="&#x174;" horiz-adv-x="2095" 
d="M1712 1434h387l-411 -1434h-420l-215 776h-9l-215 -776h-419l-414 1434h387l235 -916h7l245 916h357l246 -916h6zM926 1944h248l247 -365h-237l-133 188h-4l-132 -188h-241z" />
    <glyph glyph-name="wcircumflex" unicode="&#x175;" horiz-adv-x="1828" 
d="M1298 399l170 631h369l-305 -1030h-418l-196 569h-7l-196 -569h-418l-305 1030h368l170 -631h7l208 631h338l209 -631h6zM793 1540h247l248 -364h-237l-133 188h-5l-131 -188h-241z" />
    <glyph glyph-name="Ycircumflex" unicode="&#x176;" horiz-adv-x="1357" 
d="M682 915l262 519h426l-508 -912v-522h-366v522l-508 912h426l262 -519h6zM559 1944h248l248 -365h-238l-133 188h-4l-131 -188h-242z" />
    <glyph glyph-name="ycircumflex" unicode="&#x177;" horiz-adv-x="1110" 
d="M793 1030h346l-387 -1118q-78 -227 -206 -313t-360 -86q-84 0 -153 18v319q78 -27 180 -26q131 0 186 90l-428 1116h367l229 -631h8zM434 1540h248l248 -364h-238l-133 188h-4l-131 -188h-242z" />
    <glyph glyph-name="Ydieresis" unicode="&#x178;" horiz-adv-x="1357" 
d="M682 915l262 519h426l-508 -912v-522h-366v522l-508 912h426l262 -519h6zM729 1761q0 74 49 123t121 49t120 -49t48 -123q0 -70 -48 -119t-120 -49q-74 0 -122 49t-48 119zM295 1761q0 74 50 123t122 49q70 0 117 -49t47 -123q0 -70 -47 -119t-117 -49q-74 0 -123 49
t-49 119z" />
    <glyph glyph-name="Zacute" unicode="&#x179;" horiz-adv-x="1337" 
d="M606 340v-6h672v-334h-1219v240l674 852v8h-653v334h1180v-269zM731 1944h346l-295 -365h-258z" />
    <glyph glyph-name="zacute" unicode="&#x17a;" horiz-adv-x="1236" 
d="M1133 825l-529 -540v-4h561v-281h-1093v203l544 542v5h-512v280h1029v-205zM686 1540h346l-295 -364h-258z" />
    <glyph glyph-name="Zdotaccent" unicode="&#x17b;" horiz-adv-x="1337" 
d="M606 340v-6h672v-334h-1219v240l674 852v8h-653v334h1180v-269zM502 1763q0 74 49 123t121 49q70 0 117 -49t47 -123q0 -70 -46.5 -119t-117.5 -49q-74 0 -122 49t-48 119z" />
    <glyph glyph-name="zdotaccent" unicode="&#x17c;" horiz-adv-x="1236" 
d="M1133 825l-529 -540v-4h561v-281h-1093v203l544 542v5h-512v280h1029v-205zM453 1360q0 74 49 123t121 49q70 0 116.5 -49t46.5 -123q0 -70 -46 -119t-117 -49q-74 0 -122 49t-48 119z" />
    <glyph glyph-name="Zcaron" unicode="&#x17d;" horiz-adv-x="1337" 
d="M606 340v-6h672v-334h-1219v240l674 852v8h-653v334h1180v-269zM791 1579h-248l-250 365h239l134 -189h4l131 189h241z" />
    <glyph glyph-name="zcaron" unicode="&#x17e;" horiz-adv-x="1236" 
d="M1133 825l-529 -540v-4h561v-281h-1093v203l544 542v5h-512v280h1029v-205zM741 1176h-247l-250 364h239l133 -188h5l131 188h241z" />
    <glyph glyph-name="longs" unicode="&#x17f;" horiz-adv-x="833" 
d="M725 1212q-166 0 -168 -159v-1053h-346v737h-217v293h219v88q0 176 133 291t338 115q106 0 229 -31l-28 -309q-70 28 -160 28z" />
    <glyph glyph-name="florin" unicode="&#x192;" horiz-adv-x="866" 
d="M270 1122q33 176 137.5 259t297.5 83q139 0 229 -26l-2 -324q-70 18 -139.5 18.5t-106.5 -28.5t-47 -96l-10 -60h225v-286h-276l-166 -871h-387l163 871h-161v286h211z" />
    <glyph glyph-name="Ohorn" unicode="&#x1a0;" horiz-adv-x="1902" 
d="M1540 1565h295v-166q0 -328 -326 -365q70 -152 70 -317q0 -330 -212 -539t-539.5 -209t-539.5 208t-212 540t212 539.5t539 207.5q358 0 574 -254q78 8 108.5 57.5t30.5 147.5v150zM827.5 311q165.5 0 270 112t104.5 294t-103.5 293.5t-271.5 111.5t-271 -111.5
t-103 -293.5t104.5 -294t270 -112z" />
    <glyph glyph-name="ohorn" unicode="&#x1a1;" horiz-adv-x="1499" 
d="M1139 1036v144h295v-160q0 -287 -246 -350q20 -70 20 -156q0 -238 -161.5 -391.5t-409.5 -153.5t-409.5 153.5t-161.5 391.5t162.5 391.5t410.5 153.5q285 0 448 -197q52 37 52 174zM637 293q96 0 157.5 62.5t61.5 158.5q2 96 -60.5 158.5t-158.5 62.5
q-94 0 -156.5 -62.5t-62.5 -158.5t61.5 -158.5t157.5 -62.5z" />
    <glyph glyph-name="Uhorn" unicode="&#x1af;" horiz-adv-x="1683" 
d="M1798 1567v-137q0 -373 -416 -369v-545q0 -240 -178 -393.5t-448 -153.5q-272 0 -450.5 153.5t-178.5 393.5v918h367v-918q0 -94 72.5 -153.5t189.5 -59.5q115 0 187.5 59.5t72.5 153.5v918h366v-189q74 12 97.5 56.5t23.5 144.5v121h295z" />
    <glyph glyph-name="uhorn" unicode="&#x1b0;" horiz-adv-x="1568" 
d="M1352 1151h295v-160q0 -365 -404 -368v-623h-184l-109 184h-6q-61 -100 -159.5 -156.5t-217.5 -56.5q-197 0 -320.5 146.5t-123.5 376.5v536h346v-524q0 -92 61.5 -151.5t155.5 -61.5q90 0 150.5 59.5t60.5 149.5v528h346v-221q68 14 88.5 58t20.5 141v143z" />
    <glyph glyph-name="Gcaron" unicode="&#x1e6;" horiz-adv-x="1523" 
d="M838 541v293l602 2v-693q-143 -86 -274.5 -130t-295.5 -44q-358 0 -576 202t-218 529q0 330 220 547t574 217q289 0 488 -112l-115 -312q-150 88 -358 88q-201 0 -322 -122.5t-121 -305.5q0 -176 119 -285.5t309 -109.5q121 0 203 37v199h-235zM948 1579h-248l-249 365
h239l133 -189h4l131 189h242z" />
    <glyph glyph-name="gcaron" unicode="&#x1e7;" horiz-adv-x="1265" 
d="M1198 909q-84 6 -143 -18v-4q78 -96 78 -215q0 -170 -140.5 -277.5t-365.5 -107.5q-121 4 -213 32q-14 -16 -15 -43q0 -57 125 -57h248q217 0 317.5 -71.5t100.5 -215.5q0 -170 -155.5 -295.5t-438.5 -125.5q-262 0 -388 82.5t-126 203.5q0 109 106 185v6
q-125 68 -125 190q0 154 152 256v4q-92 98 -92 234q0 172 139 279.5t365 107.5q113 0 215 -33q74 88 176 133t180 31v-281zM729 1180h-248l-250 364h240l133 -188h4l131 188h242zM626.5 530q71.5 0 114.5 37t43 94.5t-43 94.5t-114.5 37t-113.5 -37t-42 -94.5t42 -94.5
t113.5 -37zM418 -57q-16 -27 -17 -58q0 -45 55.5 -75.5t161.5 -30.5q88 0 157 24.5t69 69.5q0 70 -152 70h-274z" />
    <glyph glyph-name="uni01F4" unicode="&#x1f4;" horiz-adv-x="1523" 
d="M838 541v293l602 2v-693q-143 -86 -274.5 -130t-295.5 -44q-358 0 -576 202t-218 529q0 330 220 547t574 217q289 0 488 -112l-115 -312q-150 88 -358 88q-201 0 -322 -122.5t-121 -305.5q0 -176 119 -285.5t309 -109.5q121 0 203 37v199h-235zM897 1921h346l-295 -365
h-258z" />
    <glyph glyph-name="uni01F5" unicode="&#x1f5;" horiz-adv-x="1265" 
d="M1198 909q-84 6 -143 -18v-4q78 -96 78 -215q0 -170 -140.5 -277.5t-365.5 -107.5q-121 4 -213 32q-14 -16 -15 -43q0 -57 125 -57h248q217 0 317.5 -71.5t100.5 -215.5q0 -170 -155.5 -295.5t-438.5 -125.5q-262 0 -388 82.5t-126 203.5q0 109 106 185v6
q-125 68 -125 190q0 154 152 256v4q-92 98 -92 234q0 172 139 279.5t365 107.5q113 0 215 -33q74 88 176 133t180 31v-281zM745 1540h347l-295 -364h-258zM626.5 530q71.5 0 114.5 37t43 94.5t-43 94.5t-114.5 37t-113.5 -37t-42 -94.5t42 -94.5t113.5 -37zM418 -57
q-16 -27 -17 -58q0 -45 55.5 -75.5t161.5 -30.5q88 0 157 24.5t69 69.5q0 70 -152 70h-274z" />
    <glyph glyph-name="Aringacute" unicode="&#x1fa;" horiz-adv-x="1490" 
d="M537 1434h417l549 -1434h-416l-71 215h-539l-71 -215h-418zM731 2181h283l-180 -186q92 -20 141 -82t49 -150q0 -102 -75 -167.5t-197 -65.5q-125 0 -202 65.5t-77 165.5q0 129 105 195zM750 1008h-9l-166 -498h343zM842 1765q0 41 -24.5 70t-69.5 29q-41 0 -65 -30
t-24 -71q0 -37 26 -65.5t65 -28.5q43 0 67.5 27.5t24.5 68.5z" />
    <glyph glyph-name="aringacute" unicode="&#x1fb;" horiz-adv-x="1249" 
d="M70 293q0 150 114.5 243t345.5 93q137 0 250 -39q-6 70 -67.5 110.5t-169.5 40.5q-33 0 -67 -4t-64.5 -10t-59 -13t-51 -14.5t-39 -13.5t-26.5 -10l-11 -4l-96 284q23 12 62.5 28.5t155.5 45.5t220 29q297 0 428 -122t131 -390v-547h-165l-91 137h-6q-115 -168 -383 -168
q-182 0 -296.5 91.5t-114.5 232.5zM596 1804h283l-181 -186q92 -20 141.5 -81.5t49.5 -150.5q0 -102 -75 -167.5t-198 -65.5q-125 0 -201.5 65.5t-76.5 165.5q0 129 104 195zM768 393q-74 33 -170 33q-88 0 -136 -32t-48 -77q0 -43 43 -69.5t121 -26.5q82 0 136 45t54 105
v22zM707 1389q0 41 -25 69.5t-70 28.5q-41 0 -64.5 -30t-23.5 -71q0 -37 25.5 -65.5t64.5 -28.5q43 0 68 28t25 69z" />
    <glyph glyph-name="AEacute" unicode="&#x1fc;" horiz-adv-x="2293" 
d="M1405 545v-211h809v-334h-1176v215h-489l-131 -215h-432l950 1434h1259v-334h-790v-256h727v-299h-727zM1325 1944h346l-295 -365h-258zM1038 510v498h-6l-303 -498h309z" />
    <glyph glyph-name="aeacute" unicode="&#x1fd;" horiz-adv-x="1988" 
d="M1397 1059q250 0 388 -148.5t138 -396.5q0 -8 -1 -24.5t-3 -40t-2 -37.5h-725q63 -119 276 -119q195 0 334 72l49 -304q-158 -92 -370 -92q-342 0 -512 217h-6q-129 -217 -451 -217q-197 0 -319.5 93.5t-122.5 236.5q0 150 123.5 240t373.5 90q106 0 211 -23
q-27 135 -237 135q-31 0 -66 -4t-64.5 -10t-58 -13t-51 -14.5t-39 -13.5t-26.5 -10l-11 -4l-96 284q23 12 62.5 28.5t154.5 45.5t219 29q328 0 457 -150h6q154 150 369 150zM768 383v27q-74 23 -170 22q-88 0 -136 -32.5t-48 -80.5q0 -45 43 -71.5t118 -26.5
q82 0 137.5 49.5t55.5 112.5zM1180 602h391q-8 66 -61.5 100.5t-131.5 34.5q-155 0 -198 -135zM1120 1540h346l-295 -364h-258z" />
    <glyph glyph-name="Oslashacute" unicode="&#x1fe;" horiz-adv-x="1622" 
d="M1315 1274q231 -211 231 -557q0 -326 -208 -537t-527 -211q-154 0 -289 54l-82 -132l-217 138l84 131q-231 211 -231 557q0 326 208 536.5t527 210.5q154 0 289 -53l82 131l217 -137zM444 717q0 -137 62 -242l405 641q-45 12 -100 12q-162 0 -264.5 -115.5t-102.5 -295.5
zM811 305q162 0 264.5 116t102.5 296q0 137 -62 241l-405 -641q47 -12 100 -12zM915 1944h347l-295 -365h-258z" />
    <glyph glyph-name="oslashacute" unicode="&#x1ff;" horiz-adv-x="1273" 
d="M1040 911q168 -156 168 -397q0 -238 -162.5 -391.5t-408.5 -153.5q-84 0 -178 25l-66 -103l-217 138l57 88q-168 158 -167 399q0 238 161.5 391.5t409.5 151.5q92 0 178 -23l66 103l215 -138zM713 1540h346l-295 -364h-258zM637 260q109 0 180.5 71.5t71.5 182.5
q0 61 -27 119l-235 -373h10zM385 516q0 -66 25 -119l235 371h-8q-109 0 -180.5 -70.5t-71.5 -181.5z" />
    <glyph glyph-name="uni0218" unicode="&#x218;" horiz-adv-x="1372" 
d="M754 885q274 -59 412.5 -165t138.5 -296q0 -223 -171 -339t-450 -116q-156 0 -336 55.5t-297 131.5l135 288q223 -152 506 -151q92 0 160 26.5t68 81.5q0 47 -63.5 81t-215.5 69q-272 61 -412.5 168.5t-140.5 312.5q0 203 175 317.5t462 114.5q131 0 272.5 -41t229.5 -92
l-101 -309q-197 115 -411 115q-123 0 -183.5 -30t-60.5 -73q0 -49 63.5 -81.5t219.5 -67.5zM461 -399q63 12 109 56t46 109.5t-69 124.5l256 33q39 -31 66.5 -87t27.5 -116q0 -145 -106.5 -230t-270.5 -89z" />
    <glyph glyph-name="uni0219" unicode="&#x219;" horiz-adv-x="1032" 
d="M967 297q0 -152 -120 -239t-304 -87q-279 0 -506 119l88 262q178 -109 389 -108q117 0 117 49q0 31 -33 47t-129 43q-178 45 -280.5 127t-102.5 227q0 143 111.5 232.5t359.5 89.5q80 0 196.5 -25.5t178.5 -54.5l-68 -258q-133 66 -301 65q-139 0 -139 -51q0 -25 37 -41
t137 -45q188 -53 278.5 -132t90.5 -220zM260 -399q63 12 109.5 56t46.5 109.5t-70 124.5l256 33q39 -31 66.5 -87t27.5 -116q0 -145 -106.5 -230t-270.5 -89z" />
    <glyph glyph-name="uni021A" unicode="&#x21a;" horiz-adv-x="1249" 
d="M440 0v1100h-411v334h1192v-334h-414v-1100h-367zM383 -399q63 12 109.5 56t46.5 109.5t-70 124.5l256 33q39 -31 66.5 -87t27.5 -116q0 -145 -106.5 -230t-270.5 -89z" />
    <glyph glyph-name="uni021B" unicode="&#x21b;" horiz-adv-x="948" 
d="M733 281q96 0 170 28l27 -309q-141 -31 -238 -31q-203 0 -333 115t-130 293v360h-217v293h224l61 303h278v-303h353v-293h-353v-297q0 -159 158 -159zM362 -399q63 12 109.5 56t46.5 109.5t-69 124.5l256 33q39 -31 66.5 -87t27.5 -116q0 -145 -106.5 -230t-270.5 -89z
" />
    <glyph glyph-name="uni021C" unicode="&#x21c;" horiz-adv-x="1089" 
d="M649 694q174 -29 287 -142.5t111 -293.5q0 -201 -132.5 -369t-355.5 -266t-489 -108l-39 340q90 0 196.5 24.5t209 69.5t170 120.5t67.5 168.5q0 94 -68.5 162.5t-202.5 68.5q-117 0 -233 -41l-51 289q449 88 448 301q0 63 -58 105t-151 44q-145 0 -309 -84l-67 256
q203 125 456 125q211 0 345.5 -102t131.5 -275q0 -125 -71.5 -224t-194.5 -158v-11z" />
    <glyph glyph-name="uni0232" unicode="&#x232;" horiz-adv-x="1357" 
d="M682 915l262 519h426l-508 -912v-522h-366v522l-508 912h426l262 -519h6zM377 1855h604v-200h-604v200z" />
    <glyph glyph-name="uni0233" unicode="&#x233;" horiz-adv-x="1110" 
d="M793 1030h346l-387 -1118q-78 -227 -206 -313t-360 -86q-84 0 -153 18v319q78 -27 180 -26q131 0 186 90l-428 1116h367l229 -631h8zM268 1452h604v-201h-604v201z" />
    <glyph glyph-name="uni0237" unicode="&#x237;" horiz-adv-x="536" 
d="M63 -18v1048h347v-1114q-2 -178 -135.5 -293t-337.5 -112q-82 0 -179 18l25 305q49 -12 113 -12q167 0 167 160z" />
    <glyph glyph-name="circumflex" unicode="&#x2c6;" horiz-adv-x="661" 
d="M209 1540h248l248 -364h-238l-133 188h-4l-131 -188h-242z" />
    <glyph glyph-name="caron" unicode="&#x2c7;" horiz-adv-x="663" 
d="M455 1176h-248l-250 364h240l133 -188h4l131 188h242z" />
    <glyph glyph-name="uni02C9" unicode="&#x2c9;" horiz-adv-x="518" 
d="M-43 1452h604v-201h-604v201z" />
    <glyph glyph-name="breve" unicode="&#x2d8;" horiz-adv-x="579" 
d="M432 1518h191q-2 -154 -86 -248t-246 -94t-246 94t-88 248h190q4 -63 43 -105.5t100.5 -42.5t99.5 42.5t42 105.5z" />
    <glyph glyph-name="dotaccent" unicode="&#x2d9;" horiz-adv-x="268" 
d="M-33 1360q0 74 49.5 123t120.5 49q70 0 117 -49t47 -123q0 -70 -46 -119t-118 -49q-74 0 -122 49t-48 119z" />
    <glyph glyph-name="ring" unicode="&#x2da;" horiz-adv-x="464" 
d="M326 1384q0 41 -25 70t-70 29q-41 0 -64.5 -30t-23.5 -71q0 -37 26 -65.5t64 -28.5q43 0 68 27.5t25 68.5zM-43 1380q0 104 74.5 173t208.5 69q129 0 198.5 -66.5t69.5 -173.5q0 -102 -75 -167.5t-197 -65.5q-125 0 -202 65.5t-77 165.5z" />
    <glyph glyph-name="ogonek" unicode="&#x2db;" horiz-adv-x="430" 
d="M53 2l193 -2q-59 -119 -60 -176q0 -55 35 -92t92 -37q59 0 109 20l51 -172q-100 -76 -244 -75q-129 0 -200.5 64.5t-71.5 188.5q0 78 30.5 157t65.5 124z" />
    <glyph glyph-name="tilde" unicode="&#x2dc;" horiz-adv-x="626" 
d="M500 1513l170 -34q-6 -268 -207 -269q-72 0 -170 54q-72 39 -96 39q-59 0 -66 -101l-174 39q4 127 60.5 197.5t146.5 70.5q70 0 160 -51q86 -45 104 -45q62 0 72 100z" />
    <glyph glyph-name="hungarumlaut" unicode="&#x2dd;" horiz-adv-x="833" 
d="M567 1538h310l-275 -358h-227zM150 1538h309l-277 -358h-225z" />
    <glyph glyph-name="gravecomb" unicode="&#x300;" horiz-adv-x="464" 
d="M-43 1540h342l209 -364h-258z" />
    <glyph glyph-name="acutecomb" unicode="&#x301;" horiz-adv-x="466" 
d="M164 1540h346l-295 -364h-258z" />
    <glyph glyph-name="uni0302" unicode="&#x302;" horiz-adv-x="661" 
d="M209 1540h248l248 -364h-238l-133 188h-4l-131 -188h-242z" />
    <glyph glyph-name="tildecomb" unicode="&#x303;" horiz-adv-x="626" 
d="M500 1513l170 -34q-6 -268 -207 -269q-72 0 -170 54q-72 39 -96 39q-59 0 -66 -101l-174 39q4 127 60.5 197.5t146.5 70.5q70 0 160 -51q86 -45 104 -45q62 0 72 100z" />
    <glyph glyph-name="uni0304" unicode="&#x304;" horiz-adv-x="518" 
d="M-43 1452h604v-201h-604v201z" />
    <glyph glyph-name="uni0306" unicode="&#x306;" horiz-adv-x="579" 
d="M-43 1518h190q4 -63 42 -105.5t99.5 -42.5t100.5 42t43 106h191q-4 -154 -88 -248t-246 -94t-246 94t-86 248z" />
    <glyph glyph-name="uni0307" unicode="&#x307;" horiz-adv-x="247" 
d="M-43 1360q0 74 49 123t121 49q70 0 117 -49t47 -123q0 -70 -46 -119t-118 -49q-74 0 -122 49t-48 119z" />
    <glyph glyph-name="uni0308" unicode="&#x308;" horiz-adv-x="686" 
d="M391 1358q0 74 49 123t121 49t120 -49t48 -123q0 -70 -48 -119t-120 -49q-74 0 -122 49t-48 119zM-43 1358q0 74 50 123t122 49q70 0 117 -49t47 -123q0 -70 -47 -119t-117 -49q-74 0 -123 49t-49 119z" />
    <glyph glyph-name="uni030A" unicode="&#x30a;" horiz-adv-x="464" 
d="M326 1382q0 41 -25 70t-70 29q-41 0 -64.5 -30t-23.5 -71q0 -37 26 -65.5t64 -28.5q43 0 68 27.5t25 68.5zM-43 1378q0 104 74.5 173t208.5 69q129 0 198.5 -66.5t69.5 -173.5q0 -102 -75 -167.5t-197 -65.5q-125 0 -202 65.5t-77 165.5z" />
    <glyph glyph-name="uni030B" unicode="&#x30b;" horiz-adv-x="833" 
d="M567 1538h310l-275 -358h-227zM150 1538h309l-277 -358h-225z" />
    <glyph glyph-name="uni030C" unicode="&#x30c;" horiz-adv-x="663" 
d="M455 1176h-248l-250 364h240l133 -188h4l131 188h242z" />
    <glyph glyph-name="uni0326" unicode="&#x326;" horiz-adv-x="350" 
d="M16 -598l-59 199q63 12 109.5 56t46.5 109.5t-70 124.5l256 33q39 -31 66.5 -87t27.5 -116q0 -145 -106.5 -230t-270.5 -89z" />
    <glyph glyph-name="uni0327" unicode="&#x327;" horiz-adv-x="448" 
d="M305 -117q0 -2 2 -6q78 -12 131.5 -63.5t53.5 -126.5q0 -121 -89.5 -177.5t-230.5 -56.5q-123 0 -215 53l53 152q80 -45 146 -45q41 0 67.5 16.5t24.5 51.5q0 94 -160 83l-16 74l84 166h217z" />
    <glyph glyph-name="uni0328" unicode="&#x328;" horiz-adv-x="430" 
d="M53 2l193 -2q-59 -119 -60 -176q0 -55 35 -92t92 -37q59 0 109 20l51 -172q-100 -76 -244 -75q-129 0 -200.5 64.5t-71.5 188.5q0 78 30.5 157t65.5 124z" />
    <glyph glyph-name="uni0344" unicode="&#x344;" horiz-adv-x="1079" 
d="M815 1355.5q0 65.5 45 109.5t110.5 44t108.5 -44t43 -109q0 -68 -44 -113t-111 -45q-63 0 -107.5 46t-44.5 111.5zM451 1495h358l-279 -299h-264zM-43 1355.5q0 65.5 46 109.5t114 44q63 0 106 -44t43 -109.5t-44 -111.5t-109.5 -46t-110.5 46t-45 111.5z" />
    <glyph glyph-name="uni0374" unicode="&#x374;" horiz-adv-x="344" 
d="M68 1559h319l-192 -367h-238z" />
    <glyph glyph-name="uni0375" unicode="&#x375;" horiz-adv-x="446" 
d="M170 57h319l-192 -366h-238z" />
    <glyph glyph-name="uni037E" unicode="&#x37e;" horiz-adv-x="573" 
d="M278.5 653q-81.5 0 -142 61.5t-60.5 143.5t60.5 141.5t142.5 59.5q84 0 143 -59.5t59 -141.5q0 -84 -60.5 -144.5t-142 -60.5zM274 348q92 0 156 -67.5t64 -182.5q0 -129 -66 -241.5t-180 -192.5l-137 111q55 27 110 87t74 118q-25 -8 -51 -9q-72 0 -120 49.5t-48 129.5
q0 82 59 140t139 58z" />
    <glyph glyph-name="tonos" unicode="&#x384;" horiz-adv-x="559" 
d="M264 1559h320l-193 -367h-237z" />
    <glyph glyph-name="dieresistonos" unicode="&#x385;" horiz-adv-x="1509" 
d="M1030 1355.5q0 65.5 45 109.5t110.5 44t108.5 -44t43 -109q0 -68 -44 -113t-111 -45q-63 0 -107.5 46t-44.5 111.5zM666 1495h358l-279 -299h-264zM172 1355.5q0 65.5 46 109.5t114 44q63 0 106 -44t43 -109.5t-44 -111.5t-109.5 -46t-110.5 46t-45 111.5z" />
    <glyph glyph-name="Alphatonos" unicode="&#x386;" horiz-adv-x="1490" 
d="M537 1434h417l549 -1434h-416l-71 215h-539l-71 -215h-418zM143 1499h320l-193 -366h-237zM750 1008h-9l-166 -498h343z" />
    <glyph glyph-name="anoteleia" unicode="&#x387;" horiz-adv-x="524" 
d="M262 635q-82 0 -142.5 61.5t-60.5 143.5t60.5 141t142.5 59q84 0 143.5 -59t59.5 -141q0 -84 -60.5 -144.5t-142.5 -60.5z" />
    <glyph glyph-name="Epsilontonos" unicode="&#x388;" horiz-adv-x="1638" 
d="M45 1499h320l-193 -366h-238zM754 545v-211h809v-334h-1176v1434h1159v-334h-792v-256h729v-299h-729z" />
    <glyph glyph-name="Etatonos" unicode="&#x389;" horiz-adv-x="1785" 
d="M45 1499h320l-193 -366h-238zM1292 879v555h367v-1434h-367v526h-534v-526h-367v1434h367v-555h534z" />
    <glyph glyph-name="Iotatonos" unicode="&#x38a;" horiz-adv-x="882" 
d="M45 1499h320l-193 -366h-238zM389 0v1434h367v-1434h-367z" />
    <glyph glyph-name="Omicrontonos" unicode="&#x38c;" horiz-adv-x="1779" 
d="M92 1499h320l-193 -366h-237zM968.5 1464q319.5 0 527.5 -211t208 -536.5t-208 -536.5t-527.5 -211t-527.5 211t-208 536.5t208 536.5t527.5 211zM968.5 305q161.5 0 265 116t103.5 296t-103.5 295.5t-265 115.5t-264 -115.5t-102.5 -295.5t102.5 -296t264 -116z" />
    <glyph glyph-name="Upsilontonos" unicode="&#x38e;" horiz-adv-x="1746" 
d="M1634 1464l52 -334q-104 -18 -184.5 -64t-130.5 -114.5t-85 -142.5t-50 -166t-21.5 -166t-6.5 -160v-317h-340v317q0 86 -6 160t-21.5 166t-50 166t-85 142.5t-130 114.5t-184.5 64l51 334q231 0 381 -150.5t211 -377.5h8q61 227 211 377.5t381 150.5zM94 1499h320
l-193 -366h-237z" />
    <glyph glyph-name="Omegatonos" unicode="&#x38f;" horiz-adv-x="1820" 
d="M1513 340v-6h209v-334h-616v299q127 49 207 168t80 266q0 193 -99.5 295t-267.5 102t-267.5 -102t-99.5 -295q0 -147 80 -266t205 -168v-299h-614v334h207v6q-109 76 -177.5 205t-68.5 274q0 283 208 464t527.5 181t527 -181t207.5 -464q0 -145 -68.5 -272t-179.5 -207z
M131 1499h320l-193 -366h-238z" />
    <glyph glyph-name="iotadieresistonos" unicode="&#x390;" horiz-adv-x="870" 
d="M711 1355.5q0 65.5 45 109.5t110.5 44t108.5 -44t43 -109q0 -68 -44 -113t-112 -45q-63 0 -107 46t-44 111.5zM346 1495h359l-279 -299h-264zM-147 1355.5q0 65.5 46 109.5t113 44q63 0 106.5 -44t43.5 -109.5t-44 -111.5t-109.5 -46t-110.5 46t-45 111.5zM606 281
q37 0 94 14l25 -305q-88 -20 -158 -21q-213 0 -324.5 96.5t-113.5 311.5v653h346v-590q0 -84 29.5 -121.5t101.5 -37.5z" />
    <glyph glyph-name="Alpha" unicode="&#x391;" horiz-adv-x="1490" 
d="M537 1434h417l549 -1434h-416l-71 215h-539l-71 -215h-418zM750 1008h-9l-166 -498h343z" />
    <glyph glyph-name="Beta" unicode="&#x392;" horiz-adv-x="1460" 
d="M1102 762q129 -45 203.5 -137.5t74.5 -223.5q0 -174 -140 -287.5t-353 -113.5h-760v1434h707q217 0 350 -104.5t133 -272.5q0 -199 -215 -287v-8zM872 324q63 0 103.5 35.5t40.5 91t-40 91.5t-104 36h-378v-254h378zM801 1110h-307v-252h307q66 0 106.5 35t40.5 90
q0 57 -40.5 92t-106.5 35z" />
    <glyph glyph-name="Gamma" unicode="&#x393;" horiz-adv-x="1232" 
d="M1202 1434v-334h-708v-1100h-367v1434h1075z" />
    <glyph glyph-name="uni0394" unicode="&#x394;" horiz-adv-x="1247" 
d="M422 1434h403l435 -1149v-285h-1272v281zM379 305h491l-243 703h-6z" />
    <glyph glyph-name="Epsilon" unicode="&#x395;" horiz-adv-x="1378" 
d="M494 545v-211h809v-334h-1176v1434h1159v-334h-792v-256h729v-299h-729z" />
    <glyph glyph-name="Zeta" unicode="&#x396;" horiz-adv-x="1337" 
d="M606 340v-6h672v-334h-1219v240l674 852v8h-653v334h1180v-269z" />
    <glyph glyph-name="Eta" unicode="&#x397;" horiz-adv-x="1519" 
d="M1028 879v555h367v-1434h-367v526h-534v-526h-367v1434h367v-555h534z" />
    <glyph glyph-name="Theta" unicode="&#x398;" horiz-adv-x="1622" 
d="M811 1464q319 0 527 -211t208 -536.5t-208 -536.5t-527 -211t-527 211t-208 536.5t208 536.5t527 211zM811 305q162 0 264.5 116t102.5 296t-102.5 295.5t-264.5 115.5t-264.5 -115.5t-102.5 -295.5t102.5 -296t264.5 -116zM557 573v287h508v-287h-508z" />
    <glyph glyph-name="Iota" unicode="&#x399;" horiz-adv-x="620" 
d="M127 0v1434h367v-1434h-367z" />
    <glyph glyph-name="Kappa" unicode="&#x39a;" horiz-adv-x="1513" 
d="M1466 1436l-540 -582l581 -854h-448l-410 608l-155 -166v-442h-367v1434h367v-572h8l516 574h448z" />
    <glyph glyph-name="Lambda" unicode="&#x39b;" horiz-adv-x="1490" 
d="M543 1434h405l555 -1434h-416l-337 983h-9l-335 -983h-418z" />
    <glyph glyph-name="Mu" unicode="&#x39c;" horiz-adv-x="1888" 
d="M494 868v-868h-367v1434h471l342 -824h8l342 824h471v-1434h-366v868h-6l-349 -868h-192l-348 868h-6z" />
    <glyph glyph-name="Nu" unicode="&#x39d;" horiz-adv-x="1521" 
d="M494 774v-774h-367v1434h305l588 -777h8v777h367v-1434h-308l-587 774h-6z" />
    <glyph glyph-name="Xi" unicode="&#x39e;" horiz-adv-x="1308" 
d="M76 1100v334h1155v-334h-1155zM162 866h983v-299h-983v299zM76 0v334h1155v-334h-1155z" />
    <glyph glyph-name="Omicron" unicode="&#x39f;" horiz-adv-x="1622" 
d="M811 1464q319 0 527 -211t208 -536.5t-208 -536.5t-527 -211t-527 211t-208 536.5t208 536.5t527 211zM811 305q162 0 265.5 116t103.5 296t-103.5 295.5t-265.5 115.5t-264.5 -115.5t-102.5 -295.5t102.5 -296t264.5 -116z" />
    <glyph glyph-name="Pi" unicode="&#x3a0;" horiz-adv-x="1517" 
d="M127 0v1434h1266v-1434h-367v1100h-532v-1100h-367z" />
    <glyph glyph-name="Rho" unicode="&#x3a1;" horiz-adv-x="1435" 
d="M872 410h-378v-410h-367v1434h745q229 0 380 -149.5t151 -369.5q0 -227 -149 -366t-382 -139zM850 1100h-356v-365h356q88 0 137 53.5t49 129t-49 129t-137 53.5z" />
    <glyph glyph-name="Sigma" unicode="&#x3a3;" horiz-adv-x="1304" 
d="M920 717l-324 -383h633v-334h-1153v262l381 455l-363 452v265h1114v-334h-594z" />
    <glyph glyph-name="Tau" unicode="&#x3a4;" horiz-adv-x="1249" 
d="M440 0v1100h-411v334h1192v-334h-414v-1100h-367z" />
    <glyph glyph-name="Upsilon" unicode="&#x3a5;" horiz-adv-x="1269" 
d="M1231 1464l51 -334q-104 -18 -184 -64t-130 -114.5t-85 -142.5t-50.5 -166t-21.5 -166t-6 -160v-317h-340v317q0 86 -6 160t-21.5 166t-50.5 166t-85 142.5t-130 114.5t-184 64l51 334q231 0 380.5 -150.5t211.5 -377.5h8q61 227 211 377.5t381 150.5z" />
    <glyph glyph-name="Phi" unicode="&#x3a6;" horiz-adv-x="1622" 
d="M979 1360q266 -45 416.5 -218t150.5 -425t-150.5 -425t-416.5 -218v-135h-350v137q-260 47 -406.5 219t-146.5 422t146.5 422t406.5 219v137h350v-135zM629 389v655q-184 -84 -184 -327.5t184 -327.5zM979 383q199 78 199 334t-199 334v-668z" />
    <glyph glyph-name="Chi" unicode="&#x3a7;" horiz-adv-x="1474" 
d="M1444 1434l-434 -695l469 -739h-439l-301 479h-6l-299 -479h-440l469 739l-434 695h438l266 -437h6l265 437h440z" />
    <glyph glyph-name="Psi" unicode="&#x3a8;" horiz-adv-x="1624" 
d="M1147 885v549h350v-549q0 -223 -140 -358.5t-370 -174.5v-352h-350v352q-229 39 -369.5 174.5t-140.5 358.5v549h348v-549q0 -145 162 -193v742h350v-742q160 48 160 193z" />
    <glyph glyph-name="uni03A9" unicode="&#x3a9;" horiz-adv-x="1622" 
d="M1298 340v-6h209v-334h-616v299q127 49 207 168t80 266q0 193 -99.5 295t-267.5 102t-267.5 -102t-99.5 -295q0 -147 80 -266t205 -168v-299h-614v334h207v6q-109 76 -177.5 205t-68.5 274q0 283 208 464t527 181t527 -181t208 -464q0 -145 -68.5 -272t-179.5 -207z" />
    <glyph glyph-name="Iotadieresis" unicode="&#x3aa;" horiz-adv-x="573" 
d="M336 1761q0 74 49 123t121 49t120 -49t48 -123q0 -70 -48 -119t-120 -49q-74 0 -122 49t-48 119zM-98 1761q0 74 50 123t122 49q70 0 117 -49t47 -123q0 -70 -47.5 -119t-116.5 -49q-74 0 -123 49t-49 119zM104 0v1434h367v-1434h-367z" />
    <glyph glyph-name="Upsilondieresis" unicode="&#x3ab;" horiz-adv-x="1269" 
d="M1231 1464l51 -334q-104 -18 -184 -64t-130 -114.5t-85 -142.5t-50.5 -166t-21.5 -166t-6 -160v-317h-340v317q0 86 -6 160t-21.5 166t-50.5 166t-85 142.5t-130 114.5t-184 64l51 334q231 0 380.5 -150.5t211.5 -377.5h8q61 227 211 377.5t381 150.5zM684 1761
q0 74 49 123t121 49t120 -49t48 -123q0 -70 -48 -119t-120 -49q-74 0 -122 49t-48 119zM250 1761q0 74 50 123t122 49q70 0 117 -49t47 -123q0 -70 -47 -119t-117 -49q-74 0 -123 49t-49 119z" />
    <glyph glyph-name="alphatonos" unicode="&#x3ac;" horiz-adv-x="1363" 
d="M1257 293l74 16l31 -309q-78 -31 -199 -31q-94 0 -167.5 44t-106.5 124h-8q-135 -168 -346 -168q-203 2 -336 156t-131 391q0 238 133 391.5t336 151.5q119 0 217 -55.5t159 -155.5h7l30 182h346l-98 -586l6 -92q6 -59 53 -59zM637 293q96 0 158.5 62.5t62.5 158.5
t-62.5 158.5t-156.5 62.5q-94 2 -157.5 -60.5t-63.5 -158.5t62.5 -159.5t156.5 -63.5zM696 1559h320l-193 -367h-237z" />
    <glyph glyph-name="epsilontonos" unicode="&#x3ad;" horiz-adv-x="1153" 
d="M723 238q76 0 194.5 21.5t169.5 43.5l46 -250q-174 -84 -510 -84q-227 0 -389 80t-162 244q0 94 73.5 158.5t186.5 83.5v8q-96 25 -149.5 87t-53.5 140q0 121 126 205t380 84q283 0 448 -72l-45 -237q-49 23 -156.5 41t-187.5 18q-184 0 -184 -74q0 -90 278 -90h201v-231
h-198q-311 0 -312 -90q0 -86 244 -86zM594 1559h319l-192 -367h-238z" />
    <glyph glyph-name="etatonos" unicode="&#x3ae;" horiz-adv-x="1366" 
d="M854 1059q197 0 325 -146.5t128 -375.5v-996h-346v983q0 92 -61.5 151.5t-154.5 59.5q-92 2 -151 -57.5t-62 -151.5v-526h-346v1030h185l108 -184h4q125 213 371 213zM723 1559h319l-192 -367h-238z" />
    <glyph glyph-name="iotatonos" unicode="&#x3af;" horiz-adv-x="733" 
d="M664 281q37 0 94 14l24 -305q-88 -20 -157 -21q-213 0 -325 96.5t-114 311.5v653h346v-590q0 -84 30 -121.5t102 -37.5zM338 1559h319l-192 -367h-238z" />
    <glyph glyph-name="upsilondieresistonos" unicode="&#x3b0;" horiz-adv-x="1353" 
d="M848 1030h346q76 -156 76 -397q0 -100 -18.5 -192.5t-63.5 -179.5t-110.5 -150.5t-166 -102.5t-225.5 -39q-205 0 -348 125t-143 342v594h344v-538q0 -98 49 -148.5t125 -50.5q203 0 202 319q0 123 -22 245t-45 173zM1044 1355.5q0 65.5 45.5 109.5t111 44t108.5 -44
t43 -109q0 -68 -44 -113t-112 -45q-63 0 -107.5 46t-44.5 111.5zM680 1495h358l-278 -299h-264zM186 1355.5q0 65.5 46.5 109.5t113.5 44q63 0 106.5 -44t43.5 -109.5t-44 -111.5t-110 -46t-111 46t-45 111.5z" />
    <glyph glyph-name="alpha" unicode="&#x3b1;" horiz-adv-x="1363" 
d="M1257 293l74 16l31 -309q-78 -31 -199 -31q-94 0 -167.5 44t-106.5 124h-8q-135 -168 -346 -168q-203 2 -336 156t-131 391q0 238 133 391.5t336 151.5q119 0 217 -55.5t159 -155.5h7l30 182h346l-98 -586l6 -92q6 -59 53 -59zM637 293q96 0 158.5 62.5t62.5 158.5
t-62.5 158.5t-156.5 62.5q-94 2 -157.5 -60.5t-63.5 -158.5t62.5 -159.5t156.5 -63.5z" />
    <glyph glyph-name="beta" unicode="&#x3b2;" horiz-adv-x="1404" 
d="M1006 807q135 -27 233 -135.5t98 -255.5q0 -199 -149.5 -323t-372.5 -124q-211 0 -328 94h-6v-165q0 -217 31 -357h-362q-27 106 -27 348v969q0 657 594 658q227 0 358 -110t131 -278q0 -92 -54 -183t-146 -132v-6zM719 287q117 0 178 54t61 138q0 92 -75.5 138.5
t-188.5 46.5h-53v194h39q88 0 138 49t50 121t-48 117t-128 45q-211 0 -211 -299v-514q101 -90 238 -90z" />
    <glyph glyph-name="gamma" unicode="&#x3b3;" horiz-adv-x="1222" 
d="M831 1030h367q6 -180 -32 -367.5t-146.5 -388t-274.5 -331.5q12 -111 13 -402h-375q14 369 -39 602q-61 250 -171 490.5t-222 396.5h428q68 -90 144.5 -292.5t123.5 -424.5h6q211 342 178 717z" />
    <glyph glyph-name="delta" unicode="&#x3b4;" horiz-adv-x="1323" 
d="M973 975q285 -209 284 -469q0 -242 -173 -389.5t-431 -147.5q-250 0 -418.5 143.5t-168.5 370.5q0 319 387 484v8q-174 127 -174 270q0 111 125.5 196t340.5 85q180 0 330 -62l-55 -221q-119 53 -242 53q-127 0 -127 -55q0 -25 35 -54.5t162 -121.5q76 -55 125 -90z
M674 285q98 0 162.5 56t64.5 151q0 78 -52 145.5t-190 155.5q-96 -43 -162.5 -120t-66.5 -171q0 -92 71 -154.5t173 -62.5z" />
    <glyph glyph-name="epsilon" unicode="&#x3b5;" horiz-adv-x="1153" 
d="M717 238q76 0 194.5 21.5t169.5 43.5l45 -250q-174 -84 -510 -84q-227 0 -388.5 80t-161.5 244q0 94 73.5 158.5t186.5 83.5v8q-96 25 -149.5 87t-53.5 140q0 121 126 205t380 84q283 0 448 -72l-45 -237q-49 23 -156.5 41t-187.5 18q-184 0 -184 -74q0 -90 278 -90h201
v-231h-199q-311 0 -311 -90q0 -86 244 -86z" />
    <glyph glyph-name="zeta" unicode="&#x3b6;" horiz-adv-x="1153" 
d="M1104 1198q-274 -96 -482 -303t-208 -414q0 -72 45 -132t80.5 -82.5t130.5 -73.5q14 -8 20 -13q10 -6 59.5 -31.5t72 -39t67.5 -41t68.5 -51t51 -55.5t40 -66.5t12.5 -73.5q0 -160 -170 -334l-254 162q59 59 59 127q0 16 -4 29.5t-16 25.5t-25.5 21.5t-38 22.5t-46 23.5
t-60.5 28t-68 31.5q-174 84 -273 187.5t-99 273.5q0 414 421 715v6h-354v293h944z" />
    <glyph glyph-name="eta" unicode="&#x3b7;" horiz-adv-x="1366" 
d="M791 1059q197 0 324.5 -146.5t127.5 -375.5v-996h-346v983q0 92 -61.5 151.5t-153.5 59.5q-92 2 -151.5 -57.5t-61.5 -151.5v-526h-346v1030h184l109 -184h4q125 213 371 213z" />
    <glyph glyph-name="theta" unicode="&#x3b8;" horiz-adv-x="1380" 
d="M690.5 1524q270.5 0 447.5 -210t177 -566q0 -358 -177 -568.5t-447.5 -210.5t-447.5 210t-177 568.5t177 567.5t447.5 209zM690.5 283q100.5 0 172 85t93.5 246h-534q23 -162 95.5 -246.5t173 -84.5zM422 881h534q-23 162 -94 245.5t-171.5 83.5t-173 -84.5t-95.5 -244.5
z" />
    <glyph glyph-name="iota" unicode="&#x3b9;" horiz-adv-x="720" 
d="M600 281q37 0 94 14l25 -305q-88 -20 -158 -21q-213 0 -324.5 96.5t-113.5 311.5v653h346v-590q0 -84 29.5 -121.5t101.5 -37.5z" />
    <glyph glyph-name="kappa" unicode="&#x3ba;" horiz-adv-x="1222" 
d="M1200 1030l-373 -414l402 -616h-369l-252 381l-139 -158v-223h-346v1030h346v-391h8l338 391h385z" />
    <glyph glyph-name="lambda" unicode="&#x3bb;" horiz-adv-x="1220" 
d="M164 1524q236 0 374 -92.5t232 -313.5l479 -1118h-375l-249 584h-11l-256 -584h-387l465 1022l-12 31q-72 162 -240 161q-70 0 -151 -16l-47 299q74 27 178 27z" />
    <glyph glyph-name="uni03BC" unicode="&#x3bc;" horiz-adv-x="1390" 
d="M922 502v528h346v-1030h-185l-108 184h-8q-61 -100 -158.5 -157.5t-218.5 -57.5q-68 0 -125 19v-447h-342v1489h371v-524q0 -92 61 -152.5t153.5 -60.5t152 59.5t61.5 149.5z" />
    <glyph glyph-name="nu" unicode="&#x3bd;" horiz-adv-x="1171" 
d="M563 399l217 631h369l-385 -1030h-408l-385 1030h367l219 -631h6z" />
    <glyph glyph-name="xi" unicode="&#x3be;" horiz-adv-x="1161" 
d="M829 123q150 -61 216.5 -125t66.5 -162q0 -184 -174 -350l-250 154q57 57 57 112q0 66 -215 129q-100 29 -173.5 61.5t-144.5 86t-108.5 133.5t-37.5 182q0 154 100 260.5t270 147.5v6q-248 84 -248 317q0 164 147.5 276.5t418.5 112.5q180 0 340 -63l-47 -260
q-117 47 -230 47q-127 0 -192.5 -40t-65.5 -110q0 -88 80 -123.5t240 -48.5q29 -2 86 -2v-282h-70q-438 0 -438 -226q0 -37 14 -62.5t53 -48t73 -35.5t108.5 -40t123.5 -47z" />
    <glyph glyph-name="omicron" unicode="&#x3bf;" horiz-adv-x="1273" 
d="M637 1059q248 0 409.5 -153.5t161.5 -391.5t-161.5 -391.5t-409.5 -153.5q-248 2 -409.5 156t-161.5 391.5t161.5 391t409.5 151.5zM637 293q96 0 157.5 62.5t61.5 158.5t-61.5 158.5t-157.5 62.5q-94 2 -156.5 -60.5t-62.5 -158.5t62.5 -159.5t156.5 -63.5z" />
    <glyph glyph-name="pi" unicode="&#x3c0;" horiz-adv-x="1331" 
d="M-20 737v293h1372l-41 -293h-170q8 -430 92 -737h-352q-78 229 -90 737h-287v-737h-346v737h-178z" />
    <glyph glyph-name="rho" unicode="&#x3c1;" horiz-adv-x="1318" 
d="M692 1059q246 0 407 -153.5t161 -391.5q0 -236 -141.5 -390.5t-344.5 -154.5q-184 0 -297 101h-8v-529h-346v975q2 238 162.5 390.5t406.5 152.5zM688 293q96 0 157.5 62.5t61.5 158.5t-61.5 158.5t-157.5 62.5t-157.5 -62.5t-61.5 -158.5t61.5 -158.5t157.5 -62.5z" />
    <glyph glyph-name="sigma1" unicode="&#x3c2;" horiz-adv-x="1046" 
d="M688 199l45 -19q45 -20 54.5 -25t51.5 -24.5t55 -31t46 -33t46 -40t30.5 -43t25 -51t7.5 -55.5q0 -158 -170 -332l-254 158q59 59 59 104q0 8 -2 16.5t-9 16.5t-14.5 15.5t-21.5 15.5t-25.5 15.5t-34 17.5t-40 18t-47 22.5t-54.5 26.5q-168 82 -269 207t-101 330
q0 240 175 395.5t455 155.5q70 0 166 -18.5t152 -49.5l-84 -305q-106 49 -228 49q-127 0 -205.5 -66.5t-78.5 -168.5q0 -111 71.5 -178.5t198.5 -122.5z" />
    <glyph glyph-name="sigma" unicode="&#x3c3;" horiz-adv-x="1267" 
d="M608 1030h645l-41 -303l-217 31v-8q127 -102 127 -283q0 -213 -136 -354.5t-376 -141.5q-236 0 -390 151.5t-154 381.5q0 233 150 378.5t392 147.5zM807 510q0 94 -54.5 156.5t-142.5 60.5q-86 0 -141 -61.5t-55 -155.5t55 -155.5t141 -61.5t141.5 61.5t55.5 155.5z" />
    <glyph glyph-name="tau" unicode="&#x3c4;" horiz-adv-x="1099" 
d="M887 281q96 0 170 28l26 -309q-141 -31 -237 -31q-203 0 -333 115t-130 293v360h-367v293h1065v-293h-352v-297q0 -159 158 -159z" />
    <glyph glyph-name="upsilon" unicode="&#x3c5;" horiz-adv-x="1263" 
d="M776 1030h346q76 -156 76 -397q0 -100 -18.5 -192.5t-63.5 -179.5t-110.5 -150.5t-166 -102.5t-225.5 -39q-205 0 -348 125t-143 342v594h344v-538q0 -98 49 -148.5t125 -50.5q203 0 203 319q0 123 -22.5 245t-45.5 173z" />
    <glyph glyph-name="phi" unicode="&#x3c6;" horiz-adv-x="1540" 
d="M981 1059q195 0 343.5 -144.5t148.5 -369.5q0 -236 -143.5 -380.5t-385.5 -182.5v-441h-336v439q-258 33 -400 170t-142 378q0 201 123.5 343.5t267.5 187.5l125 -172q-78 -51 -132.5 -141.5t-54.5 -210.5q0 -242 213 -310v467q0 186 108.5 276.5t264.5 90.5zM1157 539
q2 129 -39 205.5t-104 76.5q-31 0 -50.5 -27.5t-19.5 -74.5v-496q213 62 213 316z" />
    <glyph glyph-name="chi" unicode="&#x3c7;" horiz-adv-x="1267" 
d="M889 1030h387l-418 -692l103 -363q43 -152 192 -151q18 0 51 4l47 -299q-74 -16 -125 -16q-211 0 -314 89t-169 318l-10 29h-8l-246 -408h-387l450 752l-84 291q-47 160 -194 159q-25 0 -66 -4l-24 308q74 12 116 12q207 0 310.5 -86t167.5 -301h8z" />
    <glyph glyph-name="psi" unicode="&#x3c8;" horiz-adv-x="1634" 
d="M1087 1030h343q82 -147 81 -385q0 -236 -131 -419t-405 -238v-447h-334v439q-223 31 -370.5 160.5t-147.5 340.5v549h344v-534q0 -166 174 -224v1004h334v-995q207 80 207 344q-1 239 -95 405z" />
    <glyph glyph-name="omega" unicode="&#x3c9;" horiz-adv-x="1644" 
d="M1067 1030h340q170 -205 170 -510q0 -266 -126 -408.5t-321 -142.5q-207 0 -305 162h-6q-102 -162 -305 -162q-197 0 -322.5 142.5t-125.5 408.5q0 305 170 510h339q-156 -225 -153 -469q0 -276 137 -276q47 2 72.5 47t25.5 119l2 342h324l2 -342q0 -74 25.5 -119
t74.5 -47q135 0 138 276q0 246 -156 469z" />
    <glyph glyph-name="iotadieresis" unicode="&#x3ca;" horiz-adv-x="669" 
d="M645 281q37 0 94 14l25 -305q-88 -20 -158 -21q-213 0 -324.5 96.5t-113.5 311.5v653h346v-590q0 -84 29.5 -121.5t101.5 -37.5zM393 1358q0 74 49.5 123t121 49t119.5 -49t48 -123q0 -70 -48 -119t-120 -49q-74 0 -122 49t-48 119zM-41 1358q0 74 50 123t122 49
q70 0 117 -49t47 -123q0 -70 -47 -119t-117 -49q-74 0 -123 49t-49 119z" />
    <glyph glyph-name="upsilondieresis" unicode="&#x3cb;" horiz-adv-x="1263" 
d="M776 1030h346q76 -156 76 -397q0 -100 -18.5 -192.5t-63.5 -179.5t-110.5 -150.5t-166 -102.5t-225.5 -39q-205 0 -348 125t-143 342v594h344v-538q0 -98 49 -148.5t125 -50.5q203 0 203 319q0 123 -22.5 245t-45.5 173zM688 1358q0 74 49 123t121 49t120 -49t48 -123
q0 -70 -48 -119t-120 -49q-74 0 -122 49t-48 119zM254 1358q0 74 50 123t122 49q70 0 117 -49t47 -123q0 -70 -47 -119t-117 -49q-74 0 -123 49t-49 119z" />
    <glyph glyph-name="omicrontonos" unicode="&#x3cc;" horiz-adv-x="1273" 
d="M616 1559h320l-193 -367h-237zM637 1059q248 0 409.5 -153.5t161.5 -391.5t-161.5 -391.5t-409.5 -153.5q-248 2 -409.5 156t-161.5 391.5t161.5 391t409.5 151.5zM637 293q96 0 157.5 62.5t61.5 158.5t-61.5 158.5t-157.5 62.5q-94 2 -156.5 -60.5t-62.5 -158.5
t62.5 -159.5t156.5 -63.5z" />
    <glyph glyph-name="upsilontonos" unicode="&#x3cd;" horiz-adv-x="1263" 
d="M776 1030h346q76 -156 76 -397q0 -100 -18.5 -192.5t-63.5 -179.5t-110.5 -150.5t-166 -102.5t-225.5 -39q-205 0 -348 125t-143 342v594h344v-538q0 -98 49 -148.5t125 -50.5q203 0 203 319q0 123 -22.5 245t-45.5 173zM614 1559h320l-193 -367h-237z" />
    <glyph glyph-name="omegatonos" unicode="&#x3ce;" horiz-adv-x="1644" 
d="M1067 1030h340q170 -205 170 -510q0 -266 -126 -408.5t-321 -142.5q-207 0 -305 162h-6q-102 -162 -305 -162q-197 0 -322.5 142.5t-125.5 408.5q0 305 170 510h339q-156 -225 -153 -469q0 -276 137 -276q47 2 72.5 47t25.5 119l2 342h324l2 -342q0 -74 25.5 -119
t74.5 -47q135 0 138 276q0 246 -156 469zM815 1559h320l-193 -367h-237z" />
    <glyph glyph-name="uni0400" unicode="&#x400;" horiz-adv-x="1378" 
d="M297 1944h342l209 -365h-258zM494 545v-211h809v-334h-1176v1434h1159v-334h-792v-256h729v-299h-729z" />
    <glyph glyph-name="uni0401" unicode="&#x401;" horiz-adv-x="1378" 
d="M764 1761q0 74 49 123t121 49t120 -49t48 -123q0 -70 -48 -119t-120 -49q-74 0 -122 49t-48 119zM330 1761q0 74 50 123t122 49q70 0 117 -49t47 -123q0 -70 -47.5 -119t-116.5 -49q-74 0 -123 49t-49 119zM494 545v-211h809v-334h-1176v1434h1159v-334h-792v-256h729
v-299h-729z" />
    <glyph glyph-name="uni0402" unicode="&#x402;" horiz-adv-x="1630" 
d="M1042 952q244 0 386.5 -167t142.5 -420q0 -279 -168 -466.5t-434 -217.5l-82 262q307 66 307 399q0 137 -62.5 224t-201.5 87q-100 0 -172 -49v-604h-365v1100h-366v334h1239v-334h-508v-207h6q114 59 278 59z" />
    <glyph glyph-name="uni0403" unicode="&#x403;" horiz-adv-x="1171" 
d="M561 1100v-1100h-366v1434h1013v-334h-647zM772 1944h346l-295 -365h-258z" />
    <glyph glyph-name="uni0404" unicode="&#x404;" horiz-adv-x="1329" 
d="M909 283q176 0 299 86l97 -303q-188 -96 -416 -97q-352 0 -582.5 211t-230.5 536.5t230.5 536.5t582.5 211q164 0 330 -61l-45 -309q-102 57 -285 57q-158 0 -270.5 -80t-155.5 -215h665v-278h-663q41 -135 160.5 -215t283.5 -80z" />
    <glyph glyph-name="uni0405" unicode="&#x405;" horiz-adv-x="1372" 
d="M754 885q274 -59 412.5 -165t138.5 -296q0 -223 -171 -339t-450 -116q-156 0 -336 55.5t-297 131.5l135 288q223 -152 506 -151q92 0 160 26.5t68 81.5q0 47 -63.5 81t-215.5 69q-272 61 -412.5 168.5t-140.5 312.5q0 203 175 317.5t462 114.5q131 0 272.5 -41t229.5 -92
l-101 -309q-197 115 -411 115q-123 0 -183.5 -30t-60.5 -73q0 -49 63.5 -81.5t219.5 -67.5z" />
    <glyph glyph-name="uni0406" unicode="&#x406;" horiz-adv-x="620" 
d="M127 0v1434h367v-1434h-367z" />
    <glyph glyph-name="uni0407" unicode="&#x407;" horiz-adv-x="573" 
d="M336 1761q0 74 49 123t121 49t120 -49t48 -123q0 -70 -48 -119t-120 -49q-74 0 -122 49t-48 119zM-98 1761q0 74 50 123t122 49q70 0 117 -49t47 -123q0 -70 -47.5 -119t-116.5 -49q-74 0 -123 49t-49 119zM104 0v1434h367v-1434h-367z" />
    <glyph glyph-name="uni0408" unicode="&#x408;" horiz-adv-x="964" 
d="M471 559v875h367v-883q0 -287 -139.5 -434.5t-411.5 -147.5q-164 0 -301 62l75 315q102 -41 220 -41q190 0 190 254z" />
    <glyph glyph-name="uni0409" unicode="&#x409;" horiz-adv-x="2189" 
d="M1667 961q219 0 355.5 -134.5t136.5 -347.5q-2 -209 -137.5 -344t-338.5 -135h-659v1128h-334v-223q0 -145 -13 -266t-32.5 -209t-54.5 -158.5t-65.5 -116.5t-81 -80t-84 -51.5t-93 -29.5t-89.5 -16.5t-89 -8.5l-59 301q41 6 52 8.5t55 18.5t62.5 36.5t52.5 68t49 107.5
t28.5 157.5t13.5 218.5v549h1036v-514q146 41 289 41zM1579 289q98 0 160.5 53t62.5 137t-64.5 133.5t-162.5 49.5q-109 0 -197 -21v-352h201z" />
    <glyph glyph-name="uni040A" unicode="&#x40a;" horiz-adv-x="2109" 
d="M1587 961q219 0 355.5 -134.5t136.5 -347.5q0 -209 -136.5 -344t-338.5 -135h-682v580h-435v-580h-360v1434h360v-533h435v533h360v-521q188 48 305 48zM1499 289q98 0 160.5 53t62.5 137t-64.5 133.5t-162.5 49.5q-23 0 -59.5 -6.5t-82.5 -15.5t-71 -13v-338h217z" />
    <glyph glyph-name="uni040B" unicode="&#x40b;" horiz-adv-x="1540" 
d="M965 1016q209 0 334.5 -134t125.5 -372v-510h-376v477q0 215 -203 215q-111 0 -172 -65v-627h-361v1100h-370v334h1239v-334h-508v-170h6q111 86 285 86z" />
    <glyph glyph-name="uni040C" unicode="&#x40c;" horiz-adv-x="1513" 
d="M807 1944h346l-295 -365h-258zM1466 1436l-540 -582l581 -854h-448l-410 608l-155 -166v-442h-367v1434h367v-572h8l516 574h448z" />
    <glyph glyph-name="uni040D" unicode="&#x40d;" horiz-adv-x="1521" 
d="M346 1944h342l209 -365h-258zM1028 0v774h-6l-588 -774h-307v1434h367v-777h8l588 777h305v-1434h-367z" />
    <glyph glyph-name="uni040E" unicode="&#x40e;" horiz-adv-x="1269" 
d="M653 821l262 613h367l-455 -1057q-96 -225 -241.5 -316.5t-376.5 -91.5q-76 0 -154 21l27 317q86 -27 178 -26q135 0 203 108l-475 1045h387l268 -613h10zM688 1921h191q-2 -154 -86 -248t-246 -94t-246 94t-88 248h190q4 -63 43 -105t100.5 -42t99.5 42t42 105z" />
    <glyph glyph-name="uni040F" unicode="&#x40f;" horiz-adv-x="1456" 
d="M965 334v1100h366v-1434h-477l-10 -332h-246l-10 332h-461v1434h367v-1100h471z" />
    <glyph glyph-name="uni0410" unicode="&#x410;" horiz-adv-x="1490" 
d="M537 1434h417l549 -1434h-416l-71 215h-539l-71 -215h-418zM750 1008h-9l-166 -498h343z" />
    <glyph glyph-name="uni0411" unicode="&#x411;" horiz-adv-x="1314" 
d="M791 961q219 0 355 -134.5t136 -347.5q-2 -209 -137 -344t-338 -135h-680v1434h1012v-334h-658v-187q146 48 310 48zM702 289q98 0 161 53t63 137t-64.5 133.5t-163.5 49.5q-143 0 -217 -27v-346h221z" />
    <glyph glyph-name="uni0412" unicode="&#x412;" horiz-adv-x="1460" 
d="M1102 762q129 -45 203.5 -137.5t74.5 -223.5q0 -174 -140 -287.5t-353 -113.5h-760v1434h707q217 0 350 -104.5t133 -272.5q0 -199 -215 -287v-8zM872 324q63 0 103.5 35.5t40.5 91t-40 91.5t-104 36h-378v-254h378zM801 1110h-307v-252h307q66 0 106.5 35t40.5 90
q0 57 -40.5 92t-106.5 35z" />
    <glyph glyph-name="uni0413" unicode="&#x413;" horiz-adv-x="1171" 
d="M494 1100v-1100h-367v1434h1014v-334h-647z" />
    <glyph glyph-name="uni0414" unicode="&#x414;" horiz-adv-x="1667" 
d="M1487 1434v-1106h147l-20 -660h-246l-10 332h-1053l-10 -332h-246l-20 660h209q178 145 178 618v488h1071zM1133 328v800h-369v-161q0 -414 -117 -627v-12h486z" />
    <glyph glyph-name="uni0415" unicode="&#x415;" horiz-adv-x="1378" 
d="M494 545v-211h809v-334h-1176v1434h1159v-334h-792v-256h729v-299h-729z" />
    <glyph glyph-name="uni0416" unicode="&#x416;" horiz-adv-x="2093" 
d="M1616 758v-4l471 -754h-385l-383 612h-88v-612h-367v612h-88l-383 -612h-387l471 754v4l-450 676h387l362 -533h88v533h367v-533h88l362 533h385z" />
    <glyph glyph-name="uni0417" unicode="&#x417;" horiz-adv-x="1329" 
d="M928 756q143 -37 232 -131.5t89 -243.5q0 -430 -674 -430q-270 0 -552 80l81 303q211 -68 445 -66q338 0 338 170q0 158 -283 158h-358l2 283h334q240 0 239 139q0 143 -311 143q-174 2 -365 -55l-63 303q233 74 459 74q297 0 469 -98.5t172 -303.5q0 -115 -69 -197.5
t-185 -119.5v-8z" />
    <glyph glyph-name="uni0418" unicode="&#x418;" horiz-adv-x="1521" 
d="M1028 0v774h-6l-588 -774h-307v1434h367v-777h8l588 777h305v-1434h-367z" />
    <glyph glyph-name="uni0419" unicode="&#x419;" horiz-adv-x="1521" 
d="M905 1921h191q-2 -154 -86 -248t-246 -94t-246 94t-88 248h191q4 -63 42.5 -105t100 -42t99.5 42t42 105zM1028 0v774h-6l-588 -774h-307v1434h367v-777h8l588 777h305v-1434h-367z" />
    <glyph glyph-name="uni041A" unicode="&#x41a;" horiz-adv-x="1513" 
d="M1466 1436l-540 -582l581 -854h-448l-410 608l-155 -166v-442h-367v1434h367v-572h8l516 574h448z" />
    <glyph glyph-name="uni041B" unicode="&#x41b;" horiz-adv-x="1527" 
d="M690 905q0 -145 -13 -266t-32.5 -209t-54.5 -158.5t-65.5 -116.5t-81 -80t-84 -51.5t-93 -29.5t-89.5 -16.5t-89 -8.5l-59 301q41 6 52 8.5t55 18.5t62.5 36.5t52.5 68t49 107.5t28.5 157.5t13.5 218.5v549h1061v-1434h-354v1128h-359v-223z" />
    <glyph glyph-name="uni041C" unicode="&#x41c;" horiz-adv-x="1888" 
d="M494 868v-868h-367v1434h471l342 -824h8l342 824h471v-1434h-366v868h-6l-349 -868h-192l-348 868h-6z" />
    <glyph glyph-name="uni041D" unicode="&#x41d;" horiz-adv-x="1519" 
d="M1028 879v555h367v-1434h-367v526h-534v-526h-367v1434h367v-555h534z" />
    <glyph glyph-name="uni041E" unicode="&#x41e;" horiz-adv-x="1622" 
d="M811 1464q319 0 527 -211t208 -536.5t-208 -536.5t-527 -211t-527 211t-208 536.5t208 536.5t527 211zM811 305q162 0 265.5 116t103.5 296t-103.5 295.5t-265.5 115.5t-264.5 -115.5t-102.5 -295.5t102.5 -296t264.5 -116z" />
    <glyph glyph-name="uni041F" unicode="&#x41f;" horiz-adv-x="1517" 
d="M1393 1434v-1434h-367v1100h-532v-1100h-367v1434h1266z" />
    <glyph glyph-name="uni0420" unicode="&#x420;" horiz-adv-x="1435" 
d="M872 410h-378v-410h-367v1434h745q229 0 380 -149.5t151 -369.5q0 -227 -149 -366t-382 -139zM850 1100h-356v-365h356q88 0 137 53.5t49 129t-49 129t-137 53.5z" />
    <glyph glyph-name="uni0421" unicode="&#x421;" horiz-adv-x="1345" 
d="M883 305q94 0 202.5 28.5t174.5 67.5l61 -325q-190 -106 -451 -107q-352 0 -573 203t-221 532.5t220 544.5t574 215q231 0 424 -96l-92 -334q-150 94 -332 94q-201 0 -314.5 -122.5t-113.5 -300.5q0 -184 123 -292t318 -108z" />
    <glyph glyph-name="uni0422" unicode="&#x422;" horiz-adv-x="1249" 
d="M440 0v1100h-411v334h1192v-334h-414v-1100h-367z" />
    <glyph glyph-name="uni0423" unicode="&#x423;" horiz-adv-x="1269" 
d="M653 821l262 613h367l-455 -1057q-96 -225 -241.5 -316.5t-376.5 -91.5q-76 0 -154 21l27 317q86 -27 178 -26q135 0 203 108l-475 1045h387l268 -613h10z" />
    <glyph glyph-name="uni0424" unicode="&#x424;" horiz-adv-x="1622" 
d="M643 1360v135h350v-137q260 -47 406.5 -219t146.5 -422t-146.5 -422t-406.5 -219v-137h-350v135q-266 45 -416.5 218t-150.5 425t150.5 425t416.5 218zM993 1044v-655q184 84 184 327.5t-184 327.5zM643 383v668q-199 -78 -199 -334t199 -334z" />
    <glyph glyph-name="uni0425" unicode="&#x425;" horiz-adv-x="1474" 
d="M1444 1434l-434 -695l469 -739h-439l-301 479h-6l-299 -479h-440l469 739l-434 695h438l266 -437h6l265 437h440z" />
    <glyph glyph-name="uni0426" unicode="&#x426;" horiz-adv-x="1529" 
d="M1331 1434v-1106h166l-20 -660h-246l-10 332h-1094v1434h367v-1100h471v1100h366z" />
    <glyph glyph-name="uni0427" unicode="&#x427;" horiz-adv-x="1400" 
d="M913 807v627h361v-1434h-361v504h-6q-53 -41 -150.5 -63.5t-185.5 -22.5q-211 0 -349 136t-138 370v510h377v-478q0 -102 63.5 -158.5t165.5 -58.5q55 0 125.5 18.5t97.5 49.5z" />
    <glyph glyph-name="uni0428" unicode="&#x428;" horiz-adv-x="2072" 
d="M1579 334v1100h367v-1434h-1819v1434h367v-1100h360v1100h367v-1100h358z" />
    <glyph glyph-name="uni0429" unicode="&#x429;" horiz-adv-x="2179" 
d="M1966 1434v-1106h182l-20 -660h-246l-10 332h-1727v1434h367v-1100h360v1100h367v-1100h360v1100h367z" />
    <glyph glyph-name="uni042A" unicode="&#x42a;" horiz-adv-x="1525" 
d="M1004 961q219 0 355 -134.5t136 -347.5q-2 -209 -137 -344t-338 -135h-680v1100h-311v334h665v-521q146 48 310 48zM915 289q98 0 161 53t63 137t-64.5 133.5t-163.5 49.5q-143 0 -217 -27v-346h221z" />
    <glyph glyph-name="uni042B" unicode="&#x42b;" horiz-adv-x="1892" 
d="M791 958q221 0 356 -133t135 -346q0 -209 -135 -345t-340 -136h-352v2h-328v1432h354v-521q146 47 310 47zM1399 0v1434h366v-1434h-366zM702 289q98 0 161 52t63 138q0 82 -63.5 131t-162.5 49q-152 0 -219 -24v-346h221z" />
    <glyph glyph-name="uni042C" unicode="&#x42c;" horiz-adv-x="1314" 
d="M127 0v1434h354v-521q145 47 310 48q219 0 355 -134.5t136 -347.5q-2 -209 -137 -344t-340 -135h-678zM481 635v-346h221q98 0 161 53t63 137t-64.5 133.5t-163.5 49.5q-147 0 -217 -27z" />
    <glyph glyph-name="uni042D" unicode="&#x42d;" horiz-adv-x="1327" 
d="M418 283q164 0 283.5 79.5t160.5 215.5h-663v278h665q-43 135 -155.5 215t-270.5 80q-182 0 -284 -57l-45 309q166 61 329 61q352 0 582.5 -211t230.5 -536.5t-230 -536.5t-583 -211q-227 0 -415 97l96 303q123 -86 299 -86z" />
    <glyph glyph-name="uni042E" unicode="&#x42e;" horiz-adv-x="1990" 
d="M1268 1464q281 0 464 -203.5t183 -543.5t-183.5 -544t-463.5 -204q-240 0 -412 151.5t-219 414.5h-143v-535h-367v1434h367v-535h143q47 262 219 413.5t412 151.5zM1259.5 305q126.5 0 206.5 108.5t80 303t-80 303t-206.5 108.5t-206.5 -108.5t-80 -303t80 -303
t206.5 -108.5z" />
    <glyph glyph-name="uni042F" unicode="&#x42f;" horiz-adv-x="1497" 
d="M381 608v10q-248 113 -248 375q0 203 139.5 322t364.5 119h733v-1434h-366v498h-175q-35 0 -53 -2t-53 -9.5t-59.5 -30t-38.5 -59.5l-158 -397h-406l158 426q53 137 162 182zM506 942q0 -68 46 -112t118 -44h334v314h-334q-72 0 -118 -44t-46 -114z" />
    <glyph glyph-name="uni0430" unicode="&#x430;" horiz-adv-x="1249" 
d="M70 293q0 150 114.5 243t345.5 93q137 0 250 -39q-6 70 -67.5 110.5t-169.5 40.5q-33 0 -67 -4t-64.5 -10t-59 -13t-51 -14.5t-39 -13.5t-26.5 -10l-11 -4l-96 284q23 12 62.5 28.5t155.5 45.5t220 29q297 0 428 -122t131 -390v-547h-165l-91 137h-6q-115 -168 -383 -168
q-182 0 -296.5 91.5t-114.5 232.5zM768 393q-74 33 -170 33q-88 0 -136 -32t-48 -77q0 -43 43 -69.5t121 -26.5q82 0 136 45t54 105v22z" />
    <glyph glyph-name="uni0431" unicode="&#x431;" horiz-adv-x="1249" 
d="M680 1059q215 0 352 -145.5t137 -372.5q0 -240 -150.5 -406t-402.5 -166q-254 0 -401 174t-147 445q0 389 133 585.5t405 237.5q176 31 176 82h348q0 -236 -411 -299q-162 -25 -251 -102.5t-106 -180.5l7 -2q123 150 311 150zM616.5 295q94.5 0 148.5 70.5t54 179.5
q0 102 -54 171.5t-148.5 69.5t-147.5 -69.5t-53 -171.5q0 -109 53 -179.5t147.5 -70.5z" />
    <glyph glyph-name="uni0432" unicode="&#x432;" horiz-adv-x="1263" 
d="M1159 274q0 -123 -98 -198.5t-273 -75.5h-665v1030h620q174 0 272.5 -72.5t98.5 -191.5q0 -160 -166 -229v-9q100 -29 155.5 -96.5t55.5 -157.5zM469 244h254q39 0 63.5 23.5t24.5 60.5t-24.5 60.5t-63.5 23.5h-254v-168zM469 784v-170h209q39 0 63.5 24t24.5 60.5
t-24.5 60t-63.5 25.5h-209z" />
    <glyph glyph-name="uni0433" unicode="&#x433;" horiz-adv-x="933" 
d="M123 0v1030h799v-285h-453v-745h-346z" />
    <glyph glyph-name="uni0434" unicode="&#x434;" horiz-adv-x="1284" 
d="M1126 1030v-743h127l-20 -619h-246l-10 332h-709l-10 -332h-244l-20 619h112q127 57 127 303v440h893zM788 287v458h-221v-139q0 -193 -39 -319h260z" />
    <glyph glyph-name="uni0435" unicode="&#x435;" horiz-adv-x="1234" 
d="M625 1059q250 0 397 -149.5t147 -395.5q0 -55 -6 -98h-725q66 -123 279 -123q180 0 319 72l64 -304q-158 -92 -385 -92q-301 0 -475 151.5t-174 393.5q0 240 156.5 392.5t402.5 152.5zM428 602h393q-2 63 -57 98t-137 35q-156 0 -199 -133z" />
    <glyph glyph-name="uni0436" unicode="&#x436;" horiz-adv-x="1794" 
d="M1442 512v-4l358 -508h-387l-260 381h-82v-381h-346v381h-84l-260 -381h-387l358 508v4l-332 518h388l243 -401h74v401h346v-401h72l243 401h388z" />
    <glyph glyph-name="uni0437" unicode="&#x437;" horiz-adv-x="1155" 
d="M825 535q113 -18 187.5 -84t74.5 -158q0 -113 -84.5 -188.5t-204.5 -105.5t-263 -30q-334 0 -508 86l43 248q53 -23 170.5 -44t193.5 -21q246 0 246 86q0 90 -311 90h-199v231h201q279 0 278 90q0 74 -186 74q-80 0 -187.5 -18.5t-154.5 -40.5l-47 237q166 72 448 72
q254 0 381 -85t127 -204q0 -78 -54 -139.5t-151 -87.5v-8z" />
    <glyph glyph-name="uni0438" unicode="&#x438;" 
d="M471 524l440 506h291v-1030h-342v506h-8l-438 -506h-291v1030h342v-506h6z" />
    <glyph glyph-name="uni0439" unicode="&#x439;" 
d="M471 524l440 506h291v-1030h-342v506h-8l-438 -506h-291v1030h342v-506h6zM795 1518h190q-2 -154 -86 -248t-245.5 -94t-245.5 94t-89 248h191q4 -63 43 -105.5t100.5 -42.5t99.5 42.5t42 105.5z" />
    <glyph glyph-name="uni043A" unicode="&#x43a;" horiz-adv-x="1222" 
d="M1200 1030l-373 -414l402 -616h-369l-252 381l-139 -158v-223h-346v1030h346v-391h8l338 391h385z" />
    <glyph glyph-name="uni043B" unicode="&#x43b;" horiz-adv-x="1228" 
d="M528 745v-139q0 -164 -28.5 -283.5t-69.5 -184t-105.5 -102.5t-113.5 -49.5t-119 -15.5l-98 297q41 6 66.5 16.5t61.5 40t54.5 97t18.5 168.5v440h911v-1030h-338v745h-240z" />
    <glyph glyph-name="uni043C" unicode="&#x43c;" horiz-adv-x="1734" 
d="M1030 0h-325l-228 616h-8v-616h-346v1030h483l258 -639h6l258 639h484v-1030h-346v616h-9z" />
    <glyph glyph-name="uni043D" unicode="&#x43d;" horiz-adv-x="1271" 
d="M811 0v377h-350v-377h-338v1030h338v-373h350v373h338v-1030h-338z" />
    <glyph glyph-name="uni043E" unicode="&#x43e;" horiz-adv-x="1273" 
d="M637 1059q248 0 409.5 -153.5t161.5 -391.5t-161.5 -391.5t-409.5 -153.5q-248 2 -409.5 156t-161.5 391.5t161.5 391t409.5 151.5zM637 293q96 0 157.5 62.5t61.5 158.5t-61.5 158.5t-157.5 62.5q-94 2 -156.5 -60.5t-62.5 -158.5t62.5 -159.5t156.5 -63.5z" />
    <glyph glyph-name="uni043F" unicode="&#x43f;" horiz-adv-x="1284" 
d="M1161 0h-346v743h-346v-743h-346v1030h1038v-1030z" />
    <glyph glyph-name="uni0440" unicode="&#x440;" horiz-adv-x="1320" 
d="M797 -29q-195 0 -324 140h-4v-570h-346v1489h186l107 -180h4q131 209 375 209q201 0 333 -152.5t134 -390.5q0 -238 -132 -391.5t-333 -153.5zM688 737q-94 0 -156.5 -63.5t-62.5 -159.5t62.5 -158.5t158.5 -60.5q94 0 156.5 62.5t62.5 158.5t-62.5 158.5t-158.5 62.5z
" />
    <glyph glyph-name="uni0441" unicode="&#x441;" horiz-adv-x="1058" 
d="M713 293q164 0 280 67l37 -325q-158 -66 -325 -66q-283 2 -461 154.5t-178 392.5t175 392.5t453 150.5q74 0 169 -18.5t151 -49.5l-86 -305q-94 49 -226 49q-127 2 -205.5 -61.5t-78.5 -161.5q-2 -90 83 -154.5t212 -64.5z" />
    <glyph glyph-name="uni0442" unicode="&#x442;" horiz-adv-x="1007" 
d="M330 0v743h-318v287h983v-287h-319v-743h-346z" />
    <glyph glyph-name="uni0443" unicode="&#x443;" horiz-adv-x="1110" 
d="M793 1030h346l-387 -1118q-78 -227 -206 -313t-360 -86q-84 0 -153 18v319q78 -27 180 -26q131 0 186 90l-428 1116h367l229 -631h8z" />
    <glyph glyph-name="uni0444" unicode="&#x444;" horiz-adv-x="1552" 
d="M602 -31q-229 2 -377.5 156t-148.5 389q0 238 149.5 390.5t376.5 154.5v430h346v-430q229 -2 378 -154.5t151 -390.5q0 -236 -149.5 -389.5t-379.5 -155.5v-428h-346v428zM948 731v-434q78 14 127 73.5t49 143.5q0 86 -48 144.5t-128 72.5zM602 731q-78 -14 -126 -72.5
t-48 -144.5q0 -84 48 -143.5t126 -73.5v434z" />
    <glyph glyph-name="uni0445" unicode="&#x445;" horiz-adv-x="1275" 
d="M1255 1030l-356 -489l385 -541h-426l-217 317h-6l-217 -317h-426l383 541l-357 489h410l207 -307h6l205 307h409z" />
    <glyph glyph-name="uni0446" unicode="&#x446;" horiz-adv-x="1329" 
d="M1163 1030v-737h135l-20 -625h-244l-10 332h-901v1030h346v-745h348v745h346z" />
    <glyph glyph-name="uni0447" unicode="&#x447;" horiz-adv-x="1308" 
d="M840 598v432h346v-1030h-346v324h-9q-109 -78 -280 -78q-203 0 -320.5 130t-115.5 361v293h344v-260q0 -115 54 -175t153 -60q111 0 174 63z" />
    <glyph glyph-name="uni0448" unicode="&#x448;" horiz-adv-x="1822" 
d="M1354 1030h346v-1030h-1577v1030h346v-743h268v743h350v-743h267v743z" />
    <glyph glyph-name="uni0449" unicode="&#x449;" horiz-adv-x="1884" 
d="M1700 1030v-737h153l-20 -625h-246l-10 332h-1454v1030h346v-745h266v745h350v-745h269v745h346z" />
    <glyph glyph-name="uni044A" unicode="&#x44a;" horiz-adv-x="1212" 
d="M801 666q174 -2 272 -93.5t98 -241t-98 -240.5t-272 -91h-565v745h-224v285h561v-364h228zM737 242q41 0 65.5 24.5t24.5 65.5t-24.5 65.5t-65.5 24.5h-164v-180h164z" />
    <glyph glyph-name="uni044B" unicode="&#x44b;" horiz-adv-x="1654" 
d="M688 666q174 -2 272.5 -93.5t98.5 -241t-98.5 -240.5t-272.5 -91h-563l-2 1028h340v-362h225zM1192 0v1028h340v-1028h-340zM627 242q39 0 63.5 25.5t24.5 64.5t-24.5 64.5t-63.5 25.5h-164v-180h164z" />
    <glyph glyph-name="uni044C" unicode="&#x44c;" horiz-adv-x="1099" 
d="M688 666q174 -2 272.5 -93.5t98.5 -241t-98.5 -240.5t-272.5 -91h-565v1030h338v-364h227zM625 242q39 0 64.5 24.5t25.5 65.5q0 39 -24.5 64.5t-63.5 25.5h-166v-180h164z" />
    <glyph glyph-name="uni044D" unicode="&#x44d;" horiz-adv-x="1058" 
d="M395 262q186 0 250 137h-485v230h485q-63 137 -256 137q-127 0 -213 -55l-88 284q131 63 326 64q248 0 412.5 -153.5t164.5 -391.5q2 -242 -163.5 -393.5t-446.5 -151.5q-180 0 -352 82l75 281q49 -25 76 -36t84 -22.5t131 -11.5z" />
    <glyph glyph-name="uni044E" unicode="&#x44e;" horiz-adv-x="1677" 
d="M1092 1059q223 0 369.5 -153.5t146.5 -391.5q2 -236 -144.5 -390.5t-369.5 -154.5q-182 0 -315.5 103.5t-180.5 277.5h-129v-350h-346v1030h346v-352h129q47 174 179.5 277.5t314.5 103.5zM1093.5 293q71.5 0 117.5 62.5t46 158.5t-47 158.5t-118.5 62.5t-117.5 -62.5
t-46 -158.5t47 -158.5t118.5 -62.5z" />
    <glyph glyph-name="uni044F" unicode="&#x44f;" horiz-adv-x="1310" 
d="M340 444v9q-90 37 -139 108.5t-49 165.5q0 135 99 220t271 83h668v-1030h-346v332h-78q-35 0 -53.5 -2t-52 -9.5t-56 -29t-35.5 -55.5l-82 -236h-395l92 262q52 143 156 182zM608 557h236v203h-236q-47 0 -77.5 -27.5t-30.5 -73t30.5 -74t77.5 -28.5z" />
    <glyph glyph-name="uni0450" unicode="&#x450;" horiz-adv-x="1234" 
d="M625 1059q250 0 397 -149.5t147 -395.5q0 -55 -6 -98h-725q66 -123 279 -123q180 0 319 72l64 -304q-158 -92 -385 -92q-301 0 -475 151.5t-174 393.5q0 240 156.5 392.5t402.5 152.5zM428 602h393q-2 63 -57 98t-137 35q-156 0 -199 -133zM231 1540h342l209 -364h-258z
" />
    <glyph glyph-name="uni0451" unicode="&#x451;" horiz-adv-x="1234" 
d="M625 1059q250 0 397 -149.5t147 -395.5q0 -55 -6 -98h-725q66 -123 279 -123q180 0 319 72l64 -304q-158 -92 -385 -92q-301 0 -475 151.5t-174 393.5q0 240 156.5 392.5t402.5 152.5zM428 602h393q-2 63 -57 98t-137 35q-156 0 -199 -133zM666 1358q0 74 49 123
t120.5 49t120 -49t48.5 -123q0 -70 -48.5 -119t-119.5 -49q-74 0 -122 49t-48 119zM231 1358q0 74 50.5 123t121.5 49q70 0 117 -49t47 -123q0 -70 -47 -119t-117 -49q-74 0 -123 49t-49 119z" />
    <glyph glyph-name="uni0452" unicode="&#x452;" horiz-adv-x="1460" 
d="M895 1059q197 0 319.5 -146.5t122.5 -375.5v-619q0 -178 -134 -292.5t-337 -114.5q-90 0 -178 20l23 305q57 -14 114 -14q166 0 166 160v540q0 92 -61.5 152.5t-153.5 60.5t-152.5 -58.5t-60.5 -150.5v-526h-346v1139h-240v235h240v117h346v-117h342v-235h-342v-215h8
q117 135 324 135z" />
    <glyph glyph-name="uni0453" unicode="&#x453;" horiz-adv-x="931" 
d="M123 0v1030h799v-285h-453v-745h-346zM580 1540h346l-295 -364h-258z" />
    <glyph glyph-name="uni0454" unicode="&#x454;" horiz-adv-x="1058" 
d="M664 262q74 0 131 11.5t83.5 22.5t75.5 36l76 -281q-172 -82 -352 -82q-281 0 -446.5 151.5t-163.5 393.5q0 238 164.5 391.5t412.5 153.5q195 0 326 -64l-88 -284q-86 55 -213 55q-193 0 -256 -137h485v-230h-485q64 -137 250 -137z" />
    <glyph glyph-name="uni0455" unicode="&#x455;" horiz-adv-x="1032" 
d="M967 297q0 -152 -120 -239t-304 -87q-279 0 -506 119l88 262q178 -109 389 -108q117 0 117 49q0 31 -33 47t-129 43q-178 45 -280.5 127t-102.5 227q0 143 111.5 232.5t359.5 89.5q80 0 196.5 -25.5t178.5 -54.5l-68 -258q-133 66 -301 65q-139 0 -139 -51q0 -25 37 -41
t137 -45q188 -53 278.5 -132t90.5 -220z" />
    <glyph glyph-name="uni0456" unicode="&#x456;" horiz-adv-x="593" 
d="M119 0v1030h346v-1030h-346zM297 1290q-82 0 -142.5 61.5t-60.5 143.5t60.5 141.5t142.5 59.5q84 0 143.5 -59.5t59.5 -141.5q0 -84 -60.5 -144.5t-142.5 -60.5z" />
    <glyph glyph-name="uni0457" unicode="&#x457;" horiz-adv-x="555" 
d="M102 0v1030h347v-1030h-347zM326 1358q0 74 49 123t120.5 49t120 -49t48.5 -123q0 -70 -48.5 -119t-119.5 -49q-74 0 -122 49t-48 119zM-109 1358q0 74 50.5 123t121.5 49q70 0 117 -49t47 -123q0 -70 -47 -119t-117 -49q-74 0 -123 49t-49 119z" />
    <glyph glyph-name="uni0458" unicode="&#x458;" horiz-adv-x="540" 
d="M63 -18v1048h347v-1114q-2 -178 -135.5 -293t-337.5 -112q-82 0 -179 18l25 305q49 -12 113 -12q167 0 167 160zM235.5 1571q90.5 0 150.5 -61.5t60 -149.5t-60 -149.5t-150.5 -61.5t-150.5 61.5t-60 149.5t60 149.5t150.5 61.5z" />
    <glyph glyph-name="uni0459" unicode="&#x459;" horiz-adv-x="1746" 
d="M1333 664q172 0 271.5 -92.5t99.5 -239.5q0 -150 -98.5 -241t-272.5 -91h-563v745h-242v-139q0 -164 -28.5 -283.5t-69.5 -184t-105.5 -102.5t-113.5 -49.5t-119 -15.5l-98 297q41 6 66.5 16.5t61.5 40t54.5 97t18.5 168.5v440h913v-366h225zM1270 242q41 0 65.5 24.5
t24.5 65.5q0 39 -24.5 64.5t-63.5 25.5h-164v-180h162z" />
    <glyph glyph-name="uni045A" unicode="&#x45a;" horiz-adv-x="1732" 
d="M1321 664q172 0 270.5 -92.5t98.5 -239.5q0 -150 -98.5 -241t-272.5 -91h-563v422h-295v-422h-338v1030h338v-366h295v366h338v-366h227zM1257 242q39 0 65 25.5t26 64.5t-26 64.5t-65 25.5h-163v-180h163z" />
    <glyph glyph-name="uni045B" unicode="&#x45b;" horiz-adv-x="1460" 
d="M895 1059q197 0 319.5 -146.5t122.5 -375.5v-537h-346v522q0 92 -61.5 152.5t-153.5 60.5t-152.5 -58.5t-60.5 -150.5v-526h-346v1139h-240v235h240v115h346v-115h342v-235h-342v-215h6q119 135 326 135z" />
    <glyph glyph-name="uni045C" unicode="&#x45c;" horiz-adv-x="1222" 
d="M1200 1030l-373 -414l402 -616h-369l-252 381l-139 -158v-223h-346v1030h346v-391h8l338 391h385zM674 1540h346l-295 -364h-258z" />
    <glyph glyph-name="uni045D" unicode="&#x45d;" 
d="M471 524l440 506h291v-1030h-342v506h-8l-438 -506h-291v1030h342v-506h6zM272 1540h342l209 -364h-258z" />
    <glyph glyph-name="uni045E" unicode="&#x45e;" horiz-adv-x="1110" 
d="M793 1030h346l-387 -1118q-78 -227 -206 -313t-360 -86q-84 0 -153 18v319q78 -27 180 -26q131 0 186 90l-428 1116h367l229 -631h8zM698 1518h191q-2 -154 -86 -248t-246 -94t-246 94t-88 248h191q4 -63 43 -105.5t100 -42.5t99 42.5t42 105.5z" />
    <glyph glyph-name="uni045F" unicode="&#x45f;" horiz-adv-x="1306" 
d="M838 285v745h346v-1030h-398l-10 -332h-246l-12 332h-395v1030h346v-745h369z" />
    <glyph glyph-name="uni0490" unicode="&#x490;" horiz-adv-x="1173" 
d="M856 1757h287l-2 -657h-647v-1100h-367v1434h727z" />
    <glyph glyph-name="uni0491" unicode="&#x491;" horiz-adv-x="923" 
d="M666 1358h243l2 -572h-493v-786h-295v1030h541z" />
    <glyph glyph-name="uni04D9" unicode="&#x4d9;" horiz-adv-x="1222" 
d="M598 -29q-250 0 -397.5 149.5t-147.5 395.5q0 55 6 98h725q-66 123 -278 123q-180 0 -320 -71l-63 303q158 92 385 92q301 0 475 -151.5t174 -393.5q0 -240 -156.5 -392.5t-402.5 -152.5zM795 428h-394q2 -63 57.5 -98t137.5 -35q156 0 199 133z" />
    <glyph glyph-name="uni0E3F" unicode="&#xe3f;" horiz-adv-x="1378" 
d="M1020 762q129 -43 203.5 -136.5t74.5 -222.5q0 -176 -139 -289.5t-354 -113.5h-35v-209h-299v209h-344v1434h344v208h299v-208q211 -4 338 -108.5t127 -268.5q0 -197 -215 -287v-8zM494 1112v-254h227q63 0 104 36t41 91t-41 91t-104 36h-227zM791 324q63 0 103 35.5
t40 91t-40 91.5t-103 36h-297v-254h297z" />
    <glyph glyph-name="Wgrave" unicode="&#x1e80;" horiz-adv-x="2095" 
d="M1712 1434h387l-411 -1434h-420l-215 776h-9l-215 -776h-419l-414 1434h387l235 -916h7l245 916h357l246 -916h6zM594 1944h342l209 -365h-258z" />
    <glyph glyph-name="wgrave" unicode="&#x1e81;" horiz-adv-x="1828" 
d="M1298 399l170 631h369l-305 -1030h-418l-196 569h-7l-196 -569h-418l-305 1030h368l170 -631h7l208 631h338l209 -631h6zM487 1540h342l209 -364h-258z" />
    <glyph glyph-name="Wacute" unicode="&#x1e82;" horiz-adv-x="2095" 
d="M1712 1434h387l-411 -1434h-420l-215 776h-9l-215 -776h-419l-414 1434h387l235 -916h7l245 916h357l246 -916h6zM1137 1944h346l-295 -365h-258z" />
    <glyph glyph-name="wacute" unicode="&#x1e83;" horiz-adv-x="1828" 
d="M1298 399l170 631h369l-305 -1030h-418l-196 569h-7l-196 -569h-418l-305 1030h368l170 -631h7l208 631h338l209 -631h6zM975 1540h346l-295 -364h-258z" />
    <glyph glyph-name="Wdieresis" unicode="&#x1e84;" horiz-adv-x="2095" 
d="M1712 1434h387l-411 -1434h-420l-215 776h-9l-215 -776h-419l-414 1434h387l235 -916h7l245 916h357l246 -916h6zM1096 1761q0 74 49 123t120.5 49t120 -49t48.5 -123q0 -70 -48.5 -119t-119.5 -49q-74 0 -122 49t-48 119zM662 1761q0 74 50 123t122 49q70 0 116.5 -49
t46.5 -123q0 -70 -47 -119t-116 -49q-74 0 -123 49t-49 119z" />
    <glyph glyph-name="wdieresis" unicode="&#x1e85;" horiz-adv-x="1828" 
d="M1298 399l170 631h369l-305 -1030h-418l-196 569h-7l-196 -569h-418l-305 1030h368l170 -631h7l208 631h338l209 -631h6zM963 1358q0 74 49 123t120.5 49t119.5 -49t48 -123q0 -70 -48 -119t-119 -49q-74 0 -122 49t-48 119zM528 1358q0 74 50.5 123t121.5 49
q70 0 117 -49t47 -123q0 -70 -47 -119t-117 -49q-74 0 -123 49t-49 119z" />
    <glyph glyph-name="uni1EA0" unicode="&#x1ea0;" horiz-adv-x="1490" 
d="M537 1434h417l549 -1434h-416l-71 215h-539l-71 -215h-418zM745.5 -451q-81.5 0 -142 61.5t-60.5 143.5t60.5 141.5t141.5 59.5q84 0 143.5 -59.5t59.5 -141.5q0 -84 -60.5 -144.5t-142 -60.5zM750 1008h-9l-166 -498h343z" />
    <glyph glyph-name="uni1EA1" unicode="&#x1ea1;" horiz-adv-x="1249" 
d="M70 293q0 150 114.5 243t345.5 93q137 0 250 -39q-6 70 -67.5 110.5t-169.5 40.5q-33 0 -67 -4t-64.5 -10t-59 -13t-51 -14.5t-39 -13.5t-26.5 -10l-11 -4l-96 284q23 12 62.5 28.5t155.5 45.5t220 29q297 0 428 -122t131 -390v-547h-165l-91 137h-6q-115 -168 -383 -168
q-182 0 -296.5 91.5t-114.5 232.5zM768 393q-74 33 -170 33q-88 0 -136 -32t-48 -77q0 -43 43 -69.5t121 -26.5q82 0 136 45t54 105v22zM598 -532q-82 0 -142.5 61t-60.5 143t60.5 141.5t142.5 59.5q84 0 143.5 -59.5t59.5 -141.5q0 -84 -60.5 -144t-142.5 -60z" />
    <glyph glyph-name="uni1EA2" unicode="&#x1ea2;" horiz-adv-x="1490" 
d="M537 1434h417l549 -1434h-416l-71 215h-539l-71 -215h-418zM782 1565l-151 45q16 49 65 97t49 85q0 31 -19 50.5t-48 19.5q-55 0 -105 -80l-106 65q92 178 272 178q90 0 153.5 -56t63.5 -132q0 -59 -28.5 -101t-75.5 -86t-70 -85zM750 1008h-9l-166 -498h343z" />
    <glyph glyph-name="uni1EA3" unicode="&#x1ea3;" horiz-adv-x="1249" 
d="M70 293q0 150 114.5 243t345.5 93q137 0 250 -39q-6 70 -67.5 110.5t-169.5 40.5q-33 0 -67 -4t-64.5 -10t-59 -13t-51 -14.5t-39 -13.5t-26.5 -10l-11 -4l-96 284q23 12 62.5 28.5t155.5 45.5t220 29q297 0 428 -122t131 -390v-547h-165l-91 137h-6q-115 -168 -383 -168
q-182 0 -296.5 91.5t-114.5 232.5zM768 393q-74 33 -170 33q-88 0 -136 -32t-48 -77q0 -43 43 -69.5t121 -26.5q82 0 136 45t54 105v22zM621 1186l-152 45q16 49 65.5 97t49.5 85q0 31 -19.5 50.5t-48.5 19.5q-55 0 -104 -80l-107 65q92 178 273 179q90 0 153.5 -56.5
t63.5 -132.5q0 -59 -29 -101t-75.5 -86t-69.5 -85z" />
    <glyph glyph-name="uni1EA4" unicode="&#x1ea4;" horiz-adv-x="1490" 
d="M537 1434h417l549 -1434h-416l-71 215h-539l-71 -215h-418zM627 1876h252l221 -295h-238l-108 152h-4l-107 -152h-233zM750 1008h-9l-166 -498h343zM1159 2075h316l-324 -275h-174z" />
    <glyph glyph-name="uni1EA5" unicode="&#x1ea5;" horiz-adv-x="1431" 
d="M70 293q0 150 114.5 243t345.5 93q137 0 250 -39q-6 70 -67.5 110.5t-169.5 40.5q-33 0 -67 -4t-64.5 -10t-59 -13t-51 -14.5t-39 -13.5t-26.5 -10l-11 -4l-96 284q23 12 62.5 28.5t155.5 45.5t220 29q297 0 428 -122t131 -390v-547h-165l-91 137h-6q-115 -168 -383 -168
q-182 0 -296.5 91.5t-114.5 232.5zM768 393q-74 33 -170 33q-88 0 -136 -32t-48 -77q0 -43 43 -69.5t121 -26.5q82 0 136 45t54 105v22zM1014 1692h315l-323 -275h-175zM481 1493h252l221 -295h-237l-109 152h-4l-106 -152h-234z" />
    <glyph glyph-name="uni1EA6" unicode="&#x1ea6;" horiz-adv-x="1490" 
d="M537 1434h417l549 -1434h-416l-71 215h-539l-71 -215h-418zM623 1876h254l217 -295h-236l-106 152h-4l-107 -152h-235zM750 1008h-9l-166 -498h343zM827 2040h316l160 -273h-195z" />
    <glyph glyph-name="uni1EA7" unicode="&#x1ea7;" horiz-adv-x="1273" 
d="M70 293q0 150 114.5 243t345.5 93q137 0 250 -39q-6 70 -67.5 110.5t-169.5 40.5q-33 0 -67 -4t-64.5 -10t-59 -13t-51 -14.5t-39 -13.5t-26.5 -10l-11 -4l-96 284q23 12 62.5 28.5t155.5 45.5t220 29q297 0 428 -122t131 -390v-547h-165l-91 137h-6q-115 -168 -383 -168
q-182 0 -296.5 91.5t-114.5 232.5zM768 393q-74 33 -170 33q-88 0 -136 -32t-48 -77q0 -43 43 -69.5t121 -26.5q82 0 136 45t54 105v22zM676 1657h315l160 -273h-195zM471 1493h254l217 -295h-235l-107 152h-4l-107 -152h-235z" />
    <glyph glyph-name="uni1EA8" unicode="&#x1ea8;" horiz-adv-x="1490" 
d="M537 1434h417l549 -1434h-416l-71 215h-539l-71 -215h-418zM618 1878h256l218 -295h-236l-106 152h-5l-106 -152h-233zM1194 1698l-141 33q16 49 67 105t51 95q0 31 -20.5 51.5t-50.5 20.5q-66 0 -111 -86l-106 65q43 84 104 125q70 51 166 52q92 0 152.5 -54.5
t60.5 -136.5q0 -76 -61 -137q-6 -8 -27 -27.5t-32 -32t-26.5 -33t-25.5 -40.5zM750 1008h-9l-166 -498h343z" />
    <glyph glyph-name="uni1EA9" unicode="&#x1ea9;" horiz-adv-x="1357" 
d="M70 293q0 150 114.5 243t345.5 93q137 0 250 -39q-6 70 -67.5 110.5t-169.5 40.5q-33 0 -67 -4t-64.5 -10t-59 -13t-51 -14.5t-39 -13.5t-26.5 -10l-11 -4l-96 284q23 12 62.5 28.5t155.5 45.5t220 29q297 0 428 -122t131 -390v-547h-165l-91 137h-6q-115 -168 -383 -168
q-182 0 -296.5 91.5t-114.5 232.5zM768 393q-74 33 -170 33q-88 0 -136 -32t-48 -77q0 -43 43 -69.5t121 -26.5q82 0 136 45t54 105v22zM487 1493h256l218 -295h-236l-107 152h-4l-106 -152h-234zM1063 1313l-141 33q16 49 67 105t51 95q0 31 -20.5 51.5t-50.5 20.5
q-66 0 -111 -86l-106 65q43 84 104 125q70 51 166 52q92 0 152.5 -54.5t60.5 -136.5q0 -76 -61 -137q-6 -8 -27 -27.5t-32 -32t-26.5 -33t-25.5 -40.5z" />
    <glyph glyph-name="uni1EAA" unicode="&#x1eaa;" horiz-adv-x="1490" 
d="M537 1434h417l549 -1434h-416l-71 215h-539l-71 -215h-418zM909 2224l170 -35q-2 -137 -56 -202.5t-149 -65.5q-70 0 -172 53q-74 39 -94 39q-27 0 -45 -26.5t-20 -73.5l-174 39q4 127 60 197.5t144 70.5q70 0 160 -51q82 -45 107 -45q61 0 69 100zM864 1878l217 -295
h-235l-107 152h-4l-106 -152h-234l213 295h256zM750 1008h-9l-166 -498h343z" />
    <glyph glyph-name="uni1EAB" unicode="&#x1eab;" horiz-adv-x="1249" 
d="M70 293q0 150 114.5 243t345.5 93q137 0 250 -39q-6 70 -67.5 110.5t-169.5 40.5q-33 0 -67 -4t-64.5 -10t-59 -13t-51 -14.5t-39 -13.5t-26.5 -10l-11 -4l-96 284q23 12 62.5 28.5t155.5 45.5t220 29q297 0 428 -122t131 -390v-547h-165l-91 137h-6q-115 -168 -383 -168
q-182 0 -296.5 91.5t-114.5 232.5zM768 393q-74 33 -170 33q-88 0 -136 -32t-48 -77q0 -43 43 -69.5t121 -26.5q82 0 136 45t54 105v22zM717 1493l217 -295h-236l-106 152h-4l-107 -152h-233l213 295h256zM762 1839l170 -35q-2 -137 -56.5 -202.5t-148.5 -65.5
q-70 0 -172 53q-74 39 -94 39q-27 0 -45.5 -26.5t-20.5 -73.5l-174 39q4 127 60.5 197.5t144.5 70.5q70 0 160 -51q82 -45 106 -45q62 0 70 100z" />
    <glyph glyph-name="uni1EAC" unicode="&#x1eac;" horiz-adv-x="1490" 
d="M537 1434h417l549 -1434h-416l-71 215h-539l-71 -215h-418zM625 1909h247l248 -365h-237l-133 189h-5l-131 -189h-241zM745.5 -532q-81.5 0 -142 61t-60.5 143t60.5 141.5t141.5 59.5q84 0 143.5 -59.5t59.5 -141.5q0 -84 -60.5 -144t-142 -60zM750 1008h-9l-166 -498
h343z" />
    <glyph glyph-name="uni1EAD" unicode="&#x1ead;" horiz-adv-x="1249" 
d="M70 293q0 150 114.5 243t345.5 93q137 0 250 -39q-6 70 -67.5 110.5t-169.5 40.5q-33 0 -67 -4t-64.5 -10t-59 -13t-51 -14.5t-39 -13.5t-26.5 -10l-11 -4l-96 284q23 12 62.5 28.5t155.5 45.5t220 29q297 0 428 -122t131 -390v-547h-165l-91 137h-6q-115 -168 -383 -168
q-182 0 -296.5 91.5t-114.5 232.5zM768 393q-74 33 -170 33q-88 0 -136 -32t-48 -77q0 -43 43 -69.5t121 -26.5q82 0 136 45t54 105v22zM477 1540h248l248 -364h-238l-133 188h-4l-131 -188h-242zM598 -532q-82 0 -142.5 61t-60.5 143t60.5 141.5t142.5 59.5
q84 0 143.5 -59.5t59.5 -141.5q0 -84 -60.5 -144t-142.5 -60z" />
    <glyph glyph-name="uni1EAE" unicode="&#x1eae;" horiz-adv-x="1490" 
d="M537 1434h417l549 -1434h-416l-71 215h-539l-71 -215h-418zM406 1841h167q31 -113 181 -112q143 0 174 112h168q-14 -133 -101.5 -215t-242.5 -82q-154 0 -242 83t-104 214zM750 1008h-9l-166 -498h343zM797 2089h327l-299 -272h-194z" />
    <glyph glyph-name="uni1EAF" unicode="&#x1eaf;" horiz-adv-x="1249" 
d="M70 293q0 150 114.5 243t345.5 93q137 0 250 -39q-6 70 -67.5 110.5t-169.5 40.5q-33 0 -67 -4t-64.5 -10t-59 -13t-51 -14.5t-39 -13.5t-26.5 -10l-11 -4l-96 284q23 12 62.5 28.5t155.5 45.5t220 29q297 0 428 -122t131 -390v-547h-165l-91 137h-6q-115 -168 -383 -168
q-182 0 -296.5 91.5t-114.5 232.5zM768 393q-74 33 -170 33q-88 0 -136 -32t-48 -77q0 -43 43 -69.5t121 -26.5q82 0 136 45t54 105v22zM631 1708h327l-299 -272h-194zM240 1460h168q31 -113 180 -112q143 0 174 112h168q-14 -133 -101.5 -215t-242.5 -82q-154 0 -242 83
t-104 214z" />
    <glyph glyph-name="uni1EB0" unicode="&#x1eb0;" horiz-adv-x="1490" 
d="M537 1434h417l549 -1434h-416l-71 215h-539l-71 -215h-418zM420 1841h168q31 -113 180 -112q143 0 174 112h168q-14 -133 -101 -215t-243 -82q-154 0 -242 83t-104 214zM750 1008h-9l-166 -498h343zM379 2089h328l165 -272h-194z" />
    <glyph glyph-name="uni1EB1" unicode="&#x1eb1;" horiz-adv-x="1249" 
d="M70 293q0 150 114.5 243t345.5 93q137 0 250 -39q-6 70 -67.5 110.5t-169.5 40.5q-33 0 -67 -4t-64.5 -10t-59 -13t-51 -14.5t-39 -13.5t-26.5 -10l-11 -4l-96 284q23 12 62.5 28.5t155.5 45.5t220 29q297 0 428 -122t131 -390v-547h-165l-91 137h-6q-115 -168 -383 -168
q-182 0 -296.5 91.5t-114.5 232.5zM768 393q-74 33 -170 33q-88 0 -136 -32t-48 -77q0 -43 43 -69.5t121 -26.5q82 0 136 45t54 105v22zM233 1708h328l166 -272h-195zM274 1460h168q31 -113 181 -112q143 0 174 112h168q-14 -133 -101.5 -215t-242.5 -82q-154 0 -242.5 83
t-104.5 214z" />
    <glyph glyph-name="uni1EB2" unicode="&#x1eb2;" horiz-adv-x="1490" 
d="M537 1434h417l549 -1434h-416l-71 215h-539l-71 -215h-418zM395 1841h166q33 -113 178 -112q150 0 183 112h161q-14 -125 -105 -211t-243 -86q-156 0 -242 82t-98 215zM793 1786l-152 45q16 49 65.5 97t49.5 85q0 31 -19.5 50.5t-48.5 19.5q-55 0 -104 -80l-107 65
q92 178 273 179q90 0 153.5 -56.5t63.5 -132.5q0 -59 -29 -101t-75.5 -86t-69.5 -85zM750 1008h-9l-166 -498h343z" />
    <glyph glyph-name="uni1EB3" unicode="&#x1eb3;" horiz-adv-x="1249" 
d="M70 293q0 150 114.5 243t345.5 93q137 0 250 -39q-6 70 -67.5 110.5t-169.5 40.5q-33 0 -67 -4t-64.5 -10t-59 -13t-51 -14.5t-39 -13.5t-26.5 -10l-11 -4l-96 284q23 12 62.5 28.5t155.5 45.5t220 29q297 0 428 -122t131 -390v-547h-165l-91 137h-6q-115 -168 -383 -168
q-182 0 -296.5 91.5t-114.5 232.5zM768 393q-74 33 -170 33q-88 0 -136 -32t-48 -77q0 -43 43 -69.5t121 -26.5q82 0 136 45t54 105v22zM651 1405l-151 45q16 49 65 97t49 85q0 31 -19.5 50.5t-47.5 19.5q-55 0 -105 -80l-106 66q92 178 272 178q90 0 153.5 -56.5
t63.5 -132.5q0 -59 -28.5 -101t-75.5 -86t-70 -85zM254 1460h166q33 -113 178 -112q150 0 182 112h162q-14 -125 -105.5 -211t-242.5 -86q-156 0 -242 82t-98 215z" />
    <glyph glyph-name="uni1EB4" unicode="&#x1eb4;" horiz-adv-x="1490" 
d="M537 1434h417l549 -1434h-416l-71 215h-539l-71 -215h-418zM932 2193l170 -36q-6 -268 -207 -269q-72 0 -170 54q-72 39 -96 38q-59 0 -66 -100l-174 39q4 127 60.5 197.5t146.5 70.5q74 0 160 -49q82 -47 104 -47q31 0 48.5 22.5t23.5 79.5zM559 1841q35 -113 178 -112
q150 0 183 112h159q-12 -125 -103 -211t-243 -86q-156 0 -241.5 82t-98.5 215h166zM750 1008h-9l-166 -498h343z" />
    <glyph glyph-name="uni1EB5" unicode="&#x1eb5;" horiz-adv-x="1249" 
d="M70 293q0 150 114.5 243t345.5 93q137 0 250 -39q-6 70 -67.5 110.5t-169.5 40.5q-33 0 -67 -4t-64.5 -10t-59 -13t-51 -14.5t-39 -13.5t-26.5 -10l-11 -4l-96 284q23 12 62.5 28.5t155.5 45.5t220 29q297 0 428 -122t131 -390v-547h-165l-91 137h-6q-115 -168 -383 -168
q-182 0 -296.5 91.5t-114.5 232.5zM768 393q-74 33 -170 33q-88 0 -136 -32t-48 -77q0 -43 43 -69.5t121 -26.5q82 0 136 45t54 105v22zM412 1460q35 -113 178 -112q150 0 182 112h160q-12 -125 -103.5 -211t-242.5 -86q-156 0 -242 82t-98 215h166zM784 1812l170 -36
q-6 -268 -206 -269q-72 0 -170 54q-72 39 -97 38q-59 0 -65 -100l-174 39q4 127 60 197.5t147 70.5q74 0 159 -49q82 -47 105 -47q31 0 48 22.5t23 79.5z" />
    <glyph glyph-name="uni1EB6" unicode="&#x1eb6;" horiz-adv-x="1490" 
d="M537 1434h417l549 -1434h-416l-71 215h-539l-71 -215h-418zM889 1886h190q-2 -154 -86 -248t-245.5 -94t-245.5 94.5t-88 247.5h190q4 -63 43 -105t100.5 -42t99.5 42t42 105zM745.5 -532q-81.5 0 -142 61t-60.5 143t60.5 141.5t141.5 59.5q84 0 143.5 -59.5t59.5 -141.5
q0 -84 -60.5 -144t-142 -60zM750 1008h-9l-166 -498h343z" />
    <glyph glyph-name="uni1EB7" unicode="&#x1eb7;" horiz-adv-x="1249" 
d="M70 293q0 150 114.5 243t345.5 93q137 0 250 -39q-6 70 -67.5 110.5t-169.5 40.5q-33 0 -67 -4t-64.5 -10t-59 -13t-51 -14.5t-39 -13.5t-26.5 -10l-11 -4l-96 284q23 12 62.5 28.5t155.5 45.5t220 29q297 0 428 -122t131 -390v-547h-165l-91 137h-6q-115 -168 -383 -168
q-182 0 -296.5 91.5t-114.5 232.5zM768 393q-74 33 -170 33q-88 0 -136 -32t-48 -77q0 -43 43 -69.5t121 -26.5q82 0 136 45t54 105v22zM741 1518h191q-2 -154 -86 -248t-246 -94t-246 94t-88 248h191q4 -63 43 -105.5t100.5 -42.5t99 42.5t41.5 105.5zM598 -532
q-82 0 -142.5 61t-60.5 143t60.5 141.5t142.5 59.5q84 0 143.5 -59.5t59.5 -141.5q0 -84 -60.5 -144t-142.5 -60z" />
    <glyph glyph-name="uni1EB8" unicode="&#x1eb8;" horiz-adv-x="1378" 
d="M494 545v-211h809v-334h-1176v1434h1159v-334h-792v-256h729v-299h-729zM715 -532q-82 0 -142.5 61t-60.5 143t60.5 141.5t142.5 59.5q84 0 143.5 -59.5t59.5 -141.5q0 -84 -60.5 -144t-142.5 -60z" />
    <glyph glyph-name="uni1EB9" unicode="&#x1eb9;" horiz-adv-x="1234" 
d="M625 1059q250 0 397 -149.5t147 -395.5q0 -55 -6 -98h-725q66 -123 279 -123q180 0 319 72l64 -304q-158 -92 -385 -92q-301 0 -475 151.5t-174 393.5q0 240 156.5 392.5t402.5 152.5zM428 602h393q-2 63 -57 98t-137 35q-156 0 -199 -133zM616.5 -532q-81.5 0 -142 61
t-60.5 143t60.5 141.5t141.5 59.5q84 0 143.5 -59.5t59.5 -141.5q0 -84 -60.5 -144t-142 -60z" />
    <glyph glyph-name="uni1EBA" unicode="&#x1eba;" horiz-adv-x="1378" 
d="M494 545v-211h809v-334h-1176v1434h1159v-334h-792v-256h729v-299h-729zM737 1565l-151 45q16 49 65 97t49 85q0 31 -19 50.5t-48 19.5q-55 0 -105 -80l-106 65q92 178 272 178q90 0 153.5 -56t63.5 -132q0 -59 -28.5 -101t-75.5 -86t-70 -85z" />
    <glyph glyph-name="uni1EBB" unicode="&#x1ebb;" horiz-adv-x="1234" 
d="M625 1059q250 0 397 -149.5t147 -395.5q0 -55 -6 -98h-725q66 -123 279 -123q180 0 319 72l64 -304q-158 -92 -385 -92q-301 0 -475 151.5t-174 393.5q0 240 156.5 392.5t402.5 152.5zM428 602h393q-2 63 -57 98t-137 35q-156 0 -199 -133zM688 1186l-151 45q16 49 65 97
t49 85q0 31 -19.5 50.5t-47.5 19.5q-55 0 -105 -80l-106 65q92 178 272 179q90 0 153.5 -56.5t63.5 -132.5q0 -59 -28.5 -101t-75.5 -86t-70 -85z" />
    <glyph glyph-name="uni1EBC" unicode="&#x1ebc;" horiz-adv-x="1378" 
d="M494 545v-211h809v-334h-1176v1434h1159v-334h-792v-256h729v-299h-729zM901 1917l170 -35q-6 -268 -207 -268q-72 0 -170 53q-72 39 -96 39q-59 0 -66 -100l-174 39q4 127 60.5 197.5t146.5 70.5q70 0 160 -51q86 -45 104 -45q62 0 72 100z" />
    <glyph glyph-name="uni1EBD" unicode="&#x1ebd;" horiz-adv-x="1234" 
d="M625 1059q250 0 397 -149.5t147 -395.5q0 -55 -6 -98h-725q66 -123 279 -123q180 0 319 72l64 -304q-158 -92 -385 -92q-301 0 -475 151.5t-174 393.5q0 240 156.5 392.5t402.5 152.5zM428 602h393q-2 63 -57 98t-137 35q-156 0 -199 -133zM803 1513l170 -34
q-6 -268 -207 -269q-72 0 -170 54q-72 39 -96 39q-59 0 -66 -101l-174 39q4 127 60.5 197.5t146.5 70.5q70 0 160 -51q86 -45 104 -45q62 0 72 100z" />
    <glyph glyph-name="uni1EBE" unicode="&#x1ebe;" horiz-adv-x="1517" 
d="M494 545v-211h809v-334h-1176v1434h1159v-334h-792v-256h729v-299h-729zM1126 2075h316l-324 -275h-174zM594 1876h252l221 -295h-238l-108 152h-4l-107 -152h-233z" />
    <glyph glyph-name="uni1EBF" unicode="&#x1ebf;" horiz-adv-x="1415" 
d="M625 1059q250 0 397 -149.5t147 -395.5q0 -55 -6 -98h-725q66 -123 279 -123q180 0 319 72l64 -304q-158 -92 -385 -92q-301 0 -475 151.5t-174 393.5q0 240 156.5 392.5t402.5 152.5zM428 602h393q-2 63 -57 98t-137 35q-156 0 -199 -133zM1034 1694h316l-324 -275h-174
zM502 1495h252l221 -295h-238l-108 152h-4l-107 -152h-233z" />
    <glyph glyph-name="uni1EC0" unicode="&#x1ec0;" horiz-adv-x="1378" 
d="M494 545v-211h809v-334h-1176v1434h1159v-334h-792v-256h729v-299h-729zM799 2040h315l160 -273h-195zM594 1876h254l217 -295h-236l-106 152h-4l-107 -152h-235z" />
    <glyph glyph-name="uni1EC1" unicode="&#x1ec1;" horiz-adv-x="1241" 
d="M625 1059q250 0 397 -149.5t147 -395.5q0 -55 -6 -98h-725q66 -123 279 -123q180 0 319 72l64 -304q-158 -92 -385 -92q-301 0 -475 151.5t-174 393.5q0 240 156.5 392.5t402.5 152.5zM428 602h393q-2 63 -57 98t-137 35q-156 0 -199 -133zM700 1659h316l160 -273h-195z
M496 1495h254l217 -295h-236l-106 152h-4l-107 -152h-235z" />
    <glyph glyph-name="uni1EC2" unicode="&#x1ec2;" horiz-adv-x="1415" 
d="M494 545v-211h809v-334h-1176v1434h1159v-334h-792v-256h729v-299h-729zM592 1878h256l217 -295h-236l-106 152h-4l-107 -152h-233zM1167 1698l-141 33q16 49 67.5 105t51.5 95q0 31 -20.5 51.5t-51.5 20.5q-66 0 -110 -86l-107 65q43 84 105 125q70 51 165 52
q92 0 152.5 -54.5t60.5 -136.5q0 -76 -61 -137q-6 -8 -26.5 -27.5t-32 -32t-27 -33t-25.5 -40.5z" />
    <glyph glyph-name="uni1EC3" unicode="&#x1ec3;" horiz-adv-x="1302" 
d="M625 1059q250 0 397 -149.5t147 -395.5q0 -55 -6 -98h-725q66 -123 279 -123q180 0 319 72l64 -304q-158 -92 -385 -92q-301 0 -475 151.5t-174 393.5q0 240 156.5 392.5t402.5 152.5zM428 602h393q-2 63 -57 98t-137 35q-156 0 -199 -133zM489 1495h256l218 -295h-236
l-106 152h-5l-106 -152h-234zM1065 1315l-141 33q16 49 67 105t51 95q0 31 -20.5 51.5t-50.5 20.5q-66 0 -111 -86l-106 65q43 84 104 125q70 51 166 52q92 0 152.5 -54.5t60.5 -136.5q0 -76 -61 -137q-6 -8 -27 -27.5t-32 -32t-26.5 -33t-25.5 -40.5z" />
    <glyph glyph-name="uni1EC4" unicode="&#x1ec4;" horiz-adv-x="1378" 
d="M494 545v-211h809v-334h-1176v1434h1159v-334h-792v-256h729v-299h-729zM854 1878l217 -295h-235l-107 152h-4l-107 -152h-233l213 295h256zM899 2224l170 -35q-2 -137 -56.5 -202.5t-148.5 -65.5q-70 0 -172 53q-74 39 -94 39q-27 0 -45 -26.5t-21 -73.5l-174 39
q4 127 60.5 197.5t144.5 70.5q70 0 160 -51q82 -45 106 -45q62 0 70 100z" />
    <glyph glyph-name="uni1EC5" unicode="&#x1ec5;" horiz-adv-x="1234" 
d="M625 1059q250 0 397 -149.5t147 -395.5q0 -55 -6 -98h-725q66 -123 279 -123q180 0 319 72l64 -304q-158 -92 -385 -92q-301 0 -475 151.5t-174 393.5q0 240 156.5 392.5t402.5 152.5zM428 602h393q-2 63 -57 98t-137 35q-156 0 -199 -133zM745 1495l218 -295h-236
l-106 152h-5l-106 -152h-234l213 295h256zM791 1841l170 -35q-2 -137 -56.5 -202.5t-148.5 -65.5q-70 0 -172 53q-74 39 -95 39q-27 0 -45 -26.5t-20 -73.5l-174 39q4 127 60.5 197.5t144.5 70.5q70 0 159 -51q82 -45 107 -45q62 0 70 100z" />
    <glyph glyph-name="uni1EC6" unicode="&#x1ec6;" horiz-adv-x="1378" 
d="M494 545v-211h809v-334h-1176v1434h1159v-334h-792v-256h729v-299h-729zM594 1909h248l248 -365h-238l-133 189h-4l-131 -189h-242zM715 -532q-82 0 -142.5 61t-60.5 143t60.5 141.5t142.5 59.5q84 0 143.5 -59.5t59.5 -141.5q0 -84 -60.5 -144t-142.5 -60z" />
    <glyph glyph-name="uni1EC7" unicode="&#x1ec7;" horiz-adv-x="1234" 
d="M625 1059q250 0 397 -149.5t147 -395.5q0 -55 -6 -98h-725q66 -123 279 -123q180 0 319 72l64 -304q-158 -92 -385 -92q-301 0 -475 151.5t-174 393.5q0 240 156.5 392.5t402.5 152.5zM428 602h393q-2 63 -57 98t-137 35q-156 0 -199 -133zM496 1540h247l248 -364h-237
l-133 188h-5l-131 -188h-241zM616.5 -532q-81.5 0 -142 61t-60.5 143t60.5 141.5t141.5 59.5q84 0 143.5 -59.5t59.5 -141.5q0 -84 -60.5 -144t-142 -60z" />
    <glyph glyph-name="uni1EC8" unicode="&#x1ec8;" horiz-adv-x="507" 
d="M68 0v1434h366v-1434h-366zM324 1565l-152 45q16 49 65.5 97t49.5 85q0 31 -19.5 50.5t-48.5 19.5q-55 0 -104 -80l-107 65q92 178 273 178q90 0 153.5 -56t63.5 -132q0 -59 -29 -101t-75.5 -86t-69.5 -85z" />
    <glyph glyph-name="uni1EC9" unicode="&#x1ec9;" horiz-adv-x="505" 
d="M324 1186l-152 45q16 49 65.5 97t49.5 85q0 31 -19.5 50.5t-48.5 19.5q-55 0 -104 -80l-107 65q92 178 273 179q90 0 153.5 -56.5t63.5 -132.5q0 -59 -29 -101t-75.5 -86t-69.5 -85zM80 0v1030h346v-1030h-346z" />
    <glyph glyph-name="uni1ECA" unicode="&#x1eca;" horiz-adv-x="659" 
d="M147 0v1434h367v-1434h-367zM330 -532q-82 0 -142.5 61t-60.5 143t60.5 141.5t142.5 59.5q84 0 143 -59.5t59 -141.5q0 -84 -60 -144t-142 -60z" />
    <glyph glyph-name="uni1ECB" unicode="&#x1ecb;" horiz-adv-x="643" 
d="M150 0v1030h346v-1030h-346zM321.5 1571q90.5 0 150.5 -61.5t60 -149.5t-60 -149.5t-150.5 -61.5t-150.5 61.5t-60 149.5t60 149.5t150.5 61.5zM321.5 -532q-81.5 0 -142 61t-60.5 143t60.5 141.5t142.5 59.5q84 0 143 -59.5t59 -141.5q0 -84 -60.5 -144t-142 -60z" />
    <glyph glyph-name="uni1ECC" unicode="&#x1ecc;" horiz-adv-x="1622" 
d="M811 1464q319 0 527 -211t208 -536.5t-208 -536.5t-527 -211t-527 211t-208 536.5t208 536.5t527 211zM811 305q162 0 265.5 116t103.5 296t-103.5 295.5t-265.5 115.5t-264.5 -115.5t-102.5 -295.5t102.5 -296t264.5 -116zM811 -532q-82 0 -142.5 61t-60.5 143
t60.5 141.5t142.5 59.5q84 0 143.5 -59.5t59.5 -141.5q0 -84 -60.5 -144t-142.5 -60z" />
    <glyph glyph-name="uni1ECD" unicode="&#x1ecd;" horiz-adv-x="1273" 
d="M637 1059q248 0 409.5 -153.5t161.5 -391.5t-161.5 -391.5t-409.5 -153.5q-248 2 -409.5 156t-161.5 391.5t161.5 391t409.5 151.5zM637 293q96 0 157.5 62.5t61.5 158.5t-61.5 158.5t-157.5 62.5q-94 2 -156.5 -60.5t-62.5 -158.5t62.5 -159.5t156.5 -63.5zM637 -532
q-82 0 -142.5 61t-60.5 143t60.5 141.5t142.5 59.5q84 0 143.5 -59.5t59.5 -141.5q0 -84 -60.5 -144t-142.5 -60z" />
    <glyph glyph-name="uni1ECE" unicode="&#x1ece;" horiz-adv-x="1622" 
d="M811 1464q319 0 527 -211t208 -536.5t-208 -536.5t-527 -211t-527 211t-208 536.5t208 536.5t527 211zM811 305q162 0 265.5 116t103.5 296t-103.5 295.5t-265.5 115.5t-264.5 -115.5t-102.5 -295.5t102.5 -296t264.5 -116zM823 1565l-151 45q16 49 65 97t49 85
q0 31 -19 50.5t-48 19.5q-55 0 -105 -80l-106 65q92 178 272 178q90 0 153.5 -56t63.5 -132q0 -59 -28.5 -101t-75.5 -86t-70 -85z" />
    <glyph glyph-name="uni1ECF" unicode="&#x1ecf;" horiz-adv-x="1273" 
d="M637 1059q248 0 409.5 -153.5t161.5 -391.5t-161.5 -391.5t-409.5 -153.5q-248 2 -409.5 156t-161.5 391.5t161.5 391t409.5 151.5zM637 293q96 0 157.5 62.5t61.5 158.5t-61.5 158.5t-157.5 62.5q-94 2 -156.5 -60.5t-62.5 -158.5t62.5 -159.5t156.5 -63.5zM709 1186
l-152 45q16 49 65.5 97t49.5 85q0 31 -19.5 50.5t-48.5 19.5q-55 0 -104 -80l-107 65q92 178 273 179q90 0 153.5 -56.5t63.5 -132.5q0 -59 -29 -101t-75.5 -86t-69.5 -85z" />
    <glyph glyph-name="uni1ED0" unicode="&#x1ed0;" horiz-adv-x="1622" 
d="M811 1464q319 0 527 -211t208 -536.5t-208 -536.5t-527 -211t-527 211t-208 536.5t208 536.5t527 211zM811 305q162 0 265.5 116t103.5 296t-103.5 295.5t-265.5 115.5t-264.5 -115.5t-102.5 -295.5t102.5 -296t264.5 -116zM1217 2075h315l-324 -275h-174zM684 1876h252
l221 -295h-237l-109 152h-4l-107 -152h-233z" />
    <glyph glyph-name="uni1ED1" unicode="&#x1ed1;" horiz-adv-x="1415" 
d="M637 1059q248 0 409.5 -153.5t161.5 -391.5t-161.5 -391.5t-409.5 -153.5q-248 2 -409.5 156t-161.5 391.5t161.5 391t409.5 151.5zM637 293q96 0 157.5 62.5t61.5 158.5t-61.5 158.5t-157.5 62.5q-94 2 -156.5 -60.5t-62.5 -158.5t62.5 -159.5t156.5 -63.5zM1034 1694
h316l-324 -275h-174zM502 1495h252l221 -295h-238l-108 152h-4l-107 -152h-233z" />
    <glyph glyph-name="uni1ED2" unicode="&#x1ed2;" horiz-adv-x="1622" 
d="M811 1464q319 0 527 -211t208 -536.5t-208 -536.5t-527 -211t-527 211t-208 536.5t208 536.5t527 211zM811 305q162 0 265.5 116t103.5 296t-103.5 295.5t-265.5 115.5t-264.5 -115.5t-102.5 -295.5t102.5 -296t264.5 -116zM899 2040h315l160 -273h-194zM694 1876h254
l217 -295h-235l-107 152h-4l-106 -152h-236z" />
    <glyph glyph-name="uni1ED3" unicode="&#x1ed3;" horiz-adv-x="1273" 
d="M637 1059q248 0 409.5 -153.5t161.5 -391.5t-161.5 -391.5t-409.5 -153.5q-248 2 -409.5 156t-161.5 391.5t161.5 391t409.5 151.5zM637 293q96 0 157.5 62.5t61.5 158.5t-61.5 158.5t-157.5 62.5q-94 2 -156.5 -60.5t-62.5 -158.5t62.5 -159.5t156.5 -63.5zM719 1659
h315l160 -273h-195zM514 1495h254l217 -295h-235l-107 152h-4l-107 -152h-235z" />
    <glyph glyph-name="uni1ED4" unicode="&#x1ed4;" horiz-adv-x="1622" 
d="M811 1464q319 0 527 -211t208 -536.5t-208 -536.5t-527 -211t-527 211t-208 536.5t208 536.5t527 211zM811 305q162 0 265.5 116t103.5 296t-103.5 295.5t-265.5 115.5t-264.5 -115.5t-102.5 -295.5t102.5 -296t264.5 -116zM678 1876h256l217 -295h-236l-106 152h-4
l-107 -152h-233zM1253 1696l-141 33q16 49 67.5 105t51.5 95q0 31 -20.5 51.5t-51.5 20.5q-66 0 -110 -86l-107 65q43 84 105 125q70 51 165 52q92 0 152.5 -54.5t60.5 -136.5q0 -76 -61 -137q-6 -8 -26.5 -27.5t-32 -32t-27 -33t-25.5 -40.5z" />
    <glyph glyph-name="uni1ED5" unicode="&#x1ed5;" horiz-adv-x="1316" 
d="M637 1059q248 0 409.5 -153.5t161.5 -391.5t-161.5 -391.5t-409.5 -153.5q-248 2 -409.5 156t-161.5 391.5t161.5 391t409.5 151.5zM637 293q96 0 157.5 62.5t61.5 158.5t-61.5 158.5t-157.5 62.5q-94 2 -156.5 -60.5t-62.5 -158.5t62.5 -159.5t156.5 -63.5zM504 1495
h256l217 -295h-236l-106 152h-4l-107 -152h-233zM1079 1315l-141 33q16 49 67.5 105t51.5 95q0 31 -20.5 51.5t-51.5 20.5q-66 0 -111 -86l-106 65q43 84 104 125q70 51 166 52q92 0 152.5 -54.5t60.5 -136.5q0 -76 -61 -137q-6 -8 -26.5 -27.5t-32 -32t-27 -33t-25.5 -40.5
z" />
    <glyph glyph-name="uni1ED6" unicode="&#x1ed6;" horiz-adv-x="1622" 
d="M811 1464q319 0 527 -211t208 -536.5t-208 -536.5t-527 -211t-527 211t-208 536.5t208 536.5t527 211zM811 305q162 0 265.5 116t103.5 296t-103.5 295.5t-265.5 115.5t-264.5 -115.5t-102.5 -295.5t102.5 -296t264.5 -116zM940 1876l217 -295h-235l-107 152h-4
l-106 -152h-234l213 295h256zM985 2222l170 -35q-2 -137 -56.5 -202.5t-148.5 -65.5q-70 0 -172 53q-74 39 -94 39q-27 0 -45 -26.5t-21 -73.5l-174 39q4 127 60.5 197.5t144.5 70.5q70 0 160 -51q82 -45 106 -45q62 0 70 100z" />
    <glyph glyph-name="uni1ED7" unicode="&#x1ed7;" horiz-adv-x="1273" 
d="M637 1059q248 0 409.5 -153.5t161.5 -391.5t-161.5 -391.5t-409.5 -153.5q-248 2 -409.5 156t-161.5 391.5t161.5 391t409.5 151.5zM637 293q96 0 157.5 62.5t61.5 158.5t-61.5 158.5t-157.5 62.5q-94 2 -156.5 -60.5t-62.5 -158.5t62.5 -159.5t156.5 -63.5zM776 1495
l217 -295h-235l-107 152h-4l-106 -152h-234l213 295h256zM821 1841l170 -35q-2 -137 -56 -202.5t-149 -65.5q-70 0 -172 53q-74 39 -94 39q-27 0 -45 -26.5t-20 -73.5l-174 39q4 127 60 197.5t144 70.5q70 0 160 -51q82 -45 107 -45q61 0 69 100z" />
    <glyph glyph-name="uni1ED8" unicode="&#x1ed8;" horiz-adv-x="1613" 
d="M811 1464q319 0 527 -211t208 -536.5t-208 -536.5t-527 -211t-527 211t-208 536.5t208 536.5t527 211zM811 305q162 0 265.5 116t103.5 296t-103.5 295.5t-265.5 115.5t-264.5 -115.5t-102.5 -295.5t102.5 -296t264.5 -116zM690 1909h248l248 -365h-238l-133 189h-4
l-131 -189h-242zM811 -532q-82 0 -142.5 61t-60.5 143t60.5 141.5t142.5 59.5q84 0 143.5 -59.5t59.5 -141.5q0 -84 -60.5 -144t-142.5 -60z" />
    <glyph glyph-name="uni1ED9" unicode="&#x1ed9;" horiz-adv-x="1273" 
d="M637 1059q248 0 409.5 -153.5t161.5 -391.5t-161.5 -391.5t-409.5 -153.5q-248 2 -409.5 156t-161.5 391.5t161.5 391t409.5 151.5zM637 293q96 0 157.5 62.5t61.5 158.5t-61.5 158.5t-157.5 62.5q-94 2 -156.5 -60.5t-62.5 -158.5t62.5 -159.5t156.5 -63.5zM516 1540
h248l248 -364h-238l-133 188h-4l-131 -188h-242zM637 -532q-82 0 -142.5 61t-60.5 143t60.5 141.5t142.5 59.5q84 0 143.5 -59.5t59.5 -141.5q0 -84 -60.5 -144t-142.5 -60z" />
    <glyph glyph-name="uni1EDA" unicode="&#x1eda;" horiz-adv-x="1902" 
d="M1540 1565h295v-166q0 -328 -326 -365q70 -152 70 -317q0 -330 -212 -539t-539.5 -209t-539.5 208t-212 540t212 539.5t539 207.5q358 0 574 -254q78 8 108.5 57.5t30.5 147.5v150zM827.5 311q165.5 0 270 112t104.5 294t-103.5 293.5t-271.5 111.5t-271 -111.5
t-103 -293.5t104.5 -294t270 -112zM946 1944h346l-295 -365h-258z" />
    <glyph glyph-name="uni1EDB" unicode="&#x1edb;" horiz-adv-x="1499" 
d="M1139 1036v144h295v-160q0 -287 -246 -350q20 -70 20 -156q0 -238 -161.5 -391.5t-409.5 -153.5t-409.5 153.5t-161.5 391.5t162.5 391.5t410.5 153.5q285 0 448 -197q52 37 52 174zM637 293q96 0 157.5 62.5t61.5 158.5q2 96 -60.5 158.5t-158.5 62.5
q-94 0 -156.5 -62.5t-62.5 -158.5t61.5 -158.5t157.5 -62.5zM713 1540h346l-295 -364h-258z" />
    <glyph glyph-name="uni1EDC" unicode="&#x1edc;" horiz-adv-x="1902" 
d="M1540 1565h295v-166q0 -328 -326 -365q70 -152 70 -317q0 -330 -212 -539t-539.5 -209t-539.5 208t-212 540t212 539.5t539 207.5q358 0 574 -254q78 8 108.5 57.5t30.5 147.5v150zM827.5 311q165.5 0 270 112t104.5 294t-103.5 293.5t-271.5 111.5t-271 -111.5
t-103 -293.5t104.5 -294t270 -112zM408 1944h342l208 -365h-258z" />
    <glyph glyph-name="uni1EDD" unicode="&#x1edd;" horiz-adv-x="1499" 
d="M1139 1036v144h295v-160q0 -287 -246 -350q20 -70 20 -156q0 -238 -161.5 -391.5t-409.5 -153.5t-409.5 153.5t-161.5 391.5t162.5 391.5t410.5 153.5q285 0 448 -197q52 37 52 174zM637 293q96 0 157.5 62.5t61.5 158.5q2 96 -60.5 158.5t-158.5 62.5
q-94 0 -156.5 -62.5t-62.5 -158.5t61.5 -158.5t157.5 -62.5zM168 1540h342l209 -364h-258z" />
    <glyph glyph-name="uni1EDE" unicode="&#x1ede;" horiz-adv-x="1902" 
d="M1540 1565h295v-166q0 -328 -326 -365q70 -152 70 -317q0 -330 -212 -539t-539.5 -209t-539.5 208t-212 540t212 539.5t539 207.5q358 0 574 -254q78 8 108.5 57.5t30.5 147.5v150zM827.5 311q165.5 0 270 112t104.5 294t-103.5 293.5t-271.5 111.5t-271 -111.5
t-103 -293.5t104.5 -294t270 -112zM889 1565l-152 45q16 49 65.5 97t49.5 85q0 31 -19.5 50.5t-48.5 19.5q-55 0 -104 -80l-107 65q92 178 273 178q90 0 153.5 -56t63.5 -132q0 -59 -28.5 -101t-75.5 -86t-70 -85z" />
    <glyph glyph-name="uni1EDF" unicode="&#x1edf;" horiz-adv-x="1499" 
d="M1139 1036v144h295v-160q0 -287 -246 -350q20 -70 20 -156q0 -238 -161.5 -391.5t-409.5 -153.5t-409.5 153.5t-161.5 391.5t162.5 391.5t410.5 153.5q285 0 448 -197q52 37 52 174zM637 293q96 0 157.5 62.5t61.5 158.5q2 96 -60.5 158.5t-158.5 62.5
q-94 0 -156.5 -62.5t-62.5 -158.5t61.5 -158.5t157.5 -62.5zM674 1186l-152 45q16 49 65.5 97t49.5 85q0 31 -19.5 50.5t-48.5 19.5q-55 0 -104 -80l-107 65q92 178 273 179q90 0 153.5 -56.5t63.5 -132.5q0 -59 -28.5 -101t-75.5 -86t-70 -85z" />
    <glyph glyph-name="uni1EE0" unicode="&#x1ee0;" horiz-adv-x="1902" 
d="M1540 1565h295v-166q0 -328 -326 -365q70 -152 70 -317q0 -330 -212 -539t-539.5 -209t-539.5 208t-212 540t212 539.5t539 207.5q358 0 574 -254q78 8 108.5 57.5t30.5 147.5v150zM827.5 311q165.5 0 270 112t104.5 294t-103.5 293.5t-271.5 111.5t-271 -111.5
t-103 -293.5t104.5 -294t270 -112zM1022 1917l170 -35q-6 -268 -207 -268q-72 0 -170 53q-72 39 -96 39q-59 0 -66 -100l-174 39q4 127 60.5 197.5t146.5 70.5q70 0 160 -51q86 -45 104 -45q62 0 72 100z" />
    <glyph glyph-name="uni1EE1" unicode="&#x1ee1;" horiz-adv-x="1499" 
d="M1139 1036v144h295v-160q0 -287 -246 -350q20 -70 20 -156q0 -238 -161.5 -391.5t-409.5 -153.5t-409.5 153.5t-161.5 391.5t162.5 391.5t410.5 153.5q285 0 448 -197q52 37 52 174zM637 293q96 0 157.5 62.5t61.5 158.5q2 96 -60.5 158.5t-158.5 62.5
q-94 0 -156.5 -62.5t-62.5 -158.5t61.5 -158.5t157.5 -62.5zM811 1513l170 -34q-6 -268 -207 -269q-72 0 -170 54q-72 39 -96 39q-59 0 -66 -101l-174 39q4 127 60.5 197.5t146.5 70.5q70 0 160 -51q86 -45 104 -45q62 0 72 100z" />
    <glyph glyph-name="uni1EE2" unicode="&#x1ee2;" horiz-adv-x="1902" 
d="M1540 1565h295v-166q0 -328 -326 -365q70 -152 70 -317q0 -330 -212 -539t-539.5 -209t-539.5 208t-212 540t212 539.5t539 207.5q358 0 574 -254q78 8 108.5 57.5t30.5 147.5v150zM827.5 311q165.5 0 270 112t104.5 294t-103.5 293.5t-271.5 111.5t-271 -111.5
t-103 -293.5t104.5 -294t270 -112zM831.5 -532q-81.5 0 -142 61t-60.5 143t60.5 141.5t141.5 59.5q84 0 143.5 -59.5t59.5 -141.5q0 -84 -60.5 -144t-142 -60z" />
    <glyph glyph-name="uni1EE3" unicode="&#x1ee3;" horiz-adv-x="1499" 
d="M1139 1036v144h295v-160q0 -287 -246 -350q20 -70 20 -156q0 -238 -161.5 -391.5t-409.5 -153.5t-409.5 153.5t-161.5 391.5t162.5 391.5t410.5 153.5q285 0 448 -197q52 37 52 174zM637 293q96 0 157.5 62.5t61.5 158.5q2 96 -60.5 158.5t-158.5 62.5
q-94 0 -156.5 -62.5t-62.5 -158.5t61.5 -158.5t157.5 -62.5zM653 -532q-82 0 -142 61t-60 143t60 141.5t142 59.5q84 0 143.5 -59.5t59.5 -141.5q0 -84 -60.5 -144t-142.5 -60z" />
    <glyph glyph-name="uni1EE4" unicode="&#x1ee4;" horiz-adv-x="1509" 
d="M755.5 -31q-272.5 0 -450.5 155t-178 392v918h367v-918q0 -92 73.5 -151.5t188 -59.5t187.5 59.5t73 151.5v918h366v-918q0 -238 -177 -392.5t-449.5 -154.5zM754 -532q-82 0 -142.5 61t-60.5 143t60.5 141.5t142.5 59.5q84 0 143 -59.5t59 -141.5q0 -84 -60 -144
t-142 -60z" />
    <glyph glyph-name="uni1EE5" unicode="&#x1ee5;" horiz-adv-x="1368" 
d="M899 504v526h346v-1030h-186l-107 184h-8q-133 -215 -377 -215q-197 0 -320.5 147.5t-121.5 377.5v536h346l-2 -524q0 -92 62.5 -151.5t154.5 -59.5q92 -2 151.5 57.5t61.5 151.5zM684 -532q-82 0 -142.5 61t-60.5 143t60.5 141.5t142.5 59.5q84 0 143.5 -59.5
t59.5 -141.5q0 -84 -60.5 -144t-142.5 -60z" />
    <glyph glyph-name="uni1EE6" unicode="&#x1ee6;" horiz-adv-x="1509" 
d="M755.5 -31q-272.5 0 -450.5 155t-178 392v918h367v-918q0 -92 73.5 -151.5t188 -59.5t187.5 59.5t73 151.5v918h366v-918q0 -238 -177 -392.5t-449.5 -154.5zM772 1565l-151 45q16 49 65 97t49 85q0 31 -19.5 50.5t-47.5 19.5q-55 0 -105 -80l-106 65q92 178 272 178
q90 0 153.5 -56t63.5 -132q0 -59 -28.5 -101t-75.5 -86t-70 -85z" />
    <glyph glyph-name="uni1EE7" unicode="&#x1ee7;" horiz-adv-x="1368" 
d="M899 504v526h346v-1030h-186l-107 184h-8q-133 -215 -377 -215q-197 0 -320.5 147.5t-121.5 377.5v536h346l-2 -524q0 -92 62.5 -151.5t154.5 -59.5q92 -2 151.5 57.5t61.5 151.5zM756 1186l-152 45q16 49 65.5 97t49.5 85q0 31 -19.5 50.5t-48.5 19.5q-55 0 -104 -80
l-107 65q92 178 273 179q90 0 153.5 -56.5t63.5 -132.5q0 -59 -29 -101t-75.5 -86t-69.5 -85z" />
    <glyph glyph-name="uni1EE8" unicode="&#x1ee8;" horiz-adv-x="1683" 
d="M1798 1567v-137q0 -373 -416 -369v-545q0 -240 -178 -393.5t-448 -153.5q-272 0 -450.5 153.5t-178.5 393.5v918h367v-918q0 -94 72.5 -153.5t189.5 -59.5q115 0 187.5 59.5t72.5 153.5v918h366v-189q74 12 97.5 56.5t23.5 144.5v121h295zM848 1944h346l-295 -365h-258z
" />
    <glyph glyph-name="uni1EE9" unicode="&#x1ee9;" horiz-adv-x="1568" 
d="M1352 1151h295v-160q0 -365 -404 -368v-623h-184l-109 184h-6q-61 -100 -159.5 -156.5t-217.5 -56.5q-197 0 -320.5 146.5t-123.5 376.5v536h346v-524q0 -92 61.5 -151.5t155.5 -61.5q90 0 150.5 59.5t60.5 149.5v528h346v-221q68 14 88.5 58t20.5 141v143zM752 1540h346
l-295 -364h-258z" />
    <glyph glyph-name="uni1EEA" unicode="&#x1eea;" horiz-adv-x="1683" 
d="M1798 1567v-137q0 -373 -416 -369v-545q0 -240 -178 -393.5t-448 -153.5q-272 0 -450.5 153.5t-178.5 393.5v918h367v-918q0 -94 72.5 -153.5t189.5 -59.5q115 0 187.5 59.5t72.5 153.5v918h366v-189q74 12 97.5 56.5t23.5 144.5v121h295zM369 1944h342l209 -365h-258z
" />
    <glyph glyph-name="uni1EEB" unicode="&#x1eeb;" horiz-adv-x="1568" 
d="M1352 1151h295v-160q0 -365 -404 -368v-623h-184l-109 184h-6q-61 -100 -159.5 -156.5t-217.5 -56.5q-197 0 -320.5 146.5t-123.5 376.5v536h346v-524q0 -92 61.5 -151.5t155.5 -61.5q90 0 150.5 59.5t60.5 149.5v528h346v-221q68 14 88.5 58t20.5 141v143zM291 1540h342
l209 -364h-258z" />
    <glyph glyph-name="uni1EEC" unicode="&#x1eec;" horiz-adv-x="1683" 
d="M1798 1567v-137q0 -373 -416 -369v-545q0 -240 -178 -393.5t-448 -153.5q-272 0 -450.5 153.5t-178.5 393.5v918h367v-918q0 -94 72.5 -153.5t189.5 -59.5q115 0 187.5 59.5t72.5 153.5v918h366v-189q74 12 97.5 56.5t23.5 144.5v121h295zM834 1565l-152 45
q16 49 65.5 97t49.5 85q0 31 -19.5 50.5t-48.5 19.5q-55 0 -104 -80l-107 65q92 178 273 178q90 0 153.5 -56t63.5 -132q0 -59 -29 -101t-75.5 -86t-69.5 -85z" />
    <glyph glyph-name="uni1EED" unicode="&#x1eed;" horiz-adv-x="1568" 
d="M1352 1151h295v-160q0 -365 -404 -368v-623h-184l-109 184h-6q-61 -100 -159.5 -156.5t-217.5 -56.5q-197 0 -320.5 146.5t-123.5 376.5v536h346v-524q0 -92 61.5 -151.5t155.5 -61.5q90 0 150.5 59.5t60.5 149.5v528h346v-221q68 14 88.5 58t20.5 141v143zM739 1186
l-151 45q16 49 65 97t49 85q0 31 -19 50.5t-48 19.5q-55 0 -105 -80l-106 65q92 178 272 179q90 0 153.5 -56.5t63.5 -132.5q0 -59 -28.5 -101t-75.5 -86t-70 -85z" />
    <glyph glyph-name="uni1EEE" unicode="&#x1eee;" horiz-adv-x="1683" 
d="M1798 1567v-137q0 -373 -416 -369v-545q0 -240 -178 -393.5t-448 -153.5q-272 0 -450.5 153.5t-178.5 393.5v918h367v-918q0 -94 72.5 -153.5t189.5 -59.5q115 0 187.5 59.5t72.5 153.5v918h366v-189q74 12 97.5 56.5t23.5 144.5v121h295zM956 1917l170 -35
q-6 -268 -206 -268q-72 0 -170 53q-72 39 -97 39q-59 0 -65 -100l-174 39q4 127 60 197.5t147 70.5q70 0 159 -51q86 -45 105 -45q61 0 71 100z" />
    <glyph glyph-name="uni1EEF" unicode="&#x1eef;" horiz-adv-x="1568" 
d="M1352 1151h295v-160q0 -365 -404 -368v-623h-184l-109 184h-6q-61 -100 -159.5 -156.5t-217.5 -56.5q-197 0 -320.5 146.5t-123.5 376.5v536h346v-524q0 -92 61.5 -151.5t155.5 -61.5q90 0 150.5 59.5t60.5 149.5v528h346v-221q68 14 88.5 58t20.5 141v143zM864 1513
l170 -34q-6 -268 -207 -269q-72 0 -170 54q-72 39 -96 39q-59 0 -65 -101l-174 39q4 127 60 197.5t146 70.5q70 0 160 -51q86 -45 105 -45q61 0 71 100z" />
    <glyph glyph-name="uni1EF0" unicode="&#x1ef0;" horiz-adv-x="1683" 
d="M1798 1567v-137q0 -373 -416 -369v-545q0 -240 -178 -393.5t-448 -153.5q-272 0 -450.5 153.5t-178.5 393.5v918h367v-918q0 -94 72.5 -153.5t189.5 -59.5q115 0 187.5 59.5t72.5 153.5v918h366v-189q74 12 97.5 56.5t23.5 144.5v121h295zM770 -532q-82 0 -142.5 61
t-60.5 143t60.5 141.5t142.5 59.5q84 0 143.5 -59.5t59.5 -141.5q0 -84 -60.5 -144t-142.5 -60z" />
    <glyph glyph-name="uni1EF1" unicode="&#x1ef1;" horiz-adv-x="1568" 
d="M1352 1151h295v-160q0 -365 -404 -368v-623h-184l-109 184h-6q-61 -100 -159.5 -156.5t-217.5 -56.5q-197 0 -320.5 146.5t-123.5 376.5v536h346v-524q0 -92 61.5 -151.5t155.5 -61.5q90 0 150.5 59.5t60.5 149.5v528h346v-221q68 14 88.5 58t20.5 141v143zM702.5 -532
q-81.5 0 -142 61t-60.5 143t60.5 141.5t141.5 59.5q84 0 143.5 -59.5t59.5 -141.5q0 -84 -60.5 -144t-142 -60z" />
    <glyph glyph-name="Ygrave" unicode="&#x1ef2;" horiz-adv-x="1357" 
d="M682 915l262 519h426l-508 -912v-522h-366v522l-508 912h426l262 -519h6zM276 1944h342l209 -365h-258z" />
    <glyph glyph-name="ygrave" unicode="&#x1ef3;" horiz-adv-x="1110" 
d="M793 1030h346l-387 -1118q-78 -227 -206 -313t-360 -86q-84 0 -153 18v319q78 -27 180 -26q131 0 186 90l-428 1116h367l229 -631h8zM180 1540h342l209 -364h-258z" />
    <glyph glyph-name="uni1EF4" unicode="&#x1ef4;" horiz-adv-x="1357" 
d="M682 915l262 519h426l-508 -912v-522h-366v522l-508 912h426l262 -519h6zM678 -532q-82 0 -142.5 61t-60.5 143t60.5 141.5t142.5 59.5q84 0 143.5 -59.5t59.5 -141.5q0 -84 -60.5 -144t-142.5 -60z" />
    <glyph glyph-name="uni1EF5" unicode="&#x1ef5;" horiz-adv-x="1171" 
d="M793 1030h346l-387 -1118q-78 -227 -206 -313t-360 -86q-84 0 -153 18v319q78 -27 180 -26q131 0 186 90l-428 1116h367l229 -631h8zM997 -532q-82 0 -142 61t-60 143t60 141.5t142 59.5q84 0 143.5 -59.5t59.5 -141.5q0 -84 -60.5 -144t-142.5 -60z" />
    <glyph glyph-name="uni1EF6" unicode="&#x1ef6;" horiz-adv-x="1357" 
d="M682 915l262 519h426l-508 -912v-522h-366v522l-508 912h426l262 -519h6zM758 1565l-152 45q16 49 65.5 97t49.5 85q0 31 -19.5 50.5t-48.5 19.5q-55 0 -104 -80l-107 65q92 178 273 178q90 0 153.5 -56t63.5 -132q0 -59 -29 -101t-75.5 -86t-69.5 -85z" />
    <glyph glyph-name="uni1EF7" unicode="&#x1ef7;" horiz-adv-x="1110" 
d="M793 1030h346l-387 -1118q-78 -227 -206 -313t-360 -86q-84 0 -153 18v319q78 -27 180 -26q131 0 186 90l-428 1116h367l229 -631h8zM614 1186l-151 45q16 49 65.5 97t49.5 85q0 31 -19.5 50.5t-48.5 19.5q-55 0 -104 -80l-107 65q92 178 272 179q90 0 153.5 -56.5
t63.5 -132.5q0 -59 -28.5 -101t-75.5 -86t-70 -85z" />
    <glyph glyph-name="uni1EF8" unicode="&#x1ef8;" horiz-adv-x="1357" 
d="M682 915l262 519h426l-508 -912v-522h-366v522l-508 912h426l262 -519h6zM864 1917l170 -35q-6 -268 -207 -268q-72 0 -170 53q-72 39 -96 39q-59 0 -65 -100l-174 39q4 127 60 197.5t146 70.5q70 0 160 -51q86 -45 105 -45q61 0 71 100z" />
    <glyph glyph-name="uni1EF9" unicode="&#x1ef9;" horiz-adv-x="1110" 
d="M793 1030h346l-387 -1118q-78 -227 -206 -313t-360 -86q-84 0 -153 18v319q78 -27 180 -26q131 0 186 90l-428 1116h367l229 -631h8zM741 1513l170 -34q-6 -268 -206 -269q-72 0 -170 54q-72 39 -97 39q-59 0 -65 -101l-174 39q4 127 60 197.5t147 70.5q70 0 159 -51
q86 -45 105 -45q61 0 71 100z" />
    <glyph glyph-name="endash" unicode="&#x2013;" horiz-adv-x="1210" 
d="M1192 891v-346h-1174v346h1174z" />
    <glyph glyph-name="emdash" unicode="&#x2014;" horiz-adv-x="1619" 
d="M1602 891v-346h-1584v346h1584z" />
    <glyph glyph-name="uni2015" unicode="&#x2015;" horiz-adv-x="1005" 
d="M987 891v-346h-969v346h969z" />
    <glyph glyph-name="quoteleft" unicode="&#x2018;" horiz-adv-x="573" 
d="M281 803q-92 0 -156 67.5t-64 182.5q0 129 66 241.5t180 192.5l137 -111q-55 -27 -110 -87t-74 -118q25 8 51 9q72 0 120 -49.5t48 -129.5q0 -82 -59 -140t-139 -58z" />
    <glyph glyph-name="quoteright" unicode="&#x2019;" horiz-adv-x="573" 
d="M274 1507q92 0 156 -67.5t64 -182.5q0 -129 -66 -241.5t-180 -192.5l-137 111q55 27 110 87t74 118q-25 -8 -51 -9q-72 0 -120 49.5t-48 129.5q0 82 59 140t139 58z" />
    <glyph glyph-name="quotesinglbase" unicode="&#x201a;" horiz-adv-x="573" 
d="M274 346q92 0 156 -67.5t64 -182.5q0 -129 -66 -241.5t-180 -192.5l-137 111q55 27 110 87t74 117q-25 -8 -51 -8q-72 0 -120 49.5t-48 128.5q0 82 59 140.5t139 58.5z" />
    <glyph glyph-name="quotedblleft" unicode="&#x201c;" horiz-adv-x="1038" 
d="M299 803q-92 0 -155.5 67.5t-63.5 182.5q0 129 65.5 241.5t180.5 192.5l137 -111q-55 -27 -110.5 -87t-73.5 -118q25 8 51 9q72 0 120 -49.5t48 -129.5q0 -82 -59.5 -140t-139.5 -58zM766 803q-92 0 -155.5 67.5t-63.5 182.5q0 129 65.5 241.5t180.5 192.5l137 -111
q-55 -27 -110.5 -87t-74.5 -118q25 8 52 9q72 0 120 -49.5t48 -129.5q0 -82 -59.5 -140t-139.5 -58z" />
    </font>
</defs>
</svg>
