<?xml version="1.0" standalone="no"?>
<!DOCTYPE svg PUBLIC "-//W3C//DTD SVG 1.1//EN" "http://www.w3.org/Graphics/SVG/1.1/DTD/svg11.dtd" >
<svg xmlns="http://www.w3.org/2000/svg" xmlns:xlink="http://www.w3.org/1999/xlink" version="1.1">
<metadata>
Created by FontForge 20170731 at Sun Feb 17 16:40:21 2019
 By Aleksey,,,
Copyright (c) 2018 by Cahya Sofyan. All rights reserved. Desktop use is strictly prohibited.
</metadata>
<defs>
<font id="Matahari-700Bold" horiz-adv-x="1474" >
  <font-face 
    font-family="Matahari 700 Bold"
    font-weight="700"
    font-stretch="normal"
    units-per-em="2048"
    panose-1="2 0 5 3 0 0 0 2 0 4"
    ascent="1536"
    descent="-512"
    x-height="1028"
    cap-height="1434"
    bbox="-438 -868 2894 2198"
    underline-thickness="0"
    underline-position="0"
    unicode-range="U+000D-FB04"
  />
<missing-glyph horiz-adv-x="1218" 
d="M918 297v840h-7l-227 -420l227 -420h7zM387 1272v-10l219 -406h6l217 408v8h-442zM829 162v8l-217 408h-6l-219 -406v-10h442zM143 1434h932v-1434h-932v1434zM299 297h8l225 420l-225 420h-8v-840z" />
    <glyph glyph-name="uniFB00" unicode="ff" horiz-adv-x="1650" 
d="M956 821h-462v-821h-242v821h-242v209h242v94q0 180 115.5 287t306.5 105q88 0 172 -19l-8 -217q-78 16 -138 16q-207 0 -206 -215v-51h462v94q2 180 118 287t306 105q82 0 236 -35l-23 -217q-88 33 -186 32q-207 0 -207 -215v-51h416v-209h-416v-821h-244v821z" />
    <glyph glyph-name="uniFB01" unicode="fi" horiz-adv-x="1310" 
d="M494 1081v-51h706v-1030h-244v821h-462v-821h-242v821h-242v209h242v94q0 176 132 284t327 108q186 0 360 -62l-43 -217q-160 59 -291 59q-104 0 -173.5 -55.5t-69.5 -159.5z" />
    <glyph glyph-name="uniFB02" unicode="fl" horiz-adv-x="1417" 
d="M1141 1483h137v-1483h-244v1165q-129 129 -286 129q-106 0 -179 -54t-73 -159v-51h381v-209h-381v-821h-244v821h-242v209h242v94q2 176 133 282.5t334 106.5q211 0 379 -129z" />
    <glyph glyph-name="uniFB03" unicode="ffi" horiz-adv-x="2017" 
d="M1204 1081v-51h705v-1030h-242v823h-463v-823h-243v823h-467v-823h-242v823h-242v207h242v96q0 178 115.5 285t306.5 107q78 0 172 -21l-8 -217q-61 16 -136 16q-100 2 -153 -51t-55 -164v-51h467v96q0 174 132 283t326 109q168 0 363 -62l-43 -217q-156 57 -291 57
q-106 2 -175 -53.5t-69 -161.5z" />
    <glyph glyph-name="uniFB04" unicode="ffl" horiz-adv-x="2119" 
d="M1847 1483h135v-1483h-243v1167q-125 125 -285 125q-109 2 -180.5 -51t-71.5 -160v-51h379v-207h-379v-823h-244v823h-462v-823h-244v823h-242v207h242v96q0 178 115.5 285t306.5 107q82 0 172 -21l-8 -217q-61 16 -136 16q-102 2 -154 -51t-52 -164v-51h462v96
q0 176 131.5 281.5t333.5 105.5q213 0 381 -129z" />
    <glyph glyph-name="T_h.liga" unicode="Th" horiz-adv-x="2437" 
d="M1833 1057q203 0 334 -146.5t131 -375.5v-535h-244v526q0 133 -85 218t-210 85t-209 -85t-84 -212v-532h-241v1198h-465v-1198h-258v1198h-457v236h1421v-572h7q120 195 360 195z" />
    <glyph glyph-name="f_b.liga" unicode="fb" horiz-adv-x="2215" 
d="M1241 221l-72 -221h-135v1165q-127 127 -286 127q-106 0 -179 -53t-73 -158v-51h378v-209h-378v-821h-244v821h-242v209h242v94q2 176 133 281.5t334 105.5q213 0 379 -127l43 99h137v-625h6q61 92 157.5 145.5t211.5 53.5q205 0 342 -153.5t137 -389.5
q0 -238 -137 -390.5t-342 -150.5q-131 0 -238.5 65.5t-167.5 182.5h-6zM1278 518v-4q0 -137 86 -225t217 -88t218 88t87 225q0 139 -87 227t-218 88q-129 0 -215 -87t-88 -224z" />
    <glyph glyph-name="f_f_j.liga" unicode="ffj" horiz-adv-x="2050" 
d="M1200 1081v-51h707v-1122q0 -178 -113 -284.5t-305 -106.5q-68 0 -162 16l16 217q61 -12 119 -12q201 0 201 215v868h-463v-821h-242v821h-464v-821h-242v821h-242v209h242v94q0 180 115.5 287t306.5 105q88 0 172 -19l-8 -217q-78 16 -138 16q-207 0 -206 -215v-51h464
v94q0 176 132.5 284t326.5 108q186 0 361 -62l-43 -217q-160 59 -291 59q-104 0 -174 -55.5t-70 -159.5z" />
    <glyph glyph-name="f_h.liga" unicode="fh" horiz-adv-x="2246" 
d="M1640 1057q203 0 335 -146.5t130 -375.5v-535h-241v526q0 133 -85 218t-210 85t-208 -82.5t-85 -209.5v-537h-244v1165q-129 129 -287 129q-106 0 -178.5 -54t-72.5 -159v-51h378v-209h-378v-821h-244l2 821h-242v209h242v94q0 176 131 282.5t334 106.5q211 0 379 -129
l43 99h137v-621h6q120 195 358 195z" />
    <glyph glyph-name="f_j.liga" unicode="fj" horiz-adv-x="1310" 
d="M494 1081v-51h706v-1122q0 -178 -112.5 -284.5t-305.5 -106.5q-68 0 -161 16l16 217q61 -12 119 -12q201 0 200 215v868h-462v-821h-242v821h-242v209h242v94q0 176 132 284t327 108q186 0 360 -62l-43 -217q-160 59 -291 59q-104 0 -173.5 -55.5t-69.5 -159.5z" />
    <glyph glyph-name="f_k.liga" unicode="fk" horiz-adv-x="2054" 
d="M1999 1030l-404 -420l449 -610h-260l-342 446l-166 -174v-272h-244v1165q-125 129 -284 129q-109 0 -180.5 -54t-73.5 -159v-51h380v-209h-380v-821h-242v821h-242v209h242v94q0 176 131 282.5t334 106.5q213 0 381 -129l43 99h135v-918h6l444 465h273z" />
    <glyph glyph-name="f_t.liga" unicode="ft" horiz-adv-x="1622" 
d="M1423 193q100 0 189 32l22 -217q-154 -35 -237 -35q-190 -2 -302 104.5t-112 287.5v456h-487v-821h-244v821h-242v209h242v94q0 176 132 284t331 108q276 0 510 -150v-336h409v-209h-409v-413q-1 -215 198 -215zM983 1030v244q-111 47 -242 47q-109 0 -177 -54.5
t-68 -160.5v-76h487z" />
    <glyph glyph-name="f_y.liga" unicode="fy" horiz-adv-x="1914" 
d="M1401 285l280 745h246l-424 -1128q-84 -223 -196.5 -304t-317.5 -81q-59 0 -137 18v225q70 -23 156 -22q102 0 161.5 46t106.5 165l-356 872h-424v-821h-244v821h-242v209h242v94q0 180 115.5 287t308.5 105q82 0 235 -35l-24 -217q-84 33 -185 32q-207 0 -206 -215v-51
h596l303 -745h6z" />
    <glyph glyph-name="r_f.liga" unicode="rf" horiz-adv-x="1585" 
d="M1335 1296q-207 0 -207 -215v-51h414v-209h-414v-821h-243v825q-45 4 -82 4q-188 0 -304 -90t-116 -284v-455h-244v1030h135l84 -219h7q61 119 174.5 182.5t263.5 63.5q41 0 82 -4v71q0 180 115.5 287t306.5 105q84 0 237 -35l-24 -217q-85 32 -185 32z" />
    <glyph glyph-name="r_t.liga" unicode="rt" horiz-adv-x="1525" 
d="M1327 190q106 0 189 35l22 -217q-135 -37 -238 -37q-190 0 -301.5 106.5t-111.5 284.5v463q-45 4 -84 4q-188 0 -304 -90t-116 -284v-455h-244v1030h135l84 -219h7q61 119 174.5 182.5t263.5 63.5q16 0 50 -2t42 -2l59 313h176v-338h408v-207h-408v-415q0 -216 197 -216z
" />
    <glyph glyph-name="t_f.liga" unicode="tf" horiz-adv-x="1736" 
d="M1493 1296q-207 0 -207 -215v-51h414v-209h-414v-821h-244v821h-563v-413q0 -215 203 -215q84 0 158 20l12 -217q-94 -23 -197 -23q-193 -2 -305 104.5t-112 287.5v456h-242v209h244l65 336h174v-336h563v94q0 180 116 287t308 105q82 0 236 -35l-25 -217q-84 32 -184 32
z" />
    <glyph glyph-name="t_t.liga" unicode="tt" horiz-adv-x="1665" 
d="M1655 225l22 -217q-135 -37 -237 -37q-190 0 -302 106.5t-112 284.5v459h-549v-413q0 -215 203 -215q84 0 158 20l12 -217q-94 -23 -197 -23q-193 -2 -305 104.5t-112 287.5v456h-240v209h242l65 336h174v-336h553l64 336h176v-338h407v-207h-407v-415q0 -215 196 -216
q111 0 189 35z" />
    <glyph glyph-name=".notdef" horiz-adv-x="1218" 
d="M918 297v840h-7l-227 -420l227 -420h7zM387 1272v-10l219 -406h6l217 408v8h-442zM829 162v8l-217 408h-6l-219 -406v-10h442zM143 1434h932v-1434h-932v1434zM299 297h8l225 420l-225 420h-8v-840z" />
    <glyph glyph-name="glyph1" horiz-adv-x="0" 
 />
    <glyph glyph-name="glyph2" horiz-adv-x="681" 
 />
    <glyph glyph-name="glyph3" horiz-adv-x="0" 
 />
    <glyph glyph-name="glyph3" horiz-adv-x="0" 
 />
    <glyph glyph-name="uni000D" unicode="&#xd;" horiz-adv-x="530" 
 />
    <glyph glyph-name="space" unicode=" " horiz-adv-x="530" 
 />
    <glyph glyph-name="exclam" unicode="!" horiz-adv-x="520" 
d="M352 401h-182l-39 1033h260zM260 276q63 0 108.5 -44t45.5 -105t-45 -107.5t-109 -46.5q-61 0 -106 46.5t-45 107.5t45 105t106 44z" />
    <glyph glyph-name="quotedbl" unicode="&#x22;" horiz-adv-x="755" 
d="M588 969h-101q-74 334 -73 364q0 59 34.5 93t88 34t89.5 -34.5t36 -92.5zM217 1460q53 0 89 -34.5t36 -92.5l-74 -364h-102q-74 334 -74 364q0 57 36 92t89 35z" />
    <glyph glyph-name="numbersign" unicode="#" horiz-adv-x="1267" 
d="M1161 1434l-98 -379h182v-189h-233l-76 -299h252v-188h-305l-97 -379h-221l99 379h-244l-98 -379h-220l97 379h-176v188h229l76 299h-248v189h299l98 379h221l-98 -379h244l98 379h219zM715 567l76 299h-246l-74 -299h244z" />
    <glyph glyph-name="dollar" unicode="$" horiz-adv-x="1349" 
d="M729 838q276 -57 405.5 -156.5t129.5 -278.5q0 -180 -127 -290.5t-344 -135.5v-186h-211v189q-297 35 -510 174l96 204q244 -158 522 -157q129 0 215 50t86 138q0 76 -76.5 125t-265.5 90q-270 59 -401 159.5t-131 287.5q0 164 127 271.5t338 131.5v188h211v-186
q223 -23 399 -125l-74 -217q-205 117 -426 117q-147 0 -227 -52.5t-80 -125.5q0 -78 78 -127t266 -88z" />
    <glyph glyph-name="percent" unicode="%" horiz-adv-x="2019" 
d="M862 1057q0 -172 -114.5 -289t-296.5 -117q-170 0 -289 114t-119 292q0 170 113.5 286.5t294.5 116.5q174 0 292.5 -112.5t118.5 -290.5zM1978 377q0 -170 -115.5 -287t-295.5 -117q-172 0 -290 113t-118 291q0 172 113.5 287.5t294.5 115.5q172 0 291.5 -112.5
t119.5 -290.5zM823 0h-258l635 1434h258zM1356 377q0 -100 61.5 -165t151.5 -65q94 0 154.5 67t60.5 163q0 98 -62.5 160.5t-152.5 62.5q-94 0 -153.5 -64.5t-59.5 -158.5zM240 1055q0 -100 61 -163t152 -63q94 0 154.5 64.5t60.5 161.5q0 100 -62.5 162.5t-152.5 62.5
q-94 0 -153.5 -64.5t-59.5 -160.5z" />
    <glyph glyph-name="ampersand" unicode="&#x26;" horiz-adv-x="1554" 
d="M1505 586h-194q-70 -160 -164 -258v-6l31 -35q111 -111 274 -111l-47 -203q-236 0 -383 148l-33 35h-6q-195 -182 -442 -183q-211 0 -346.5 110t-135.5 288q0 272 320 417q0 4 2 9q-123 152 -123 303q0 147 111.5 253.5t296.5 106.5q176 0 283.5 -99t107.5 -245
q0 -121 -88 -201.5t-254 -142.5q0 -4 -2 -8l280 -289h4q49 47 84 107v4h-110v192h534v-192zM555 195q137 0 260 118v6l-299 314l-2 2h-4q-90 -47 -139 -103.5t-49 -134.5q0 -88 64.5 -145t168.5 -57zM659 1251q-74 0 -119.5 -49t-45.5 -117q0 -92 96 -194l4 -2
q119 47 173 94t54 112.5t-45 110.5t-117 45z" />
    <glyph glyph-name="quotesingle" unicode="'" horiz-adv-x="432" 
d="M217 1460q53 0 89 -34.5t36 -92.5l-74 -364h-102q-74 334 -74 364q0 57 36 92t89 35z" />
    <glyph glyph-name="parenleft" unicode="(" horiz-adv-x="552" 
d="M336 1556l209 -118q-219 -371 -219 -828q0 -444 217 -829l-211 -113q-127 182 -195.5 429t-68.5 513.5t70.5 517t197.5 428.5z" />
    <glyph glyph-name="parenright" unicode=")" horiz-adv-x="550" 
d="M8 1438l209 118q127 -178 197.5 -428.5t70.5 -517t-68.5 -513.5t-195.5 -429l-211 113q217 385 217 829q0 457 -219 828z" />
    <glyph glyph-name="asterisk" unicode="*" horiz-adv-x="831" 
d="M684 1331l96 -162l-264 -98v-8l264 -98l-96 -162l-215 178l-8 -4l47 -277h-184l45 277l-7 4l-217 -178l-96 162l264 98v8l-262 98l94 164l217 -178q4 0 7 2l-45 277h184l-47 -277q4 -2 8 -2z" />
    <glyph glyph-name="plus" unicode="+" horiz-adv-x="1093" 
d="M668 1092v-394h393v-243h-393v-394h-242v394h-393v243h393v394h242z" />
    <glyph glyph-name="comma" unicode="," horiz-adv-x="503" 
d="M242 258q70 0 118 -52t48 -143q0 -104 -52.5 -196t-142.5 -156l-104 84q49 25 94 79t55 106q-8 -6 -37 -7q-55 0 -92 38t-37 98q0 61 44.5 105t105.5 44z" />
    <glyph glyph-name="hyphen" unicode="-" horiz-adv-x="1034" 
d="M999 780v-243h-964v243h964z" />
    <glyph glyph-name="period" unicode="." horiz-adv-x="518" 
d="M260 -27q-63 0 -108.5 46.5t-45.5 107.5t45.5 105t108.5 44q61 0 106.5 -44t45.5 -105t-45.5 -107.5t-106.5 -46.5z" />
    <glyph glyph-name="slash" unicode="/" horiz-adv-x="806" 
d="M629 1583l205 -72l-656 -1806l-205 72z" />
    <glyph glyph-name="zero" unicode="0" horiz-adv-x="1290" 
d="M645 1460q256 0 412.5 -202.5t156.5 -540.5t-156.5 -541t-412.5 -203t-412.5 203t-156.5 541t156.5 540.5t412.5 202.5zM645.5 209q145.5 0 229 135t83.5 372.5t-83.5 373t-229 135.5t-230.5 -135.5t-85 -373t85 -372.5t230.5 -135z" />
    <glyph glyph-name="one" unicode="1" horiz-adv-x="1290" 
d="M774 238h387v-238h-1032v238h387v864h-6l-234 -182l-135 178l408 336h225v-1196z" />
    <glyph glyph-name="two" unicode="2" horiz-adv-x="1290" 
d="M551 240v-9h588v-231h-987v190l491 447q137 123 180 206t43 167q0 92 -72.5 154.5t-172.5 62.5q-190 0 -357 -133l-86 204q61 47 111.5 78t140.5 57.5t193 26.5q219 0 361 -120.5t142 -323.5q0 -127 -70.5 -251t-238.5 -271z" />
    <glyph glyph-name="three" unicode="3" horiz-adv-x="1290" 
d="M856 754q131 -31 218 -123t87 -246q0 -184 -154.5 -297t-406.5 -115q-264 0 -473 127l76 211q176 -109 366 -108q137 2 233.5 62.5t96.5 164.5q0 207 -336 207h-225v217h211q301 4 301 182q0 100 -90 148.5t-221 48.5q-170 0 -316 -103l-63 203q63 49 179 88t245 39
q217 0 369.5 -100t152.5 -283q0 -119 -68.5 -200.5t-181.5 -114.5v-8z" />
    <glyph glyph-name="four" unicode="4" horiz-adv-x="1290" 
d="M1026 825v-313h221v-209h-221v-303h-260v303h-655l-68 182l674 949h305l-655 -916v-6h399v313h260z" />
    <glyph glyph-name="five" unicode="5" horiz-adv-x="1290" 
d="M721 936q201 0 329 -126t128 -333q0 -225 -148.5 -364.5t-408.5 -139.5q-264 0 -510 138l65 215q211 -121 432 -121q147 0 230.5 75.5t83.5 186.5q0 113 -81 181.5t-214 68.5q-168 0 -320 -115l-162 47v785h940v-234h-679v-344h4l2 -2q114 82 309 82z" />
    <glyph glyph-name="six" unicode="6" horiz-adv-x="1290" 
d="M725 926q207 0 343 -125t136 -332q0 -217 -155.5 -356.5t-384.5 -139.5q-260 0 -416 170q-162 174 -162 533q0 328 185.5 556t498.5 228q197 0 365 -84l-70 -225q-129 76 -291 76q-168 0 -278.5 -116t-135.5 -294q-2 -10 -2 -41h7q124 150 360 150zM655 180q125 0 209 80
t84 195q0 119 -82 194.5t-215 75.5q-123 0 -208 -79t-85 -193.5t87 -193.5t210 -79z" />
    <glyph glyph-name="seven" unicode="7" horiz-adv-x="1290" 
d="M160 1219v215h970v-170l-546 -1264h-279l531 1219h-676z" />
    <glyph glyph-name="eight" unicode="8" horiz-adv-x="1290" 
d="M922 737q123 -49 195.5 -143t72.5 -211q0 -178 -154.5 -294t-390 -116t-390.5 116t-155 294q0 119 72 212t197 142q4 4 0 6q-102 49 -159.5 135.5t-57.5 192.5q0 170 139 279.5t354 109.5t354.5 -109.5t139.5 -279.5q0 -106 -58.5 -192t-160.5 -136q0 -4 2 -6z
M645.5 1241q-106.5 0 -175.5 -57.5t-69 -147.5t69 -147.5t175.5 -57.5t175 57.5t68.5 147.5t-68.5 147.5t-175 57.5zM645 199q123 0 202 61.5t79 155.5t-79 155.5t-202 61.5t-203 -61.5t-80 -155.5t80 -155.5t203 -61.5z" />
    <glyph glyph-name="nine" unicode="9" horiz-adv-x="1290" 
d="M627 1460q260 0 415 -170q162 -174 162 -532q0 -328 -185 -556.5t-499 -228.5q-197 0 -364 84l69 226q125 -76 291 -76q168 0 278.5 115.5t135.5 293.5q0 4 1 18.5t1 20.5h-6q-125 -147 -361 -147q-207 0 -343 124t-136 333q0 217 156 356t385 139zM639 709
q123 0 207 78.5t84 193.5t-86 192.5t-209 77.5q-125 0 -210 -78.5t-85 -193.5q0 -119 83 -194.5t216 -75.5z" />
    <glyph glyph-name="colon" unicode=":" horiz-adv-x="518" 
d="M260 754q-63 0 -108.5 46t-45.5 107.5t45.5 105.5t108.5 44q61 0 106.5 -44t45.5 -105.5t-45.5 -107.5t-106.5 -46zM260 -27q-63 0 -108.5 46.5t-45.5 107.5t45.5 105t108.5 44q61 0 106.5 -44t45.5 -105t-45.5 -107.5t-106.5 -46.5z" />
    <glyph glyph-name="semicolon" unicode=";" horiz-adv-x="503" 
d="M246 754q-63 0 -108.5 46t-45.5 107.5t45 105.5t109 44q61 0 106 -44t45 -105.5t-45 -107.5t-106 -46zM242 258q70 0 118 -52t48 -143q0 -104 -52.5 -196t-142.5 -156l-104 84q49 25 94 79t55 106q-8 -6 -37 -7q-55 0 -92 38t-37 98q0 61 44.5 105t105.5 44z" />
    <glyph glyph-name="less" unicode="&#x3c;" horiz-adv-x="968" 
d="M33 446v185l903 377v-230l-606 -233v-8l606 -238v-223z" />
    <glyph glyph-name="equal" unicode="=" horiz-adv-x="1019" 
d="M987 860v-201h-954v201h954zM987 408v-201h-954v201h954z" />
    <glyph glyph-name="greater" unicode="&#x3e;" horiz-adv-x="968" 
d="M936 631v-185l-903 -370v223l606 238v8l-606 233v230z" />
    <glyph glyph-name="question" unicode="?" horiz-adv-x="860" 
d="M344 276q61 0 106.5 -44t45.5 -105t-45 -107.5t-107 -46.5q-63 0 -108.5 46.5t-45.5 107.5t45.5 105t108.5 44zM369 1460q188 0 316 -98t128 -268q0 -66 -17.5 -123.5t-61.5 -115.5t-66.5 -84t-81.5 -85q-45 -47 -69.5 -80t-43 -88t-12.5 -117h-246q-8 80 15.5 150
t49 103.5t82.5 95.5q14 16 23 24q16 16 51 52t50.5 54.5t36 48t28.5 57.5t8 61q0 88 -67.5 141t-163.5 53q-141 0 -256 -94l-54 199q134 114 351 114z" />
    <glyph glyph-name="at" unicode="@" horiz-adv-x="1497" 
d="M1110 -156l25 -77q-199 -119 -430 -119q-305 0 -491.5 200.5t-164.5 497.5q25 293 245 502t517 209q291 0 474 -186.5t163 -440.5q-18 -205 -112.5 -312.5t-221.5 -107.5q-96 0 -154.5 43t-76.5 115h-9q-41 -70 -110.5 -112t-149.5 -42q-125 0 -199.5 84t-62.5 224
q14 168 129 287.5t258 119.5q84 0 136.5 -40t68.5 -101q4 2 8 2l31 115h186l-96 -367q-12 -45 -14 -82q-10 -129 92 -129q66 0 128 74.5t75 228.5q18 227 -138.5 386t-406.5 159q-256 0 -450.5 -181.5t-215.5 -447.5q-23 -270 140 -442t428 -172q202 -1 399 112zM879 387
q16 76 -24 130t-114 54q-78 0 -136 -67.5t-66 -165.5q-6 -76 34.5 -121t108.5 -45q78 0 128.5 61.5t68.5 153.5z" />
    <glyph glyph-name="A" unicode="A" 
d="M596 1434h285l589 -1434h-292l-103 272h-674l-102 -272h-295zM733 1133l-254 -654h516l-254 654h-8z" />
    <glyph glyph-name="B" unicode="B" horiz-adv-x="1454" 
d="M1065 756q135 -39 214 -134.5t79 -226.5q0 -172 -137.5 -283.5t-348.5 -111.5h-729v1434h686q205 0 333 -102.5t128 -266.5q0 -209 -225 -301v-8zM860 229q106 0 174 55.5t68 143.5t-67.5 142.5t-174.5 54.5h-459v-396h459zM805 1204h-404v-381h404q98 0 161.5 54.5
t63.5 138.5t-63.5 136t-161.5 52z" />
    <glyph glyph-name="C" unicode="C" horiz-adv-x="1390" 
d="M887 209q115 0 230.5 36t193.5 91l43 -234q-197 -129 -473 -129q-348 0 -568.5 202t-220.5 529.5t220 541.5t569 214q238 0 430 -102l-66 -238q-162 104 -366 105q-240 0 -384.5 -149.5t-144.5 -370.5q0 -225 149.5 -360.5t387.5 -135.5z" />
    <glyph glyph-name="D" unicode="D" horiz-adv-x="1529" 
d="M735 1434q303 0 502 -202t199 -515.5t-199 -515t-502 -201.5h-592v1434h592zM735 236q188 0 312 136t124 345t-123.5 345t-312.5 136h-334v-962h334z" />
    <glyph glyph-name="E" unicode="E" horiz-adv-x="1368" 
d="M401 596v-360h875v-236h-1133v1434h1112v-236h-854v-391h793v-211h-793z" />
    <glyph glyph-name="F" unicode="F" horiz-adv-x="1284" 
d="M143 0v1434h1094v-236h-836v-453h754v-210h-754v-535h-258z" />
    <glyph glyph-name="G" unicode="G" horiz-adv-x="1540" 
d="M840 584v209h600v-639q-264 -180 -557 -181q-354 0 -572.5 201t-218.5 528.5t221.5 542.5t569.5 215q285 0 479 -112q0 -2 -40 -111t-40 -113q-164 100 -389 101q-240 0 -390.5 -149.5t-150.5 -373.5q0 -221 147.5 -357t381.5 -136q176 0 301 84v291h-342z" />
    <glyph glyph-name="H" unicode="H" horiz-adv-x="1523" 
d="M1124 827v607h258v-1434h-258v580h-723v-580h-258v1434h258v-607h723z" />
    <glyph glyph-name="I" unicode="I" horiz-adv-x="544" 
d="M143 0v1434h258v-1434h-258z" />
    <glyph glyph-name="J" unicode="J" horiz-adv-x="970" 
d="M569 559v875h258v-883q0 -578 -536 -578q-147 0 -289 62l57 223q111 -49 236 -49q274 0 274 350z" />
    <glyph glyph-name="K" unicode="K" horiz-adv-x="1499" 
d="M1417 1434l-573 -586l633 -848h-316l-512 676l-248 -246v-430h-258v1434h258v-703h7l692 703h317z" />
    <glyph glyph-name="L" unicode="L" horiz-adv-x="1273" 
d="M401 1434v-1198h816v-236h-1074v1434h258z" />
    <glyph glyph-name="M" unicode="M" horiz-adv-x="1841" 
d="M401 1024v-1024h-258v1434h332l443 -1008h6l442 1008h332v-1434h-258v1024h-8l-441 -1024h-141l-440 1024h-9z" />
    <glyph glyph-name="N" unicode="N" horiz-adv-x="1527" 
d="M1384 0h-223l-751 975h-9v-975h-258v1434h224l753 -977h6v977h258v-1434z" />
    <glyph glyph-name="O" unicode="O" horiz-adv-x="1640" 
d="M821.5 1460q315.5 0 521 -209t205.5 -534.5t-205.5 -534.5t-521 -209t-522.5 210t-207 533.5t207 533.5t522.5 210zM821 209q205 0 337 143.5t132 364.5t-132 364.5t-337 143.5t-337 -143.5t-132 -364.5t132 -364.5t337 -143.5z" />
    <glyph glyph-name="P" unicode="P" horiz-adv-x="1415" 
d="M856 459h-455v-459h-258v1434h713q219 0 364.5 -141.5t145.5 -348.5q0 -213 -144.5 -349t-365.5 -136zM840 1196h-439v-508h439q121 0 194.5 75t73.5 181.5t-73.5 179t-194.5 72.5z" />
    <glyph glyph-name="Q" unicode="Q" horiz-adv-x="1640" 
d="M1114 29v-4q190 -90 406 -95l-31 -225q-139 2 -313.5 55.5t-294.5 135.5q-53 35 -105 77q-299 16 -491.5 224.5t-192.5 519.5q0 324 206 533.5t521.5 209.5t522 -210t206.5 -533q0 -240 -117.5 -423t-316.5 -265zM819 209q205 0 337 143.5t132 364.5t-132 364.5
t-337 143.5t-336 -143.5t-131 -364.5t131 -364.5t336 -143.5z" />
    <glyph glyph-name="R" unicode="R" horiz-adv-x="1458" 
d="M1053 621q127 -45 176 -189l151 -432h-286l-148 410q-49 131 -235 131h-310v-541h-258v1434h684q217 0 354.5 -116t137.5 -310q0 -133 -71.5 -230.5t-194.5 -148.5v-8zM1055 975q0 98 -71 159.5t-183 61.5h-400v-448h400q113 0 183.5 63.5t70.5 163.5z" />
    <glyph glyph-name="S" unicode="S" horiz-adv-x="1343" 
d="M727 838q274 -57 403.5 -157.5t129.5 -277.5q0 -205 -159 -317.5t-421 -112.5q-147 0 -321.5 52.5t-290.5 128.5l98 204q240 -158 520 -157q129 0 216 50t87 138q0 76 -76.5 125t-265.5 90q-270 59 -401 159.5t-131 287t161.5 298t419.5 111.5q266 0 494 -129l-74 -217
q-205 117 -428 117q-147 0 -226 -52.5t-79 -125.5q0 -78 78 -127t266 -88z" />
    <glyph glyph-name="T" unicode="T" horiz-adv-x="1263" 
d="M502 0v1198h-457v236h1174v-236h-459v-1198h-258z" />
    <glyph glyph-name="U" unicode="U" horiz-adv-x="1517" 
d="M758 -27q-268 0 -441.5 154t-173.5 399v908h258v-908q0 -143 99.5 -230t257 -87t258 87t100.5 230v908h258v-908q0 -246 -173 -399.5t-443 -153.5z" />
    <glyph glyph-name="V" unicode="V" horiz-adv-x="1460" 
d="M879 0h-297l-578 1434h277l446 -1135h6l447 1135h276z" />
    <glyph glyph-name="W" unicode="W" horiz-adv-x="2058" 
d="M1774 1434h272l-426 -1434h-299l-289 975h-8l-287 -975h-299l-426 1434h273l301 -1069h6l307 1069h258l307 -1069h9z" />
    <glyph glyph-name="X" unicode="X" horiz-adv-x="1415" 
d="M1380 1434l-485 -699l508 -721h-309l-385 539h-7l-383 -539h-309l506 721l-485 699h309l362 -516h7l362 516h309z" />
    <glyph glyph-name="Y" unicode="Y" horiz-adv-x="1363" 
d="M684 823l375 611h301l-553 -895v-539h-258v547l-545 887h301l373 -611h6z" />
    <glyph glyph-name="Z" unicode="Z" horiz-adv-x="1337" 
d="M459 242v-6h803v-236h-1186v174l794 1016v6h-770v238h1141v-193z" />
    <glyph glyph-name="bracketleft" unicode="[" horiz-adv-x="548" 
d="M541 -131v-197h-492v1884h492v-198h-267v-1489h267z" />
    <glyph glyph-name="backslash" unicode="\" horiz-adv-x="806" 
d="M-27 1567l205 71l656 -1806l-205 -72z" />
    <glyph glyph-name="bracketright" unicode="]" horiz-adv-x="548" 
d="M8 -328v197h266v1489h-266v198h492v-1884h-492z" />
    <glyph glyph-name="asciicircum" unicode="^" horiz-adv-x="790" 
d="M301 1434h188l289 -392h-209l-170 240h-8l-176 -240h-203z" />
    <glyph glyph-name="underscore" unicode="_" horiz-adv-x="1105" 
d="M1139 -25v-241h-1172v241h1172z" />
    <glyph glyph-name="grave" unicode="`" horiz-adv-x="415" 
d="M-27 1509h250l219 -333h-190z" />
    <glyph glyph-name="a" unicode="a" horiz-adv-x="1226" 
d="M86 305q0 154 120 250t359 96q152 0 281 -39q0 219 -291 219q-74 0 -155 -18t-126 -35l-45 -18l-71 201q4 4 55 25.5t154.5 46t203.5 24.5q268 0 392 -110.5t124 -352.5v-594h-122l-68 158h-2q-115 -184 -395 -185q-184 0 -299 93.5t-115 238.5zM836 446
q-96 35 -229.5 35t-205 -46t-71.5 -117.5t57 -114.5t168 -43q121 0 201 81t80 181v24z" />
    <glyph glyph-name="b" unicode="b" horiz-adv-x="1320" 
d="M760 1057q205 0 341 -153.5t136 -389t-136 -388.5t-343 -153q-127 0 -231.5 60.5t-168.5 169.5h-6l-78 -203h-135v1483h244v-613h6q138 187 371 187zM686 203q131 -2 218 86t87 225t-87 225t-218 90q-129 0 -216 -89t-87 -226t86 -224t217 -87z" />
    <glyph glyph-name="c" unicode="c" horiz-adv-x="1071" 
d="M702 201q174 0 299 80l25 -232q-152 -76 -330 -76q-266 0 -440 151.5t-174 389.5t171 390.5t437 152.5q186 0 309 -70l-59 -215q-102 53 -244 57q-160 0 -264 -89t-104 -228q0 -131 107 -220t267 -91z" />
    <glyph glyph-name="d" unicode="d" horiz-adv-x="1318" 
d="M559 1057q233 0 371 -187h6v613h244v-1483h-136l-77 203h-6q-63 -109 -168 -169.5t-232 -60.5q-207 0 -343 153t-136 388.5t136 389t341 153.5zM633 203q131 0 217 87t86 224t-87 226t-216 89q-131 -2 -218 -90t-87 -225t87 -225t218 -86z" />
    <glyph glyph-name="e" unicode="e" horiz-adv-x="1255" 
d="M633 1057q242 0 391.5 -150.5t149.5 -392.5q0 -18 -5 -88h-829q29 -104 124 -164.5t245 -60.5q205 0 340 90l47 -215q-158 -102 -389 -103q-287 0 -456 149.5t-169 391.5q0 238 155.5 390.5t395.5 152.5zM338 604h590q-6 96 -90 159.5t-203 63.5q-113 0 -191.5 -60.5
t-105.5 -162.5z" />
    <glyph glyph-name="f" unicode="f" horiz-adv-x="944" 
d="M700 1296q-207 0 -206 -215v-53h415v-209h-415v-819h-242v819h-242v209h242v96q0 178 115.5 285t306.5 107q100 0 235 -37l-22 -217q-83 34 -187 34z" />
    <glyph glyph-name="g" unicode="g" horiz-adv-x="1267" 
d="M1184 -76q-2 -162 -158 -285.5t-424 -121.5q-236 0 -370 83t-134 222q0 127 127 207v4q-145 63 -145 192q0 143 143 236v4q-82 92 -82 217q0 166 135.5 270.5t354.5 104.5q127 0 233 -41q61 76 151.5 115.5t164.5 29.5v-200q-86 8 -164 -35v-4q104 -100 104 -240
q0 -164 -136 -267.5t-355 -101.5q-152 0 -273 56q-41 -33 -41 -78q0 -90 172 -90l316 -2q381 -1 381 -275zM326 -119q0 -86 83 -130t209 -44q131 0 226.5 52.5t95.5 123.5q0 119 -192 119h-361q-61 -51 -61 -121zM631 866q-111 0 -178.5 -53t-67.5 -137t68.5 -136.5
t177.5 -52.5q111 0 177 52.5t69 136.5q0 84 -68.5 137t-177.5 53z" />
    <glyph glyph-name="h" unicode="h" horiz-adv-x="1353" 
d="M748 1057q203 0 334.5 -146.5t131.5 -375.5v-535h-243v526q0 131 -84 216t-211 87q-125 0 -209 -85t-84 -214v-530h-244v1483h244v-621h6q121 195 359 195z" />
    <glyph glyph-name="i" unicode="i" horiz-adv-x="536" 
d="M147 0v1028h242v-1028h-242zM268.5 1526q67.5 0 112.5 -46t45 -111.5t-45 -111t-112.5 -45.5t-112.5 45.5t-45 111t45 111.5t112.5 46z" />
    <glyph glyph-name="j" unicode="j" horiz-adv-x="501" 
d="M113 -53v1081h241v-1124q0 -178 -112.5 -284.5t-302.5 -106.5q-70 0 -164 16l16 217q57 -14 119 -14q201 0 203 215zM233.5 1526q67.5 0 112.5 -46t45 -111.5t-45 -111t-112.5 -45.5t-112.5 45.5t-45 111t45 111.5t112.5 46z" />
    <glyph glyph-name="k" unicode="k" horiz-adv-x="1161" 
d="M1106 1028l-404 -420l449 -608h-260l-342 444l-168 -172v-272h-242v1483h242v-918h8l442 463h275z" />
    <glyph glyph-name="l" unicode="l" horiz-adv-x="520" 
d="M139 0v1483h242v-1483h-242z" />
    <glyph glyph-name="m" unicode="m" horiz-adv-x="1972" 
d="M1425 1057q174 0 291 -139.5t117 -352.5v-567h-242l2 559q0 119 -69.5 194.5t-175.5 75.5q-104 2 -173 -70.5t-69 -183.5v-575h-242v559q0 123 -65.5 196.5t-175.5 73.5q-100 2 -171 -63.5t-71 -165.5v-600h-242v1030h135l74 -197h4q55 106 145.5 166t200.5 60
q117 0 209 -61.5t146 -170.5h4q55 109 150 170.5t218 61.5z" />
    <glyph glyph-name="n" unicode="n" horiz-adv-x="1353" 
d="M383 526v-526h-244v1028h135l78 -205h6q61 111 166 172.5t232 61.5q199 0 328.5 -147.5t127.5 -374.5v-535h-241v526q0 131 -84 216t-211 87q-125 0 -209 -85t-84 -218z" />
    <glyph glyph-name="o" unicode="o" horiz-adv-x="1282" 
d="M641 1057q242 0 400.5 -152.5t158.5 -390.5q0 -236 -159.5 -388.5t-399.5 -152.5t-399.5 153t-159.5 388q2 238 160.5 390.5t398.5 152.5zM641 203q133 -2 222 86t91 225q0 137 -90 225t-223 90q-133 0 -222 -89t-89 -226t89 -224t222 -87z" />
    <glyph glyph-name="p" unicode="p" horiz-adv-x="1312" 
d="M760 -29q-233 0 -371 187h-6v-613h-244v1483h135l78 -203h6q63 109 168 169.5t232 60.5q207 0 343 -152.5t136 -388t-136 -389.5t-341 -154zM686 825q-131 0 -217 -87t-86 -224t87 -226t216 -89q131 2 218 90t87 225t-87 225t-218 86z" />
    <glyph glyph-name="q" unicode="q" horiz-adv-x="1312" 
d="M553 -29q-205 0 -341 154t-136 389.5t136 388t343 152.5q127 0 231.5 -60.5t167.5 -169.5h7l77 203h136v-1483h-244v613h-6q-138 -187 -371 -187zM627 825q-131 2 -218 -86t-87 -225t87 -225t218 -90q129 0 216 89t87 226t-86 224t-217 87z" />
    <glyph glyph-name="r" unicode="r" horiz-adv-x="792" 
d="M367 807q59 117 161.5 183.5t227.5 66.5l-2 -228q-152 0 -261.5 -92t-109.5 -256v-481h-244v1028h137l84 -221h7z" />
    <glyph glyph-name="s" unicode="s" horiz-adv-x="1013" 
d="M932 283q0 -141 -112.5 -226.5t-289.5 -85.5q-256 0 -477 127l68 189q174 -121 391 -121q82 0 132 30.5t50 82.5q0 55 -46 84.5t-173 58.5q-184 45 -279.5 120.5t-95.5 209t106.5 219.5t321.5 86q90 0 200 -29t169 -59l-51 -183q-143 76 -316 76q-94 0 -142 -31.5
t-48 -78.5t50 -78t175 -62q193 -47 280 -121.5t87 -207.5z" />
    <glyph glyph-name="t" unicode="t" horiz-adv-x="917" 
d="M678 193q100 0 188 32l23 -217q-162 -37 -238 -37q-190 0 -301.5 106.5t-111.5 284.5v459h-242v207h246l47 305h192v-305h408v-207h-408v-413q0 -215 197 -215z" />
    <glyph glyph-name="u" unicode="u" horiz-adv-x="1353" 
d="M971 502v526h243v-1028h-135l-78 205h-6q-61 -109 -165.5 -170.5t-231.5 -61.5q-199 0 -329 146.5t-128 374.5v534h242v-526q0 -131 84 -215t211 -86q125 0 209 84t84 217z" />
    <glyph glyph-name="v" unicode="v" horiz-adv-x="1089" 
d="M549 283l293 745h260l-416 -1028h-283l-415 1028h258l295 -745h8z" />
    <glyph glyph-name="w" unicode="w" horiz-adv-x="1732" 
d="M1247 283l219 745h258l-315 -1028h-293l-246 700h-8l-246 -700h-292l-316 1028h258l219 -745h7l256 745h237l256 -745h6z" />
    <glyph glyph-name="x" unicode="x" horiz-adv-x="1185" 
d="M1153 1028l-379 -493l404 -535h-297l-285 379h-6l-283 -379h-299l404 535l-377 493h287l268 -362h6l268 362h289z" />
    <glyph glyph-name="y" unicode="y" horiz-adv-x="1058" 
d="M827 1028h244l-420 -1116q-84 -225 -196.5 -310t-315.5 -85q-61 0 -139 18v225q78 -25 156 -24q100 0 160.5 50t107.5 171l-436 1071h258l299 -735h6z" />
    <glyph glyph-name="z" unicode="z" horiz-adv-x="1214" 
d="M455 197h671v-197h-1038v147l641 684h-598v197h954v-147z" />
    <glyph glyph-name="braceleft" unicode="{" horiz-adv-x="544" 
d="M-14 514v199q166 10 176 166l26 407q12 150 88 217.5t248 55.5l13 -191q-68 2 -95.5 -35t-33.5 -110l-27 -369q-8 -113 -42 -164t-101 -74v-4q70 -25 103.5 -76t39.5 -163l27 -369q6 -74 33.5 -110.5t95.5 -34.5l-13 -191q-172 -12 -247.5 55.5t-88.5 217.5l-26 407
q-6 76 -44 119t-132 47z" />
    <glyph glyph-name="bar" unicode="|" horiz-adv-x="509" 
d="M369 1556v-1884h-226v1884h226z" />
    <glyph glyph-name="braceright" unicode="}" horiz-adv-x="544" 
d="M559 713v-199q-94 -4 -132 -47t-44 -119l-27 -407q-12 -150 -87.5 -217.5t-248.5 -55.5l-12 191q68 -2 95.5 34.5t33.5 110.5l27 369q6 113 40 164t103 75v4q-68 23 -101.5 74t-41.5 164l-27 369q-6 74 -33.5 110.5t-95.5 34.5l12 191q172 12 248 -55.5t88 -217.5
l27 -407q10 -156 176 -166z" />
    <glyph glyph-name="asciitilde" unicode="~" horiz-adv-x="894" 
d="M184 575l-155 62q35 100 99.5 160.5t152.5 60.5q74 0 186 -47q74 -39 123 -39q76 0 123 86l153 -51q-31 -102 -97.5 -167t-147.5 -65q-70 0 -191 52q-78 35 -121 35q-76 -1 -125 -87z" />
    <glyph glyph-name="uni007F" horiz-adv-x="0" 
 />
    <glyph glyph-name="uni00A0" unicode="&#xa0;" horiz-adv-x="0" 
 />
    <glyph glyph-name="exclamdown" unicode="&#xa1;" horiz-adv-x="520" 
d="M170 627h182l39 -1033h-260zM260 752q-61 0 -106 44t-45 105.5t45 107.5t106 46q63 0 108.5 -46t45.5 -107.5t-45.5 -105.5t-108.5 -44z" />
    <glyph glyph-name="cent" unicode="&#xa2;" horiz-adv-x="1071" 
d="M913 489l113 -186q-117 -113 -309 -135v-168h-213v180q-190 43 -306 189.5t-114 347.5q0 203 113.5 349t306.5 187v181h213v-168q180 -23 309 -146l-113 -180q-96 100 -249 102q-145 0 -239.5 -93t-94.5 -232t93 -231.5t232 -94.5q160 0 258 98z" />
    <glyph glyph-name="sterling" unicode="&#xa3;" horiz-adv-x="1077" 
d="M367 215v-4h716v-211h-1056l-2 131q98 47 165.5 139t67.5 199q0 39 -14 119h-234v200h191q-27 121 -33 207q-8 209 123 337t348 128q113 0 219.5 -26.5t165.5 -69.5l-55 -213q-43 31 -120 55.5t-155 24.5q-135 0 -201.5 -81t-60.5 -202q2 -63 25 -160h557v-200h-516
q10 -66 10 -92q0 -160 -141 -281z" />
    <glyph glyph-name="currency" unicode="&#xa4;" horiz-adv-x="1323" 
d="M1122 1374l164 -164l-176 -176q82 -123 82 -289q0 -156 -82 -282l176 -176l-164 -164l-182 182q-123 -70 -278 -69q-152 0 -279 71l-186 -184l-164 164l182 180q-82 129 -80 285q0 158 80 278l-182 180l164 164l186 -184q127 74 283 72q152 0 274 -70zM371 750
q-2 -129 82 -212t209 -85q125 0 209.5 82.5t84.5 212t-84 213t-208.5 83.5t-208.5 -82.5t-84 -211.5z" />
    <glyph glyph-name="yen" unicode="&#xa5;" horiz-adv-x="1196" 
d="M918 1434h274l-426 -762v-4h360v-150h-413v-121h413v-149h-413v-248h-236v248h-405v149h405v121h-405v150h356v4l-424 762h275l315 -600h6z" />
    <glyph glyph-name="brokenbar" unicode="&#xa6;" horiz-adv-x="507" 
d="M143 842v714h224v-714h-224zM143 -328v713h224v-713h-224z" />
    <glyph glyph-name="section" unicode="&#xa7;" horiz-adv-x="1060" 
d="M821 348q117 -84 117 -237q0 -160 -115.5 -255.5t-306.5 -95.5q-262 0 -463 129l78 213q70 -47 175.5 -81.5t205.5 -34.5q68 0 113 32.5t45 86t-41 85t-152 72.5q-100 39 -159.5 65.5t-123 69.5t-92 97.5t-28.5 123.5q0 182 155 265v4q-111 90 -110 231
q0 147 107.5 244.5t287.5 97.5q176 0 389 -90l-51 -227q-172 86 -324 86q-66 0 -104.5 -30t-38.5 -77q0 -49 39 -77.5t139 -69.5q227 -94 287 -133q123 -88 125 -238q0 -166 -154 -252v-4zM625 453q102 29 102 118q0 57 -46 92t-187 89q-51 20 -64 26q-51 -10 -81 -41.5
t-30 -72.5q0 -55 49.5 -93.5t180.5 -87.5z" />
    <glyph glyph-name="dieresis" unicode="&#xa8;" horiz-adv-x="563" 
d="M344 1356q0 57 38 95t95 38q55 0 92 -38t37 -95q0 -55 -37 -93t-92 -38q-57 0 -95 38t-38 93zM-43 1356q0 57 39 95t94 38q53 0 90 -38t37 -95q0 -55 -36 -93t-91 -38q-57 0 -95 39t-38 92z" />
    <glyph glyph-name="copyright" unicode="&#xa9;" horiz-adv-x="1566" 
d="M1057 516l26 -133q-106 -68 -254 -68q-188 0 -307 108.5t-119 285t119 292t307 115.5q125 0 232 -55l-19 -68l-18 -67q-90 55 -195 55q-125 0 -200.5 -78t-75.5 -194.5t79 -187t202 -70.5q133 -1 223 65zM784 84q260 0 428 178t168 453q0 276 -168 453.5t-428 177.5
t-429 -177.5t-169 -453.5q0 -274 169 -452.5t429 -178.5zM784 1458q311 0 515 -210t204 -533.5t-202.5 -532.5t-516 -209t-517.5 209t-204 532.5t204 533.5t517 210z" />
    <glyph glyph-name="ordfeminine" unicode="&#xaa;" horiz-adv-x="776" 
d="M358 1460q162 0 237 -67.5t75 -210.5v-355h-76l-41 93h-2q-76 -106 -238 -107q-111 0 -178 54.5t-67 140.5q0 90 72.5 150.5t211.5 60.5q82 0 168 -23q-4 125 -172 125q-27 0 -57.5 -4t-53 -11.5t-42 -13.5t-31.5 -10l-10 -4l-43 125q114 57 247 57zM514 1069v27
q-57 20 -135 20t-119 -27.5t-41 -70.5q0 -41 36 -65.5t99 -24.5q68 0 114 41t46 100z" />
    <glyph glyph-name="guillemotleft" unicode="&#xab;" horiz-adv-x="1089" 
d="M795 211l-301 422l301 416h260l-301 -416l301 -422h-260zM596 211h-260l-301 422l301 416h260l-301 -416z" />
    <glyph glyph-name="logicalnot" unicode="&#xac;" horiz-adv-x="1132" 
d="M1094 223h-242v314h-819v243h1061v-557z" />
    <glyph glyph-name="uni00AD" unicode="&#xad;" horiz-adv-x="1034" 
d="M999 836v-244h-964v244h964z" />
    <glyph glyph-name="registered" unicode="&#xae;" horiz-adv-x="1566" 
d="M844 735q57 0 93 33t36 84t-36 83t-93 32h-211v-232h211zM1077 561l82 -235h-166l-82 221q-25 70 -123 69h-155v-290h-150v776h375q119 0 192.5 -62.5t73.5 -169.5q0 -147 -141 -204v-4q65 -25 94 -101zM784 84q260 0 428 178t168 453q0 276 -168 453.5t-428 177.5
t-429 -177.5t-169 -453.5q0 -274 169 -452.5t429 -178.5zM784 1458q311 0 515 -210t204 -533.5t-202.5 -532.5t-516 -209t-517.5 209t-204 532.5t204 533.5t517 210z" />
    <glyph glyph-name="macron" unicode="&#xaf;" horiz-adv-x="528" 
d="M-27 1415h582v-149h-582v149z" />
    <glyph glyph-name="degree" unicode="&#xb0;" horiz-adv-x="546" 
d="M272 1460q104 0 177 -67.5t73 -175.5q0 -104 -69.5 -175t-180.5 -71q-104 0 -175.5 68.5t-71.5 177.5q0 102 69 172.5t178 70.5zM274 1096q53 0 86 33.5t33 84.5q0 53 -34.5 87t-84.5 34q-53 0 -85.5 -34.5t-32.5 -86.5q0 -53 33.5 -85.5t84.5 -32.5z" />
    <glyph glyph-name="plusminus" unicode="&#xb1;" horiz-adv-x="1150" 
d="M455 360v394h-422v217h422v393h241v-393h422v-217h-422v-394h-241zM33 0v215h1085v-215h-1085z" />
    <glyph glyph-name="uni00B2" unicode="&#xb2;" horiz-adv-x="794" 
d="M346 858v-4h371v-143h-637v118l313 263q154 127 154 219q0 53 -50.5 89t-115.5 36q-121 0 -227 -80l-58 123q135 100 287 100q141 0 233.5 -71.5t92.5 -192.5q0 -152 -201 -314z" />
    <glyph glyph-name="uni00B3" unicode="&#xb3;" horiz-adv-x="827" 
d="M553 1161q84 -18 141.5 -73.5t57.5 -147.5q0 -109 -100.5 -177.5t-270.5 -68.5q-180 0 -313 76l51 129q115 -63 250 -63q90 0 153.5 36.5t63.5 96.5q0 125 -219 125h-160v125h151q195 0 195 108q0 59 -59.5 88t-145.5 29q-121 0 -213 -62l-45 125q39 29 117 52.5
t162 23.5q147 0 246.5 -60.5t99.5 -168.5q0 -70 -45 -120t-117 -69v-4z" />
    <glyph glyph-name="acute" unicode="&#xb4;" horiz-adv-x="417" 
d="M193 1509h251l-278 -333h-193z" />
    <glyph glyph-name="mu" unicode="&#xb5;" horiz-adv-x="1370" 
d="M987 504v526h244v-1030h-135l-78 205h-6q-61 -109 -166 -170.5t-232 -61.5t-229 64h-4v-492h-242v1485h260v-526q0 -133 85 -218t210 -85t209 85t84 218z" />
    <glyph glyph-name="paragraph" unicode="&#xb6;" horiz-adv-x="1241" 
d="M29 1079.5q0 153.5 106.5 254t270.5 100.5h696v-1700h-178v1521h-170v-1521h-176v981h-172q-162 0 -269.5 105.5t-107.5 259z" />
    <glyph glyph-name="periodcentered" unicode="&#xb7;" horiz-adv-x="518" 
d="M260 639q-63 0 -108.5 46t-45.5 107.5t45.5 105.5t108.5 44q61 0 106.5 -44t45.5 -105.5t-45.5 -107.5t-106.5 -46z" />
    <glyph glyph-name="cedilla" unicode="&#xb8;" horiz-adv-x="393" 
d="M244 -109q72 -8 124 -57t52 -121q0 -100 -75 -151t-195 -51q-104 0 -177 38l39 115q61 -33 125 -33q45 0 77 19.5t30 58.5q0 43 -38 70.5t-122 23.5l-14 62l71 139h162l-61 -106q0 -5 2 -7z" />
    <glyph glyph-name="uni00B9" unicode="&#xb9;" horiz-adv-x="489" 
d="M8 1362l246 205h139v-856h-160v655h-2l-143 -111z" />
    <glyph glyph-name="ordmasculine" unicode="&#xba;" horiz-adv-x="796" 
d="M399.5 1460q143.5 0 238.5 -92t95 -233.5t-96 -232.5t-239.5 -91t-239 92t-95.5 233.5t96.5 232.5t240 91zM397 952q78 0 130.5 51.5t52.5 131t-51.5 132t-129 52.5t-130 -51t-52.5 -131t51 -132.5t129 -52.5z" />
    <glyph glyph-name="guillemotright" unicode="&#xbb;" horiz-adv-x="1089" 
d="M596 633l-301 -422h-260l301 422l-301 416h260zM754 211h-260l301 422l-301 416h260l301 -416z" />
    <glyph glyph-name="onequarter" unicode="&#xbc;" horiz-adv-x="1779" 
d="M8 1229l246 205h139v-856h-160v655h-2l-143 -111zM1348 1432l135 -113l-1055 -1303l-135 113zM1591 854v-547h131v-129h-131v-180h-161v180h-420l-54 113l500 563h135zM1430 307v330h-5l-284 -328v-2h289z" />
    <glyph glyph-name="onehalf" unicode="&#xbd;" horiz-adv-x="1843" 
d="M8 1229l246 205h139v-856h-160v655h-2l-143 -111zM1321 1432l135 -113l-1055 -1303l-135 113zM1395 145v-4h370v-143h-637v119l314 262q154 127 153 219q0 53 -50 89t-115 36q-121 0 -228 -80l-57 123q135 100 287 100q141 0 233 -71.5t92 -192.5q0 -152 -201 -313z" />
    <glyph glyph-name="threequarters" unicode="&#xbe;" horiz-adv-x="1937" 
d="M553 1028q84 -18 141.5 -73.5t57.5 -147.5q0 -109 -100.5 -177.5t-270.5 -68.5q-180 0 -313 76l51 129q115 -63 250 -64q90 0 153.5 37t63.5 97q0 125 -219 125h-160v124h151q195 0 195 109q0 59 -59.5 88t-145.5 29q-121 0 -213 -62l-45 125q39 29 117 52.5t162 23.5
q147 0 246.5 -60.5t99.5 -168.5q0 -70 -45 -120t-117 -69v-4zM1538 1432l135 -113l-1055 -1303l-135 113zM1749 854v-547h131v-129h-131v-180h-162v180h-420l-53 113l500 563h135zM1587 307v330h-4l-285 -328v-2h289z" />
    <glyph glyph-name="questiondown" unicode="&#xbf;" horiz-adv-x="714" 
d="M516 752q-61 0 -106 44t-45 105.5t45 107.5t106 46q63 0 108.5 -46t45.5 -107.5t-45.5 -105.5t-108.5 -44zM492 -432q-188 0 -316.5 98t-128.5 268q0 66 17.5 123.5t61.5 115.5t66.5 84t81.5 85q45 47 70 80t43.5 88t11.5 117h246q8 -80 -15.5 -149.5t-49 -103.5
t-82.5 -95q-14 -16 -23 -25q-16 -16 -51 -52t-50.5 -54.5t-36 -48t-28.5 -57.5t-8 -60q0 -88 67.5 -141.5t163.5 -53.5q141 0 256 94l54 -198q-133 -115 -350 -115z" />
    <glyph glyph-name="Agrave" unicode="&#xc0;" 
d="M596 1434h285l589 -1434h-292l-103 272h-674l-102 -272h-295zM733 1133l-254 -654h516l-254 654h-8zM346 1913h250l219 -334h-190z" />
    <glyph glyph-name="Aacute" unicode="&#xc1;" 
d="M596 1434h285l589 -1434h-292l-103 272h-674l-102 -272h-295zM733 1133l-254 -654h516l-254 654h-8zM813 1890h252l-279 -334h-192z" />
    <glyph glyph-name="Acircumflex" unicode="&#xc2;" 
d="M596 1434h285l589 -1434h-292l-103 272h-674l-102 -272h-295zM733 1133l-254 -654h516l-254 654h-8zM899 1577l-160 205h-4l-157 -205h-181l250 334h182l248 -334h-178z" />
    <glyph glyph-name="Atilde" unicode="&#xc3;" 
d="M596 1434h285l589 -1434h-292l-103 272h-674l-102 -272h-295zM733 1133l-254 -654h516l-254 654h-8zM850 1614q-66 0 -172 63q-70 43 -105 43q-70 0 -88 -106l-129 28q10 111 62.5 171.5t130.5 60.5q63 0 158 -53q92 -57 120 -58q70 0 86 109l127 -29q-8 -117 -59 -173
t-131 -56z" />
    <glyph glyph-name="Adieresis" unicode="&#xc4;" 
d="M596 1434h285l589 -1434h-292l-103 272h-674l-102 -272h-295zM733 1133l-254 -654h516l-254 654h-8zM803 1757q0 57 38 95t95 38q55 0 92 -37.5t37 -95.5q0 -55 -37 -93t-92 -38q-57 0 -95 38t-38 93zM416 1757q0 57 39 95t94 38q53 0 90 -37.5t37 -95.5q0 -55 -36 -93
t-91 -38q-57 0 -95 39t-38 92z" />
    <glyph glyph-name="Aring" unicode="&#xc5;" 
d="M596 1434h285l589 -1434h-292l-103 272h-674l-102 -272h-295zM733 1133l-254 -654h516l-254 654h-8zM477 1757q0 90 64.5 150.5t173.5 60.5q104 0 166.5 -59.5t62.5 -149.5q0 -88 -64.5 -146.5t-167 -58.5t-169 58.5t-66.5 144.5zM807 1759q0 41 -26.5 71t-69.5 30
q-41 0 -68 -30t-27 -71q0 -39 27 -67.5t68 -28.5q43 0 69.5 28.5t26.5 67.5z" />
    <glyph glyph-name="AE" unicode="&#xc6;" horiz-adv-x="2277" 
d="M1307 594v-358h874v-236h-1132v270h-564l-180 -270h-303l973 1434h1186v-238h-854v-389h792v-213h-792zM614 479h435v654h-7z" />
    <glyph glyph-name="Ccedilla" unicode="&#xc7;" horiz-adv-x="1390" 
d="M862 -109q72 -8 124 -57t52 -121q0 -100 -74.5 -151t-195.5 -51q-104 0 -176 38l39 115q61 -33 125 -33q45 0 76.5 19.5t29.5 58.5q0 43 -38 70.5t-122 23.5l-14 62l60 117q-297 39 -476.5 234.5t-179.5 488.5q0 328 220 541.5t569 213.5q238 0 430 -102l-66 -238
q-162 104 -366 105q-240 0 -384.5 -149.5t-144.5 -370.5q0 -225 149.5 -360.5t387.5 -135.5q115 0 230.5 36t193.5 91l43 -234q-186 -123 -451 -129l-43 -75q0 -5 2 -7z" />
    <glyph glyph-name="Egrave" unicode="&#xc8;" horiz-adv-x="1368" 
d="M401 596v-360h875v-236h-1133v1434h1112v-236h-854v-391h793v-211h-793zM391 1913h250l219 -334h-190z" />
    <glyph glyph-name="Eacute" unicode="&#xc9;" horiz-adv-x="1368" 
d="M401 596v-360h875v-236h-1133v1434h1112v-236h-854v-391h793v-211h-793zM795 1913h252l-279 -334h-193z" />
    <glyph glyph-name="Ecircumflex" unicode="&#xca;" horiz-adv-x="1368" 
d="M401 596v-360h875v-236h-1133v1434h1112v-236h-854v-391h793v-211h-793zM848 1577l-160 205h-4l-158 -205h-180l250 334h182l248 -334h-178z" />
    <glyph glyph-name="Edieresis" unicode="&#xcb;" horiz-adv-x="1368" 
d="M401 596v-360h875v-236h-1133v1434h1112v-236h-854v-391h793v-211h-793zM786 1757q0 57 38 95t96 38q55 0 92 -37.5t37 -95.5q0 -55 -37 -93t-92 -38q-57 0 -95.5 38t-38.5 93zM399 1757q0 57 39 95t94 38q53 0 90 -37.5t37 -95.5q0 -55 -35.5 -93t-91.5 -38
q-57 0 -95 39t-38 92z" />
    <glyph glyph-name="Igrave" unicode="&#xcc;" horiz-adv-x="555" 
d="M154 0v1434h258v-1434h-258zM-111 1913h250l219 -334h-190z" />
    <glyph glyph-name="Iacute" unicode="&#xcd;" horiz-adv-x="450" 
d="M102 0v1434h258v-1434h-258zM289 1892h252l-279 -333h-192z" />
    <glyph glyph-name="Icircumflex" unicode="&#xce;" horiz-adv-x="571" 
d="M188 0v1434h258v-1434h-258zM449 1577l-160 205h-4l-158 -205h-180l250 334h182l248 -334h-178z" />
    <glyph glyph-name="Idieresis" unicode="&#xcf;" horiz-adv-x="483" 
d="M135 0v1434h258v-1434h-258zM305 1757q0 57 38 95t95 38q55 0 92 -37.5t37 -95.5q0 -55 -36.5 -93t-92.5 -38q-57 0 -95 38t-38 93zM-82 1757q0 57 39 95t94 38q53 0 90 -37.5t37 -95.5q0 -55 -36 -93t-91 -38t-94 39t-39 92z" />
    <glyph glyph-name="Eth" unicode="&#xd0;" horiz-adv-x="1617" 
d="M827 1434q301 0 500 -202t199 -515.5t-199 -515t-500 -201.5h-591v608h-240v217h240v609h591zM827 236q186 0 311.5 136t125.5 345t-125 345t-312 136h-333v-373h288v-217h-288v-372h333z" />
    <glyph glyph-name="Ntilde" unicode="&#xd1;" horiz-adv-x="1527" 
d="M1384 0h-223l-751 975h-9v-975h-258v1434h224l753 -977h6v977h258v-1434zM889 1614q-66 0 -172 63q-70 43 -105 43q-70 0 -88 -106l-129 28q10 111 62.5 171.5t130.5 60.5q63 0 157 -53q92 -57 121 -58q70 0 86 109l127 -29q-8 -117 -59 -173t-131 -56z" />
    <glyph glyph-name="Ograve" unicode="&#xd2;" horiz-adv-x="1640" 
d="M821.5 1460q315.5 0 521 -209t205.5 -534.5t-205.5 -534.5t-521 -209t-522.5 210t-207 533.5t207 533.5t522.5 210zM821 209q205 0 337 143.5t132 364.5t-132 364.5t-337 143.5t-337 -143.5t-132 -364.5t132 -364.5t337 -143.5zM502 1890h250l219 -334h-191z" />
    <glyph glyph-name="Oacute" unicode="&#xd3;" horiz-adv-x="1640" 
d="M821.5 1460q315.5 0 521 -209t205.5 -534.5t-205.5 -534.5t-521 -209t-522.5 210t-207 533.5t207 533.5t522.5 210zM821 209q205 0 337 143.5t132 364.5t-132 364.5t-337 143.5t-337 -143.5t-132 -364.5t132 -364.5t337 -143.5zM942 1890h252l-279 -334h-192z" />
    <glyph glyph-name="Ocircumflex" unicode="&#xd4;" horiz-adv-x="1640" 
d="M821.5 1460q315.5 0 521 -209t205.5 -534.5t-205.5 -534.5t-521 -209t-522.5 210t-207 533.5t207 533.5t522.5 210zM821 209q205 0 337 143.5t132 364.5t-132 364.5t-337 143.5t-337 -143.5t-132 -364.5t132 -364.5t337 -143.5zM993 1577l-159 205h-5l-157 -205h-180
l249 334h183l247 -334h-178z" />
    <glyph glyph-name="Otilde" unicode="&#xd5;" horiz-adv-x="1640" 
d="M821.5 1460q315.5 0 521 -209t205.5 -534.5t-205.5 -534.5t-521 -209t-522.5 210t-207 533.5t207 533.5t522.5 210zM821 209q205 0 337 143.5t132 364.5t-132 364.5t-337 143.5t-337 -143.5t-132 -364.5t132 -364.5t337 -143.5zM954 1614q-66 0 -172 63q-70 43 -104 43
q-70 0 -88 -106l-129 28q10 111 62 171.5t130 60.5q63 0 158 -53q92 -57 121 -58q70 0 86 109l127 -29q-8 -117 -59.5 -173t-131.5 -56z" />
    <glyph glyph-name="Odieresis" unicode="&#xd6;" horiz-adv-x="1640" 
d="M821.5 1460q315.5 0 521 -209t205.5 -534.5t-205.5 -534.5t-521 -209t-522.5 210t-207 533.5t207 533.5t522.5 210zM821 209q205 0 337 143.5t132 364.5t-132 364.5t-337 143.5t-337 -143.5t-132 -364.5t132 -364.5t337 -143.5zM879 1757q0 57 37.5 95t95.5 38
q55 0 92 -37.5t37 -95.5q0 -55 -37 -93t-92 -38q-57 0 -95 38t-38 93zM492 1757q0 57 38.5 95t94.5 38q53 0 90 -37.5t37 -95.5q0 -55 -36 -93t-91.5 -38t-94 39t-38.5 92z" />
    <glyph glyph-name="multiply" unicode="&#xd7;" horiz-adv-x="1122" 
d="M840 1167l172 -172l-279 -278l279 -279l-172 -172l-279 279l-278 -279l-172 172l278 279l-278 278l172 172l278 -278z" />
    <glyph glyph-name="Oslash" unicode="&#xd8;" horiz-adv-x="1638" 
d="M1307 1282q240 -213 239 -565q0 -326 -205.5 -535t-521.5 -209q-162 0 -303 62l-78 -121l-184 117l76 121q-238 215 -238 565q0 326 206 534.5t521 208.5q162 0 303 -59l76 121l186 -117zM350 717q0 -207 119 -348l522 825q-88 31 -172 31q-205 0 -337 -143.5
t-132 -364.5zM819 211q207 0 338 141.5t131 364.5q0 211 -119 348l-522 -823q76 -31 172 -31z" />
    <glyph glyph-name="Ugrave" unicode="&#xd9;" horiz-adv-x="1517" 
d="M758 -27q-268 0 -441.5 154t-173.5 399v908h258v-908q0 -143 99.5 -230t257 -87t258 87t100.5 230v908h258v-908q0 -246 -173 -399.5t-443 -153.5zM395 1913h250l219 -334h-190z" />
    <glyph glyph-name="Uacute" unicode="&#xda;" horiz-adv-x="1517" 
d="M758 -27q-268 0 -441.5 154t-173.5 399v908h258v-908q0 -143 99.5 -230t257 -87t258 87t100.5 230v908h258v-908q0 -246 -173 -399.5t-443 -153.5zM870 1913h252l-278 -334h-193z" />
    <glyph glyph-name="Ucircumflex" unicode="&#xdb;" horiz-adv-x="1517" 
d="M758 -27q-268 0 -441.5 154t-173.5 399v908h258v-908q0 -143 99.5 -230t257 -87t258 87t100.5 230v908h258v-908q0 -246 -173 -399.5t-443 -153.5zM920 1577l-160 205h-4l-158 -205h-180l250 334h182l248 -334h-178z" />
    <glyph glyph-name="Udieresis" unicode="&#xdc;" horiz-adv-x="1517" 
d="M758 -27q-268 0 -441.5 154t-173.5 399v908h258v-908q0 -143 99.5 -230t257 -87t258 87t100.5 230v908h258v-908q0 -246 -173 -399.5t-443 -153.5zM821 1757q0 57 38 95t95 38q55 0 92 -37.5t37 -95.5q0 -55 -36.5 -93t-92.5 -38q-57 0 -95 38t-38 93zM434 1757
q0 57 39 95t94 38q53 0 90 -37.5t37 -95.5q0 -55 -35.5 -93t-91 -38t-94.5 39t-39 92z" />
    <glyph glyph-name="Yacute" unicode="&#xdd;" horiz-adv-x="1363" 
d="M684 823l375 611h301l-553 -895v-539h-258v547l-545 887h301l373 -611h6zM786 1913h252l-278 -334h-193z" />
    <glyph glyph-name="Thorn" unicode="&#xde;" horiz-adv-x="1372" 
d="M815 1204q219 0 363.5 -141t144.5 -348q0 -213 -143.5 -349.5t-364.5 -136.5h-414v-229h-258v1434h258v-230h414zM797 459q121 0 194.5 74.5t73.5 181t-73.5 179.5t-194.5 73h-396v-508h396z" />
    <glyph glyph-name="germandbls" unicode="&#xdf;" horiz-adv-x="1224" 
d="M1028 659q55 -55 87 -91t62.5 -102.5t30.5 -135.5q0 -166 -117.5 -261.5t-308.5 -95.5q-143 0 -250 45l33 193q90 -41 189 -41q94 0 153.5 44t59.5 120q0 82 -111 188q-8 8 -50 45t-58.5 55.5t-43 53.5t-38 71.5t-11.5 77.5q0 188 219 262q25 49 25 105q0 86 -66.5 138
t-156.5 52q-143 0 -218 -104t-75 -301v-977h-244v971q0 301 133.5 466t405.5 165q193 0 324 -109t131 -283q0 -115 -58 -186q-178 -49 -178 -170q0 -16 3 -31.5t12.5 -32t15.5 -26.5t22.5 -27.5t23.5 -24.5t27.5 -27t26.5 -26z" />
    <glyph glyph-name="agrave" unicode="&#xe0;" horiz-adv-x="1226" 
d="M86 305q0 154 120 250t359 96q152 0 281 -39q0 219 -291 219q-74 0 -155 -18t-126 -35l-45 -18l-71 201q4 4 55 25.5t154.5 46t203.5 24.5q268 0 392 -110.5t124 -352.5v-594h-122l-68 158h-2q-115 -184 -395 -185q-184 0 -299 93.5t-115 238.5zM836 446
q-96 35 -229.5 35t-205 -46t-71.5 -117.5t57 -114.5t168 -43q121 0 201 81t80 181v24zM227 1513h250l219 -333h-190z" />
    <glyph glyph-name="aacute" unicode="&#xe1;" horiz-adv-x="1226" 
d="M86 305q0 154 120 250t359 96q152 0 281 -39q0 219 -291 219q-74 0 -155 -18t-126 -35l-45 -18l-71 201q4 4 55 25.5t154.5 46t203.5 24.5q268 0 392 -110.5t124 -352.5v-594h-122l-68 158h-2q-115 -184 -395 -185q-184 0 -299 93.5t-115 238.5zM836 446
q-96 35 -229.5 35t-205 -46t-71.5 -117.5t57 -114.5t168 -43q121 0 201 81t80 181v24zM678 1513h252l-279 -333h-192z" />
    <glyph glyph-name="acircumflex" unicode="&#xe2;" horiz-adv-x="1226" 
d="M86 305q0 154 120 250t359 96q152 0 281 -39q0 219 -291 219q-74 0 -155 -18t-126 -35l-45 -18l-71 201q4 4 55 25.5t154.5 46t203.5 24.5q268 0 392 -110.5t124 -352.5v-594h-122l-68 158h-2q-115 -184 -395 -185q-184 0 -299 93.5t-115 238.5zM836 446
q-96 35 -229.5 35t-205 -46t-71.5 -117.5t57 -114.5t168 -43q121 0 201 81t80 181v24zM741 1178l-159 204h-4l-158 -204h-180l249 333h183l248 -333h-179z" />
    <glyph glyph-name="atilde" unicode="&#xe3;" horiz-adv-x="1226" 
d="M86 305q0 154 120 250t359 96q152 0 281 -39q0 219 -291 219q-74 0 -155 -18t-126 -35l-45 -18l-71 201q4 4 55 25.5t154.5 46t203.5 24.5q268 0 392 -110.5t124 -352.5v-594h-122l-68 158h-2q-115 -184 -395 -185q-184 0 -299 93.5t-115 238.5zM836 446
q-96 35 -229.5 35t-205 -46t-71.5 -117.5t57 -114.5t168 -43q121 0 201 81t80 181v24zM715 1214q-66 0 -172 64q-70 43 -105 43q-70 0 -88 -107l-129 29q10 111 62.5 171.5t130.5 60.5q63 0 157 -54q92 -57 121 -57q70 0 86 109l127 -29q-8 -117 -59 -173.5t-131 -56.5z" />
    <glyph glyph-name="adieresis" unicode="&#xe4;" horiz-adv-x="1226" 
d="M86 305q0 154 120 250t359 96q152 0 281 -39q0 219 -291 219q-74 0 -155 -18t-126 -35l-45 -18l-71 201q4 4 55 25.5t154.5 46t203.5 24.5q268 0 392 -110.5t124 -352.5v-594h-122l-68 158h-2q-115 -184 -395 -185q-184 0 -299 93.5t-115 238.5zM836 446
q-96 35 -229.5 35t-205 -46t-71.5 -117.5t57 -114.5t168 -43q121 0 201 81t80 181v24zM645 1360q0 57 38 95t95 38q55 0 92 -38t37 -95q0 -55 -36.5 -93t-92.5 -38q-57 0 -95 38t-38 93zM258 1360q0 57 39 95t94 38q53 0 90 -38t37 -95q0 -55 -36 -93t-91 -38t-94 39t-39 92
z" />
    <glyph glyph-name="aring" unicode="&#xe5;" horiz-adv-x="1226" 
d="M86 305q0 154 120 250t359 96q152 0 281 -39q0 219 -291 219q-74 0 -155 -18t-126 -35l-45 -18l-71 201q4 4 55 25.5t154.5 46t203.5 24.5q268 0 392 -110.5t124 -352.5v-594h-122l-68 158h-2q-115 -184 -395 -185q-184 0 -299 93.5t-115 238.5zM836 446
q-96 35 -229.5 35t-205 -46t-71.5 -117.5t57 -114.5t168 -43q121 0 201 81t80 181v24zM670 1362q0 41 -27 70.5t-70 29.5q-41 0 -67.5 -29.5t-26.5 -70.5q0 -39 26.5 -67.5t67.5 -28.5q43 0 70 28.5t27 67.5zM340 1360q0 90 64.5 150.5t173.5 60.5q104 0 166.5 -59.5
t62.5 -149.5q0 -88 -64.5 -146.5t-167 -58.5t-169 58.5t-66.5 144.5z" />
    <glyph glyph-name="ae" unicode="&#xe6;" horiz-adv-x="2043" 
d="M1962 530q0 -18 -8 -104h-815q27 -104 120 -164.5t240 -60.5q205 0 346 90l37 -215q-160 -104 -375 -105q-180 0 -315 69t-207 191h-4q-129 -258 -463 -258q-190 0 -311 96.5t-121 241.5q0 154 123 247t373 93q137 0 276 -41v4q0 104 -79 162t-224 58q-74 0 -156 -18.5
t-125 -37.5l-45 -18l-71 201q4 4 55 25.5t154.5 46t203.5 24.5q348 0 463 -187h6q156 186 404 187q240 0 379 -142.5t139 -384.5zM848 414v37q-115 41 -248 41q-135 0 -202.5 -48.5t-67.5 -124.5q0 -72 61.5 -117.5t169.5 -45.5q123 0 205 74.5t82 183.5zM1135 592h579
q-4 113 -84 175t-198 62q-117 0 -195.5 -64t-101.5 -173z" />
    <glyph glyph-name="ccedilla" unicode="&#xe7;" horiz-adv-x="1071" 
d="M696 -109q72 -8 124 -57t52 -121q0 -100 -74.5 -151t-195.5 -51q-104 0 -176 38l39 115q61 -33 125 -33q45 0 76.5 19.5t29.5 58.5q0 43 -37.5 70.5t-121.5 23.5l-15 62l60 117q-223 31 -361.5 176t-138.5 356q0 238 171 390.5t437 152.5q186 0 309 -70l-59 -215
q-102 53 -244 57q-160 0 -264 -89t-104 -228q0 -131 107.5 -220t266.5 -91q174 0 299 80l25 -232q-125 -63 -289 -74l-43 -77q0 -5 2 -7z" />
    <glyph glyph-name="egrave" unicode="&#xe8;" horiz-adv-x="1255" 
d="M633 1057q242 0 391.5 -150.5t149.5 -392.5q0 -18 -5 -88h-829q29 -104 124 -164.5t245 -60.5q205 0 340 90l47 -215q-158 -102 -389 -103q-287 0 -456 149.5t-169 391.5q0 238 155.5 390.5t395.5 152.5zM338 604h590q-6 96 -90 159.5t-203 63.5q-113 0 -191.5 -60.5
t-105.5 -162.5zM254 1509h250l219 -333h-191z" />
    <glyph glyph-name="eacute" unicode="&#xe9;" horiz-adv-x="1255" 
d="M633 1057q242 0 391.5 -150.5t149.5 -392.5q0 -18 -5 -88h-829q29 -104 124 -164.5t245 -60.5q205 0 340 90l47 -215q-158 -102 -389 -103q-287 0 -456 149.5t-169 391.5q0 238 155.5 390.5t395.5 152.5zM338 604h590q-6 96 -90 159.5t-203 63.5q-113 0 -191.5 -60.5
t-105.5 -162.5zM719 1509h252l-279 -333h-192z" />
    <glyph glyph-name="ecircumflex" unicode="&#xea;" horiz-adv-x="1255" 
d="M633 1057q242 0 391.5 -150.5t149.5 -392.5q0 -18 -5 -88h-829q29 -104 124 -164.5t245 -60.5q205 0 340 90l47 -215q-158 -102 -389 -103q-287 0 -456 149.5t-169 391.5q0 238 155.5 390.5t395.5 152.5zM338 604h590q-6 96 -90 159.5t-203 63.5q-113 0 -191.5 -60.5
t-105.5 -162.5zM786 1174l-159 204h-4l-158 -204h-180l250 333h182l248 -333h-179z" />
    <glyph glyph-name="edieresis" unicode="&#xeb;" horiz-adv-x="1255" 
d="M633 1057q242 0 391.5 -150.5t149.5 -392.5q0 -18 -5 -88h-829q29 -104 124 -164.5t245 -60.5q205 0 340 90l47 -215q-158 -102 -389 -103q-287 0 -456 149.5t-169 391.5q0 238 155.5 390.5t395.5 152.5zM338 604h590q-6 96 -90 159.5t-203 63.5q-113 0 -191.5 -60.5
t-105.5 -162.5zM688 1354q0 57 38 95t95 38q55 0 92 -38t37 -95q0 -55 -36.5 -93t-92.5 -38q-57 0 -95 38t-38 93zM301 1354q0 57 39 95t94 38q53 0 90 -38t37 -95q0 -55 -36 -93t-91 -38q-57 0 -95 38t-38 93z" />
    <glyph glyph-name="igrave" unicode="&#xec;" horiz-adv-x="419" 
d="M72 0v1028h241v-1028h-241zM-166 1509h250l219 -333h-190z" />
    <glyph glyph-name="iacute" unicode="&#xed;" horiz-adv-x="432" 
d="M94 0v1028h242v-1028h-242zM332 1509h252l-279 -333h-192z" />
    <glyph glyph-name="icircumflex" unicode="&#xee;" horiz-adv-x="573" 
d="M164 0v1028h242v-1028h-242zM444 1174l-159 204h-4l-158 -204h-180l250 333h182l248 -333h-179z" />
    <glyph glyph-name="idieresis" unicode="&#xef;" horiz-adv-x="464" 
d="M117 0v1028h241v-1028h-241zM295 1354q0 57 38 95t95 38q55 0 92 -38t37 -95q0 -55 -37 -93t-92 -38q-57 0 -95 38t-38 93zM-92 1354q0 57 39 95t94 38q53 0 90 -38t37 -95q0 -55 -36 -93t-91 -38q-57 0 -95 38t-38 93z" />
    <glyph glyph-name="eth" unicode="&#xf0;" horiz-adv-x="1298" 
d="M805 1323q201 -145 306.5 -347t105.5 -437q0 -254 -156 -406q-156 -160 -414 -160q-244 0 -404.5 147.5t-160.5 387.5q0 225 154.5 370.5t377.5 145.5q141 0 248 -94l4 4q-92 178 -276 289l-285 -138l-53 99l215 110v6q-76 51 -184 91l82 163q168 -55 325 -153l266 127
l56 -101l-207 -98v-6zM874 299q80 92 80 229q0 125 -87 210t-218 85q-139 0 -222 -89t-83 -222q0 -129 82 -221t225 -92q139 0 223 100z" />
    <glyph glyph-name="ntilde" unicode="&#xf1;" horiz-adv-x="1353" 
d="M383 526v-526h-244v1028h135l78 -205h6q61 111 166 172.5t232 61.5q199 0 328.5 -147.5t127.5 -374.5v-535h-241v526q0 131 -84 216t-211 87q-125 0 -209 -85t-84 -218zM831 1210q-66 0 -172 64q-70 43 -104 43q-70 0 -88 -107l-129 29q10 111 62.5 171t129.5 60
q63 0 158 -53q92 -57 121 -57q70 0 86 108l127 -28q-8 -117 -59.5 -173.5t-131.5 -56.5z" />
    <glyph glyph-name="ograve" unicode="&#xf2;" horiz-adv-x="1282" 
d="M641 1057q242 0 400.5 -152.5t158.5 -390.5q0 -236 -159.5 -388.5t-399.5 -152.5t-399.5 153t-159.5 388q2 238 160.5 390.5t398.5 152.5zM641 203q133 -2 222 86t91 225q0 137 -90 225t-223 90q-133 0 -222 -89t-89 -226t89 -224t222 -87zM268 1509h250l219 -333h-190z
" />
    <glyph glyph-name="oacute" unicode="&#xf3;" horiz-adv-x="1282" 
d="M641 1057q242 0 400.5 -152.5t158.5 -390.5q0 -236 -159.5 -388.5t-399.5 -152.5t-399.5 153t-159.5 388q2 238 160.5 390.5t398.5 152.5zM641 203q133 -2 222 86t91 225q0 137 -90 225t-223 90q-133 0 -222 -89t-89 -226t89 -224t222 -87zM748 1509h251l-278 -333h-193z
" />
    <glyph glyph-name="ocircumflex" unicode="&#xf4;" horiz-adv-x="1282" 
d="M641 1057q242 0 400.5 -152.5t158.5 -390.5q0 -236 -159.5 -388.5t-399.5 -152.5t-399.5 153t-159.5 388q2 238 160.5 390.5t398.5 152.5zM641 203q133 -2 222 86t91 225q0 137 -90 225t-223 90q-133 0 -222 -89t-89 -226t89 -224t222 -87zM803 1174l-160 204h-4
l-158 -204h-180l250 333h182l248 -333h-178z" />
    <glyph glyph-name="otilde" unicode="&#xf5;" horiz-adv-x="1282" 
d="M641 1057q242 0 400.5 -152.5t158.5 -390.5q0 -236 -159.5 -388.5t-399.5 -152.5t-399.5 153t-159.5 388q2 238 160.5 390.5t398.5 152.5zM641 203q133 -2 222 86t91 225q0 137 -90 225t-223 90q-133 0 -222 -89t-89 -226t89 -224t222 -87zM793 1210q-66 0 -172 64
q-70 43 -105 43q-70 0 -88 -107l-129 29q10 111 62.5 171t130.5 60q63 0 157 -53q92 -57 121 -57q70 0 86 108l127 -28q-8 -117 -59 -173.5t-131 -56.5z" />
    <glyph glyph-name="odieresis" unicode="&#xf6;" horiz-adv-x="1282" 
d="M641 1057q242 0 400.5 -152.5t158.5 -390.5q0 -236 -159.5 -388.5t-399.5 -152.5t-399.5 153t-159.5 388q2 238 160.5 390.5t398.5 152.5zM641 203q133 -2 222 86t91 225q0 137 -90 225t-223 90q-133 0 -222 -89t-89 -226t89 -224t222 -87zM705 1354q0 57 37.5 95
t95.5 38q55 0 92 -38t37 -95q0 -55 -37 -93t-92 -38q-57 0 -95 38t-38 93zM317 1354q0 57 39 95t95 38q53 0 90 -38t37 -95q0 -55 -36 -93t-91 -38q-57 0 -95.5 38t-38.5 93z" />
    <glyph glyph-name="divide" unicode="&#xf7;" horiz-adv-x="1044" 
d="M33 604v225h979v-225h-979zM674 1143q0 -61 -44 -106.5t-108 -45.5q-61 0 -106 45t-45 107q0 63 45 107t106 44q63 0 107.5 -44t44.5 -107zM522 442q63 0 107.5 -44t44.5 -105q0 -63 -44 -108.5t-108 -45.5q-61 0 -106 45t-45 109q0 61 45 105t106 44z" />
    <glyph glyph-name="oslash" unicode="&#xf8;" horiz-adv-x="1280" 
d="M1014 928q184 -156 184 -414q0 -236 -159.5 -388.5t-399.5 -152.5q-111 2 -209 37l-53 -88l-156 101l49 77q-188 156 -188 414q0 238 159.5 390.5t399.5 152.5q115 0 213 -37l53 84l156 -98zM307 514q0 -135 82 -227l348 551q-47 12 -96 12q-143 0 -238.5 -94.5
t-95.5 -241.5zM639 178q143 0 238.5 95.5t95.5 240.5q0 135 -80 225l-346 -549q43 -12 92 -12z" />
    <glyph glyph-name="ugrave" unicode="&#xf9;" horiz-adv-x="1353" 
d="M971 502v526h243v-1028h-135l-78 205h-6q-61 -109 -165.5 -170.5t-231.5 -61.5q-199 0 -329 146.5t-128 374.5v534h242v-526q0 -131 84 -215t211 -86q125 0 209 84t84 217zM313 1509h250l219 -333h-190z" />
    <glyph glyph-name="uacute" unicode="&#xfa;" horiz-adv-x="1353" 
d="M971 502v526h243v-1028h-135l-78 205h-6q-61 -109 -165.5 -170.5t-231.5 -61.5q-199 0 -329 146.5t-128 374.5v534h242v-526q0 -131 84 -215t211 -86q125 0 209 84t84 217zM766 1509h252l-279 -333h-192z" />
    <glyph glyph-name="ucircumflex" unicode="&#xfb;" horiz-adv-x="1353" 
d="M971 502v526h243v-1028h-135l-78 205h-6q-61 -109 -165.5 -170.5t-231.5 -61.5q-199 0 -329 146.5t-128 374.5v534h242v-526q0 -131 84 -215t211 -86q125 0 209 84t84 217zM838 1174l-160 204h-4l-158 -204h-180l250 333h182l248 -333h-178z" />
    <glyph glyph-name="udieresis" unicode="&#xfc;" horiz-adv-x="1353" 
d="M971 502v526h243v-1028h-135l-78 205h-6q-61 -109 -165.5 -170.5t-231.5 -61.5q-199 0 -329 146.5t-128 374.5v534h242v-526q0 -131 84 -215t211 -86q125 0 209 84t84 217zM741 1354q0 57 38 95t95 38q55 0 92.5 -38t37.5 -95q0 -55 -37 -93t-93 -38q-57 0 -95 38t-38 93
zM354 1354q0 57 39 95t94 38q53 0 90 -38t37 -95q0 -55 -35.5 -93t-91.5 -38q-57 0 -95 38t-38 93z" />
    <glyph glyph-name="yacute" unicode="&#xfd;" horiz-adv-x="1058" 
d="M827 1028h244l-420 -1116q-84 -225 -196.5 -310t-315.5 -85q-61 0 -139 18v225q78 -25 156 -24q100 0 160.5 50t107.5 171l-436 1071h258l299 -735h6zM631 1509h252l-279 -333h-192z" />
    <glyph glyph-name="thorn" unicode="&#xfe;" horiz-adv-x="1314" 
d="M756 1057q207 0 345 -153.5t138 -389.5q0 -238 -138 -390.5t-347 -152.5q-231 4 -367 181h-4v-607h-244v1938h244v-604h4q140 178 369 178zM688 201q131 0 218 88t87 225t-87 226t-218 89q-129 0 -216 -89t-87 -226t86 -225t217 -88z" />
    <glyph glyph-name="ydieresis" unicode="&#xff;" horiz-adv-x="1058" 
d="M827 1028h244l-420 -1116q-84 -225 -196.5 -310t-315.5 -85q-61 0 -139 18v225q78 -25 156 -24q100 0 160.5 50t107.5 171l-436 1071h258l299 -735h6zM584 1356q0 57 37.5 95t95.5 38q55 0 92 -38t37 -95q0 -55 -37 -93t-92 -38q-57 0 -95 38t-38 93zM197 1356
q0 57 38.5 95t94.5 38q53 0 90 -38t37 -95q0 -55 -36 -93t-91.5 -38t-94 39t-38.5 92z" />
    <glyph glyph-name="Amacron" unicode="&#x100;" 
d="M596 1434h285l589 -1434h-292l-103 272h-674l-102 -272h-295zM733 1133l-254 -654h516l-254 654h-8zM449 1819h581v-150h-581v150z" />
    <glyph glyph-name="amacron" unicode="&#x101;" horiz-adv-x="1224" 
d="M86 305q0 154 120 250t359 96q152 0 281 -39q0 219 -291 219q-74 0 -155 -18t-126 -35l-45 -18l-71 201q4 4 55 25.5t154.5 46t203.5 24.5q268 0 392 -110.5t124 -352.5v-594h-122l-68 158h-2q-115 -184 -395 -185q-184 0 -299 93.5t-115 238.5zM836 446
q-96 35 -229.5 35t-205 -46t-71.5 -117.5t57 -114.5t168 -43q121 0 201 81t80 181v24zM301 1419h582v-149h-582v149z" />
    <glyph glyph-name="Abreve" unicode="&#x102;" 
d="M596 1434h285l589 -1434h-292l-103 272h-674l-102 -272h-295zM733 1133l-254 -654h516l-254 654h-8zM887 1890h141q-4 -141 -84 -227t-219 -86q-141 0 -221 86t-84 227h141q4 -74 48 -121t116 -47q70 0 114 47t48 121z" />
    <glyph glyph-name="abreve" unicode="&#x103;" horiz-adv-x="1226" 
d="M86 305q0 154 120 250t359 96q152 0 281 -39q0 219 -291 219q-74 0 -155 -18t-126 -35l-45 -18l-71 201q4 4 55 25.5t154.5 46t203.5 24.5q268 0 392 -110.5t124 -352.5v-594h-122l-68 158h-2q-115 -184 -395 -185q-184 0 -299 93.5t-115 238.5zM836 446
q-96 35 -229.5 35t-205 -46t-71.5 -117.5t57 -114.5t168 -43q121 0 201 81t80 181v24zM743 1491h142q-4 -141 -84 -227t-219 -86q-141 0 -221 86t-85 227h142q4 -74 48 -121t116 -47q70 0 113.5 47t47.5 121z" />
    <glyph glyph-name="Aogonek" unicode="&#x104;" horiz-adv-x="1554" 
d="M621 1434h284l590 -1434h-61q-92 -84 -93 -186q0 -53 34 -87t91 -34q59 0 113 22l37 -129q-86 -61 -205 -61q-113 0 -175 56.5t-62 164.5q0 68 31.5 139.5t76.5 114.5h-80l-102 272h-674l-102 -272h-295zM758 1133l-254 -654h516l-254 654h-8z" />
    <glyph glyph-name="aogonek" unicode="&#x105;" horiz-adv-x="1208" 
d="M86 305q0 154 120 250t359 96q152 0 281 -39q0 219 -291 219q-74 0 -155 -18t-126 -35l-45 -18l-71 201q4 4 55 25.5t154.5 46t203.5 24.5q268 0 392 -110.5t124 -352.5v-594q-92 -84 -92 -186q0 -53 34 -87t91 -34q59 0 113 22l37 -129q-86 -61 -205 -61
q-113 0 -175.5 56.5t-62.5 164.5q0 72 40 150.5t89 121.5l-59 140h-2q-115 -184 -395 -185q-184 0 -299 93.5t-115 238.5zM836 446q-96 35 -229.5 35t-205 -46t-71.5 -117.5t57 -114.5t168 -43q121 0 201 81t80 181v24z" />
    <glyph glyph-name="Cacute" unicode="&#x106;" horiz-adv-x="1390" 
d="M887 209q115 0 230.5 36t193.5 91l43 -234q-197 -129 -473 -129q-348 0 -568.5 202t-220.5 529.5t220 541.5t569 214q238 0 430 -102l-66 -238q-162 104 -366 105q-240 0 -384.5 -149.5t-144.5 -370.5q0 -225 149.5 -360.5t387.5 -135.5zM852 1913h252l-279 -334h-192z
" />
    <glyph glyph-name="cacute" unicode="&#x107;" horiz-adv-x="1071" 
d="M702 201q174 0 299 80l25 -232q-152 -76 -330 -76q-266 0 -440 151.5t-174 389.5t171 390.5t437 152.5q186 0 309 -70l-59 -215q-102 53 -244 57q-160 0 -264 -89t-104 -228q0 -131 107 -220t267 -91zM659 1509h252l-278 -333h-193z" />
    <glyph glyph-name="Ccircumflex" unicode="&#x108;" horiz-adv-x="1390" 
d="M887 209q115 0 230.5 36t193.5 91l43 -234q-197 -129 -473 -129q-348 0 -568.5 202t-220.5 529.5t220 541.5t569 214q238 0 430 -102l-66 -238q-162 104 -366 105q-240 0 -384.5 -149.5t-144.5 -370.5q0 -225 149.5 -360.5t387.5 -135.5zM887 1577l-160 205h-4l-158 -205
h-180l250 334h182l248 -334h-178z" />
    <glyph glyph-name="ccircumflex" unicode="&#x109;" horiz-adv-x="1071" 
d="M702 201q174 0 299 80l25 -232q-152 -76 -330 -76q-266 0 -440 151.5t-174 389.5t171 390.5t437 152.5q186 0 309 -70l-59 -215q-102 53 -244 57q-160 0 -264 -89t-104 -228q0 -131 107 -220t267 -91zM723 1174l-160 204h-4l-158 -204h-180l250 333h182l248 -333h-178z
" />
    <glyph glyph-name="Cdotaccent" unicode="&#x10a;" horiz-adv-x="1390" 
d="M887 209q115 0 230.5 36t193.5 91l43 -234q-197 -129 -473 -129q-348 0 -568.5 202t-220.5 529.5t220 541.5t569 214q238 0 430 -102l-66 -238q-162 104 -366 105q-240 0 -384.5 -149.5t-144.5 -370.5q0 -225 149.5 -360.5t387.5 -135.5zM608 1755q0 57 38 95t95 38
q55 0 91 -38t36 -95q0 -55 -35.5 -93t-91.5 -38q-57 0 -95 38t-38 93z" />
    <glyph glyph-name="cdotaccent" unicode="&#x10b;" horiz-adv-x="1071" 
d="M702 201q174 0 299 80l25 -232q-152 -76 -330 -76q-266 0 -440 151.5t-174 389.5t171 390.5t437 152.5q186 0 309 -70l-59 -215q-102 53 -244 57q-160 0 -264 -89t-104 -228q0 -131 107 -220t267 -91zM418 1352q0 57 38 95t95 38q55 0 91 -38t36 -95q0 -55 -36 -93
t-91 -38t-94 39t-39 92z" />
    <glyph glyph-name="Ccaron" unicode="&#x10c;" horiz-adv-x="1390" 
d="M887 209q115 0 230.5 36t193.5 91l43 -234q-197 -129 -473 -129q-348 0 -568.5 202t-220.5 529.5t220 541.5t569 214q238 0 430 -102l-66 -238q-162 104 -366 105q-240 0 -384.5 -149.5t-144.5 -370.5q0 -225 149.5 -360.5t387.5 -135.5zM821 1577h-182l-248 334h178
l158 -205h6l158 205h180z" />
    <glyph glyph-name="ccaron" unicode="&#x10d;" horiz-adv-x="1071" 
d="M702 201q174 0 299 80l25 -232q-152 -76 -330 -76q-266 0 -440 151.5t-174 389.5t171 390.5t437 152.5q186 0 309 -70l-59 -215q-102 53 -244 57q-160 0 -264 -89t-104 -228q0 -131 107 -220t267 -91zM653 1174h-182l-248 333h178l158 -204h6l158 204h180z" />
    <glyph glyph-name="Dcaron" unicode="&#x10e;" horiz-adv-x="1529" 
d="M735 1434q303 0 502 -202t199 -515.5t-199 -515t-502 -201.5h-592v1434h592zM735 236q188 0 312 136t124 345t-123.5 345t-312.5 136h-334v-962h334zM756 1577h-183l-247 334h178l158 -205h6l157 205h181z" />
    <glyph glyph-name="dcaron" unicode="&#x10f;" horiz-adv-x="1746" 
d="M559 1057q233 0 371 -187h6v613h244v-1483h-136l-77 203h-6q-63 -109 -168 -169.5t-232 -60.5q-207 0 -343 153t-136 388.5t136 389t341 153.5zM633 203q131 0 217 87t86 224t-87 226t-216 89q-131 -2 -218 -90t-87 -225t87 -225t218 -86zM1325 1167q70 8 110 50.5
t40 107.5q0 57 -52 119l187 24q66 -70 65 -174q0 -121 -85 -194.5t-224 -79.5z" />
    <glyph glyph-name="Dcroat" unicode="&#x110;" horiz-adv-x="1617" 
d="M827 1434q301 0 500 -202t199 -515.5t-199 -515t-500 -201.5h-591v608h-240v217h240v609h591zM827 236q186 0 311.5 136t125.5 345t-125 345t-312 136h-333v-373h288v-217h-288v-372h333z" />
    <glyph glyph-name="dcroat" unicode="&#x111;" horiz-adv-x="1417" 
d="M1182 1323h241v-178h-241v-1145h-138l-77 205h-4q-63 -109 -168 -170.5t-232 -63.5q-205 0 -342 152.5t-139 390.5q0 236 137 389.5t342 153.5q229 0 371 -187h6v275h-260v178h260v160h244v-160zM635 201q129 0 216 88t87 225q0 139 -87 227t-218 88q-129 0 -216 -89
t-87 -226t87 -225t218 -88z" />
    <glyph glyph-name="Emacron" unicode="&#x112;" horiz-adv-x="1368" 
d="M401 596v-360h875v-236h-1133v1434h1112v-236h-854v-391h793v-211h-793zM420 1819h581v-150h-581v150z" />
    <glyph glyph-name="emacron" unicode="&#x113;" horiz-adv-x="1255" 
d="M633 1057q242 0 391.5 -150.5t149.5 -392.5q0 -18 -5 -88h-829q29 -104 124 -164.5t245 -60.5q205 0 340 90l47 -215q-158 -102 -389 -103q-287 0 -456 149.5t-169 391.5q0 238 155.5 390.5t395.5 152.5zM338 604h590q-6 96 -90 159.5t-203 63.5q-113 0 -191.5 -60.5
t-105.5 -162.5zM315 1415h582v-149h-582v149z" />
    <glyph glyph-name="Ebreve" unicode="&#x114;" horiz-adv-x="1368" 
d="M401 596v-360h875v-236h-1133v1434h1112v-236h-854v-391h793v-211h-793zM874 1890h142q-4 -141 -84 -227t-219 -86q-141 0 -221 86t-84 227h141q4 -74 48 -121t116 -47q70 0 113.5 47t47.5 121z" />
    <glyph glyph-name="ebreve" unicode="&#x115;" horiz-adv-x="1255" 
d="M633 1057q242 0 391.5 -150.5t149.5 -392.5q0 -18 -5 -88h-829q29 -104 124 -164.5t245 -60.5q205 0 340 90l47 -215q-158 -102 -389 -103q-287 0 -456 149.5t-169 391.5q0 238 155.5 390.5t395.5 152.5zM338 604h590q-6 96 -90 159.5t-203 63.5q-113 0 -191.5 -60.5
t-105.5 -162.5zM793 1487h141q-4 -141 -84 -227t-219 -86q-141 0 -221 86t-84 227h141q4 -74 48 -121t116 -47q70 0 114 47t48 121z" />
    <glyph glyph-name="Edotaccent" unicode="&#x116;" horiz-adv-x="1368" 
d="M401 596v-360h875v-236h-1133v1434h1112v-236h-854v-391h793v-211h-793zM573 1755q0 57 38 95t96 38q55 0 91 -38t36 -95q0 -55 -36 -93t-91.5 -38t-94.5 38t-39 93z" />
    <glyph glyph-name="edotaccent" unicode="&#x117;" horiz-adv-x="1255" 
d="M633 1057q242 0 391.5 -150.5t149.5 -392.5q0 -18 -5 -88h-829q29 -104 124 -164.5t245 -60.5q205 0 340 90l47 -215q-158 -102 -389 -103q-287 0 -456 149.5t-169 391.5q0 238 155.5 390.5t395.5 152.5zM338 604h590q-6 96 -90 159.5t-203 63.5q-113 0 -191.5 -60.5
t-105.5 -162.5zM496 1352q0 57 37.5 95t95.5 38q55 0 91 -38t36 -95q0 -55 -36 -93t-91.5 -38t-94 39t-38.5 92z" />
    <glyph glyph-name="Eogonek" unicode="&#x118;" horiz-adv-x="1370" 
d="M401 596v-360h875v-236q-92 -84 -92 -186q0 -53 33.5 -87t91.5 -34q59 0 112 22l37 -129q-86 -61 -205 -61q-113 0 -175 56.5t-62 164.5q0 68 31.5 139.5t76.5 114.5h-981v1434h1112v-236h-854v-391h793v-211h-793z" />
    <glyph glyph-name="eogonek" unicode="&#x119;" horiz-adv-x="1255" 
d="M633 1057q242 0 391.5 -150.5t149.5 -392.5q0 -18 -5 -88h-829q29 -104 124 -164.5t245 -60.5q205 0 340 90l47 -215q-129 -84 -318 -99q-68 -78 -67 -163q0 -53 33.5 -87t91.5 -34q59 0 112 22l37 -129q-86 -61 -205 -61q-113 0 -175 56.5t-62 164.5q0 125 88 231
q-254 20 -401.5 166t-147.5 371q0 238 155.5 390.5t395.5 152.5zM338 604h590q-6 96 -90 159.5t-203 63.5q-113 0 -191.5 -60.5t-105.5 -162.5z" />
    <glyph glyph-name="Ecaron" unicode="&#x11a;" horiz-adv-x="1368" 
d="M401 596v-360h875v-236h-1133v1434h1112v-236h-854v-391h793v-211h-793zM799 1577h-183l-247 334h178l158 -205h6l157 205h181z" />
    <glyph glyph-name="ecaron" unicode="&#x11b;" horiz-adv-x="1255" 
d="M633 1057q242 0 391.5 -150.5t149.5 -392.5q0 -18 -5 -88h-829q29 -104 124 -164.5t245 -60.5q205 0 340 90l47 -215q-158 -102 -389 -103q-287 0 -456 149.5t-169 391.5q0 238 155.5 390.5t395.5 152.5zM338 604h590q-6 96 -90 159.5t-203 63.5q-113 0 -191.5 -60.5
t-105.5 -162.5zM678 1174h-182l-248 333h178l158 -204h6l158 204h180z" />
    <glyph glyph-name="Gcircumflex" unicode="&#x11c;" horiz-adv-x="1540" 
d="M840 584v209h600v-639q-264 -180 -557 -181q-354 0 -572.5 201t-218.5 528.5t221.5 542.5t569.5 215q285 0 479 -112q0 -2 -40 -111t-40 -113q-164 100 -389 101q-240 0 -390.5 -149.5t-150.5 -373.5q0 -221 147.5 -357t381.5 -136q176 0 301 84v291h-342zM971 1577
l-160 205h-4l-158 -205h-180l250 334h182l248 -334h-178z" />
    <glyph glyph-name="gcircumflex" unicode="&#x11d;" horiz-adv-x="1267" 
d="M1184 -76q-2 -162 -158 -285.5t-424 -121.5q-236 0 -370 83t-134 222q0 127 127 207v4q-145 63 -145 192q0 143 143 236v4q-82 92 -82 217q0 166 135.5 270.5t354.5 104.5q127 0 233 -41q61 76 151.5 115.5t164.5 29.5v-200q-86 8 -164 -35v-4q104 -100 104 -240
q0 -164 -136 -267.5t-355 -101.5q-152 0 -273 56q-41 -33 -41 -78q0 -90 172 -90l316 -2q381 -1 381 -275zM326 -119q0 -86 83 -130t209 -44q131 0 226.5 52.5t95.5 123.5q0 119 -192 119h-361q-61 -51 -61 -121zM631 866q-111 0 -178.5 -53t-67.5 -137t68.5 -136.5
t177.5 -52.5q111 0 177 52.5t69 136.5q0 84 -68.5 137t-177.5 53zM793 1174l-160 204h-4l-158 -204h-180l250 333h182l248 -333h-178z" />
    <glyph glyph-name="Gbreve" unicode="&#x11e;" horiz-adv-x="1540" 
d="M840 584v209h600v-639q-264 -180 -557 -181q-354 0 -572.5 201t-218.5 528.5t221.5 542.5t569.5 215q285 0 479 -112q0 -2 -40 -111t-40 -113q-164 100 -389 101q-240 0 -390.5 -149.5t-150.5 -373.5q0 -221 147.5 -357t381.5 -136q176 0 301 84v291h-342zM950 1890h142
q-4 -141 -84 -227t-220 -86q-141 0 -221 86t-84 227h142q4 -74 48 -121t115 -47q70 0 114 47t48 121z" />
    <glyph glyph-name="gbreve" unicode="&#x11f;" horiz-adv-x="1267" 
d="M1184 -76q-2 -162 -158 -285.5t-424 -121.5q-236 0 -370 83t-134 222q0 127 127 207v4q-145 63 -145 192q0 143 143 236v4q-82 92 -82 217q0 166 135.5 270.5t354.5 104.5q127 0 233 -41q61 76 151.5 115.5t164.5 29.5v-200q-86 8 -164 -35v-4q104 -100 104 -240
q0 -164 -136 -267.5t-355 -101.5q-152 0 -273 56q-41 -33 -41 -78q0 -90 172 -90l316 -2q381 -1 381 -275zM326 -119q0 -86 83 -130t209 -44q131 0 226.5 52.5t95.5 123.5q0 119 -192 119h-361q-61 -51 -61 -121zM631 866q-111 0 -178.5 -53t-67.5 -137t68.5 -136.5
t177.5 -52.5q111 0 177 52.5t69 136.5q0 84 -68.5 137t-177.5 53zM795 1487h141q-4 -141 -84 -227t-219 -86q-141 0 -221 86t-84 227h141q4 -74 48 -121t116 -47q70 0 114 47t48 121z" />
    <glyph glyph-name="Gdotaccent" unicode="&#x120;" horiz-adv-x="1540" 
d="M840 584v209h600v-639q-264 -180 -557 -181q-354 0 -572.5 201t-218.5 528.5t221.5 542.5t569.5 215q285 0 479 -112q0 -2 -40 -111t-40 -113q-164 100 -389 101q-240 0 -390.5 -149.5t-150.5 -373.5q0 -221 147.5 -357t381.5 -136q176 0 301 84v291h-342zM659 1755
q0 57 38 95t96 38q55 0 91 -38t36 -95q0 -55 -36 -93t-91.5 -38t-94.5 38t-39 93z" />
    <glyph glyph-name="gdotaccent" unicode="&#x121;" horiz-adv-x="1267" 
d="M1184 -76q-2 -162 -158 -285.5t-424 -121.5q-236 0 -370 83t-134 222q0 127 127 207v4q-145 63 -145 192q0 143 143 236v4q-82 92 -82 217q0 166 135.5 270.5t354.5 104.5q127 0 233 -41q61 76 151.5 115.5t164.5 29.5v-200q-86 8 -164 -35v-4q104 -100 104 -240
q0 -164 -136 -267.5t-355 -101.5q-152 0 -273 56q-41 -33 -41 -78q0 -90 172 -90l316 -2q381 -1 381 -275zM326 -119q0 -86 83 -130t209 -44q131 0 226.5 52.5t95.5 123.5q0 119 -192 119h-361q-61 -51 -61 -121zM631 866q-111 0 -178.5 -53t-67.5 -137t68.5 -136.5
t177.5 -52.5q111 0 177 52.5t69 136.5q0 84 -68.5 137t-177.5 53zM500 1352q0 57 37.5 95t95.5 38q55 0 91 -38t36 -95q0 -55 -36 -93t-91 -38t-94 39t-39 92z" />
    <glyph glyph-name="uni0122" unicode="&#x122;" horiz-adv-x="1540" 
d="M840 584v209h600v-639q-264 -180 -557 -181q-354 0 -572.5 201t-218.5 528.5t221.5 542.5t569.5 215q285 0 479 -112q0 -2 -40 -111t-40 -113q-164 100 -389 101q-240 0 -390.5 -149.5t-150.5 -373.5q0 -221 147.5 -357t381.5 -136q176 0 301 84v291h-342zM657 -375
q70 8 110 50t40 108q0 57 -51 119l186 24q66 -70 66 -174q0 -121 -85 -194.5t-225 -79.5z" />
    <glyph glyph-name="uni0123" unicode="&#x123;" horiz-adv-x="1267" 
d="M1184 -76q-2 -162 -158 -285.5t-424 -121.5q-236 0 -370 83t-134 222q0 127 127 207v4q-145 63 -145 192q0 143 143 236v4q-82 92 -82 217q0 166 135.5 270.5t354.5 104.5q127 0 233 -41q61 76 151.5 115.5t164.5 29.5v-200q-86 8 -164 -35v-4q104 -100 104 -240
q0 -164 -136 -267.5t-355 -101.5q-152 0 -273 56q-41 -33 -41 -78q0 -90 172 -90l316 -2q381 -1 381 -275zM326 -119q0 -86 83 -130t209 -44q131 0 226.5 52.5t95.5 123.5q0 119 -192 119h-361q-61 -51 -61 -121zM631 866q-111 0 -178.5 -53t-67.5 -137t68.5 -136.5
t177.5 -52.5q111 0 177 52.5t69 136.5q0 84 -68.5 137t-177.5 53zM756 1634l41 -147q-70 -8 -110 -50t-40 -108q0 -57 51 -119l-186 -24q-66 70 -66 174q0 121 85.5 194.5t224.5 79.5z" />
    <glyph glyph-name="Hcircumflex" unicode="&#x124;" horiz-adv-x="1523" 
d="M1124 827v607h258v-1434h-258v580h-723v-580h-258v1434h258v-607h723zM915 1577l-159 205h-4l-158 -205h-180l250 334h182l248 -334h-179z" />
    <glyph glyph-name="hcircumflex" unicode="&#x125;" horiz-adv-x="1392" 
d="M786 1057q203 0 335 -146.5t132 -375.5v-535h-243v526q0 131 -84 216t-211 87q-125 0 -209 -85t-84 -214v-530h-244v1483h244v-621h6q120 195 358 195zM416 1577l-160 205h-4l-158 -205h-180l250 334h182l248 -334h-178z" />
    <glyph glyph-name="Hbar" unicode="&#x126;" horiz-adv-x="1644" 
d="M1442 1434v-230h207v-182h-207v-1022h-258v580h-723v-580h-258v1022h-207v182h207v230h258v-230h723v230h258zM1184 827v195h-723v-195h723z" />
    <glyph glyph-name="hbar" unicode="&#x127;" horiz-adv-x="1445" 
d="M842 1057q203 0 334 -147.5t131 -374.5v-535h-242v526q0 133 -85 218t-210 85t-209 -85t-84 -214v-530h-244v1145h-239v178h239v160h244v-160h264v-178h-264v-283h6q119 195 359 195z" />
    <glyph glyph-name="Itilde" unicode="&#x128;" horiz-adv-x="458" 
d="M100 0v1434h258v-1434h-258zM381 1614q-66 0 -172 63q-70 43 -105 43q-70 0 -88 -106l-129 28q10 111 62.5 171.5t130.5 60.5q63 0 158 -53q92 -57 120 -58q70 0 86 109l127 -29q-8 -117 -59 -173t-131 -56z" />
    <glyph glyph-name="itilde" unicode="&#x129;" horiz-adv-x="505" 
d="M133 0v1028h242v-1028h-242zM406 1210q-66 0 -173 64q-70 43 -104 43q-70 0 -88 -107l-129 29q10 111 62.5 171t129.5 60q63 0 158 -53q92 -57 121 -57q70 0 86 108l127 -28q-8 -117 -59 -173.5t-131 -56.5z" />
    <glyph glyph-name="Imacron" unicode="&#x12a;" horiz-adv-x="403" 
d="M76 0v1434h258v-1434h-258zM-86 1819h582v-150h-582v150z" />
    <glyph glyph-name="imacron" unicode="&#x12b;" horiz-adv-x="450" 
d="M90 0v1028h242v-1028h-242zM-80 1415h582v-149h-582v149z" />
    <glyph glyph-name="Ibreve" unicode="&#x12c;" horiz-adv-x="452" 
d="M98 0v1434h258v-1434h-258zM387 1890h141q-4 -141 -83.5 -227t-219.5 -86q-141 0 -221 86t-84 227h141q4 -74 48.5 -121t115.5 -47q70 0 114 47t48 121z" />
    <glyph glyph-name="ibreve" unicode="&#x12d;" horiz-adv-x="487" 
d="M121 0v1028h241v-1028h-241zM399 1487h142q-4 -141 -84 -227t-219 -86q-141 0 -221 86t-85 227h142q4 -74 48 -121t116 -47q70 0 113.5 47t47.5 121z" />
    <glyph glyph-name="Iogonek" unicode="&#x12e;" horiz-adv-x="495" 
d="M125 0v1434h258v-1434h-21q-92 -84 -92 -186q0 -53 34 -87t91 -34q59 0 113 22l37 -129q-86 -61 -205 -61q-113 0 -175.5 56.5t-62.5 164.5q0 68 32 139.5t77 114.5h-86z" />
    <glyph glyph-name="iogonek" unicode="&#x12f;" horiz-adv-x="481" 
d="M129 0v1028h242v-1028h-15q-92 -84 -92 -186q0 -53 34 -87t91 -34q59 0 113 22l37 -129q-86 -61 -205 -61q-113 0 -175.5 56.5t-62.5 164.5q0 68 32 139.5t77 114.5h-76zM249.5 1526q67.5 0 113 -46t45.5 -111.5t-45.5 -111t-113 -45.5t-112.5 45.5t-45 111t45 111.5
t112.5 46z" />
    <glyph glyph-name="Idotaccent" unicode="&#x130;" horiz-adv-x="557" 
d="M141 0v1434h258v-1434h-258zM156 1755q0 57 37.5 95t95.5 38q55 0 91 -38t36 -95q0 -55 -36 -93t-91.5 -38t-94 38t-38.5 93z" />
    <glyph glyph-name="dotlessi" unicode="&#x131;" horiz-adv-x="520" 
d="M139 0v1028h242v-1028h-242z" />
    <glyph glyph-name="IJ" unicode="&#x132;" horiz-adv-x="1576" 
d="M143 0v1434h258v-1434h-258zM1176 559v875h258v-883q0 -578 -537 -578q-147 0 -289 62l58 223q111 -49 235 -49q275 0 275 350z" />
    <glyph glyph-name="ij" unicode="&#x133;" horiz-adv-x="1021" 
d="M147 0v1028h242v-1028h-242zM268.5 1526q67.5 0 112.5 -46t45 -111.5t-45 -111t-112.5 -45.5t-112.5 45.5t-45 111t45 111.5t112.5 46zM635 -53v1081h242v-1124q0 -178 -113 -284.5t-303 -106.5q-70 0 -164 16l16 217q57 -14 119 -14q201 0 203 215zM755.5 1526
q67.5 0 112.5 -46t45 -111.5t-45 -111t-112.5 -45.5t-112.5 45.5t-45 111t45 111.5t112.5 46z" />
    <glyph glyph-name="Jcircumflex" unicode="&#x134;" horiz-adv-x="970" 
d="M569 559v875h258v-883q0 -578 -536 -578q-147 0 -289 62l57 223q111 -49 236 -49q274 0 274 350zM846 1577l-160 205h-4l-158 -205h-180l250 334h182l248 -334h-178z" />
    <glyph glyph-name="jcircumflex" unicode="&#x135;" horiz-adv-x="505" 
d="M113 -53v1081h241v-1124q0 -178 -112.5 -284.5t-302.5 -106.5q-70 0 -164 16l16 217q57 -14 119 -14q201 0 203 215zM393 1174l-160 204h-4l-157 -204h-181l250 333h183l247 -333h-178z" />
    <glyph glyph-name="uni0136" unicode="&#x136;" horiz-adv-x="1499" 
d="M1417 1434l-573 -586l633 -848h-316l-512 676l-248 -246v-430h-258v1434h258v-703h7l692 703h317zM551 -375q70 8 109.5 50t39.5 108q0 57 -51 119l187 24q66 -70 65 -174q0 -121 -85 -194.5t-224 -79.5z" />
    <glyph glyph-name="uni0137" unicode="&#x137;" horiz-adv-x="1161" 
d="M1106 1028l-404 -420l449 -608h-260l-342 444l-168 -172v-272h-242v1483h242v-918h8l442 463h275zM371 -375q70 8 109.5 50t39.5 108q0 57 -51 119l186 24q66 -70 66 -174q0 -121 -85 -194.5t-224 -79.5z" />
    <glyph glyph-name="kgreenlandic" unicode="&#x138;" horiz-adv-x="1161" 
d="M1106 1028l-404 -420l449 -608h-260l-342 444l-168 -172v-272h-242v1028h242v-463h8l442 463h275z" />
    <glyph glyph-name="Lacute" unicode="&#x139;" horiz-adv-x="1343" 
d="M471 1434v-1198h815v-236h-1073v1434h258zM473 1913h252l-279 -334h-192z" />
    <glyph glyph-name="lacute" unicode="&#x13a;" horiz-adv-x="425" 
d="M82 0v1483h242v-1483h-242zM313 1913h252l-278 -334h-193z" />
    <glyph glyph-name="uni013B" unicode="&#x13b;" horiz-adv-x="1273" 
d="M401 1434v-1198h816v-236h-1074v1434h258zM453 -375q70 8 109.5 50t39.5 108q0 57 -51 119l186 24q66 -70 66 -174q0 -121 -85 -194.5t-224 -79.5z" />
    <glyph glyph-name="uni013C" unicode="&#x13c;" horiz-adv-x="604" 
d="M174 0v1483h242v-1483h-242zM86 -375q70 8 110 50t40 108q0 57 -52 119l187 24q66 -70 65 -174q0 -121 -85 -194.5t-224 -79.5z" />
    <glyph glyph-name="Lcaron" unicode="&#x13d;" horiz-adv-x="1273" 
d="M401 1434v-1198h816v-236h-1074v1434h258zM797 1020l-41 147q70 8 109.5 50.5t39.5 107.5q0 57 -51 119l186 24q66 -70 66 -174q0 -121 -85 -194.5t-224 -79.5z" />
    <glyph glyph-name="lcaron" unicode="&#x13e;" horiz-adv-x="907" 
d="M139 0v1483h242v-1483h-242zM530 1167q70 8 110 50.5t40 107.5q0 57 -51 119l186 24q66 -70 66 -174q0 -121 -85 -194.5t-225 -79.5z" />
    <glyph glyph-name="Ldot" unicode="&#x13f;" horiz-adv-x="1273" 
d="M401 1434v-1198h816v-236h-1074v1434h258zM903 754q-63 0 -108 46t-45 107.5t45 105.5t108 44q61 0 106.5 -44t45.5 -105.5t-45.5 -107.5t-106.5 -46z" />
    <glyph glyph-name="ldot" unicode="&#x140;" horiz-adv-x="899" 
d="M139 0v1483h242v-1483h-242zM741 754q-63 0 -108 46t-45 107.5t45 105.5t108 44q61 0 106.5 -44t45.5 -105.5t-45.5 -107.5t-106.5 -46z" />
    <glyph glyph-name="Lslash" unicode="&#x141;" horiz-adv-x="1357" 
d="M485 647v-411h815v-236h-1073v549l-231 -115v236l231 114v650h258v-549l232 114v-237z" />
    <glyph glyph-name="lslash" unicode="&#x142;" horiz-adv-x="712" 
d="M477 1483v-574l240 117v-235l-240 -119v-672h-241v580l-240 -119v237l240 117v668h241z" />
    <glyph glyph-name="Nacute" unicode="&#x143;" horiz-adv-x="1527" 
d="M1384 0h-223l-751 975h-9v-975h-258v1434h224l753 -977h6v977h258v-1434zM860 1913h252l-278 -334h-193z" />
    <glyph glyph-name="nacute" unicode="&#x144;" horiz-adv-x="1353" 
d="M383 526v-526h-244v1028h135l78 -205h6q61 111 166 172.5t232 61.5q199 0 328.5 -147.5t127.5 -374.5v-535h-241v526q0 131 -84 216t-211 87q-125 0 -209 -85t-84 -218zM768 1509h252l-279 -333h-192z" />
    <glyph glyph-name="uni0145" unicode="&#x145;" horiz-adv-x="1527" 
d="M1384 0h-223l-751 975h-9v-975h-258v1434h224l753 -977h6v977h258v-1434zM563 -375q70 8 110 50t40 108q0 57 -51 119l186 24q66 -70 65 -174q0 -121 -85 -194.5t-224 -79.5z" />
    <glyph glyph-name="uni0146" unicode="&#x146;" horiz-adv-x="1353" 
d="M383 526v-526h-244v1028h135l78 -205h6q61 111 166 172.5t232 61.5q199 0 328.5 -147.5t127.5 -374.5v-535h-241v526q0 131 -84 216t-211 87q-125 0 -209 -85t-84 -218zM416 -375q70 8 109.5 50t39.5 108q0 57 -51 119l186 24q66 -70 66 -174q0 -121 -85 -194.5
t-224 -79.5z" />
    <glyph glyph-name="Ncaron" unicode="&#x147;" horiz-adv-x="1527" 
d="M1384 0h-223l-751 975h-9v-975h-258v1434h224l753 -977h6v977h258v-1434zM846 1577h-182l-248 334h178l158 -205h6l157 205h181z" />
    <glyph glyph-name="ncaron" unicode="&#x148;" horiz-adv-x="1353" 
d="M383 526v-526h-244v1028h135l78 -205h6q61 111 166 172.5t232 61.5q199 0 328.5 -147.5t127.5 -374.5v-535h-241v526q0 131 -84 216t-211 87q-125 0 -209 -85t-84 -218zM754 1174h-183l-247 333h178l157 -204h7l157 204h181z" />
    <glyph glyph-name="napostrophe" unicode="&#x149;" horiz-adv-x="1697" 
d="M727 526v-526h-244v1028h135l78 -205h6q61 111 166 172.5t232 61.5q199 0 329 -147.5t127 -374.5v-535h-241v526q0 131 -84 216t-211 87q-125 0 -209 -85t-84 -218zM139 1020l-41 147q70 8 110 50.5t40 107.5q0 57 -51 119l186 24q66 -70 66 -174q0 -121 -85.5 -194.5
t-224.5 -79.5z" />
    <glyph glyph-name="Eng" unicode="&#x14a;" horiz-adv-x="1527" 
d="M1126 457v977h258v-1526q-2 -178 -114.5 -284.5t-302.5 -106.5q-68 0 -162 16l16 217q55 -14 119 -14q201 0 201 217v74l-731 948h-9v-975h-258v1434h222l753 -977h8z" />
    <glyph glyph-name="eng" unicode="&#x14b;" horiz-adv-x="1351" 
d="M756 1057q199 0 327.5 -147.5t128.5 -374.5v-629q0 -178 -112.5 -284.5t-302.5 -106.5q-66 0 -164 16l18 217q55 -14 119 -14q201 0 201 217v575q0 133 -85 218t-210 85t-209 -85t-84 -218v-526h-244v1030h135l78 -207h6q61 111 166 172.5t232 61.5z" />
    <glyph glyph-name="Omacron" unicode="&#x14c;" horiz-adv-x="1640" 
d="M821.5 1460q315.5 0 521 -209t205.5 -534.5t-205.5 -534.5t-521 -209t-522.5 210t-207 533.5t207 533.5t522.5 210zM821 209q205 0 337 143.5t132 364.5t-132 364.5t-337 143.5t-337 -143.5t-132 -364.5t132 -364.5t337 -143.5zM535 1819h581v-150h-581v150z" />
    <glyph glyph-name="omacron" unicode="&#x14d;" horiz-adv-x="1282" 
d="M641 1057q242 0 400.5 -152.5t158.5 -390.5q0 -236 -159.5 -388.5t-399.5 -152.5t-399.5 153t-159.5 388q2 238 160.5 390.5t398.5 152.5zM641 203q133 -2 222 86t91 225q0 137 -90 225t-223 90q-133 0 -222 -89t-89 -226t89 -224t222 -87zM350 1415h582v-149h-582v149z
" />
    <glyph glyph-name="Obreve" unicode="&#x14e;" horiz-adv-x="1640" 
d="M821.5 1460q315.5 0 521 -209t205.5 -534.5t-205.5 -534.5t-521 -209t-522.5 210t-207 533.5t207 533.5t522.5 210zM821 209q205 0 337 143.5t132 364.5t-132 364.5t-337 143.5t-337 -143.5t-132 -364.5t132 -364.5t337 -143.5zM983 1890h141q-4 -141 -83.5 -227
t-219.5 -86q-141 0 -221 86t-84 227h141q4 -74 48.5 -121t115.5 -47q70 0 114 47t48 121z" />
    <glyph glyph-name="obreve" unicode="&#x14f;" horiz-adv-x="1282" 
d="M641 1057q242 0 400.5 -152.5t158.5 -390.5q0 -236 -159.5 -388.5t-399.5 -152.5t-399.5 153t-159.5 388q2 238 160.5 390.5t398.5 152.5zM641 203q133 -2 222 86t91 225q0 137 -90 225t-223 90q-133 0 -222 -89t-89 -226t89 -224t222 -87zM805 1487h141
q-4 -141 -84 -227t-219 -86q-141 0 -221 86t-84 227h141q4 -74 48 -121t116 -47q70 0 114 47t48 121z" />
    <glyph glyph-name="Ohungarumlaut" unicode="&#x150;" horiz-adv-x="1640" 
d="M821.5 1460q315.5 0 521 -209t205.5 -534.5t-205.5 -534.5t-521 -209t-522.5 210t-207 533.5t207 533.5t522.5 210zM821 209q205 0 337 143.5t132 364.5t-132 364.5t-337 143.5t-337 -143.5t-132 -364.5t132 -364.5t337 -143.5zM1110 1909h227l-266 -328h-170zM750 1909
h227l-266 -328h-170z" />
    <glyph glyph-name="ohungarumlaut" unicode="&#x151;" horiz-adv-x="1282" 
d="M641 1057q242 0 400.5 -152.5t158.5 -390.5q0 -236 -159.5 -388.5t-399.5 -152.5t-399.5 153t-159.5 388q2 238 160.5 390.5t398.5 152.5zM641 203q133 -2 222 86t91 225q0 137 -90 225t-223 90q-133 0 -222 -89t-89 -226t89 -224t222 -87zM920 1505h227l-266 -327h-170z
M559 1505h227l-266 -327h-170z" />
    <glyph glyph-name="OE" unicode="&#x152;" horiz-adv-x="2430" 
d="M1460 594v-358h875v-236l-1131 2q-133 -29 -254 -29q-385 0 -621.5 208t-236.5 535.5t236.5 535.5t621.5 208q131 0 254 -26h1110v-238h-854v-389h793v-213h-793zM950 211q137 0 252 37v938q-111 39 -252 39q-274 0 -439 -142.5t-165 -365.5q0 -225 165 -365.5
t439 -140.5z" />
    <glyph glyph-name="oe" unicode="&#x153;" horiz-adv-x="2103" 
d="M1499 1057q242 0 382 -149.5t140 -393.5q0 -16 -4 -86h-819q27 -106 120 -166.5t243 -60.5q193 0 333 90l48 -215q-156 -104 -373 -105q-342 0 -504 232h-6q-72 -109 -187.5 -170.5t-257.5 -61.5q-229 2 -380.5 155t-151.5 388q2 238 153.5 390.5t380.5 152.5
q139 0 255 -61.5t188 -168.5h6q72 106 185.5 168t248.5 62zM637 201q131 0 220 88t89 225t-88 226t-219 89t-220 -89t-89 -226t88 -225t219 -88zM1196 592h580q-6 104 -88 170.5t-201 66.5q-115 0 -193 -64t-98 -173z" />
    <glyph glyph-name="Racute" unicode="&#x154;" horiz-adv-x="1458" 
d="M1053 621q127 -45 176 -189l151 -432h-286l-148 410q-49 131 -235 131h-310v-541h-258v1434h684q217 0 354.5 -116t137.5 -310q0 -133 -71.5 -230.5t-194.5 -148.5v-8zM1055 975q0 98 -71 159.5t-183 61.5h-400v-448h400q113 0 183.5 63.5t70.5 163.5zM776 1913h252
l-278 -334h-193z" />
    <glyph glyph-name="racute" unicode="&#x155;" horiz-adv-x="782" 
d="M367 807q59 117 161.5 183.5t227.5 66.5l-2 -228q-152 0 -261.5 -92t-109.5 -256v-481h-244v1028h137l84 -221h7zM371 1509h252l-279 -333h-192z" />
    <glyph glyph-name="uni0156" unicode="&#x156;" horiz-adv-x="1458" 
d="M1053 621q127 -45 176 -189l151 -432h-286l-148 410q-49 131 -235 131h-310v-541h-258v1434h684q217 0 354.5 -116t137.5 -310q0 -133 -71.5 -230.5t-194.5 -148.5v-8zM1055 975q0 98 -71 159.5t-183 61.5h-400v-448h400q113 0 183.5 63.5t70.5 163.5zM526 -375
q70 8 110 50t40 108q0 57 -51 119l186 24q66 -70 66 -174q0 -121 -85 -194.5t-225 -79.5z" />
    <glyph glyph-name="uni0157" unicode="&#x157;" horiz-adv-x="821" 
d="M399 807q59 117 162 183.5t227 66.5l-2 -228q-152 0 -261 -92t-109 -256v-481h-244v1028h137l84 -221h6zM78 -375q70 8 109.5 50t39.5 108q0 57 -51 119l186 24q66 -70 66 -174q0 -121 -85 -194.5t-224 -79.5z" />
    <glyph glyph-name="Rcaron" unicode="&#x158;" horiz-adv-x="1458" 
d="M1053 621q127 -45 176 -189l151 -432h-286l-148 410q-49 131 -235 131h-310v-541h-258v1434h684q217 0 354.5 -116t137.5 -310q0 -133 -71.5 -230.5t-194.5 -148.5v-8zM1055 975q0 98 -71 159.5t-183 61.5h-400v-448h400q113 0 183.5 63.5t70.5 163.5zM727 1577h-182
l-248 334h178l158 -205h6l158 205h180z" />
    <glyph glyph-name="rcaron" unicode="&#x159;" horiz-adv-x="835" 
d="M418 807q59 117 161.5 183.5t227.5 66.5l-2 -228q-152 0 -261.5 -92t-109.5 -256v-481h-244v1028h138l84 -221h6zM569 1174h-182l-248 333h178l158 -204h6l158 204h180z" />
    <glyph glyph-name="Sacute" unicode="&#x15a;" horiz-adv-x="1343" 
d="M727 838q274 -57 403.5 -157.5t129.5 -277.5q0 -205 -159 -317.5t-421 -112.5q-147 0 -321.5 52.5t-290.5 128.5l98 204q240 -158 520 -157q129 0 216 50t87 138q0 76 -76.5 125t-265.5 90q-270 59 -401 159.5t-131 287t161.5 298t419.5 111.5q266 0 494 -129l-74 -217
q-205 117 -428 117q-147 0 -226 -52.5t-79 -125.5q0 -78 78 -127t266 -88zM743 1913h252l-278 -334h-193z" />
    <glyph glyph-name="sacute" unicode="&#x15b;" horiz-adv-x="1013" 
d="M932 283q0 -141 -112.5 -226.5t-289.5 -85.5q-256 0 -477 127l68 189q174 -121 391 -121q82 0 132 30.5t50 82.5q0 55 -46 84.5t-173 58.5q-184 45 -279.5 120.5t-95.5 209t106.5 219.5t321.5 86q90 0 200 -29t169 -59l-51 -183q-143 76 -316 76q-94 0 -142 -31.5
t-48 -78.5t50 -78t175 -62q193 -47 280 -121.5t87 -207.5zM578 1509h251l-278 -333h-193z" />
    <glyph glyph-name="Scircumflex" unicode="&#x15c;" horiz-adv-x="1343" 
d="M727 838q274 -57 403.5 -157.5t129.5 -277.5q0 -205 -159 -317.5t-421 -112.5q-147 0 -321.5 52.5t-290.5 128.5l98 204q240 -158 520 -157q129 0 216 50t87 138q0 76 -76.5 125t-265.5 90q-270 59 -401 159.5t-131 287t161.5 298t419.5 111.5q266 0 494 -129l-74 -217
q-205 117 -428 117q-147 0 -226 -52.5t-79 -125.5q0 -78 78 -127t266 -88zM827 1577l-159 205h-4l-158 -205h-180l249 334h183l248 -334h-179z" />
    <glyph glyph-name="scircumflex" unicode="&#x15d;" horiz-adv-x="1013" 
d="M932 283q0 -141 -112.5 -226.5t-289.5 -85.5q-256 0 -477 127l68 189q174 -121 391 -121q82 0 132 30.5t50 82.5q0 55 -46 84.5t-173 58.5q-184 45 -279.5 120.5t-95.5 209t106.5 219.5t321.5 86q90 0 200 -29t169 -59l-51 -183q-143 76 -316 76q-94 0 -142 -31.5
t-48 -78.5t50 -78t175 -62q193 -47 280 -121.5t87 -207.5zM655 1174l-159 204h-4l-158 -204h-180l249 333h183l248 -333h-179z" />
    <glyph glyph-name="Scedilla" unicode="&#x15e;" horiz-adv-x="1343" 
d="M758 -109q72 -8 124 -57t52 -121q0 -100 -75 -151t-195 -51q-104 0 -177 38l39 115q61 -33 125 -33q45 0 77 19.5t30 58.5q0 43 -38 70.5t-122 23.5l-14 62l55 110q-143 6 -303 57.5t-268 121.5l98 204q240 -158 520 -157q129 0 216 50t87 138q0 76 -76.5 125t-265.5 90
q-270 59 -401 159.5t-131 287t161.5 298t419.5 111.5q266 0 494 -129l-74 -217q-205 117 -428 117q-147 0 -226 -52.5t-79 -125.5q0 -78 78 -127t266 -88q274 -57 403.5 -157.5t129.5 -277.5q0 -178 -123 -287.5t-334 -133.5l-47 -84q0 -5 2 -7z" />
    <glyph glyph-name="scedilla" unicode="&#x15f;" horiz-adv-x="1013" 
d="M565 -109q72 -8 124 -57t52 -121q0 -100 -74.5 -151t-195.5 -51q-104 0 -176 38l39 115q61 -33 125 -33q45 0 76.5 19.5t29.5 58.5q0 43 -38 70.5t-121 23.5l-15 62l55 110q-213 16 -393 123l68 189q174 -121 391 -121q82 0 132 30.5t50 82.5q0 55 -46 84.5t-173 58.5
q-184 45 -279.5 120.5t-95.5 209t106.5 219.5t321.5 86q90 0 200 -29t169 -59l-51 -183q-143 76 -316 76q-94 0 -142 -31.5t-48 -78.5t50 -78t175 -62q193 -47 280 -121.5t87 -207.5q0 -125 -89 -207t-235 -101l-45 -77q0 -5 2 -7z" />
    <glyph glyph-name="Scaron" unicode="&#x160;" horiz-adv-x="1343" 
d="M727 838q274 -57 403.5 -157.5t129.5 -277.5q0 -205 -159 -317.5t-421 -112.5q-147 0 -321.5 52.5t-290.5 128.5l98 204q240 -158 520 -157q129 0 216 50t87 138q0 76 -76.5 125t-265.5 90q-270 59 -401 159.5t-131 287t161.5 298t419.5 111.5q266 0 494 -129l-74 -217
q-205 117 -428 117q-147 0 -226 -52.5t-79 -125.5q0 -78 78 -127t266 -88zM756 1577h-183l-247 334h178l158 -205h6l157 205h181z" />
    <glyph glyph-name="scaron" unicode="&#x161;" horiz-adv-x="1013" 
d="M932 283q0 -141 -112.5 -226.5t-289.5 -85.5q-256 0 -477 127l68 189q174 -121 391 -121q82 0 132 30.5t50 82.5q0 55 -46 84.5t-173 58.5q-184 45 -279.5 120.5t-95.5 209t106.5 219.5t321.5 86q90 0 200 -29t169 -59l-51 -183q-143 76 -316 76q-94 0 -142 -31.5
t-48 -78.5t50 -78t175 -62q193 -47 280 -121.5t87 -207.5zM580 1174h-183l-247 333h178l157 -204h7l157 204h180z" />
    <glyph glyph-name="uni0162" unicode="&#x162;" horiz-adv-x="1263" 
d="M502 0v1198h-457v236h1174v-236h-459v-1198h-47l-60 -102q0 -4 2 -7q72 -8 124 -57t52 -121q0 -100 -74.5 -151t-195.5 -51q-104 0 -176 38l39 115q61 -33 125 -33q45 0 76.5 19.5t29.5 58.5q0 43 -37.5 70.5t-121.5 23.5l-15 62l70 135h-49z" />
    <glyph glyph-name="uni0163" unicode="&#x163;" horiz-adv-x="876" 
d="M657 -109q72 -8 124.5 -57t52.5 -121q0 -100 -75 -151t-196 -51q-104 0 -176 38l39 115q61 -33 125 -33q45 0 76.5 19.5t29.5 58.5q0 43 -37.5 70.5t-121.5 23.5l-15 62l60 117q-143 29 -224 129t-81 251v459h-242v207h246l47 305h192v-305h408v-207h-408v-413
q0 -215 197 -215q100 0 188 32l23 -217q-152 -33 -191 -35l-43 -75q0 -5 2 -7z" />
    <glyph glyph-name="Tcaron" unicode="&#x164;" horiz-adv-x="1263" 
d="M502 0v1198h-457v236h1174v-236h-459v-1198h-258zM754 1577h-183l-247 334h178l157 -205h7l157 205h181z" />
    <glyph glyph-name="tcaron" unicode="&#x165;" horiz-adv-x="944" 
d="M678 193q100 0 188 32l23 -217q-162 -37 -238 -37q-190 0 -301.5 106.5t-111.5 284.5v459h-242v207h246l47 305h192v-305h408v-207h-408v-413q0 -215 197 -215zM772 1169l-41 148q70 8 110 50t40 108q0 57 -52 118l187 25q66 -70 65 -174q0 -121 -85 -195t-224 -80z" />
    <glyph glyph-name="Tbar" unicode="&#x166;" horiz-adv-x="1263" 
d="M45 1196v238h1174v-238h-457v-348h348v-236h-348v-612h-258v612h-348v236h348v348h-459z" />
    <glyph glyph-name="tbar" unicode="&#x167;" horiz-adv-x="878" 
d="M680 195q102 0 186 32l25 -217q-162 -37 -238 -37q-190 0 -301.5 106.5t-113.5 287.5v94h-242v184h242v178h-242v209h246l45 301h194v-301h408v-209h-408v-178h408v-184h-408v-51q0 -215 199 -215z" />
    <glyph glyph-name="Utilde" unicode="&#x168;" horiz-adv-x="1517" 
d="M758 -27q-268 0 -441.5 154t-173.5 399v908h258v-908q0 -143 99.5 -230t257 -87t258 87t100.5 230v908h258v-908q0 -246 -173 -399.5t-443 -153.5zM926 1614q-66 0 -172 63q-70 43 -105 43q-70 0 -88 -106l-129 28q10 111 62.5 171.5t130.5 60.5q63 0 157 -53
q92 -57 121 -58q70 0 86 109l127 -29q-8 -117 -59 -173t-131 -56z" />
    <glyph glyph-name="utilde" unicode="&#x169;" horiz-adv-x="1353" 
d="M971 502v526h243v-1028h-135l-78 205h-6q-61 -109 -165.5 -170.5t-231.5 -61.5q-199 0 -329 146.5t-128 374.5v534h242v-526q0 -131 84 -215t211 -86q125 0 209 84t84 217zM813 1210q-66 0 -172 64q-70 43 -104 43q-70 0 -88 -107l-130 29q10 111 62.5 171t130.5 60
q63 0 158 -53q92 -57 121 -57q70 0 86 108l127 -28q-8 -117 -59.5 -173.5t-131.5 -56.5z" />
    <glyph glyph-name="Umacron" unicode="&#x16a;" horiz-adv-x="1517" 
d="M758 -27q-268 0 -441.5 154t-173.5 399v908h258v-908q0 -143 99.5 -230t257 -87t258 87t100.5 230v908h258v-908q0 -246 -173 -399.5t-443 -153.5zM473 1819h582v-150h-582v150z" />
    <glyph glyph-name="umacron" unicode="&#x16b;" horiz-adv-x="1353" 
d="M971 502v526h243v-1028h-135l-78 205h-6q-61 -109 -165.5 -170.5t-231.5 -61.5q-199 0 -329 146.5t-128 374.5v534h242v-526q0 -131 84 -215t211 -86q125 0 209 84t84 217zM381 1415h582v-149h-582v149z" />
    <glyph glyph-name="Ubreve" unicode="&#x16c;" horiz-adv-x="1517" 
d="M758 -27q-268 0 -441.5 154t-173.5 399v908h258v-908q0 -143 99.5 -230t257 -87t258 87t100.5 230v908h258v-908q0 -246 -173 -399.5t-443 -153.5zM942 1890h141q-4 -141 -83.5 -227t-219.5 -86q-141 0 -221 86t-84 227h141q4 -74 48.5 -121t115.5 -47q70 0 114 47
t48 121z" />
    <glyph glyph-name="ubreve" unicode="&#x16d;" horiz-adv-x="1353" 
d="M971 502v526h243v-1028h-135l-78 205h-6q-61 -109 -165.5 -170.5t-231.5 -61.5q-199 0 -329 146.5t-128 374.5v534h242v-526q0 -131 84 -215t211 -86q125 0 209 84t84 217zM852 1487h141q-4 -141 -84 -227t-219 -86q-141 0 -221 86t-84 227h141q4 -74 48 -121t116 -47
q70 0 114 47t48 121z" />
    <glyph glyph-name="Uring" unicode="&#x16e;" horiz-adv-x="1517" 
d="M758 -27q-268 0 -441.5 154t-173.5 399v908h258v-908q0 -143 99.5 -230t257 -87t258 87t100.5 230v908h258v-908q0 -246 -173 -399.5t-443 -153.5zM870 1759q0 41 -26.5 71t-69.5 30q-41 0 -67.5 -30t-26.5 -71q0 -39 26.5 -67.5t67.5 -28.5q43 0 69.5 28.5t26.5 67.5z
M541 1757q0 90 64.5 150.5t172.5 60.5q104 0 167 -59.5t63 -149.5q0 -88 -64.5 -146.5t-167 -58.5t-169 58.5t-66.5 144.5z" />
    <glyph glyph-name="uring" unicode="&#x16f;" horiz-adv-x="1353" 
d="M971 502v526h243v-1028h-135l-78 205h-6q-61 -109 -165.5 -170.5t-231.5 -61.5q-199 0 -329 146.5t-128 374.5v534h242v-526q0 -131 84 -215t211 -86q125 0 209 84t84 217zM780 1356q0 41 -26.5 70.5t-69.5 29.5q-41 0 -67.5 -29.5t-26.5 -70.5q0 -39 26.5 -67.5
t67.5 -28.5q43 0 69.5 28.5t26.5 67.5zM451 1354q0 90 64.5 150.5t172.5 60.5q104 0 167 -59.5t63 -149.5q0 -88 -65 -146.5t-167 -58.5t-168.5 58.5t-66.5 144.5z" />
    <glyph glyph-name="Uhungarumlaut" unicode="&#x170;" horiz-adv-x="1517" 
d="M758 -27q-268 0 -441.5 154t-173.5 399v908h258v-908q0 -143 99.5 -230t257 -87t258 87t100.5 230v908h258v-908q0 -246 -173 -399.5t-443 -153.5zM1042 1909h228l-266 -328h-170zM682 1909h227l-266 -328h-170z" />
    <glyph glyph-name="uhungarumlaut" unicode="&#x171;" horiz-adv-x="1353" 
d="M971 502v526h243v-1028h-135l-78 205h-6q-61 -109 -165.5 -170.5t-231.5 -61.5q-199 0 -329 146.5t-128 374.5v534h242v-526q0 -131 84 -215t211 -86q125 0 209 84t84 217zM985 1505h227l-266 -327h-170zM625 1505h227l-266 -327h-170z" />
    <glyph glyph-name="Uogonek" unicode="&#x172;" horiz-adv-x="1517" 
d="M1374 526q0 -233 -157.5 -383.5t-405.5 -167.5q-68 -78 -68 -161q0 -53 34 -87t91 -34q59 0 113 22l37 -129q-86 -61 -205 -61q-113 0 -175.5 56.5t-62.5 164.5q0 125 91 234q-233 25 -378 173t-145 373v908h258v-908q0 -143 99.5 -230t257 -87t258 87t100.5 230v908h258
v-908z" />
    <glyph glyph-name="uogonek" unicode="&#x173;" horiz-adv-x="1359" 
d="M1075 10l-74 195h-6q-61 -109 -165.5 -170.5t-231.5 -61.5q-199 0 -329 146.5t-128 374.5v534h242v-526q0 -131 84 -215t211 -86q125 0 209 84t84 217v526h243v-1028q-92 -84 -92 -186q0 -53 34 -87t91 -34q59 0 113 22l37 -129q-86 -61 -205 -61q-113 0 -175.5 56.5
t-62.5 164.5q0 72 36 146.5t85 117.5z" />
    <glyph glyph-name="Wcircumflex" unicode="&#x174;" horiz-adv-x="2058" 
d="M1774 1434h272l-426 -1434h-299l-289 975h-8l-287 -975h-299l-426 1434h273l301 -1069h6l307 1069h258l307 -1069h9zM1188 1577l-160 205h-4l-158 -205h-180l250 334h182l248 -334h-178z" />
    <glyph glyph-name="wcircumflex" unicode="&#x175;" horiz-adv-x="1732" 
d="M1247 283l219 745h258l-315 -1028h-293l-246 700h-8l-246 -700h-292l-316 1028h258l219 -745h7l256 745h237l256 -745h6zM1028 1174l-160 204h-4l-157 -204h-181l250 333h182l248 -333h-178z" />
    <glyph glyph-name="Ycircumflex" unicode="&#x176;" horiz-adv-x="1363" 
d="M684 823l375 611h301l-553 -895v-539h-258v547l-545 887h301l373 -611h6zM838 1577l-160 205h-4l-158 -205h-180l250 334h182l248 -334h-178z" />
    <glyph glyph-name="ycircumflex" unicode="&#x177;" horiz-adv-x="1058" 
d="M827 1028h244l-420 -1116q-84 -225 -196.5 -310t-315.5 -85q-61 0 -139 18v225q78 -25 156 -24q100 0 160.5 50t107.5 171l-436 1071h258l299 -735h6zM688 1174l-160 204h-4l-157 -204h-181l250 333h182l248 -333h-178z" />
    <glyph glyph-name="Ydieresis" unicode="&#x178;" horiz-adv-x="1363" 
d="M684 823l375 611h301l-553 -895v-539h-258v547l-545 887h301l373 -611h6zM745 1757q0 57 38 95t96 38q55 0 92 -37.5t37 -95.5q0 -55 -37 -93t-92 -38q-57 0 -95.5 38t-38.5 93zM358 1757q0 57 39 95t95 38q53 0 89.5 -37.5t36.5 -95.5q0 -55 -35.5 -93t-90.5 -38
q-57 0 -95.5 39t-38.5 92z" />
    <glyph glyph-name="Zacute" unicode="&#x179;" horiz-adv-x="1337" 
d="M459 242v-6h803v-236h-1186v174l794 1016v6h-770v238h1141v-193zM739 1913h252l-278 -334h-193z" />
    <glyph glyph-name="zacute" unicode="&#x17a;" horiz-adv-x="1214" 
d="M455 197h671v-197h-1038v147l641 684h-598v197h954v-147zM649 1509h252l-278 -333h-193z" />
    <glyph glyph-name="Zdotaccent" unicode="&#x17b;" horiz-adv-x="1337" 
d="M459 242v-6h803v-236h-1186v174l794 1016v6h-770v238h1141v-193zM522 1755q0 57 38 95t95 38q55 0 91 -38t36 -95q0 -55 -35.5 -93t-91.5 -38q-57 0 -95 38t-38 93z" />
    <glyph glyph-name="zdotaccent" unicode="&#x17c;" horiz-adv-x="1214" 
d="M455 197h671v-197h-1038v147l641 684h-598v197h954v-147zM444 1352q0 57 38 95t96 38q55 0 91 -38t36 -95q0 -55 -36 -93t-91 -38q-57 0 -95.5 39t-38.5 92z" />
    <glyph glyph-name="Zcaron" unicode="&#x17d;" horiz-adv-x="1337" 
d="M459 242v-6h803v-236h-1186v174l794 1016v6h-770v238h1141v-193zM745 1577h-182l-248 334h179l157 -205h6l158 205h180z" />
    <glyph glyph-name="zcaron" unicode="&#x17e;" horiz-adv-x="1214" 
d="M455 197h671v-197h-1038v147l641 684h-598v197h954v-147zM672 1174h-183l-247 333h178l158 -204h6l157 204h181z" />
    <glyph glyph-name="longs" unicode="&#x17f;" horiz-adv-x="845" 
d="M700 1296q-207 0 -206 -215v-1081h-242v819h-242v209h242v96q0 178 115.5 285t306.5 107q100 0 235 -37l-22 -217q-83 34 -187 34z" />
    <glyph glyph-name="florin" unicode="&#x192;" horiz-adv-x="819" 
d="M299 1137q59 324 381 323q98 0 190 -24v-230q-72 18 -131 19q-78 0 -122 -40t-60 -132l-22 -129h256v-205h-295l-174 -930h-273l174 930h-182v205h219z" />
    <glyph glyph-name="Ohorn" unicode="&#x1a0;" horiz-adv-x="1865" 
d="M829 1460q377 0 580 -264q84 6 123 58.5t39 164.5v150h211v-162q0 -315 -291 -342q78 -166 78 -344q0 -328 -209 -538t-530.5 -210t-529.5 210t-208 538t207.5 533.5t529.5 205.5zM829.5 215q208.5 0 342 141.5t133.5 364.5t-132.5 360.5t-343.5 137.5
q-209 0 -341 -137.5t-132 -360.5t132.5 -364.5t341 -141.5z" />
    <glyph glyph-name="ohorn" unicode="&#x1a1;" horiz-adv-x="1484" 
d="M1200 516q-2 -238 -160.5 -390.5t-398.5 -152.5q-242 0 -400.5 153t-158.5 390q0 236 159.5 389.5t399.5 153.5q141 0 260 -57.5t193 -159.5q96 33 96 202v150h213v-162q0 -283 -234 -334q31 -92 31 -182zM330 516q0 -137 89 -226t222 -89t222 89t89 226t-89 225t-222 88
t-222 -88t-89 -225z" />
    <glyph glyph-name="Uhorn" unicode="&#x1af;" horiz-adv-x="1634" 
d="M760 -27q-268 0 -442.5 154t-174.5 399v908h258v-908q0 -143 100.5 -230t258.5 -87t258 87t100 230v908h258v-222q80 10 112 59.5t32 162.5v133h213v-146q0 -346 -357 -346v-549q0 -246 -174 -399.5t-442 -153.5z" />
    <glyph glyph-name="uhorn" unicode="&#x1b0;" horiz-adv-x="1501" 
d="M1350 1165h213v-161q0 -342 -349 -347v-657h-135l-80 207h-4q-61 -111 -165.5 -173.5t-231.5 -60.5q-199 0 -329 146.5t-130 374.5v536h244v-528q0 -131 85 -216t210 -85t209 84t84 217v528h243v-233q74 12 105 60t31 159v149z" />
    <glyph glyph-name="Gcaron" unicode="&#x1e6;" horiz-adv-x="1540" 
d="M840 584v209h600v-639q-264 -180 -557 -181q-354 0 -572.5 201t-218.5 528.5t221.5 542.5t569.5 215q285 0 479 -112q0 -2 -40 -111t-40 -113q-164 100 -389 101q-240 0 -390.5 -149.5t-150.5 -373.5q0 -221 147.5 -357t381.5 -136q176 0 301 84v291h-342zM907 1577h-182
l-248 334h178l158 -205h6l158 205h180z" />
    <glyph glyph-name="gcaron" unicode="&#x1e7;" horiz-adv-x="1267" 
d="M1184 -76q-2 -162 -158 -285.5t-424 -121.5q-236 0 -370 83t-134 222q0 127 127 207v4q-145 63 -145 192q0 143 143 236v4q-82 92 -82 217q0 166 135.5 270.5t354.5 104.5q127 0 233 -41q61 76 151.5 115.5t164.5 29.5v-200q-86 8 -164 -35v-4q104 -100 104 -240
q0 -164 -136 -267.5t-355 -101.5q-152 0 -273 56q-41 -33 -41 -78q0 -90 172 -90l316 -2q381 -1 381 -275zM326 -119q0 -86 83 -130t209 -44q131 0 226.5 52.5t95.5 123.5q0 119 -192 119h-361q-61 -51 -61 -121zM631 866q-111 0 -178.5 -53t-67.5 -137t68.5 -136.5
t177.5 -52.5q111 0 177 52.5t69 136.5q0 84 -68.5 137t-177.5 53zM788 1178h-182l-248 333h179l157 -204h6l158 204h180z" />
    <glyph glyph-name="uni01F4" unicode="&#x1f4;" horiz-adv-x="1540" 
d="M840 584v209h600v-639q-264 -180 -557 -181q-354 0 -572.5 201t-218.5 528.5t221.5 542.5t569.5 215q285 0 479 -112q0 -2 -40 -111t-40 -113q-164 100 -389 101q-240 0 -390.5 -149.5t-150.5 -373.5q0 -221 147.5 -357t381.5 -136q176 0 301 84v291h-342zM901 1890h252
l-279 -334h-192z" />
    <glyph glyph-name="uni01F5" unicode="&#x1f5;" horiz-adv-x="1267" 
d="M1184 -76q-2 -162 -158 -285.5t-424 -121.5q-236 0 -370 83t-134 222q0 127 127 207v4q-145 63 -145 192q0 143 143 236v4q-82 92 -82 217q0 166 135.5 270.5t354.5 104.5q127 0 233 -41q61 76 151.5 115.5t164.5 29.5v-200q-86 8 -164 -35v-4q104 -100 104 -240
q0 -164 -136 -267.5t-355 -101.5q-152 0 -273 56q-41 -33 -41 -78q0 -90 172 -90l316 -2q381 -1 381 -275zM326 -119q0 -86 83 -130t209 -44q131 0 226.5 52.5t95.5 123.5q0 119 -192 119h-361q-61 -51 -61 -121zM631 866q-111 0 -178.5 -53t-67.5 -137t68.5 -136.5
t177.5 -52.5q111 0 177 52.5t69 136.5q0 84 -68.5 137t-177.5 53zM719 1509h252l-279 -333h-192z" />
    <glyph glyph-name="Aringacute" unicode="&#x1fa;" 
d="M596 1434h285l589 -1434h-292l-103 272h-674l-102 -272h-295zM500 1737q0 80 49 135l174 223h207l-150 -151q86 -12 136.5 -68.5t50.5 -136.5q0 -88 -64.5 -146.5t-167 -58.5t-169 58.5t-66.5 144.5zM733 1133l-254 -654h516l-254 654h-8zM829 1739q0 41 -26.5 70.5
t-69.5 29.5q-41 0 -67.5 -29.5t-26.5 -70.5q0 -39 26.5 -68t67.5 -29q43 0 69.5 29t26.5 68z" />
    <glyph glyph-name="aringacute" unicode="&#x1fb;" horiz-adv-x="1226" 
d="M86 305q0 154 120 250t359 96q152 0 281 -39q0 219 -291 219q-74 0 -155 -18t-126 -35l-45 -18l-71 201q4 4 55 25.5t154.5 46t203.5 24.5q268 0 392 -110.5t124 -352.5v-594h-122l-68 158h-2q-115 -184 -395 -185q-184 0 -299 93.5t-115 238.5zM543 1718h207l-150 -151
q86 -12 136 -68.5t50 -136.5q0 -88 -64.5 -146.5t-166.5 -58.5t-169 58.5t-67 144.5q0 80 50 135zM836 446q-96 35 -229.5 35t-205 -46t-71.5 -117.5t57 -114.5t168 -43q121 0 201 81t80 181v24zM649 1362q0 41 -26.5 70.5t-69.5 29.5q-41 0 -67.5 -29.5t-26.5 -70.5
q0 -39 26.5 -67.5t67.5 -28.5q43 0 69.5 28.5t26.5 67.5z" />
    <glyph glyph-name="AEacute" unicode="&#x1fc;" horiz-adv-x="2277" 
d="M1307 594v-358h874v-236h-1132v270h-564l-180 -270h-303l973 1434h1186v-238h-854v-389h792v-213h-792zM614 479h435v654h-7zM1354 1913h252l-279 -334h-192z" />
    <glyph glyph-name="aeacute" unicode="&#x1fd;" horiz-adv-x="2043" 
d="M1962 530q0 -18 -8 -104h-815q27 -104 120 -164.5t240 -60.5q205 0 346 90l37 -215q-160 -104 -375 -105q-180 0 -315 69t-207 191h-4q-129 -258 -463 -258q-190 0 -311 96.5t-121 241.5q0 154 123 247t373 93q137 0 276 -41v4q0 104 -79 162t-224 58q-74 0 -156 -18.5
t-125 -37.5l-45 -18l-71 201q4 4 55 25.5t154.5 46t203.5 24.5q348 0 463 -187h6q156 186 404 187q240 0 379 -142.5t139 -384.5zM848 414v37q-115 41 -248 41q-135 0 -202.5 -48.5t-67.5 -124.5q0 -72 61.5 -117.5t169.5 -45.5q123 0 205 74.5t82 183.5zM1135 592h579
q-4 113 -84 175t-198 62q-117 0 -195.5 -64t-101.5 -173zM1143 1509h252l-279 -333h-192z" />
    <glyph glyph-name="Oslashacute" unicode="&#x1fe;" horiz-adv-x="1638" 
d="M1307 1282q240 -213 239 -565q0 -326 -205.5 -535t-521.5 -209q-162 0 -303 62l-78 -121l-184 117l76 121q-238 215 -238 565q0 326 206 534.5t521 208.5q162 0 303 -59l76 121l186 -117zM350 717q0 -207 119 -348l522 825q-88 31 -172 31q-205 0 -337 -143.5
t-132 -364.5zM819 211q207 0 338 141.5t131 364.5q0 211 -119 348l-522 -823q76 -31 172 -31zM903 1913h252l-278 -334h-193z" />
    <glyph glyph-name="oslashacute" unicode="&#x1ff;" horiz-adv-x="1280" 
d="M1014 928q184 -156 184 -414q0 -236 -159.5 -388.5t-399.5 -152.5q-111 2 -209 37l-53 -88l-156 101l49 77q-188 156 -188 414q0 238 159.5 390.5t399.5 152.5q115 0 213 -37l53 84l156 -98zM307 514q0 -135 82 -227l348 551q-47 12 -96 12q-143 0 -238.5 -94.5
t-95.5 -241.5zM639 178q143 0 238.5 95.5t95.5 240.5q0 135 -80 225l-346 -549q43 -12 92 -12zM739 1509h252l-278 -333h-193z" />
    <glyph glyph-name="uni0218" unicode="&#x218;" horiz-adv-x="1343" 
d="M727 838q274 -57 403.5 -157.5t129.5 -277.5q0 -205 -159 -317.5t-421 -112.5q-147 0 -321.5 52.5t-290.5 128.5l98 204q240 -158 520 -157q129 0 216 50t87 138q0 76 -76.5 125t-265.5 90q-270 59 -401 159.5t-131 287t161.5 298t419.5 111.5q266 0 494 -129l-74 -217
q-205 117 -428 117q-147 0 -226 -52.5t-79 -125.5q0 -78 78 -127t266 -88zM479 -375q70 8 110 50t40 108q0 57 -51 119l186 24q66 -70 65 -174q0 -121 -85 -194.5t-224 -79.5z" />
    <glyph glyph-name="uni0219" unicode="&#x219;" horiz-adv-x="1013" 
d="M932 283q0 -141 -112.5 -226.5t-289.5 -85.5q-256 0 -477 127l68 189q174 -121 391 -121q82 0 132 30.5t50 82.5q0 55 -46 84.5t-173 58.5q-184 45 -279.5 120.5t-95.5 209t106.5 219.5t321.5 86q90 0 200 -29t169 -59l-51 -183q-143 76 -316 76q-94 0 -142 -31.5
t-48 -78.5t50 -78t175 -62q193 -47 280 -121.5t87 -207.5zM268 -375q70 8 110 50t40 108q0 57 -51 119l186 24q66 -70 65 -174q0 -121 -84.5 -194.5t-224.5 -79.5z" />
    <glyph glyph-name="uni021A" unicode="&#x21a;" horiz-adv-x="1263" 
d="M502 0v1198h-457v236h1174v-236h-459v-1198h-258zM424 -375q70 8 109.5 50t39.5 108q0 57 -51 119l187 24q66 -70 65 -174q0 -121 -85 -194.5t-224 -79.5z" />
    <glyph glyph-name="uni021B" unicode="&#x21b;" horiz-adv-x="876" 
d="M678 193q100 0 188 32l23 -217q-162 -37 -238 -37q-190 0 -301.5 106.5t-111.5 284.5v459h-242v207h246l47 305h192v-305h408v-207h-408v-413q0 -215 197 -215zM410 -375q70 8 109.5 50t39.5 108q0 57 -51 119l186 24q66 -70 66 -174q0 -121 -85 -194.5t-224 -79.5z" />
    <glyph glyph-name="uni021C" unicode="&#x21c;" horiz-adv-x="1067" 
d="M571 692q184 -16 311.5 -122.5t125.5 -299.5q0 -201 -138.5 -365.5t-347.5 -255.5t-444 -110l-27 240q100 8 214 41t225.5 88t184.5 147t73 201q0 129 -95.5 202.5t-251.5 69.5q-109 0 -225 -36l-35 204q498 119 498 351q0 96 -77 148t-185 54q-168 2 -330 -96l-49 182
q188 125 430 125q195 0 325 -97t130 -271q0 -129 -89 -228.5t-223 -161.5v-10z" />
    <glyph glyph-name="uni0232" unicode="&#x232;" horiz-adv-x="1363" 
d="M684 823l375 611h301l-553 -895v-539h-258v547l-545 887h301l373 -611h6zM389 1819h582v-150h-582v150z" />
    <glyph glyph-name="uni0233" unicode="&#x233;" horiz-adv-x="1058" 
d="M827 1028h244l-420 -1116q-84 -225 -196.5 -310t-315.5 -85q-61 0 -139 18v225q78 -25 156 -24q100 0 160.5 50t107.5 171l-436 1071h258l299 -735h6zM225 1415h582v-149h-582v149z" />
    <glyph glyph-name="uni0237" unicode="&#x237;" horiz-adv-x="497" 
d="M113 -53v1081h241v-1124q0 -178 -112.5 -284.5t-302.5 -106.5q-70 0 -164 16l16 217q57 -14 119 -14q201 0 203 215z" />
    <glyph glyph-name="circumflex" unicode="&#x2c6;" horiz-adv-x="626" 
d="M475 1174l-160 204h-4l-157 -204h-181l250 333h183l247 -333h-178z" />
    <glyph glyph-name="caron" unicode="&#x2c7;" horiz-adv-x="626" 
d="M403 1174h-182l-248 333h179l157 -204h6l158 204h180z" />
    <glyph glyph-name="uni02C9" unicode="&#x2c9;" horiz-adv-x="528" 
d="M-27 1415h582v-149h-582v149z" />
    <glyph glyph-name="breve" unicode="&#x2d8;" horiz-adv-x="555" 
d="M440 1487h142q-4 -141 -84 -227t-219 -86q-141 0 -221.5 86t-84.5 227h142q4 -74 48 -121t116 -47q70 0 113.5 47t47.5 121z" />
    <glyph glyph-name="dotaccent" unicode="&#x2d9;" horiz-adv-x="227" 
d="M-16 1352q0 57 37.5 95t95.5 38q55 0 91 -38t36 -95q0 -55 -36 -93t-91.5 -38t-94 39t-38.5 92z" />
    <glyph glyph-name="ring" unicode="&#x2da;" horiz-adv-x="413" 
d="M303 1358q0 41 -26.5 70.5t-69.5 29.5q-41 0 -67.5 -29.5t-26.5 -70.5q0 -39 26.5 -67.5t67.5 -28.5q43 0 69.5 28.5t26.5 67.5zM-27 1356q0 90 64.5 150.5t173.5 60.5q104 0 166.5 -59.5t62.5 -149.5q0 -88 -64.5 -146.5t-167 -58.5t-169 58.5t-66.5 144.5z" />
    <glyph glyph-name="ogonek" unicode="&#x2db;" horiz-adv-x="389" 
d="M94 10l139 -10q-92 -84 -92 -186q0 -53 34 -87t91 -34q59 0 113 22l37 -129q-86 -61 -205 -61q-113 0 -175.5 56.5t-62.5 164.5q0 72 36 146.5t85 117.5z" />
    <glyph glyph-name="tilde" unicode="&#x2dc;" horiz-adv-x="630" 
d="M467 1210q-66 0 -172 64q-70 43 -105 43q-70 0 -88 -107l-129 29q10 111 62.5 171t130.5 60q63 0 158 -53q92 -57 120 -57q70 0 86 108l127 -28q-8 -117 -59 -173.5t-131 -56.5z" />
    <glyph glyph-name="hungarumlaut" unicode="&#x2dd;" horiz-adv-x="743" 
d="M543 1505h227l-266 -327h-170zM182 1505h228l-267 -327h-170z" />
    <glyph glyph-name="gravecomb" unicode="&#x300;" horiz-adv-x="415" 
d="M-27 1509h250l219 -333h-190z" />
    <glyph glyph-name="acutecomb" unicode="&#x301;" horiz-adv-x="417" 
d="M193 1509h251l-278 -333h-193z" />
    <glyph glyph-name="uni0302" unicode="&#x302;" horiz-adv-x="626" 
d="M475 1174l-160 204h-4l-157 -204h-181l250 333h183l247 -333h-178z" />
    <glyph glyph-name="tildecomb" unicode="&#x303;" horiz-adv-x="630" 
d="M467 1210q-66 0 -172 64q-70 43 -105 43q-70 0 -88 -107l-129 29q10 111 62.5 171t130.5 60q63 0 158 -53q92 -57 120 -57q70 0 86 108l127 -28q-8 -117 -59 -173.5t-131 -56.5z" />
    <glyph glyph-name="uni0304" unicode="&#x304;" horiz-adv-x="528" 
d="M-27 1415h582v-149h-582v149z" />
    <glyph glyph-name="uni0306" unicode="&#x306;" horiz-adv-x="555" 
d="M-27 1487h142q4 -74 48 -121t113 -47q72 0 116 47t48 121h142q-4 -141 -84 -227t-222 -86q-139 0 -219 86t-84 227z" />
    <glyph glyph-name="uni0307" unicode="&#x307;" horiz-adv-x="206" 
d="M-27 1352q0 57 38 95t95 38q55 0 91 -38t36 -95q0 -55 -35.5 -93t-91.5 -38q-57 0 -95 39t-38 92z" />
    <glyph glyph-name="uni0308" unicode="&#x308;" horiz-adv-x="595" 
d="M360 1354q0 57 38 95t96 38q55 0 92 -38t37 -95q0 -55 -37 -93t-92 -38q-57 0 -95.5 38t-38.5 93zM-27 1354q0 57 39 95t94 38q53 0 90 -38t37 -95q0 -55 -35.5 -93t-91.5 -38q-57 0 -95 38t-38 93z" />
    <glyph glyph-name="uni030A" unicode="&#x30a;" horiz-adv-x="413" 
d="M303 1356q0 41 -26.5 70.5t-69.5 29.5q-41 0 -67.5 -29.5t-26.5 -70.5q0 -39 26.5 -67.5t67.5 -28.5q43 0 69.5 28.5t26.5 67.5zM-27 1354q0 90 64.5 150.5t173.5 60.5q104 0 166.5 -59.5t62.5 -149.5q0 -88 -64.5 -146.5t-167 -58.5t-169 58.5t-66.5 144.5z" />
    <glyph glyph-name="uni030B" unicode="&#x30b;" horiz-adv-x="743" 
d="M543 1505h227l-266 -327h-170zM182 1505h228l-267 -327h-170z" />
    <glyph glyph-name="uni030C" unicode="&#x30c;" horiz-adv-x="626" 
d="M403 1174h-182l-248 333h179l157 -204h6l158 204h180z" />
    <glyph glyph-name="uni0326" unicode="&#x326;" horiz-adv-x="296" 
d="M14 -522l-41 147q70 8 110 50t40 108q0 57 -51 119l186 24q66 -70 66 -174q0 -121 -85.5 -194.5t-224.5 -79.5z" />
    <glyph glyph-name="uni0327" unicode="&#x327;" horiz-adv-x="393" 
d="M244 -109q72 -8 124 -57t52 -121q0 -100 -75 -151t-195 -51q-104 0 -177 38l39 115q61 -33 125 -33q45 0 77 19.5t30 58.5q0 43 -38 70.5t-122 23.5l-14 62l71 139h162l-61 -106q0 -5 2 -7z" />
    <glyph glyph-name="uni0328" unicode="&#x328;" horiz-adv-x="389" 
d="M94 10l139 -10q-92 -84 -92 -186q0 -53 34 -87t91 -34q59 0 113 22l37 -129q-86 -61 -205 -61q-113 0 -175.5 56.5t-62.5 164.5q0 72 36 146.5t85 117.5z" />
    <glyph glyph-name="uni0344" unicode="&#x344;" horiz-adv-x="921" 
d="M707 1348q0 51 35.5 85.5t87 34.5t85 -34.5t33.5 -86t-34.5 -86t-88.5 -34.5q-49 0 -83.5 36t-34.5 85zM412 1493h256l-226 -297h-194zM-27 1348q0 51 36 85.5t89 34.5q49 0 83 -34.5t34 -86t-34 -86t-85 -34.5t-87 36t-36 85z" />
    <glyph glyph-name="uni0374" unicode="&#x374;" horiz-adv-x="288" 
d="M86 1534h229l-168 -342h-174z" />
    <glyph glyph-name="uni0375" unicode="&#x375;" horiz-adv-x="391" 
d="M188 33h230l-168 -342h-174z" />
    <glyph glyph-name="uni037E" unicode="&#x37e;" horiz-adv-x="503" 
d="M246 754q-63 0 -108.5 46t-45.5 107.5t45 105.5t109 44q61 0 106 -44t45 -105.5t-45 -107.5t-106 -46zM242 258q70 0 118 -52t48 -143q0 -104 -52.5 -196t-142.5 -156l-104 84q49 25 94 79t55 106q-8 -6 -37 -7q-55 0 -92 38t-37 98q0 61 44.5 105t105.5 44z" />
    <glyph glyph-name="tonos" unicode="&#x384;" horiz-adv-x="503" 
d="M283 1534h229l-168 -342h-174z" />
    <glyph glyph-name="dieresistonos" unicode="&#x385;" horiz-adv-x="1351" 
d="M922 1348q0 51 35.5 85.5t87 34.5t85 -34.5t33.5 -86t-34.5 -86t-88.5 -34.5q-49 0 -83.5 36t-34.5 85zM627 1493h256l-226 -297h-194zM188 1348q0 51 36 85.5t89 34.5q49 0 83 -34.5t34 -86t-34 -86t-85 -34.5t-87 36t-36 85z" />
    <glyph glyph-name="Alphatonos" unicode="&#x386;" 
d="M596 1434h285l589 -1434h-292l-103 272h-674l-102 -272h-295zM733 1133l-254 -654h516l-254 654h-8zM231 1475h230l-168 -342h-174z" />
    <glyph glyph-name="anoteleia" unicode="&#x387;" horiz-adv-x="456" 
d="M229 639q-63 0 -108 46t-45 107.5t45 105.5t108 44q61 0 106.5 -44t45.5 -105.5t-45.5 -107.5t-106.5 -46z" />
    <glyph glyph-name="Epsilontonos" unicode="&#x388;" horiz-adv-x="1587" 
d="M63 1475h230l-168 -342h-174zM621 596v-360h874v-236h-1133v1434h1113v-236h-854v-391h792v-211h-792z" />
    <glyph glyph-name="Etatonos" unicode="&#x389;" horiz-adv-x="1718" 
d="M63 1475h230l-168 -342h-174zM1317 827v607h258v-1434h-258v580h-723v-580h-258v1434h258v-607h723z" />
    <glyph glyph-name="Iotatonos" unicode="&#x38a;" horiz-adv-x="739" 
d="M63 1475h230l-168 -342h-174zM338 0v1434h258v-1434h-258z" />
    <glyph glyph-name="Omicrontonos" unicode="&#x38c;" horiz-adv-x="1742" 
d="M111 1475h229l-168 -342h-174zM923.5 1460q315.5 0 521.5 -209t206 -534.5t-206 -534.5t-521.5 -209t-522 210t-206.5 533.5t206.5 533.5t522 210zM923.5 209q204.5 0 337 143.5t132.5 364.5t-132.5 364.5t-337 143.5t-336.5 -143.5t-132 -364.5t132 -364.5t336.5 -143.5
z" />
    <glyph glyph-name="Upsilontonos" unicode="&#x38e;" horiz-adv-x="1697" 
d="M1583 1462l37 -233q-141 -25 -244.5 -114t-158 -217t-79 -259t-24.5 -268v-371h-240v371q0 137 -24.5 268t-77.5 259t-156.5 217t-244.5 114l35 233q223 -10 375.5 -183t209.5 -423h8q57 250 209 423t375 183zM113 1475h229l-168 -342h-174z" />
    <glyph glyph-name="Omegatonos" unicode="&#x38f;" horiz-adv-x="1757" 
d="M1386 246v-8h263v-238h-607v213q160 47 270.5 199.5t110.5 326.5q0 231 -128 358.5t-341 127.5t-341 -127t-128 -359q0 -174 111 -326.5t270 -199.5v-213h-604v238h258v8q-137 82 -215 231.5t-78 319.5q0 297 204 480t523.5 183t523 -183t203.5 -480q0 -170 -78 -319.5
t-217 -231.5zM150 1475h229l-168 -342h-174z" />
    <glyph glyph-name="iotadieresistonos" unicode="&#x390;" horiz-adv-x="712" 
d="M602 1348q0 51 36 85.5t87 34.5t85 -34.5t34 -86t-35 -86t-88 -34.5q-49 0 -84 36t-35 85zM307 1493h256l-225 -297h-195zM-131 1348q0 51 36 85.5t89 34.5q49 0 83 -34.5t34 -86t-34 -86t-85 -34.5t-87 36t-36 85zM549 193q33 0 90 14l18 -217q-82 -16 -137 -17
q-340 -4 -340 328v729h242v-680q0 -84 27.5 -120.5t99.5 -36.5z" />
    <glyph glyph-name="Alpha" unicode="&#x391;" 
d="M596 1434h285l589 -1434h-292l-103 272h-674l-102 -272h-295zM733 1133l-254 -654h516l-254 654h-8z" />
    <glyph glyph-name="Beta" unicode="&#x392;" horiz-adv-x="1454" 
d="M1065 756q135 -39 214 -134.5t79 -226.5q0 -172 -137.5 -283.5t-348.5 -111.5h-729v1434h686q205 0 333 -102.5t128 -266.5q0 -209 -225 -301v-8zM860 229q106 0 174 55.5t68 143.5t-67.5 142.5t-174.5 54.5h-459v-396h459zM805 1204h-404v-381h404q98 0 161.5 54.5
t63.5 138.5t-63.5 136t-161.5 52z" />
    <glyph glyph-name="Gamma" unicode="&#x393;" horiz-adv-x="1220" 
d="M1174 1434v-236h-773v-1198h-258v1434h1031z" />
    <glyph glyph-name="uni0394" unicode="&#x394;" horiz-adv-x="1261" 
d="M489 1434h285l483 -1235v-199h-1253v197zM283 217h700l-348 916h-6z" />
    <glyph glyph-name="Epsilon" unicode="&#x395;" horiz-adv-x="1368" 
d="M401 596v-360h875v-236h-1133v1434h1112v-236h-854v-391h793v-211h-793z" />
    <glyph glyph-name="Zeta" unicode="&#x396;" horiz-adv-x="1337" 
d="M459 242v-6h803v-236h-1186v174l794 1016v6h-770v238h1141v-193z" />
    <glyph glyph-name="Eta" unicode="&#x397;" horiz-adv-x="1523" 
d="M1124 827v607h258v-1434h-258v580h-723v-580h-258v1434h258v-607h723z" />
    <glyph glyph-name="Theta" unicode="&#x398;" horiz-adv-x="1640" 
d="M821.5 1460q315.5 0 521 -210t205.5 -533.5t-205.5 -533.5t-521 -210t-522.5 210t-207 533.5t207 533.5t522.5 210zM821 209q205 0 336 143.5t131 364.5t-131 364.5t-336 143.5t-337 -143.5t-132 -364.5t132 -364.5t337 -143.5zM498 614v205h645v-205h-645z" />
    <glyph glyph-name="Iota" unicode="&#x399;" horiz-adv-x="544" 
d="M143 0v1434h258v-1434h-258z" />
    <glyph glyph-name="Kappa" unicode="&#x39a;" horiz-adv-x="1499" 
d="M1417 1434l-573 -586l633 -848h-316l-512 676l-248 -246v-430h-258v1434h258v-703h7l692 703h317z" />
    <glyph glyph-name="Lambda" unicode="&#x39b;" 
d="M594 1434h285l591 -1434h-292l-437 1116h-8l-436 -1116h-293z" />
    <glyph glyph-name="Mu" unicode="&#x39c;" horiz-adv-x="1841" 
d="M401 1024v-1024h-258v1434h332l443 -1008h6l442 1008h332v-1434h-258v1024h-8l-441 -1024h-141l-440 1024h-9z" />
    <glyph glyph-name="Nu" unicode="&#x39d;" horiz-adv-x="1527" 
d="M1384 0h-223l-751 975h-9v-975h-258v1434h224l753 -977h6v977h258v-1434z" />
    <glyph glyph-name="Xi" unicode="&#x39e;" horiz-adv-x="1304" 
d="M92 0v236h1118v-236h-1118zM92 1198v236h1118v-236h-1118zM168 823h969v-213h-969v213z" />
    <glyph glyph-name="Omicron" unicode="&#x39f;" horiz-adv-x="1640" 
d="M821.5 1460q315.5 0 521 -209t205.5 -534.5t-205.5 -534.5t-521 -209t-522.5 210t-207 533.5t207 533.5t522.5 210zM821 209q205 0 337 143.5t132 364.5t-132 364.5t-337 143.5t-337 -143.5t-132 -364.5t132 -364.5t337 -143.5z" />
    <glyph glyph-name="Pi" unicode="&#x3a0;" horiz-adv-x="1495" 
d="M143 0v1434h1211v-1434h-258v1198h-695v-1198h-258z" />
    <glyph glyph-name="Rho" unicode="&#x3a1;" horiz-adv-x="1415" 
d="M856 459h-455v-459h-258v1434h713q219 0 364.5 -141.5t145.5 -348.5q0 -213 -144.5 -349t-365.5 -136zM840 1196h-439v-508h439q121 0 194.5 75t73.5 181.5t-73.5 179t-194.5 72.5z" />
    <glyph glyph-name="Sigma" unicode="&#x3a3;" horiz-adv-x="1302" 
d="M817 717l-362 -481h755v-236h-1118v188l404 529l-383 530v187h1077v-236h-715z" />
    <glyph glyph-name="Tau" unicode="&#x3a4;" horiz-adv-x="1263" 
d="M502 0v1198h-457v236h1174v-236h-459v-1198h-258z" />
    <glyph glyph-name="Upsilon" unicode="&#x3a5;" horiz-adv-x="1257" 
d="M1217 1462l36 -233q-141 -25 -244.5 -114t-157.5 -217t-78.5 -259t-24.5 -268v-371h-240v371q0 137 -24.5 268t-78 259t-157 217t-244.5 114l35 233q223 -10 375.5 -183t210.5 -423h8q57 250 209 423t375 183z" />
    <glyph glyph-name="Phi" unicode="&#x3a6;" horiz-adv-x="1640" 
d="M938 1366q281 -33 445.5 -211t164.5 -438t-165.5 -437.5t-444.5 -209.5v-125h-246v125q-276 37 -438 213t-162 434q0 260 163 436t437 211v125h246v-123zM692 285v864q-162 -33 -251 -149.5t-89 -282.5t89 -281.5t251 -150.5zM938 283q166 33 258 148.5t92 285.5
t-92 285.5t-258 148.5v-868z" />
    <glyph glyph-name="Chi" unicode="&#x3a7;" horiz-adv-x="1415" 
d="M1380 1434l-485 -699l508 -721h-309l-385 539h-7l-383 -539h-309l506 721l-485 699h309l362 -516h7l362 516h309z" />
    <glyph glyph-name="Psi" unicode="&#x3a8;" horiz-adv-x="1609" 
d="M1219 887v547h247v-547q0 -233 -149.5 -369.5t-388.5 -165.5v-352h-246v352q-242 29 -390.5 165t-148.5 370v547h246v-547q0 -246 293 -295v842h246v-842q291 49 291 295z" />
    <glyph glyph-name="uni03A9" unicode="&#x3a9;" horiz-adv-x="1638" 
d="M1251 246v-8h262v-238h-606v213q160 47 270.5 199.5t110.5 326.5q0 231 -128 358.5t-341 127.5t-341 -127t-128 -359q0 -174 110.5 -326.5t270.5 -199.5v-213h-604v238h258v8q-137 82 -215 231.5t-78 319.5q0 297 204 480t523.5 183t523 -183t203.5 -480
q0 -170 -78 -319.5t-217 -231.5z" />
    <glyph glyph-name="Iotadieresis" unicode="&#x3aa;" horiz-adv-x="483" 
d="M305 1757q0 57 38 95t95 38q55 0 92 -37.5t37 -95.5q0 -55 -36.5 -93t-92.5 -38q-57 0 -95 38t-38 93zM-82 1757q0 57 39 95t94 38q53 0 90 -37.5t37 -95.5q0 -55 -36 -93t-91 -38t-94 39t-39 92zM121 0v1434h258v-1434h-258z" />
    <glyph glyph-name="Upsilondieresis" unicode="&#x3ab;" horiz-adv-x="1257" 
d="M1217 1462l36 -233q-141 -25 -244.5 -114t-157.5 -217t-78.5 -259t-24.5 -268v-371h-240v371q0 137 -24.5 268t-78 259t-157 217t-244.5 114l35 233q223 -10 375.5 -183t210.5 -423h8q57 250 209 423t375 183zM684 1757q0 57 38 95t95 38q55 0 92 -37.5t37 -95.5
q0 -55 -37 -93t-92 -38q-57 0 -95 38t-38 93zM297 1757q0 57 39 95t94 38q53 0 90 -37.5t37 -95.5q0 -55 -36 -93t-91 -38q-57 0 -95 39t-38 92z" />
    <glyph glyph-name="alphatonos" unicode="&#x3ac;" horiz-adv-x="1380" 
d="M1268 201q39 0 71 16l23 -219q-49 -25 -158 -25q-94 0 -157.5 56.5t-77.5 146.5h-6q-141 -203 -392 -203q-211 0 -350 153t-139 390q0 236 139 388.5t350 152.5q135 0 246 -66.5t174 -185.5h6l33 225h244l-80 -561q0 -8 3 -86t5 -86q5 -96 66 -96zM639 201q133 0 223 88
t90 225t-89 226t-222 89t-223 -89t-90 -226t89 -225t222 -88zM725 1534h229l-168 -342h-174z" />
    <glyph glyph-name="epsilontonos" unicode="&#x3ad;" horiz-adv-x="1126" 
d="M686 164q78 0 194.5 18.5t178.5 38.5l31 -174q-170 -74 -472 -74q-225 0 -377.5 77t-152.5 233q0 90 74 158.5t190 90.5v9q-102 31 -157.5 92t-55.5 135q0 125 125 207t369 82q252 0 414 -64l-35 -170q-59 23 -161.5 39.5t-178.5 16.5q-264 0 -264 -131q0 -57 83.5 -96.5
t227.5 -39.5h239v-166h-249q-154 0 -245 -37.5t-91 -103.5q0 -141 313 -141zM623 1534h229l-168 -342h-174z" />
    <glyph glyph-name="etatonos" unicode="&#x3ae;" horiz-adv-x="1351" 
d="M811 1057q201 0 333 -146.5t132 -375.5v-990h-244v981q0 133 -85 218t-210 85t-209 -85t-84 -218v-526h-241v1028h135l76 -201h6q61 106 163.5 168t227.5 62zM670 1534h229l-168 -342h-174z" />
    <glyph glyph-name="iotatonos" unicode="&#x3af;" horiz-adv-x="647" 
d="M571 193q33 0 91 14l18 -217q-82 -16 -137 -17q-340 -4 -340 328v729h241v-680q0 -84 27.5 -120.5t99.5 -36.5zM338 1534h229l-168 -342h-174z" />
    <glyph glyph-name="upsilondieresistonos" unicode="&#x3b0;" horiz-adv-x="1265" 
d="M930 1028h246q72 -156 71 -377q0 -137 -29.5 -253.5t-93 -214t-175 -154t-263.5 -56.5q-207 0 -345 126t-138 358v571h241v-532q0 -147 73 -221t190 -74q293 0 292 434q1 221 -69 393zM1006 1348q0 51 35.5 85.5t87 34.5t85 -34.5t33.5 -86t-34.5 -86t-88.5 -34.5
q-49 0 -83.5 36t-34.5 85zM711 1493h256l-226 -297h-194zM272 1348q0 51 36 85.5t89 34.5q49 0 83 -34.5t34 -86t-34 -86t-85 -34.5t-87 36t-36 85z" />
    <glyph glyph-name="alpha" unicode="&#x3b1;" horiz-adv-x="1380" 
d="M1268 201q39 0 71 16l23 -219q-49 -25 -158 -25q-94 0 -157.5 56.5t-77.5 146.5h-6q-141 -203 -392 -203q-211 0 -350 153t-139 390q0 236 139 388.5t350 152.5q135 0 246 -66.5t174 -185.5h6l33 225h244l-80 -561q0 -8 3 -86t5 -86q5 -96 66 -96zM639 201q133 0 223 88
t90 225t-89 226t-222 89t-223 -89t-90 -226t89 -225t222 -88z" />
    <glyph glyph-name="beta" unicode="&#x3b2;" horiz-adv-x="1341" 
d="M139 913q0 307 141.5 453.5t401.5 146.5q209 0 334 -107.5t125 -268.5q0 -96 -57.5 -190.5t-161.5 -135.5v-6q143 -29 239 -136.5t96 -254.5q0 -193 -143 -317t-360 -124t-359 121h-6v-153q0 -262 31 -396h-254q-27 113 -27 392v976zM690 197q139 0 221 74.5t82 185.5
q0 115 -91 181.5t-238 66.5h-66v141h55q127 2 189.5 67.5t62.5 155.5q0 94 -66.5 154.5t-172.5 60.5q-127 0 -202 -86t-75 -264v-610q49 -53 131 -90t170 -37z" />
    <glyph glyph-name="gamma" unicode="&#x3b3;" horiz-adv-x="1130" 
d="M834 1030h256q6 -262 -115 -554t-326 -470q8 -78 8 -461h-262q12 410 -26 584q-41 240 -161 498t-241 403h301q90 -102 182.5 -325.5t131.5 -430.5h6q115 176 184.5 376t61.5 380z" />
    <glyph glyph-name="delta" unicode="&#x3b4;" horiz-adv-x="1304" 
d="M834 991q76 -47 118.5 -75.5t102 -79t90.5 -95.5t54.5 -111.5t23.5 -140.5q0 -231 -167 -373.5t-411 -142.5q-240 0 -401.5 138.5t-161.5 363.5q0 319 350 483v9q-166 113 -166 262q0 133 124 211t315 78q174 0 319 -66l-47 -176q-129 57 -256 57q-193 0 -193 -92
q0 -47 40 -81t192 -124q47 -29 74 -45zM657 201q131 0 219.5 79.5t88.5 206.5q0 115 -81 186.5t-270 166.5q-121 -49 -198.5 -138.5t-77.5 -205.5q0 -127 92 -211t227 -84z" />
    <glyph glyph-name="epsilon" unicode="&#x3b5;" horiz-adv-x="1126" 
d="M680 164q78 0 194.5 18.5t178.5 38.5l30 -174q-170 -74 -471 -74q-225 0 -377.5 77t-152.5 233q0 90 73.5 158.5t190.5 90.5v9q-102 31 -157.5 92t-55.5 135q0 125 125 207t369 82q252 0 413 -64l-34 -170q-59 23 -162 39.5t-178 16.5q-264 0 -265 -131q0 -57 84 -96.5
t228 -39.5h239v-166h-250q-154 0 -244.5 -37.5t-90.5 -103.5q0 -141 313 -141z" />
    <glyph glyph-name="zeta" unicode="&#x3b6;" horiz-adv-x="1148" 
d="M1083 1266q-172 -70 -343 -192t-292.5 -280.5t-121.5 -299.5q0 -45 10 -83t35.5 -71t47 -56.5t64.5 -50t66.5 -40t76 -40t68.5 -34.5q55 -29 78 -42.5t75 -47t76.5 -60t47 -68.5t22.5 -85q2 -143 -141 -291l-178 119q66 61 63 141q0 49 -45 82t-172 94q-80 39 -129 64.5
t-114.5 72.5t-102.5 93.5t-64.5 114t-27.5 147.5q0 217 142.5 414.5t375.5 351.5v8h-457v207h920z" />
    <glyph glyph-name="eta" unicode="&#x3b7;" horiz-adv-x="1351" 
d="M748 1057q201 0 332.5 -146.5t131.5 -375.5v-990h-243v981q0 133 -85 218t-210 85t-209 -85t-84 -218v-526h-242v1028h135l76 -201h6q61 106 164 168t228 62z" />
    <glyph glyph-name="theta" unicode="&#x3b8;" horiz-adv-x="1366" 
d="M684 1518q260 0 430 -209t170 -563.5t-170 -563.5t-430 -209t-431 209t-171 563.5t171 563.5t431 209zM684 195q137 0 235.5 118.5t116.5 331.5h-704q20 -215 116.5 -332.5t235.5 -117.5zM332 844h704q-18 213 -116.5 332.5t-235.5 119.5q-139 0 -235.5 -118.5
t-116.5 -333.5z" />
    <glyph glyph-name="iota" unicode="&#x3b9;" horiz-adv-x="634" 
d="M508 193q33 0 90 14l18 -217q-82 -16 -137 -17q-340 -4 -340 328v729h242v-680q0 -84 27.5 -120.5t99.5 -36.5z" />
    <glyph glyph-name="kappa" unicode="&#x3ba;" horiz-adv-x="1161" 
d="M1106 1028l-404 -420l449 -608h-260l-342 444l-168 -172v-272h-242v1028h242v-463h8l442 463h275z" />
    <glyph glyph-name="lambda" unicode="&#x3bb;" horiz-adv-x="1140" 
d="M158 1518q186 0 299.5 -86t193.5 -273l502 -1159h-262q-119 287 -311 717h-9l-311 -717h-272l458 1026l-38 86q-82 186 -234 186q-68 0 -125 -14l-35 211q68 23 144 23z" />
    <glyph glyph-name="uni03BC" unicode="&#x3bc;" horiz-adv-x="1370" 
d="M987 504v526h244v-1030h-135l-78 205h-6q-61 -109 -166 -170.5t-232 -61.5t-229 64h-4v-492h-242v1485h260v-526q0 -133 85 -218t210 -85t209 85t84 218z" />
    <glyph glyph-name="nu" unicode="&#x3bd;" horiz-adv-x="1140" 
d="M549 283l293 745h260l-416 -1028h-283l-415 1028h258l295 -745h8z" />
    <glyph glyph-name="xi" unicode="&#x3be;" horiz-adv-x="1177" 
d="M784 94q168 -59 246 -114.5t82 -161.5q0 -156 -151 -295l-175 112q72 66 68 127q0 16 -5 29.5t-17.5 26l-21.5 21.5t-30.5 18.5t-34 15.5t-40 14.5t-39 12.5t-43 12t-39.5 10q-111 31 -184.5 58.5t-154.5 79t-122 130t-41 183.5q0 164 117.5 266t302.5 129v8
q-143 39 -225 120t-82 202q0 162 149.5 262t388.5 100q193 0 361 -67l-39 -185q-145 55 -281 56q-141 0 -231 -48.5t-90 -142.5q0 -203 442 -217q16 -2 82 -2v-211h-74q-549 0 -549 -262q0 -43 18.5 -79t42 -58.5t73 -45t85 -34.5t104 -34t107.5 -36z" />
    <glyph glyph-name="omicron" unicode="&#x3bf;" horiz-adv-x="1282" 
d="M641 1057q242 0 400.5 -152.5t158.5 -390.5q0 -236 -159.5 -388.5t-399.5 -152.5t-399.5 153t-159.5 388q2 238 160.5 390.5t398.5 152.5zM641 203q133 -2 222 86t91 225q0 137 -90 225t-223 90q-133 0 -222 -89t-89 -226t89 -224t222 -87z" />
    <glyph glyph-name="pi" unicode="&#x3c0;" horiz-adv-x="1320" 
d="M-4 821v207h1329l-29 -207h-200q6 -457 121 -821h-246q-111 315 -119 821h-403v-821h-244v821h-209z" />
    <glyph glyph-name="rho" unicode="&#x3c1;" horiz-adv-x="1329" 
d="M698 1057q238 0 396.5 -153.5t158.5 -389t-145 -388.5t-356 -153q-240 0 -363 183h-6v-615h-244v975h2q0 236 158.5 388.5t398.5 152.5zM694 201q133 0 222.5 88t89.5 225q0 139 -89.5 227t-222.5 88t-222 -88t-89 -227q0 -137 89 -225t222 -88z" />
    <glyph glyph-name="sigma1" unicode="&#x3c2;" horiz-adv-x="1019" 
d="M692 152q172 -74 228 -119q86 -70 86 -162q0 -135 -148 -291l-178 113q70 78 70 131q0 49 -76 90q-23 12 -156 74q-92 41 -158.5 82t-135 104.5t-105.5 151.5t-37 198q0 238 171 385.5t439 147.5q182 0 309 -70l-61 -215q-115 57 -244 57q-162 0 -264 -86t-102 -225
q0 -74 29.5 -132t91 -103t110.5 -70.5t131 -60.5z" />
    <glyph glyph-name="sigma" unicode="&#x3c3;" horiz-adv-x="1284" 
d="M623 1030h630l-28 -213l-281 25v-6q201 -117 201 -357q0 -215 -141.5 -360.5t-378.5 -145.5q-236 0 -389.5 151.5t-153.5 379.5q0 229 150.5 376.5t390.5 149.5zM922 508q0 131 -82 220t-215 89q-131 -2 -214 -90t-83 -219t84 -219t213 -88t213 88t84 219z" />
    <glyph glyph-name="tau" unicode="&#x3c4;" horiz-adv-x="1136" 
d="M893 193q102 0 186 32l25 -217q-154 -35 -240 -35q-190 -2 -301.5 104.5t-111.5 287.5v456h-418v209h1069v-209h-408v-413q0 -215 199 -215z" />
    <glyph glyph-name="upsilon" unicode="&#x3c5;" horiz-adv-x="1265" 
d="M866 1028h246q72 -156 72 -377q0 -137 -30 -253.5t-93.5 -214t-175 -154t-262.5 -56.5q-207 0 -345.5 126t-138.5 358v571h242v-532q0 -147 72.5 -221t189.5 -74q293 0 293 434q0 221 -70 393z" />
    <glyph glyph-name="phi" unicode="&#x3c6;" horiz-adv-x="1542" 
d="M1006 1057q188 0 320 -148.5t132 -357.5q0 -250 -155.5 -397.5t-409.5 -173.5v-435h-236v432q-266 25 -420.5 164.5t-154.5 386.5q0 193 120 336.5t269 192.5l86 -127q-102 -49 -172 -154.5t-70 -243.5q0 -156 90.5 -256t251.5 -129v523q0 184 97.5 285.5t251.5 101.5z
M893 147q166 27 254 130.5t90 269.5q0 143 -57.5 241.5t-151.5 98.5q-68 0 -101.5 -55.5t-33.5 -145.5v-539z" />
    <glyph glyph-name="chi" unicode="&#x3c7;" horiz-adv-x="1185" 
d="M1085 -268q33 0 58 6l35 -211q-72 -14 -109 -14q-170 0 -260 84t-152 272l-69 194h-6l-301 -518h-273l434 746l-123 358q-61 184 -202 185q-35 0 -70 -7l-18 213q53 14 104 15q172 0 261 -84t151 -275l47 -137h6l274 469h273l-406 -696l144 -414q61 -186 202 -186z" />
    <glyph glyph-name="psi" unicode="&#x3c8;" horiz-adv-x="1593" 
d="M1135 1028h243q76 -156 76 -369q0 -264 -134 -450t-417 -227v-437h-233v432q-225 23 -378 153t-153 353v545h242v-534q0 -133 81 -211t208 -103v1080h233v-1078q160 35 239 156t79 305q0 221 -86 385z" />
    <glyph glyph-name="omega" unicode="&#x3c9;" horiz-adv-x="1619" 
d="M1137 1028h241q158 -199 158 -498q0 -266 -116.5 -411.5t-311.5 -145.5q-213 0 -295 193h-8q-82 -193 -297 -193q-193 0 -309.5 145.5t-116.5 411.5q0 299 158 498h241q-150 -209 -149 -471q0 -362 207 -362q74 0 113.5 63.5t39.5 177.5l2 359h230v-359q0 -113 41 -177
t114 -64q205 0 207 362q1 258 -149 471z" />
    <glyph glyph-name="iotadieresis" unicode="&#x3ca;" horiz-adv-x="593" 
d="M563 193q33 0 90 14l19 -217q-82 -16 -137 -17q-340 -4 -340 328v729h241v-680q0 -84 27.5 -120.5t99.5 -36.5zM362 1354q0 57 38 95t96 38q55 0 92 -38t37 -95q0 -55 -37 -93t-92 -38q-57 0 -95.5 38t-38.5 93zM-25 1354q0 57 39 95t95 38q53 0 90 -38t37 -95
q0 -55 -36 -93t-91.5 -38t-94.5 38t-39 93z" />
    <glyph glyph-name="upsilondieresis" unicode="&#x3cb;" horiz-adv-x="1265" 
d="M866 1028h246q72 -156 72 -377q0 -137 -30 -253.5t-93.5 -214t-175 -154t-262.5 -56.5q-207 0 -345.5 126t-138.5 358v571h242v-532q0 -147 72.5 -221t189.5 -74q293 0 293 434q0 221 -70 393zM766 1354q0 57 38 95t95 38q55 0 92 -38t37 -95q0 -55 -37 -93t-92 -38
q-57 0 -95 38t-38 93zM379 1354q0 57 39 95t94 38q53 0 90 -38t37 -95q0 -55 -36 -93t-91 -38q-57 0 -95 38t-38 93z" />
    <glyph glyph-name="omicrontonos" unicode="&#x3cc;" horiz-adv-x="1282" 
d="M621 1534h229l-168 -342h-174zM641 1057q242 0 400.5 -152.5t158.5 -390.5q0 -236 -159.5 -388.5t-399.5 -152.5t-399.5 153t-159.5 388q2 238 160.5 390.5t398.5 152.5zM641 203q133 -2 222 86t91 225q0 137 -90 225t-223 90q-133 0 -222 -89t-89 -226t89 -224t222 -87z
" />
    <glyph glyph-name="upsilontonos" unicode="&#x3cd;" horiz-adv-x="1265" 
d="M866 1028h246q72 -156 72 -377q0 -137 -30 -253.5t-93.5 -214t-175 -154t-262.5 -56.5q-207 0 -345.5 126t-138.5 358v571h242v-532q0 -147 72.5 -221t189.5 -74q293 0 293 434q0 221 -70 393zM637 1534h229l-168 -342h-174z" />
    <glyph glyph-name="omegatonos" unicode="&#x3ce;" horiz-adv-x="1619" 
d="M1137 1028h241q158 -199 158 -498q0 -266 -116.5 -411.5t-311.5 -145.5q-213 0 -295 193h-8q-82 -193 -297 -193q-193 0 -309.5 145.5t-116.5 411.5q0 299 158 498h241q-150 -209 -149 -471q0 -362 207 -362q74 0 113.5 63.5t39.5 177.5l2 359h230v-359q0 -113 41 -177
t114 -64q205 0 207 362q1 258 -149 471zM825 1534h230l-168 -342h-174z" />
    <glyph glyph-name="uni0400" unicode="&#x400;" horiz-adv-x="1368" 
d="M330 1913h250l219 -334h-191zM401 596v-360h875v-236h-1133v1434h1112v-236h-854v-391h793v-211h-793z" />
    <glyph glyph-name="uni0401" unicode="&#x401;" horiz-adv-x="1368" 
d="M762 1757q0 57 38 95t95 38q55 0 92 -37.5t37 -95.5q0 -55 -37 -93t-92 -38q-57 0 -95 38t-38 93zM375 1757q0 57 39 95t94 38q53 0 90 -37.5t37 -95.5q0 -55 -36 -93t-91 -38q-57 0 -95 39t-38 92zM401 596v-360h875v-236h-1133v1434h1112v-236h-854v-391h793v-211h-793
z" />
    <glyph glyph-name="uni0402" unicode="&#x402;" horiz-adv-x="1626" 
d="M1026 948q242 0 383 -161.5t141 -407.5q0 -268 -176 -457.5t-432 -228.5l-57 186q180 39 290.5 169t110.5 317q0 164 -85 267t-249 103q-143 0 -245 -78v-657h-258v1198h-406v236h1198v-236h-534v-330h6q123 80 313 80z" />
    <glyph glyph-name="uni0403" unicode="&#x403;" horiz-adv-x="1157" 
d="M469 0h-258v1434h967v-238h-709v-1196zM797 1913h252l-279 -334h-192z" />
    <glyph glyph-name="uni0404" unicode="&#x404;" horiz-adv-x="1341" 
d="M899 197q197 0 334 90l67 -217q-182 -96 -415 -97q-344 0 -568.5 209t-224.5 533q0 326 224.5 535.5t568.5 209.5q190 0 346 -67l-35 -219q-119 66 -311 65q-207 0 -349.5 -115.5t-175.5 -304.5h807v-201h-809q33 -190 180.5 -305.5t360.5 -115.5z" />
    <glyph glyph-name="uni0405" unicode="&#x405;" horiz-adv-x="1343" 
d="M727 838q274 -57 403.5 -157.5t129.5 -277.5q0 -205 -159 -317.5t-421 -112.5q-147 0 -321.5 52.5t-290.5 128.5l98 204q240 -158 520 -157q129 0 216 50t87 138q0 76 -76.5 125t-265.5 90q-270 59 -401 159.5t-131 287t161.5 298t419.5 111.5q266 0 494 -129l-74 -217
q-205 117 -428 117q-147 0 -226 -52.5t-79 -125.5q0 -78 78 -127t266 -88z" />
    <glyph glyph-name="uni0406" unicode="&#x406;" horiz-adv-x="544" 
d="M143 0v1434h258v-1434h-258z" />
    <glyph glyph-name="uni0407" unicode="&#x407;" horiz-adv-x="483" 
d="M305 1757q0 57 38 95t95 38q55 0 92 -37.5t37 -95.5q0 -55 -36.5 -93t-92.5 -38q-57 0 -95 38t-38 93zM-82 1757q0 57 39 95t94 38q53 0 90 -37.5t37 -95.5q0 -55 -36 -93t-91 -38t-94 39t-39 92zM121 0v1434h258v-1434h-258z" />
    <glyph glyph-name="uni0408" unicode="&#x408;" horiz-adv-x="970" 
d="M569 559v875h258v-883q0 -578 -536 -578q-147 0 -289 62l57 223q111 -49 236 -49q274 0 274 350z" />
    <glyph glyph-name="uni0409" unicode="&#x409;" horiz-adv-x="2174" 
d="M1626 946q223 0 362.5 -131t139.5 -342q-2 -207 -139.5 -340t-343.5 -133h-586v1219h-451v-342q0 -164 -18.5 -298.5t-46 -223.5t-72.5 -157.5t-86 -106.5t-98.5 -64.5t-98.5 -36.5t-96 -19l-47 213q45 12 78 26.5t82 59.5t80.5 113t55.5 191.5t24 287.5v572h942v-535
q163 49 319 47zM1575 205q129 0 216 74.5t87 193.5t-88 190.5t-225 71.5q-139 0 -258 -37v-493h268z" />
    <glyph glyph-name="uni040A" unicode="&#x40a;" horiz-adv-x="2107" 
d="M1567 942q223 0 358 -129t135 -340q0 -207 -138 -340t-345 -133h-602v653h-576v-653h-256v1434h256v-553h576v553h254v-543q217 53 338 51zM1507 205q131 0 217 74.5t86 193.5t-84 188.5t-221 69.5q-35 0 -83 -7t-108.5 -20.5t-84.5 -17.5v-481h278z" />
    <glyph glyph-name="uni040B" unicode="&#x40b;" horiz-adv-x="1544" 
d="M956 1010q203 -2 330 -129t127 -369v-512h-264v489q0 147 -74 219t-198 72q-74 0 -146 -30.5t-110 -83.5v-666h-254v1198h-408v236h1198v-236h-536v-307h6q122 119 329 119z" />
    <glyph glyph-name="uni040C" unicode="&#x40c;" horiz-adv-x="1499" 
d="M797 1913h252l-279 -334h-192zM1417 1434l-573 -586l633 -848h-316l-512 676l-248 -246v-430h-258v1434h258v-703h7l692 703h317z" />
    <glyph glyph-name="uni040D" unicode="&#x40d;" horiz-adv-x="1527" 
d="M385 1913h250l219 -334h-190zM367 0h-224v1434h258v-977h7l753 977h223v-1434h-258v975h-8z" />
    <glyph glyph-name="uni040E" unicode="&#x40e;" horiz-adv-x="1228" 
d="M637 668l330 766h258l-459 -1065q-96 -223 -220 -309.5t-331 -86.5q-59 0 -137 19l18 225q78 -23 154 -22q90 0 147.5 37.5t104.5 127.5l-498 1074h270l353 -766h10zM762 1890h141q-4 -141 -84 -227t-219 -86q-141 0 -221 86t-84 227h141q4 -74 48 -121t116 -47
q70 0 114 47t48 121z" />
    <glyph glyph-name="uni040F" unicode="&#x40f;" horiz-adv-x="1433" 
d="M1292 1434v-1434h-483l-8 -332h-174l-11 332h-473v1434h258v-1198h633v1198h258z" />
    <glyph glyph-name="uni0410" unicode="&#x410;" 
d="M596 1434h285l589 -1434h-292l-103 272h-674l-102 -272h-295zM733 1133l-254 -654h516l-254 654h-8z" />
    <glyph glyph-name="uni0411" unicode="&#x411;" horiz-adv-x="1273" 
d="M1225 473q0 -207 -137.5 -340t-344.5 -133h-600v1434h944v-236h-696v-305q147 55 334 53q223 0 361.5 -131t138.5 -342zM674 205q129 0 215 74.5t86 193.5t-87 190.5t-224 71.5q-164 0 -273 -41v-489h283z" />
    <glyph glyph-name="uni0412" unicode="&#x412;" horiz-adv-x="1454" 
d="M1065 756q135 -39 214 -134.5t79 -226.5q0 -172 -137.5 -283.5t-348.5 -111.5h-729v1434h686q205 0 333 -102.5t128 -266.5q0 -209 -225 -301v-8zM860 229q106 0 174 55.5t68 143.5t-67.5 142.5t-174.5 54.5h-459v-396h459zM805 1204h-404v-381h404q98 0 161.5 54.5
t63.5 138.5t-63.5 136t-161.5 52z" />
    <glyph glyph-name="uni0413" unicode="&#x413;" horiz-adv-x="1157" 
d="M401 0h-258v1434h967v-238h-709v-1196z" />
    <glyph glyph-name="uni0414" unicode="&#x414;" horiz-adv-x="1589" 
d="M1409 1434v-1203h131l-16 -563h-174l-11 332h-1093l-8 -332h-175l-18 563h164q225 164 225 707v496h975zM500 231h641v988h-461v-267q0 -489 -180 -712v-9z" />
    <glyph glyph-name="uni0415" unicode="&#x415;" horiz-adv-x="1368" 
d="M401 596v-360h875v-236h-1133v1434h1112v-236h-854v-391h793v-211h-793z" />
    <glyph glyph-name="uni0416" unicode="&#x416;" horiz-adv-x="2017" 
d="M1491 756v-4l504 -752h-273l-436 653h-149v-653h-258v653h-150l-436 -653h-270l503 752v4l-465 678h273l395 -576h150v576h258v-576h149l397 576h271z" />
    <glyph glyph-name="uni0417" unicode="&#x417;" horiz-adv-x="1308" 
d="M870 754q154 -33 248 -125t94 -250q0 -211 -170 -318.5t-475 -107.5q-266 2 -528 88l61 213q244 -78 451 -78q410 4 410 242q0 225 -418 225h-299v201h282q78 0 137.5 8t117 27.5t89 62.5t31.5 107q0 209 -383 204q-160 0 -389 -65l-47 213q254 80 457 80
q272 0 443 -95.5t171 -295.5q0 -127 -77 -209t-206 -119v-8z" />
    <glyph glyph-name="uni0418" unicode="&#x418;" horiz-adv-x="1527" 
d="M367 0h-224v1434h258v-977h7l753 977h223v-1434h-258v975h-8z" />
    <glyph glyph-name="uni0419" unicode="&#x419;" horiz-adv-x="1527" 
d="M866 1890h142q-4 -141 -84 -227t-219 -86q-141 0 -221.5 86t-84.5 227h142q4 -74 48 -121t116 -47q70 0 113.5 47t47.5 121zM367 0h-224v1434h258v-977h7l753 977h223v-1434h-258v975h-8z" />
    <glyph glyph-name="uni041A" unicode="&#x41a;" horiz-adv-x="1499" 
d="M1417 1434l-573 -586l633 -848h-316l-512 676l-248 -246v-430h-258v1434h258v-703h7l692 703h317z" />
    <glyph glyph-name="uni041B" unicode="&#x41b;" horiz-adv-x="1499" 
d="M608 877q0 -164 -18.5 -298.5t-46 -223.5t-72.5 -157.5t-86 -106.5t-98.5 -64.5t-99.5 -36.5t-97 -19l-45 213q45 12 77 26.5t81 59.5t80.5 113t55 191.5t23.5 287.5v572h996v-1434h-248v1219h-502v-342z" />
    <glyph glyph-name="uni041C" unicode="&#x41c;" horiz-adv-x="1841" 
d="M401 1024v-1024h-258v1434h332l443 -1008h6l442 1008h332v-1434h-258v1024h-8l-441 -1024h-141l-440 1024h-9z" />
    <glyph glyph-name="uni041D" unicode="&#x41d;" horiz-adv-x="1523" 
d="M1124 827v607h258v-1434h-258v580h-723v-580h-258v1434h258v-607h723z" />
    <glyph glyph-name="uni041E" unicode="&#x41e;" horiz-adv-x="1640" 
d="M821.5 1460q315.5 0 521 -209t205.5 -534.5t-205.5 -534.5t-521 -209t-522.5 210t-207 533.5t207 533.5t522.5 210zM821 209q205 0 337 143.5t132 364.5t-132 364.5t-337 143.5t-337 -143.5t-132 -364.5t132 -364.5t337 -143.5z" />
    <glyph glyph-name="uni041F" unicode="&#x41f;" horiz-adv-x="1495" 
d="M1354 1434v-1434h-258v1198h-695v-1198h-258v1434h1211z" />
    <glyph glyph-name="uni0420" unicode="&#x420;" horiz-adv-x="1415" 
d="M856 459h-455v-459h-258v1434h713q219 0 364.5 -141.5t145.5 -348.5q0 -213 -144.5 -349t-365.5 -136zM840 1196h-439v-508h439q121 0 194.5 75t73.5 181.5t-73.5 179t-194.5 72.5z" />
    <glyph glyph-name="uni0421" unicode="&#x421;" horiz-adv-x="1390" 
d="M887 209q115 0 230.5 36t193.5 91l43 -234q-197 -129 -473 -129q-348 0 -568.5 202t-220.5 529.5t220 541.5t569 214q238 0 430 -102l-66 -238q-162 104 -366 105q-240 0 -384.5 -149.5t-144.5 -370.5q0 -225 149.5 -360.5t387.5 -135.5z" />
    <glyph glyph-name="uni0422" unicode="&#x422;" horiz-adv-x="1263" 
d="M502 0v1198h-457v236h1174v-236h-459v-1198h-258z" />
    <glyph glyph-name="uni0423" unicode="&#x423;" horiz-adv-x="1228" 
d="M637 668l330 766h258l-459 -1065q-96 -223 -220 -309.5t-331 -86.5q-59 0 -137 19l18 225q78 -23 154 -22q90 0 147.5 37.5t104.5 127.5l-498 1074h270l353 -766h10z" />
    <glyph glyph-name="uni0424" unicode="&#x424;" horiz-adv-x="1640" 
d="M702 1366v123h246v-125q274 -35 437 -211t163 -436q0 -258 -161.5 -434.5t-438.5 -212.5v-125h-246v125q-279 33 -444.5 210t-165.5 437t164.5 438t445.5 211zM948 1149v-864q162 35 251 150.5t89 281.5t-89 282.5t-251 149.5zM702 283v868q-166 -33 -258 -148.5
t-92 -285.5t92 -285.5t258 -148.5z" />
    <glyph glyph-name="uni0425" unicode="&#x425;" horiz-adv-x="1415" 
d="M1380 1434l-485 -699l508 -721h-309l-385 539h-7l-383 -539h-309l506 721l-485 699h309l362 -516h7l362 516h309z" />
    <glyph glyph-name="uni0426" unicode="&#x426;" horiz-adv-x="1482" 
d="M1294 1434v-1203h140l-17 -563h-174l-8 332h-1092v1434h258v-1198h635v1198h258z" />
    <glyph glyph-name="uni0427" unicode="&#x427;" horiz-adv-x="1361" 
d="M967 766v668h252v-1434h-252v543h-9q-55 -55 -165.5 -87t-208.5 -32q-207 0 -345.5 129t-138.5 369v512h265v-490q0 -147 85 -220t214 -73q78 0 172 33t131 82z" />
    <glyph glyph-name="uni0428" unicode="&#x428;" horiz-adv-x="2056" 
d="M1655 1434h258v-1434h-1770v1434h258v-1198h498v1198h258v-1198h498v1198z" />
    <glyph glyph-name="uni0429" unicode="&#x429;" horiz-adv-x="2129" 
d="M1931 1434v-1203h152l-17 -563h-174l-8 332h-1722v1434h258v-1198h498v1198h258v-1198h497v1198h258z" />
    <glyph glyph-name="uni042A" unicode="&#x42a;" horiz-adv-x="1492" 
d="M946 946q223 0 361.5 -131t138.5 -342q0 -207 -138.5 -340t-344.5 -133h-598v1198h-320v236h567v-541q148 55 334 53zM893 205q131 0 217 74.5t86 193.5t-88 190.5t-223 71.5q-164 0 -273 -41v-489h281z" />
    <glyph glyph-name="uni042B" unicode="&#x42b;" horiz-adv-x="1777" 
d="M723 948q223 0 362.5 -131t139.5 -342q0 -207 -138.5 -341t-345.5 -134h-598v1434h248v-539q152 53 332 53zM1376 0v1434h258v-1434h-258zM672 207q129 0 216 74.5t87 193.5t-88 190.5t-225 71.5q-158 0 -271 -43v-487h281z" />
    <glyph glyph-name="uni042C" unicode="&#x42c;" horiz-adv-x="1273" 
d="M143 0v1434h248v-541q147 55 334 53q223 0 361.5 -131t138.5 -342q0 -207 -137.5 -340t-344.5 -133h-600zM664 735q-164 0 -273 -41v-489h283q129 0 215 74.5t86 193.5t-87 190.5t-224 71.5z" />
    <glyph glyph-name="uni042D" unicode="&#x42d;" horiz-adv-x="1339" 
d="M440 197q213 0 360.5 115.5t180.5 305.5h-809v201h807q-33 188 -175 304t-349 116q-193 0 -312 -65l-34 219q156 68 346 67q344 0 568 -210t224 -535q0 -324 -224 -533t-568 -209q-233 0 -416 97l67 217q137 -90 334 -90z" />
    <glyph glyph-name="uni042E" unicode="&#x42e;" horiz-adv-x="1923" 
d="M1198 1460q276 0 454.5 -201.5t178.5 -541.5t-178 -542t-455 -202q-246 0 -418 165t-205 450h-174v-588h-258v1434h258v-588h174q33 285 205 449.5t418 164.5zM1194 211q166 0 271.5 134t105.5 371.5t-105.5 373t-271.5 135.5t-271.5 -135.5t-105.5 -373t105.5 -371.5
t271.5 -134z" />
    <glyph glyph-name="uni042F" unicode="&#x42f;" horiz-adv-x="1458" 
d="M406 621v8q-123 51 -195 148t-72 231q0 195 137.5 310.5t354.5 115.5h684v-1434h-258v541h-309q-186 0 -236 -131l-147 -410h-287l151 432q50 144 177 189zM403 975q0 -100 71 -163.5t183 -63.5h400v448h-400q-113 0 -183.5 -61.5t-70.5 -159.5z" />
    <glyph glyph-name="uni0430" unicode="&#x430;" horiz-adv-x="1226" 
d="M86 305q0 154 120 250t359 96q152 0 281 -39q0 219 -291 219q-74 0 -155 -18t-126 -35l-45 -18l-71 201q4 4 55 25.5t154.5 46t203.5 24.5q268 0 392 -110.5t124 -352.5v-594h-122l-68 158h-2q-115 -184 -395 -185q-184 0 -299 93.5t-115 238.5zM836 446
q-96 35 -229.5 35t-205 -46t-71.5 -117.5t57 -114.5t168 -43q121 0 201 81t80 181v24z" />
    <glyph glyph-name="uni0431" unicode="&#x431;" horiz-adv-x="1234" 
d="M651 1059q213 0 350.5 -147.5t137.5 -376.5q0 -238 -146.5 -400t-382.5 -162q-238 0 -382 167t-144 425q0 381 134 576.5t407 238.5q111 16 166 47t55 62h248q0 -109 -108.5 -174.5t-270.5 -89.5q-178 -25 -281.5 -114t-130.5 -228l8 -2q131 178 340 178zM610 205
q125 0 205 94t80 238q0 141 -80 234t-205 93t-203.5 -93t-78.5 -234q0 -143 78.5 -237.5t203.5 -94.5z" />
    <glyph glyph-name="uni0432" unicode="&#x432;" horiz-adv-x="1208" 
d="M1087 272q0 -123 -97 -197.5t-259 -74.5h-592v1028h551q162 -2 259.5 -73.5t97.5 -188.5q0 -164 -177 -231v-7q102 -29 159.5 -95.5t57.5 -160.5zM692 193q63 0 107.5 32.5t44.5 86t-43 85t-109 31.5h-311v-235h311zM381 834v-226h264q68 0 113 31t45 82q0 53 -45 83
t-113 30h-264z" />
    <glyph glyph-name="uni0433" unicode="&#x433;" horiz-adv-x="944" 
d="M383 801v-801h-244v1028h776v-227h-532z" />
    <glyph glyph-name="uni0434" unicode="&#x434;" horiz-adv-x="1239" 
d="M201 -332h-174l-17 537h109q152 63 151 373v450h805v-823h117l-16 -537h-175l-8 332h-784zM506 825v-237q0 -242 -60 -377v-6h392v620h-332z" />
    <glyph glyph-name="uni0435" unicode="&#x435;" horiz-adv-x="1255" 
d="M633 1057q242 0 391.5 -150.5t149.5 -392.5q0 -18 -5 -88h-829q29 -104 124 -164.5t245 -60.5q205 0 340 90l47 -215q-158 -102 -389 -103q-287 0 -456 149.5t-169 391.5q0 238 155.5 390.5t395.5 152.5zM338 604h590q-6 96 -90 159.5t-203 63.5q-113 0 -191.5 -60.5
t-105.5 -162.5z" />
    <glyph glyph-name="uni0436" unicode="&#x436;" horiz-adv-x="1697" 
d="M1303 524v-6l385 -518h-273l-315 430h-129v-430h-244v430h-129l-315 -430h-273l385 518v6l-346 504h273l284 -420h121v420h244v-420h123l284 420h273z" />
    <glyph glyph-name="uni0437" unicode="&#x437;" horiz-adv-x="1128" 
d="M780 532q117 -23 190.5 -91t73.5 -158q0 -106 -77.5 -179t-192.5 -102t-260 -29q-301 0 -471 74l31 174q61 -20 178 -38.5t194 -18.5q313 0 314 139q0 66 -91 104.5t-245 38.5h-250v166h240q143 0 227 39t84 94q0 133 -264 134q-76 0 -178.5 -16.5t-161.5 -39.5l-35 170
q170 63 413.5 63.5t368.5 -81.5t125 -207q0 -74 -56 -136.5t-157 -90.5v-9z" />
    <glyph glyph-name="uni0438" unicode="&#x438;" horiz-adv-x="1280" 
d="M932 1028h209v-1028h-240v659h-8l-547 -659h-207v1028h240v-661h8z" />
    <glyph glyph-name="uni0439" unicode="&#x439;" horiz-adv-x="1280" 
d="M932 1028h209v-1028h-240v659h-8l-547 -659h-207v1028h240v-661h8zM774 1487h141q-4 -141 -83.5 -227t-219.5 -86q-141 0 -221 86t-84 227h142q4 -74 48 -121t115 -47q70 0 114 47t48 121z" />
    <glyph glyph-name="uni043A" unicode="&#x43a;" horiz-adv-x="1161" 
d="M1106 1028l-404 -420l449 -608h-260l-342 444l-168 -172v-272h-242v1028h242v-463h8l442 463h275z" />
    <glyph glyph-name="uni043B" unicode="&#x43b;" horiz-adv-x="1208" 
d="M467 588q0 -156 -25.5 -269.5t-60.5 -175t-93.5 -100.5t-100.5 -50t-105 -20l-72 211q39 10 59.5 17.5t56.5 33t55.5 63.5t34.5 109.5t15 170.5v450h838v-1028h-238v825h-364v-237z" />
    <glyph glyph-name="uni043C" unicode="&#x43c;" horiz-adv-x="1638" 
d="M389 727h-8v-727h-242v1028h338l340 -752h8l334 752h340v-1028h-244v727h-8l-309 -727h-231z" />
    <glyph glyph-name="uni043D" unicode="&#x43d;" horiz-adv-x="1243" 
d="M866 0v424h-489v-424h-238v1028h238v-403h489v403h238v-1028h-238z" />
    <glyph glyph-name="uni043E" unicode="&#x43e;" horiz-adv-x="1282" 
d="M641 1057q242 0 400.5 -152.5t158.5 -390.5q0 -236 -159.5 -388.5t-399.5 -152.5t-399.5 153t-159.5 388q2 238 160.5 390.5t398.5 152.5zM641 203q133 -2 222 86t91 225q0 137 -90 225t-223 90q-133 0 -222 -89t-89 -226t89 -224t222 -87z" />
    <glyph glyph-name="uni043F" unicode="&#x43f;" horiz-adv-x="1234" 
d="M1096 1028v-1028h-242v823h-473v-823h-242v1028h957z" />
    <glyph glyph-name="uni0440" unicode="&#x440;" horiz-adv-x="1312" 
d="M760 -29q-233 0 -371 187h-6v-613h-244v1483h135l78 -203h6q63 109 168 169.5t232 60.5q207 0 343 -152.5t136 -388t-136 -389.5t-341 -154zM686 825q-131 0 -217 -87t-86 -224t87 -226t216 -89q131 2 218 90t87 225t-87 225t-218 86z" />
    <glyph glyph-name="uni0441" unicode="&#x441;" horiz-adv-x="1071" 
d="M702 201q174 0 299 80l25 -232q-152 -76 -330 -76q-266 0 -440 151.5t-174 389.5t171 390.5t437 152.5q186 0 309 -70l-59 -215q-102 53 -244 57q-160 0 -264 -89t-104 -228q0 -131 107 -220t267 -91z" />
    <glyph glyph-name="uni0442" unicode="&#x442;" horiz-adv-x="999" 
d="M379 0v823h-350v205h942v-205h-350v-823h-242z" />
    <glyph glyph-name="uni0443" unicode="&#x443;" horiz-adv-x="1058" 
d="M827 1028h244l-420 -1116q-84 -225 -196.5 -310t-315.5 -85q-61 0 -139 18v225q78 -25 156 -24q100 0 160.5 50t107.5 171l-436 1071h258l299 -735h6z" />
    <glyph glyph-name="uni0444" unicode="&#x444;" horiz-adv-x="1513" 
d="M635 -27q-233 0 -388 153t-155 388.5t154.5 388t388.5 154.5v426h244v-426q233 -2 387.5 -154.5t154.5 -388t-154.5 -388.5t-387.5 -153v-430h-244v430zM879 827v-626q129 10 213 97t82 216q0 131 -84 217t-211 96zM635 827q-127 -10 -211 -96t-84 -217q0 -129 84 -216
t211 -97v626z" />
    <glyph glyph-name="uni0445" unicode="&#x445;" horiz-adv-x="1185" 
d="M1153 1028l-379 -493l404 -535h-297l-285 379h-6l-283 -379h-299l404 535l-377 493h287l268 -362h6l268 362h289z" />
    <glyph glyph-name="uni0446" unicode="&#x446;" horiz-adv-x="1253" 
d="M1094 1028v-821h112l-16 -539h-174l-8 332h-869v1028h242v-825h469v825h244z" />
    <glyph glyph-name="uni0447" unicode="&#x447;" horiz-adv-x="1257" 
d="M872 567v461h246v-1028h-246v362h-6q-119 -109 -309 -108q-197 0 -312.5 116.5t-115.5 344.5v313h242l2 -293q0 -141 69.5 -208.5t192.5 -67.5q149 -1 237 108z" />
    <glyph glyph-name="uni0448" unicode="&#x448;" horiz-adv-x="1773" 
d="M139 0v1028h242v-825h383v825h246v-825h381v825h243v-1028h-1495z" />
    <glyph glyph-name="uni0449" unicode="&#x449;" horiz-adv-x="1812" 
d="M1634 1028v-819h131l-16 -541h-174l-10 332h-1426v1028h242v-825h383v825h246v-825h381v825h243z" />
    <glyph glyph-name="uni044A" unicode="&#x44a;" horiz-adv-x="1187" 
d="M774 649q162 0 259 -89t97 -236q0 -145 -97 -234.5t-259 -89.5h-483v825h-262v203h499v-379h246zM731 193q70 0 114 32.5t44 98.5q0 68 -43 100.5t-113 32.5h-205v-264h203z" />
    <glyph glyph-name="uni044B" unicode="&#x44b;" horiz-adv-x="1521" 
d="M623 649q162 0 259 -89t97 -236q0 -145 -97.5 -234.5t-258.5 -89.5h-484v1028h238v-379h246zM1145 0v1028h237v-1028h-237zM582 193q70 0 112.5 32.5t42.5 98.5q0 68 -43 100.5t-112 32.5h-205v-264h205z" />
    <glyph glyph-name="uni044C" unicode="&#x44c;" horiz-adv-x="1036" 
d="M623 649q162 0 259 -89t97 -236q0 -145 -97.5 -234.5t-258.5 -89.5h-484v1028h238v-379h246zM582 193q70 0 112.5 32.5t42.5 98.5q0 68 -43 100.5t-112 32.5h-205v-264h205z" />
    <glyph glyph-name="uni044D" unicode="&#x44d;" horiz-adv-x="1079" 
d="M408 182q141 0 233 65.5t119 178.5h-594v180h594q-29 113 -119 178.5t-223 65.5q-152 0 -250 -62q0 2 -31 99.5t-33 101.5q135 68 330 68q242 0 402.5 -151.5t160.5 -389.5q0 -242 -160.5 -391.5t-437.5 -151.5q-182 0 -354 84l57 199q144 -74 306 -74z" />
    <glyph glyph-name="uni044E" unicode="&#x44e;" horiz-adv-x="1607" 
d="M1026 1057q213 0 354.5 -152.5t141.5 -388.5q2 -236 -140.5 -389.5t-355.5 -153.5q-184 0 -319.5 117t-167.5 309h-156v-399h-244v1028h244v-397h156q35 190 168 308t319 118zM1026.5 201q106.5 0 178 88t71.5 227q0 137 -71.5 225t-178 88t-178.5 -88t-72 -227
q0 -137 72 -225t178.5 -88z" />
    <glyph glyph-name="uni044F" unicode="&#x44f;" horiz-adv-x="1251" 
d="M362 463v6q-92 33 -144 103.5t-52 164.5q0 131 97 212t259 81h592v-1030h-244v383h-161q-96 0 -148.5 -25.5t-83.5 -103.5l-98 -254h-270l98 276q29 78 60.5 121t94.5 66zM580 547h290v289h-290q-74 0 -122 -39t-48 -104.5t48 -105.5t122 -40z" />
    <glyph glyph-name="uni0450" unicode="&#x450;" horiz-adv-x="1255" 
d="M633 1057q242 0 391.5 -150.5t149.5 -392.5q0 -18 -5 -88h-829q29 -104 124 -164.5t245 -60.5q205 0 340 90l47 -215q-158 -102 -389 -103q-287 0 -456 149.5t-169 391.5q0 238 155.5 390.5t395.5 152.5zM338 604h590q-6 96 -90 159.5t-203 63.5q-113 0 -191.5 -60.5
t-105.5 -162.5zM262 1509h250l219 -333h-190z" />
    <glyph glyph-name="uni0451" unicode="&#x451;" horiz-adv-x="1255" 
d="M633 1057q242 0 391.5 -150.5t149.5 -392.5q0 -18 -5 -88h-829q29 -104 124 -164.5t245 -60.5q205 0 340 90l47 -215q-158 -102 -389 -103q-287 0 -456 149.5t-169 391.5q0 238 155.5 390.5t395.5 152.5zM338 604h590q-6 96 -90 159.5t-203 63.5q-113 0 -191.5 -60.5
t-105.5 -162.5zM692 1354q0 57 38 95t95 38q55 0 92 -38t37 -95q0 -55 -36.5 -93t-92.5 -38q-57 0 -95 38t-38 93zM305 1354q0 57 39 95t94 38q53 0 90 -38t37 -95q0 -55 -35.5 -93t-91.5 -38q-57 0 -95 38t-38 93z" />
    <glyph glyph-name="uni0452" unicode="&#x452;" horiz-adv-x="1445" 
d="M848 1057q201 0 330 -146.5t129 -375.5v-627q0 -178 -113 -284.5t-305 -106.5q-68 0 -162 16l16 217q57 -14 119 -14q201 0 201 217v573q0 133 -85 218t-210 85t-209 -85t-84 -214v-530h-244v1180h-237v170h237v133h244v-133h361v-170h-361v-318h6q57 92 153.5 143.5
t213.5 51.5z" />
    <glyph glyph-name="uni0453" unicode="&#x453;" horiz-adv-x="937" 
d="M383 801v-801h-244v1028h776v-227h-532zM639 1509h252l-279 -333h-192z" />
    <glyph glyph-name="uni0454" unicode="&#x454;" horiz-adv-x="1079" 
d="M672 182q162 0 305 74l57 -199q-172 -84 -354 -84q-276 2 -437 151.5t-161 391.5q0 238 160.5 389.5t402.5 151.5q195 0 330 -68q-2 -4 -33 -101t-31 -100q-98 61 -249 62q-133 0 -223.5 -65.5t-119.5 -178.5h594v-180h-594q27 -113 119.5 -178.5t233.5 -65.5z" />
    <glyph glyph-name="uni0455" unicode="&#x455;" horiz-adv-x="1013" 
d="M932 283q0 -141 -112.5 -226.5t-289.5 -85.5q-256 0 -477 127l68 189q174 -121 391 -121q82 0 132 30.5t50 82.5q0 55 -46 84.5t-173 58.5q-184 45 -279.5 120.5t-95.5 209t106.5 219.5t321.5 86q90 0 200 -29t169 -59l-51 -183q-143 76 -316 76q-94 0 -142 -31.5
t-48 -78.5t50 -78t175 -62q193 -47 280 -121.5t87 -207.5z" />
    <glyph glyph-name="uni0456" unicode="&#x456;" horiz-adv-x="526" 
d="M139 0v1028h242v-1028h-242zM264 1294q-63 0 -108 46t-45 107.5t45 105.5t108 44q61 0 106.5 -44t45.5 -105.5t-45.5 -107.5t-106.5 -46z" />
    <glyph glyph-name="uni0457" unicode="&#x457;" horiz-adv-x="464" 
d="M104 0v1028h242v-1028h-242zM295 1354q0 57 38 95t95 38q55 0 92 -38t37 -95q0 -55 -37 -93t-92 -38q-57 0 -95 38t-38 93zM-92 1354q0 57 39 95t94 38q53 0 90 -38t37 -95q0 -55 -36 -93t-91 -38q-57 0 -95 38t-38 93z" />
    <glyph glyph-name="uni0458" unicode="&#x458;" horiz-adv-x="501" 
d="M113 -53v1081h241v-1124q0 -178 -112.5 -284.5t-302.5 -106.5q-70 0 -164 16l16 217q57 -14 119 -14q201 0 203 215zM233.5 1526q67.5 0 112.5 -46t45 -111.5t-45 -111t-112.5 -45.5t-112.5 45.5t-45 111t45 111.5t112.5 46z" />
    <glyph glyph-name="uni0459" unicode="&#x459;" horiz-adv-x="1753" 
d="M1337 649q162 0 259.5 -89t97.5 -236q0 -145 -97.5 -234.5t-259.5 -89.5h-506v825h-364v-237q0 -156 -25.5 -269.5t-60.5 -175t-93.5 -100.5t-100.5 -50t-105 -20l-72 211q39 10 60.5 17.5t57.5 33t54.5 63.5t33.5 109.5t15 170.5v450h838v-379h268zM1294 193
q70 0 114 32.5t44 98.5q0 68 -43 100.5t-113 32.5h-227v-264h225z" />
    <glyph glyph-name="uni045A" unicode="&#x45a;" horiz-adv-x="1722" 
d="M1307 649q162 0 259 -89t97 -236q0 -145 -97.5 -234.5t-258.5 -89.5h-506v457h-424v-457h-238v1028h238v-379h424v379h237v-379h269zM1266 193q66 0 110.5 32.5t44.5 98t-45 99.5t-110 34h-228v-264h228z" />
    <glyph glyph-name="uni045B" unicode="&#x45b;" horiz-adv-x="1445" 
d="M848 1057q201 0 330 -146.5t129 -375.5v-535h-244v526q0 133 -85 218t-210 85t-209 -85t-84 -214v-530h-244v1180h-237v170h237v133h244v-133h361v-170h-361v-318h6q57 92 153.5 143.5t213.5 51.5z" />
    <glyph glyph-name="uni045C" unicode="&#x45c;" horiz-adv-x="1161" 
d="M1106 1028l-404 -420l449 -608h-260l-342 444l-168 -172v-272h-242v1028h242v-463h8l442 463h275zM682 1509h252l-279 -333h-192z" />
    <glyph glyph-name="uni045D" unicode="&#x45d;" horiz-adv-x="1280" 
d="M932 1028h209v-1028h-240v659h-8l-547 -659h-207v1028h240v-661h8zM254 1509h250l219 -333h-191z" />
    <glyph glyph-name="uni045E" unicode="&#x45e;" horiz-adv-x="1058" 
d="M827 1028h244l-420 -1116q-84 -225 -196.5 -310t-315.5 -85q-61 0 -139 18v225q78 -25 156 -24q100 0 160.5 50t107.5 171l-436 1071h258l299 -735h6zM696 1487h142q-4 -141 -84 -227t-219 -86q-141 0 -221.5 86t-84.5 227h142q4 -74 48 -121t116 -47q70 0 113.5 47
t47.5 121z" />
    <glyph glyph-name="uni045F" unicode="&#x45f;" horiz-adv-x="1249" 
d="M866 1028h244v-1028h-387l-10 -332h-174l-11 332h-389v1028h244v-825h483v825z" />
    <glyph glyph-name="uni0490" unicode="&#x490;" horiz-adv-x="1159" 
d="M903 1759h209v-563h-711v-1196h-258v1434h760v325z" />
    <glyph glyph-name="uni0491" unicode="&#x491;" horiz-adv-x="942" 
d="M709 1356h204v-531h-532v-825h-242v1028h570v328z" />
    <glyph glyph-name="uni04D9" unicode="&#x4d9;" horiz-adv-x="1243" 
d="M610 -27q-242 0 -391 150.5t-149 392.5q0 18 4 88h829q-29 104 -124 164.5t-244 60.5q-205 0 -340 -90l-48 215q158 102 390 103q287 0 455.5 -149.5t168.5 -391.5q0 -238 -155.5 -390.5t-395.5 -152.5zM905 426h-590q6 -96 90 -159.5t203 -63.5q113 0 191.5 60.5
t105.5 162.5z" />
    <glyph glyph-name="uni0E3F" unicode="&#xe3f;" horiz-adv-x="1337" 
d="M952 756q131 -41 210 -136.5t79 -224.5q0 -172 -137 -283.5t-348 -111.5h-49v-209h-211v209h-353v1434h353v208h211v-208h6q205 0 333 -102.5t128 -266.5q0 -102 -59.5 -180t-162.5 -121v-8zM401 1204v-381h287q100 0 163.5 54.5t63.5 138.5t-63.5 136t-163.5 52h-287z
M743 229q106 0 174 55.5t68 143.5t-67.5 142.5t-174.5 54.5h-342v-396h342z" />
    <glyph glyph-name="Wgrave" unicode="&#x1e80;" horiz-adv-x="2058" 
d="M1774 1434h272l-426 -1434h-299l-289 975h-8l-287 -975h-299l-426 1434h273l301 -1069h6l307 1069h258l307 -1069h9zM641 1913h250l219 -334h-190z" />
    <glyph glyph-name="wgrave" unicode="&#x1e81;" horiz-adv-x="1732" 
d="M1247 283l219 745h258l-315 -1028h-293l-246 700h-8l-246 -700h-292l-316 1028h258l219 -745h7l256 745h237l256 -745h6zM473 1509h250l219 -333h-190z" />
    <glyph glyph-name="Wacute" unicode="&#x1e82;" horiz-adv-x="2058" 
d="M1774 1434h272l-426 -1434h-299l-289 975h-8l-287 -975h-299l-426 1434h273l301 -1069h6l307 1069h258l307 -1069h9zM1155 1913h252l-279 -334h-192z" />
    <glyph glyph-name="wacute" unicode="&#x1e83;" horiz-adv-x="1732" 
d="M1247 283l219 745h258l-315 -1028h-293l-246 700h-8l-246 -700h-292l-316 1028h258l219 -745h7l256 745h237l256 -745h6zM973 1509h252l-279 -333h-192z" />
    <glyph glyph-name="Wdieresis" unicode="&#x1e84;" horiz-adv-x="2058" 
d="M1774 1434h272l-426 -1434h-299l-289 975h-8l-287 -975h-299l-426 1434h273l301 -1069h6l307 1069h258l307 -1069h9zM1085 1757q0 57 38 95t96 38q55 0 92 -37.5t37 -95.5q0 -55 -37 -93t-92 -38q-57 0 -95.5 38t-38.5 93zM698 1757q0 57 39 95t94 38q53 0 90 -37.5
t37 -95.5q0 -55 -35.5 -93t-91.5 -38q-57 0 -95 39t-38 92z" />
    <glyph glyph-name="wdieresis" unicode="&#x1e85;" horiz-adv-x="1732" 
d="M1247 283l219 745h258l-315 -1028h-293l-246 700h-8l-246 -700h-292l-316 1028h258l219 -745h7l256 745h237l256 -745h6zM934 1354q0 57 38 95t95 38q55 0 92 -38t37 -95q0 -55 -37 -93t-92 -38q-57 0 -95 38t-38 93zM547 1354q0 57 39 95t94 38q53 0 90 -38t37 -95
q0 -55 -36 -93t-91 -38q-57 0 -95 38t-38 93z" />
    <glyph glyph-name="uni1EA0" unicode="&#x1ea0;" 
d="M596 1434h285l589 -1434h-292l-103 272h-674l-102 -272h-295zM733 1133l-254 -654h516l-254 654h-8zM733 -426q-63 0 -108 46t-45 107.5t45 105.5t108 44q61 0 106.5 -44t45.5 -105.5t-45.5 -107.5t-106.5 -46z" />
    <glyph glyph-name="uni1EA1" unicode="&#x1ea1;" horiz-adv-x="1226" 
d="M86 305q0 154 120 250t359 96q152 0 281 -39q0 219 -291 219q-74 0 -155 -18t-126 -35l-45 -18l-71 201q4 4 55 25.5t154.5 46t203.5 24.5q268 0 392 -110.5t124 -352.5v-594h-122l-68 158h-2q-115 -184 -395 -185q-184 0 -299 93.5t-115 238.5zM836 446
q-96 35 -229.5 35t-205 -46t-71.5 -117.5t57 -114.5t168 -43q121 0 201 81t80 181v24zM614 -426q-63 0 -108 46t-45 107.5t45 105.5t108 44q61 0 106.5 -44t45.5 -105.5t-45.5 -107.5t-106.5 -46z" />
    <glyph glyph-name="uni1EA2" unicode="&#x1ea2;" 
d="M596 1434h285l589 -1434h-292l-103 272h-674l-102 -272h-295zM733 1133l-254 -654h516l-254 654h-8zM719 1999q86 0 145.5 -52.5t59.5 -125.5q0 -57 -31 -97.5t-75 -81t-64 -81.5l-133 38q14 49 66 98.5t52 86.5q0 33 -21.5 52t-51.5 19q-59 0 -109 -75l-92 57
q88 162 254 162z" />
    <glyph glyph-name="uni1EA3" unicode="&#x1ea3;" horiz-adv-x="1226" 
d="M86 305q0 154 120 250t359 96q152 0 281 -39q0 219 -291 219q-74 0 -155 -18t-126 -35l-45 -18l-71 201q4 4 55 25.5t154.5 46t203.5 24.5q268 0 392 -110.5t124 -352.5v-594h-122l-68 158h-2q-115 -184 -395 -185q-184 0 -299 93.5t-115 238.5zM836 446
q-96 35 -229.5 35t-205 -46t-71.5 -117.5t57 -114.5t168 -43q121 0 201 81t80 181v24zM504 1620q86 0 145.5 -52t59.5 -126q0 -57 -31 -97t-75 -81t-64 -82l-133 39q14 49 66 98t52 86q0 33 -21.5 52.5t-51.5 19.5q-59 0 -109 -76l-92 57q88 162 254 162z" />
    <glyph glyph-name="uni1EA4" unicode="&#x1ea4;" 
d="M596 1434h285l589 -1434h-292l-103 272h-674l-102 -272h-295zM733 1133l-254 -654h516l-254 654h-8zM647 1860h184l228 -285h-176l-142 176h-4l-137 -176h-176zM1378 2040l-295 -268h-135l199 268h231z" />
    <glyph glyph-name="uni1EA5" unicode="&#x1ea5;" horiz-adv-x="1257" 
d="M86 305q0 154 120 250t359 96q152 0 281 -39q0 219 -291 219q-74 0 -155 -18t-126 -35l-45 -18l-71 201q4 4 55 25.5t154.5 46t203.5 24.5q268 0 392 -110.5t124 -352.5v-594h-122l-68 158h-2q-115 -184 -395 -185q-184 0 -299 93.5t-115 238.5zM836 446
q-96 35 -229.5 35t-205 -46t-71.5 -117.5t57 -114.5t168 -43q121 0 201 81t80 181v24zM1139 1657l-295 -268h-135l198 268h232zM408 1477h184l227 -285h-176l-141 176h-4l-138 -176h-176z" />
    <glyph glyph-name="uni1EA6" unicode="&#x1ea6;" 
d="M596 1434h285l589 -1434h-292l-103 272h-674l-102 -272h-295zM733 1133l-254 -654h516l-254 654h-8zM643 1860h186l226 -285h-176l-140 178h-4l-139 -178h-174zM1032 2017l187 -266h-148l-268 266h229z" />
    <glyph glyph-name="uni1EA7" unicode="&#x1ea7;" horiz-adv-x="1226" 
d="M86 305q0 154 120 250t359 96q152 0 281 -39q0 219 -291 219q-74 0 -155 -18t-126 -35l-45 -18l-71 201q4 4 55 25.5t154.5 46t203.5 24.5q268 0 392 -110.5t124 -352.5v-594h-122l-68 158h-2q-115 -184 -395 -185q-184 0 -299 93.5t-115 238.5zM836 446
q-96 35 -229.5 35t-205 -46t-71.5 -117.5t57 -114.5t168 -43q121 0 201 81t80 181v24zM782 1634l187 -266h-148l-268 266h229zM393 1477h187l225 -285h-176l-140 178h-4l-139 -178h-174z" />
    <glyph glyph-name="uni1EA8" unicode="&#x1ea8;" 
d="M596 1434h285l589 -1434h-292l-103 272h-674l-102 -272h-295zM733 1133l-254 -654h516l-254 654h-8zM414 1577l221 283h186l226 -283h-177l-139 176h-4l-139 -176h-174zM1085 2109q84 0 138.5 -48t54.5 -122q0 -70 -70 -131q-6 -6 -26.5 -24.5t-30.5 -27.5t-22.5 -26.5
t-20.5 -33.5l-107 28q12 43 80 103q51 51 52 88q0 35 -25 55.5t-59 20.5q-70 0 -117 -78l-80 53q37 66 92 102q65 41 141 41z" />
    <glyph glyph-name="uni1EA9" unicode="&#x1ea9;" horiz-adv-x="1226" 
d="M86 305q0 154 120 250t359 96q152 0 281 -39q0 219 -291 219q-74 0 -155 -18t-126 -35l-45 -18l-71 201q4 4 55 25.5t154.5 46t203.5 24.5q268 0 392 -110.5t124 -352.5v-594h-122l-68 158h-2q-115 -184 -395 -185q-184 0 -299 93.5t-115 238.5zM836 446
q-96 35 -229.5 35t-205 -46t-71.5 -117.5t57 -114.5t168 -43q121 0 201 81t80 181v24zM162 1192l221 283h186l226 -283h-177l-139 176h-4l-139 -176h-174zM834 1724q84 0 138 -48t54 -122q0 -70 -70 -131q-6 -6 -26.5 -24.5t-30.5 -27.5t-22.5 -26.5t-20.5 -33.5l-106 28
q12 43 79 103q51 51 52 88q0 35 -25 55.5t-59 20.5q-70 0 -117 -78l-80 53q37 66 92 102q66 41 142 41z" />
    <glyph glyph-name="uni1EAA" unicode="&#x1eaa;" 
d="M596 1434h285l589 -1434h-292l-103 272h-674l-102 -272h-295zM733 1133l-254 -654h516l-254 654h-8zM879 1911q-72 0 -170 61q-76 43 -105 43q-68 0 -84 -106l-129 28q10 111 60.5 170.5t130.5 59.5q68 0 155 -53q92 -55 117 -56q70 0 86 109l127 -29q-20 -227 -188 -227
zM416 1577l221 283h186l226 -283h-177l-139 176h-4l-139 -176h-174z" />
    <glyph glyph-name="uni1EAB" unicode="&#x1eab;" horiz-adv-x="1226" 
d="M86 305q0 154 120 250t359 96q152 0 281 -39q0 219 -291 219q-74 0 -155 -18t-126 -35l-45 -18l-71 201q4 4 55 25.5t154.5 46t203.5 24.5q268 0 392 -110.5t124 -352.5v-594h-122l-68 158h-2q-115 -184 -395 -185q-184 0 -299 93.5t-115 238.5zM836 446
q-96 35 -229.5 35t-205 -46t-71.5 -117.5t57 -114.5t168 -43q121 0 201 81t80 181v24zM197 1192l221 283h186l225 -283h-176l-139 176h-4l-139 -176h-174zM659 1526q-72 0 -170 61q-76 43 -104 43q-68 0 -84 -106l-129 28q10 111 60.5 170.5t129.5 59.5q68 0 156 -53
q92 -55 117 -56q70 0 86 109l127 -29q-21 -227 -189 -227z" />
    <glyph glyph-name="uni1EAC" unicode="&#x1eac;" 
d="M596 1434h285l589 -1434h-292l-103 272h-674l-102 -272h-295zM733 1133l-254 -654h516l-254 654h-8zM903 1542l-160 205h-4l-157 -205h-181l250 334h183l247 -334h-178zM745 -426q-63 0 -108 46t-45 107.5t45 105.5t108 44q61 0 106.5 -44t45.5 -105.5t-45.5 -107.5
t-106.5 -46z" />
    <glyph glyph-name="uni1EAD" unicode="&#x1ead;" horiz-adv-x="1226" 
d="M86 305q0 154 120 250t359 96q152 0 281 -39q0 219 -291 219q-74 0 -155 -18t-126 -35l-45 -18l-71 201q4 4 55 25.5t154.5 46t203.5 24.5q268 0 392 -110.5t124 -352.5v-594h-122l-68 158h-2q-115 -184 -395 -185q-184 0 -299 93.5t-115 238.5zM836 446
q-96 35 -229.5 35t-205 -46t-71.5 -117.5t57 -114.5t168 -43q121 0 201 81t80 181v24zM725 1174l-160 204h-4l-158 -204h-180l250 333h182l248 -333h-178zM565 -426q-63 0 -108 46t-45 107.5t45 105.5t108 44q61 0 106.5 -44t45.5 -105.5t-45.5 -107.5t-106.5 -46z" />
    <glyph glyph-name="uni1EAE" unicode="&#x1eae;" 
d="M596 1434h285l589 -1434h-292l-103 272h-674l-102 -272h-295zM733 1133l-254 -654h516l-254 654h-8zM434 1829h125q10 -63 57.5 -103t126.5 -40q160 0 185 143h121q-12 -123 -95.5 -202t-216.5 -79t-212 77t-91 204zM823 2085h238l-279 -268h-149z" />
    <glyph glyph-name="uni1EAF" unicode="&#x1eaf;" horiz-adv-x="1226" 
d="M86 305q0 154 120 250t359 96q152 0 281 -39q0 219 -291 219q-74 0 -155 -18t-126 -35l-45 -18l-71 201q4 4 55 25.5t154.5 46t203.5 24.5q268 0 392 -110.5t124 -352.5v-594h-122l-68 158h-2q-115 -184 -395 -185q-184 0 -299 93.5t-115 238.5zM836 446
q-96 35 -229.5 35t-205 -46t-71.5 -117.5t57 -114.5t168 -43q121 0 201 81t80 181v24zM600 1704h238l-279 -268h-149zM211 1448h125q10 -63 57 -103t127 -40q160 0 185 143h120q-12 -123 -95 -202t-216 -79t-212 77t-91 204z" />
    <glyph glyph-name="uni1EB0" unicode="&#x1eb0;" 
d="M596 1434h285l589 -1434h-292l-103 272h-674l-102 -272h-295zM733 1133l-254 -654h516l-254 654h-8zM399 1829h123q12 -66 58.5 -104.5t126.5 -38.5q160 0 184 143h121q-10 -121 -93 -201t-217 -80q-135 0 -214 77t-89 204zM373 2085h237l191 -268h-150z" />
    <glyph glyph-name="uni1EB1" unicode="&#x1eb1;" horiz-adv-x="1226" 
d="M86 305q0 154 120 250t359 96q152 0 281 -39q0 219 -291 219q-74 0 -155 -18t-126 -35l-45 -18l-71 201q4 4 55 25.5t154.5 46t203.5 24.5q268 0 392 -110.5t124 -352.5v-594h-122l-68 158h-2q-115 -184 -395 -185q-184 0 -299 93.5t-115 238.5zM836 446
q-96 35 -229.5 35t-205 -46t-71.5 -117.5t57 -114.5t168 -43q121 0 201 81t80 181v24zM227 1448h123q12 -66 58.5 -104.5t126.5 -38.5q160 0 184 143h121q-10 -121 -93 -201t-217 -80q-135 0 -214 77t-89 204zM201 1704h237l191 -268h-150z" />
    <glyph glyph-name="uni1EB2" unicode="&#x1eb2;" 
d="M596 1434h285l589 -1434h-292l-103 272h-674l-102 -272h-295zM733 1133l-254 -654h516l-254 654h-8zM915 1829h123q-10 -121 -93 -201t-216 -80q-135 0 -215 77t-90 204h125q12 -66 57 -104.5t125 -38.5q159 0 184 143zM743 2198q82 0 137.5 -49.5t55.5 -118.5
q0 -53 -33 -93.5t-77 -79t-60 -77.5l-115 35q12 47 70.5 97t58.5 87q0 35 -24.5 55.5t-57.5 20.5q-66 0 -112 -74l-80 51q81 146 237 146z" />
    <glyph glyph-name="uni1EB3" unicode="&#x1eb3;" horiz-adv-x="1226" 
d="M86 305q0 154 120 250t359 96q152 0 281 -39q0 219 -291 219q-74 0 -155 -18t-126 -35l-45 -18l-71 201q4 4 55 25.5t154.5 46t203.5 24.5q268 0 392 -110.5t124 -352.5v-594h-122l-68 158h-2q-115 -184 -395 -185q-184 0 -299 93.5t-115 238.5zM836 446
q-96 35 -229.5 35t-205 -46t-71.5 -117.5t57 -114.5t168 -43q121 0 201 81t80 181v24zM514 1817q82 0 137.5 -49.5t55.5 -118.5q0 -53 -33 -93t-77 -79t-60 -78l-115 35q12 47 70.5 97t58.5 87q0 35 -24.5 55.5t-57.5 20.5q-66 0 -113 -74l-80 51q82 146 238 146zM686 1448
h123q-10 -121 -93 -201t-216 -80q-135 0 -215 77t-90 204h124q12 -66 57.5 -104.5t125.5 -38.5q159 0 184 143z" />
    <glyph glyph-name="uni1EB4" unicode="&#x1eb4;" 
d="M596 1434h285l589 -1434h-292l-103 272h-674l-102 -272h-295zM733 1133l-254 -654h516l-254 654h-8zM887 1878q-68 0 -170 61q-70 43 -103 43q-68 0 -86 -106l-129 31q10 109 61.5 169t129.5 60q66 0 155 -53q90 -55 119 -55q68 0 84 106l127 -29q-18 -227 -188 -227z
M918 1829h122q-10 -121 -93 -201t-216 -80q-135 0 -215 77t-90 204h125q12 -66 57 -104.5t125 -38.5q160 0 185 143z" />
    <glyph glyph-name="uni1EB5" unicode="&#x1eb5;" horiz-adv-x="1226" 
d="M86 305q0 154 120 250t359 96q152 0 281 -39q0 219 -291 219q-74 0 -155 -18t-126 -35l-45 -18l-71 201q4 4 55 25.5t154.5 46t203.5 24.5q268 0 392 -110.5t124 -352.5v-594h-122l-68 158h-2q-115 -184 -395 -185q-184 0 -299 93.5t-115 238.5zM836 446
q-96 35 -229.5 35t-205 -46t-71.5 -117.5t57 -114.5t168 -43q121 0 201 81t80 181v24zM690 1448h123q-10 -121 -93 -201t-216 -80q-135 0 -215 77t-90 204h125q12 -66 57 -104.5t125 -38.5q159 0 184 143zM659 1497q-68 0 -170 62q-70 43 -102 43q-68 0 -86 -107l-129 31
q10 109 61.5 169t128.5 60q66 0 156 -53q90 -55 119 -55q68 0 84 106l127 -29q-19 -227 -189 -227z" />
    <glyph glyph-name="uni1EB6" unicode="&#x1eb6;" 
d="M596 1434h285l589 -1434h-292l-103 272h-674l-102 -272h-295zM733 1133l-254 -654h516l-254 654h-8zM893 1855h141q-4 -141 -84 -227t-219 -86q-141 0 -221 86t-84 227h141q4 -74 48 -120.5t116 -46.5q70 0 114 46.5t48 120.5zM729 -426q-63 0 -108.5 46t-45.5 107.5
t45.5 105.5t108.5 44q61 0 106.5 -44t45.5 -105.5t-45.5 -107.5t-106.5 -46z" />
    <glyph glyph-name="uni1EB7" unicode="&#x1eb7;" horiz-adv-x="1226" 
d="M86 305q0 154 120 250t359 96q152 0 281 -39q0 219 -291 219q-74 0 -155 -18t-126 -35l-45 -18l-71 201q4 4 55 25.5t154.5 46t203.5 24.5q268 0 392 -110.5t124 -352.5v-594h-122l-68 158h-2q-115 -184 -395 -185q-184 0 -299 93.5t-115 238.5zM836 446
q-96 35 -229.5 35t-205 -46t-71.5 -117.5t57 -114.5t168 -43q121 0 201 81t80 181v24zM672 1487h141q-4 -141 -84 -227t-219 -86q-141 0 -221 86t-84 227h141q4 -74 48 -121t116 -47q70 0 114 47t48 121zM524 -426q-63 0 -108 46t-45 107.5t45 105.5t108 44q61 0 106.5 -44
t45.5 -105.5t-45.5 -107.5t-106.5 -46z" />
    <glyph glyph-name="uni1EB8" unicode="&#x1eb8;" horiz-adv-x="1368" 
d="M401 596v-360h875v-236h-1133v1434h1112v-236h-854v-391h793v-211h-793zM741 -426q-63 0 -108 46t-45 107.5t45 105.5t108 44q61 0 106.5 -44t45.5 -105.5t-45.5 -107.5t-106.5 -46z" />
    <glyph glyph-name="uni1EB9" unicode="&#x1eb9;" horiz-adv-x="1255" 
d="M633 1057q242 0 391.5 -150.5t149.5 -392.5q0 -18 -5 -88h-829q29 -104 124 -164.5t245 -60.5q205 0 340 90l47 -215q-158 -102 -389 -103q-287 0 -456 149.5t-169 391.5q0 238 155.5 390.5t395.5 152.5zM338 604h590q-6 96 -90 159.5t-203 63.5q-113 0 -191.5 -60.5
t-105.5 -162.5zM676 -426q-63 0 -108.5 46t-45.5 107.5t45 105.5t109 44q61 0 106 -44t45 -105.5t-45 -107.5t-106 -46z" />
    <glyph glyph-name="uni1EBA" unicode="&#x1eba;" horiz-adv-x="1368" 
d="M401 596v-360h875v-236h-1133v1434h1112v-236h-854v-391h793v-211h-793zM674 1999q86 0 145.5 -52.5t59.5 -125.5q0 -57 -31 -97.5t-75 -81t-64 -81.5l-134 38q14 49 66.5 98.5t52.5 86.5q0 33 -21.5 52t-51.5 19q-59 0 -109 -75l-92 57q88 162 254 162z" />
    <glyph glyph-name="uni1EBB" unicode="&#x1ebb;" horiz-adv-x="1255" 
d="M633 1057q242 0 391.5 -150.5t149.5 -392.5q0 -18 -5 -88h-829q29 -104 124 -164.5t245 -60.5q205 0 340 90l47 -215q-158 -102 -389 -103q-287 0 -456 149.5t-169 391.5q0 238 155.5 390.5t395.5 152.5zM338 604h590q-6 96 -90 159.5t-203 63.5q-113 0 -191.5 -60.5
t-105.5 -162.5zM635 1620q86 0 145.5 -52t59.5 -126q0 -57 -31 -97t-75 -81t-64 -82l-133 39q14 49 66 98t52 86q0 33 -21.5 52.5t-51.5 19.5q-59 0 -109 -76l-92 57q88 162 254 162z" />
    <glyph glyph-name="uni1EBC" unicode="&#x1ebc;" horiz-adv-x="1368" 
d="M401 596v-360h875v-236h-1133v1434h1112v-236h-854v-391h793v-211h-793zM834 1614q-66 0 -172 63q-70 43 -105 43q-70 0 -88 -106l-129 28q10 111 62.5 171.5t129.5 60.5q63 0 158 -53q92 -57 121 -58q70 0 86 109l127 -29q-8 -117 -59 -173t-131 -56z" />
    <glyph glyph-name="uni1EBD" unicode="&#x1ebd;" horiz-adv-x="1255" 
d="M633 1057q242 0 391.5 -150.5t149.5 -392.5q0 -18 -5 -88h-829q29 -104 124 -164.5t245 -60.5q205 0 340 90l47 -215q-158 -102 -389 -103q-287 0 -456 149.5t-169 391.5q0 238 155.5 390.5t395.5 152.5zM338 604h590q-6 96 -90 159.5t-203 63.5q-113 0 -191.5 -60.5
t-105.5 -162.5zM801 1210q-66 0 -172 64q-70 43 -105 43q-70 0 -88 -107l-129 29q10 111 62.5 171t130.5 60q63 0 157 -53q92 -57 121 -57q70 0 86 108l127 -28q-8 -117 -59 -173.5t-131 -56.5z" />
    <glyph glyph-name="uni1EBE" unicode="&#x1ebe;" horiz-adv-x="1443" 
d="M401 596v-360h875v-236h-1133v1434h1112v-236h-854v-391h793v-211h-793zM1352 2040l-295 -268h-135l198 268h232zM621 1860h184l227 -285h-176l-141 176h-4l-138 -176h-176z" />
    <glyph glyph-name="uni1EBF" unicode="&#x1ebf;" horiz-adv-x="1368" 
d="M633 1057q242 0 391.5 -150.5t149.5 -392.5q0 -18 -5 -88h-829q29 -104 124 -164.5t245 -60.5q205 0 340 90l47 -215q-158 -102 -389 -103q-287 0 -456 149.5t-169 391.5q0 238 155.5 390.5t395.5 152.5zM338 604h590q-6 96 -90 159.5t-203 63.5q-113 0 -191.5 -60.5
t-105.5 -162.5zM1286 1659l-295 -268h-135l199 268h231zM555 1479h184l228 -285h-176l-142 176h-4l-137 -176h-176z" />
    <glyph glyph-name="uni1EC0" unicode="&#x1ec0;" horiz-adv-x="1368" 
d="M401 596v-360h875v-236h-1133v1434h1112v-236h-854v-391h793v-211h-793zM1001 2017l187 -266h-148l-268 266h229zM612 1860h187l225 -285h-176l-139 178h-4l-140 -178h-174z" />
    <glyph glyph-name="uni1EC1" unicode="&#x1ec1;" horiz-adv-x="1255" 
d="M633 1057q242 0 391.5 -150.5t149.5 -392.5q0 -18 -5 -88h-829q29 -104 124 -164.5t245 -60.5q205 0 340 90l47 -215q-158 -102 -389 -103q-287 0 -456 149.5t-169 391.5q0 238 155.5 390.5t395.5 152.5zM338 604h590q-6 96 -90 159.5t-203 63.5q-113 0 -191.5 -60.5
t-105.5 -162.5zM922 1636l186 -266h-147l-269 266h230zM532 1479h187l225 -285h-176l-139 178h-4l-140 -178h-174z" />
    <glyph glyph-name="uni1EC2" unicode="&#x1ec2;" horiz-adv-x="1368" 
d="M401 596v-360h875v-236h-1133v1434h1112v-236h-854v-391h793v-211h-793zM375 1577l221 283h186l226 -283h-177l-139 176h-4l-139 -176h-174zM1047 2109q84 0 138 -48t54 -122q0 -70 -70 -131q-6 -6 -26.5 -24.5t-30.5 -27.5t-22.5 -26.5t-20.5 -33.5l-106 28
q12 43 79 103q51 51 52 88q0 35 -25 55.5t-59 20.5q-70 0 -117 -78l-80 53q37 66 92 102q66 41 142 41z" />
    <glyph glyph-name="uni1EC3" unicode="&#x1ec3;" horiz-adv-x="1255" 
d="M633 1057q242 0 391.5 -150.5t149.5 -392.5q0 -18 -5 -88h-829q29 -104 124 -164.5t245 -60.5q205 0 340 90l47 -215q-158 -102 -389 -103q-287 0 -456 149.5t-169 391.5q0 238 155.5 390.5t395.5 152.5zM338 604h590q-6 96 -90 159.5t-203 63.5q-113 0 -191.5 -60.5
t-105.5 -162.5zM305 1194l221 283h187l225 -283h-176l-139 176h-5l-139 -176h-174zM977 1726q84 0 138 -48t54 -122q0 -70 -69 -131q-6 -6 -26.5 -24.5t-31 -27.5t-22.5 -26.5t-21 -33.5l-106 28q12 43 80 103q51 51 51 88q0 35 -24.5 55.5t-59.5 20.5q-70 0 -117 -78
l-80 53q37 66 93 103q65 40 141 40z" />
    <glyph glyph-name="uni1EC4" unicode="&#x1ec4;" horiz-adv-x="1368" 
d="M401 596v-360h875v-236h-1133v1434h1112v-236h-854v-391h793v-211h-793zM403 1577l222 283h186l225 -283h-176l-139 176h-4l-139 -176h-175zM866 1911q-72 0 -170 61q-76 43 -104 43q-68 0 -84 -106l-129 28q10 111 60 170.5t130 59.5q68 0 156 -53q92 -55 117 -56
q70 0 86 109l127 -29q-21 -227 -189 -227z" />
    <glyph glyph-name="uni1EC5" unicode="&#x1ec5;" horiz-adv-x="1255" 
d="M633 1057q242 0 391.5 -150.5t149.5 -392.5q0 -18 -5 -88h-829q29 -104 124 -164.5t245 -60.5q205 0 340 90l47 -215q-158 -102 -389 -103q-287 0 -456 149.5t-169 391.5q0 238 155.5 390.5t395.5 152.5zM338 604h590q-6 96 -90 159.5t-203 63.5q-113 0 -191.5 -60.5
t-105.5 -162.5zM336 1194l221 283h186l226 -283h-176l-140 176h-4l-139 -176h-174zM799 1528q-72 0 -170 61q-76 43 -105 43q-68 0 -84 -106l-129 28q10 111 60.5 170.5t130.5 59.5q68 0 155 -53q92 -55 117 -56q70 0 86 109l127 -29q-20 -227 -188 -227z" />
    <glyph glyph-name="uni1EC6" unicode="&#x1ec6;" horiz-adv-x="1368" 
d="M401 596v-360h875v-236h-1133v1434h1112v-236h-854v-391h793v-211h-793zM862 1542l-160 205h-4l-157 -205h-181l250 334h183l247 -334h-178zM756 -426q-63 0 -108.5 46t-45.5 107.5t45 105.5t109 44q61 0 106 -44t45 -105.5t-45 -107.5t-106 -46z" />
    <glyph glyph-name="uni1EC7" unicode="&#x1ec7;" horiz-adv-x="1255" 
d="M633 1057q242 0 391.5 -150.5t149.5 -392.5q0 -18 -5 -88h-829q29 -104 124 -164.5t245 -60.5q205 0 340 90l47 -215q-158 -102 -389 -103q-287 0 -456 149.5t-169 391.5q0 238 155.5 390.5t395.5 152.5zM338 604h590q-6 96 -90 159.5t-203 63.5q-113 0 -191.5 -60.5
t-105.5 -162.5zM813 1174l-160 204h-4l-157 -204h-181l250 333h182l248 -333h-178zM707 -426q-63 0 -108.5 46t-45.5 107.5t45 105.5t109 44q61 0 106 -44t45 -105.5t-45 -107.5t-106 -46z" />
    <glyph glyph-name="uni1EC8" unicode="&#x1ec8;" horiz-adv-x="466" 
d="M117 0v1434h258v-1434h-258zM262 1999q86 0 145.5 -52.5t59.5 -125.5q0 -57 -30.5 -97.5t-75 -81t-64.5 -81.5l-133 38q14 49 66.5 98.5t52.5 86.5q0 33 -21.5 52t-52.5 19q-59 0 -109 -75l-92 57q88 162 254 162z" />
    <glyph glyph-name="uni1EC9" unicode="&#x1ec9;" horiz-adv-x="536" 
d="M258 1620q86 0 145.5 -52t59.5 -126q0 -57 -31 -97t-75 -81t-64 -82l-133 39q14 49 66.5 98t52.5 86q0 33 -21.5 52.5t-52.5 19.5q-59 0 -109 -76l-92 57q88 162 254 162zM158 0v1028h241v-1028h-241z" />
    <glyph glyph-name="uni1ECA" unicode="&#x1eca;" horiz-adv-x="591" 
d="M182 0v1434h258v-1434h-258zM297 -426q-63 0 -108.5 46t-45.5 107.5t45 105.5t109 44q61 0 106.5 -44t45.5 -105.5t-45.5 -107.5t-106.5 -46z" />
    <glyph glyph-name="uni1ECB" unicode="&#x1ecb;" horiz-adv-x="569" 
d="M164 0v1028h242v-1028h-242zM284.5 1526q67.5 0 112.5 -46t45 -111.5t-45 -111t-112.5 -45.5t-112.5 45.5t-45 111t45 111.5t112.5 46zM283 -426q-63 0 -108.5 46t-45.5 107.5t45 105.5t109 44q61 0 106 -44t45 -105.5t-45 -107.5t-106 -46z" />
    <glyph glyph-name="uni1ECC" unicode="&#x1ecc;" horiz-adv-x="1640" 
d="M821.5 1460q315.5 0 521 -209t205.5 -534.5t-205.5 -534.5t-521 -209t-522.5 210t-207 533.5t207 533.5t522.5 210zM821 209q205 0 337 143.5t132 364.5t-132 364.5t-337 143.5t-337 -143.5t-132 -364.5t132 -364.5t337 -143.5zM821 -446q-63 0 -108 46t-45 107.5
t45 105.5t108 44q61 0 106.5 -44t45.5 -105.5t-45.5 -107.5t-106.5 -46z" />
    <glyph glyph-name="uni1ECD" unicode="&#x1ecd;" horiz-adv-x="1282" 
d="M641 1057q242 0 400.5 -152.5t158.5 -390.5q0 -236 -159.5 -388.5t-399.5 -152.5t-399.5 153t-159.5 388q2 238 160.5 390.5t398.5 152.5zM641 203q133 -2 222 86t91 225q0 137 -90 225t-223 90q-133 0 -222 -89t-89 -226t89 -224t222 -87zM651 -426q-63 0 -108 46
t-45 107.5t45 105.5t108 44q61 0 106.5 -44t45.5 -105.5t-45.5 -107.5t-106.5 -46z" />
    <glyph glyph-name="uni1ECE" unicode="&#x1ece;" horiz-adv-x="1640" 
d="M821.5 1460q315.5 0 521 -209t205.5 -534.5t-205.5 -534.5t-521 -209t-522.5 210t-207 533.5t207 533.5t522.5 210zM821 209q205 0 337 143.5t132 364.5t-132 364.5t-337 143.5t-337 -143.5t-132 -364.5t132 -364.5t337 -143.5zM803 1999q86 0 145.5 -52.5t59.5 -125.5
q0 -57 -31 -97.5t-75 -81t-64 -81.5l-133 38q14 49 66 98.5t52 86.5q0 33 -21.5 52t-51.5 19q-59 0 -109 -75l-92 57q88 162 254 162z" />
    <glyph glyph-name="uni1ECF" unicode="&#x1ecf;" horiz-adv-x="1282" 
d="M641 1057q242 0 400.5 -152.5t158.5 -390.5q0 -236 -159.5 -388.5t-399.5 -152.5t-399.5 153t-159.5 388q2 238 160.5 390.5t398.5 152.5zM641 203q133 -2 222 86t91 225q0 137 -90 225t-223 90q-133 0 -222 -89t-89 -226t89 -224t222 -87zM608 1620q86 0 145.5 -52
t59.5 -126q0 -57 -30.5 -97t-74.5 -81t-65 -82l-133 39q14 49 66.5 98t52.5 86q0 33 -21.5 52.5t-52.5 19.5q-59 0 -109 -76l-92 57q88 162 254 162z" />
    <glyph glyph-name="uni1ED0" unicode="&#x1ed0;" horiz-adv-x="1640" 
d="M821.5 1460q315.5 0 521 -209t205.5 -534.5t-205.5 -534.5t-521 -209t-522.5 210t-207 533.5t207 533.5t522.5 210zM821 209q205 0 337 143.5t132 364.5t-132 364.5t-337 143.5t-337 -143.5t-132 -364.5t132 -364.5t337 -143.5zM1456 2040l-295 -268h-135l199 268h231z
M725 1860h184l228 -285h-176l-142 176h-4l-137 -176h-176z" />
    <glyph glyph-name="uni1ED1" unicode="&#x1ed1;" horiz-adv-x="1347" 
d="M641 1057q242 0 400.5 -152.5t158.5 -390.5q0 -236 -159.5 -388.5t-399.5 -152.5t-399.5 153t-159.5 388q2 238 160.5 390.5t398.5 152.5zM641 203q133 -2 222 86t91 225q0 137 -90 225t-223 90q-133 0 -222 -89t-89 -226t89 -224t222 -87zM1266 1659l-295 -268h-135
l198 268h232zM535 1479h184l227 -285h-176l-141 176h-4l-138 -176h-176z" />
    <glyph glyph-name="uni1ED2" unicode="&#x1ed2;" horiz-adv-x="1640" 
d="M821.5 1460q315.5 0 521 -209t205.5 -534.5t-205.5 -534.5t-521 -209t-522.5 210t-207 533.5t207 533.5t522.5 210zM821 209q205 0 337 143.5t132 364.5t-132 364.5t-337 143.5t-337 -143.5t-132 -364.5t132 -364.5t337 -143.5zM1124 2017l187 -266h-148l-268 266h229z
M735 1860h187l225 -285h-176l-140 178h-4l-139 -178h-174z" />
    <glyph glyph-name="uni1ED3" unicode="&#x1ed3;" horiz-adv-x="1282" 
d="M641 1057q242 0 400.5 -152.5t158.5 -390.5q0 -236 -159.5 -388.5t-399.5 -152.5t-399.5 153t-159.5 388q2 238 160.5 390.5t398.5 152.5zM641 203q133 -2 222 86t91 225q0 137 -90 225t-223 90q-133 0 -222 -89t-89 -226t89 -224t222 -87zM903 1636l187 -266h-148
l-268 266h229zM514 1479h186l226 -285h-176l-140 178h-4l-139 -178h-174z" />
    <glyph glyph-name="uni1ED4" unicode="&#x1ed4;" horiz-adv-x="1640" 
d="M821.5 1460q315.5 0 521 -209t205.5 -534.5t-205.5 -534.5t-521 -209t-522.5 210t-207 533.5t207 533.5t522.5 210zM821 209q205 0 337 143.5t132 364.5t-132 364.5t-337 143.5t-337 -143.5t-132 -364.5t132 -364.5t337 -143.5zM508 1575l221 283h186l226 -283h-176
l-140 176h-4l-139 -176h-174zM1180 2107q84 0 138 -48t54 -122q0 -70 -69 -131q-6 -6 -27 -24.5t-31 -27.5t-22.5 -26.5t-20.5 -33.5l-106 28q12 43 80 103q51 51 51 88q0 35 -24.5 55.5t-59.5 20.5q-70 0 -117 -78l-80 53q37 66 92 102q66 41 142 41z" />
    <glyph glyph-name="uni1ED5" unicode="&#x1ed5;" horiz-adv-x="1282" 
d="M641 1057q242 0 400.5 -152.5t158.5 -390.5q0 -236 -159.5 -388.5t-399.5 -152.5t-399.5 153t-159.5 388q2 238 160.5 390.5t398.5 152.5zM641 203q133 -2 222 86t91 225q0 137 -90 225t-223 90q-133 0 -222 -89t-89 -226t89 -224t222 -87zM283 1194l221 283h186
l225 -283h-176l-139 176h-4l-139 -176h-174zM954 1726q84 0 138.5 -48t54.5 -122q0 -70 -70 -131q-6 -6 -26.5 -24.5t-30.5 -27.5t-22.5 -26.5t-20.5 -33.5l-107 28q12 43 80 103q51 51 51 88q0 35 -24.5 55.5t-58.5 20.5q-70 0 -117 -78l-80 53q37 66 92 103q65 40 141 40z
" />
    <glyph glyph-name="uni1ED6" unicode="&#x1ed6;" horiz-adv-x="1640" 
d="M821.5 1460q315.5 0 521 -209t205.5 -534.5t-205.5 -534.5t-521 -209t-522.5 210t-207 533.5t207 533.5t522.5 210zM821 209q205 0 337 143.5t132 364.5t-132 364.5t-337 143.5t-337 -143.5t-132 -364.5t132 -364.5t337 -143.5zM506 1575l221 283h186l226 -283h-176
l-140 176h-4l-139 -176h-174zM969 1909q-72 0 -170 61q-76 43 -105 43q-68 0 -84 -106l-129 28q10 111 60.5 170.5t130.5 59.5q68 0 155 -54q92 -55 117 -55q70 0 86 109l127 -29q-20 -227 -188 -227z" />
    <glyph glyph-name="uni1ED7" unicode="&#x1ed7;" horiz-adv-x="1282" 
d="M641 1057q242 0 400.5 -152.5t158.5 -390.5q0 -236 -159.5 -388.5t-399.5 -152.5t-399.5 153t-159.5 388q2 238 160.5 390.5t398.5 152.5zM641 203q133 -2 222 86t91 225q0 137 -90 225t-223 90q-133 0 -222 -89t-89 -226t89 -224t222 -87zM307 1194l221 283h187
l225 -283h-176l-139 176h-4l-140 -176h-174zM770 1528q-72 0 -170 61q-76 43 -104 43q-68 0 -84 -106l-129 28q10 111 60 170.5t130 59.5q68 0 156 -53q92 -55 116 -56q70 0 86 109l127 -29q-20 -227 -188 -227z" />
    <glyph glyph-name="uni1ED8" unicode="&#x1ed8;" horiz-adv-x="1632" 
d="M821.5 1460q315.5 0 521 -209t205.5 -534.5t-205.5 -534.5t-521 -209t-522.5 210t-207 533.5t207 533.5t522.5 210zM821 209q205 0 337 143.5t132 364.5t-132 364.5t-337 143.5t-337 -143.5t-132 -364.5t132 -364.5t337 -143.5zM989 1542l-160 205h-4l-157 -205h-181
l250 334h183l247 -334h-178zM883 -426q-63 0 -108.5 46t-45.5 107.5t45 105.5t109 44q61 0 106 -44t45 -105.5t-45 -107.5t-106 -46z" />
    <glyph glyph-name="uni1ED9" unicode="&#x1ed9;" horiz-adv-x="1282" 
d="M641 1057q242 0 400.5 -152.5t158.5 -390.5q0 -236 -159.5 -388.5t-399.5 -152.5t-399.5 153t-159.5 388q2 238 160.5 390.5t398.5 152.5zM641 203q133 -2 222 86t91 225q0 137 -90 225t-223 90q-133 0 -222 -89t-89 -226t89 -224t222 -87zM782 1174l-159 204h-5
l-157 -204h-180l249 333h183l248 -333h-179zM676 -426q-63 0 -108.5 46t-45.5 107.5t45 105.5t109 44q61 0 106 -44t45 -105.5t-45 -107.5t-106 -46z" />
    <glyph glyph-name="uni1EDA" unicode="&#x1eda;" horiz-adv-x="1865" 
d="M829 1460q377 0 580 -264q84 6 123 58.5t39 164.5v150h211v-162q0 -315 -291 -342q78 -166 78 -344q0 -328 -209 -538t-530.5 -210t-529.5 210t-208 538t207.5 533.5t529.5 205.5zM829.5 215q208.5 0 342 141.5t133.5 364.5t-132.5 360.5t-343.5 137.5
q-209 0 -341 -137.5t-132 -360.5t132.5 -364.5t341 -141.5zM920 1913h251l-278 -334h-193z" />
    <glyph glyph-name="uni1EDB" unicode="&#x1edb;" horiz-adv-x="1484" 
d="M1200 516q-2 -238 -160.5 -390.5t-398.5 -152.5q-242 0 -400.5 153t-158.5 390q0 236 159.5 389.5t399.5 153.5q141 0 260 -57.5t193 -159.5q96 33 96 202v150h213v-162q0 -283 -234 -334q31 -92 31 -182zM330 516q0 -137 89 -226t222 -89t222 89t89 226t-89 225t-222 88
t-222 -88t-89 -225zM772 1509h252l-279 -333h-192z" />
    <glyph glyph-name="uni1EDC" unicode="&#x1edc;" horiz-adv-x="1865" 
d="M829 1460q377 0 580 -264q84 6 123 58.5t39 164.5v150h211v-162q0 -315 -291 -342q78 -166 78 -344q0 -328 -209 -538t-530.5 -210t-529.5 210t-208 538t207.5 533.5t529.5 205.5zM829.5 215q208.5 0 342 141.5t133.5 364.5t-132.5 360.5t-343.5 137.5
q-209 0 -341 -137.5t-132 -360.5t132.5 -364.5t341 -141.5zM481 1913h250l219 -334h-190z" />
    <glyph glyph-name="uni1EDD" unicode="&#x1edd;" horiz-adv-x="1484" 
d="M1200 516q-2 -238 -160.5 -390.5t-398.5 -152.5q-242 0 -400.5 153t-158.5 390q0 236 159.5 389.5t399.5 153.5q141 0 260 -57.5t193 -159.5q96 33 96 202v150h213v-162q0 -283 -234 -334q31 -92 31 -182zM330 516q0 -137 89 -226t222 -89t222 89t89 226t-89 225t-222 88
t-222 -88t-89 -225zM315 1509h250l219 -333h-190z" />
    <glyph glyph-name="uni1EDE" unicode="&#x1ede;" horiz-adv-x="1865" 
d="M829 1460q377 0 580 -264q84 6 123 58.5t39 164.5v150h211v-162q0 -315 -291 -342q78 -166 78 -344q0 -328 -209 -538t-530.5 -210t-529.5 210t-208 538t207.5 533.5t529.5 205.5zM829.5 215q208.5 0 342 141.5t133.5 364.5t-132.5 360.5t-343.5 137.5
q-209 0 -341 -137.5t-132 -360.5t132.5 -364.5t341 -141.5zM776 1999q86 0 145.5 -52.5t59.5 -125.5q0 -57 -30.5 -97.5t-75 -81t-64.5 -81.5l-133 38q14 49 66.5 98.5t52.5 86.5q0 33 -21.5 52t-52.5 19q-59 0 -109 -75l-92 57q88 162 254 162z" />
    <glyph glyph-name="uni1EDF" unicode="&#x1edf;" horiz-adv-x="1484" 
d="M1200 516q-2 -238 -160.5 -390.5t-398.5 -152.5q-242 0 -400.5 153t-158.5 390q0 236 159.5 389.5t399.5 153.5q141 0 260 -57.5t193 -159.5q96 33 96 202v150h213v-162q0 -283 -234 -334q31 -92 31 -182zM330 516q0 -137 89 -226t222 -89t222 89t89 226t-89 225t-222 88
t-222 -88t-89 -225zM666 1620q86 0 145 -52t59 -126q0 -57 -30.5 -97t-74.5 -81t-65 -82l-133 39q14 49 66.5 98t52.5 86q0 33 -21.5 52.5t-52.5 19.5q-59 0 -108 -76l-92 57q88 162 254 162z" />
    <glyph glyph-name="uni1EE0" unicode="&#x1ee0;" horiz-adv-x="1865" 
d="M829 1460q377 0 580 -264q84 6 123 58.5t39 164.5v150h211v-162q0 -315 -291 -342q78 -166 78 -344q0 -328 -209 -538t-530.5 -210t-529.5 210t-208 538t207.5 533.5t529.5 205.5zM829.5 215q208.5 0 342 141.5t133.5 364.5t-132.5 360.5t-343.5 137.5
q-209 0 -341 -137.5t-132 -360.5t132.5 -364.5t341 -141.5zM956 1614q-66 0 -172 63q-70 43 -104 43q-70 0 -88 -106l-129 28q10 111 62.5 171.5t129.5 60.5q63 0 158 -53q92 -57 121 -58q70 0 86 109l127 -29q-8 -117 -59.5 -173t-131.5 -56z" />
    <glyph glyph-name="uni1EE1" unicode="&#x1ee1;" horiz-adv-x="1484" 
d="M1200 516q-2 -238 -160.5 -390.5t-398.5 -152.5q-242 0 -400.5 153t-158.5 390q0 236 159.5 389.5t399.5 153.5q141 0 260 -57.5t193 -159.5q96 33 96 202v150h213v-162q0 -283 -234 -334q31 -92 31 -182zM330 516q0 -137 89 -226t222 -89t222 89t89 226t-89 225t-222 88
t-222 -88t-89 -225zM805 1210q-66 0 -172 64q-70 43 -105 43q-70 0 -88 -107l-129 29q10 111 62.5 171t130.5 60q63 0 158 -53q92 -57 120 -57q70 0 86 108l127 -28q-8 -117 -59 -173.5t-131 -56.5z" />
    <glyph glyph-name="uni1EE2" unicode="&#x1ee2;" horiz-adv-x="1865" 
d="M829 1460q377 0 580 -264q84 6 123 58.5t39 164.5v150h211v-162q0 -315 -291 -342q78 -166 78 -344q0 -328 -209 -538t-530.5 -210t-529.5 210t-208 538t207.5 533.5t529.5 205.5zM829.5 215q208.5 0 342 141.5t133.5 364.5t-132.5 360.5t-343.5 137.5
q-209 0 -341 -137.5t-132 -360.5t132.5 -364.5t341 -141.5zM866 -426q-63 0 -108 46t-45 107.5t45 105.5t108 44q61 0 106.5 -44t45.5 -105.5t-45.5 -107.5t-106.5 -46z" />
    <glyph glyph-name="uni1EE3" unicode="&#x1ee3;" horiz-adv-x="1484" 
d="M1200 516q-2 -238 -160.5 -390.5t-398.5 -152.5q-242 0 -400.5 153t-158.5 390q0 236 159.5 389.5t399.5 153.5q141 0 260 -57.5t193 -159.5q96 33 96 202v150h213v-162q0 -283 -234 -334q31 -92 31 -182zM330 516q0 -137 89 -226t222 -89t222 89t89 226t-89 225t-222 88
t-222 -88t-89 -225zM739 -426q-63 0 -108 46t-45 107.5t45 105.5t108 44q61 0 106.5 -44t45.5 -105.5t-45.5 -107.5t-106.5 -46z" />
    <glyph glyph-name="uni1EE4" unicode="&#x1ee4;" horiz-adv-x="1517" 
d="M758 -27q-268 0 -441.5 154t-173.5 399v908h258v-908q0 -143 99.5 -230t257 -87t258 87t100.5 230v908h258v-908q0 -246 -173 -399.5t-443 -153.5zM803 -426q-63 0 -108.5 46t-45.5 107.5t45 105.5t109 44q61 0 106 -44t45 -105.5t-45 -107.5t-106 -46z" />
    <glyph glyph-name="uni1EE5" unicode="&#x1ee5;" horiz-adv-x="1353" 
d="M971 502v526h243v-1028h-135l-78 205h-6q-61 -109 -165.5 -170.5t-231.5 -61.5q-199 0 -329 146.5t-128 374.5v534h242v-526q0 -131 84 -215t211 -86q125 0 209 84t84 217zM702 -426q-63 0 -108 46t-45 107.5t45 105.5t108 44q61 0 106.5 -44t45.5 -105.5t-45.5 -107.5
t-106.5 -46z" />
    <glyph glyph-name="uni1EE6" unicode="&#x1ee6;" horiz-adv-x="1517" 
d="M758 -27q-268 0 -441.5 154t-173.5 399v908h258v-908q0 -143 99.5 -230t257 -87t258 87t100.5 230v908h258v-908q0 -246 -173 -399.5t-443 -153.5zM731 1999q86 0 145.5 -52.5t59.5 -125.5q0 -57 -31 -97.5t-75 -81t-64 -81.5l-133 38q14 49 66.5 98.5t52.5 86.5
q0 33 -21.5 52t-52.5 19q-59 0 -109 -75l-92 57q88 162 254 162z" />
    <glyph glyph-name="uni1EE7" unicode="&#x1ee7;" horiz-adv-x="1353" 
d="M971 502v526h243v-1028h-135l-78 205h-6q-61 -109 -165.5 -170.5t-231.5 -61.5q-199 0 -329 146.5t-128 374.5v534h242v-526q0 -131 84 -215t211 -86q125 0 209 84t84 217zM629 1620q86 0 145.5 -52t59.5 -126q0 -57 -31 -97t-75 -81t-64 -82l-134 39q14 49 66.5 98
t52.5 86q0 33 -21.5 52.5t-52.5 19.5q-59 0 -108 -76l-92 57q88 162 254 162z" />
    <glyph glyph-name="uni1EE8" unicode="&#x1ee8;" horiz-adv-x="1634" 
d="M760 -27q-268 0 -442.5 154t-174.5 399v908h258v-908q0 -143 100.5 -230t258.5 -87t258 87t100 230v908h258v-222q80 10 112 59.5t32 162.5v133h213v-146q0 -346 -357 -346v-549q0 -246 -174 -399.5t-442 -153.5zM915 1913h252l-278 -334h-193z" />
    <glyph glyph-name="uni1EE9" unicode="&#x1ee9;" horiz-adv-x="1501" 
d="M1350 1165h213v-161q0 -342 -349 -347v-657h-135l-80 207h-4q-61 -111 -165.5 -173.5t-231.5 -60.5q-199 0 -329 146.5t-130 374.5v536h244v-528q0 -131 85 -216t210 -85t209 84t84 217v528h243v-233q74 12 105 60t31 159v149zM735 1509h252l-278 -333h-193z" />
    <glyph glyph-name="uni1EEA" unicode="&#x1eea;" horiz-adv-x="1634" 
d="M760 -27q-268 0 -442.5 154t-174.5 399v908h258v-908q0 -143 100.5 -230t258.5 -87t258 87t100 230v908h258v-222q80 10 112 59.5t32 162.5v133h213v-146q0 -346 -357 -346v-549q0 -246 -174 -399.5t-442 -153.5zM393 1913h250l219 -334h-190z" />
    <glyph glyph-name="uni1EEB" unicode="&#x1eeb;" horiz-adv-x="1501" 
d="M1350 1165h213v-161q0 -342 -349 -347v-657h-135l-80 207h-4q-61 -111 -165.5 -173.5t-231.5 -60.5q-199 0 -329 146.5t-130 374.5v536h244v-528q0 -131 85 -216t210 -85t209 84t84 217v528h243v-233q74 12 105 60t31 159v149zM391 1509h250l219 -333h-190z" />
    <glyph glyph-name="uni1EEC" unicode="&#x1eec;" horiz-adv-x="1634" 
d="M760 -27q-268 0 -442.5 154t-174.5 399v908h258v-908q0 -143 100.5 -230t258.5 -87t258 87t100 230v908h258v-222q80 10 112 59.5t32 162.5v133h213v-146q0 -346 -357 -346v-549q0 -246 -174 -399.5t-442 -153.5zM788 1999q86 0 145.5 -52.5t59.5 -125.5
q0 -57 -30.5 -97.5t-74.5 -81t-65 -81.5l-133 38q14 49 66.5 98.5t52.5 86.5q0 33 -21.5 52t-52.5 19q-59 0 -108 -75l-92 57q87 162 253 162z" />
    <glyph glyph-name="uni1EED" unicode="&#x1eed;" horiz-adv-x="1501" 
d="M1350 1165h213v-161q0 -342 -349 -347v-657h-135l-80 207h-4q-61 -111 -165.5 -173.5t-231.5 -60.5q-199 0 -329 146.5t-130 374.5v536h244v-528q0 -131 85 -216t210 -85t209 84t84 217v528h243v-233q74 12 105 60t31 159v149zM743 1620q86 0 145.5 -52t59.5 -126
q0 -57 -30.5 -97t-74.5 -81t-65 -82l-133 39q14 49 66.5 98t52.5 86q0 33 -21.5 52.5t-52.5 19.5q-59 0 -108 -76l-93 57q88 162 254 162z" />
    <glyph glyph-name="uni1EEE" unicode="&#x1eee;" horiz-adv-x="1634" 
d="M760 -27q-268 0 -442.5 154t-174.5 399v908h258v-908q0 -143 100.5 -230t258.5 -87t258 87t100 230v908h258v-222q80 10 112 59.5t32 162.5v133h213v-146q0 -346 -357 -346v-549q0 -246 -174 -399.5t-442 -153.5zM940 1614q-66 0 -172 63q-70 43 -104 43q-70 0 -89 -106
l-129 28q10 111 62.5 171.5t130.5 60.5q63 0 158 -53q92 -57 121 -58q70 0 86 109l126 -29q-8 -117 -59 -173t-131 -56z" />
    <glyph glyph-name="uni1EEF" unicode="&#x1eef;" horiz-adv-x="1501" 
d="M1350 1165h213v-161q0 -342 -349 -347v-657h-135l-80 207h-4q-61 -111 -165.5 -173.5t-231.5 -60.5q-199 0 -329 146.5t-130 374.5v536h244v-528q0 -131 85 -216t210 -85t209 84t84 217v528h243v-233q74 12 105 60t31 159v149zM874 1210q-66 0 -172 64q-70 43 -104 43
q-70 0 -88 -107l-129 29q10 111 62.5 171t129.5 60q63 0 158 -53q92 -57 121 -57q70 0 86 108l127 -28q-8 -117 -59.5 -173.5t-131.5 -56.5z" />
    <glyph glyph-name="uni1EF0" unicode="&#x1ef0;" horiz-adv-x="1634" 
d="M760 -27q-268 0 -442.5 154t-174.5 399v908h258v-908q0 -143 100.5 -230t258.5 -87t258 87t100 230v908h258v-222q80 10 112 59.5t32 162.5v133h213v-146q0 -346 -357 -346v-549q0 -246 -174 -399.5t-442 -153.5zM838 -426q-63 0 -108.5 46t-45.5 107.5t45 105.5t109 44
q61 0 106 -44t45 -105.5t-45 -107.5t-106 -46z" />
    <glyph glyph-name="uni1EF1" unicode="&#x1ef1;" horiz-adv-x="1501" 
d="M1350 1165h213v-161q0 -342 -349 -347v-657h-135l-80 207h-4q-61 -111 -165.5 -173.5t-231.5 -60.5q-199 0 -329 146.5t-130 374.5v536h244v-528q0 -131 85 -216t210 -85t209 84t84 217v528h243v-233q74 12 105 60t31 159v149zM676 -426q-63 0 -108.5 46t-45.5 107.5
t45 105.5t109 44q61 0 106 -44t45 -105.5t-45 -107.5t-106 -46z" />
    <glyph glyph-name="Ygrave" unicode="&#x1ef2;" horiz-adv-x="1363" 
d="M684 823l375 611h301l-553 -895v-539h-258v547l-545 887h301l373 -611h6zM295 1913h250l219 -334h-191z" />
    <glyph glyph-name="ygrave" unicode="&#x1ef3;" horiz-adv-x="1058" 
d="M827 1028h244l-420 -1116q-84 -225 -196.5 -310t-315.5 -85q-61 0 -139 18v225q78 -25 156 -24q100 0 160.5 50t107.5 171l-436 1071h258l299 -735h6zM176 1509h250l219 -333h-190z" />
    <glyph glyph-name="uni1EF4" unicode="&#x1ef4;" horiz-adv-x="1363" 
d="M684 823l375 611h301l-553 -895v-539h-258v547l-545 887h301l373 -611h6zM688 -426q-63 0 -108 46t-45 107.5t45 105.5t108 44q61 0 106.5 -44t45.5 -105.5t-45.5 -107.5t-106.5 -46z" />
    <glyph glyph-name="uni1EF5" unicode="&#x1ef5;" horiz-adv-x="1058" 
d="M827 1028h244l-420 -1116q-84 -225 -196.5 -310t-315.5 -85q-61 0 -139 18v225q78 -25 156 -24q100 0 160.5 50t107.5 171l-436 1071h258l299 -735h6zM862 -406q-63 0 -108 46.5t-45 108t45 105.5t108 44q61 0 106.5 -44t45.5 -105.5t-45.5 -108t-106.5 -46.5z" />
    <glyph glyph-name="uni1EF6" unicode="&#x1ef6;" horiz-adv-x="1363" 
d="M684 823l375 611h301l-553 -895v-539h-258v547l-545 887h301l373 -611h6zM709 1999q86 0 145 -52.5t59 -125.5q0 -57 -30.5 -97.5t-74.5 -81t-65 -81.5l-133 38q14 49 66.5 98.5t52.5 86.5q0 33 -21.5 52t-52.5 19q-59 0 -108 -75l-92 57q88 162 254 162z" />
    <glyph glyph-name="uni1EF7" unicode="&#x1ef7;" horiz-adv-x="1058" 
d="M827 1028h244l-420 -1116q-84 -225 -196.5 -310t-315.5 -85q-61 0 -139 18v225q78 -25 156 -24q100 0 160.5 50t107.5 171l-436 1071h258l299 -735h6zM549 1620q86 0 145.5 -52t59.5 -126q0 -57 -31 -97t-75 -81t-64 -82l-133 39q14 49 66 98t52 86q0 33 -21.5 52.5
t-51.5 19.5q-59 0 -109 -76l-92 57q88 162 254 162z" />
    <glyph glyph-name="uni1EF8" unicode="&#x1ef8;" horiz-adv-x="1363" 
d="M684 823l375 611h301l-553 -895v-539h-258v547l-545 887h301l373 -611h6zM831 1614q-66 0 -172 63q-70 43 -104 43q-70 0 -88 -106l-129 28q10 111 62.5 171.5t129.5 60.5q63 0 158 -53q92 -57 121 -58q70 0 86 109l127 -29q-8 -117 -59.5 -173t-131.5 -56z" />
    <glyph glyph-name="uni1EF9" unicode="&#x1ef9;" horiz-adv-x="1058" 
d="M827 1028h244l-420 -1116q-84 -225 -196.5 -310t-315.5 -85q-61 0 -139 18v225q78 -25 156 -24q100 0 160.5 50t107.5 171l-436 1071h258l299 -735h6zM709 1210q-66 0 -172 64q-70 43 -105 43q-70 0 -88 -107l-129 29q10 111 62.5 171t130.5 60q63 0 157 -53
q92 -57 121 -57q70 0 86 108l127 -28q-8 -117 -59 -173.5t-131 -56.5z" />
    <glyph glyph-name="endash" unicode="&#x2013;" horiz-adv-x="1241" 
d="M1206 786v-241h-1171v241h1171z" />
    <glyph glyph-name="emdash" unicode="&#x2014;" horiz-adv-x="1650" 
d="M1616 786v-241h-1581v241h1581z" />
    <glyph glyph-name="uni2015" unicode="&#x2015;" horiz-adv-x="1034" 
d="M999 786v-243h-964v243h964z" />
    <glyph glyph-name="quoteleft" unicode="&#x2018;" horiz-adv-x="503" 
d="M244 936q-70 0 -118 52t-48 142q0 104 52 196.5t142 156.5l105 -84q-49 -25 -94 -79t-56 -106q10 6 37 7q55 0 92 -38t37 -98q0 -61 -44 -105t-105 -44z" />
    <glyph glyph-name="quoteright" unicode="&#x2019;" horiz-adv-x="503" 
d="M242 1507q70 0 118 -52t48 -142q0 -104 -52.5 -196.5t-142.5 -155.5l-104 83q49 25 94 79.5t55 105.5q-8 -6 -37 -6q-55 0 -92 37.5t-37 97.5q0 61 44.5 105t105.5 44z" />
    <glyph glyph-name="quotesinglbase" unicode="&#x201a;" horiz-adv-x="503" 
d="M242 258q70 0 118 -52t48 -143q0 -104 -52.5 -196t-142.5 -156l-104 84q49 25 94 79t55 106q-8 -6 -37 -7q-55 0 -92 38t-37 98q0 61 44.5 105t105.5 44z" />
    <glyph glyph-name="quotedblleft" unicode="&#x201c;" horiz-adv-x="882" 
d="M262 936q-70 0 -118 52t-48 142q0 104 52.5 196.5t142.5 156.5l104 -84q-49 -25 -94 -79t-55 -106q8 6 37 7q55 0 92 -38t37 -98q0 -61 -44.5 -105t-105.5 -44zM643 936q-70 0 -118 52t-48 142q0 104 52.5 196.5t142.5 156.5l104 -84q-49 -25 -94 -79t-55 -106q8 6 37 7
q55 0 92 -38t37 -98q0 -61 -44.5 -105t-105.5 -44z" />
    <glyph glyph-name="quotedblright" unicode="&#x201d;" horiz-adv-x="884" 
d="M623 1507q70 0 117.5 -52t47.5 -142q0 -104 -52 -196.5t-142 -155.5l-105 83q49 25 94.5 79.5t55.5 105.5q-8 -6 -37 -6q-55 0 -92 37.5t-37 97.5q0 61 44.5 105t105.5 44zM242 1507q70 0 118 -52t48 -142q0 -104 -52.5 -196.5t-142.5 -155.5l-104 83q49 25 94 79.5
t55 105.5q-8 -6 -37 -6q-55 0 -92 37.5t-37 97.5q0 61 44.5 105t105.5 44z" />
    <glyph glyph-name="quotedblbase" unicode="&#x201e;" horiz-adv-x="886" 
d="M623 258q70 0 117.5 -52t47.5 -143q0 -104 -52 -196t-142 -156l-105 84q49 25 94.5 79t55.5 106q-8 -6 -37 -7q-55 0 -92 38t-37 98q0 61 44.5 105t105.5 44zM242 258q70 0 118 -52t48 -143q0 -104 -52.5 -196t-142.5 -156l-104 84q49 25 94 79t55 106q-8 -6 -37 -7
q-55 0 -92 38t-37 98q0 61 44.5 105t105.5 44z" />
    <glyph glyph-name="dagger" unicode="&#x2020;" horiz-adv-x="954" 
d="M592 1434v-340h340v-232h-340v-862h-230v862h-339v232h339v340h230z" />
    <glyph glyph-name="daggerdbl" unicode="&#x2021;" horiz-adv-x="954" 
d="M592 340v-340h-230v340h-339v231h339v291h-339v232h339v340h230v-340h340v-232h-340v-291h340v-231h-340z" />
    <glyph glyph-name="bullet" unicode="&#x2022;" horiz-adv-x="765" 
d="M385 322q-106 0 -180 73.5t-74 179.5q0 104 74 179t180 75q104 0 179 -74.5t75 -179.5q0 -106 -75 -179.5t-179 -73.5z" />
    <glyph glyph-name="ellipsis" unicode="&#x2026;" horiz-adv-x="1261" 
d="M260 -27q-63 0 -108.5 46.5t-45.5 107.5t45.5 105t108.5 44q61 0 106.5 -44t45.5 -105t-45.5 -107.5t-106.5 -46.5zM631 -27q-63 0 -108.5 46.5t-45.5 107.5t45 105t109 44q61 0 106 -44t45 -105t-45 -107.5t-106 -46.5zM1001 -27q-63 0 -108 46.5t-45 107.5t45 105
t108 44q61 0 106.5 -44t45.5 -105t-45.5 -107.5t-106.5 -46.5z" />
    </font>
</defs>
</svg>
