<?xml version="1.0" standalone="no"?>
<!DOCTYPE svg PUBLIC "-//W3C//DTD SVG 1.1//EN" "http://www.w3.org/Graphics/SVG/1.1/DTD/svg11.dtd" >
<svg xmlns="http://www.w3.org/2000/svg" xmlns:xlink="http://www.w3.org/1999/xlink" version="1.1">
<metadata>
Created by FontForge 20170731 at Tue Jul 14 08:17:17 2020
 By Aleksey,,,
Copyright (c) 2020 by Cahya Sofyan. All rights reserved.
</metadata>
<defs>
<font id="Gliker-BoldSemiCondensed" horiz-adv-x="0" >
  <font-face 
    font-family="Gliker-BoldSemiCondensed"
    font-weight="400"
    font-stretch="semi-condensed"
    units-per-em="1000"
    panose-1="0 0 8 6 0 0 0 0 0 0"
    ascent="766"
    descent="-234"
    x-height="548"
    cap-height="704"
    bbox="-338 -288 941 930"
    underline-thickness="50"
    underline-position="-150"
    unicode-range="U+0020-20AC"
  />
<missing-glyph horiz-adv-x="476" 
d="M89 -231v952h301v-952h-301zM159 -36h158v108h-158v-108zM159 -89h67l-67 -45v-31h158v31h-97l67 45h30v31h-158v-31zM159 129h158v107h-95v-53h32v22h32v-45h-96v76h-31v-107zM159 435h158v33h-63v66h-95v-99zM159 559h158v32h-63v35h63v31h-157v-31h62v-35h-63v-32z
M159 312h95v66h63v32h-158v-32h63v-35h-63v-31zM159 257h158v96h-31v-63h-127v-33zM190 40h96v-44h-96v44zM190 468v34h32v-34h-32z" />
    <glyph glyph-name=".notdef" horiz-adv-x="476" 
d="M89 -231v952h301v-952h-301zM159 -36h158v108h-158v-108zM159 -89h67l-67 -45v-31h158v31h-97l67 45h30v31h-158v-31zM159 129h158v107h-95v-53h32v22h32v-45h-96v76h-31v-107zM159 435h158v33h-63v66h-95v-99zM159 559h158v32h-63v35h63v31h-157v-31h62v-35h-63v-32z
M159 312h95v66h63v32h-158v-32h63v-35h-63v-31zM159 257h158v96h-31v-63h-127v-33zM190 40h96v-44h-96v44zM190 468v34h32v-34h-32z" />
    <glyph glyph-name=".null" 
 />
    <glyph glyph-name="uni000D" horiz-adv-x="333" 
 />
    <glyph glyph-name="space" unicode=" " horiz-adv-x="242" 
 />
    <glyph glyph-name="exclam" unicode="!" horiz-adv-x="276" 
d="M36 694q7 7 18 8q32 4 87 4q54 0 83 -4q10 -1 17.5 -8t7.5 -17q-5 -207 -37 -422q-3 -18 -23 -23q-30 -2 -48 -2q-16 0 -50 2q-19 3 -23 23q-34 243 -38 422v2q0 9 6 15zM66 173q28 27 73 27t73 -27.5t28 -76.5q0 -47 -28 -73q-28 -27 -73 -27t-73 26.5t-28 74.5t28 76z
" />
    <glyph glyph-name="quotedbl" unicode="&#x22;" horiz-adv-x="369" 
d="M58 700h58q40 0 40 -37v-5l-11 -217q-2 -40 -42 -40h-30q-40 0 -43 40l-12 217v4q0 38 40 38zM253 700h58q40 0 40 -38v-4l-12 -217q-2 -40 -42 -40h-30q-40 0 -42 40l-12 217v4q0 38 40 38z" />
    <glyph glyph-name="numbersign" unicode="#" horiz-adv-x="616" 
d="M14 215l1 35q2 32 35 32h41q22 0 25 22l18 92q1 4 1 8q0 18 -21 18h-14q-32 0 -32 35v30q0 33 35 33h33q22 0 25 21l25 128q6 29 37 31l34 2q16 -1 33 -2q32 -3 32 -28q0 -4 -1 -9l-23 -117q-1 -4 -1 -8q0 -18 22 -18h48q22 0 25 21l25 128q5 28 37 31q17 1 33 2
q17 -1 33 -2q32 -3 32 -28q0 -4 -1 -9l-23 -117q-1 -4 -1 -8q0 -18 22 -18h21q32 0 32 -36v-30q0 -32 -35 -32h-41q-21 0 -26 -22l-18 -92q-1 -4 -1 -8q0 -18 22 -18h11q33 0 33 -36l-1 -34q-2 -32 -35 -32h-31q-23 0 -26 -22l-25 -127q-4 -28 -36 -31l-34 -2l-34 2
q-30 3 -30 27q0 4 1 10l24 117q1 4 1 7q0 19 -23 19h-48q-23 0 -26 -22l-25 -127q-5 -28 -36 -31l-34 -2l-34 2q-30 3 -30 27q0 4 1 10l23 117q1 4 1 8q0 18 -22 18h-21q-33 0 -33 35zM273 282h48q21 0 25 22l19 92q1 4 1 8q0 18 -22 18h-49q-22 0 -25 -22l-18 -92
q-1 -4 -1 -8q0 -18 22 -18z" />
    <glyph glyph-name="dollar" unicode="$" horiz-adv-x="550" 
d="M32 262q3 1 6 1q11 0 20 -13q69 -70 174 -70q80 0 82 60q0 27 -28.5 49t-70 40t-82.5 40t-70 61t-29 91q0 138 166 173q18 6 18 23v2l-6 89v3q0 18 20 20q22 1 45 2q22 -1 45 -2q21 -2 21 -20v-3l-6 -82v-4q0 -16 20 -20q69 -7 121 -23q17 -8 19 -26q1 -14 3.5 -70.5
t3.5 -84.5v-3q0 -19 -8.5 -22.5t-11.5 -3.5q-10 0 -18 11q-58 47 -135 49h-5q-38 0 -64 -13.5t-26 -37.5q0 -26 31 -46.5t75.5 -38.5t88.5 -41t75 -64t31 -96q-1 -75 -50.5 -123t-140.5 -65q-18 -5 -18 -20v-5l6 -72q0 -21 -21 -23q-22 -1 -45 -2q-22 1 -45 2q-20 2 -20 20
v3q1 25 5 68v4q0 18 -19 21q-92 11 -153 31q-17 9 -17 29l-3 175q0 22 16 27z" />
    <glyph glyph-name="percent" unicode="%" horiz-adv-x="631" 
d="M115 29l264 650q7 17 26 21q17 4 54 4q30 0 50 -4q14 -3 14 -15q0 -4 -3 -11l-262 -648q-10 -22 -30 -26q-24 -4 -51 -4q-36 0 -51 4q-14 2 -14 15q0 6 3 14zM48 665q35 42 95 42t94.5 -42.5t34.5 -122.5q0 -160 -129 -160q-61 0 -95.5 39.5t-34.5 120.5q0 80 35 123z
M393 276q35 43 95 43t94.5 -42.5t34.5 -122.5q0 -81 -34 -120q-34 -40 -95 -40t-95.5 39.5t-34.5 120.5q0 79 35 122zM111 542q0 -66 32 -66q33 0 33 66q0 71 -33 71q-32 0 -32 -71zM488 88q32 0 32 66q0 71 -32 71t-32 -71q0 -66 32 -66z" />
    <glyph glyph-name="ampersand" unicode="&#x26;" horiz-adv-x="582" 
d="M131 368q10 3 13 7t3 8q0 2 -2.5 6.5t-13.5 8.5q-48 18 -71.5 58t-23.5 91q0 78 67.5 119t169.5 41q99 0 180 -23q24 -8 27 -30q5 -68 7 -139v-2q0 -15 -7.5 -17t-10.5 -2q-10 0 -23 10q-30 22 -65 31t-97 9q-118 0 -118 -58q0 -27 25.5 -49.5t69.5 -22.5h139q10 0 10 10
v14q0 11 18 16q11 4 31 4q17 0 29 -5q16 -5 16 -18v-8q0 -9 9 -9h3l49 5h2q11 0 19.5 -8t8.5 -19v-41q0 -20 -23 -20q-17 -1 -48 -1q-17 0 -17 -15q3 -51 6 -143t4 -103v-3q0 -21 -28 -42q-110 -35 -213 -35q-111 0 -184.5 55.5t-73.5 164.5q0 117 113 155zM205 197
q40 -26 98 -26q45 0 76 22t31 67v25q0 48 -36 52q-48 3 -80 3q-19 0 -33 -1q-51 -3 -74 -20.5t-23 -58.5q0 -38 41 -63z" />
    <glyph glyph-name="quotesingle" unicode="'" horiz-adv-x="174" 
d="M58 700h58q40 0 40 -37v-5l-11 -217q-2 -40 -42 -40h-30q-40 0 -43 40l-12 217v4q0 38 40 38z" />
    <glyph glyph-name="parenleft" unicode="(" horiz-adv-x="320" 
d="M194 730q14 13 28 14q14 -1 29 -14l18 -20q15 -14 15 -30q0 -13 -10 -28q-78 -148 -78 -333t78 -333q11 -15 11 -28q0 -15 -15 -29l-19 -20q-14 -14 -29 -14q-14 0 -28 14q-157 170 -157 410q0 241 157 411z" />
    <glyph glyph-name="parenright" unicode=")" horiz-adv-x="320" 
d="M50 -14q78 148 78 333t-78 333q-10 15 -10 28q0 16 15 30l18 20q15 13 29 14q14 -1 28 -14q157 -170 157 -411q0 -240 -157 -410q-14 -14 -28 -14q-15 0 -29 14l-19 20q-15 14 -15 29q0 13 11 28z" />
    <glyph glyph-name="asterisk" unicode="*" horiz-adv-x="411" 
d="M17 584l9 18q10 18 24 18q9 0 19 -7l71 -52q8 -6 15 -6q4 0 9.5 3.5t5.5 18.5v3l-4 94v4q0 32 30 32h18q30 0 30 -32v-4l-4 -94v-3q0 -15 5.5 -18.5t9.5 -3.5q7 0 15 6l71 52q10 6 19 6q14 0 25 -17l9 -18q5 -10 5 -19q0 -17 -19 -28l-75 -43q-14 -8 -14 -18.5t14 -18.5
l75 -43q19 -11 19 -27q0 -9 -6 -20l-8 -16q-10 -18 -24 -18q-9 0 -19 7l-72 52q-9 6 -15 6q-4 0 -9.5 -3.5t-5.5 -18.5v-3l4 -94v-4q0 -32 -30 -32h-18q-30 0 -30 32v4l4 94v3q0 15 -5.5 18.5t-9.5 3.5q-6 0 -15 -6l-71 -52q-11 -7 -20 -7q-14 0 -23 19l-8 15q-6 11 -6 20
q0 16 19 27l74 43q14 8 14 18t-14 18l-75 44q-18 12 -18 28q0 9 5 19z" />
    <glyph glyph-name="plus" unicode="+" horiz-adv-x="509" 
d="M30 336v13q0 43 44 43h99q27 0 27 27v91q0 43 43 43h24q43 0 43 -43v-91q0 -27 27 -27h98q44 0 44 -43v-13q0 -44 -44 -44h-98q-27 0 -27 -27v-95q0 -43 -43 -43h-24q-43 0 -43 43v95q0 27 -27 27h-99q-44 0 -44 44z" />
    <glyph glyph-name="comma" unicode="," horiz-adv-x="229" 
d="M11 99q0 48 29 75t75 27t74.5 -32.5t28.5 -87.5q-1 -64 -25 -116t-63 -82q-8 -6 -16 -6q-10 0 -19 11l-23 27q-6 8 -6 15q0 10 10 19q19 14 26 34q2 4 2 7q0 2 -1.5 5t-6.5 3h-2h-4q-31 0 -55 28t-24 73z" />
    <glyph glyph-name="hyphen" unicode="-" horiz-adv-x="370" 
d="M65 302h241q32 0 32 -33v-50q0 -32 -32 -32h-241q-32 0 -32 32v50q0 33 32 33z" />
    <glyph glyph-name="period" unicode="." horiz-adv-x="225" 
d="M11 97q0 48 28 75.5t73 27.5t73.5 -27.5t28.5 -76.5q0 -47 -28 -73q-29 -27 -74 -27t-73 26.5t-28 74.5z" />
    <glyph glyph-name="slash" unicode="/" horiz-adv-x="398" 
d="M13 26q120 460 180 651q7 18 32 23q32 4 80 4q21 0 63 -4q9 -2 13.5 -7t4.5 -10q0 -2 -1 -5q-148 -544 -179 -652q-6 -22 -32 -26q-32 -4 -67 -4q-47 0 -77 4q-18 3 -18 19q0 3 1 7z" />
    <glyph glyph-name="zero" unicode="0" horiz-adv-x="582" 
d="M12 338q0 182 73 275t206 94q133 0 206.5 -93.5t73.5 -275.5q0 -345 -280 -345q-279 0 -279 345zM291 186q76 0 76 157q0 171 -76 171t-76 -171q0 -157 76 -157z" />
    <glyph glyph-name="one" unicode="1" horiz-adv-x="364" 
d="M9 501q2 129 4 157q2 23 25 28q92 18 177 18q57 0 86 -4q22 -3 25 -26q13 -207 15 -649q0 -21 -25 -25q-33 -4 -85 -4q-60 0 -92 4q-11 2 -18 10t-7 17v3q29 244 29 416q-1 35 -6.5 49t-23.5 14h-1q-23 0 -66 -28q-7 -6 -15 -6q-5 0 -13.5 4t-8.5 19v3z" />
    <glyph glyph-name="two" unicode="2" horiz-adv-x="555" 
d="M18 162q2 50 34 92t75.5 70.5t87 53t73.5 50t30 50.5q0 24 -23.5 37.5t-61.5 13.5q-35 0 -76.5 -17t-69.5 -42q-8 -12 -18 -12q-4 0 -12.5 3.5t-8.5 22.5v3q2 75 10 166q2 18 19 26q86 28 195 28q248 0 248 -181q0 -52 -29 -95.5t-70.5 -72t-83 -52t-70.5 -47t-29 -46.5
q1 -22 21 -33t67 -11q99 0 167 63q10 12 21 12q3 0 12.5 -3t9.5 -26q0 -74 -2 -186q0 -10 -5.5 -19t-14.5 -10q-49 -4 -243 -4q-158 0 -217 4q-37 3 -37 36v31q0 37 1 95z" />
    <glyph glyph-name="three" unicode="3" horiz-adv-x="538" 
d="M36 240q1 13 8 18t13 5q3 0 9.5 -1.5t11.5 -11.5q30 -49 62 -65.5t85 -16.5q51 0 82.5 25t31.5 65q0 45 -21.5 65t-66.5 20q-59 0 -109 -31q-6 -7 -13 -7q-3 0 -10 3.5t-7 18.5v77q0 11 7.5 18t16.5 7h3q91 -7 109 -7q49 0 69 14t20 43q0 25 -22 41t-66 16
q-100 0 -165 -59q-10 -10 -19 -10q-4 0 -11.5 3t-7.5 18v3q2 93 10 164q2 22 26 30q74 22 185 22q104 0 169 -41t65 -120q0 -110 -103 -148q-10 -3 -12.5 -7t-2.5 -7q0 -2 2.5 -6t12.5 -7q57 -20 88 -60t31 -96q0 -107 -72.5 -164.5t-194.5 -57.5q-114 0 -207 29
q-20 11 -20 32q4 100 13 186z" />
    <glyph glyph-name="four" unicode="4" horiz-adv-x="614" 
d="M14 274q3 181 51 400q7 23 29 26q27 4 64 4q52 0 79 -4q12 -2 17 -9.5t5 -14.5q0 -4 -2 -9q-24 -99 -36 -250q-1 -5 -1 -10q0 -37 42 -37h40q17 0 27.5 10.5t10.5 30.5v14q0 92 -12 244v4q0 23 24 28q31 3 78 3q36 0 65 -3q24 -5 25 -25q15 -148 15 -281q0 -14 14 -14
q6 0 18 0.5t18 0.5q17 0 19 -21v-101q-1 -21 -18 -21h-31q-15 0 -15 -17v-2q0 -33 0.5 -95.5t0.5 -97.5q0 -11 -7.5 -18.5t-18.5 -8.5q-42 -4 -80 -4q-43 0 -85 4q-11 1 -17.5 9t-6.5 19v3q12 136 12 161q0 21 -9.5 31t-26.5 10h-3q-7 0 -85 -3.5t-115 -3.5q-25 0 -40 1
q-19 2 -32 14t-13 33z" />
    <glyph glyph-name="five" unicode="5" horiz-adv-x="549" 
d="M12 57q0 68 4 148q0 19 8.5 22t11.5 3q9 0 16 -8q62 -62 178 -62q44 0 66 27t22 72q0 103 -119 103q-25 0 -52.5 -1.5t-54 -4t-35.5 -3.5h-6q-10 0 -19.5 6t-9.5 20q4 173 17 283q2 18 8.5 27t21.5 11q55 4 195 4q144 0 204 -4q23 -2 26 -28q3 -38 8 -166v-2
q0 -17 -8 -19.5t-11 -2.5q-10 0 -17 10q-55 63 -167 63q-81 0 -84 -55v-29q1 -15 26 -21.5t56 -6.5h17q12 1 24 1q96 0 146 -47t50 -179q0 -101 -67.5 -163t-186.5 -62q-55 0 -130.5 10.5t-122.5 28.5q-15 7 -15 23v2z" />
    <glyph glyph-name="six" unicode="6" horiz-adv-x="555" 
d="M94 609q81 98 222 98q96 0 180 -42q16 -9 16 -33q2 -114 3 -152q0 -20 -8.5 -22t-10.5 -2q-11 0 -17 13q-50 72 -148 72q-50 0 -88.5 -35t-49.5 -89q-2 -6 -2 -10q0 -7 4 -10.5t8 -3.5q7 0 15 8q56 39 128 39q80 0 139 -57.5t59 -136.5q0 -124 -65.5 -188.5t-182.5 -64.5
q-135 0 -209.5 84.5t-74.5 253.5q0 180 82 278zM204 258q0 -47 23.5 -72.5t57.5 -25.5q35 0 53.5 26t18.5 68t-18.5 69t-49.5 27t-58 -27t-27 -65z" />
    <glyph glyph-name="seven" unicode="7" horiz-adv-x="531" 
d="M15 673q0 25 27 27q59 4 223 4q147 0 224 -4q28 -2 30 -27q2 -27 2 -76q0 -26 -8 -48q-90 -316 -186 -524q-11 -22 -37 -25q-40 -4 -93 -4q-48 0 -98 4q-12 2 -15.5 9.5t-3.5 12.5q0 8 4 17q20 44 96 190t101 221q7 18 7 32q0 15 -11.5 31.5t-58.5 16.5q-111 0 -166 -77
q-7 -12 -19 -12q-3 0 -12 2t-9 23q0 132 3 207z" />
    <glyph glyph-name="eight" unicode="8" horiz-adv-x="577" 
d="M46 312q34 46 92 64q12 4 12 13t-12 13q-108 40 -108 142q0 75 70 118.5t188 43.5t188 -43.5t70 -118.5q0 -99 -108 -142q-12 -5 -12 -13.5t13 -12.5q58 -17 92 -63t34 -111q0 -103 -72 -155t-205 -53h-5q-130 0 -200.5 52.5t-70.5 155.5q0 63 34 110zM201 244
q0 -82 87 -84q87 2 87 84q0 45 -23 71t-64 26t-64 -26t-23 -71zM288 426q41 0 62 16.5t21 45.5q0 27 -23 42.5t-60 15.5q-38 0 -60 -15.5t-22 -42.5q0 -62 82 -62z" />
    <glyph glyph-name="nine" unicode="9" horiz-adv-x="557" 
d="M14 459q0 122 65 185t182 63q135 0 210 -84t75 -252q0 -180 -82.5 -279t-223.5 -99q-122 0 -201 42q-15 9 -15 28v5q2 97 5 152q1 20 9 21.5t11 2.5q10 -1 18 -13q25 -33 67.5 -52.5t91.5 -19.5q51 0 90.5 35.5t48.5 89.5q2 6 2 11q0 6 -3.5 9t-6.5 3q-6 0 -15 -8
q-58 -39 -131 -39q-81 0 -139 59t-58 140zM200 446q0 -42 18.5 -69t49.5 -27q32 0 58.5 27t26.5 65q0 47 -23.5 72.5t-57.5 25.5q-35 0 -53.5 -26t-18.5 -68z" />
    <glyph glyph-name="colon" unicode=":" horiz-adv-x="225" 
d="M39 520q28 27 73 27t73.5 -27.5t28.5 -76.5q0 -47 -28 -74q-29 -27 -74 -27t-73 27t-28 75t28 76zM39 173q28 27 73 27t73.5 -27.5t28.5 -76.5q0 -47 -28 -73q-29 -27 -74 -27t-73 26.5t-28 74.5t28 76z" />
    <glyph glyph-name="semicolon" unicode=";" horiz-adv-x="229" 
d="M11 99q0 48 29 75t75 27t74.5 -32.5t28.5 -87.5q-1 -64 -25 -116t-63 -82q-8 -6 -16 -6q-10 0 -19 11l-23 27q-6 8 -6 15q0 10 10 19q19 14 26 34q2 4 2 7q0 2 -1.5 5t-6.5 3h-2h-4q-31 0 -55 28t-24 73zM11 444q0 48 28 75.5t73 27.5t73.5 -27.5t28.5 -76.5
q0 -47 -28 -74q-29 -27 -74 -27t-73 27t-28 75z" />
    <glyph glyph-name="equal" unicode="=" horiz-adv-x="514" 
d="M76 412h362q44 0 44 -43v-15q0 -5 -2 -15q2 -8 2 -14v-14q0 -43 -44 -43h-362q-43 0 -43 43v14q0 5 2 15q-2 8 -2 14v15q0 43 43 43z" />
    <glyph glyph-name="question" unicode="?" horiz-adv-x="446" 
d="M20 564v90q0 27 24 34q57 19 143 19q107 0 174 -54t67 -137q0 -67 -35 -104t-105 -59q-21 -9 -24 -31l-5 -61q-3 -24 -31 -27q-15 -1 -30 -1t-30 1q-28 3 -31 27l-11 110q-1 4 -1 8q0 23 27 27q124 12 124 100q0 35 -26 56t-73 21q-36 0 -70.5 -10t-51.5 -25
q-8 -8 -16 -8q-3 0 -11 3.5t-8 20.5zM97 97q0 48 28 75.5t73 27.5t73.5 -27.5t28.5 -76.5q0 -47 -28 -73q-29 -27 -74 -27t-73 26.5t-28 74.5z" />
    <glyph glyph-name="at" unicode="@" horiz-adv-x="778" 
d="M26 239q5 131 55 238.5t142 172t208 64.5q150 0 236.5 -94t86.5 -233q0 -11 -1 -22q-3 -127 -51.5 -212.5t-138.5 -85.5q-85 0 -114 66q-7 18 -10.5 18.5l-3.5 0.5q-6 0 -17 -17q-19 -29 -48 -47.5t-60 -18.5q-60 0 -93.5 39t-33.5 102v14q3 118 56.5 201t128.5 83
q43 0 74 -38q16 -23 24 -23q9 0 9 26v3q0 22 28 25q17 2 35 3q17 -1 35 -3q24 -3 24 -23v-5l-35 -236q-4 -26 -4 -47v-9q2 -48 44 -48q41 0 65.5 68t26.5 167v17q0 118 -68.5 194.5t-200.5 76.5q-99 0 -176.5 -57.5t-118.5 -152t-45 -209.5v-22q0 -138 73 -217.5t211 -79.5
q86 0 156 26q13 5 22 5q17 0 22 -16q2 -6 2 -11q0 -18 -25 -29q-77 -32 -182 -32q-159 0 -248.5 94.5t-89.5 258.5v25zM320 180q14 -16 40 -16q36 0 63 60t30 115v4q0 29 -15.5 45.5t-41.5 16.5q-37 0 -62.5 -60t-27.5 -117v-4q0 -29 14 -44z" />
    <glyph glyph-name="A" unicode="A" horiz-adv-x="600" 
d="M8 29q21 173 64.5 353t88.5 300q6 15 23 18q40 4 115 4q76 0 116 -4q18 -3 24 -18q45 -119 88 -300.5t64 -353.5v-5q0 -8 -5.5 -14.5t-17.5 -8.5q-44 -4 -88 -4q-42 0 -86 4q-11 2 -17.5 9t-6.5 16v3q3 26 3 54q0 29 -3 60q-6 46 -57 46h-27q-22 0 -38 -12t-19 -34
q-2 -27 -2 -55q0 -29 2 -59v-5q0 -19 -24 -23q-46 -4 -92 -4q-39 0 -81 4q-24 3 -24 24v5zM266 289q9 -9 27 -9h14q18 0 25.5 7.5t7.5 17.5q0 4 -1 9q-5 73 -25 173q-6 24 -14.5 24t-14.5 -24q-18 -91 -24 -173q-1 -5 -1 -9q0 -10 6 -16z" />
    <glyph glyph-name="B" unicode="B" horiz-adv-x="582" 
d="M18 29q0 376 22 647q2 22 24 24q66 4 245 4q236 0 236 -139q0 -54 -43.5 -100t-118.5 -68q-14 -7 -14 -14t14 -14q91 -25 139.5 -79t48.5 -117t-45.5 -105t-111.5 -58.5t-148 -16.5q-121 0 -221 7q-11 1 -19 9.5t-8 19.5zM225 196q0 -27 26 -27l41 -1q32 0 51 18.5
t19 51.5t-29.5 58.5t-82.5 36.5q-6 2 -10 2q-15 0 -15 -21v-58v-60zM225 431q0 -19 14 -19q5 0 10 2q49 11 72.5 34t23.5 50q0 53 -70 53h-28q-22 -2 -22 -21q-1 -25 -1 -50q0 -24 1 -49z" />
    <glyph glyph-name="C" unicode="C" horiz-adv-x="568" 
d="M12 320q0 176 87 281.5t230 105.5q96 0 168 -40q13 -8 13 -25v-5q-3 -23 -8 -87t-6 -79q-1 -17 -8 -19t-10 -2q-9 0 -16 10q-52 58 -121 58q-58 0 -89 -47.5t-31 -140.5q0 -69 34 -103.5t93 -34.5q95 0 161 75q7 11 16 11q3 0 11 -3t9 -23q3 -61 7 -190v-2q0 -18 -17 -28
q-34 -16 -95.5 -27.5t-116.5 -11.5q-311 0 -311 327z" />
    <glyph glyph-name="D" unicode="D" horiz-adv-x="587" 
d="M18 28q0 348 22 648q2 22 25 24q75 4 183 4q149 0 238.5 -103t89.5 -289q0 -171 -75.5 -245t-226.5 -74q-152 0 -231 7q-11 1 -18 9t-7 19zM226 236q0 -37 29 -37h22q42 0 68.5 29.5t26.5 90.5q0 93 -28 145t-75 52q-12 0 -18 -1q-25 0 -25 -30q-1 -62 -1 -124
q0 -63 1 -125z" />
    <glyph glyph-name="E" unicode="E" horiz-adv-x="553" 
d="M18 27q4 435 22 650q3 21 26 23q53 4 200 4q138 0 199 -4q24 -2 26 -25q6 -88 6 -186v-3q0 -15 -7.5 -18t-11.5 -3q-10 0 -20 10q-63 57 -155 57q-38 0 -58.5 -15.5t-20.5 -40.5v-6q0 -48 79 -48q19 0 108 7h3q9 0 17 -7t8 -18v-81q0 -15 -7 -18.5t-10 -3.5q-7 0 -14 7
q-50 31 -102 31h-3q-80 -2 -80 -67v-20q0 -41 27 -62.5t75 -21.5q58 0 93 19.5t65 69.5q5 10 11.5 11.5t9.5 1.5q6 0 13 -5t8 -18q10 -89 12 -221v-3q0 -9 -6.5 -15.5t-17.5 -7.5q-54 -4 -252 -4q-171 0 -217 4q-11 1 -18.5 8.5t-7.5 18.5z" />
    <glyph glyph-name="F" unicode="F" horiz-adv-x="509" 
d="M40 677q3 21 27 23q69 3 202 3q142 0 196 -3q24 -2 26 -25q5 -82 7 -199v-2q0 -15 -8 -18t-12 -3q-9 0 -18 10q-56 67 -157 67q-38 0 -58.5 -16t-20.5 -41v-8q0 -57 79 -57q45 0 106 8h3q9 0 16 -6.5t8 -18.5q2 -37 5 -113v-3q0 -15 -7 -17.5t-10 -2.5q-8 0 -15 8
q-52 36 -108 36h-6q-72 0 -72 -83q0 -27 4.5 -59t13 -72.5t10.5 -54.5v-5q0 -8 -6.5 -15.5t-17.5 -9.5q-26 -4 -95 -4q-50 0 -87 4q-27 4 -27 27q2 410 22 650z" />
    <glyph glyph-name="G" unicode="G" horiz-adv-x="599" 
d="M100 600q87 106 229 107q101 0 178 -37q15 -10 15 -29v-5q-5 -65 -14 -162q-1 -16 -8 -18t-10 -2q-8 0 -15 8q-58 51 -131 51q-56 0 -89 -48t-33 -145q0 -132 78 -132q30 0 49.5 30t19.5 78q0 49 -16 75q-4 7 -4 13q0 5 3.5 11.5t16.5 7.5q122 7 173 8q26 0 28 -25
q12 -142 12 -310v-48q0 -26 -25 -28q-19 -2 -69.5 -2t-71.5 2q-26 4 -26 24v2q5 42 5 82q0 22 -4 22.5l-4 0.5q-8 0 -15 -21q-37 -117 -138 -117q-103 0 -162.5 78.5t-59.5 245.5q0 177 88 283z" />
    <glyph glyph-name="H" unicode="H" horiz-adv-x="591" 
d="M18 27q0 431 22 648q2 21 29 25q28 4 67 4q53 0 80 -4q12 -2 19 -10t7 -18v-3q-8 -87 -10 -198q0 -47 50 -47q7 -1 13 -1q7 0 13 1q51 0 51 47q-1 90 -10 198v4q0 23 26 28q33 3 81 3q38 0 66 -3q27 -5 28 -25q23 -213 23 -649q0 -23 -29 -27q-44 -4 -83 -4q-44 0 -88 4
q-26 4 -26 26v5q11 128 11 202q0 49 -50 49h-26q-22 0 -35.5 -13t-13.5 -36q0 -74 11 -202v-5q0 -22 -26 -26q-44 -4 -89 -4q-38 0 -82 4q-12 2 -20.5 9t-8.5 18z" />
    <glyph glyph-name="I" unicode="I" horiz-adv-x="261" 
d="M35 675q1 20 25 25q36 4 71 4q33 0 71 -4q23 -5 24 -25q18 -266 18 -647q0 -24 -27 -28q-44 -4 -86 -4q-43 0 -87 4q-26 4 -26 28q0 395 17 647z" />
    <glyph glyph-name="J" unicode="J" horiz-adv-x="546" 
d="M15 54q0 107 4 188q1 21 9 24t11 3q9 0 17 -12q63 -68 139 -68q56 0 90 32.5t35 98.5q1 48 1 85q0 36 -1 61q-2 51 -57 51q-100 0 -159 -41q-9 -7 -17 -7q-4 0 -11.5 3.5t-7.5 21.5q2 87 7 180q2 24 26 26q50 4 187 4q125 0 191 -4q23 0 27 -25q23 -223 23 -406
q0 -151 -81 -213.5t-229 -62.5q-106 0 -186 31q-18 8 -18 26v4z" />
    <glyph glyph-name="K" unicode="K" horiz-adv-x="608" 
d="M18 28q2 410 21 648q3 19 25 24q27 4 81 4q50 0 77 -4q25 -5 25 -24v-4q-16 -108 -16 -162q0 -17 6.5 -30t16.5 -13q33 0 58 68.5t31 140.5q1 21 25 24q29 4 83 4q40 0 86 -4q26 -3 26 -27v-5q-14 -222 -206 -260q-7 -2 -9 -5.5t-2 -5.5t2 -5.5t10 -5.5
q108 -20 166.5 -102.5t72.5 -251.5v-3q0 -10 -7.5 -18.5t-20.5 -10.5q-29 -4 -88 -4q-55 0 -105 4q-26 3 -26 28v6q0 94 -29 181.5t-68 87.5q-11 0 -17.5 -16.5t-6.5 -42.5q0 -88 19 -215v-4q0 -9 -7 -16t-18 -9q-44 -4 -89 -4q-57 0 -89 4q-11 2 -19 9.5t-8 18.5z" />
    <glyph glyph-name="L" unicode="L" horiz-adv-x="549" 
d="M18 27q4 435 22 650q3 19 26 23q33 4 102 4q26 0 76 -4q12 -2 18.5 -9.5t6.5 -15.5v-4q-17 -98 -24 -140.5t-13.5 -113t-6.5 -133.5q0 -99 100 -99q58 0 92.5 19.5t64.5 69.5q8 14 20 14q3 0 12 -1.5t10 -22.5q10 -107 12 -238v-3q0 -9 -6.5 -15.5t-17.5 -7.5
q-54 -4 -251 -4q-171 0 -217 4q-11 1 -18.5 8.5t-7.5 18.5z" />
    <glyph glyph-name="M" unicode="M" horiz-adv-x="745" 
d="M60 676q3 20 26 24q44 4 87 4q53 0 82 -4q32 -5 40 -36q3 -14 14 -69.5t17 -81.5q25 -106 47 -106q21 0 45 103q6 24 17.5 80.5t15.5 73.5q7 31 39 36q28 4 81 4q55 0 88 -4q23 -3 26 -24q40 -352 45 -648v-3q0 -21 -25 -25q-29 -4 -83 -4q-61 0 -92 4q-23 4 -23 25v5
q11 108 11 189v24q0 124 -22 124q-15 0 -32 -71q-1 -6 -4 -20l-5 -21q-4 -19 -12 -53l-13 -50q-16 -57 -58 -57q-39 0 -56 57q-15 59 -26 105q-11 54 -20 81t-21 27q-20 0 -22 -124v-24q0 -80 11 -187v-5q0 -21 -23 -25q-29 -4 -90 -4q-54 0 -85 4q-25 4 -25 28
q5 299 45 648z" />
    <glyph glyph-name="N" unicode="N" horiz-adv-x="590" 
d="M18 28q0 374 24 647q1 20 25 25q19 4 55 4q19 0 51 -4q31 -4 51 -37q78 -191 113 -233q15 -17 25 -17q12 0 15.5 22.5t3.5 44.5q0 14 -2 43.5t-7 69.5t-11 73v5q0 9 6.5 17.5t19.5 11.5q38 4 67 4t69 -4q26 -5 27 -25q21 -235 22 -561v-6q0 -115 -78 -115q-38 0 -72 32
t-58 78t-44.5 92t-39.5 78t-35 32q-23 0 -23 -69q0 -26 3 -64.5t8 -81.5t6 -58v-6q0 -21 -27 -26q-32 -4 -86 -4q-47 0 -80 4q-28 5 -28 28z" />
    <glyph glyph-name="O" unicode="O" horiz-adv-x="604" 
d="M90 604q78 102 212 103q134 0 212.5 -102.5t78.5 -286.5q0 -176 -75 -250.5t-216 -74.5q-140 0 -215 74.5t-75 250.5q0 184 78 286zM221 325q0 -137 81 -137q82 0 82 137q0 81 -22.5 134t-59.5 53t-59 -52.5t-22 -134.5z" />
    <glyph glyph-name="P" unicode="P" horiz-adv-x="552" 
d="M40 677q2 22 24 25q84 6 234 6q115 0 179 -46.5t64 -137.5q0 -81 -43 -142t-109 -90.5t-144 -31.5q-20 -1 -20 -34v-3q0 -33 5 -66t13 -70t11 -57v-3q0 -9 -6 -17t-18 -10q-24 -4 -94 -4q-62 0 -93 4q-25 3 -25 25q0 401 22 652zM226 384q2 -17 16 -17q3 0 7 1
q45 4 69.5 31t24.5 62q0 65 -78 65q-13 0 -19 -1q-18 0 -20 -18q-1 -29 -1 -59q0 -31 1 -64z" />
    <glyph glyph-name="Q" unicode="Q" horiz-adv-x="608" 
d="M92 604q78 103 212 103t212.5 -103t78.5 -287q0 -149 -61 -227.5t-170 -92.5q-17 -4 -17.5 -11.5t-0.5 -8.5q0 -14 15 -20q30 -8 57 -8q53 0 97 22q9 7 16 7q3 0 9.5 -3.5t7.5 -18.5q0 -17 1.5 -63t1.5 -67q0 -10 -7.5 -17.5t-18.5 -9.5q-68 -5 -148 -5q-102 0 -152 5
q-23 4 -23 24v5q3 22 11.5 75.5t11.5 81.5v4q0 11 -11 14q-201 40 -201 314q0 184 79 287zM222 322q0 -139 82 -139t82 139q0 83 -22 136t-60 53q-37 0 -59.5 -53.5t-22.5 -135.5z" />
    <glyph glyph-name="R" unicode="R" horiz-adv-x="579" 
d="M40 676q1 10 8 17t17 8q56 3 237 3q115 0 176.5 -38.5t61.5 -115.5q0 -69 -46.5 -121.5t-125.5 -74.5q-8 -2 -10 -5.5t-2 -5.5t2.5 -5.5t10.5 -5.5q185 -39 197 -303v-2q0 -11 -8 -18t-20 -9q-32 -4 -89 -4q-46 0 -92 4q-27 4 -27 27v8q0 88 -21.5 162t-58.5 93
q-4 2 -7 2q-5 0 -11 -7.5t-7 -26.5v-13q0 -74 19 -216v-4q0 -9 -6.5 -16t-18.5 -9q-37 -4 -95 -4q-52 0 -80 4q-26 4 -26 26q0 351 22 650zM228 396q1 -17 13 -17q5 0 13 3q42 13 64 35t22 49q0 54 -71 54h-19q-20 0 -22 -25q-1 -32 -1 -57t1 -42z" />
    <glyph glyph-name="S" unicode="S" horiz-adv-x="550" 
d="M32 262q3 1 6 1q11 0 20 -13q69 -70 174 -70q80 0 82 60q0 26 -28.5 47.5t-70 39.5t-82.5 40.5t-70 61.5t-29 92q0 92 65.5 139t184.5 47q108 0 194 -28q17 -8 19 -26q1 -14 3.5 -70.5t3.5 -84.5v-3q0 -19 -8.5 -22.5t-11.5 -3.5q-10 0 -18 11q-58 47 -135 49h-5
q-38 0 -64 -13.5t-26 -37.5q0 -25 31 -45.5t75.5 -38.5t88.5 -40.5t75 -64t31 -97.5q-1 -95 -71.5 -147t-195.5 -52q-52 0 -119.5 10.5t-114.5 27.5q-17 9 -17 29l-3 175q0 22 16 27z" />
    <glyph glyph-name="T" unicode="T" horiz-adv-x="555" 
d="M18 676q3 22 26 24q61 4 234 4q172 0 232 -4q24 -1 27 -24q8 -82 8 -203q0 -21 -8.5 -24t-12.5 -3q-9 0 -16 11q-24 26 -55.5 46t-56.5 20q-32 0 -32 -38q0 -7 1 -15q16 -252 35 -439v-3q0 -9 -7 -17t-19 -10q-24 -3 -94 -3q-61 0 -97 3q-12 2 -19 10t-7 17v3
q17 166 34 439q1 8 1 15q0 39 -32 39q-48 0 -113 -67q-7 -11 -16 -11q-4 0 -12.5 3t-8.5 25q0 93 8 202z" />
    <glyph glyph-name="U" unicode="U" horiz-adv-x="584" 
d="M41 676q3 21 25 24q29 4 78 4q39 0 83 -4q11 -2 17.5 -9t6.5 -16v-4q-27 -178 -27 -356q2 -120 68 -120t68 120q0 164 -27 356v4q0 9 6.5 16t17.5 9q44 4 84 4q33 0 77 -4q22 -3 24 -24q26 -220 26 -400q0 -147 -70 -215t-206 -68q-137 0 -206.5 68t-69.5 215
q0 173 25 400z" />
    <glyph glyph-name="V" unicode="V" horiz-adv-x="590" 
d="M34 700q44 4 80 4q46 0 94 -4q10 -1 17 -8t7 -17q3 -127 17 -255.5t33 -190.5q3 -14 7 -17.5t6 -3.5q3 0 6.5 3.5t7.5 17.5q18 62 32.5 191.5t17.5 254.5q0 10 7 17t17 8q35 3 89 3q52 0 85 -3q23 -4 23 -23v-5q-19 -175 -59 -355t-84 -297q-6 -17 -26 -20
q-40 -4 -117 -4q-75 0 -115 4q-18 1 -26 20q-43 119 -83.5 298.5t-59.5 353.5v5q0 20 24 23z" />
    <glyph glyph-name="W" unicode="W" horiz-adv-x="753" 
d="M34 700q29 4 86 4q52 0 84 -4q23 -2 23 -28v-2q-1 -57 -1 -102q0 -67 2 -107q5 -124 27 -124q17 0 33 96q1 9 2 14q3 17 10.5 66t11.5 69q9 49 23.5 70.5t39.5 21.5q26 0 41 -21.5t23 -70.5q3 -18 10.5 -65t11.5 -66q5 -32 7.5 -46t7 -34t10 -28t11.5 -8q23 0 27 122
q3 62 3 120q0 48 -2 93v2q0 24 24 28q32 4 85 4q54 0 86 -4q24 -3 24 -28q-15 -340 -72 -648q-4 -21 -28 -24q-33 -4 -82 -4q-52 0 -80 4q-32 5 -39 36q-13 85 -27 153q-19 105 -40 105q-20 0 -42 -110q-4 -24 -13 -77.5t-12 -70.5q-7 -31 -39 -36q-27 -4 -77 -4
q-52 0 -84 4q-23 3 -27 24q-56 296 -72 648v3q0 21 24 25z" />
    <glyph glyph-name="X" unicode="X" horiz-adv-x="603" 
d="M10 32q25 318 206 355q5 1 6.5 3.5t1.5 4.5t-1.5 5t-6.5 4q-81 22 -123.5 85t-50.5 178v5q0 23 26 28q31 4 82 4q52 0 81 -4q24 -3 24 -26q0 -71 12.5 -140t34.5 -69q22 1 34 68t12 131v10q0 21 24 26q29 4 83 4q49 0 80 -4q13 -1 19.5 -9.5t6.5 -18.5v-5
q-8 -114 -50.5 -177.5t-123.5 -86.5q-5 -1 -6.5 -3.5t-1.5 -4.5t1.5 -5t6.5 -4q181 -38 206 -354v-3q0 -24 -27 -29q-32 -4 -83 -4q-66 0 -102 4q-12 2 -19 9t-7 16v3q-1 88 -16 186.5t-37 98.5t-37.5 -98t-15.5 -177v-10q0 -11 -7.5 -18.5t-19.5 -9.5q-35 -4 -101 -4
q-51 0 -83 4q-13 1 -20.5 9.5t-7.5 19.5v3z" />
    <glyph glyph-name="Y" unicode="Y" horiz-adv-x="556" 
d="M35 700q28 4 75 4q54 0 89 -4q12 -2 19 -9.5t7 -16.5v-3q1 -85 16 -171t36 -86h1q23 0 38 87.5t15 169.5q0 24 27 29q29 4 87 4q46 0 77 -4q27 -5 27 -27v-5q-9 -128 -57.5 -232t-120.5 -125q-9 -3 -9 -13q0 -4 1 -8q25 -162 36 -264v-2q0 -9 -7.5 -15.5t-18.5 -8.5
q-44 -4 -93 -4q-63 0 -95 4q-11 2 -18.5 8.5t-7.5 15.5v2q14 116 37 264q1 4 1 7q0 10 -10 13q-74 20 -124 125t-56 233v3q0 24 28 29z" />
    <glyph glyph-name="Z" unicode="Z" horiz-adv-x="561" 
d="M17 68v41q0 35 34 80q77 113 208 281q14 14 14 26q0 6 -9 16.5t-47 10.5q-94 0 -145 -65q-7 -12 -17 -12q-4 0 -12.5 3.5t-8.5 19.5v2q0 107 7 203q2 24 25 26q75 4 215 4q153 0 218 -4q23 -2 26 -26l3 -78v-3q0 -41 -26 -77q-88 -137 -201 -283q-15 -14 -15 -26
q0 -6 8.5 -16.5t52.5 -10.5q50 0 84.5 20t63.5 63q10 14 21 14q3 0 12.5 -2.5t10.5 -24.5l5 -224v-2q0 -9 -6.5 -16t-17.5 -8q-59 -4 -241 -4q-166 0 -237 4q-26 2 -26 27q0 15 1 41z" />
    <glyph glyph-name="bracketleft" unicode="[" horiz-adv-x="245" 
d="M68 700h129q32 0 32 -32v-18q0 -33 -32 -33h-25q-33 0 -33 -32v-638q0 -32 33 -32h25q32 0 32 -33v-18q0 -32 -32 -32h-129q-32 0 -32 32v804q0 32 32 32z" />
    <glyph glyph-name="backslash" unicode="\" horiz-adv-x="398" 
d="M16 692q5 6 14 8q42 4 63 4q48 0 80 -4q25 -5 32 -23q60 -191 180 -651q1 -4 1 -7q0 -16 -18 -19q-30 -4 -77 -4q-35 0 -67 4q-26 4 -32 26q-31 108 -179 652q-1 3 -1 5q0 5 4 9z" />
    <glyph glyph-name="bracketright" unicode="]" horiz-adv-x="245" 
d="M36 668q0 32 32 32h129q32 0 32 -32v-804q0 -32 -32 -32h-129q-32 0 -32 32v18q0 33 32 33h25q32 0 32 32v638q0 32 -32 32h-25q-32 0 -32 33v18z" />
    <glyph glyph-name="asciicircum" unicode="^" horiz-adv-x="410" 
d="M88 501q-1 5 -1 11q0 24 27 41l74 130q14 8 28 8q18 0 36 -14l68 -132q20 -16 20 -35q0 -12 -10 -26l29 -139q-14 -21 -33 -21q-11 0 -24 8l-28 55q-21 19 -30 21t-12 2q-12 0 -24 -10l-42 2q-12 -4 -61 -15l-34 -51q-6 -1 -11 -1q-26 0 -31 32z" />
    <glyph glyph-name="underscore" unicode="_" horiz-adv-x="400" 
d="M25 -27h350q33 0 33 -32v-39q0 -32 -33 -32h-350q-33 0 -33 32v39q0 32 33 32z" />
    <glyph glyph-name="a" unicode="a" horiz-adv-x="503" 
d="M11 144q0 71 54.5 115t142.5 58q42 8 60.5 17t18.5 28q0 36 -63 36q-31 0 -73 -15t-72 -39q-9 -11 -17 -11q-3 0 -10.5 3.5t-8.5 24.5v15q0 31 2 116q2 24 17 32q70 27 181 27q115 0 167.5 -50t59.5 -141q15 -153 18 -332q0 -23 -24 -28q-20 -3 -75 -3q-52 0 -75 3
q-16 2 -24 10.5t-8 19.5v5q3 18 9 79q0 10 -2.5 13.5t-4.5 3.5t-5 -2t-6 -12q-38 -124 -135 -124q-127 0 -127 151zM201 209q0 -46 35 -46q18 0 35 21.5t17 55.5q0 41 -29 41q-22 0 -40 -20.5t-18 -51.5z" />
    <glyph glyph-name="b" unicode="b" horiz-adv-x="561" 
d="M18 28q0 386 19 662q2 21 24 26q22 3 74 3q60 0 84 -3q11 -2 17.5 -9.5t6.5 -17.5v-3q-23 -157 -24 -256v-4q0 -15 4 -15.5t5 -0.5q7 0 14 14q22 65 55 96t83 31q78 0 123.5 -78t45.5 -214q0 -131 -45 -198.5t-123 -67.5q-48 0 -84 30.5t-56 83.5q-4 10 -7.5 12.5
t-5.5 2.5t-4.5 -3.5t-2.5 -10.5v-5q0 -30 7 -74v-4q0 -9 -6.5 -16t-17.5 -9q-28 -4 -77 -4q-37 0 -85 4q-24 3 -24 28zM221 267q0 -44 18 -69q17 -25 46 -25t46.5 25t17.5 69q0 45 -17.5 72.5t-46.5 27.5t-46.5 -27.5t-17.5 -72.5z" />
    <glyph glyph-name="c" unicode="c" horiz-adv-x="465" 
d="M84 470q72 81 190 81q79 0 134 -25q16 -11 16 -28v-4q-4 -69 -9 -131q-1 -18 -8.5 -20.5t-10.5 -2.5q-9 0 -17 11q-40 29 -95 29q-44 0 -67.5 -30.5t-23.5 -89.5q0 -45 26 -69.5t72 -24.5q64 0 118 46q8 10 17 10q3 0 11 -2.5t9 -20.5q3 -74 5 -148v-4q0 -18 -15 -24
q-77 -30 -166 -30q-122 0 -190.5 63t-68.5 198t73 216z" />
    <glyph glyph-name="d" unicode="d" horiz-adv-x="561" 
d="M58 473q45 78 123 78q50 0 83 -31t56 -96q6 -14 13 -14q1 0 5 0.5t4 15.5v4q-1 99 -24 256v3q0 10 6.5 17.5t18.5 9.5q23 3 83 3q52 0 74 -3q22 -5 24 -26q20 -290 20 -662q0 -24 -25 -28q-48 -4 -85 -4q-48 0 -77 4q-11 2 -17.5 9t-6.5 16v4q7 41 8 74q0 11 -3 15t-5 4
t-5.5 -2.5t-7.5 -12.5q-20 -53 -56 -83.5t-84 -30.5q-78 0 -123 67.5t-45 198.5q0 136 46 214zM212 267q0 -44 18 -69q17 -25 46 -25t46.5 25t17.5 69q0 45 -17.5 72.5t-46.5 27.5t-46.5 -27.5t-17.5 -72.5z" />
    <glyph glyph-name="e" unicode="e" horiz-adv-x="482" 
d="M77 480q66 71 173 71q97 0 151.5 -48t54.5 -142q0 -65 -49 -109t-114 -44q-64 0 -107 37q-7 7 -11 7q-3 0 -5 -2t-2 -7q0 -4 3 -11q12 -37 47 -59.5t76 -22.5q75 0 127 51q8 12 18 12q2 0 10 -2.5t10 -24.5q6 -68 9 -119v-3q0 -20 -14 -31q-59 -40 -181 -40
q-121 0 -191.5 75t-70.5 213q0 128 66 199zM199 294q20 -13 44 -13q21 0 34 15t13 41q0 61 -51 61q-25 0 -42.5 -19.5t-17.5 -49.5q0 -22 20 -35z" />
    <glyph glyph-name="f" unicode="f" horiz-adv-x="384" 
d="M10 517q0 11 8 19t19 8h36q6 0 9 2.5t3 6.5v2q-5 27 -5 50q0 130 164 130q58 0 115 -18q17 -8 19 -28q3 -42 3 -94q0 -16 -8 -19t-10 -3q-9 0 -16 11q-21 22 -51 22q-19 0 -29 -9.5t-10 -22.5v-3q1 -13 13 -21.5t30 -8.5q2 0 51 3h5q9 0 15 -5.5t6 -16.5v-110
q0 -11 -8 -19t-19 -8q-2 0 -28.5 2t-37.5 2q-14 0 -16 -18q0 -47 3 -115t7.5 -139t5.5 -89v-3q0 -9 -7 -16.5t-18 -8.5q-28 -4 -78 -4q-36 0 -88 4q-24 4 -24 28q0 124 7 346q0 14 -12 14h-28q-11 0 -18.5 7t-7.5 18v104z" />
    <glyph glyph-name="g" unicode="g" horiz-adv-x="561" 
d="M15 283q0 131 45 199.5t122 68.5q49 0 86 -32.5t57 -90.5q4 -12 11 -12l4 0.5t4 11.5v3q-1 50 -9 85v4q0 19 25 24q29 4 72 4q40 0 72 -4q22 -5 25 -26q16 -192 16 -502q0 -253 -292 -253q-137 0 -208 24q-18 8 -18 25v4q1 31 6 148q1 16 8 19.5t11 3.5q7 0 15 -7
q60 -35 134 -35q61 0 102.5 39t41.5 102v41q0 10 -3 13.5t-6 3.5q-2 0 -5.5 -2.5t-6.5 -13.5q-18 -62 -54 -94t-85 -32q-78 0 -124 75t-46 206zM216 278q0 -45 17 -72q17 -28 46 -28t46.5 27.5t17.5 72.5t-17 70t-47 25h-2q-28 0 -44.5 -25t-16.5 -70z" />
    <glyph glyph-name="h" unicode="h" horiz-adv-x="565" 
d="M37 690q1 21 24 26q32 3 76 3q58 0 84 -3q25 -4 25 -24v-5q-24 -181 -26 -277q0 -11 3 -14.5t5 -3.5t5.5 2t6.5 11q39 145 141 145q75 0 116 -70t48 -196q4 -86 5 -188q-1 -34 -1 -70q0 -23 -24 -26q-37 -3 -78 -3t-82 3q-11 2 -18 9t-7 17v3q11 147 11 200
q-1 53 -18 85.5t-47 32.5t-47 -32t-17 -80v-6q0 -89 7 -201v-3q0 -21 -24 -25q-28 -4 -78 -4q-35 0 -85 4q-24 3 -24 28q0 308 19 662z" />
    <glyph glyph-name="i" unicode="i" horiz-adv-x="244" 
d="M18 27q0 269 16 493q2 21 23 24q30 3 66 3t63 -3q22 -3 24 -25q16 -222 16 -492q0 -23 -24 -27q-46 -4 -78 -4t-82 4q-24 4 -24 27zM51 747q25 27 71 27t71.5 -27t25.5 -70q0 -44 -25 -71q-26 -27 -72 -27t-71 27t-25 71q0 43 25 70z" />
    <glyph glyph-name="j" unicode="j" horiz-adv-x="243" 
d="M-116 -67q0 18 7 21.5t11 3.5q8 0 17 -7q19 -13 47 -13q27 0 43.5 19.5t16.5 57.5q1 67 1 128q0 228 -12 374v3q0 18 24 24q28 4 81 4q35 0 67 -4q22 -3 24 -25q15 -190 15 -538q-3 -218 -198 -218q-62 0 -128 23q-16 9 -16 27q-1 29 -1 59t1 61zM14 679q0 43 25 70
t71 27t71.5 -27t25.5 -70q0 -44 -25 -71q-26 -27 -72 -27t-71 27t-25 71z" />
    <glyph glyph-name="k" unicode="k" horiz-adv-x="564" 
d="M36 690q1 21 25 26q32 3 72 3q61 0 84 -3q12 -2 18.5 -9.5t6.5 -16.5v-3q-21 -201 -21 -276q0 -20 5.5 -36t13.5 -16q25 0 47.5 54t24.5 106q2 20 25 25q22 3 83 3q55 0 77 -3q13 -2 19 -9.5t6 -15.5v-5q-11 -82 -62 -136t-132 -66q-12 -2 -12 -10t12 -10
q100 -12 156 -75.5t68 -190.5v-3q0 -20 -25 -23q-31 -4 -78 -4q-74 0 -101 4q-24 3 -25 24q-2 72 -29 142.5t-54 70.5q-18 0 -18 -44v-13q0 -55 7 -153v-3q0 -9 -6.5 -16t-17.5 -9q-31 -3 -76 -3q-38 0 -86 4q-25 4 -25 28q2 481 18 662z" />
    <glyph glyph-name="l" unicode="l" horiz-adv-x="260" 
d="M37 690q1 21 26 26q30 3 71 3q59 0 84 -3q11 -2 17.5 -9.5t6.5 -16.5v-3q-16 -175 -16 -415q0 -115 4 -244v-3q0 -21 -24 -25q-28 -4 -77 -4q-38 0 -86 4q-25 4 -25 28q0 308 19 662z" />
    <glyph glyph-name="m" unicode="m" horiz-adv-x="798" 
d="M33 519q2 20 24 25q28 4 65 4q54 0 83 -4q25 -5 25 -22q0 -3 -1 -7q-13 -72 -15 -119q0 -11 3 -15.5t5 -4.5t5.5 3t5.5 15q14 71 46.5 112.5t75.5 41.5q46 0 75.5 -35t43.5 -116q2 -14 6 -17.5t7 -3.5q2 0 6 4t6 18q12 66 45 108t79 42q120 0 142 -214q9 -76 18 -305
q0 -24 -26 -29q-29 -4 -75 -4q-51 0 -83 4q-25 5 -25 27v2q5 90 5 177q-3 114 -44 114q-17 0 -28 -31t-11 -80q0 -70 9 -180v-2q0 -22 -26 -27q-29 -4 -75 -4q-52 0 -84 4q-25 4 -25 26v3q5 131 5 168v10q-2 113 -44 113q-18 0 -28 -31.5t-11 -81.5q0 -70 8 -178v-3
q0 -9 -7 -16.5t-18 -9.5q-46 -4 -85 -4q-45 0 -74 4q-25 4 -25 28q2 294 17 491z" />
    <glyph glyph-name="n" unicode="n" horiz-adv-x="565" 
d="M37 515q2 24 24 29q27 4 75 4q44 0 79 -4q12 -1 18 -9t6 -15q0 -3 -1 -7q-18 -73 -18 -105q0 -10 2.5 -13.5t5.5 -3.5q2 0 5.5 2.5t6.5 11.5q39 145 140 145q75 0 116 -70t49 -196q4 -71 4 -172q0 -41 -1 -86q0 -22 -23 -26q-35 -4 -78 -4q-46 0 -82 4q-11 2 -18 9t-7 17
v3q11 147 11 193q-1 54 -18 89.5t-47 35.5t-47.5 -36t-17.5 -90q0 -91 8 -193v-3q0 -21 -25 -25q-28 -4 -77 -4q-36 0 -86 4q-24 4 -24 28q1 319 20 487z" />
    <glyph glyph-name="o" unicode="o" horiz-adv-x="514" 
d="M80 472q68 79 177 79q110 0 178 -79.5t68 -214.5q0 -137 -65.5 -200.5t-180.5 -63.5q-114 0 -180 63.5t-66 200.5q0 135 69 215zM191 270q0 -50 18 -79q18 -30 48 -30t48 29.5t18 79.5q0 51 -18 83t-48 32t-48 -32t-18 -83z" />
    <glyph glyph-name="p" unicode="p" horiz-adv-x="563" 
d="M37 517q2 24 25 27q29 4 75 4q50 0 81 -4q12 -2 18 -8.5t6 -13.5q0 -3 -1 -7q-12 -43 -14 -81q0 -11 3 -15.5t5 -4.5t5.5 2.5t6.5 12.5q18 57 55 89t84 32q77 0 121.5 -70t44.5 -203q0 -134 -47 -209t-126 -75q-107 0 -139 130q-2 10 -6 12.5t-6 2.5q-3 0 -6 -4.5
t-3 -15.5q2 -181 24 -318v-5q0 -9 -6.5 -16.5t-18.5 -8.5q-34 -3 -91 -3q-53 0 -87 3q-23 3 -23 27q0 367 20 720zM225 275q0 -45 17 -72t46 -27t46.5 27t17.5 72q0 44 -17.5 70t-46.5 26q-28 0 -45.5 -26t-17.5 -70z" />
    <glyph glyph-name="q" unicode="q" horiz-adv-x="565" 
d="M58 480q44 70 121 70q47 0 84 -32t55 -89q3 -10 6.5 -12.5t5.5 -2.5t5 4.5t3 15.5q-2 38 -14 81q-1 4 -1 7q0 7 6 13.5t18 8.5q31 4 81 4q44 0 75 -4q23 -4 25 -27q20 -353 20 -720q0 -23 -23 -27q-36 -3 -87 -3q-56 0 -91 3q-12 1 -19 9t-7 18v3q23 144 25 318
q0 11 -3 15.5t-6 4.5q-2 0 -6 -2.5t-7 -12.5q-31 -130 -138 -130q-80 0 -126.5 75t-46.5 209q0 133 45 203zM230 203q17 -27 46 -27t46.5 27t17.5 72q0 44 -17.5 70t-46.5 26q-28 0 -45.5 -26t-17.5 -70q0 -45 17 -72z" />
    <glyph glyph-name="r" unicode="r" horiz-adv-x="458" 
d="M33 519q3 22 25 25q28 4 71 4t77 -4q13 -1 19 -8.5t6 -15.5q0 -3 -1 -7q-10 -56 -10 -121q0 -10 2.5 -13t4.5 -3t5 2.5t5 11.5q32 161 123 161q47 0 74 -29q13 -12 13 -31l-9 -180q-2 -17 -10 -20t-10 -3q-9 0 -17 11q-36 39 -84 39q-39 0 -67 -32.5t-28 -87.5
q0 -77 15 -188v-3q0 -10 -7 -18t-18 -10q-33 -3 -85 -3q-38 0 -86 4q-24 4 -24 27q0 287 16 492z" />
    <glyph glyph-name="s" unicode="s" horiz-adv-x="467" 
d="M14 191q1 17 9 19t11 2q9 0 17 -9q59 -49 135 -49q67 0 67 41q0 18 -23 30t-56 23t-66 26.5t-56 48.5t-23 80q0 73 54.5 110.5t155.5 37.5q86 0 160 -18q18 -8 20 -26q4 -68 5 -122v-3q0 -15 -7 -18t-10 -3q-8 0 -16 9q-48 31 -103 31h-6q-31 0 -49 -10t-18 -28
q0 -17 24.5 -29.5t60 -23.5t71 -27t60 -49t24.5 -81q0 -75 -59.5 -117.5t-165.5 -42.5q-104 0 -199 31q-18 8 -18 26q0 93 1 141z" />
    <glyph glyph-name="t" unicode="t" horiz-adv-x="420" 
d="M14 537q7 7 17 7h36q12 0 12 12q2 51 5 92q3 23 25 26q29 3 66 3q50 0 83 -3q11 -1 18 -9.5t7 -17.5v-4q-10 -50 -10 -80q0 -20 12 -20q15 0 47 1t47 1q11 0 18.5 -8t7.5 -19v-108q0 -11 -7.5 -19t-16.5 -8h-2q-36 3 -82 3q-26 0 -29 -25q-3 -28 -3 -63q0 -28 2 -60
q1 -28 17.5 -44.5t41.5 -16.5q32 0 55 18q7 7 14 7q3 0 10.5 -3.5t7.5 -20.5v-125q0 -27 -21 -38q-64 -22 -132 -22q-88 0 -140.5 48t-52.5 144q0 132 7 189v2q0 4 -3.5 7t-8.5 3l-31 -1q-10 0 -17 7t-8 18v109q1 11 8 18z" />
    <glyph glyph-name="u" unicode="u" horiz-adv-x="550" 
d="M17 239q2 149 19 279q5 23 24 26q28 4 74 4q51 0 80 -4q12 -2 18 -8.5t6 -15.5v-5q-20 -138 -20 -203q0 -53 14.5 -88t42.5 -35q26 0 40.5 37t14.5 91q0 91 -10 199v4q0 19 24 24q28 4 79 4q40 0 71 -4q22 -3 24 -27q14 -218 14 -433v-54q0 -25 -23 -30q-20 -3 -77 -3
q-46 0 -83 3q-11 2 -17.5 8.5t-6.5 15.5v4q11 59 11 104q0 10 -3 13.5t-6 3.5q-2 0 -5.5 -2.5t-5.5 -11.5q-37 -142 -137 -142q-160 0 -162 246z" />
    <glyph glyph-name="v" unicode="v" horiz-adv-x="511" 
d="M29 544q36 4 77 4q49 0 83 -4q21 -3 21 -25v-12q0 -65 10 -171t23 -155q3 -14 6.5 -18t5.5 -4q3 0 6.5 4t6.5 18q13 49 23 155t10 171v12q0 22 22 25q36 4 84 4q39 0 75 -4q10 -1 15 -8t5 -14q0 -2 -1 -5q-11 -129 -42 -266t-67 -232q-7 -16 -22 -19q-33 -4 -114 -4
q-83 0 -116 4q-16 3 -21 19q-36 92 -67.5 230t-42.5 268v4q0 20 20 23z" />
    <glyph glyph-name="w" unicode="w" horiz-adv-x="675" 
d="M32 544q25 4 75 4q52 0 77 -4q23 -4 23 -28q-1 -24 -1 -49q0 -65 6 -136q3 -81 20 -81q16 0 27 72q3 16 10.5 71t11.5 76q13 73 55 73q45 0 57 -73q4 -21 11.5 -76t10.5 -71q13 -71 28 -71t20 79q6 72 6 137q0 25 -1 48q0 25 23 29q25 4 76 4q48 0 75 -4q23 -5 23 -23v-3
q-9 -238 -67 -494q-5 -21 -26 -24q-40 -4 -77 -4q-34 0 -76 4q-29 5 -33 28q-2 10 -10 77.5t-18 114t-21 46.5q-10 0 -20 -47.5t-18 -115t-10 -75.5q-4 -24 -33 -28q-40 -4 -75 -4q-31 0 -79 4q-20 3 -25 24q-59 252 -67 494v2q0 19 22 24z" />
    <glyph glyph-name="x" unicode="x" horiz-adv-x="556" 
d="M8 28q8 118 47 183.5t116 85.5q10 3 10 10.5t-10 10.5q-127 39 -137 196v5q0 21 23 25q28 4 73 4q47 0 78 -4q24 -5 24 -27q2 -53 15.5 -97.5t30.5 -44.5q18 0 31.5 45.5t13.5 97.5q0 20 24 26q29 4 79 4q45 0 73 -4q23 -4 23 -25v-5q-10 -157 -137 -196
q-10 -4 -10 -11.5t10 -9.5q152 -42 164 -269q0 -10 -6.5 -18.5t-17.5 -9.5q-29 -4 -77 -4q-63 0 -96 4q-25 3 -25 26q-2 63 -17 132t-33 69q-17 0 -31.5 -69t-16.5 -132q0 -23 -24 -26q-33 -4 -97 -4q-33 0 -77 4q-11 1 -17 9t-6 16v3z" />
    <glyph glyph-name="y" unicode="y" horiz-adv-x="552" 
d="M17 -184q1 24 6 148q1 16 8.5 19.5t11.5 3.5q7 0 14 -6q58 -38 136 -38q57 0 101 46t44 106v40q0 10 -3 13.5t-6 3.5q-2 0 -5.5 -2.5t-5.5 -12.5q-15 -67 -51 -101.5t-86 -34.5q-160 0 -162 243q2 143 19 274q5 23 24 26q28 4 74 4q51 0 80 -4q12 -2 18 -8.5t6 -15.5v-5
q-20 -138 -20 -198q0 -55 14.5 -91.5t42.5 -36.5q26 0 39.5 38.5t13.5 94.5q0 64 -10 194v3q0 20 24 25q29 4 80 4q40 0 71 -4q22 -3 24 -27q16 -232 16 -481q0 -132 -81 -202.5t-210 -70.5q-138 0 -209 24q-8 3 -13 11t-5 15v3z" />
    <glyph glyph-name="z" unicode="z" horiz-adv-x="487" 
d="M14 23q0 44 1 73q1 41 27 68q38 49 168 188q15 15 15 25q0 4 -4.5 12t-36.5 8q-72 0 -119 -50q-8 -12 -18 -12q-3 0 -11 2.5t-8 19.5v3q2 80 7 160q0 10 7 16.5t16 7.5q65 4 186 4q133 0 190 -4q20 -2 22 -22q4 -39 4 -75q0 -41 -24 -66q-44 -63 -157 -189
q-14 -11 -14.5 -16t-0.5 -6q0 -8 12 -13.5t36 -5.5q68 0 114 58q10 14 21 14q3 0 11 -2t9 -22q4 -59 6 -176v-2q0 -9 -6.5 -15t-15.5 -6q-106 -4 -210 -4q-113 0 -205 4q-9 0 -15.5 6.5t-6.5 16.5z" />
    <glyph glyph-name="braceleft" unicode="{" horiz-adv-x="284" 
d="M1 275q0 9 5 17.5t7 10t16 12.5q32 21 32 55v2l-10 192v11q0 53 36 89t91 36h53q35 0 38 -36l4 -78v-4q0 -32 -34 -32h-7q-19 0 -30.5 -14.5t-11.5 -35.5v-4l6 -127v-5q0 -23 -16.5 -47t-44.5 -34q-11 -4 -14 -9t-3 -8t3 -8t14 -9q28 -10 44.5 -34t16.5 -47v-5l-6 -128
v-3q0 -21 11.5 -35.5t30.5 -14.5h7q34 0 34 -32v-4l-4 -78q-3 -36 -38 -36h-53q-55 0 -91 36t-36 88v11l10 193v2q0 32 -32 56q-23 17 -26 27q-2 5 -2 12v18z" />
    <glyph glyph-name="bar" unicode="|" horiz-adv-x="233" 
d="M101 700h31q45 0 45 -45v-661q0 -45 -45 -45h-31q-46 0 -46 45v661q0 45 46 45z" />
    <glyph glyph-name="braceright" unicode="}" horiz-adv-x="284" 
d="M1 586l4 78q2 36 38 36h53q54 0 90.5 -36.5t36.5 -88.5v-11l-11 -192v-2q0 -34 33 -55q1 -1 6 -5t6.5 -5t5 -4.5t4.5 -5.5t3 -5.5t2.5 -7t0.5 -7.5v-18q0 -9 -4.5 -17t-8 -10.5t-15.5 -11.5q-33 -25 -33 -56v-2l11 -193v-9q0 -53 -36.5 -89.5t-90.5 -36.5h-53
q-36 0 -38 36l-4 78v3q0 15 8.5 24t25.5 9h7q19 0 30.5 14.5t11.5 35.5v3l-6 128v5q0 24 16.5 47.5t44.5 33.5q17 6 17 17t-17 17q-28 10 -44.5 33.5t-16.5 47.5v5l6 127v4q0 21 -11.5 35.5t-30.5 14.5h-7q-17 0 -25.5 8.5t-8.5 21.5v6z" />
    <glyph glyph-name="asciitilde" unicode="~" horiz-adv-x="444" 
d="M43 468q32 19 74 19q45 0 100 -22q28 -11 46.5 -16t44 -5t45.5 10q15 7 26 7q20 0 29 -24l10 -21q5 -13 5 -24q0 -22 -22 -33q-32 -19 -73 -19q-45 0 -101 22q-29 11 -47.5 16t-43.5 5q-26 0 -43.5 -8.5t-28.5 -8.5q-4 0 -12.5 2t-15.5 21l-10 22q-5 13 -5 24q0 22 22 33
z" />
    <glyph glyph-name="exclamdown" unicode="&#xa1;" horiz-adv-x="276" 
d="M30 24q4 180 38 423q3 19 23 22q25 3 50 3t48 -3q20 -3 23 -23q32 -215 37 -422q0 -10 -7.5 -17t-17.5 -8q-33 -3 -83 -3q-51 0 -87 3q-11 1 -17.5 7.5t-6.5 15.5v2zM66 679q28 27 73 27t73 -26.5t28 -74.5q0 -49 -28 -76.5t-73 -27.5t-73 27.5t-28 75.5t28 75z" />
    <glyph glyph-name="cent" unicode="&#xa2;" horiz-adv-x="426" 
d="M49 492q38 65 105 94q13 7 13 21v2q-3 41 -10 78v2q0 5 4.5 10t11.5 7q32 2 57 2t55 -2q16 -4 16 -16v-1q-4 -47 -5 -67v-5q0 -12 15 -15q34 -4 63 -18q14 -8 14 -25v-4q-6 -95 -8 -119q-1 -18 -8 -20t-9 -2q-10 0 -17 11q-14 10 -41.5 18t-50.5 8q-94 0 -94 -113
q0 -43 25.5 -65.5t73.5 -22.5q65 0 114 41q7 10 16 10q3 0 10.5 -2t8.5 -19q3 -72 5 -135q0 -19 -14 -26q-39 -14 -86 -20q-17 -5 -17 -19v-2q1 -17 5 -65v-1q0 -12 -16 -16q-30 -2 -55 -2q-33 0 -57 3q-6 1 -11 6t-5 10v2q6 36 9 69v2q0 15 -14 18q-141 43 -141 230
q0 92 38 158z" />
    <glyph glyph-name="sterling" unicode="&#xa3;" horiz-adv-x="616" 
d="M21 151q1 13 6 18.5t13 5.5h3q8 0 27.5 -2t31.5 -2q17 0 27.5 14t10.5 41q0 2 0.5 29t0.5 40q0 21 -9 38t-29 17q-28 0 -51 -5q-4 -1 -7 -1q-14 0 -14 20v50q0 21 21 21q11 -1 32.5 -1.5t32.5 -0.5q10 0 17 7.5t7 18.5q-1 11 -1 22q0 44 11 84t33 67t54 44.5t64.5 24
t70.5 6.5q90 0 160 -27q18 -11 20 -29q6 -66 6 -159q0 -11 -5.5 -15.5t-10.5 -4.5q-3 0 -8.5 1.5t-11.5 9.5q-54 56 -132 56q-36 0 -56.5 -14.5t-20.5 -40.5v-7q0 -47 78 -47q40 0 88 5h4q18 0 18 -17q0 -14 0.5 -42t0.5 -42q0 -16 -7 -18t-9 -2q-8 0 -14 8q-39 31 -79 31
h-2q-74 -2 -74 -70v-29q0 -89 101 -89q81 0 129 59q8 12 19 12q3 0 11 -2t9 -19q7 -75 10 -193v-3q0 -17 -19 -19q-51 -4 -249 -4q-110 0 -286 4q-24 0 -24 25q0 99 2 126z" />
    <glyph glyph-name="yen" unicode="&#xa5;" horiz-adv-x="552" 
d="M97 525q-2 2 -2 3q0 4 12 7l8 2q16 2 71 5h12q40 0 71 -11q15 -21 15 -49v-10q0 -34 4.5 -69t13 -58.5t16.5 -23.5h1q16 1 25.5 44.5t9.5 79.5q0 11 -1 21q-3 5 -3 7q0 1 1 2t2 1q3 0 7 -2q11 -13 41 -37t39 -35q3 -1 51 -13q5 -2 5 -6q0 -5 -10 -15q-21 -82 -77 -137
q-1 -3 -4 -14q-6 -12 -15 -12q-5 0 -11 3q-5 -3 -17 -9l-1 -1h-2q-3 -3 -4 -5q-10 -3 -12 -3l10 6l6 2q10 15 11 17q-26 22 -52 40q-6 4 -8 4q-1 0 -1.5 -1l-0.5 -1q0 -4 4 -11q7 -41 16 -83q4 -4 4 -7q0 -2 -5 -2h-4l-6 2q-31 17 -58.5 54t-38.5 86q-8 3 -20 6t-25 5.5
t-16 3.5q-6 3 -6 8q0 4 4 9q9 36 21 78q7 7 7 9h-1q-2 0 -9 -3q-8 -14 -19 -43.5t-19.5 -51t-13.5 -22.5q-1 0 -3 22.5t-4 54t-2 52.5v8q0 26 11 49l3 5q-20 14 -31 39zM237 496v0q0 3 -11 4q-3 -3 -9 -7q6 -1 10 -1q10 0 10 4z" />
    <glyph glyph-name="brokenbar" unicode="&#xa6;" horiz-adv-x="226" 
d="M101 280h24q45 0 45 -45v-223q0 -45 -45 -45h-24q-46 0 -46 45v223q0 45 46 45zM55 655q0 45 46 45h24q45 0 45 -45v-221q0 -46 -45 -46h-24q-46 0 -46 46v221z" />
    <glyph glyph-name="section" unicode="&#xa7;" horiz-adv-x="467" 
d="M30 334q0 58 53 94q19 14 19.5 18.5l0.5 4.5q0 8 -18 23q-50 41 -50 100q0 61 54.5 101t145.5 40q62 0 123 -17q36 -11 36 -51v-4l1 -31q-1 -38 -21 -38q-10 0 -25 10q-48 28 -100 28q-32 0 -51.5 -13t-19.5 -34t27.5 -34.5t66.5 -24t78 -25.5t66.5 -48t27.5 -81
q0 -56 -48 -94q-18 -15 -18 -25.5t17 -26.5q44 -38 44 -94q0 -64 -57 -107.5t-152 -43.5q-63 0 -128 20q-36 11 -36 52v4l2 34q1 37 21 37q10 0 26 -11q51 -30 102 -30q36 0 57 15t21 37q0 19 -19.5 32.5t-49 21t-64 20t-64 27t-49 44t-19.5 70.5zM169 350q0 -28 20.5 -51.5
t53.5 -23.5q28 0 45 18t17 38q0 30 -20 52t-51 22t-48 -17t-17 -38z" />
    <glyph glyph-name="copyright" unicode="&#xa9;" horiz-adv-x="628" 
d="M102 613q80 101 213 101q132 0 212 -101.5t80 -263.5t-80 -263.5t-213 -101.5q-132 0 -212.5 101.5t-80.5 263.5t81 264zM145 130q62 -86 169 -86q108 0 170 85.5t62 219.5q0 135 -62 220.5t-169 85.5q-108 0 -170 -85.5t-62 -220.5q0 -134 62 -219zM209 512
q46 56 125 56q33 0 58 -7q28 -7 28 -38v-4v-12q-1 -31 -21 -31q-5 0 -11 2q-22 8 -42 8q-44 0 -70 -33.5t-26 -100.5q0 -69 25.5 -102.5t68.5 -33.5q26 0 42 6q9 3 17 3q21 0 21 -27v-12v-5q0 -29 -24 -37q-33 -10 -70 -10q-77 0 -122.5 56.5t-45.5 160.5t47 161z" />
    <glyph glyph-name="ordfeminine" unicode="&#xaa;" horiz-adv-x="335" 
d="M7 436q0 47 36 76t95 39q53 9 53 30q0 24 -42 24q-50 0 -96 -36q-6 -7 -12 -7q-2 0 -7 2t-6 16v12q0 23 2 76q0 15 11 21q47 18 121 18q141 0 151 -128q10 -115 12 -221v-3q0 -13 -16 -15q-19 -3 -50 -3q-34 0 -50 3q-21 3 -21 19v4q5 32 6 52q0 7 -1.5 9.5t-3.5 2.5
q-1 0 -3 -1.5t-4 -8.5q-25 -82 -90 -82q-85 0 -85 101zM134 479q0 -31 23 -31q12 0 23.5 14t11.5 37q0 28 -19 28q-15 0 -27 -13.5t-12 -34.5z" />
    <glyph glyph-name="guillemotleft" unicode="&#xab;" horiz-adv-x="414" 
d="M204 266l88 133q15 21 40 21h35q20 0 24.5 -8t4.5 -12q0 -9 -8 -20l-73 -114q-8 -12 -8 -23q0 -12 8 -23l74 -117q7 -11 7 -20q0 -4 -4 -12t-24 -8h-35q-26 0 -41 21l-88 136q-8 11 -8 23q0 11 8 23zM26 266l88 133q15 21 40 21h34q21 0 25 -8t4 -12q0 -9 -7 -20
l-74 -114q-8 -12 -8 -23t8 -23l75 -117q7 -11 7 -19q0 -5 -4.5 -13t-24.5 -8h-35q-25 0 -40 21l-88 136q-8 11 -8 23t8 23z" />
    <glyph glyph-name="logicalnot" unicode="&#xac;" horiz-adv-x="328" 
d="M26 230v24q0 43 44 43h188q43 0 43 -43v-102q0 -43 -40 -43h-33q-38 0 -38 33v24q0 21 -22 21h-98q-44 0 -44 43z" />
    <glyph glyph-name="uni00AD" unicode="&#xad;" horiz-adv-x="273" 
d="M58 297h158q32 0 32 -32v-45q0 -33 -32 -33h-158q-33 0 -33 33v45q0 32 33 32z" />
    <glyph glyph-name="registered" unicode="&#xae;" horiz-adv-x="640" 
d="M107 613q80 101 213 101t212.5 -101.5t79.5 -263.5t-80 -263.5t-212 -101.5q-134 0 -213.5 101.5t-79.5 263.5t80 264zM151 129q61 -85 169 -85q107 0 168.5 85.5t61.5 219.5q0 135 -61.5 220.5t-168.5 85.5q-108 0 -169.5 -85.5t-61.5 -220.5t62 -220zM189 183v350
q0 34 34 34h100q67 0 106 -35t39 -104q0 -70 -49 -109q-8 -6 -8 -13q0 -4 2 -9l44 -108q5 -10 5 -18q0 -6 -5 -14.5t-25 -8.5h-21q-30 0 -40 26l-38 102q-6 13 -20 13h-22q-17 0 -17 -17v-89q0 -35 -34 -35h-17q-34 0 -34 35zM291 360h41q50 0 50 66q0 64 -52 64h-39
q-17 0 -17 -17v-96q0 -17 17 -17z" />
    <glyph glyph-name="degree" unicode="&#xb0;" horiz-adv-x="348" 
d="M67 647q42 41 106 41t107 -41t43 -103q0 -61 -43 -102t-107 -41t-106 40.5t-42 102.5t42 103zM103 544q0 -29 20.5 -48.5t49.5 -19.5q30 0 50.5 19.5t20.5 48.5q0 30 -20.5 50t-50.5 20q-29 0 -49.5 -20t-20.5 -50z" />
    <glyph glyph-name="plusminus" unicode="&#xb1;" horiz-adv-x="497" 
d="M33 374q0 44 43 44h94q26 0 26 25v77q0 43 43 43h23q44 0 44 -42v-78q0 -25 25 -25h88q43 0 43 -44v-13q0 -43 -43 -43h-88q-25 0 -25 -26v-81q0 -43 -44 -43h-23q-43 0 -43 42v82q0 26 -26 26h-94q-43 0 -43 43v13zM71 113h355q43 0 43 -43v-7q0 -43 -43 -43h-355
q-43 0 -43 43v7q0 43 43 43z" />
    <glyph glyph-name="twosuperior" unicode="&#xb2;" horiz-adv-x="381" 
d="M18 344q2 40 33.5 74t68 52.5t67 41t30.5 42.5q0 34 -56 34q-54 0 -98 -39q-6 -8 -13 -8q-2 0 -7.5 2t-5.5 14v3q1 43 7 111q2 13 13 17q57 19 130 19q165 0 165 -121q0 -35 -19.5 -64t-47 -48t-55.5 -34.5t-47 -31.5t-19 -31q0 -29 59 -29q66 0 111 42q6 8 14 8
q2 0 8.5 -2t6.5 -17q0 -19 -0.5 -62t-1.5 -62q0 -17 -13 -19q-37 -3 -162 -3q-100 0 -144 3q-25 1 -25 24v21q0 24 1 63z" />
    <glyph glyph-name="threesuperior" unicode="&#xb3;" horiz-adv-x="373" 
d="M23 271q2 67 8 125q1 13 7.5 14t7.5 1q9 0 13 -9q20 -32 41.5 -43t56.5 -11t55.5 16t20.5 44q0 56 -58 56q-40 0 -73 -21q-4 -4 -8 -4q-3 0 -7.5 2t-4.5 12v52q0 7 5 11.5t11 4.5h2q10 0 35 -2t38 -2q59 0 59 38t-59 38q-67 0 -109 -39q-7 -7 -13 -7q-2 0 -7.5 2t-5.5 14
q3 78 7 109q2 15 17 20q50 15 124 15q69 0 112 -27t43 -80q0 -73 -68 -99q-7 -2 -8.5 -4.5t-1.5 -4.5t2 -4.5t8 -4.5q79 -27 79 -104q0 -71 -48 -109q-48 -39 -129 -39t-139 20q-13 7 -13 20z" />
    <glyph glyph-name="paragraph" unicode="&#xb6;" horiz-adv-x="552" 
d="M18 524q0 91 64 137.5t179 46.5q150 0 234 -6q22 -3 24 -25q20 -231 22 -652q0 -21 -25 -25q-31 -4 -92 -4q-69 0 -93 4q-12 2 -18 9.5t-6 15.5v4q1 4 13.5 78t13.5 118q0 36 -20 37q-122 3 -209 72.5t-87 189.5z" />
    <glyph glyph-name="periodcentered" unicode="&#xb7;" horiz-adv-x="225" 
d="M11 286q0 48 28 75.5t73 27.5t73.5 -27.5t28.5 -76.5q0 -47 -28 -74q-29 -27 -74 -27t-73 27t-28 75z" />
    <glyph glyph-name="onesuperior" unicode="&#xb9;" horiz-adv-x="252" 
d="M8 568q2 97 3 105q1 14 17 19q53 11 118 11q44 0 57 -2q16 -2 16 -17q9 -144 11 -433q0 -13 -17 -17q-17 -2 -57 -2q-29 0 -61 2q-7 1 -12 6.5t-5 11.5v2q19 155 19 267v11q0 23 -3.5 32t-15.5 10q-18 0 -45 -19q-5 -4 -10 -4q-3 0 -9 2.5t-6 14.5z" />
    <glyph glyph-name="ordmasculine" unicode="&#xba;" horiz-adv-x="342" 
d="M53 654q45 53 118 53t118.5 -53t45.5 -143q0 -176 -164 -176q-76 0 -120 42.5t-44 133.5q0 90 46 143zM127 520q0 -33 12 -53t32 -20t32 19.5t12 53.5q0 33 -12 54.5t-32 21.5q-19 0 -31.5 -21.5t-12.5 -54.5z" />
    <glyph glyph-name="guillemotright" unicode="&#xbb;" horiz-adv-x="414" 
d="M25 103l75 117q8 12 8 23q0 12 -8 23l-74 114q-8 11 -8 20q0 4 4.5 12t25.5 8h34q26 0 40 -21l88 -133q8 -12 8 -23q0 -12 -8 -23l-88 -136q-15 -21 -40 -21h-35q-20 0 -24.5 8t-4.5 13q0 8 7 19zM204 103l74 117q8 11 8 23q0 11 -8 23l-74 114q-7 11 -7 19q0 5 4.5 13
t24.5 8h34q26 0 40 -21l88 -133q8 -12 8 -23q0 -12 -8 -23l-88 -136q-14 -21 -40 -21h-35q-20 0 -24 8t-4 12q0 9 7 20z" />
    <glyph glyph-name="questiondown" unicode="&#xbf;" horiz-adv-x="446" 
d="M20 139q0 17 8 20t11 3q8 0 16 -8q16 -15 51 -24.5t71 -9.5q46 0 72.5 21t26.5 55q0 87 -124 101q-27 4 -27 26q0 4 1 8l11 110q2 23 31 28l30 2l30 -2q29 -5 31 -28l5 -61q3 -21 24 -30q71 -22 105.5 -59.5t34.5 -103.5q0 -83 -67 -137t-174 -54q-83 0 -143 18
q-24 8 -24 35v90zM125 681q28 26 73 26t73.5 -26.5t28.5 -74.5q0 -49 -28.5 -76.5t-73.5 -27.5t-73 27.5t-28 76.5q0 48 28 75z" />
    <glyph glyph-name="Agrave" unicode="&#xc0;" horiz-adv-x="600" 
d="M8 29q21 173 64.5 353t88.5 300q6 15 23 18q40 4 115 4q76 0 116 -4q18 -3 24 -18q45 -119 88 -300.5t64 -353.5v-5q0 -8 -5.5 -14.5t-17.5 -8.5q-44 -4 -88 -4q-42 0 -86 4q-11 2 -17.5 9t-6.5 16v3q3 26 3 54q0 29 -3 60q-6 46 -57 46h-27q-22 0 -38 -12t-19 -34
q-2 -27 -2 -55q0 -29 2 -59v-5q0 -19 -24 -23q-46 -4 -92 -4q-39 0 -81 4q-24 3 -24 24v5zM172 880q6 12 28 12h64q30 0 40 -26l33 -84q4 -9 4 -16t-5.5 -15.5t-24.5 -8.5h-28q-27 0 -41 21l-64 88q-8 10 -8 20q0 4 2 9zM266 289q9 -9 27 -9h14q18 0 25.5 7.5t7.5 17.5
q0 4 -1 9q-5 73 -25 173q-6 24 -14.5 24t-14.5 -24q-18 -91 -24 -173q-1 -5 -1 -9q0 -10 6 -16z" />
    <glyph glyph-name="Aacute" unicode="&#xc1;" horiz-adv-x="600" 
d="M8 29q21 173 64.5 353t88.5 300q6 15 23 18q40 4 115 4q76 0 116 -4q18 -3 24 -18q45 -119 88 -300.5t64 -353.5v-5q0 -8 -5.5 -14.5t-17.5 -8.5q-44 -4 -88 -4q-42 0 -86 4q-11 2 -17.5 9t-6.5 16v3q3 26 3 54q0 29 -3 60q-6 46 -57 46h-27q-22 0 -38 -12t-19 -34
q-2 -27 -2 -55q0 -29 2 -59v-5q0 -19 -24 -23q-46 -4 -92 -4q-39 0 -81 4q-24 3 -24 24v5zM262 782l32 84q11 26 40 26h65q22 0 26.5 -8t4.5 -13q0 -9 -10 -20l-63 -88q-14 -21 -41 -21h-28q-19 0 -24.5 8.5t-5.5 15.5t4 16zM266 289q9 -9 27 -9h14q18 0 25.5 7.5t7.5 17.5
q0 4 -1 9q-5 73 -25 173q-6 24 -14.5 24t-14.5 -24q-18 -91 -24 -173q-1 -5 -1 -9q0 -10 6 -16z" />
    <glyph glyph-name="Acircumflex" unicode="&#xc2;" horiz-adv-x="600" 
d="M8 29q21 173 64.5 353t88.5 300q6 15 23 18q40 4 115 4q76 0 116 -4q18 -3 24 -18q45 -119 88 -300.5t64 -353.5v-5q0 -8 -5.5 -14.5t-17.5 -8.5q-44 -4 -88 -4q-42 0 -86 4q-11 2 -17.5 9t-6.5 16v3q3 26 3 54q0 29 -3 60q-6 46 -57 46h-27q-22 0 -38 -12t-19 -34
q-2 -27 -2 -55q0 -29 2 -59v-5q0 -19 -24 -23q-46 -4 -92 -4q-39 0 -81 4q-24 3 -24 24v5zM159 772l53 85q14 21 39 21h96q25 0 39 -21l53 -85q8 -11 8 -20q0 -4 -3 -11t-21 -7h-39q-25 0 -39 18l-24 35q-11 15 -22 15t-22 -15l-23 -34q-15 -19 -39 -19h-39q-18 0 -21.5 7
t-3.5 11q0 9 8 20zM266 289q9 -9 27 -9h14q18 0 25.5 7.5t7.5 17.5q0 4 -1 9q-5 73 -25 173q-6 24 -14.5 24t-14.5 -24q-18 -91 -24 -173q-1 -5 -1 -9q0 -10 6 -16z" />
    <glyph glyph-name="Atilde" unicode="&#xc3;" horiz-adv-x="600" 
d="M8 29q21 173 64.5 353t88.5 300q6 15 23 18q40 4 115 4q76 0 116 -4q18 -3 24 -18q45 -119 88 -300.5t64 -353.5v-5q0 -8 -5.5 -14.5t-17.5 -8.5q-44 -4 -88 -4q-42 0 -86 4q-11 2 -17.5 9t-6.5 16v3q3 26 3 54q0 29 -3 60q-6 46 -57 46h-27q-22 0 -38 -12t-19 -34
q-2 -27 -2 -55q0 -29 2 -59v-5q0 -19 -24 -23q-46 -4 -92 -4q-39 0 -81 4q-24 3 -24 24v5zM166 846q24 13 55 13q32 0 73 -14q28 -9 39.5 -12t20 -3.5t9.5 -0.5q15 0 28 7q11 5 19 5q16 0 22 -19l13 -40q3 -9 3 -16q0 -17 -17 -26q-22 -11 -52 -11q-33 0 -77 14
q-36 13 -46 14t-13 1q-15 0 -37 -7q-11 -5 -19 -5q-16 0 -22 19l-13 39q-2 8 -2 15q0 18 16 27zM266 289q9 -9 27 -9h14q18 0 25.5 7.5t7.5 17.5q0 4 -1 9q-5 73 -25 173q-6 24 -14.5 24t-14.5 -24q-18 -91 -24 -173q-1 -5 -1 -9q0 -10 6 -16z" />
    <glyph glyph-name="Adieresis" unicode="&#xc4;" horiz-adv-x="600" 
d="M8 29q21 173 64.5 353t88.5 300q6 15 23 18q40 4 115 4q76 0 116 -4q18 -3 24 -18q45 -119 88 -300.5t64 -353.5v-5q0 -8 -5.5 -14.5t-17.5 -8.5q-44 -4 -88 -4q-42 0 -86 4q-11 2 -17.5 9t-6.5 16v3q3 26 3 54q0 29 -3 60q-6 46 -57 46h-27q-22 0 -38 -12t-19 -34
q-2 -27 -2 -55q0 -29 2 -59v-5q0 -19 -24 -23q-46 -4 -92 -4q-39 0 -81 4q-24 3 -24 24v5zM312 802q0 31 20 49.5t50 18.5q31 0 51.5 -18.5t20.5 -49.5q0 -32 -20 -50t-52 -18q-30 0 -50 18.5t-20 49.5zM144 802q0 31 19.5 49.5t50.5 18.5t51 -18.5t20 -49.5q0 -32 -20 -50
t-51 -18t-50.5 18t-19.5 50zM266 289q9 -9 27 -9h14q18 0 25.5 7.5t7.5 17.5q0 4 -1 9q-5 73 -25 173q-6 24 -14.5 24t-14.5 -24q-18 -91 -24 -173q-1 -5 -1 -9q0 -10 6 -16z" />
    <glyph glyph-name="Aring" unicode="&#xc5;" horiz-adv-x="600" 
d="M8 29q21 173 64.5 353t88.5 300q6 15 23 18q40 4 115 4q76 0 116 -4q18 -3 24 -18q45 -119 88 -300.5t64 -353.5v-5q0 -8 -5.5 -14.5t-17.5 -8.5q-44 -4 -88 -4q-42 0 -86 4q-11 2 -17.5 9t-6.5 16v3q3 26 3 54q0 29 -3 60q-6 46 -57 46h-27q-22 0 -38 -12t-19 -34
q-2 -27 -2 -55q0 -29 2 -59v-5q0 -19 -24 -23q-46 -4 -92 -4q-39 0 -81 4q-24 3 -24 24v5zM226 903q28 27 73 27t73 -27t28 -73q0 -47 -28 -74t-73 -27t-73.5 27t-28.5 74q0 46 29 73zM266 289q9 -9 27 -9h14q18 0 25.5 7.5t7.5 17.5q0 4 -1 9q-5 73 -25 173q-6 24 -14.5 24
t-14.5 -24q-18 -91 -24 -173q-1 -5 -1 -9q0 -10 6 -16zM265 830q0 -20 10 -32q9 -12 24 -12t24.5 12t9.5 32t-9.5 31.5t-24.5 11.5t-24.5 -11.5t-9.5 -31.5z" />
    <glyph glyph-name="AE" unicode="&#xc6;" horiz-adv-x="931" 
d="M9 30q48 177 118.5 356.5t134.5 295.5q7 15 26 18q37 4 277 4q217 0 278 -4q24 -2 26 -25q6 -88 6 -186v-3q0 -15 -7.5 -18t-11.5 -3q-10 0 -20 10q-63 57 -155 57q-38 0 -58.5 -15.5t-20.5 -40.5v-6q0 -48 79 -48q19 0 108 7h3q9 0 17 -7t8 -18v-81q0 -15 -7 -18.5
t-10 -3.5q-7 0 -14 7q-50 31 -102 31h-3q-80 -2 -80 -67v-20q0 -41 27 -62.5t75 -21.5q58 0 93 19.5t65 69.5q5 10 11.5 11.5t9.5 1.5q6 0 13 -5t8 -18q10 -89 12 -221v-3q0 -9 -6.5 -15.5t-17.5 -7.5q-54 -4 -263 -4q-196 0 -239 4q-11 1 -16 7.5t-5 13.5q0 3 1 6
q11 50 15 115v6q0 18 -12.5 29t-35.5 11h-25q-51 0 -66 -46q-11 -47 -19 -115q-5 -25 -29 -27q-46 -4 -91 -4q-40 0 -80 4q-12 1 -15.5 8t-3.5 12t2 10zM335 280h11q40 2 40 35q3 42 3 87q0 38 -2 78q0 21 -3 26.5t-5 5.5q-3 0 -7.5 -5.5t-11.5 -26.5q-37 -111 -50 -165
q-4 -9 -4 -15q0 -19 29 -20z" />
    <glyph glyph-name="Ccedilla" unicode="&#xc7;" horiz-adv-x="568" 
d="M99 602q87 105 230 105q96 0 168 -40q13 -8 13 -25v-5q-3 -23 -8 -87t-6 -79q-1 -17 -8 -19t-10 -2q-9 0 -16 10q-52 58 -121 58q-58 0 -89 -47.5t-31 -140.5q0 -69 34 -103.5t93 -34.5q95 0 161 75q7 11 16 11q3 0 11 -3t9 -23q3 -61 7 -190v-2q0 -18 -17 -28
q-56 -26 -153 -36q37 -43 37 -90t-30.5 -71t-78.5 -24q-40 0 -71 14q-12 5 -12 18q0 6 3 13l5 12q6 14 19 14q6 0 13 -3q8 -4 20 -4q19 0 30.5 10.5t11.5 29.5q0 43 -38 79q-279 15 -279 326q0 176 87 282z" />
    <glyph glyph-name="Egrave" unicode="&#xc8;" horiz-adv-x="553" 
d="M40 677q3 21 26 23q53 4 200 4q138 0 199 -4q24 -2 26 -25q6 -88 6 -186v-3q0 -15 -7.5 -18t-11.5 -3q-10 0 -20 10q-63 57 -155 57q-38 0 -58.5 -15.5t-20.5 -40.5v-6q0 -48 79 -48q19 0 108 7h3q9 0 17 -7t8 -18v-81q0 -15 -7 -18.5t-10 -3.5q-7 0 -14 7
q-50 31 -102 31h-3q-80 -2 -80 -67v-20q0 -41 27 -62.5t75 -21.5q58 0 93 19.5t65 69.5q5 10 11.5 11.5t9.5 1.5q6 0 13 -5t8 -18q10 -89 12 -221v-3q0 -9 -6.5 -15.5t-17.5 -7.5q-54 -4 -252 -4q-171 0 -217 4q-11 1 -18.5 8.5t-7.5 18.5q4 435 22 650zM138 878q6 12 28 12
h64q30 0 40 -26l33 -84q4 -9 4 -16t-5.5 -15.5t-24.5 -8.5h-28q-27 0 -41 21l-64 88q-8 10 -8 20q0 4 2 9z" />
    <glyph glyph-name="Eacute" unicode="&#xc9;" horiz-adv-x="553" 
d="M40 677q3 21 26 23q53 4 200 4q138 0 199 -4q24 -2 26 -25q6 -88 6 -186v-3q0 -15 -7.5 -18t-11.5 -3q-10 0 -20 10q-63 57 -155 57q-38 0 -58.5 -15.5t-20.5 -40.5v-6q0 -48 79 -48q19 0 108 7h3q9 0 17 -7t8 -18v-81q0 -15 -7 -18.5t-10 -3.5q-7 0 -14 7
q-50 31 -102 31h-3q-80 -2 -80 -67v-20q0 -41 27 -62.5t75 -21.5q58 0 93 19.5t65 69.5q5 10 11.5 11.5t9.5 1.5q6 0 13 -5t8 -18q10 -89 12 -221v-3q0 -9 -6.5 -15.5t-17.5 -7.5q-54 -4 -252 -4q-171 0 -217 4q-11 1 -18.5 8.5t-7.5 18.5q4 435 22 650zM229 780l32 84
q11 26 40 26h65q22 0 26.5 -8t4.5 -13q0 -9 -10 -20l-63 -88q-14 -21 -41 -21h-28q-19 0 -24.5 8.5t-5.5 15.5t4 16z" />
    <glyph glyph-name="Ecircumflex" unicode="&#xca;" horiz-adv-x="553" 
d="M40 677q3 21 26 23q53 4 200 4q138 0 199 -4q24 -2 26 -25q6 -88 6 -186v-3q0 -15 -7.5 -18t-11.5 -3q-10 0 -20 10q-63 57 -155 57q-38 0 -58.5 -15.5t-20.5 -40.5v-6q0 -48 79 -48q19 0 108 7h3q9 0 17 -7t8 -18v-81q0 -15 -7 -18.5t-10 -3.5q-7 0 -14 7
q-50 31 -102 31h-3q-80 -2 -80 -67v-20q0 -41 27 -62.5t75 -21.5q58 0 93 19.5t65 69.5q5 10 11.5 11.5t9.5 1.5q6 0 13 -5t8 -18q10 -89 12 -221v-3q0 -9 -6.5 -15.5t-17.5 -7.5q-54 -4 -252 -4q-171 0 -217 4q-11 1 -18.5 8.5t-7.5 18.5q4 435 22 650zM126 770l53 85
q13 21 39 21h96q25 0 39 -21l53 -85q8 -11 8 -20q0 -4 -3 -11t-21 -7h-39q-25 0 -39 18l-24 35q-11 15 -22 15t-22 -15l-23 -34q-15 -19 -39 -19h-39q-18 0 -21.5 7t-3.5 11q0 9 8 20z" />
    <glyph glyph-name="Edieresis" unicode="&#xcb;" horiz-adv-x="553" 
d="M18 27q4 435 22 650q3 21 26 23q53 4 200 4q138 0 199 -4q24 -2 26 -25q6 -88 6 -186v-3q0 -15 -7.5 -18t-11.5 -3q-10 0 -20 10q-63 57 -155 57q-38 0 -58.5 -15.5t-20.5 -40.5v-6q0 -48 79 -48q19 0 108 7h3q9 0 17 -7t8 -18v-81q0 -15 -7 -18.5t-10 -3.5q-7 0 -14 7
q-50 31 -102 31h-3q-80 -2 -80 -67v-20q0 -41 27 -62.5t75 -21.5q58 0 93 19.5t65 69.5q5 10 11.5 11.5t9.5 1.5q6 0 13 -5t8 -18q10 -89 12 -221v-3q0 -9 -6.5 -15.5t-17.5 -7.5q-54 -4 -252 -4q-171 0 -217 4q-11 1 -18.5 8.5t-7.5 18.5zM278 801q0 31 20 49.5t50 18.5
q31 0 51.5 -18.5t20.5 -49.5q0 -32 -20 -50t-52 -18q-30 0 -50 18.5t-20 49.5zM110 801q0 31 19.5 49.5t50.5 18.5t51 -18.5t20 -49.5q0 -32 -20 -50t-51 -18t-50.5 18t-19.5 50z" />
    <glyph glyph-name="Igrave" unicode="&#xcc;" horiz-adv-x="261" 
d="M18 28q0 395 17 647q1 20 25 25q36 4 71 4q33 0 71 -4q23 -5 24 -25q18 -266 18 -647q0 -24 -27 -28q-44 -4 -86 -4q-43 0 -87 4q-26 4 -26 28zM1 877q6 12 28 12h64q30 0 40 -26l33 -84q4 -9 4 -16t-5.5 -15.5t-24.5 -8.5h-28q-27 0 -41 21l-64 88q-8 10 -8 20q0 4 2 9z
" />
    <glyph glyph-name="Iacute" unicode="&#xcd;" horiz-adv-x="261" 
d="M35 675q1 20 25 25q36 4 71 4q33 0 71 -4q23 -5 24 -25q18 -266 18 -647q0 -24 -27 -28q-44 -4 -86 -4q-43 0 -87 4q-26 4 -26 28q0 395 17 647zM92 779l32 84q11 26 40 26h65q22 0 26.5 -8t4.5 -13q0 -9 -10 -20l-63 -88q-14 -21 -41 -21h-28q-19 0 -24.5 8.5t-5.5 15.5
t4 16z" />
    <glyph glyph-name="Icircumflex" unicode="&#xce;" horiz-adv-x="261" 
d="M35 675q1 20 25 25q36 4 71 4q33 0 71 -4q23 -5 24 -25q18 -266 18 -647q0 -24 -27 -28q-44 -4 -86 -4q-43 0 -87 4q-26 4 -26 28q0 395 17 647zM-11 769l53 85q14 21 39 21h96q25 0 39 -21l53 -85q8 -11 8 -20q0 -4 -3 -11t-21 -7h-39q-25 0 -39 18l-24 35
q-11 15 -22 15t-22 -15l-23 -34q-15 -19 -39 -19h-39q-18 0 -21.5 7t-3.5 11q0 8 8 20z" />
    <glyph glyph-name="Idieresis" unicode="&#xcf;" horiz-adv-x="261" 
d="M35 675q1 20 25 25q36 4 71 4q33 0 71 -4q23 -5 24 -25q18 -266 18 -647q0 -24 -27 -28q-44 -4 -86 -4q-43 0 -87 4q-26 4 -26 28q0 395 17 647zM161 850q20 18 50 18q31 0 51.5 -18.5t20.5 -49.5q0 -32 -20 -50t-52 -18q-30 0 -50 18.5t-20 49.5t20 50zM-8 850
q20 18 51 18t51 -18.5t20 -49.5q0 -32 -20 -50t-51 -18t-50.5 18t-19.5 50q0 31 19 50z" />
    <glyph glyph-name="Eth" unicode="&#xd0;" horiz-adv-x="623" 
d="M-2 407q0 16 18 16h28q18 0 18 18q4 98 13 235q2 22 26 24q73 4 183 4q149 0 238 -103t89 -289q0 -171 -75.5 -245t-226.5 -74q-153 0 -230 7q-11 1 -18 9t-7 19q0 181 5 302q0 18 -18 18h-25q-18 0 -18 17v42zM259 441q0 -18 18 -18h47q18 0 18 -17v-41q0 -17 -18 -17
h-47q-18 0 -18 -18q0 -16 0.5 -49t0.5 -50q1 -35 30 -35q7 -1 22 -1q43 1 70 32.5t27 95.5q0 96 -29 150.5t-76 55.5q-12 0 -18 -1q-24 0 -26 -27q0 -10 -0.5 -30t-0.5 -30z" />
    <glyph glyph-name="Ntilde" unicode="&#xd1;" horiz-adv-x="590" 
d="M42 675q1 20 25 25q19 4 55 4q19 0 51 -4q31 -4 51 -37q78 -191 113 -233q15 -17 25 -17q12 0 15.5 22.5t3.5 44.5q0 14 -2 43.5t-7 69.5t-11 73v5q0 9 6.5 17.5t19.5 11.5q38 4 67 4t69 -4q26 -5 27 -25q21 -235 22 -561v-6q0 -115 -78 -115q-38 0 -72 32t-58 78
t-44.5 92t-39.5 78t-35 32q-23 0 -23 -69q0 -26 3 -64.5t8 -81.5t6 -58v-6q0 -21 -27 -26q-32 -4 -86 -4q-47 0 -80 4q-28 5 -28 28q0 374 24 647zM163 843q24 13 55 13q32 0 73 -14q28 -9 39.5 -12t20 -3.5t9.5 -0.5q15 0 28 7q11 5 19 5q16 0 22 -19l13 -40q3 -9 3 -16
q0 -17 -17 -26q-22 -11 -52 -11q-33 0 -77 14q-36 13 -46 14t-13 1q-15 0 -37 -7q-11 -5 -19 -5q-16 0 -22 19l-13 39q-2 8 -2 15q0 18 16 27z" />
    <glyph glyph-name="Ograve" unicode="&#xd2;" horiz-adv-x="604" 
d="M90 604q78 102 212 103q134 0 212.5 -102.5t78.5 -286.5q0 -176 -75 -250.5t-216 -74.5q-140 0 -215 74.5t-75 250.5q0 184 78 286zM221 325q0 -137 81 -137q82 0 82 137q0 81 -22.5 134t-59.5 53t-59 -52.5t-22 -134.5zM175 877q6 12 28 12h64q30 0 40 -26l33 -84
q4 -9 4 -16t-5.5 -15.5t-24.5 -8.5h-28q-27 0 -41 21l-64 88q-8 10 -8 20q0 4 2 9z" />
    <glyph glyph-name="Oacute" unicode="&#xd3;" horiz-adv-x="604" 
d="M90 604q78 102 212 103q134 0 212.5 -102.5t78.5 -286.5q0 -176 -75 -250.5t-216 -74.5q-140 0 -215 74.5t-75 250.5q0 184 78 286zM221 325q0 -137 81 -137q82 0 82 137q0 81 -22.5 134t-59.5 53t-59 -52.5t-22 -134.5zM265 779l32 84q11 26 40 26h65q22 0 26.5 -8
t4.5 -13q0 -9 -10 -20l-63 -88q-14 -21 -41 -21h-28q-19 0 -24.5 8.5t-5.5 15.5t4 16z" />
    <glyph glyph-name="Ocircumflex" unicode="&#xd4;" horiz-adv-x="604" 
d="M12 318q0 184 78 286t212 103q134 0 212.5 -102.5t78.5 -286.5q0 -176 -75 -250.5t-216 -74.5q-140 0 -215 74.5t-75 250.5zM221 325q0 -137 81 -137q82 0 82 137q0 81 -22.5 134t-59.5 53t-59 -52.5t-22 -134.5zM162 769l53 85q13 21 39 21h96q25 0 39 -21l53 -85
q8 -11 8 -20q0 -4 -3 -11t-21 -7h-39q-25 0 -39 18l-24 35q-11 15 -22 15t-22 -15l-23 -34q-15 -19 -39 -19h-39q-18 0 -21.5 7t-3.5 11q0 8 8 20z" />
    <glyph glyph-name="Otilde" unicode="&#xd5;" horiz-adv-x="604" 
d="M90 604q78 102 212 103q134 0 212.5 -102.5t78.5 -286.5q0 -176 -75 -250.5t-216 -74.5q-140 0 -215 74.5t-75 250.5q0 184 78 286zM302 188q82 0 82 137q0 81 -22.5 134t-59.5 53t-59 -52.5t-22 -134.5q0 -137 81 -137zM170 843q24 13 55 13q32 0 73 -14q28 -9 39.5 -12
t20 -3.5t9.5 -0.5q15 0 28 7q11 5 19 5q16 0 22 -19l13 -40q3 -9 3 -16q0 -17 -17 -26q-22 -11 -52 -11q-33 0 -77 14q-36 13 -46 14t-13 1q-15 0 -37 -7q-11 -5 -19 -5q-16 0 -22 19l-13 39q-2 8 -2 15q0 18 16 27z" />
    <glyph glyph-name="Odieresis" unicode="&#xd6;" horiz-adv-x="604" 
d="M12 318q0 184 78 286t212 103q134 0 212.5 -102.5t78.5 -286.5q0 -176 -75 -250.5t-216 -74.5q-140 0 -215 74.5t-75 250.5zM221 325q0 -137 81 -137q82 0 82 137q0 81 -22.5 134t-59.5 53t-59 -52.5t-22 -134.5zM315 800q0 31 20 49.5t50 18.5q31 0 51.5 -18.5
t20.5 -49.5q0 -32 -20 -50t-52 -18q-30 0 -50 18.5t-20 49.5zM167 850q19 18 50 18t51 -18.5t20 -49.5q0 -32 -20 -50t-51 -18t-50.5 18t-19.5 50q0 31 20 50z" />
    <glyph glyph-name="multiply" unicode="&#xd7;" horiz-adv-x="443" 
d="M62 484l12 11q15 15 30 16q16 -1 31 -16l67 -65q9 -9 19 -9t20 10l67 65q16 15 31 15t30 -16l12 -11q15 -15 16 -30q-1 -16 -16 -31l-65 -64q-10 -10 -10 -19q0 -10 10 -20l65 -63q15 -15 16 -31q-1 -15 -16 -30l-12 -11q-15 -15 -31 -15q-15 0 -30 14l-67 65
q-10 9 -20 10q-10 -1 -19 -10l-67 -65q-15 -14 -30 -14q-16 0 -31 14l-12 12q-15 15 -15 30q0 16 16 31l65 63q9 10 10 20q-1 9 -10 19l-65 64q-16 15 -16 31q0 15 15 30z" />
    <glyph glyph-name="Oslash" unicode="&#xd8;" horiz-adv-x="604" 
d="M-4 72l52 53q-36 75 -36 193q0 184 78 286t212 103q134 0 212 -102l46 48q5 7 10 7t10 -5l10 -10q5 -5 5 -11q0 -4 -4 -9l-54 -55q56 -100 56 -252q0 -176 -75 -250.5t-216 -74.5q-162 0 -232 95l-43 -45q-5 -5 -11 -5q-5 0 -10 4l-9 10q-6 5 -6 10t5 10zM302 164
q42 0 64 35.5t22 119.5q0 52 -7 90l-158 -164q16 -81 79 -81zM217 319v-19l154 158q-24 78 -69 78q-39 0 -62 -61.5t-23 -155.5z" />
    <glyph glyph-name="Ugrave" unicode="&#xd9;" horiz-adv-x="584" 
d="M16 276q0 173 25 400q3 21 25 24q29 4 78 4q39 0 83 -4q11 -2 17.5 -9t6.5 -16v-4q-27 -178 -27 -356q2 -120 68 -120t68 120q0 164 -27 356v4q0 9 6.5 16t17.5 9q44 4 84 4q33 0 77 -4q22 -3 24 -24q26 -220 26 -400q0 -147 -70 -215t-206 -68q-137 0 -206.5 68
t-69.5 215zM164 877q6 12 28 12h64q30 0 40 -26l33 -84q4 -9 4 -16t-5.5 -15.5t-24.5 -8.5h-28q-27 0 -41 21l-64 88q-8 10 -8 20q0 4 2 9z" />
    <glyph glyph-name="Uacute" unicode="&#xda;" horiz-adv-x="584" 
d="M41 676q3 21 25 24q29 4 78 4q39 0 83 -4q11 -2 17.5 -9t6.5 -16v-4q-27 -178 -27 -356q2 -120 68 -120t68 120q0 164 -27 356v4q0 9 6.5 16t17.5 9q44 4 84 4q33 0 77 -4q22 -3 24 -24q26 -220 26 -400q0 -147 -70 -215t-206 -68q-137 0 -206.5 68t-69.5 215
q0 173 25 400zM255 779l32 84q11 26 40 26h65q22 0 26.5 -8t4.5 -13q0 -9 -10 -20l-63 -88q-14 -21 -41 -21h-28q-19 0 -24.5 8.5t-5.5 15.5t4 16z" />
    <glyph glyph-name="Ucircumflex" unicode="&#xdb;" horiz-adv-x="584" 
d="M16 276q0 173 25 400q3 21 25 24q29 4 78 4q39 0 83 -4q11 -2 17.5 -9t6.5 -16v-4q-27 -178 -27 -356q2 -120 68 -120t68 120q0 164 -27 356v4q0 9 6.5 16t17.5 9q44 4 84 4q33 0 77 -4q22 -3 24 -24q26 -220 26 -400q0 -147 -70 -215t-206 -68q-137 0 -206.5 68
t-69.5 215zM152 769l53 85q13 21 39 21h96q25 0 39 -21l53 -85q8 -11 8 -20q0 -4 -3 -11t-21 -7h-39q-25 0 -39 18l-24 35q-11 15 -22 15t-22 -15l-23 -34q-15 -19 -39 -19h-39q-18 0 -21.5 7t-3.5 11q0 8 8 20z" />
    <glyph glyph-name="Udieresis" unicode="&#xdc;" horiz-adv-x="584" 
d="M41 676q3 21 25 24q29 4 78 4q39 0 83 -4q11 -2 17.5 -9t6.5 -16v-4q-27 -178 -27 -356q2 -120 68 -120t68 120q0 164 -27 356v4q0 9 6.5 16t17.5 9q44 4 84 4q33 0 77 -4q22 -3 24 -24q26 -220 26 -400q0 -147 -70 -215t-206 -68q-137 0 -206.5 68t-69.5 215
q0 173 25 400zM324 850q20 18 50 18q31 0 51.5 -18.5t20.5 -49.5q0 -32 -20 -50t-52 -18q-30 0 -50 18.5t-20 49.5t20 50zM136 800q0 31 19.5 49.5t50.5 18.5t51 -18.5t20 -49.5q0 -32 -20 -50t-51 -18t-50.5 18t-19.5 50z" />
    <glyph glyph-name="Yacute" unicode="&#xdd;" horiz-adv-x="556" 
d="M35 700q28 4 75 4q54 0 89 -4q12 -2 19 -9.5t7 -16.5v-3q1 -85 16 -171t36 -86h1q23 0 38 87.5t15 169.5q0 24 27 29q29 4 87 4q46 0 77 -4q27 -5 27 -27v-5q-9 -128 -57.5 -232t-120.5 -125q-9 -3 -9 -13q0 -4 1 -8q25 -162 36 -264v-2q0 -9 -7.5 -15.5t-18.5 -8.5
q-44 -4 -93 -4q-63 0 -95 4q-11 2 -18.5 8.5t-7.5 15.5v2q14 116 37 264q1 4 1 7q0 10 -10 13q-74 20 -124 125t-56 233v3q0 24 28 29zM239 779l32 84q11 26 40 26h65q22 0 26.5 -8t4.5 -13q0 -9 -10 -20l-63 -88q-14 -21 -41 -21h-28q-19 0 -24.5 8.5t-5.5 15.5t4 16z" />
    <glyph glyph-name="Thorn" unicode="&#xde;" horiz-adv-x="552" 
d="M40 677q2 22 24 25q52 4 162 4q26 -2 26 -25v-2l-2 -45v-6q0 -9 5.5 -14.5t14.5 -5.5h6q39 7 75 7q62 0 126 -29t64 -111q0 -120 -86.5 -189.5t-208.5 -72.5q-20 -1 -20 -33v-3q1 -25 12 -77.5t14 -70.5v-2q0 -9 -6.5 -17t-17.5 -10q-24 -4 -93 -4q-61 0 -92 4
q-25 3 -25 25q0 401 22 652zM226 331q2 -15 17 -15h6q45 4 69.5 29t24.5 57q0 58 -73 58h-5h-19q-18 0 -20 -17q-1 -25 -1 -53t1 -59z" />
    <glyph glyph-name="germandbls" unicode="&#xdf;" horiz-adv-x="606" 
d="M410 -6q-79 0 -146 30q-15 8 -14 26q0 100 1 151q1 17 11.5 20.5t17.5 -8.5q39 -43 89 -43q23 0 35 16t12 41q0 68 -127 128q-23 8 -23.5 28t24.5 34q63 39 63 95q0 40 -56 40q-30 0 -50.5 -22.5t-23.5 -58.5q-8 -125 0 -442q0 -27 -29 -29q-65 -5 -149 0
q-12 1 -19.5 9.5t-7.5 19.5q-1 360 14 505q15 93 81.5 141.5t171.5 48.5q68 0 124.5 -15t95.5 -51.5t39 -88.5q2 -113 -138 -168q-9 -4 -12 -9.5t0.5 -10.5t11.5 -8q98 -19 145 -75t47 -123q0 -79 -54 -130t-134 -51z" />
    <glyph glyph-name="agrave" unicode="&#xe0;" horiz-adv-x="503" 
d="M66 259q54 44 142 58q42 8 60.5 17t18.5 28q0 36 -63 36q-31 0 -73 -15t-72 -39q-9 -11 -17 -11q-3 0 -10.5 3.5t-8.5 24.5v15q0 31 2 116q2 24 17 32q70 27 181 27q115 0 167.5 -50t59.5 -141q15 -153 18 -332q0 -23 -24 -28q-20 -3 -75 -3q-52 0 -75 3q-16 2 -24 10.5
t-8 19.5v5q3 18 9 79q0 10 -2.5 13.5t-4.5 3.5t-5 -2t-6 -12q-38 -124 -135 -124q-127 0 -127 151q0 71 55 115zM115 727q6 12 28 12h64q30 0 40 -26l33 -84q4 -9 4 -16t-5.5 -15.5t-24.5 -8.5h-28q-27 0 -41 21l-64 88q-8 10 -8 20q0 4 2 9zM201 209q0 -46 35 -46
q18 0 35 21.5t17 55.5q0 41 -29 41q-22 0 -40 -20.5t-18 -51.5z" />
    <glyph glyph-name="aacute" unicode="&#xe1;" horiz-adv-x="503" 
d="M11 144q0 71 54.5 115t142.5 58q42 8 60.5 17t18.5 28q0 36 -63 36q-31 0 -73 -15t-72 -39q-9 -11 -17 -11q-3 0 -10.5 3.5t-8.5 24.5v15q0 31 2 116q2 24 17 32q70 27 181 27q115 0 167.5 -50t59.5 -141q15 -153 18 -332q0 -23 -24 -28q-20 -3 -75 -3q-52 0 -75 3
q-16 2 -24 10.5t-8 19.5v5q3 18 9 79q0 10 -2.5 13.5t-4.5 3.5t-5 -2t-6 -12q-38 -124 -135 -124q-127 0 -127 151zM206 629l32 84q11 26 40 26h65q22 0 26.5 -8t4.5 -13q0 -9 -10 -20l-63 -88q-14 -21 -41 -21h-28q-19 0 -24.5 8.5t-5.5 15.5t4 16zM236 163q18 0 35 21.5
t17 55.5q0 41 -29 41q-22 0 -40 -20.5t-18 -51.5q0 -46 35 -46z" />
    <glyph glyph-name="acircumflex" unicode="&#xe2;" horiz-adv-x="503" 
d="M66 259q54 44 142 58q42 8 60.5 17t18.5 28q0 36 -63 36q-31 0 -73 -15t-72 -39q-9 -11 -17 -11q-3 0 -10.5 3.5t-8.5 24.5v15q0 31 2 116q2 24 17 32q70 27 181 27q115 0 167.5 -50t59.5 -141q15 -153 18 -332q0 -23 -24 -28q-20 -3 -75 -3q-52 0 -75 3q-16 2 -24 10.5
t-8 19.5v5q3 18 9 79q0 10 -2.5 13.5t-4.5 3.5t-5 -2t-6 -12q-38 -124 -135 -124q-127 0 -127 151q0 71 55 115zM103 619l53 85q13 21 39 21h96q25 0 39 -21l53 -85q8 -11 8 -20q0 -4 -3 -11t-21 -7h-39q-25 0 -39 18l-24 35q-11 15 -22 15t-22 -15l-23 -34q-15 -19 -39 -19
h-39q-18 0 -21.5 7t-3.5 11q0 8 8 20zM201 209q0 -46 35 -46q18 0 35 21.5t17 55.5q0 41 -29 41q-22 0 -40 -20.5t-18 -51.5z" />
    <glyph glyph-name="atilde" unicode="&#xe3;" horiz-adv-x="503" 
d="M11 144q0 71 54.5 115t142.5 58q42 8 60.5 17t18.5 28q0 36 -63 36q-31 0 -73 -15t-72 -39q-9 -11 -17 -11q-3 0 -10.5 3.5t-8.5 24.5v15q0 31 2 116q2 24 17 32q70 27 181 27q115 0 167.5 -50t59.5 -141q15 -153 18 -332q0 -23 -24 -28q-20 -3 -75 -3q-52 0 -75 3
q-16 2 -24 10.5t-8 19.5v5q3 18 9 79q0 10 -2.5 13.5t-4.5 3.5t-5 -2t-6 -12q-38 -124 -135 -124q-127 0 -127 151zM110 693q24 13 55 13q32 0 73 -14q28 -9 39.5 -12t20 -3.5t9.5 -0.5q15 0 28 7q11 5 19 5q16 0 22 -19l13 -40q3 -9 3 -16q0 -17 -17 -26q-22 -11 -52 -11
q-33 0 -77 14q-36 13 -46 14t-13 1q-15 0 -37 -7q-11 -5 -19 -5q-16 0 -22 19l-13 39q-2 8 -2 15q0 18 16 27zM236 163q18 0 35 21.5t17 55.5q0 41 -29 41q-22 0 -40 -20.5t-18 -51.5q0 -46 35 -46z" />
    <glyph glyph-name="adieresis" unicode="&#xe4;" horiz-adv-x="503" 
d="M11 144q0 71 54.5 115t142.5 58q42 8 60.5 17t18.5 28q0 36 -63 36q-31 0 -73 -15t-72 -39q-9 -11 -17 -11q-3 0 -10.5 3.5t-8.5 24.5v15q0 31 2 116q2 24 17 32q70 27 181 27q115 0 167.5 -50t59.5 -141q15 -153 18 -332q0 -23 -24 -28q-20 -3 -75 -3q-52 0 -75 3
q-16 2 -24 10.5t-8 19.5v5q3 18 9 79q0 10 -2.5 13.5t-4.5 3.5t-5 -2t-6 -12q-38 -124 -135 -124q-127 0 -127 151zM255 649q0 31 20 49.5t50 18.5q31 0 51.5 -18.5t20.5 -49.5q0 -32 -20 -50t-52 -18q-30 0 -50 18.5t-20 49.5zM87 649q0 31 19.5 49.5t50.5 18.5t51 -18.5
t20 -49.5q0 -32 -20 -50t-51 -18t-50.5 18t-19.5 50zM201 209q0 -46 35 -46q18 0 35 21.5t17 55.5q0 41 -29 41q-22 0 -40 -20.5t-18 -51.5z" />
    <glyph glyph-name="aring" unicode="&#xe5;" horiz-adv-x="503" 
d="M11 144q0 71 54.5 115t142.5 58q42 8 60.5 17t18.5 28q0 36 -63 36q-31 0 -73 -15t-72 -39q-9 -11 -17 -11q-3 0 -10.5 3.5t-8.5 24.5v15q0 31 2 116q2 24 17 32q70 27 181 27q115 0 167.5 -50t59.5 -141q15 -153 18 -332q0 -23 -24 -28q-20 -3 -75 -3q-52 0 -75 3
q-16 2 -24 10.5t-8 19.5v5q3 18 9 79q0 10 -2.5 13.5t-4.5 3.5t-5 -2t-6 -12q-38 -124 -135 -124q-127 0 -127 151zM170 750q28 27 73 27t73 -27t28 -73q0 -47 -28 -74t-73 -27t-73.5 27t-28.5 74q0 46 29 73zM201 209q0 -46 35 -46q18 0 35 21.5t17 55.5q0 41 -29 41
q-22 0 -40 -20.5t-18 -51.5zM219 645q9 -12 24 -12t24.5 12t9.5 32t-9.5 31.5t-24.5 11.5t-24.5 -11.5t-9.5 -31.5t10 -32z" />
    <glyph glyph-name="ae" unicode="&#xe6;" horiz-adv-x="783" 
d="M66 259q54 44 142 58q42 8 60.5 17t18.5 28q0 36 -63 36q-31 0 -73 -15t-72 -39q-9 -11 -17 -11q-3 0 -10.5 3.5t-8.5 24.5v15q0 31 2 116q2 24 17 32q65 27 165 27q123 0 149 -116q3 -18 11.5 -18t13.5 18q16 55 58 85.5t100 30.5q95 0 146.5 -47t51.5 -139
q0 -65 -48.5 -111t-113.5 -46q-64 0 -107 37q-7 7 -11 7q-3 0 -5 -2.5t-2 -6.5q0 -5 2 -11q12 -37 47.5 -59.5t75.5 -22.5q78 0 128 51q8 12 17 12q3 0 10.5 -3t9.5 -24q7 -84 9 -119v-6q0 -17 -13 -28q-59 -40 -181 -40q-71 0 -120 35.5t-66 97.5q-2 10 -6 13t-6 3
q-3 0 -7 -3t-6 -14q-37 -132 -202 -132q-71 0 -111 37t-40 114q0 71 55 115zM481 329q0 -22 20 -35t43 -13q21 0 34 15t13 41q0 61 -51 61q-24 0 -41.5 -19.5t-17.5 -49.5zM201 209q0 -46 35 -46q18 0 35 21.5t17 55.5q0 41 -29 41q-22 0 -40 -20.5t-18 -51.5z" />
    <glyph glyph-name="ccedilla" unicode="&#xe7;" horiz-adv-x="465" 
d="M84 470q72 81 190 81q79 0 134 -25q16 -11 16 -28v-4q-4 -69 -9 -131q-1 -18 -8.5 -20.5t-10.5 -2.5q-9 0 -17 11q-40 29 -95 29q-44 0 -67.5 -30.5t-23.5 -89.5q0 -45 26 -69.5t72 -24.5q64 0 118 46q8 10 17 10q3 0 11 -2.5t9 -20.5q3 -74 5 -148v-4q0 -18 -15 -24
q-44 -18 -108 -26q37 -45 37 -91q0 -47 -30.5 -71t-78.5 -24q-40 0 -71 14q-12 5 -12 18q0 6 3 13l5 12q6 14 19 14q6 0 13 -3q8 -4 20 -4q19 0 30.5 10.5t11.5 29.5q0 43 -38 79q-226 18 -226 260q0 135 73 216z" />
    <glyph glyph-name="egrave" unicode="&#xe8;" horiz-adv-x="482" 
d="M77 480q66 71 173 71q97 0 151.5 -48t54.5 -142q0 -65 -49 -109t-114 -44q-64 0 -107 37q-7 7 -11 7q-3 0 -5 -2t-2 -7q0 -4 3 -11q12 -37 47 -59.5t76 -22.5q75 0 127 51q8 12 18 12q2 0 10 -2.5t10 -24.5q6 -68 9 -119v-3q0 -20 -14 -31q-59 -40 -181 -40
q-121 0 -191.5 75t-70.5 213q0 128 66 199zM115 721q6 12 28 12h64q30 0 40 -26l33 -84q4 -9 4 -16t-5.5 -15.5t-24.5 -8.5h-28q-27 0 -41 21l-64 88q-8 10 -8 20q0 4 2 9zM199 294q20 -13 44 -13q21 0 34 15t13 41q0 61 -51 61q-25 0 -42.5 -19.5t-17.5 -49.5q0 -22 20 -35
z" />
    <glyph glyph-name="eacute" unicode="&#xe9;" horiz-adv-x="482" 
d="M77 480q66 71 173 71q97 0 151.5 -48t54.5 -142q0 -65 -49 -109t-114 -44q-64 0 -107 37q-7 7 -11 7q-3 0 -5 -2t-2 -7q0 -4 3 -11q12 -37 47 -59.5t76 -22.5q75 0 127 51q8 12 18 12q2 0 10 -2.5t10 -24.5q6 -68 9 -119v-3q0 -20 -14 -31q-59 -40 -181 -40
q-121 0 -191.5 75t-70.5 213q0 128 66 199zM205 623l32 84q11 26 40 26h65q22 0 26.5 -8t4.5 -13q0 -9 -10 -20l-63 -88q-14 -21 -41 -21h-28q-19 0 -24.5 8.5t-5.5 15.5t4 16zM199 294q20 -13 44 -13q21 0 34 15t13 41q0 61 -51 61q-25 0 -42.5 -19.5t-17.5 -49.5
q0 -22 20 -35z" />
    <glyph glyph-name="ecircumflex" unicode="&#xea;" horiz-adv-x="482" 
d="M11 281q0 128 66 199t173 71q97 0 151.5 -48t54.5 -142q0 -65 -49 -109t-114 -44q-64 0 -107 37q-7 7 -11 7q-3 0 -5 -2t-2 -7q0 -4 3 -11q12 -37 47 -59.5t76 -22.5q75 0 127 51q8 12 18 12q2 0 10 -2.5t10 -24.5q6 -68 9 -119v-3q0 -20 -14 -31q-59 -40 -181 -40
q-121 0 -191.5 75t-70.5 213zM102 613l53 85q13 21 39 21h96q25 0 39 -21l53 -85q8 -11 8 -20q0 -4 -3 -11t-21 -7h-39q-25 0 -39 18l-24 35q-11 15 -22 15t-22 -15l-23 -34q-15 -19 -39 -19h-39q-18 0 -21.5 7t-3.5 11q0 8 8 20zM179 329q0 -22 20 -35t44 -13q21 0 34 15
t13 41q0 61 -51 61q-25 0 -42.5 -19.5t-17.5 -49.5z" />
    <glyph glyph-name="edieresis" unicode="&#xeb;" horiz-adv-x="482" 
d="M11 281q0 128 66 199t173 71q97 0 151.5 -48t54.5 -142q0 -65 -49 -109t-114 -44q-64 0 -107 37q-7 7 -11 7q-3 0 -5 -2t-2 -7q0 -4 3 -11q12 -37 47 -59.5t76 -22.5q75 0 127 51q8 12 18 12q2 0 10 -2.5t10 -24.5q6 -68 9 -119v-3q0 -20 -14 -31q-59 -40 -181 -40
q-121 0 -191.5 75t-70.5 213zM275 694q20 18 50 18q31 0 51.5 -18.5t20.5 -49.5q0 -32 -20 -50t-52 -18q-30 0 -50 18.5t-20 49.5t20 50zM107 694q19 18 50 18t51 -18.5t20 -49.5q0 -32 -20 -50t-51 -18t-50.5 18t-19.5 50q0 31 20 50zM199 294q20 -13 44 -13q21 0 34 15
t13 41q0 61 -51 61q-25 0 -42.5 -19.5t-17.5 -49.5q0 -22 20 -35z" />
    <glyph glyph-name="igrave" unicode="&#xec;" horiz-adv-x="244" 
d="M34 520q2 21 23 24q30 3 66 3t63 -3q22 -3 24 -25q16 -222 16 -492q0 -23 -24 -27q-46 -4 -78 -4t-82 4q-24 4 -24 27q0 269 16 493zM-6 721q7 12 29 12h64q30 0 40 -26l33 -84q4 -9 4 -16t-5.5 -15.5t-24.5 -8.5h-28q-27 0 -41 21l-64 88q-9 11 -9 20q0 5 2 9z" />
    <glyph glyph-name="iacute" unicode="&#xed;" horiz-adv-x="244" 
d="M34 520q2 21 23 24q30 3 66 3t63 -3q22 -3 24 -25q16 -222 16 -492q0 -23 -24 -27q-46 -4 -78 -4t-82 4q-24 4 -24 27q0 269 16 493zM85 623l32 84q11 26 40 26h65q22 0 26.5 -8t4.5 -13q0 -9 -10 -20l-63 -88q-14 -21 -41 -21h-28q-19 0 -24.5 8.5t-5.5 15.5t4 16z" />
    <glyph glyph-name="icircumflex" unicode="&#xee;" horiz-adv-x="244" 
d="M34 520q2 21 23 24q30 3 66 3t63 -3q22 -3 24 -25q16 -222 16 -492q0 -23 -24 -27q-46 -4 -78 -4t-82 4q-24 4 -24 27q0 269 16 493zM-18 613l53 85q14 21 39 21h96q25 0 39 -21l53 -85q8 -11 8 -20q0 -4 -3 -11t-21 -7h-39q-25 0 -39 18l-24 35q-11 15 -22 15t-22 -15
l-23 -34q-15 -19 -39 -19h-39q-18 0 -21.5 7t-3.5 11q0 8 8 20z" />
    <glyph glyph-name="idieresis" unicode="&#xef;" horiz-adv-x="244" 
d="M18 27q0 269 16 493q2 21 23 24q30 3 66 3t63 -3q22 -3 24 -25q16 -222 16 -492q0 -23 -24 -27q-46 -4 -78 -4t-82 4q-24 4 -24 27zM155 694q20 18 50 18q31 0 51.5 -18.5t20.5 -49.5q0 -32 -20 -50t-52 -18q-30 0 -50 18.5t-20 49.5t20 50zM-33 644q0 31 19.5 49.5
t50.5 18.5t51 -18.5t20 -49.5q0 -32 -20 -50t-51 -18t-50.5 18t-19.5 50z" />
    <glyph glyph-name="eth" unicode="&#xf0;" horiz-adv-x="555" 
d="M259 -7q-117 0 -182 71t-65 210q0 93 58.5 159t138.5 65q66 0 128 -47q13 -13 22.5 -6t5.5 27q-7 41 -36 76q-10 15 -20 -1l-13 -16q-15 -18 -34 -3l-14 10q-19 14 -4 34l18 21q8 14 -5 21q-17 11 -34 11q-76 0 -147 -54q-15 -14 -25.5 -8.5t-9.5 27.5q0 16 0.5 32t1 42
t0.5 50q0 27 17 37q82 47 179 47q66 0 113 -60q12 -9 20 4l20 27q15 20 34 4l15 -11q19 -14 4 -34l-26 -33q-9 -11 2 -20q123 -104 123 -300q0 -190 -75 -286t-210 -96zM270 182q34 0 57.5 29t23.5 81q0 43 -26.5 73.5t-58.5 30.5q-30 0 -49 -30.5t-19 -77.5q0 -48 18.5 -77
t53.5 -29z" />
    <glyph glyph-name="ntilde" unicode="&#xf1;" horiz-adv-x="565" 
d="M37 515q2 24 24 29q27 4 75 4q44 0 79 -4q12 -1 18 -9t6 -15q0 -3 -1 -7q-18 -73 -18 -105q0 -10 2.5 -13.5t5.5 -3.5q2 0 5.5 2.5t6.5 11.5q39 145 140 145q75 0 116 -70t49 -196q4 -71 4 -172q0 -41 -1 -86q0 -22 -23 -26q-35 -4 -78 -4q-46 0 -82 4q-11 2 -18 9t-7 17
v3q11 147 11 193q-1 54 -18 89.5t-47 35.5t-47.5 -36t-17.5 -90q0 -91 8 -193v-3q0 -21 -25 -25q-28 -4 -77 -4q-36 0 -86 4q-24 4 -24 28q1 319 20 487zM150 687q24 13 55 13q32 0 73 -14q28 -9 39.5 -12t20 -3.5t9.5 -0.5q15 0 28 7q11 5 19 5q16 0 22 -19l13 -40
q3 -9 3 -16q0 -17 -17 -26q-22 -11 -52 -11q-33 0 -77 14q-36 13 -46 14t-13 1q-15 0 -37 -7q-11 -5 -19 -5q-16 0 -22 19l-13 39q-2 8 -2 15q0 18 16 27z" />
    <glyph glyph-name="ograve" unicode="&#xf2;" horiz-adv-x="514" 
d="M80 472q68 79 177 79q110 0 178 -79.5t68 -214.5q0 -137 -65.5 -200.5t-180.5 -63.5q-114 0 -180 63.5t-66 200.5q0 135 69 215zM209 191q18 -30 48 -30t48 29.5t18 79.5q0 51 -18 83t-48 32t-48 -32t-18 -83q0 -50 18 -79zM129 721q6 12 28 12h64q30 0 40 -26l33 -84
q4 -9 4 -16t-5.5 -15.5t-24.5 -8.5h-28q-27 0 -41 21l-64 88q-8 10 -8 20q0 4 2 9z" />
    <glyph glyph-name="oacute" unicode="&#xf3;" horiz-adv-x="514" 
d="M11 257q0 135 68.5 214.5t177.5 79.5q110 0 178 -79.5t68 -214.5q0 -137 -65.5 -200.5t-180.5 -63.5q-114 0 -180 63.5t-66 200.5zM191 270q0 -50 18 -79q18 -30 48 -30t48 29.5t18 79.5q0 51 -18 83t-48 32t-48 -32t-18 -83zM220 623l32 84q11 26 40 26h65q22 0 26.5 -8
t4.5 -13q0 -9 -10 -20l-63 -88q-14 -21 -41 -21h-28q-19 0 -24.5 8.5t-5.5 15.5t4 16z" />
    <glyph glyph-name="ocircumflex" unicode="&#xf4;" horiz-adv-x="514" 
d="M11 257q0 135 68.5 214.5t177.5 79.5q110 0 178 -79.5t68 -214.5q0 -137 -65.5 -200.5t-180.5 -63.5q-114 0 -180 63.5t-66 200.5zM117 613l53 85q14 21 39 21h96q25 0 39 -21l53 -85q8 -11 8 -20q0 -4 -3 -11t-21 -7h-39q-25 0 -39 18l-24 35q-11 15 -22 15t-22 -15
l-23 -34q-15 -19 -39 -19h-39q-18 0 -21.5 7t-3.5 11q0 8 8 20zM191 270q0 -50 18 -79q18 -30 48 -30t48 29.5t18 79.5q0 51 -18 83t-48 32t-48 -32t-18 -83z" />
    <glyph glyph-name="otilde" unicode="&#xf5;" horiz-adv-x="514" 
d="M80 472q68 79 177 79q110 0 178 -79.5t68 -214.5q0 -137 -65.5 -200.5t-180.5 -63.5q-114 0 -180 63.5t-66 200.5q0 135 69 215zM124 687q24 13 55 13q32 0 73 -14q28 -9 39.5 -12t20 -3.5t9.5 -0.5q15 0 28 7q11 5 19 5q16 0 22 -19l13 -40q3 -9 3 -16q0 -17 -17 -26
q-22 -11 -52 -11q-33 0 -77 14q-36 13 -46 14t-13 1q-15 0 -37 -7q-11 -5 -19 -5q-16 0 -22 19l-13 39q-2 8 -2 15q0 18 16 27zM191 270q0 -50 18 -79q18 -30 48 -30t48 29.5t18 79.5q0 51 -18 83t-48 32t-48 -32t-18 -83z" />
    <glyph glyph-name="odieresis" unicode="&#xf6;" horiz-adv-x="514" 
d="M11 257q0 135 68.5 214.5t177.5 79.5q110 0 178 -79.5t68 -214.5q0 -137 -65.5 -200.5t-180.5 -63.5q-114 0 -180 63.5t-66 200.5zM191 270q0 -50 18 -79q18 -30 48 -30t48 29.5t18 79.5q0 51 -18 83t-48 32t-48 -32t-18 -83zM269 644q0 31 20 49.5t50 18.5
q31 0 51.5 -18.5t20.5 -49.5q0 -32 -20 -50t-52 -18q-30 0 -50 18.5t-20 49.5zM101 644q0 31 19.5 49.5t50.5 18.5t51 -18.5t20 -49.5q0 -32 -20 -50t-51 -18t-50.5 18t-19.5 50z" />
    <glyph glyph-name="divide" unicode="&#xf7;" horiz-adv-x="482" 
d="M242 439q-36 1 -59.5 22t-23.5 54t23.5 53.5t59.5 20.5q35 0 58.5 -20.5t23.5 -53.5t-23.5 -54.5t-58.5 -21.5zM416 296h-350q-43 0 -43 43v7q0 42 43 42h350q43 0 43 -42v-7q0 -43 -43 -43zM242 93q-36 1 -59.5 21.5t-23.5 53.5t23.5 54t59.5 21q35 0 58.5 -21t23.5 -54
t-23.5 -54t-58.5 -21z" />
    <glyph glyph-name="oslash" unicode="&#xf8;" horiz-adv-x="514" 
d="M13 50l38 39q-40 63 -40 168q0 135 68.5 214.5t177.5 79.5q105 0 171 -72l40 42q5 7 10 7t10 -5l11 -11q4 -5 4 -11q0 -4 -3 -9l-46 -47q49 -76 49 -188q0 -137 -65.5 -200.5t-180.5 -63.5q-117 0 -179 63l-34 -35q-5 -6 -10 -6t-10 5l-10 10q-5 5 -5 10t4 10zM257 135
q38 0 60.5 36.5t22.5 97.5q0 26 -5 53l-140 -145q22 -42 62 -42zM179 222l140 145q-22 43 -62 43q-37 0 -59.5 -39.5t-22.5 -101.5q0 -28 4 -47z" />
    <glyph glyph-name="ugrave" unicode="&#xf9;" horiz-adv-x="550" 
d="M17 239q2 149 19 279q5 23 24 26q28 4 74 4q51 0 80 -4q12 -2 18 -8.5t6 -15.5v-5q-20 -138 -20 -203q0 -53 14.5 -88t42.5 -35q26 0 40.5 37t14.5 91q0 91 -10 199v4q0 19 24 24q28 4 79 4q40 0 71 -4q22 -3 24 -27q14 -218 14 -433v-54q0 -25 -23 -30q-20 -3 -77 -3
q-46 0 -83 3q-11 2 -17.5 8.5t-6.5 15.5v4q11 59 11 104q0 10 -3 13.5t-6 3.5q-2 0 -5.5 -2.5t-5.5 -11.5q-37 -142 -137 -142q-160 0 -162 246zM147 721q6 12 28 12h64q30 0 40 -26l33 -84q4 -9 4 -16t-5.5 -15.5t-24.5 -8.5h-28q-27 0 -41 21l-64 88q-8 10 -8 20q0 4 2 9z
" />
    <glyph glyph-name="uacute" unicode="&#xfa;" horiz-adv-x="550" 
d="M36 518q5 23 24 26q28 4 74 4q51 0 80 -4q12 -2 18 -8.5t6 -15.5v-5q-20 -138 -20 -203q0 -53 14.5 -88t42.5 -35q26 0 40.5 37t14.5 91q0 91 -10 199v4q0 19 24 24q28 4 79 4q40 0 71 -4q22 -3 24 -27q14 -218 14 -433v-54q0 -25 -23 -30q-20 -3 -77 -3q-46 0 -83 3
q-11 2 -17.5 8.5t-6.5 15.5v4q11 59 11 104q0 10 -3 13.5t-6 3.5q-2 0 -5.5 -2.5t-5.5 -11.5q-37 -142 -137 -142q-160 0 -162 246q2 149 19 279zM238 623l32 84q11 26 40 26h65q22 0 26.5 -8t4.5 -13q0 -9 -10 -20l-63 -88q-14 -21 -41 -21h-28q-19 0 -24.5 8.5t-5.5 15.5
t4 16z" />
    <glyph glyph-name="ucircumflex" unicode="&#xfb;" horiz-adv-x="550" 
d="M17 239q2 149 19 279q5 23 24 26q28 4 74 4q51 0 80 -4q12 -2 18 -8.5t6 -15.5v-5q-20 -138 -20 -203q0 -53 14.5 -88t42.5 -35q26 0 40.5 37t14.5 91q0 91 -10 199v4q0 19 24 24q28 4 79 4q40 0 71 -4q22 -3 24 -27q14 -218 14 -433v-54q0 -25 -23 -30q-20 -3 -77 -3
q-46 0 -83 3q-11 2 -17.5 8.5t-6.5 15.5v4q11 59 11 104q0 10 -3 13.5t-6 3.5q-2 0 -5.5 -2.5t-5.5 -11.5q-37 -142 -137 -142q-160 0 -162 246zM135 613l53 85q14 21 39 21h96q25 0 39 -21l53 -85q8 -11 8 -20q0 -4 -3 -11t-21 -7h-39q-25 0 -39 18l-24 35q-11 15 -22 15
t-22 -15l-23 -34q-15 -19 -39 -19h-39q-18 0 -21.5 7t-3.5 11q0 8 8 20z" />
    <glyph glyph-name="udieresis" unicode="&#xfc;" horiz-adv-x="550" 
d="M17 239q2 149 19 279q5 23 24 26q28 4 74 4q51 0 80 -4q12 -2 18 -8.5t6 -15.5v-5q-20 -138 -20 -203q0 -53 14.5 -88t42.5 -35q26 0 40.5 37t14.5 91q0 91 -10 199v4q0 19 24 24q28 4 79 4q40 0 71 -4q22 -3 24 -27q14 -218 14 -433v-54q0 -25 -23 -30q-20 -3 -77 -3
q-46 0 -83 3q-11 2 -17.5 8.5t-6.5 15.5v4q11 59 11 104q0 10 -3 13.5t-6 3.5q-2 0 -5.5 -2.5t-5.5 -11.5q-37 -142 -137 -142q-160 0 -162 246zM287 644q0 31 20 49.5t50 18.5q31 0 51.5 -18.5t20.5 -49.5q0 -32 -20 -50t-52 -18q-30 0 -50 18.5t-20 49.5zM119 644
q0 31 19.5 49.5t50.5 18.5t51 -18.5t20 -49.5q0 -32 -20 -50t-51 -18t-50.5 18t-19.5 50z" />
    <glyph glyph-name="yacute" unicode="&#xfd;" horiz-adv-x="552" 
d="M17 -184q1 24 6 148q1 16 8.5 19.5t11.5 3.5q7 0 14 -6q58 -38 136 -38q57 0 101 46t44 106v40q0 10 -3 13.5t-6 3.5q-2 0 -5.5 -2.5t-5.5 -12.5q-15 -67 -51 -101.5t-86 -34.5q-160 0 -162 243q2 143 19 274q5 23 24 26q28 4 74 4q51 0 80 -4q12 -2 18 -8.5t6 -15.5v-5
q-20 -138 -20 -198q0 -55 14.5 -91.5t42.5 -36.5q26 0 39.5 38.5t13.5 94.5q0 64 -10 194v3q0 20 24 25q29 4 80 4q40 0 71 -4q22 -3 24 -27q16 -232 16 -481q0 -132 -81 -202.5t-210 -70.5q-138 0 -209 24q-8 3 -13 11t-5 15v3zM235 623l32 84q11 26 40 26h65q22 0 26.5 -8
t4.5 -13q0 -9 -10 -20l-63 -88q-14 -21 -41 -21h-28q-19 0 -24.5 8.5t-5.5 15.5t4 16z" />
    <glyph glyph-name="thorn" unicode="&#xfe;" horiz-adv-x="563" 
d="M23 253q6 296 14 441q2 24 25 27q29 4 75 4q53 0 84 -4q23 -3 23 -24v-5q-17 -176 -17 -258q0 -12 3 -16t5 -4t5.5 2.5t6.5 12.5q18 57 55 89t84 32q77 0 121.5 -70t44.5 -203q0 -134 -47 -209t-126 -75q-107 0 -139 130q-2 10 -6 12.5t-6 2.5q-3 0 -6 -4.5t-3 -15.5
q2 -181 24 -318v-5q0 -9 -6.5 -16.5t-18.5 -8.5q-34 -3 -91 -3q-53 0 -87 3q-23 3 -23 27q0 160 6 456zM225 275q0 -45 17 -72t46 -27t46.5 27t17.5 72q0 44 -17.5 70t-46.5 26q-28 0 -45.5 -26t-17.5 -70z" />
    <glyph glyph-name="ydieresis" unicode="&#xff;" horiz-adv-x="552" 
d="M17 -184q1 24 6 148q1 16 8.5 19.5t11.5 3.5q7 0 14 -6q58 -38 136 -38q57 0 101 46t44 106v40q0 10 -3 13.5t-6 3.5q-2 0 -5.5 -2.5t-5.5 -12.5q-15 -67 -51 -101.5t-86 -34.5q-160 0 -162 243q2 143 19 274q5 23 24 26q28 4 74 4q51 0 80 -4q12 -2 18 -8.5t6 -15.5v-5
q-20 -138 -20 -198q0 -55 14.5 -91.5t42.5 -36.5q26 0 39.5 38.5t13.5 94.5q0 64 -10 194v3q0 20 24 25q29 4 80 4q40 0 71 -4q22 -3 24 -27q16 -232 16 -481q0 -132 -81 -202.5t-210 -70.5q-138 0 -209 24q-8 3 -13 11t-5 15v3zM304 694q20 18 50 18q31 0 51.5 -18.5
t20.5 -49.5q0 -32 -20 -50t-52 -18q-30 0 -50 18.5t-20 49.5t20 50zM136 694q19 18 50 18t51 -18.5t20 -49.5q0 -32 -20 -50t-51 -18t-50.5 18t-19.5 50q0 31 20 50z" />
    <glyph glyph-name="Amacron" unicode="&#x100;" horiz-adv-x="600" 
d="M8 29q21 173 64.5 353t88.5 300q6 15 23 18q40 4 115 4q76 0 116 -4q18 -3 24 -18q45 -119 88 -300.5t64 -353.5v-5q0 -8 -5.5 -14.5t-17.5 -8.5q-44 -4 -88 -4q-42 0 -86 4q-11 2 -17.5 9t-6.5 16v3q3 26 3 54q0 29 -3 60q-6 46 -57 46h-27q-22 0 -38 -12t-19 -34
q-2 -27 -2 -55q0 -29 2 -59v-5q0 -19 -24 -23q-46 -4 -92 -4q-39 0 -81 4q-24 3 -24 24v5zM160 790q0 32 32 32h214q32 0 32 -32v-25q0 -32 -32 -32h-214q-32 0 -32 32v25zM266 289q9 -9 27 -9h14q18 0 25.5 7.5t7.5 17.5q0 4 -1 9q-5 73 -25 173q-6 24 -14.5 24t-14.5 -24
q-18 -91 -24 -173q-1 -5 -1 -9q0 -10 6 -16z" />
    <glyph glyph-name="amacron" unicode="&#x101;" horiz-adv-x="503" 
d="M66 259q54 44 142 58q42 8 60.5 17t18.5 28q0 36 -63 36q-31 0 -73 -15t-72 -39q-9 -11 -17 -11q-3 0 -10.5 3.5t-8.5 24.5v15q0 31 2 116q2 24 17 32q70 27 181 27q115 0 167.5 -50t59.5 -141q15 -153 18 -332q0 -23 -24 -28q-20 -3 -75 -3q-52 0 -75 3q-16 2 -24 10.5
t-8 19.5v5q3 18 9 79q0 10 -2.5 13.5t-4.5 3.5t-5 -2t-6 -12q-38 -124 -135 -124q-127 0 -127 151q0 71 55 115zM104 637q0 32 32 32h214q32 0 32 -32v-25q0 -32 -32 -32h-214q-32 0 -32 32v25zM236 163q18 0 35 21.5t17 55.5q0 41 -29 41q-22 0 -40 -20.5t-18 -51.5
q0 -46 35 -46z" />
    <glyph glyph-name="Abreve" unicode="&#x102;" horiz-adv-x="600" 
d="M8 29q21 173 64.5 353t88.5 300q6 15 23 18q40 4 115 4q76 0 116 -4q18 -3 24 -18q45 -119 88 -300.5t64 -353.5v-5q0 -8 -5.5 -14.5t-17.5 -8.5q-44 -4 -88 -4q-42 0 -86 4q-11 2 -17.5 9t-6.5 16v3q3 26 3 54q0 29 -3 60q-6 46 -57 46h-27q-22 0 -38 -12t-19 -34
q-2 -27 -2 -55q0 -29 2 -59v-5q0 -19 -24 -23q-46 -4 -92 -4q-39 0 -81 4q-24 3 -24 24v5zM163 810q3 11 18 19l17 8q7 4 14 4q13 0 28 -12q25 -20 58 -20q35 0 58 20q15 12 29 12q7 0 14 -4l17 -8q20 -10 20 -23q0 -7 -7 -16q-50 -57 -131 -57q-78 0 -126 53q-10 10 -10 19
q0 3 1 5zM266 289q9 -9 27 -9h14q18 0 25.5 7.5t7.5 17.5q0 4 -1 9q-5 73 -25 173q-6 24 -14.5 24t-14.5 -24q-18 -91 -24 -173q-1 -5 -1 -9q0 -10 6 -16z" />
    <glyph glyph-name="abreve" unicode="&#x103;" horiz-adv-x="503" 
d="M66 259q54 44 142 58q42 8 60.5 17t18.5 28q0 36 -63 36q-31 0 -73 -15t-72 -39q-9 -11 -17 -11q-3 0 -10.5 3.5t-8.5 24.5v15q0 31 2 116q2 24 17 32q70 27 181 27q115 0 167.5 -50t59.5 -141q15 -153 18 -332q0 -23 -24 -28q-20 -3 -75 -3q-52 0 -75 3q-16 2 -24 10.5
t-8 19.5v5q3 18 9 79q0 10 -2.5 13.5t-4.5 3.5t-5 -2t-6 -12q-38 -124 -135 -124q-127 0 -127 151q0 71 55 115zM107 657q3 11 18 19l17 8q7 4 14 4q13 0 28 -12q25 -20 58 -20q35 0 58 20q15 12 29 12q7 0 14 -4l17 -8q20 -10 20 -23q0 -7 -7 -16q-50 -57 -131 -57
q-78 0 -126 53q-10 10 -10 19q0 3 1 5zM201 209q0 -46 35 -46q18 0 35 21.5t17 55.5q0 41 -29 41q-22 0 -40 -20.5t-18 -51.5z" />
    <glyph glyph-name="Aogonek" unicode="&#x104;" horiz-adv-x="600" 
d="M8 29q21 173 64.5 353t88.5 300q6 15 23 18q40 4 115 4q76 0 116 -4q18 -3 24 -18q45 -119 88 -300.5t64 -353.5v-5q0 -8 -5.5 -14.5t-17.5 -8.5q-11 -1 -77 -4q-1 -3 -6 -6q-47 -39 -47 -87q0 -19 11.5 -29.5t30.5 -10.5q12 0 20 4q7 3 13 3q13 0 19 -14l5 -12
q3 -7 3 -13q0 -13 -12 -18q-31 -14 -71 -14q-48 0 -78.5 24t-30.5 71q0 55 51 106h-5q-11 2 -17.5 9t-6.5 16v3q3 26 3 54q0 29 -3 60q-6 46 -57 46h-27q-22 0 -38 -12t-19 -34q-2 -27 -2 -55q0 -29 2 -59v-5q0 -19 -24 -23q-46 -4 -92 -4q-39 0 -81 4q-24 3 -24 24v5z
M266 289q9 -9 27 -9h14q18 0 25.5 7.5t7.5 17.5q0 4 -1 9q-5 73 -25 173q-6 24 -14.5 24t-14.5 -24q-18 -91 -24 -173q-1 -5 -1 -9q0 -10 6 -16z" />
    <glyph glyph-name="aogonek" unicode="&#x105;" horiz-adv-x="503" 
d="M66 259q54 44 142 58q42 8 60.5 17t18.5 28q0 36 -63 36q-31 0 -73 -15t-72 -39q-9 -11 -17 -11q-3 0 -10.5 3.5t-8.5 24.5v15q0 31 2 116q2 24 17 32q70 27 181 27q115 0 167.5 -50t59.5 -141q15 -153 18 -332q0 -23 -24 -28q-18 -3 -67 -3l-5 -5q-47 -39 -47 -87
q0 -19 11.5 -29.5t30.5 -10.5q12 0 20 4q7 3 13 3q13 0 19 -14l5 -12q3 -7 3 -13q0 -13 -12 -18q-31 -14 -71 -14q-48 0 -78.5 24t-30.5 71q0 55 51 106q-25 8 -25 26q0 3 1 7q3 18 9 79q0 10 -2.5 13.5t-4.5 3.5t-5 -2t-6 -12q-38 -124 -135 -124q-127 0 -127 151
q0 71 55 115zM201 209q0 -46 35 -46q18 0 35 21.5t17 55.5q0 41 -29 41q-22 0 -40 -20.5t-18 -51.5z" />
    <glyph glyph-name="Cacute" unicode="&#x106;" horiz-adv-x="568" 
d="M12 320q0 176 87 281.5t230 105.5q96 0 168 -40q13 -8 13 -25v-5q-3 -23 -8 -87t-6 -79q-1 -17 -8 -19t-10 -2q-9 0 -16 10q-52 58 -121 58q-58 0 -89 -47.5t-31 -140.5q0 -69 34 -103.5t93 -34.5q95 0 161 75q7 11 16 11q3 0 11 -3t9 -23q3 -61 7 -190v-2q0 -18 -17 -28
q-34 -16 -95.5 -27.5t-116.5 -11.5q-311 0 -311 327zM264 779l32 84q11 26 40 26h65q22 0 26.5 -8t4.5 -13q0 -9 -10 -20l-63 -88q-14 -21 -41 -21h-28q-19 0 -24.5 8.5t-5.5 15.5t4 16z" />
    <glyph glyph-name="cacute" unicode="&#x107;" horiz-adv-x="465" 
d="M11 254q0 135 72.5 216t190.5 81q79 0 134 -25q16 -11 16 -28v-4q-4 -69 -9 -131q-1 -18 -8.5 -20.5t-10.5 -2.5q-9 0 -17 11q-40 29 -95 29q-44 0 -67.5 -30.5t-23.5 -89.5q0 -45 26 -69.5t72 -24.5q64 0 118 46q8 10 17 10q3 0 11 -2.5t9 -20.5q3 -74 5 -148v-4
q0 -18 -15 -24q-77 -30 -166 -30q-122 0 -190.5 63t-68.5 198zM239 623l32 84q11 26 40 26h65q22 0 26.5 -8t4.5 -13q0 -9 -10 -20l-63 -88q-14 -21 -41 -21h-28q-19 0 -24.5 8.5t-5.5 15.5t4 16z" />
    <glyph glyph-name="Cdotaccent" unicode="&#x10a;" horiz-adv-x="568" 
d="M99 602q87 105 230 105q96 0 168 -40q13 -8 13 -25v-5q-3 -23 -8 -87t-6 -79q-1 -17 -8 -19t-10 -2q-9 0 -16 10q-52 58 -121 58q-58 0 -89 -47.5t-31 -140.5q0 -69 34 -103.5t93 -34.5q95 0 161 75q7 11 16 11q3 0 11 -3t9 -23q3 -61 7 -190v-2q0 -18 -17 -28
q-34 -16 -95.5 -27.5t-116.5 -11.5q-311 0 -311 327q0 176 87 282zM231 800q0 31 20 49.5t51 18.5t51 -18.5t20 -49.5t-20 -49q-20 -19 -51 -19t-51 18.5t-20 49.5z" />
    <glyph glyph-name="cdotaccent" unicode="&#x10b;" horiz-adv-x="465" 
d="M84 470q72 81 190 81q79 0 134 -25q16 -11 16 -28v-4q-4 -69 -9 -131q-1 -18 -8.5 -20.5t-10.5 -2.5q-9 0 -17 11q-40 29 -95 29q-44 0 -67.5 -30.5t-23.5 -89.5q0 -45 26 -69.5t72 -24.5q64 0 118 46q8 10 17 10q3 0 11 -2.5t9 -20.5q3 -74 5 -148v-4q0 -18 -15 -24
q-77 -30 -166 -30q-122 0 -190.5 63t-68.5 198t73 216zM225 694q20 18 51 18t51 -18.5t20 -49.5t-20 -49q-20 -19 -51 -19t-51 18.5t-20 49.5t20 50z" />
    <glyph glyph-name="Ccaron" unicode="&#x10c;" horiz-adv-x="568" 
d="M12 320q0 176 87 281.5t230 105.5q96 0 168 -40q13 -8 13 -25v-5q-3 -23 -8 -87t-6 -79q-1 -17 -8 -19t-10 -2q-9 0 -16 10q-52 58 -121 58q-58 0 -89 -47.5t-31 -140.5q0 -69 34 -103.5t93 -34.5q95 0 161 75q7 11 16 11q3 0 11 -3t9 -23q3 -61 7 -190v-2q0 -18 -17 -28
q-34 -16 -95.5 -27.5t-116.5 -11.5q-311 0 -311 327zM155 864q5 11 23 11h39q25 0 39 -20l23 -34q11 -14 22 -14t22 14l24 35q15 19 39 19h39q18 0 21 -7.5t3 -11.5q0 -9 -8 -20l-53 -85q-13 -20 -39 -20h-96q-26 0 -39 20l-53 85q-8 11 -8 20q0 4 2 8z" />
    <glyph glyph-name="ccaron" unicode="&#x10d;" horiz-adv-x="465" 
d="M11 254q0 135 72.5 216t190.5 81q79 0 134 -25q16 -11 16 -28v-4q-4 -69 -9 -131q-1 -18 -8.5 -20.5t-10.5 -2.5q-9 0 -17 11q-40 29 -95 29q-44 0 -67.5 -30.5t-23.5 -89.5q0 -45 26 -69.5t72 -24.5q64 0 118 46q8 10 17 10q3 0 11 -2.5t9 -20.5q3 -74 5 -148v-4
q0 -18 -15 -24q-77 -30 -166 -30q-122 0 -190.5 63t-68.5 198zM129 708q5 11 23 11h39q25 0 39 -20l23 -34q11 -14 22 -14t22 14l24 35q15 19 39 19h39q18 0 21 -7.5t3 -11.5q0 -9 -8 -20l-53 -85q-13 -20 -39 -20h-96q-26 0 -39 20l-53 85q-8 11 -8 20q0 4 2 8z" />
    <glyph glyph-name="Dcaron" unicode="&#x10e;" horiz-adv-x="587" 
d="M18 28q0 348 22 648q2 22 25 24q75 4 183 4q149 0 238.5 -103t89.5 -289q0 -171 -75.5 -245t-226.5 -74q-152 0 -231 7q-11 1 -18 9t-7 19zM226 236q0 -37 29 -37h22q42 0 68.5 29.5t26.5 90.5q0 93 -28 145t-75 52q-12 0 -18 -1q-25 0 -25 -30q-1 -62 -1 -124
q0 -63 1 -125zM100 864q5 11 23 11h39q25 0 39 -20l23 -34q11 -14 22 -14t22 14l24 35q15 19 39 19h39q18 0 21 -7.5t3 -11.5q0 -9 -8 -20l-53 -85q-13 -20 -39 -20h-96q-26 0 -39 20l-53 85q-8 11 -8 20q0 4 2 8z" />
    <glyph glyph-name="dcaron" unicode="&#x10f;" horiz-adv-x="691" 
d="M590 600l-17 21q-12 15 3 27q13 10 20 26q3 5 1.5 9t-7.5 3q-26 -2 -46 21t-20 59q0 37 23 58.5t59 21.5t58.5 -26t22.5 -69q0 -50 -19 -91.5t-50 -64.5q-15 -10 -28 5zM180 -7q-78 0 -123 67.5t-45 198.5q0 136 45.5 214t123.5 78q50 0 83 -31t56 -96q6 -15 14.5 -14
t7.5 20q-1 99 -24 256q-1 12 6 20t19 10q23 3 83 3q52 0 74 -3q22 -5 24 -26q20 -290 20 -662q0 -24 -25 -28q-48 -4 -85 -4q-48 0 -77 4q-11 2 -18.5 10t-5.5 19q7 41 8 74q0 11 -3.5 16t-8.5 1.5t-9 -13.5q-20 -53 -56 -83.5t-84 -30.5zM276 173q29 0 46.5 25t17.5 69
q0 45 -17.5 72.5t-46.5 27.5t-46.5 -27.5t-17.5 -72.5q0 -44 17.5 -69t46.5 -25z" />
    <glyph glyph-name="Dcroat" unicode="&#x110;" horiz-adv-x="623" 
d="M309 -7q-153 0 -230 7q-11 1 -18 9t-7 19q0 181 5 302q0 18 -18 18h-25q-18 0 -18 17v42q0 16 18 16h28q18 0 18 18q4 98 13 235q2 22 26 24q73 4 183 4q149 0 238 -103t89 -289q0 -171 -75.5 -245t-226.5 -74zM290 196q7 -1 22 -1q43 1 70 32.5t27 95.5q0 96 -29 150.5
t-76 55.5q-12 0 -18 -1q-24 0 -26 -27q0 -10 -0.5 -30t-0.5 -30q0 -18 18 -18h47q18 0 18 -17v-41q0 -17 -18 -17h-47q-18 0 -18 -18q0 -16 0.5 -49t0.5 -50q1 -35 30 -35z" />
    <glyph glyph-name="dcroat" unicode="&#x111;" horiz-adv-x="561" 
d="M180 -7q-78 0 -123 67.5t-45 198.5q0 136 45.5 214t123.5 78q50 0 83 -31t56 -96q6 -15 14.5 -14t7.5 20q0 37 -6 119q-3 19 -21 19l-57 -4q-19 0 -19 20v25q0 19 19 19h47q21 0 18 19q-4 25 -5 39q-1 12 6 20t19 10q23 3 83 3q52 0 74 -3q22 -5 24 -26q2 -28 2 -43
q2 -19 20 -19h18q19 0 19 -19v-22q0 -19 -19 -19h-13q-21 0 -19 -20q12 -300 12 -520q0 -24 -25 -28q-48 -4 -85 -4q-48 0 -77 4q-11 2 -18.5 10t-5.5 19q7 41 8 74q0 11 -3.5 16t-8.5 1.5t-9 -13.5q-20 -53 -56 -83.5t-84 -30.5zM276 173q29 0 46.5 25t17.5 69
q0 45 -17.5 72.5t-46.5 27.5t-46.5 -27.5t-17.5 -72.5q0 -44 17.5 -69t46.5 -25z" />
    <glyph glyph-name="Emacron" unicode="&#x112;" horiz-adv-x="553" 
d="M40 677q3 21 26 23q53 4 200 4q138 0 199 -4q24 -2 26 -25q6 -88 6 -186v-3q0 -15 -7.5 -18t-11.5 -3q-10 0 -20 10q-63 57 -155 57q-38 0 -58.5 -15.5t-20.5 -40.5v-6q0 -48 79 -48q19 0 108 7h3q9 0 17 -7t8 -18v-81q0 -15 -7 -18.5t-10 -3.5q-7 0 -14 7
q-50 31 -102 31h-3q-80 -2 -80 -67v-20q0 -41 27 -62.5t75 -21.5q58 0 93 19.5t65 69.5q5 10 11.5 11.5t9.5 1.5q6 0 13 -5t8 -18q10 -89 12 -221v-3q0 -9 -6.5 -15.5t-17.5 -7.5q-54 -4 -252 -4q-171 0 -217 4q-11 1 -18.5 8.5t-7.5 18.5q4 435 22 650zM127 763v25
q0 32 32 32h214q32 0 32 -32v-25q0 -32 -32 -32h-214q-32 0 -32 32z" />
    <glyph glyph-name="emacron" unicode="&#x113;" horiz-adv-x="482" 
d="M11 281q0 128 66 199t173 71q97 0 151.5 -48t54.5 -142q0 -65 -49 -109t-114 -44q-64 0 -107 37q-7 7 -11 7q-3 0 -5 -2t-2 -7q0 -4 3 -11q12 -37 47 -59.5t76 -22.5q75 0 127 51q8 12 18 12q2 0 10 -2.5t10 -24.5q6 -68 9 -119v-3q0 -20 -14 -31q-59 -40 -181 -40
q-121 0 -191.5 75t-70.5 213zM103 606v25q0 32 32 32h214q32 0 32 -32v-25q0 -32 -32 -32h-214q-32 0 -32 32zM199 294q20 -13 44 -13q21 0 34 15t13 41q0 61 -51 61q-25 0 -42.5 -19.5t-17.5 -49.5q0 -22 20 -35z" />
    <glyph glyph-name="Edotaccent" unicode="&#x116;" horiz-adv-x="553" 
d="M40 677q3 21 26 23q53 4 200 4q138 0 199 -4q24 -2 26 -25q6 -88 6 -186v-3q0 -15 -7.5 -18t-11.5 -3q-10 0 -20 10q-63 57 -155 57q-38 0 -58.5 -15.5t-20.5 -40.5v-6q0 -48 79 -48q19 0 108 7h3q9 0 17 -7t8 -18v-81q0 -15 -7 -18.5t-10 -3.5q-7 0 -14 7
q-50 31 -102 31h-3q-80 -2 -80 -67v-20q0 -41 27 -62.5t75 -21.5q58 0 93 19.5t65 69.5q5 10 11.5 11.5t9.5 1.5q6 0 13 -5t8 -18q10 -89 12 -221v-3q0 -9 -6.5 -15.5t-17.5 -7.5q-54 -4 -252 -4q-171 0 -217 4q-11 1 -18.5 8.5t-7.5 18.5q4 435 22 650zM195 801
q0 31 20 49.5t51 18.5t51 -18.5t20 -49.5t-20 -49q-20 -19 -51 -19t-51 18.5t-20 49.5z" />
    <glyph glyph-name="edotaccent" unicode="&#x117;" horiz-adv-x="482" 
d="M11 281q0 128 66 199t173 71q97 0 151.5 -48t54.5 -142q0 -65 -49 -109t-114 -44q-64 0 -107 37q-7 7 -11 7q-3 0 -5 -2t-2 -7q0 -4 3 -11q12 -37 47 -59.5t76 -22.5q75 0 127 51q8 12 18 12q2 0 10 -2.5t10 -24.5q6 -68 9 -119v-3q0 -20 -14 -31q-59 -40 -181 -40
q-121 0 -191.5 75t-70.5 213zM192 694q20 18 51 18t51 -18.5t20 -49.5t-20 -49q-20 -19 -51 -19t-51 18.5t-20 49.5t20 50zM179 329q0 -22 20 -35t44 -13q21 0 34 15t13 41q0 61 -51 61q-25 0 -42.5 -19.5t-17.5 -49.5z" />
    <glyph glyph-name="Eogonek" unicode="&#x118;" horiz-adv-x="553" 
d="M40 677q3 21 26 23q53 4 200 4q138 0 199 -4q24 -2 26 -25q6 -88 6 -186v-3q0 -15 -7.5 -18t-11.5 -3q-10 0 -20 10q-63 57 -155 57q-38 0 -58.5 -15.5t-20.5 -40.5v-6q0 -48 79 -48q19 0 108 7h3q9 0 17 -7t8 -18v-81q0 -15 -7 -18.5t-10 -3.5q-7 0 -14 7
q-50 31 -102 31h-3q-80 -2 -80 -67v-20q0 -41 27 -62.5t75 -21.5q58 0 93 19.5t65 69.5q5 10 11.5 11.5t9.5 1.5q6 0 13 -5t8 -18q10 -89 12 -221v-2q0 -14 -12 -21l-6 -5q-47 -39 -47 -87q0 -19 11.5 -29.5t30.5 -10.5q12 0 20 4q7 3 13 3q13 0 19 -14l5 -12q3 -7 3 -13
q0 -13 -12 -18q-31 -14 -71 -14q-48 0 -78.5 24t-30.5 71q0 49 41 95q-56 -1 -162 -1q-171 0 -217 4q-11 1 -18.5 8.5t-7.5 18.5q4 435 22 650z" />
    <glyph glyph-name="eogonek" unicode="&#x119;" horiz-adv-x="482" 
d="M11 281q0 128 66 199t173 71q97 0 151.5 -48t54.5 -142q0 -65 -49 -109t-114 -44q-64 0 -107 37q-7 7 -11 7q-3 0 -5 -2t-2 -7q0 -4 3 -11q12 -37 47 -59.5t76 -22.5q75 0 127 51q8 12 18 12q2 0 10 -2.5t10 -24.5q6 -68 9 -119v-3q0 -20 -14 -31q-1 -1 -4 -2.5t-4 -2.5
q-41 -36 -41 -82q0 -19 11.5 -29.5t30.5 -10.5q12 0 20 4q7 3 13 3q13 0 19 -14l5 -12q3 -7 3 -13q0 -13 -12 -18q-31 -14 -71 -14q-48 0 -78.5 24t-30.5 71q0 30 16 59q-30 -3 -58 -3q-121 0 -191.5 75t-70.5 213zM179 329q0 -22 20 -35t44 -13q21 0 34 15t13 41
q0 61 -51 61q-25 0 -42.5 -19.5t-17.5 -49.5z" />
    <glyph glyph-name="Ecaron" unicode="&#x11a;" horiz-adv-x="553" 
d="M40 677q3 21 26 23q53 4 200 4q138 0 199 -4q24 -2 26 -25q6 -88 6 -186v-3q0 -15 -7.5 -18t-11.5 -3q-10 0 -20 10q-63 57 -155 57q-38 0 -58.5 -15.5t-20.5 -40.5v-6q0 -48 79 -48q19 0 108 7h3q9 0 17 -7t8 -18v-81q0 -15 -7 -18.5t-10 -3.5q-7 0 -14 7
q-50 31 -102 31h-3q-80 -2 -80 -67v-20q0 -41 27 -62.5t75 -21.5q58 0 93 19.5t65 69.5q5 10 11.5 11.5t9.5 1.5q6 0 13 -5t8 -18q10 -89 12 -221v-3q0 -9 -6.5 -15.5t-17.5 -7.5q-54 -4 -252 -4q-171 0 -217 4q-11 1 -18.5 8.5t-7.5 18.5q4 435 22 650zM120 865q5 11 23 11
h39q25 0 39 -20l23 -34q11 -14 22 -14t22 14l24 35q15 19 39 19h39q18 0 21 -7.5t3 -11.5q0 -9 -8 -20l-53 -85q-13 -20 -39 -20h-96q-26 0 -39 20l-53 85q-8 12 -8 21q0 4 2 7z" />
    <glyph glyph-name="ecaron" unicode="&#x11b;" horiz-adv-x="482" 
d="M11 281q0 128 66 199t173 71q97 0 151.5 -48t54.5 -142q0 -65 -49 -109t-114 -44q-64 0 -107 37q-7 7 -11 7q-3 0 -5 -2t-2 -7q0 -4 3 -11q12 -37 47 -59.5t76 -22.5q75 0 127 51q8 12 18 12q2 0 10 -2.5t10 -24.5q6 -68 9 -119v-3q0 -20 -14 -31q-59 -40 -181 -40
q-121 0 -191.5 75t-70.5 213zM96 708q5 11 23 11h39q25 0 39 -20l23 -34q11 -14 22 -14t22 14l24 35q15 19 39 19h39q18 0 21 -7.5t3 -11.5q0 -9 -8 -20l-53 -85q-13 -20 -39 -20h-96q-26 0 -39 20l-53 85q-8 11 -8 20q0 4 2 8zM179 329q0 -22 20 -35t44 -13q21 0 34 15
t13 41q0 61 -51 61q-25 0 -42.5 -19.5t-17.5 -49.5z" />
    <glyph glyph-name="Gcircumflex" unicode="&#x11c;" horiz-adv-x="599" 
d="M12 317q0 177 87.5 283t229.5 107q101 0 178 -37q15 -10 15 -29v-5q-5 -65 -14 -162q-1 -16 -8 -18t-10 -2q-8 0 -15 8q-58 51 -131 51q-56 0 -89 -48t-33 -145q0 -132 78 -132q30 0 49.5 30t19.5 78q0 49 -16 75q-4 7 -4 13q0 5 3.5 11.5t16.5 7.5q122 7 173 8
q26 0 28 -25q12 -142 12 -310v-48q0 -26 -25 -28q-19 -2 -69.5 -2t-71.5 2q-26 4 -26 24v2q5 42 5 82q0 22 -4 22.5l-4 0.5q-8 0 -15 -21q-37 -117 -138 -117q-103 0 -162.5 78.5t-59.5 245.5zM187 769l53 85q13 21 39 21h96q25 0 39 -21l53 -85q8 -11 8 -20q0 -4 -3 -11
t-21 -7h-39q-25 0 -39 18l-24 35q-11 15 -22 15t-22 -15l-23 -34q-15 -19 -39 -19h-39q-18 0 -21.5 7t-3.5 11q0 8 8 20z" />
    <glyph glyph-name="gcircumflex" unicode="&#x11d;" horiz-adv-x="561" 
d="M60 483q45 68 122 68q49 0 86 -32.5t57 -90.5q4 -12 11 -12l4 0.5t4 11.5v3q-1 50 -9 85v4q0 19 25 24q29 4 72 4q40 0 72 -4q22 -5 25 -26q16 -192 16 -502q0 -253 -292 -253q-137 0 -208 24q-18 8 -18 25v4q1 31 6 148q1 16 8 19.5t11 3.5q7 0 15 -7q60 -35 134 -35
q61 0 102.5 39t41.5 102v41q0 10 -3 13.5t-6 3.5q-2 0 -5.5 -2.5t-6.5 -13.5q-18 -62 -54 -94t-85 -32q-78 0 -124 75t-46 206t45 200zM140 613l53 85q13 21 39 21h96q25 0 39 -21l53 -85q8 -11 8 -20q0 -4 -3 -11t-21 -7h-39q-25 0 -39 18l-24 35q-11 15 -22 15t-22 -15
l-23 -34q-15 -19 -39 -19h-39q-18 0 -21.5 7t-3.5 11q0 8 8 20zM216 278q0 -45 17 -72q17 -28 46 -28t46.5 27.5t17.5 72.5t-17 70t-47 25h-2q-28 0 -44.5 -25t-16.5 -70z" />
    <glyph glyph-name="Gbreve" unicode="&#x11e;" horiz-adv-x="599" 
d="M12 317q0 177 87.5 283t229.5 107q101 0 178 -37q15 -10 15 -29v-5q-5 -65 -14 -162q-1 -16 -8 -18t-10 -2q-8 0 -15 8q-58 51 -131 51q-56 0 -89 -48t-33 -145q0 -132 78 -132q30 0 49.5 30t19.5 78q0 49 -16 75q-4 7 -4 13q0 5 3.5 11.5t16.5 7.5q122 7 173 8
q26 0 28 -25q12 -142 12 -310v-48q0 -26 -25 -28q-19 -2 -69.5 -2t-71.5 2q-26 4 -26 24v2q5 42 5 82q0 22 -4 22.5l-4 0.5q-8 0 -15 -21q-37 -117 -138 -117q-103 0 -162.5 78.5t-59.5 245.5zM191 807q3 11 18 19l17 8q7 4 14 4q13 0 28 -12q25 -20 58 -20q35 0 58 20
q15 12 29 12q7 0 14 -4l17 -8q20 -10 20 -23q0 -7 -7 -16q-50 -57 -131 -57q-78 0 -126 53q-10 10 -10 19q0 3 1 5z" />
    <glyph glyph-name="gbreve" unicode="&#x11f;" horiz-adv-x="561" 
d="M60 483q45 68 122 68q49 0 86 -32.5t57 -90.5q4 -12 11 -12l4 0.5t4 11.5v3q-1 50 -9 85v4q0 19 25 24q29 4 72 4q40 0 72 -4q22 -5 25 -26q16 -192 16 -502q0 -253 -292 -253q-137 0 -208 24q-18 8 -18 25v4q1 31 6 148q1 16 8 19.5t11 3.5q7 0 15 -7q60 -35 134 -35
q61 0 102.5 39t41.5 102v41q0 10 -3 13.5t-6 3.5q-2 0 -5.5 -2.5t-6.5 -13.5q-18 -62 -54 -94t-85 -32q-78 0 -124 75t-46 206t45 200zM145 651q3 11 18 19l17 8q7 4 14 4q13 0 28 -12q25 -20 58 -20q35 0 58 20q15 12 29 12q7 0 14 -4l17 -8q20 -10 20 -23q0 -7 -7 -16
q-50 -57 -131 -57q-78 0 -126 53q-10 10 -10 19q0 3 1 5zM216 278q0 -45 17 -72q17 -28 46 -28t46.5 27.5t17.5 72.5t-17 70t-47 25h-2q-28 0 -44.5 -25t-16.5 -70z" />
    <glyph glyph-name="Gdotaccent" unicode="&#x120;" horiz-adv-x="599" 
d="M100 600q87 106 229 107q101 0 178 -37q15 -10 15 -29v-5q-5 -65 -14 -162q-1 -16 -8 -18t-10 -2q-8 0 -15 8q-58 51 -131 51q-56 0 -89 -48t-33 -145q0 -132 78 -132q30 0 49.5 30t19.5 78q0 49 -16 75q-4 7 -4 13q0 5 3.5 11.5t16.5 7.5q122 7 173 8q26 0 28 -25
q12 -142 12 -310v-48q0 -26 -25 -28q-19 -2 -69.5 -2t-71.5 2q-26 4 -26 24v2q5 42 5 82q0 22 -4 22.5l-4 0.5q-8 0 -15 -21q-37 -117 -138 -117q-103 0 -162.5 78.5t-59.5 245.5q0 177 88 283zM277 850q20 18 51 18t51 -18.5t20 -49.5t-20 -49q-20 -19 -51 -19t-51 18.5
t-20 49.5t20 50z" />
    <glyph glyph-name="gdotaccent" unicode="&#x121;" horiz-adv-x="561" 
d="M60 483q45 68 122 68q49 0 86 -32.5t57 -90.5q4 -12 11 -12l4 0.5t4 11.5v3q-1 50 -9 85v4q0 19 25 24q29 4 72 4q40 0 72 -4q22 -5 25 -26q16 -192 16 -502q0 -253 -292 -253q-137 0 -208 24q-18 8 -18 25v4q1 31 6 148q1 16 8 19.5t11 3.5q7 0 15 -7q60 -35 134 -35
q61 0 102.5 39t41.5 102v41q0 10 -3 13.5t-6 3.5q-2 0 -5.5 -2.5t-6.5 -13.5q-18 -62 -54 -94t-85 -32q-78 0 -124 75t-46 206t45 200zM233 206q17 -28 46 -28t46.5 27.5t17.5 72.5t-17 70t-47 25h-2q-28 0 -44.5 -25t-16.5 -70t17 -72zM210 644q0 31 20 49.5t51 18.5
t51 -18.5t20 -49.5t-20 -49q-20 -19 -51 -19t-51 18.5t-20 49.5z" />
    <glyph glyph-name="uni0122" unicode="&#x122;" horiz-adv-x="599" 
d="M100 600q87 106 229 107q101 0 178 -37q15 -10 15 -29v-5q-5 -65 -14 -162q-1 -16 -8 -18t-10 -2q-8 0 -15 8q-58 51 -131 51q-56 0 -89 -48t-33 -145q0 -132 78 -132q30 0 49.5 30t19.5 78q0 49 -16 75q-4 7 -4 13q0 5 3.5 11.5t16.5 7.5q122 7 173 8q26 0 28 -25
q12 -142 12 -310v-48q0 -26 -25 -28q-19 -2 -69.5 -2t-71.5 2q-26 4 -26 24v2q5 42 5 82q0 22 -4 22.5l-4 0.5q-8 0 -15 -21q-37 -117 -138 -117q-103 0 -162.5 78.5t-59.5 245.5q0 177 88 283zM162 -105q0 40 24 62t62 22t61.5 -27t23.5 -72q0 -108 -73 -164q-7 -4 -13 -4
q-8 0 -16 9l-18 22q-6 7 -6 14t9 14q16 14 21 28q2 3 2 6q0 2 -1 4.5t-5 2.5h-2h-4q-26 0 -45.5 23t-19.5 60z" />
    <glyph glyph-name="uni0123" unicode="&#x123;" horiz-adv-x="561" 
d="M15 283q0 131 45 199.5t122 68.5q49 0 86 -32.5t57 -90.5q4 -12 11 -12l4 0.5t4 11.5v3q-1 50 -9 85v4q0 19 25 24q29 4 72 4q40 0 72 -4q22 -5 25 -26q16 -192 16 -502q0 -253 -292 -253q-137 0 -208 24q-18 8 -18 25v4q1 31 6 148q1 16 8 19.5t11 3.5q7 0 15 -7
q60 -35 134 -35q61 0 102.5 39t41.5 102v41q0 10 -3 13.5t-6 3.5q-2 0 -5.5 -2.5t-6.5 -13.5q-18 -62 -54 -94t-85 -32q-78 0 -124 75t-46 206zM195 667q0 52 20 95.5t53 67.5q6 5 12 5q9 0 17 -10l18 -22q6 -7 6 -13q0 -8 -9 -15q-16 -12 -22 -28q-2 -3 -2 -5t2 -4.5
t6 -2.5h2h4q25 0 44.5 -23t19.5 -60q0 -40 -23.5 -62.5t-62.5 -22.5q-38 0 -61.5 27t-23.5 73zM233 206q17 -28 46 -28t46.5 27.5t17.5 72.5t-17 70t-47 25h-2q-28 0 -44.5 -25t-16.5 -70t17 -72z" />
    <glyph glyph-name="Hbar" unicode="&#x126;" horiz-adv-x="583" 
d="M4 595h13q15 0 17 17q1 10 2.5 31.5t2.5 31.5q3 21 28 25q28 4 66 4q52 0 80 -4q25 -5 25 -26v-5q-4 -36 -4 -56v-5q0 -13 16 -13h82q16 0 16 15v3t-3 56v5q0 22 25 27q31 3 80 3q36 0 65 -3q27 -5 28 -25q4 -39 5 -64q2 -17 17 -17h15q16 0 16 -18v-43q0 -17 -16 -17
h-10q-15 0 -15 -14v-4q10 -232 10 -472q0 -11 -8 -18.5t-20 -8.5q-44 -4 -82 -4q-44 0 -88 4q-11 1 -18 8.5t-7 19.5v3q11 128 11 202q0 49 -49 49h-26q-22 0 -35.5 -13t-13.5 -36q0 -74 11 -202v-5q0 -22 -25 -26q-44 -4 -88 -4q-37 0 -81 4q-28 4 -28 27q0 273 10 472
q0 18 -16 18h-8q-17 0 -17 17v43q0 18 17 18zM228 499v-34q0 -41 50 -41h26q50 0 50 41v35q0 17 -18 17h-90q-18 0 -18 -18z" />
    <glyph glyph-name="hbar" unicode="&#x127;" horiz-adv-x="565" 
d="M-22 587v21q0 20 20 20h17q20 0 20 19q2 28 2 43q1 21 24 26q32 3 76 3q58 0 84 -3q25 -4 25 -24v-5q-1 -12 -5 -38v-5q0 -16 19 -16h56q20 0 20 -20v-23q0 -10 -5 -15t-12 -5h-3l-66 2h-3q-15 0 -17 -18q-9 -91 -10 -139q0 -11 3 -14.5t5 -3.5t5.5 2t6.5 11
q39 145 141 145q75 0 116 -70t48 -196q4 -86 5 -188q-1 -34 -1 -70q0 -23 -24 -26q-37 -3 -78 -3t-82 3q-11 2 -18 9t-7 17v3q11 147 11 200q-1 53 -18 85.5t-47 32.5t-47 -32t-17 -80v-6q0 -89 7 -201v-3q0 -21 -24 -25q-28 -4 -78 -4q-35 0 -85 4q-24 3 -24 28
q0 219 12 519v3q0 17 -19 17h-13q-20 0 -20 20z" />
    <glyph glyph-name="Imacron" unicode="&#x12a;" horiz-adv-x="261" 
d="M35 675q1 20 25 25q36 4 71 4q33 0 71 -4q23 -5 24 -25q18 -266 18 -647q0 -24 -27 -28q-44 -4 -86 -4q-43 0 -87 4q-26 4 -26 28q0 395 17 647zM22 819h214q32 0 32 -32v-25q0 -32 -32 -32h-214q-32 0 -32 32v25q0 32 32 32z" />
    <glyph glyph-name="imacron" unicode="&#x12b;" horiz-adv-x="244" 
d="M34 520q2 21 23 24q30 3 66 3t63 -3q22 -3 24 -25q16 -222 16 -492q0 -23 -24 -27q-46 -4 -78 -4t-82 4q-24 4 -24 27q0 269 16 493zM-17 606v25q0 32 32 32h214q32 0 32 -32v-25q0 -32 -32 -32h-214q-32 0 -32 32z" />
    <glyph glyph-name="Iogonek" unicode="&#x12e;" horiz-adv-x="261" 
d="M18 28q0 395 17 647q1 20 25 25q36 4 71 4q33 0 71 -4q23 -5 24 -25q18 -266 18 -647q0 -24 -27 -28l-47 -3q-1 -1 -2.5 -2t-2.5 -2q-47 -39 -47 -87q0 -19 11.5 -29.5t30.5 -10.5q12 0 20 4q7 3 13 3q13 0 19 -14l5 -12q3 -7 3 -13q0 -13 -12 -18q-31 -14 -71 -14
q-48 0 -78.5 24t-30.5 71q0 52 46 101q-5 0 -15.5 0.5t-14.5 1.5q-26 4 -26 28z" />
    <glyph glyph-name="iogonek" unicode="&#x12f;" horiz-adv-x="244" 
d="M34 520q2 21 23 24q30 3 66 3t63 -3q22 -3 24 -25q16 -222 16 -492v-4q7 -6 7 -12q0 -8 -12 -18q-47 -39 -47 -87q0 -19 11.5 -29.5t30.5 -10.5q12 0 20 4q7 3 13 3q13 0 19 -14l5 -12q3 -7 3 -13q0 -13 -12 -18q-31 -14 -71 -14q-48 0 -78.5 24t-30.5 71q0 52 44 99h-4
q-32 0 -82 4q-24 4 -24 27q0 269 16 493zM72 694q20 18 51 18t51 -18.5t20 -49.5t-20 -49q-20 -19 -51 -19t-51 18.5t-20 49.5t20 50z" />
    <glyph glyph-name="Idotaccent" unicode="&#x130;" horiz-adv-x="261" 
d="M18 28q0 395 17 647q1 20 25 25q36 4 71 4q33 0 71 -4q23 -5 24 -25q18 -266 18 -647q0 -24 -27 -28q-44 -4 -86 -4q-43 0 -87 4q-26 4 -26 28zM58 800q0 31 20 49.5t51 18.5t51 -18.5t20 -49.5t-20 -49q-20 -19 -51 -19t-51 18.5t-20 49.5z" />
    <glyph glyph-name="dotlessi" unicode="&#x131;" horiz-adv-x="244" 
d="M18 27q0 269 16 493q2 21 23 24q30 3 66 3t63 -3q22 -3 24 -25q16 -222 16 -492q0 -23 -24 -27q-46 -4 -78 -4t-82 4q-24 4 -24 27z" />
    <glyph glyph-name="uni0136" unicode="&#x136;" horiz-adv-x="608" 
d="M18 28q2 410 21 648q3 19 25 24q27 4 81 4q50 0 77 -4q25 -5 25 -24v-4q-16 -108 -16 -162q0 -17 6.5 -30t16.5 -13q33 0 58 68.5t31 140.5q1 21 25 24q29 4 83 4q40 0 86 -4q26 -3 26 -27v-5q-14 -222 -206 -260q-7 -2 -9 -5.5t-2 -5.5t2 -5.5t10 -5.5
q108 -20 166.5 -102.5t72.5 -251.5v-3q0 -10 -7.5 -18.5t-20.5 -10.5q-29 -4 -88 -4q-55 0 -105 4q-26 3 -26 28v6q0 94 -29 181.5t-68 87.5q-11 0 -17.5 -16.5t-6.5 -42.5q0 -88 19 -215v-4q0 -9 -7 -16t-18 -9q-44 -4 -89 -4q-57 0 -89 4q-11 2 -19 9.5t-8 18.5zM242 -43
q24 22 62 22t61.5 -27t23.5 -72q0 -108 -73 -164q-7 -4 -13 -4q-8 0 -16 9l-18 22q-6 7 -6 14t9 14q16 14 21 28q2 3 2 6q0 2 -1 4.5t-5 2.5h-2h-4q-26 0 -45.5 23t-19.5 60q0 40 24 62z" />
    <glyph glyph-name="uni0137" unicode="&#x137;" horiz-adv-x="564" 
d="M36 690q1 21 25 26q32 3 72 3q61 0 84 -3q12 -2 18.5 -9.5t6.5 -16.5v-3q-21 -201 -21 -276q0 -20 5.5 -36t13.5 -16q25 0 47.5 54t24.5 106q2 20 25 25q22 3 83 3q55 0 77 -3q13 -2 19 -9.5t6 -15.5v-5q-11 -82 -62 -136t-132 -66q-12 -2 -12 -10t12 -10
q100 -12 156 -75.5t68 -190.5v-3q0 -20 -25 -23q-31 -4 -78 -4q-74 0 -101 4q-24 3 -25 24q-2 72 -29 142.5t-54 70.5q-18 0 -18 -44v-13q0 -55 7 -153v-3q0 -9 -6.5 -16t-17.5 -9q-31 -3 -76 -3q-38 0 -86 4q-25 4 -25 28q2 481 18 662zM197 -105q0 40 24 62t62 22
t61.5 -27t23.5 -72q0 -108 -73 -164q-7 -4 -13 -4q-8 0 -16 9l-18 22q-6 7 -6 14t9 14q16 14 21 28q2 3 2 6q0 2 -1 4.5t-5 2.5h-2h-4q-26 0 -45.5 23t-19.5 60z" />
    <glyph glyph-name="Lacute" unicode="&#x139;" horiz-adv-x="549" 
d="M40 677q3 19 26 23q33 4 102 4q26 0 76 -4q12 -2 18.5 -9.5t6.5 -15.5v-4q-17 -98 -24 -140.5t-13.5 -113t-6.5 -133.5q0 -99 100 -99q58 0 92.5 19.5t64.5 69.5q8 14 20 14q3 0 12 -1.5t10 -22.5q10 -107 12 -238v-3q0 -9 -6.5 -15.5t-17.5 -7.5q-54 -4 -251 -4
q-171 0 -217 4q-11 1 -18.5 8.5t-7.5 18.5q4 435 22 650zM119 779l32 84q11 26 40 26h65q22 0 26.5 -8t4.5 -13q0 -9 -10 -20l-63 -88q-14 -21 -41 -21h-28q-19 0 -24.5 8.5t-5.5 15.5t4 16z" />
    <glyph glyph-name="lacute" unicode="&#x13a;" horiz-adv-x="260" 
d="M37 690q1 21 26 26q30 3 71 3q59 0 84 -3q11 -2 17.5 -9.5t6.5 -16.5v-3q-16 -175 -16 -415q0 -115 4 -244v-3q0 -21 -24 -25q-28 -4 -77 -4q-38 0 -86 4q-25 4 -25 28q0 308 19 662zM93 798l32 84q11 26 40 26h65q22 0 26.5 -8t4.5 -13q0 -9 -10 -20l-63 -88
q-14 -21 -41 -21h-28q-19 0 -24.5 8.5t-5.5 15.5t4 16z" />
    <glyph glyph-name="uni013B" unicode="&#x13b;" horiz-adv-x="549" 
d="M18 27q4 435 22 650q3 19 26 23q33 4 102 4q26 0 76 -4q12 -2 18.5 -9.5t6.5 -15.5v-4q-17 -98 -24 -140.5t-13.5 -113t-6.5 -133.5q0 -99 100 -99q58 0 92.5 19.5t64.5 69.5q8 14 20 14q3 0 12 -1.5t10 -22.5q10 -107 12 -238v-3q0 -9 -6.5 -15.5t-17.5 -7.5
q-54 -4 -251 -4q-171 0 -217 4q-11 1 -18.5 8.5t-7.5 18.5zM189 -105q0 40 24 62t62 22t61.5 -27t23.5 -72q0 -108 -73 -164q-7 -4 -13 -4q-8 0 -16 9l-18 22q-6 7 -6 14t9 14q16 14 21 28q2 3 2 6q0 2 -1 4.5t-5 2.5h-2h-4q-26 0 -45.5 23t-19.5 60z" />
    <glyph glyph-name="uni013C" unicode="&#x13c;" horiz-adv-x="260" 
d="M37 690q1 21 26 26q30 3 71 3q59 0 84 -3q11 -2 17.5 -9.5t6.5 -16.5v-3q-16 -175 -16 -415q0 -115 4 -244v-3q0 -21 -24 -25q-28 -4 -77 -4q-38 0 -86 4q-25 4 -25 28q0 308 19 662zM69 -43q24 22 62 22t61.5 -27t23.5 -72q0 -108 -73 -164q-7 -4 -13 -4q-8 0 -16 9
l-18 22q-6 7 -6 14t9 14q16 14 21 28q2 3 2 6q0 2 -1 4.5t-5 2.5h-2h-4q-26 0 -45.5 23t-19.5 60q0 40 24 62z" />
    <glyph glyph-name="Lcaron" unicode="&#x13d;" horiz-adv-x="549" 
d="M40 677q3 19 26 23q33 4 102 4q26 0 76 -4q12 -2 18.5 -9.5t6.5 -15.5v-4q-17 -98 -24 -140.5t-13.5 -113t-6.5 -133.5q0 -99 100 -99q58 0 92.5 19.5t64.5 69.5q8 14 20 14q3 0 12 -1.5t10 -22.5q10 -107 12 -238v-3q0 -9 -6.5 -15.5t-17.5 -7.5q-54 -4 -251 -4
q-171 0 -217 4q-11 1 -18.5 8.5t-7.5 18.5q4 435 22 650zM10 864q5 11 23 11h39q25 0 39 -20l23 -34q11 -14 22 -14t22 14l24 35q15 19 39 19h39q18 0 21 -7.5t3 -11.5q0 -9 -8 -20l-53 -85q-13 -20 -39 -20h-96q-26 0 -39 20l-53 85q-8 11 -8 20q0 4 2 8z" />
    <glyph glyph-name="lcaron" unicode="&#x13e;" horiz-adv-x="411" 
d="M37 690q1 21 26 26q30 3 71 3q59 0 84 -3q11 -2 17.5 -9.5t6.5 -16.5v-3q-16 -175 -16 -415q0 -115 4 -244v-3q0 -21 -24 -25q-28 -4 -77 -4q-38 0 -86 4q-25 4 -25 28q0 308 19 662zM245 766q0 37 22.5 58.5t58.5 21.5q37 0 59.5 -26t22.5 -69q-2 -105 -70 -156
q-6 -4 -12 -4q-8 0 -15 9l-18 21q-5 6 -5 12q0 8 8 15q14 11 21 26q2 3 2 6q0 1 -1.5 3.5t-5.5 2.5h-2h-4q-24 0 -42.5 22t-18.5 58z" />
    <glyph glyph-name="Lslash" unicode="&#x141;" horiz-adv-x="563" 
d="M-20 367q0 16 16 23l29 13q15 6 15 22q6 146 14 252q3 19 26 23q33 4 102 4q26 0 76 -4q12 -2 18.5 -9.5t6.5 -15.5v-4q-3 -21 -11.5 -75.5t-12.5 -83.5v-5q0 -8 4 -11t9 -3q4 0 9 2l74 25q5 3 10 3q3 0 8 -3.5t5 -14.5v-50q0 -16 -16 -22l-105 -39q-15 -6 -16 -22
q-2 -36 -2 -67v-21q0 -99 100 -99q58 0 92.5 19.5t64.5 69.5q8 14 20 14q3 0 12 -1.5t10 -22.5q10 -107 12 -238v-3q0 -9 -6.5 -15.5t-17.5 -7.5q-54 -4 -251 -4q-171 0 -217 4q-11 1 -18.5 8.5t-7.5 18.5q2 180 4 263v3q0 10 -4.5 13t-8.5 3t-10 -3l-10 -4q-5 -2 -9 -2
t-9 3t-5 14v50z" />
    <glyph glyph-name="lslash" unicode="&#x142;" horiz-adv-x="260" 
d="M-30 321q0 15 15 22l24 11q14 6 15 22q5 168 13 314q1 21 26 26q30 3 71 3q59 0 84 -3q11 -2 17.5 -9.5t6.5 -16.5v-3q-9 -106 -12 -223v-3q0 -9 4.5 -12t7.5 -3q5 0 10 3l17 7q5 3 10 3q3 0 8 -3.5t5 -14.5v-46q0 -15 -16 -23l-34 -15q-15 -7 -15 -23q-1 -36 -1 -77
q0 -101 4 -229v-3q0 -21 -24 -25q-28 -4 -77 -4q-38 0 -86 4q-25 4 -25 28q0 70 2 218v3q0 9 -4.5 12t-8.5 4q-4 -1 -9 -3l-5 -2q-5 -3 -10 -3q-3 0 -8 3.5t-5 14.5v46z" />
    <glyph glyph-name="Nacute" unicode="&#x143;" horiz-adv-x="590" 
d="M42 675q1 20 25 25q19 4 55 4q19 0 51 -4q31 -4 51 -37q78 -191 113 -233q15 -17 25 -17q12 0 15.5 22.5t3.5 44.5q0 14 -2 43.5t-7 69.5t-11 73v5q0 9 6.5 17.5t19.5 11.5q38 4 67 4t69 -4q26 -5 27 -25q21 -235 22 -561v-6q0 -115 -78 -115q-38 0 -72 32t-58 78
t-44.5 92t-39.5 78t-35 32q-23 0 -23 -69q0 -26 3 -64.5t8 -81.5t6 -58v-6q0 -21 -27 -26q-32 -4 -86 -4q-47 0 -80 4q-28 5 -28 28q0 374 24 647zM259 779l32 84q11 26 40 26h65q22 0 26.5 -8t4.5 -13q0 -9 -10 -20l-63 -88q-14 -21 -41 -21h-28q-19 0 -24.5 8.5t-5.5 15.5
t4 16z" />
    <glyph glyph-name="nacute" unicode="&#x144;" horiz-adv-x="565" 
d="M17 28q1 319 20 487q2 24 24 29q27 4 75 4q44 0 79 -4q12 -1 18 -9t6 -15q0 -3 -1 -7q-18 -73 -18 -105q0 -10 2.5 -13.5t5.5 -3.5q2 0 5.5 2.5t6.5 11.5q39 145 140 145q75 0 116 -70t49 -196q4 -71 4 -172q0 -41 -1 -86q0 -22 -23 -26q-35 -4 -78 -4q-46 0 -82 4
q-11 2 -18 9t-7 17v3q11 147 11 193q-1 54 -18 89.5t-47 35.5t-47.5 -36t-17.5 -90q0 -91 8 -193v-3q0 -21 -25 -25q-28 -4 -77 -4q-36 0 -86 4q-24 4 -24 28zM246 623l32 84q11 26 40 26h65q22 0 26.5 -8t4.5 -13q0 -9 -10 -20l-63 -88q-14 -21 -41 -21h-28
q-19 0 -24.5 8.5t-5.5 15.5t4 16z" />
    <glyph glyph-name="uni0145" unicode="&#x145;" horiz-adv-x="590" 
d="M18 28q0 374 24 647q1 20 25 25q19 4 55 4q19 0 51 -4q31 -4 51 -37q78 -191 113 -233q15 -17 25 -17q12 0 15.5 22.5t3.5 44.5q0 14 -2 43.5t-7 69.5t-11 73v5q0 9 6.5 17.5t19.5 11.5q38 4 67 4t69 -4q26 -5 27 -25q21 -235 22 -561v-6q0 -115 -78 -115q-38 0 -72 32
t-58 78t-44.5 92t-39.5 78t-35 32q-23 0 -23 -69q0 -26 3 -64.5t8 -81.5t6 -58v-6q0 -21 -27 -26q-32 -4 -86 -4q-47 0 -80 4q-28 5 -28 28zM210 -105q0 40 24 62t62 22t61.5 -27t23.5 -72q0 -108 -73 -164q-7 -4 -13 -4q-8 0 -16 9l-18 22q-6 7 -6 14t9 14q16 14 21 28
q2 3 2 6q0 2 -1 4.5t-5 2.5h-2h-4q-26 0 -45.5 23t-19.5 60z" />
    <glyph glyph-name="uni0146" unicode="&#x146;" horiz-adv-x="565" 
d="M37 515q2 24 24 29q27 4 75 4q44 0 79 -4q12 -1 18 -9t6 -15q0 -3 -1 -7q-18 -73 -18 -105q0 -10 2.5 -13.5t5.5 -3.5q2 0 5.5 2.5t6.5 11.5q39 145 140 145q75 0 116 -70t49 -196q4 -71 4 -172q0 -41 -1 -86q0 -22 -23 -26q-35 -4 -78 -4q-46 0 -82 4q-11 2 -18 9t-7 17
v3q11 147 11 193q-1 54 -18 89.5t-47 35.5t-47.5 -36t-17.5 -90q0 -91 8 -193v-3q0 -21 -25 -25q-28 -4 -77 -4q-36 0 -86 4q-24 4 -24 28q1 319 20 487zM197 -105q0 40 24 62t62 22t61.5 -27t23.5 -72q0 -108 -73 -164q-7 -4 -13 -4q-8 0 -16 9l-18 22q-6 7 -6 14t9 14
q16 14 21 28q2 3 2 6q0 2 -1 4.5t-5 2.5h-2h-4q-26 0 -45.5 23t-19.5 60z" />
    <glyph glyph-name="Ncaron" unicode="&#x147;" horiz-adv-x="590" 
d="M18 28q0 374 24 647q1 20 25 25q19 4 55 4q19 0 51 -4q31 -4 51 -37q78 -191 113 -233q15 -17 25 -17q12 0 15.5 22.5t3.5 44.5q0 14 -2 43.5t-7 69.5t-11 73v5q0 9 6.5 17.5t19.5 11.5q38 4 67 4t69 -4q26 -5 27 -25q21 -235 22 -561v-6q0 -115 -78 -115q-38 0 -72 32
t-58 78t-44.5 92t-39.5 78t-35 32q-23 0 -23 -69q0 -26 3 -64.5t8 -81.5t6 -58v-6q0 -21 -27 -26q-32 -4 -86 -4q-47 0 -80 4q-28 5 -28 28zM149 864q5 11 23 11h39q25 0 39 -20l23 -34q11 -14 22 -14t22 14l24 35q15 19 39 19h39q18 0 21 -7.5t3 -11.5q0 -9 -8 -20l-53 -85
q-13 -20 -39 -20h-96q-26 0 -39 20l-53 85q-8 11 -8 20q0 4 2 8z" />
    <glyph glyph-name="ncaron" unicode="&#x148;" horiz-adv-x="565" 
d="M37 515q2 24 24 29q27 4 75 4q44 0 79 -4q12 -1 18 -9t6 -15q0 -3 -1 -7q-18 -73 -18 -105q0 -10 2.5 -13.5t5.5 -3.5q2 0 5.5 2.5t6.5 11.5q39 145 140 145q75 0 116 -70t49 -196q4 -71 4 -172q0 -41 -1 -86q0 -22 -23 -26q-35 -4 -78 -4q-46 0 -82 4q-11 2 -18 9t-7 17
v3q11 147 11 193q-1 54 -18 89.5t-47 35.5t-47.5 -36t-17.5 -90q0 -91 8 -193v-3q0 -21 -25 -25q-28 -4 -77 -4q-36 0 -86 4q-24 4 -24 28q1 319 20 487zM136 708q5 11 23 11h39q25 0 39 -20l23 -34q11 -14 22 -14t22 14l24 35q15 19 39 19h39q18 0 21 -7.5t3 -11.5
q0 -9 -8 -20l-53 -85q-13 -20 -39 -20h-96q-26 0 -39 20l-53 85q-8 11 -8 20q0 4 2 8z" />
    <glyph glyph-name="Eng" unicode="&#x14a;" horiz-adv-x="590" 
d="M42 675q1 20 25 25q19 4 55 4q19 0 51 -4t53 -36q5 -10 24 -51.5t31 -66.5t29.5 -57.5t31 -48.5t23.5 -16q11 0 14 21t3 40q0 15 -2 43t-7.5 66.5t-11.5 71.5v5q0 9 6.5 17.5t19.5 11.5q38 4 67 4t69 -4q26 -5 27 -25q23 -234 23 -638q-1 -123 -50.5 -198.5t-148.5 -75.5
q-62 0 -128 23q-16 9 -16 27q-1 29 -1 58q0 31 1 62q0 18 7 21.5t11 3.5q8 0 17 -7q19 -13 47 -13q26 0 43 18t17 56v62q0 65 -43.5 148.5t-75.5 83.5q-31 0 -31 -70q0 -26 3 -64.5t8 -81.5t6 -58v-6q0 -21 -27 -26q-32 -4 -86 -4q-47 0 -80 4q-28 5 -28 28q0 374 24 647z
" />
    <glyph glyph-name="eng" unicode="&#x14b;" horiz-adv-x="565" 
d="M37 515q2 24 24 29q27 4 75 4q44 0 79 -4q12 -1 18 -9t6 -15q0 -3 -1 -7q-18 -73 -18 -105q0 -10 2.5 -13.5t5.5 -3.5q2 0 5.5 2.5t6.5 11.5q39 145 140 145q75 0 116 -70t49 -196q2 -40 2 -141q0 -67 -1 -162q-2 -118 -53.5 -167.5t-141.5 -49.5q-67 0 -127 23
q-15 7 -17 26q0 80 1 120q0 18 7 21.5t11 3.5q8 0 17 -7q19 -12 46 -12q23 0 40 16.5t18 43.5q4 196 4 223q-1 54 -18 89.5t-47 35.5t-47.5 -36t-17.5 -90q0 -91 8 -193v-3q0 -21 -25 -25q-28 -4 -77 -4q-36 0 -86 4q-24 4 -24 28q1 319 20 487z" />
    <glyph glyph-name="Omacron" unicode="&#x14c;" horiz-adv-x="604" 
d="M12 318q0 184 78 286t212 103q134 0 212.5 -102.5t78.5 -286.5q0 -176 -75 -250.5t-216 -74.5q-140 0 -215 74.5t-75 250.5zM302 188q82 0 82 137q0 81 -22.5 134t-59.5 53t-59 -52.5t-22 -134.5q0 -137 81 -137zM163 762v25q0 32 32 32h214q32 0 32 -32v-25
q0 -32 -32 -32h-214q-32 0 -32 32z" />
    <glyph glyph-name="omacron" unicode="&#x14d;" horiz-adv-x="514" 
d="M11 257q0 135 68.5 214.5t177.5 79.5q110 0 178 -79.5t68 -214.5q0 -137 -65.5 -200.5t-180.5 -63.5q-114 0 -180 63.5t-66 200.5zM209 191q18 -30 48 -30t48 29.5t18 79.5q0 51 -18 83t-48 32t-48 -32t-18 -83q0 -50 18 -79zM118 606v25q0 32 32 32h214q32 0 32 -32v-25
q0 -32 -32 -32h-214q-32 0 -32 32z" />
    <glyph glyph-name="Ohungarumlaut" unicode="&#x150;" horiz-adv-x="604" 
d="M90 604q78 102 212 103q134 0 212.5 -102.5t78.5 -286.5q0 -176 -75 -250.5t-216 -74.5q-140 0 -215 74.5t-75 250.5q0 184 78 286zM302 188q82 0 82 137q0 81 -22.5 134t-59.5 53t-59 -52.5t-22 -134.5q0 -137 81 -137zM333 776l39 84q12 23 38 23h54q19 0 23 -8t4 -13
q0 -8 -6 -18l-50 -84q-14 -21 -39 -21h-40q-19 0 -23.5 7.5t-4.5 13.5q0 7 5 16zM174 776l38 84q12 23 38 23h54q19 0 23.5 -8t4.5 -13q0 -8 -7 -18l-50 -84q-13 -21 -38 -21h-41q-19 0 -23 7.5t-4 12.5q0 7 5 17z" />
    <glyph glyph-name="ohungarumlaut" unicode="&#x151;" horiz-adv-x="514" 
d="M80 472q68 79 177 79q110 0 178 -79.5t68 -214.5q0 -137 -65.5 -200.5t-180.5 -63.5q-114 0 -180 63.5t-66 200.5q0 135 69 215zM191 270q0 -50 18 -79q18 -30 48 -30t48 29.5t18 79.5q0 51 -18 83t-48 32t-48 -32t-18 -83zM288 620l39 84q11 23 38 23h54q19 0 23 -8
t4 -13q0 -8 -6 -18l-50 -84q-14 -21 -39 -21h-40q-19 0 -23.5 7.5t-4.5 13.5q0 7 5 16zM129 620l38 84q11 23 38 23h54q19 0 23.5 -8t4.5 -13q0 -8 -7 -18l-50 -84q-13 -21 -38 -21h-41q-19 0 -23 7.5t-4 12.5q0 7 5 17z" />
    <glyph glyph-name="OE" unicode="&#x152;" horiz-adv-x="957" 
d="M81 604q68 102 184 103q63 0 114.5 -33t82.5 -94q10 -25 17 -25t8 26q4 66 6 96q2 21 26 23q53 4 151 4q138 0 199 -4q23 -2 25 -25q4 -41 7 -186v-2q0 -16 -8 -19t-11 -3q-10 0 -20 10q-64 57 -156 57q-38 0 -58.5 -15.5t-20.5 -40.5v-6q0 -48 79 -48q20 0 109 7h3
q9 0 16.5 -7t7.5 -18v-81q0 -15 -7 -18.5t-10 -3.5q-7 0 -14 7q-49 31 -101 31h-3q-80 -2 -80 -67v-20q0 -41 27 -62.5t75 -21.5q57 0 92 19.5t65 69.5q5 10 11.5 11.5t9.5 1.5q6 0 13.5 -5t8.5 -18q7 -73 12 -221q0 -24 -24 -26q-54 -4 -252 -4q-118 0 -164 4q-25 2 -27 27
l-1 55q0 28 -4 29t-5 1q-8 0 -18 -23q-65 -96 -181 -96q-122 0 -187.5 75t-65.5 250q0 184 69 286zM298 186q81 0 81 139q0 82 -22 135.5t-59 53.5t-59.5 -53.5t-22.5 -135.5q0 -139 82 -139z" />
    <glyph glyph-name="oe" unicode="&#x153;" horiz-adv-x="818" 
d="M72 472q60 79 156 79q113 0 173 -107q7 -14 13 -14q7 0 13 14q56 107 177 107q89 0 138.5 -48t49.5 -142q0 -65 -44.5 -109t-103.5 -44q-57 0 -98 37q-6 7 -11 7q-2 0 -5 -2.5t-3 -6.5q0 -5 3 -11q10 -37 43.5 -59.5t71.5 -22.5q70 0 117 51q6 12 15 12q2 0 9.5 -3
t9.5 -24q3 -37 8 -119v-3q0 -19 -12 -31q-55 -40 -166 -40q-136 0 -192 103q-4 9 -7.5 11t-5.5 3q-2 -1 -5.5 -3t-6.5 -11q-51 -103 -181 -103q-101 0 -159 63.5t-58 200.5q0 135 61 215zM191 270q0 -50 18 -79q18 -30 48 -30t48 29.5t18 79.5q0 51 -18 83t-48 32t-48 -32
t-18 -83zM523 329q0 -22 19.5 -35t41.5 -13q20 0 32 15t12 41q0 61 -48 61q-23 0 -40 -19.5t-17 -49.5z" />
    <glyph glyph-name="Racute" unicode="&#x154;" horiz-adv-x="579" 
d="M40 676q1 10 8 17t17 8q56 3 237 3q115 0 176.5 -38.5t61.5 -115.5q0 -69 -46.5 -121.5t-125.5 -74.5q-8 -2 -10 -5.5t-2 -5.5t2.5 -5.5t10.5 -5.5q185 -39 197 -303v-2q0 -11 -8 -18t-20 -9q-32 -4 -89 -4q-46 0 -92 4q-27 4 -27 27v8q0 88 -21.5 162t-58.5 93
q-4 2 -7 2q-5 0 -11 -7.5t-7 -26.5v-13q0 -74 19 -216v-4q0 -9 -6.5 -16t-18.5 -9q-37 -4 -95 -4q-52 0 -80 4q-26 4 -26 26q0 351 22 650zM251 779l32 84q11 26 40 26h65q22 0 26.5 -8t4.5 -13q0 -9 -10 -20l-63 -88q-14 -21 -41 -21h-28q-19 0 -24.5 8.5t-5.5 15.5t4 16z
M228 396q1 -17 13 -17q5 0 13 3q42 13 64 35t22 49q0 54 -71 54h-19q-20 0 -22 -25q-1 -32 -1 -57t1 -42z" />
    <glyph glyph-name="racute" unicode="&#x155;" horiz-adv-x="458" 
d="M33 519q3 22 25 25q28 4 71 4t77 -4q13 -1 19 -8.5t6 -15.5q0 -3 -1 -7q-10 -56 -10 -121q0 -10 2.5 -13t4.5 -3t5 2.5t5 11.5q32 161 123 161q47 0 74 -29q13 -12 13 -31l-9 -180q-2 -17 -10 -20t-10 -3q-9 0 -17 11q-36 39 -84 39q-39 0 -67 -32.5t-28 -87.5
q0 -77 15 -188v-3q0 -10 -7 -18t-18 -10q-33 -3 -85 -3q-38 0 -86 4q-24 4 -24 27q0 287 16 492zM130 623l32 84q11 26 40 26h65q22 0 26.5 -8t4.5 -13q0 -9 -10 -20l-63 -88q-14 -21 -41 -21h-28q-19 0 -24.5 8.5t-5.5 15.5t4 16z" />
    <glyph glyph-name="uni0156" unicode="&#x156;" horiz-adv-x="579" 
d="M40 676q1 10 8 17t17 8q56 3 237 3q115 0 176.5 -38.5t61.5 -115.5q0 -69 -46.5 -121.5t-125.5 -74.5q-8 -2 -10 -5.5t-2 -5.5t2.5 -5.5t10.5 -5.5q185 -39 197 -303v-2q0 -11 -8 -18t-20 -9q-32 -4 -89 -4q-46 0 -92 4q-27 4 -27 27v8q0 88 -21.5 162t-58.5 93
q-4 2 -7 2q-5 0 -11 -7.5t-7 -26.5v-13q0 -74 19 -216v-4q0 -9 -6.5 -16t-18.5 -9q-37 -4 -95 -4q-52 0 -80 4q-26 4 -26 26q0 351 22 650zM202 -105q0 40 24 62t62 22t61.5 -27t23.5 -72q0 -108 -73 -164q-7 -4 -13 -4q-8 0 -16 9l-18 22q-6 7 -6 14t9 14q16 14 21 28
q2 3 2 6q0 2 -1 4.5t-5 2.5h-2h-4q-26 0 -45.5 23t-19.5 60zM228 396q1 -17 13 -17q5 0 13 3q42 13 64 35t22 49q0 54 -71 54h-19q-20 0 -22 -25q-1 -32 -1 -57t1 -42z" />
    <glyph glyph-name="uni0157" unicode="&#x157;" horiz-adv-x="458" 
d="M33 519q3 22 25 25q28 4 71 4t77 -4q13 -1 19 -8.5t6 -15.5q0 -3 -1 -7q-10 -56 -10 -121q0 -10 2.5 -13t4.5 -3t5 2.5t5 11.5q32 161 123 161q47 0 74 -29q13 -12 13 -31l-9 -180q-2 -17 -10 -20t-10 -3q-9 0 -17 11q-36 39 -84 39q-39 0 -67 -32.5t-28 -87.5
q0 -77 15 -188v-3q0 -10 -7 -18t-18 -10q-33 -3 -85 -3q-38 0 -86 4q-24 4 -24 27q0 287 16 492zM78 -43q24 22 62 22t61.5 -27t23.5 -72q0 -108 -73 -164q-7 -4 -13 -4q-8 0 -16 9l-18 22q-6 7 -6 14t9 14q16 14 21 28q2 3 2 6q0 2 -1 4.5t-5 2.5h-2h-4q-26 0 -45.5 23
t-19.5 60q0 40 24 62z" />
    <glyph glyph-name="Rcaron" unicode="&#x158;" horiz-adv-x="579" 
d="M40 676q1 10 8 17t17 8q56 3 237 3q115 0 176.5 -38.5t61.5 -115.5q0 -69 -46.5 -121.5t-125.5 -74.5q-8 -2 -10 -5.5t-2 -5.5t2.5 -5.5t10.5 -5.5q185 -39 197 -303v-2q0 -11 -8 -18t-20 -9q-32 -4 -89 -4q-46 0 -92 4q-27 4 -27 27v8q0 88 -21.5 162t-58.5 93
q-4 2 -7 2q-5 0 -11 -7.5t-7 -26.5v-13q0 -74 19 -216v-4q0 -9 -6.5 -16t-18.5 -9q-37 -4 -95 -4q-52 0 -80 4q-26 4 -26 26q0 351 22 650zM141 864q5 11 23 11h39q25 0 39 -20l23 -34q11 -14 22 -14t22 14l24 35q15 19 39 19h39q18 0 21 -7.5t3 -11.5q0 -9 -8 -20l-53 -85
q-13 -20 -39 -20h-96q-26 0 -39 20l-53 85q-8 11 -8 20q0 4 2 8zM228 396q1 -17 13 -17q5 0 13 3q42 13 64 35t22 49q0 54 -71 54h-19q-20 0 -22 -25q-1 -32 -1 -57t1 -42z" />
    <glyph glyph-name="rcaron" unicode="&#x159;" horiz-adv-x="458" 
d="M33 519q3 22 25 25q28 4 71 4t77 -4q13 -1 19 -8.5t6 -15.5q0 -3 -1 -7q-10 -56 -10 -121q0 -10 2.5 -13t4.5 -3t5 2.5t5 11.5q32 161 123 161q47 0 74 -29q13 -12 13 -31l-9 -180q-2 -17 -10 -20t-10 -3q-9 0 -17 11q-36 39 -84 39q-39 0 -67 -32.5t-28 -87.5
q0 -77 15 -188v-3q0 -10 -7 -18t-18 -10q-33 -3 -85 -3q-38 0 -86 4q-24 4 -24 27q0 287 16 492zM21 708q5 11 23 11h39q25 0 39 -20l23 -34q11 -14 22 -14t22 14l24 35q15 19 39 19h39q18 0 21 -7.5t3 -11.5q0 -9 -8 -20l-53 -85q-13 -20 -39 -20h-96q-26 0 -39 20l-53 85
q-8 11 -8 20q0 4 2 8z" />
    <glyph glyph-name="Sacute" unicode="&#x15a;" horiz-adv-x="550" 
d="M16 235q0 22 9.5 24.5t12.5 2.5q11 0 20 -12q69 -70 174 -70q80 0 82 60q0 26 -28.5 47.5t-70 39.5t-82.5 40.5t-70 61.5t-29 92q0 92 65.5 139t184.5 47q108 0 194 -28q17 -8 19 -26q1 -14 3.5 -70.5t3.5 -84.5v-3q0 -19 -8.5 -22.5t-11.5 -3.5q-10 0 -18 11
q-58 47 -135 49h-5q-38 0 -64 -13.5t-26 -37.5q0 -25 31 -45.5t75.5 -38.5t88.5 -40.5t75 -64t31 -97.5q-1 -95 -71.5 -147t-195.5 -52q-52 0 -119.5 10.5t-114.5 27.5q-17 9 -17 29zM239 779l32 84q11 26 40 26h65q22 0 26.5 -8t4.5 -13q0 -9 -10 -20l-63 -88
q-14 -21 -41 -21h-28q-19 0 -24.5 8.5t-5.5 15.5t4 16z" />
    <glyph glyph-name="sacute" unicode="&#x15b;" horiz-adv-x="467" 
d="M14 191q1 17 9 19t11 2q9 0 17 -9q59 -49 135 -49q67 0 67 41q0 18 -23 30t-56 23t-66 26.5t-56 48.5t-23 80q0 73 54.5 110.5t155.5 37.5q86 0 160 -18q18 -8 20 -26q4 -68 5 -122v-3q0 -15 -7 -18t-10 -3q-8 0 -16 9q-48 31 -103 31h-6q-31 0 -49 -10t-18 -28
q0 -17 24.5 -29.5t60 -23.5t71 -27t60 -49t24.5 -81q0 -75 -59.5 -117.5t-165.5 -42.5q-104 0 -199 31q-18 8 -18 26q0 93 1 141zM199 623l32 84q11 26 40 26h65q22 0 26.5 -8t4.5 -13q0 -9 -10 -20l-63 -88q-14 -21 -41 -21h-28q-19 0 -24.5 8.5t-5.5 15.5t4 16z" />
    <glyph glyph-name="Scedilla" unicode="&#x15e;" horiz-adv-x="550" 
d="M16 235q0 22 9.5 24.5t12.5 2.5q11 0 20 -12q69 -70 174 -70q80 0 82 60q0 26 -28.5 47.5t-70 39.5t-82.5 40.5t-70 61.5t-29 92q0 92 65.5 139t184.5 47q108 0 194 -28q17 -8 19 -26q1 -14 3.5 -70.5t3.5 -84.5v-3q0 -19 -8.5 -22.5t-11.5 -3.5q-10 0 -18 11
q-58 47 -135 49h-5q-38 0 -64 -13.5t-26 -37.5q0 -25 31 -45.5t75.5 -38.5t88.5 -40.5t75 -64t31 -97.5q-1 -83 -54 -133t-149 -62q37 -45 37 -91q0 -47 -30.5 -71t-78.5 -24q-40 0 -71 14q-12 5 -12 18q0 6 3 13l5 12q6 14 19 14q6 0 13 -3q8 -4 20 -4q19 0 30.5 10.5
t11.5 29.5q0 43 -38 79q-120 6 -207 37q-17 9 -17 29z" />
    <glyph glyph-name="scedilla" unicode="&#x15f;" horiz-adv-x="467" 
d="M14 191q1 17 9 19t11 2q9 0 17 -9q59 -49 135 -49q67 0 67 41q0 18 -23 30t-56 23t-66 26.5t-56 48.5t-23 80q0 73 54.5 110.5t155.5 37.5q86 0 160 -18q18 -8 20 -26q4 -68 5 -122v-3q0 -15 -7 -18t-10 -3q-8 0 -16 9q-48 31 -103 31h-6q-31 0 -49 -10t-18 -28
q0 -17 24.5 -29.5t60 -23.5t71 -27t60 -49t24.5 -81q0 -64 -45 -105t-126 -52q37 -43 37 -90t-30.5 -71t-78.5 -24q-40 0 -71 14q-12 5 -12 18q0 6 3 13l5 12q6 14 19 14q6 0 13 -3q8 -4 20 -4q19 0 30.5 10.5t11.5 29.5q0 43 -38 79q-92 7 -162 30q-18 8 -18 26q0 93 1 141
z" />
    <glyph glyph-name="Scaron" unicode="&#x160;" horiz-adv-x="550" 
d="M32 262q3 1 6 1q11 0 20 -13q69 -70 174 -70q80 0 82 60q0 26 -28.5 47.5t-70 39.5t-82.5 40.5t-70 61.5t-29 92q0 92 65.5 139t184.5 47q108 0 194 -28q17 -8 19 -26q1 -14 3.5 -70.5t3.5 -84.5v-3q0 -19 -8.5 -22.5t-11.5 -3.5q-10 0 -18 11q-58 47 -135 49h-5
q-38 0 -64 -13.5t-26 -37.5q0 -25 31 -45.5t75.5 -38.5t88.5 -40.5t75 -64t31 -97.5q-1 -95 -71.5 -147t-195.5 -52q-52 0 -119.5 10.5t-114.5 27.5q-17 9 -17 29l-3 175q0 22 16 27zM129 864q5 11 23 11h39q25 0 39 -20l23 -34q11 -14 22 -14t22 14l24 35q15 19 39 19h39
q18 0 21 -7.5t3 -11.5q0 -9 -8 -20l-53 -85q-13 -20 -39 -20h-96q-26 0 -39 20l-53 85q-8 11 -8 20q0 4 2 8z" />
    <glyph glyph-name="scaron" unicode="&#x161;" horiz-adv-x="467" 
d="M14 191q1 17 9 19t11 2q9 0 17 -9q59 -49 135 -49q67 0 67 41q0 18 -23 30t-56 23t-66 26.5t-56 48.5t-23 80q0 73 54.5 110.5t155.5 37.5q86 0 160 -18q18 -8 20 -26q4 -68 5 -122v-3q0 -15 -7 -18t-10 -3q-8 0 -16 9q-48 31 -103 31h-6q-31 0 -49 -10t-18 -28
q0 -17 24.5 -29.5t60 -23.5t71 -27t60 -49t24.5 -81q0 -75 -59.5 -117.5t-165.5 -42.5q-104 0 -199 31q-18 8 -18 26q0 93 1 141zM90 708q5 11 23 11h39q25 0 39 -20l23 -34q11 -14 22 -14t22 14l24 35q15 19 39 19h39q18 0 21 -7.5t3 -11.5q0 -9 -8 -20l-53 -85
q-13 -20 -39 -20h-96q-26 0 -39 20l-53 85q-8 11 -8 20q0 4 2 8z" />
    <glyph glyph-name="uni0162" unicode="&#x162;" horiz-adv-x="555" 
d="M10 474q0 93 8 202q3 22 26 24q61 4 234 4q172 0 232 -4q24 -1 27 -24q8 -82 8 -203q0 -21 -8.5 -24t-12.5 -3q-9 0 -16 11q-24 26 -55.5 46t-56.5 20q-32 0 -32 -38q0 -7 1 -15q16 -252 35 -439v-3q0 -9 -7 -17t-19 -10q-20 -2 -40 -2q39 -45 39 -93q0 -47 -30.5 -71
t-78.5 -24q-40 0 -71 14q-12 5 -12 18q0 6 3 13l5 12q6 14 19 14q6 0 13 -3q8 -4 20 -4q19 0 30.5 10.5t11.5 29.5q0 46 -43 84q-29 0 -57 2q-12 2 -19 10t-7 17v3q17 166 34 439q1 8 1 15q0 39 -32 39q-48 0 -113 -67q-7 -11 -16 -11q-4 0 -12.5 3t-8.5 25z" />
    <glyph glyph-name="uni0163" unicode="&#x163;" horiz-adv-x="420" 
d="M6 410v109q1 11 8 18t17 7h36q12 0 12 12q2 51 5 92q3 23 25 26q29 3 66 3q50 0 83 -3q11 -1 18 -9.5t7 -17.5v-4q-10 -50 -10 -80q0 -20 12 -20q15 0 47 1t47 1q11 0 18.5 -8t7.5 -19v-108q0 -11 -7.5 -19t-16.5 -8h-2q-36 3 -82 3q-26 0 -29 -25q-3 -28 -3 -63
q0 -28 2 -60q1 -28 17.5 -44.5t41.5 -16.5q32 0 55 18q7 7 14 7q3 0 10.5 -3.5t7.5 -20.5v-125q0 -27 -21 -38q-35 -12 -74 -18q37 -45 37 -91q0 -47 -30.5 -71t-78.5 -24q-40 0 -71 14q-12 5 -12 18q0 6 3 13l5 12q6 14 19 14q6 0 13 -3q8 -4 20 -4q19 0 30.5 10.5
t11.5 29.5q0 44 -39 80q-73 9 -116 56.5t-43 133.5q0 132 7 189v2q0 4 -3.5 7t-8.5 3l-31 -1q-10 0 -17 7t-8 18z" />
    <glyph glyph-name="Tcaron" unicode="&#x164;" horiz-adv-x="555" 
d="M18 676q3 22 26 24q61 4 234 4q172 0 232 -4q24 -1 27 -24q8 -82 8 -203q0 -21 -8.5 -24t-12.5 -3q-9 0 -16 11q-24 26 -55.5 46t-56.5 20q-32 0 -32 -38q0 -7 1 -15q16 -252 35 -439v-3q0 -9 -7 -17t-19 -10q-24 -3 -94 -3q-61 0 -97 3q-12 2 -19 10t-7 17v3
q17 166 34 439q1 8 1 15q0 39 -32 39q-48 0 -113 -67q-7 -11 -16 -11q-4 0 -12.5 3t-8.5 25q0 93 8 202zM131 864q5 11 23 11h39q25 0 39 -20l23 -34q11 -14 22 -14t22 14l24 35q15 19 39 19h39q18 0 21 -7.5t3 -11.5q0 -9 -8 -20l-53 -85q-13 -20 -39 -20h-96q-26 0 -39 20
l-53 85q-8 11 -8 20q0 4 2 8z" />
    <glyph glyph-name="tcaron" unicode="&#x165;" horiz-adv-x="434" 
d="M6 410v109q1 11 8 18t17 7h36q12 0 12 12q2 51 5 92q3 23 25 26q29 3 66 3q50 0 83 -3q11 -1 18 -9.5t7 -17.5v-4q-10 -50 -10 -80q0 -20 12 -20q15 0 47 1t47 1q11 0 18.5 -8t7.5 -19v-108q0 -11 -7.5 -19t-16.5 -8h-2q-36 3 -82 3q-26 0 -29 -25q-3 -28 -3 -63
q0 -28 2 -60q1 -28 17.5 -44.5t41.5 -16.5q32 0 55 18q7 7 14 7q3 0 10.5 -3.5t7.5 -20.5v-125q0 -27 -21 -38q-64 -22 -132 -22q-88 0 -140.5 48t-52.5 144q0 132 7 189v2q0 4 -3.5 7t-8.5 3l-31 -1q-10 0 -17 7t-8 18zM277 766q0 37 22.5 58.5t58.5 21.5t58.5 -26
t22.5 -69q0 -50 -19 -91.5t-50 -64.5q-6 -4 -12 -4q-8 0 -16 9l-17 21q-5 6 -5 12q0 8 8 15q15 11 20 26q2 3 2 6q0 2 -1 4t-5 2h-2h-4q-24 0 -42.5 22t-18.5 58z" />
    <glyph glyph-name="Tbar" unicode="&#x166;" horiz-adv-x="555" 
d="M10 474q0 93 8 202q3 22 26 24q61 4 234 4q172 0 232 -4q24 -1 27 -24q8 -82 8 -203q0 -21 -8.5 -24t-12.5 -3q-9 0 -16 11q-24 26 -55.5 46t-56.5 20q-32 0 -32 -38q0 -7 1 -15l3 -82q4 -22 31 -22h84q30 0 30 -29v-66q0 -29 -30 -29h-68q-28 0 -28 -21v-4
q6 -96 13 -186v-3q0 -9 -7 -17t-19 -10q-24 -3 -94 -3q-61 0 -97 3q-12 2 -19 10t-7 17v3q7 89 13 185v6q0 9 -6 14.5t-22 5.5h-70q-29 0 -29 29v66q0 29 29 29h85q29 0 31 22l3 82q1 8 1 15q0 39 -32 39q-48 0 -113 -67q-7 -11 -16 -11q-4 0 -12.5 3t-8.5 25z" />
    <glyph glyph-name="tbar" unicode="&#x167;" horiz-adv-x="420" 
d="M13 542q7 7 18 7h36q12 0 12 12q2 41 5 87q3 23 25 26q29 3 66 3q50 0 83 -3q11 -1 18 -9.5t7 -17.5v-4q-10 -50 -10 -80q0 -15 12 -15q15 0 47 1t47 1q11 0 18.5 -8t7.5 -19v-99q0 -14 -7.5 -22.5t-16.5 -8.5h-2q-48 4 -82 4q-26 0 -29 -25q-1 -11 -1 -28t16 -17h97
q17 0 17 -16v-34q0 -17 -17 -17h-95q-15 0 -15 -13v-3q1 -32 17.5 -56t38.5 -24q32 0 55 18q6 7 13 7q4 0 11.5 -4.5t7.5 -23.5v-108q0 -27 -21 -38q-64 -22 -132 -22q-87 0 -141 45.5t-54 133.5q0 16 2 72q0 16 -15 16h-26q-16 0 -16 17v34q0 16 16 16h30q13 0 15 16l3 40
v2q0 5 -3 8t-7 3h-2q-5 0 -15.5 -0.5t-15.5 -0.5q-10 0 -17.5 8.5t-7.5 20.5v100q0 10 7 18z" />
    <glyph glyph-name="Umacron" unicode="&#x16a;" horiz-adv-x="584" 
d="M41 676q3 21 25 24q29 4 78 4q39 0 83 -4q11 -2 17.5 -9t6.5 -16v-4q-27 -178 -27 -356q2 -120 68 -120t68 120q0 164 -27 356v4q0 9 6.5 16t17.5 9q44 4 84 4q33 0 77 -4q22 -3 24 -24q26 -220 26 -400q0 -147 -70 -215t-206 -68q-137 0 -206.5 68t-69.5 215
q0 173 25 400zM153 762v25q0 32 32 32h214q32 0 32 -32v-25q0 -32 -32 -32h-214q-32 0 -32 32z" />
    <glyph glyph-name="umacron" unicode="&#x16b;" horiz-adv-x="550" 
d="M17 239q2 149 19 279q5 23 24 26q28 4 74 4q51 0 80 -4q12 -2 18 -8.5t6 -15.5v-5q-20 -138 -20 -203q0 -53 14.5 -88t42.5 -35q26 0 40.5 37t14.5 91q0 91 -10 199v4q0 19 24 24q28 4 79 4q40 0 71 -4q22 -3 24 -27q14 -218 14 -433v-54q0 -25 -23 -30q-20 -3 -77 -3
q-46 0 -83 3q-11 2 -17.5 8.5t-6.5 15.5v4q11 59 11 104q0 10 -3 13.5t-6 3.5q-2 0 -5.5 -2.5t-5.5 -11.5q-37 -142 -137 -142q-160 0 -162 246zM136 606v25q0 32 32 32h214q32 0 32 -32v-25q0 -32 -32 -32h-214q-32 0 -32 32z" />
    <glyph glyph-name="Uring" unicode="&#x16e;" horiz-adv-x="584" 
d="M41 676q3 21 25 24q29 4 78 4q39 0 83 -4q11 -2 17.5 -9t6.5 -16v-4q-27 -178 -27 -356q2 -120 68 -120t68 120q0 164 -27 356v4q0 9 6.5 16t17.5 9q44 4 84 4q33 0 77 -4q22 -3 24 -24q26 -220 26 -400q0 -147 -70 -215t-206 -68q-137 0 -206.5 68t-69.5 215
q0 173 25 400zM190 827q0 46 28.5 73t73.5 27t73 -27t28 -73q0 -47 -28 -74t-73 -27t-73.5 27t-28.5 74zM258 827q0 -20 10 -32q9 -12 24 -12t24.5 12t9.5 32t-9.5 31.5t-24.5 11.5t-24.5 -11.5t-9.5 -31.5z" />
    <glyph glyph-name="uring" unicode="&#x16f;" horiz-adv-x="550" 
d="M17 239q2 149 19 279q5 23 24 26q28 4 74 4q51 0 80 -4q12 -2 18 -8.5t6 -15.5v-5q-20 -138 -20 -203q0 -53 14.5 -88t42.5 -35q26 0 40.5 37t14.5 91q0 91 -10 199v4q0 19 24 24q28 4 79 4q40 0 71 -4q22 -3 24 -27q14 -218 14 -433v-54q0 -25 -23 -30q-20 -3 -77 -3
q-46 0 -83 3q-11 2 -17.5 8.5t-6.5 15.5v4q11 59 11 104q0 10 -3 13.5t-6 3.5q-2 0 -5.5 -2.5t-5.5 -11.5q-37 -142 -137 -142q-160 0 -162 246zM173 671q0 46 28.5 73t73.5 27t73 -27t28 -73q0 -47 -28 -74t-73 -27t-73.5 27t-28.5 74zM241 671q0 -20 10 -32q9 -12 24 -12
t24.5 12t9.5 32t-9.5 31.5t-24.5 11.5t-24.5 -11.5t-9.5 -31.5z" />
    <glyph glyph-name="Uhungarumlaut" unicode="&#x170;" horiz-adv-x="584" 
d="M41 676q3 21 25 24q29 4 78 4q39 0 83 -4q11 -2 17.5 -9t6.5 -16v-4q-27 -178 -27 -356q2 -120 68 -120t68 120q0 164 -27 356v4q0 9 6.5 16t17.5 9q44 4 84 4q33 0 77 -4q22 -3 24 -24q26 -220 26 -400q0 -147 -70 -215t-206 -68q-137 0 -206.5 68t-69.5 215
q0 173 25 400zM323 776l39 84q12 23 38 23h54q19 0 23 -8t4 -13q0 -8 -6 -18l-50 -84q-14 -21 -39 -21h-40q-19 0 -23.5 7.5t-4.5 13.5q0 7 5 16zM164 776l38 84q12 23 38 23h54q19 0 23.5 -8t4.5 -13q0 -8 -7 -18l-50 -84q-13 -21 -38 -21h-41q-19 0 -23 7.5t-4 12.5
q0 7 5 17z" />
    <glyph glyph-name="uhungarumlaut" unicode="&#x171;" horiz-adv-x="550" 
d="M17 239q2 149 19 279q5 23 24 26q28 4 74 4q51 0 80 -4q12 -2 18 -8.5t6 -15.5v-5q-20 -138 -20 -203q0 -53 14.5 -88t42.5 -35q26 0 40.5 37t14.5 91q0 91 -10 199v4q0 19 24 24q28 4 79 4q40 0 71 -4q22 -3 24 -27q14 -218 14 -433v-54q0 -25 -23 -30q-20 -3 -77 -3
q-46 0 -83 3q-11 2 -17.5 8.5t-6.5 15.5v4q11 59 11 104q0 10 -3 13.5t-6 3.5q-2 0 -5.5 -2.5t-5.5 -11.5q-37 -142 -137 -142q-160 0 -162 246zM306 620l39 84q11 23 38 23h54q19 0 23 -8t4 -13q0 -8 -6 -18l-50 -84q-14 -21 -39 -21h-40q-19 0 -23.5 7.5t-4.5 13.5
q0 7 5 16zM147 620l38 84q11 23 38 23h54q19 0 23.5 -8t4.5 -13q0 -8 -7 -18l-50 -84q-13 -21 -38 -21h-41q-19 0 -23 7.5t-4 12.5q0 7 5 17z" />
    <glyph glyph-name="Uogonek" unicode="&#x172;" horiz-adv-x="584" 
d="M41 676q3 21 25 24q29 4 78 4q39 0 83 -4q11 -2 17.5 -9t6.5 -16v-4q-27 -178 -27 -356q2 -120 68 -120t68 120q0 164 -27 356v4q0 9 6.5 16t17.5 9q44 4 84 4q33 0 77 -4q22 -3 24 -24q26 -220 26 -400q0 -138 -61.5 -206t-181.5 -76l-1 -1q-47 -39 -47 -87
q0 -19 11.5 -29.5t30.5 -10.5q12 0 20 4q7 3 13 3q13 0 19 -14l5 -12q3 -7 3 -13q0 -13 -12 -18q-31 -14 -71 -14q-48 0 -78.5 24t-30.5 71q0 52 45 100q-216 26 -216 279q0 173 25 400z" />
    <glyph glyph-name="uogonek" unicode="&#x173;" horiz-adv-x="550" 
d="M17 239q2 149 19 279q5 23 24 26q28 4 74 4q51 0 80 -4q12 -2 18 -8.5t6 -15.5v-5q-20 -138 -20 -203q0 -53 14.5 -88t42.5 -35q26 0 40.5 37t14.5 91q0 91 -10 199v4q0 19 24 24q28 4 79 4q40 0 71 -4q22 -3 24 -27q14 -218 14 -433v-54q0 -25 -23 -30q-3 0 -5 -1
q-1 -1 -2.5 -2t-2.5 -2q-47 -39 -47 -87q0 -19 11.5 -29.5t30.5 -10.5q12 0 20 4q7 3 13 3q13 0 19 -14l5 -12q3 -7 3 -13q0 -13 -12 -18q-31 -14 -71 -14q-48 0 -78.5 24t-30.5 71q0 51 44 98l-57 3q-11 2 -17.5 8.5t-6.5 15.5v4q11 59 11 104q0 10 -3 13.5t-6 3.5
q-2 0 -5.5 -2.5t-5.5 -11.5q-37 -142 -137 -142q-160 0 -162 246z" />
    <glyph glyph-name="Wcircumflex" unicode="&#x174;" horiz-adv-x="753" 
d="M34 700q29 4 86 4q52 0 84 -4q23 -2 23 -28v-2q-1 -57 -1 -102q0 -67 2 -107q5 -124 27 -124q17 0 33 96q1 9 2 14q3 17 10.5 66t11.5 69q9 49 23.5 70.5t39.5 21.5q26 0 41 -21.5t23 -70.5q3 -18 10.5 -65t11.5 -66q5 -32 7.5 -46t7 -34t10 -28t11.5 -8q23 0 27 122
q3 62 3 120q0 48 -2 93v2q0 24 24 28q32 4 85 4q54 0 86 -4q24 -3 24 -28q-15 -340 -72 -648q-4 -21 -28 -24q-33 -4 -82 -4q-52 0 -80 4q-32 5 -39 36q-13 85 -27 153q-19 105 -40 105q-20 0 -42 -110q-4 -24 -13 -77.5t-12 -70.5q-7 -31 -39 -36q-27 -4 -77 -4
q-52 0 -84 4q-23 3 -27 24q-56 296 -72 648v3q0 21 24 25zM237 769l53 85q14 21 39 21h96q25 0 39 -21l53 -85q8 -11 8 -20q0 -4 -3 -11t-21 -7h-39q-25 0 -39 18l-24 35q-11 15 -22 15t-22 -15l-23 -34q-15 -19 -39 -19h-39q-18 0 -21.5 7t-3.5 11q0 8 8 20z" />
    <glyph glyph-name="wcircumflex" unicode="&#x175;" horiz-adv-x="675" 
d="M32 544q25 4 75 4q52 0 77 -4q23 -4 23 -28q-1 -24 -1 -49q0 -65 6 -136q3 -81 20 -81q16 0 27 72q3 16 10.5 71t11.5 76q13 73 55 73q45 0 57 -73q4 -21 11.5 -76t10.5 -71q13 -71 28 -71t20 79q6 72 6 137q0 25 -1 48q0 25 23 29q25 4 76 4q48 0 75 -4q23 -5 23 -23v-3
q-9 -238 -67 -494q-5 -21 -26 -24q-40 -4 -77 -4q-34 0 -76 4q-29 5 -33 28q-2 10 -10 77.5t-18 114t-21 46.5q-10 0 -20 -47.5t-18 -115t-10 -75.5q-4 -24 -33 -28q-40 -4 -75 -4q-31 0 -79 4q-20 3 -25 24q-59 252 -67 494v2q0 19 22 24zM197 613l53 85q14 21 39 21h96
q25 0 39 -21l53 -85q8 -11 8 -20q0 -4 -3 -11t-21 -7h-39q-25 0 -39 18l-24 35q-11 15 -22 15t-22 -15l-23 -34q-15 -19 -39 -19h-39q-18 0 -21.5 7t-3.5 11q0 8 8 20z" />
    <glyph glyph-name="Ycircumflex" unicode="&#x176;" horiz-adv-x="556" 
d="M35 700q28 4 75 4q54 0 89 -4q12 -2 19 -9.5t7 -16.5v-3q1 -85 16 -171t36 -86h1q23 0 38 87.5t15 169.5q0 24 27 29q29 4 87 4q46 0 77 -4q27 -5 27 -27v-5q-9 -128 -57.5 -232t-120.5 -125q-9 -3 -9 -13q0 -4 1 -8q25 -162 36 -264v-2q0 -9 -7.5 -15.5t-18.5 -8.5
q-44 -4 -93 -4q-63 0 -95 4q-11 2 -18.5 8.5t-7.5 15.5v2q14 116 37 264q1 4 1 7q0 10 -10 13q-74 20 -124 125t-56 233v3q0 24 28 29zM136 769l53 85q13 21 39 21h96q25 0 39 -21l53 -85q8 -11 8 -20q0 -4 -3 -11t-21 -7h-39q-25 0 -39 18l-24 35q-11 15 -22 15t-22 -15
l-23 -34q-15 -19 -39 -19h-39q-18 0 -21.5 7t-3.5 11q0 8 8 20z" />
    <glyph glyph-name="ycircumflex" unicode="&#x177;" horiz-adv-x="552" 
d="M17 -184q1 24 6 148q1 16 8.5 19.5t11.5 3.5q7 0 14 -6q58 -38 136 -38q57 0 101 46t44 106v40q0 10 -3 13.5t-6 3.5q-2 0 -5.5 -2.5t-5.5 -12.5q-15 -67 -51 -101.5t-86 -34.5q-160 0 -162 243q2 143 19 274q5 23 24 26q28 4 74 4q51 0 80 -4q12 -2 18 -8.5t6 -15.5v-5
q-20 -138 -20 -198q0 -55 14.5 -91.5t42.5 -36.5q26 0 39.5 38.5t13.5 94.5q0 64 -10 194v3q0 20 24 25q29 4 80 4q40 0 71 -4q22 -3 24 -27q16 -232 16 -481q0 -132 -81 -202.5t-210 -70.5q-138 0 -209 24q-8 3 -13 11t-5 15v3zM132 613l53 85q13 21 39 21h96q25 0 39 -21
l53 -85q8 -11 8 -20q0 -4 -3 -11t-21 -7h-39q-25 0 -39 18l-24 35q-11 15 -22 15t-22 -15l-23 -34q-15 -19 -39 -19h-39q-18 0 -21.5 7t-3.5 11q0 8 8 20z" />
    <glyph glyph-name="Ydieresis" unicode="&#x178;" horiz-adv-x="556" 
d="M35 700q28 4 75 4q54 0 89 -4q12 -2 19 -9.5t7 -16.5v-3q1 -85 16 -171t36 -86h1q23 0 38 87.5t15 169.5q0 24 27 29q29 4 87 4q46 0 77 -4q27 -5 27 -27v-5q-9 -128 -57.5 -232t-120.5 -125q-9 -3 -9 -13q0 -4 1 -8q25 -162 36 -264v-2q0 -9 -7.5 -15.5t-18.5 -8.5
q-44 -4 -93 -4q-63 0 -95 4q-11 2 -18.5 8.5t-7.5 15.5v2q14 116 37 264q1 4 1 7q0 10 -10 13q-74 20 -124 125t-56 233v3q0 24 28 29zM288 800q0 31 20 49.5t50 18.5q31 0 51.5 -18.5t20.5 -49.5q0 -32 -20 -50t-52 -18q-30 0 -50 18.5t-20 49.5zM120 800q0 31 19.5 49.5
t50.5 18.5t51 -18.5t20 -49.5q0 -32 -20 -50t-51 -18t-50.5 18t-19.5 50z" />
    <glyph glyph-name="Zacute" unicode="&#x179;" horiz-adv-x="561" 
d="M16 27q0 15 0.5 41t0.5 41q0 35 34 80q77 113 208 281q14 14 14 26q0 6 -9 16.5t-47 10.5q-94 0 -145 -65q-7 -12 -17 -12q-4 0 -12.5 3.5t-8.5 19.5v2q0 107 7 203q2 24 25 26q75 4 215 4q153 0 218 -4q23 -2 26 -26l3 -78v-3q0 -41 -26 -77q-88 -137 -201 -283
q-15 -14 -15 -26q0 -6 8.5 -16.5t52.5 -10.5q50 0 84.5 20t63.5 63q10 14 21 14q3 0 12.5 -2.5t10.5 -24.5l5 -224v-2q0 -9 -6.5 -16t-17.5 -8q-59 -4 -241 -4q-166 0 -237 4q-26 2 -26 27zM244 779l32 84q11 26 40 26h65q22 0 26.5 -8t4.5 -13q0 -9 -10 -20l-63 -88
q-14 -21 -41 -21h-28q-19 0 -24.5 8.5t-5.5 15.5t4 16z" />
    <glyph glyph-name="zacute" unicode="&#x17a;" horiz-adv-x="487" 
d="M14 23q0 44 1 73q1 41 27 68q38 49 168 188q15 15 15 25q0 4 -4.5 12t-36.5 8q-72 0 -119 -50q-8 -12 -18 -12q-3 0 -11 2.5t-8 19.5v3q2 80 7 160q0 10 7 16.5t16 7.5q65 4 186 4q133 0 190 -4q20 -2 22 -22q4 -39 4 -75q0 -41 -24 -66q-44 -63 -157 -189
q-14 -11 -14.5 -16t-0.5 -6q0 -8 12 -13.5t36 -5.5q68 0 114 58q10 14 21 14q3 0 11 -2t9 -22q4 -59 6 -176v-2q0 -9 -6.5 -15t-15.5 -6q-106 -4 -210 -4q-113 0 -205 4q-9 0 -15.5 6.5t-6.5 16.5zM205 623l32 84q11 26 40 26h65q22 0 26.5 -8t4.5 -13q0 -9 -10 -20l-63 -88
q-14 -21 -41 -21h-28q-19 0 -24.5 8.5t-5.5 15.5t4 16z" />
    <glyph glyph-name="Zdotaccent" unicode="&#x17b;" horiz-adv-x="561" 
d="M16 27q0 15 0.5 41t0.5 41q0 35 34 80q77 113 208 281q14 14 14 26q0 6 -9 16.5t-47 10.5q-94 0 -145 -65q-7 -12 -17 -12q-4 0 -12.5 3.5t-8.5 19.5v2q0 107 7 203q2 24 25 26q75 4 215 4q153 0 218 -4q23 -2 26 -26l3 -78v-3q0 -41 -26 -77q-88 -137 -201 -283
q-15 -14 -15 -26q0 -6 8.5 -16.5t52.5 -10.5q50 0 84.5 20t63.5 63q10 14 21 14q3 0 12.5 -2.5t10.5 -24.5l5 -224v-2q0 -9 -6.5 -16t-17.5 -8q-59 -4 -241 -4q-166 0 -237 4q-26 2 -26 27zM230 850q20 18 51 18t51 -18.5t20 -49.5t-20 -49q-20 -19 -51 -19t-51 18.5
t-20 49.5t20 50z" />
    <glyph glyph-name="zdotaccent" unicode="&#x17c;" horiz-adv-x="487" 
d="M15 96q1 41 27 68q38 49 168 188q15 15 15 25q0 4 -4.5 12t-36.5 8q-72 0 -119 -50q-8 -12 -18 -12q-3 0 -11 2.5t-8 19.5v3q2 80 7 160q0 10 7 16.5t16 7.5q65 4 186 4q133 0 190 -4q20 -2 22 -22q4 -39 4 -75q0 -41 -24 -66q-44 -63 -157 -189q-14 -11 -14.5 -16
t-0.5 -6q0 -8 12 -13.5t36 -5.5q68 0 114 58q10 14 21 14q3 0 11 -2t9 -22q4 -59 6 -176v-2q0 -9 -6.5 -15t-15.5 -6q-106 -4 -210 -4q-113 0 -205 4q-9 0 -15.5 6.5t-6.5 16.5q0 44 1 73zM191 694q20 18 51 18t51 -18.5t20 -49.5t-20 -49q-20 -19 -51 -19t-51 18.5
t-20 49.5t20 50z" />
    <glyph glyph-name="Zcaron" unicode="&#x17d;" horiz-adv-x="561" 
d="M16 27q0 15 0.5 41t0.5 41q0 35 34 80q77 113 208 281q14 14 14 26q0 6 -9 16.5t-47 10.5q-94 0 -145 -65q-7 -12 -17 -12q-4 0 -12.5 3.5t-8.5 19.5v2q0 107 7 203q2 24 25 26q75 4 215 4q153 0 218 -4q23 -2 26 -26l3 -78v-3q0 -41 -26 -77q-88 -137 -201 -283
q-15 -14 -15 -26q0 -6 8.5 -16.5t52.5 -10.5q50 0 84.5 20t63.5 63q10 14 21 14q3 0 12.5 -2.5t10.5 -24.5l5 -224v-2q0 -9 -6.5 -16t-17.5 -8q-59 -4 -241 -4q-166 0 -237 4q-26 2 -26 27zM134 864q5 11 23 11h39q25 0 39 -20l23 -34q11 -14 22 -14t22 14l24 35
q15 19 39 19h39q18 0 21 -7.5t3 -11.5q0 -9 -8 -20l-53 -85q-13 -20 -39 -20h-96q-26 0 -39 20l-53 85q-8 11 -8 20q0 4 2 8z" />
    <glyph glyph-name="zcaron" unicode="&#x17e;" horiz-adv-x="487" 
d="M15 96q1 41 27 68q38 49 168 188q15 15 15 25q0 4 -4.5 12t-36.5 8q-72 0 -119 -50q-8 -12 -18 -12q-3 0 -11 2.5t-8 19.5v3q2 80 7 160q0 10 7 16.5t16 7.5q65 4 186 4q133 0 190 -4q20 -2 22 -22q4 -39 4 -75q0 -41 -24 -66q-44 -63 -157 -189q-14 -11 -14.5 -16
t-0.5 -6q0 -8 12 -13.5t36 -5.5q68 0 114 58q10 14 21 14q3 0 11 -2t9 -22q4 -59 6 -176v-2q0 -9 -6.5 -15t-15.5 -6q-106 -4 -210 -4q-113 0 -205 4q-9 0 -15.5 6.5t-6.5 16.5q0 44 1 73zM96 708q5 11 23 11h39q25 0 39 -20l23 -34q11 -14 22 -14t22 14l24 35q15 19 39 19
h39q18 0 21 -7.5t3 -11.5q0 -9 -8 -20l-53 -85q-13 -20 -39 -20h-96q-26 0 -39 20l-53 85q-8 11 -8 20q0 4 2 8z" />
    <glyph glyph-name="uni0218" unicode="&#x218;" horiz-adv-x="550" 
d="M32 262q3 1 6 1q11 0 20 -13q69 -70 174 -70q80 0 82 60q0 26 -28.5 47.5t-70 39.5t-82.5 40.5t-70 61.5t-29 92q0 92 65.5 139t184.5 47q108 0 194 -28q17 -8 19 -26q1 -14 3.5 -70.5t3.5 -84.5v-3q0 -19 -8.5 -22.5t-11.5 -3.5q-10 0 -18 11q-58 47 -135 49h-5
q-38 0 -64 -13.5t-26 -37.5q0 -25 31 -45.5t75.5 -38.5t88.5 -40.5t75 -64t31 -97.5q-1 -95 -71.5 -147t-195.5 -52q-52 0 -119.5 10.5t-114.5 27.5q-17 9 -17 29l-3 175q0 22 16 27zM214 -43q24 22 62 22t61.5 -27t23.5 -72q0 -108 -73 -164q-7 -4 -13 -4q-8 0 -16 9
l-18 22q-6 7 -6 14t9 14q16 14 21 28q2 3 2 6q0 2 -1 4.5t-5 2.5h-2h-4q-26 0 -45.5 23t-19.5 60q0 40 24 62z" />
    <glyph glyph-name="uni0219" unicode="&#x219;" horiz-adv-x="467" 
d="M14 191q1 17 9 19t11 2q9 0 17 -9q59 -49 135 -49q67 0 67 41q0 18 -23 30t-56 23t-66 26.5t-56 48.5t-23 80q0 73 54.5 110.5t155.5 37.5q86 0 160 -18q18 -8 20 -26q4 -68 5 -122v-3q0 -15 -7 -18t-10 -3q-8 0 -16 9q-48 31 -103 31h-6q-31 0 -49 -10t-18 -28
q0 -17 24.5 -29.5t60 -23.5t71 -27t60 -49t24.5 -81q0 -75 -59.5 -117.5t-165.5 -42.5q-104 0 -199 31q-18 8 -18 26q0 93 1 141zM140 -105q0 40 24 62t62 22t61.5 -27t23.5 -72q0 -108 -73 -164q-7 -4 -13 -4q-8 0 -16 9l-18 22q-6 7 -6 14t9 14q16 14 21 28q2 3 2 6
q0 2 -1 4.5t-5 2.5h-2h-4q-26 0 -45.5 23t-19.5 60z" />
    <glyph glyph-name="uni021A" unicode="&#x21a;" horiz-adv-x="555" 
d="M18 676q3 22 26 24q61 4 234 4q172 0 232 -4q24 -1 27 -24q8 -82 8 -203q0 -21 -8.5 -24t-12.5 -3q-9 0 -16 11q-24 26 -55.5 46t-56.5 20q-32 0 -32 -38q0 -7 1 -15q16 -252 35 -439v-3q0 -9 -7 -17t-19 -10q-24 -3 -94 -3q-61 0 -97 3q-12 2 -19 10t-7 17v3
q17 166 34 439q1 8 1 15q0 39 -32 39q-48 0 -113 -67q-7 -11 -16 -11q-4 0 -12.5 3t-8.5 25q0 93 8 202zM193 -105q0 40 24 62t62 22t61.5 -27t23.5 -72q0 -108 -73 -164q-7 -4 -13 -4q-8 0 -16 9l-18 22q-6 7 -6 14t9 14q16 14 21 28q2 3 2 6q0 2 -1 4.5t-5 2.5h-2h-4
q-26 0 -45.5 23t-19.5 60z" />
    <glyph glyph-name="uni021B" unicode="&#x21b;" horiz-adv-x="420" 
d="M14 537q7 7 17 7h36q12 0 12 12q2 51 5 92q3 23 25 26q29 3 66 3q50 0 83 -3q11 -1 18 -9.5t7 -17.5v-4q-10 -50 -10 -80q0 -20 12 -20q15 0 47 1t47 1q11 0 18.5 -8t7.5 -19v-108q0 -11 -7.5 -19t-16.5 -8h-2q-36 3 -82 3q-26 0 -29 -25q-3 -28 -3 -63q0 -28 2 -60
q1 -28 17.5 -44.5t41.5 -16.5q32 0 55 18q7 7 14 7q3 0 10.5 -3.5t7.5 -20.5v-125q0 -27 -21 -38q-64 -22 -132 -22q-88 0 -140.5 48t-52.5 144q0 132 7 189v2q0 4 -3.5 7t-8.5 3l-31 -1q-10 0 -17 7t-8 18v109q1 11 8 18zM174 -105q0 40 24 62t62 22t61.5 -27t23.5 -72
q0 -108 -73 -164q-7 -4 -13 -4q-8 0 -16 9l-18 22q-6 7 -6 14t9 14q16 14 21 28q2 3 2 6q0 2 -1 4.5t-5 2.5h-2h-4q-26 0 -45.5 23t-19.5 60z" />
    <glyph glyph-name="gravecomb" unicode="&#x300;" 
d="M-280 721q7 12 29 12h64q30 0 40 -26l33 -84q4 -9 4 -16t-5.5 -15.5t-24.5 -8.5h-28q-27 0 -41 21l-64 88q-9 11 -9 20q0 5 2 9z" />
    <glyph glyph-name="acutecomb" unicode="&#x301;" 
d="M-277 623l32 84q11 26 40 26h65q22 0 26.5 -8t4.5 -13q0 -9 -10 -20l-63 -88q-14 -21 -41 -21h-28q-19 0 -24.5 8.5t-5.5 15.5t4 16z" />
    <glyph glyph-name="uni0302" unicode="&#x302;" 
d="M-312 613l53 85q13 21 39 21h96q25 0 39 -21l53 -85q8 -11 8 -20q0 -4 -3 -11t-21 -7h-39q-25 0 -39 18l-24 35q-11 15 -22 15t-22 -15l-23 -34q-15 -19 -39 -19h-39q-18 0 -21.5 7t-3.5 11q0 8 8 20z" />
    <glyph glyph-name="tildecomb" unicode="&#x303;" 
d="M-295 687q24 13 55 13q32 0 73 -14q28 -9 39.5 -12t20 -3.5t9.5 -0.5q15 0 28 7q11 5 19 5q16 0 22 -19l13 -40q3 -9 3 -16q0 -17 -17 -26q-22 -11 -52 -11q-33 0 -77 14q-36 13 -46 14t-13 1q-15 0 -37 -7q-11 -5 -19 -5q-16 0 -22 19l-13 39q-2 8 -2 15q0 18 16 27z
" />
    <glyph glyph-name="uni0304" unicode="&#x304;" 
d="M-279 663h214q32 0 32 -32v-25q0 -32 -32 -32h-214q-32 0 -32 32v25q0 32 32 32z" />
    <glyph glyph-name="uni0306" unicode="&#x306;" 
d="M-292 651q3 11 18 19l17 8q7 4 14 4q13 0 28 -12q25 -20 58 -20q35 0 58 20q15 12 29 12q7 0 14 -4l17 -8q20 -10 20 -23q0 -7 -7 -16q-50 -57 -131 -57q-78 0 -126 53q-10 10 -10 19q0 3 1 5z" />
    <glyph glyph-name="uni0307" unicode="&#x307;" 
d="M-253 647q0 31 20 49.5t51 18.5t51 -18.5t20 -49.5t-20 -49q-20 -19 -51 -19t-51 18.5t-20 49.5z" />
    <glyph glyph-name="uni0308" unicode="&#x308;" 
d="M-170 647q0 31 20 49.5t50 18.5q31 0 51.5 -18.5t20.5 -49.5q0 -32 -20 -50t-52 -18q-30 0 -50 18.5t-20 49.5zM-338 647q0 31 19.5 49.5t50.5 18.5t51 -18.5t20 -49.5q0 -32 -20 -50t-51 -18t-50.5 18t-19.5 50z" />
    <glyph glyph-name="uni030A" unicode="&#x30a;" 
d="M-221 671q0 46 28.5 73t73.5 27t73 -27t28 -73q0 -47 -28 -74t-73 -27t-73.5 27t-28.5 74zM-153 671q0 -20 9 -32q10 -12 25 -12t24.5 12t9.5 32t-9.5 31.5t-24.5 11.5t-24.5 -11.5t-9.5 -31.5z" />
    <glyph glyph-name="uni030B" unicode="&#x30b;" 
d="M-156 620l39 84q11 23 38 23h54q19 0 23 -8t4 -13q0 -8 -6 -18l-50 -84q-14 -21 -39 -21h-40q-19 0 -23.5 7.5t-4.5 13.5q0 7 5 16zM-315 620l38 84q11 23 38 23h54q19 0 23.5 -8t4.5 -13q0 -8 -7 -18l-50 -84q-13 -21 -38 -21h-41q-19 0 -23 7.5t-4 12.5q0 7 5 17z" />
    <glyph glyph-name="uni030C" unicode="&#x30c;" 
d="M-318 708q5 11 23 11h39q25 0 39 -20l23 -34q11 -14 21 -14q12 0 23 14l24 35q15 19 39 19h39q18 0 21 -7.5t3 -11.5q0 -9 -8 -20l-53 -85q-13 -20 -39 -20h-96q-26 0 -39 20l-53 85q-8 11 -8 20q0 4 2 8z" />
    <glyph glyph-name="uni0312" unicode="&#x312;" 
d="M-180 763q20 43 53 67q6 5 12 5q9 0 17 -10l18 -22q6 -7 6 -13q0 -8 -9 -15q-16 -12 -22 -28q-2 -3 -2 -5t2 -4.5t6 -2.5h2h4q25 0 44.5 -23t19.5 -60q0 -40 -23.5 -62.5t-62.5 -22.5q-38 0 -61.5 27t-23.5 73q0 52 20 96z" />
    <glyph glyph-name="uni0326" unicode="&#x326;" 
d="M-200 -105q0 40 24 62t62 22t61.5 -27t23.5 -72q0 -108 -73 -164q-7 -4 -13 -4q-8 0 -16 9l-18 22q-6 7 -6 14t9 14q16 14 21 28q2 3 2 6q0 2 -1 4.5t-5 2.5h-2h-4q-26 0 -45.5 23t-19.5 60z" />
    <glyph glyph-name="uni0327" unicode="&#x327;" 
d="M-202 -144l5 12q6 14 19 14q6 0 13 -3q8 -4 20 -4q19 0 30.5 10.5t11.5 29.5q0 48 -47 87q-12 10 -12 18q0 9 13 16l12 6q9 4 17 5q9 -1 17 -5q41 -25 65.5 -62.5t24.5 -73.5q0 -47 -30.5 -71t-78.5 -24q-40 0 -71 14q-12 5 -12 18q0 6 3 13z" />
    <glyph glyph-name="uni0328" unicode="&#x328;" 
d="M-180 -23q25 38 66 63q8 5 17 5t17 -5l12 -6q13 -7 13 -16q0 -8 -12 -18q-47 -39 -47 -87q0 -19 11.5 -29.5t30.5 -10.5q12 0 20 4q7 3 13 3q13 0 19 -14l5 -12q3 -7 3 -13q0 -13 -12 -18q-31 -14 -71 -14q-48 0 -78.5 24t-30.5 71q0 36 24 73z" />
    <glyph glyph-name="Wgrave" unicode="&#x1e80;" horiz-adv-x="753" 
d="M34 700q29 4 86 4q52 0 84 -4q23 -2 23 -28v-2q-1 -57 -1 -102q0 -67 2 -107q5 -124 27 -124q17 0 33 96q1 9 2 14q3 17 10.5 66t11.5 69q9 49 23.5 70.5t39.5 21.5q26 0 41 -21.5t23 -70.5q3 -18 10.5 -65t11.5 -66q5 -32 7.5 -46t7 -34t10 -28t11.5 -8q23 0 27 122
q3 62 3 120q0 48 -2 93v2q0 24 24 28q32 4 85 4q54 0 86 -4q24 -3 24 -28q-15 -340 -72 -648q-4 -21 -28 -24q-33 -4 -82 -4q-52 0 -80 4q-32 5 -39 36q-13 85 -27 153q-19 105 -40 105q-20 0 -42 -110q-4 -24 -13 -77.5t-12 -70.5q-7 -31 -39 -36q-27 -4 -77 -4
q-52 0 -84 4q-23 3 -27 24q-56 296 -72 648v3q0 21 24 25zM249 877q6 12 28 12h64q30 0 40 -26l33 -84q4 -9 4 -16t-5.5 -15.5t-24.5 -8.5h-28q-27 0 -41 21l-64 88q-8 10 -8 20q0 4 2 9z" />
    <glyph glyph-name="wgrave" unicode="&#x1e81;" horiz-adv-x="675" 
d="M32 544q25 4 75 4q52 0 77 -4q23 -4 23 -28q-1 -24 -1 -49q0 -65 6 -136q3 -81 20 -81q16 0 27 72q3 16 10.5 71t11.5 76q13 73 55 73q45 0 57 -73q4 -21 11.5 -76t10.5 -71q13 -71 28 -71t20 79q6 72 6 137q0 25 -1 48q0 25 23 29q25 4 76 4q48 0 75 -4q23 -5 23 -23v-3
q-9 -238 -67 -494q-5 -21 -26 -24q-40 -4 -77 -4q-34 0 -76 4q-29 5 -33 28q-2 10 -10 77.5t-18 114t-21 46.5q-10 0 -20 -47.5t-18 -115t-10 -75.5q-4 -24 -33 -28q-40 -4 -75 -4q-31 0 -79 4q-20 3 -25 24q-59 252 -67 494v2q0 19 22 24zM210 721q6 12 28 12h64
q30 0 40 -26l33 -84q4 -9 4 -16t-5.5 -15.5t-24.5 -8.5h-28q-27 0 -41 21l-64 88q-8 10 -8 20q0 4 2 9z" />
    <glyph glyph-name="Wacute" unicode="&#x1e82;" horiz-adv-x="753" 
d="M34 700q29 4 86 4q52 0 84 -4q23 -2 23 -28v-2q-1 -57 -1 -102q0 -67 2 -107q5 -124 27 -124q17 0 33 96q1 9 2 14q3 17 10.5 66t11.5 69q9 49 23.5 70.5t39.5 21.5q26 0 41 -21.5t23 -70.5q3 -18 10.5 -65t11.5 -66q5 -32 7.5 -46t7 -34t10 -28t11.5 -8q23 0 27 122
q3 62 3 120q0 48 -2 93v2q0 24 24 28q32 4 85 4q54 0 86 -4q24 -3 24 -28q-15 -340 -72 -648q-4 -21 -28 -24q-33 -4 -82 -4q-52 0 -80 4q-32 5 -39 36q-13 85 -27 153q-19 105 -40 105q-20 0 -42 -110q-4 -24 -13 -77.5t-12 -70.5q-7 -31 -39 -36q-27 -4 -77 -4
q-52 0 -84 4q-23 3 -27 24q-56 296 -72 648v3q0 21 24 25zM340 779l32 84q11 26 40 26h65q22 0 26.5 -8t4.5 -13q0 -9 -10 -20l-63 -88q-14 -21 -41 -21h-28q-19 0 -24.5 8.5t-5.5 15.5t4 16z" />
    <glyph glyph-name="wacute" unicode="&#x1e83;" horiz-adv-x="675" 
d="M32 544q25 4 75 4q52 0 77 -4q23 -4 23 -28q-1 -24 -1 -49q0 -65 6 -136q3 -81 20 -81q16 0 27 72q3 16 10.5 71t11.5 76q13 73 55 73q45 0 57 -73q4 -21 11.5 -76t10.5 -71q13 -71 28 -71t20 79q6 72 6 137q0 25 -1 48q0 25 23 29q25 4 76 4q48 0 75 -4q23 -5 23 -23v-3
q-9 -238 -67 -494q-5 -21 -26 -24q-40 -4 -77 -4q-34 0 -76 4q-29 5 -33 28q-2 10 -10 77.5t-18 114t-21 46.5q-10 0 -20 -47.5t-18 -115t-10 -75.5q-4 -24 -33 -28q-40 -4 -75 -4q-31 0 -79 4q-20 3 -25 24q-59 252 -67 494v2q0 19 22 24zM301 623l32 84q11 26 40 26h65
q22 0 26.5 -8t4.5 -13q0 -9 -10 -20l-63 -88q-14 -21 -41 -21h-28q-19 0 -24.5 8.5t-5.5 15.5t4 16z" />
    <glyph glyph-name="Wdieresis" unicode="&#x1e84;" horiz-adv-x="753" 
d="M34 700q29 4 86 4q52 0 84 -4q23 -2 23 -28v-2q-1 -57 -1 -102q0 -67 2 -107q5 -124 27 -124q17 0 33 96q1 9 2 14q3 17 10.5 66t11.5 69q9 49 23.5 70.5t39.5 21.5q26 0 41 -21.5t23 -70.5q3 -18 10.5 -65t11.5 -66q5 -32 7.5 -46t7 -34t10 -28t11.5 -8q23 0 27 122
q3 62 3 120q0 48 -2 93v2q0 24 24 28q32 4 85 4q54 0 86 -4q24 -3 24 -28q-15 -340 -72 -648q-4 -21 -28 -24q-33 -4 -82 -4q-52 0 -80 4q-32 5 -39 36q-13 85 -27 153q-19 105 -40 105q-20 0 -42 -110q-4 -24 -13 -77.5t-12 -70.5q-7 -31 -39 -36q-27 -4 -77 -4
q-52 0 -84 4q-23 3 -27 24q-56 296 -72 648v3q0 21 24 25zM409 850q20 18 50 18q31 0 51.5 -18.5t20.5 -49.5q0 -32 -20 -50t-52 -18q-30 0 -50 18.5t-20 49.5t20 50zM241 850q19 18 50 18t51 -18.5t20 -49.5q0 -32 -20 -50t-51 -18t-50.5 18t-19.5 50q0 31 20 50z" />
    <glyph glyph-name="wdieresis" unicode="&#x1e85;" horiz-adv-x="675" 
d="M32 544q25 4 75 4q52 0 77 -4q23 -4 23 -28q-1 -24 -1 -49q0 -65 6 -136q3 -81 20 -81q16 0 27 72q3 16 10.5 71t11.5 76q13 73 55 73q45 0 57 -73q4 -21 11.5 -76t10.5 -71q13 -71 28 -71t20 79q6 72 6 137q0 25 -1 48q0 25 23 29q25 4 76 4q48 0 75 -4q23 -5 23 -23v-3
q-9 -238 -67 -494q-5 -21 -26 -24q-40 -4 -77 -4q-34 0 -76 4q-29 5 -33 28q-2 10 -10 77.5t-18 114t-21 46.5q-10 0 -20 -47.5t-18 -115t-10 -75.5q-4 -24 -33 -28q-40 -4 -75 -4q-31 0 -79 4q-20 3 -25 24q-59 252 -67 494v2q0 19 22 24zM350 644q0 31 20 49.5t50 18.5
q31 0 51.5 -18.5t20.5 -49.5q0 -32 -20 -50t-52 -18q-30 0 -50 18.5t-20 49.5zM182 644q0 31 19.5 49.5t50.5 18.5t51 -18.5t20 -49.5q0 -32 -20 -50t-51 -18t-50.5 18t-19.5 50z" />
    <glyph glyph-name="Germandbls" unicode="&#x1e9e;" horiz-adv-x="606" 
d="M410 -6q-79 0 -146 30q-15 8 -14 26q0 100 1 151q1 17 11.5 20.5t17.5 -8.5q39 -43 89 -43q23 0 35 16t12 41q0 68 -127 128q-23 8 -23.5 28t24.5 34q33 19 52 51t19 56q0 30 -41 30l-62 1q-16 0 -26 -9.5t-11 -24.5q-8 -121 2 -492q0 -27 -29 -29q-65 -5 -149 0
q-12 1 -19.5 9.5t-7.5 19.5q0 376 22 647q2 22 24 24q54 4 207 4q202 0 240 -4q40 -4 40 -41q1 -70 -36 -145.5t-109 -112.5q-26 -17 0 -28q102 -27 147 -80t45 -118q0 -79 -54 -130t-134 -51z" />
    <glyph glyph-name="Ygrave" unicode="&#x1ef2;" horiz-adv-x="556" 
d="M35 700q28 4 75 4q54 0 89 -4q12 -2 19 -9.5t7 -16.5v-3q1 -85 16 -171t36 -86h1q23 0 38 87.5t15 169.5q0 24 27 29q29 4 87 4q46 0 77 -4q27 -5 27 -27v-5q-9 -128 -57.5 -232t-120.5 -125q-9 -3 -9 -13q0 -4 1 -8q25 -162 36 -264v-2q0 -9 -7.5 -15.5t-18.5 -8.5
q-44 -4 -93 -4q-63 0 -95 4q-11 2 -18.5 8.5t-7.5 15.5v2q14 116 37 264q1 4 1 7q0 10 -10 13q-74 20 -124 125t-56 233v3q0 24 28 29zM148 877q6 12 28 12h64q30 0 40 -26l33 -84q4 -9 4 -16t-5.5 -15.5t-24.5 -8.5h-28q-27 0 -41 21l-64 88q-8 10 -8 20q0 4 2 9z" />
    <glyph glyph-name="ygrave" unicode="&#x1ef3;" horiz-adv-x="552" 
d="M17 -184q1 24 6 148q1 16 8.5 19.5t11.5 3.5q7 0 14 -6q58 -38 136 -38q57 0 101 46t44 106v40q0 10 -3 13.5t-6 3.5q-2 0 -5.5 -2.5t-5.5 -12.5q-15 -67 -51 -101.5t-86 -34.5q-160 0 -162 243q2 143 19 274q5 23 24 26q28 4 74 4q51 0 80 -4q12 -2 18 -8.5t6 -15.5v-5
q-20 -138 -20 -198q0 -55 14.5 -91.5t42.5 -36.5q26 0 39.5 38.5t13.5 94.5q0 64 -10 194v3q0 20 24 25q29 4 80 4q40 0 71 -4q22 -3 24 -27q16 -232 16 -481q0 -132 -81 -202.5t-210 -70.5q-138 0 -209 24q-8 3 -13 11t-5 15v3zM144 721q6 12 28 12h64q30 0 40 -26l33 -84
q4 -9 4 -16t-5.5 -15.5t-24.5 -8.5h-28q-27 0 -41 21l-64 88q-8 10 -8 20q0 4 2 9z" />
    <glyph glyph-name="endash" unicode="&#x2013;" horiz-adv-x="494" 
d="M436 187h-378q-33 0 -33 32v46q0 32 33 32h378q33 0 33 -32v-46q0 -32 -33 -32z" />
    <glyph glyph-name="emdash" unicode="&#x2014;" horiz-adv-x="684" 
d="M626 187h-568q-33 0 -33 32v46q0 32 33 32h568q33 0 33 -32v-46q0 -32 -33 -32z" />
    <glyph glyph-name="quoteleft" unicode="&#x2018;" horiz-adv-x="229" 
d="M134 807l23 -27q14 -18 -4 -34q-19 -14 -26 -34q-4 -5 -2 -10.5t10 -4.5q33 2 58 -26.5t25 -74.5q0 -48 -29 -75t-75 -27t-74.5 33t-28.5 88q0 64 24.5 115.5t63.5 81.5q20 15 35 -5z" />
    <glyph glyph-name="quoteright" unicode="&#x2019;" horiz-adv-x="229" 
d="M95 506l-23 26q-15 19 4 34q20 16 26 34q4 6 1.5 11t-9.5 5q-33 -3 -58 26t-25 74q0 48 29 75t75 27t74.5 -32.5t28.5 -87.5q-1 -64 -25 -116t-63 -82q-19 -15 -35 6z" />
    <glyph glyph-name="quotesinglbase" unicode="&#x201a;" horiz-adv-x="229" 
d="M95 -112l-23 27q-14 18 4 34q19 14 26 34q4 6 1.5 11t-9.5 4q-33 -2 -58 27t-25 74q0 48 29 75t75 27t74.5 -32.5t28.5 -87.5q-1 -64 -25 -116t-63 -82q-19 -15 -35 5z" />
    <glyph glyph-name="quotedblleft" unicode="&#x201c;" horiz-adv-x="460" 
d="M134 807l23 -27q14 -18 -4 -34q-19 -14 -26 -34q-4 -5 -2 -10.5t10 -4.5q33 2 58 -26.5t25 -74.5q0 -48 -29 -75t-75 -27t-74.5 33t-28.5 88q0 64 24.5 115.5t63.5 81.5q20 15 35 -5zM365 807l22 -27q15 -19 -4 -34q-18 -14 -26 -34q-4 -5 -1.5 -10.5t10.5 -4.5
q33 2 58 -26.5t25 -74.5q0 -48 -29 -75t-75 -27t-74.5 33t-28.5 88q0 64 24 115.5t64 81.5q19 14 35 -5z" />
    <glyph glyph-name="quotedblright" unicode="&#x201d;" horiz-adv-x="460" 
d="M95 506l-23 26q-15 19 4 34q20 16 26 34q4 6 1.5 11t-9.5 5q-33 -3 -58 26t-25 74q0 48 29 75t75 27t74.5 -32.5t28.5 -87.5q-1 -64 -25 -116t-63 -82q-19 -15 -35 6zM325 506l-22 26q-15 19 4 34q19 17 26 34q8 16 -8 16q-34 -3 -58.5 25.5t-24.5 74.5q0 48 28.5 75
t74.5 27q47 0 75.5 -32.5t28.5 -87.5q-1 -64 -25 -116.5t-64 -81.5q-18 -15 -35 6z" />
    <glyph glyph-name="quotedblbase" unicode="&#x201e;" horiz-adv-x="460" 
d="M95 -112l-23 27q-14 18 4 34q19 14 26 34q4 6 1.5 11t-9.5 4q-33 -2 -58 27t-25 74q0 48 29 75t75 27t74.5 -32.5t28.5 -87.5q-1 -64 -25 -116t-63 -82q-19 -15 -35 5zM325 -112l-22 27q-14 18 4 34q18 14 26 34q3 6 1 11t-9 4q-34 -2 -58.5 26.5t-24.5 74.5
q0 48 28.5 75t74.5 27q47 0 75.5 -32.5t28.5 -87.5q-1 -64 -25 -116.5t-64 -81.5q-17 -14 -35 5z" />
    <glyph glyph-name="bullet" unicode="&#x2022;" horiz-adv-x="346" 
d="M174 92q-63 0 -107 44t-44 106q0 63 44 107t107 44t107.5 -44t44.5 -107q0 -62 -44.5 -106t-107.5 -44z" />
    <glyph glyph-name="ellipsis" unicode="&#x2026;" horiz-adv-x="678" 
d="M112 -4q-45 0 -73 26.5t-28 74.5t28 75.5t73 27.5t73.5 -27.5t28.5 -76.5q0 -47 -28.5 -73.5t-73.5 -26.5zM339 -4q-45 0 -73.5 26.5t-28.5 74.5t28.5 75.5t73.5 27.5t73 -27.5t28 -76.5q0 -47 -28 -73.5t-73 -26.5zM565 -4q-45 0 -73 26.5t-28 74.5t28 75.5t73 27.5
t73.5 -27.5t28.5 -76.5q0 -47 -28.5 -73.5t-73.5 -26.5z" />
    <glyph glyph-name="guilsinglleft" unicode="&#x2039;" horiz-adv-x="238" 
d="M191 63h-36q-26 0 -40 21l-89 136q-16 23 0 46l89 133q15 21 40 21h35q20 0 26.5 -12t-4.5 -28l-75 -114q-16 -23 0 -46l75 -117q12 -17 5.5 -28.5t-26.5 -11.5z" />
    <glyph glyph-name="guilsinglright" unicode="&#x203a;" horiz-adv-x="238" 
d="M82 63h-35q-20 0 -26.5 11.5t5.5 28.5l74 117q17 23 0 46l-74 114q-11 16 -4.5 28t26.5 12h35q25 0 40 -21l89 -133q16 -23 0 -46l-89 -136q-14 -21 -41 -21z" />
    <glyph glyph-name="Euro" unicode="&#x20ac;" horiz-adv-x="612" 
d="M363 -6q-244 0 -284 259q-4 17 -23 17h-35q-21 0 -21 18v23q0 18 21 18h29q20 0 20 19v12q0 18 -19 18h-30q-21 0 -21 18v23q0 18 21 18h40q18 0 24 17q27 121 101 187t177 66q95 0 179 -44q13 -9 13 -30q-1 -56 -8 -152q-1 -13 -15.5 -14.5t-25.5 10.5q-29 35 -59 50.5
t-85 15.5q-77 0 -108 -84q-7 -7 -2.5 -14.5t17.5 -7.5h201q21 0 21 -18v-23q0 -18 -21 -18h-226q-25 0 -25 -17v-14q0 -18 24 -18h227q21 0 21 -18v-23q0 -18 -21 -18h-204q-13 0 -18 -7t2 -15q29 -80 116 -80q104 0 165 68q10 9 25 6.5t16 -19.5q5 -107 6 -162
q0 -21 -18 -32q-33 -16 -91.5 -25.5t-105.5 -9.5z" />
    <glyph glyph-name="i.loclTRK" horiz-adv-x="244" 
d="M18 27q0 269 16 493q2 21 23 24q30 3 66 3t63 -3q22 -3 24 -25q16 -222 16 -492q0 -23 -24 -27q-46 -4 -78 -4t-82 4q-24 4 -24 27zM52 644q0 31 20 49.5t51 18.5t51 -18.5t20 -49.5t-20 -49q-20 -19 -51 -19t-51 18.5t-20 49.5z" />
    </font>
</defs>
</svg>
