<?xml version="1.0" standalone="no"?>
<!DOCTYPE svg PUBLIC "-//W3C//DTD SVG 1.1//EN" "http://www.w3.org/Graphics/SVG/1.1/DTD/svg11.dtd" >
<svg xmlns="http://www.w3.org/2000/svg" xmlns:xlink="http://www.w3.org/1999/xlink" version="1.1">
<metadata>
Created by FontForge 20170731 at Sun Feb 17 16:40:21 2019
 By Aleksey,,,
Copyright (c) 2018 by Cahya Sofyan. All rights reserved. Desktop use is strictly prohibited.
</metadata>
<defs>
<font id="Matahari-300Light" horiz-adv-x="1439" >
  <font-face 
    font-family="Matahari 300 Light"
    font-weight="300"
    font-stretch="normal"
    units-per-em="2048"
    panose-1="2 0 5 3 0 0 0 2 0 4"
    ascent="1536"
    descent="-512"
    x-height="1030"
    cap-height="1434"
    bbox="-418 -784 2509 2130"
    underline-thickness="0"
    underline-position="0"
    unicode-range="U+000D-FB04"
  />
<missing-glyph horiz-adv-x="1116" 
d="M883 162v1110h-9l-280 -555l280 -555h9zM270 1364v-12l285 -559h6l283 561v10h-574zM844 70v10l-283 561h-6l-285 -559v-12h574zM164 1434h788v-1434h-788v1434zM233 162h9l280 555l-280 555h-9v-1110z" />
    <glyph glyph-name="uniFB00" unicode="ff" horiz-adv-x="1652" 
d="M307 0v950h-276v80h276v105q0 180 90 275t260 95q109 0 195 -28l-8 -82q-90 29 -180 28q-135 0 -201 -72.5t-66 -226.5v-94h637v105q0 182 89 276t261 94q39 0 76 -4t66.5 -10t50 -12t37.5 -13l16 -6l-16 -80q-106 43 -223 43q-135 0 -201 -72.5t-68 -226.5v-94h508v-80
h-508v-950h-88v950h-637v-950h-90z" />
    <glyph glyph-name="uniFB01" unicode="fi" horiz-adv-x="1259" 
d="M395 1124v-94h733v-1030h-88v950h-645v-950h-88v950h-276v80h276v105q0 176 111.5 273t288.5 97q211 0 366 -82l-22 -80q-137 80 -336 80q-143 0 -231.5 -76t-88.5 -223z" />
    <glyph glyph-name="uniFB02" unicode="fl" horiz-adv-x="1363" 
d="M1143 1481h61v-1481h-88v1264q-154 160 -379 159q-145 0 -243.5 -76.5t-98.5 -222.5v-94h500v-80h-500v-950h-88v950h-276v80h276v105q0 174 120 272t302 98q242 0 397 -145z" />
    <glyph glyph-name="uniFB03" unicode="ffi" horiz-adv-x="1994" 
d="M1133 1124v-94h733v-1030h-88v950h-645v-950h-89v950h-647v-950h-88v950h-278v80h278v105q0 182 89 276t259 94q109 0 195 -28l-6 -82q-96 29 -180 28q-137 0 -203 -72.5t-66 -226.5v-94h647v105q0 176 111 273t289 97q203 0 366 -82l-22 -80q-145 80 -338 80
q-141 0 -229 -76t-88 -223z" />
    <glyph glyph-name="uniFB04" unicode="ffl" horiz-adv-x="2088" 
d="M1870 1481h61v-1481h-88v1264q-154 160 -381 159q-145 0 -242.5 -76.5t-97.5 -222.5v-94h498v-80h-498v-950h-88v950h-639v-950h-88v950h-276v80h276v105q0 182 89 276t261 94q104 0 195 -28l-8 -82q-96 29 -180 28q-268 0 -269 -299v-94h639v105q0 174 120 272t302 98
q236 0 397 -145z" />
    <glyph glyph-name="T_h.liga" unicode="Th" horiz-adv-x="2404" 
d="M1763 1053q205 0 343.5 -146.5t138.5 -371.5v-535h-88v532q0 190 -120 313.5t-294 123.5q-172 0 -293 -123t-121 -307v-539h-88v1343h-555v-1343h-96v1343h-524v91h1263v-662h6q55 131 170 206t258 75z" />
    <glyph glyph-name="f_b.liga" unicode="fb" horiz-adv-x="2260" 
d="M895 950h-500v-950h-88v950h-276v80h276v105q0 174 120 272t302 98q242 0 397 -145l17 121h61v-717h8q59 133 177 211t266 78q213 0 357.5 -151.5t144.5 -387t-145.5 -387.5t-356.5 -152q-152 0 -273.5 83t-181.5 225h-4l-18 -283h-62v1264q-154 160 -379 159
q-145 0 -243.5 -76.5t-98.5 -222.5v-94h500v-80zM1204 522v-8q0 -199 125 -326t307.5 -127t306 127t123.5 326t-124.5 327t-305 128t-305.5 -125t-127 -322z" />
    <glyph glyph-name="f_f_j.liga" unicode="ffj" horiz-adv-x="2021" 
d="M1124 1124v-94h734v-1136q0 -369 -334 -369q-59 0 -142 12l9 82q74 -12 125 -12q133 0 193 71.5t60 227.5v1044h-645v-950h-90v950h-637v-950h-90v950h-276v80h276v105q0 180 90 275t260 95q109 0 195 -28l-8 -82q-90 29 -180 28q-135 0 -201 -72.5t-66 -226.5v-94h637
v105q0 176 111.5 273t290.5 97q203 0 366 -82l-22 -80q-145 80 -338 80q-141 0 -229.5 -76t-88.5 -223z" />
    <glyph glyph-name="f_h.liga" unicode="fh" horiz-adv-x="2279" 
d="M1636 1053q205 0 344.5 -146.5t139.5 -371.5v-535h-88v532q0 190 -120 313.5t-294 123.5q-172 0 -292 -119t-122 -301v-549h-88v1264q-154 160 -381 159q-145 0 -242.5 -76.5t-97.5 -222.5v-94h500v-80h-500v-950h-88v950h-276v80h276v105q0 174 120 272t302 98
q236 0 397 -145l17 121h61v-709h4q57 131 171 206t257 75z" />
    <glyph glyph-name="f_j.liga" unicode="fj" horiz-adv-x="1261" 
d="M397 1124v-94h733v-1136q0 -369 -333 -369q-59 0 -142 12l9 82q74 -12 124 -12q133 0 193.5 71.5t60.5 227.5v1044h-645v-950h-90v950h-276v80h276v105q0 176 111.5 273t290.5 97q203 0 366 -82l-22 -80q-145 80 -338 80q-141 0 -229.5 -76t-88.5 -223z" />
    <glyph glyph-name="f_k.liga" unicode="fk" horiz-adv-x="2019" 
d="M1919 1030l-451 -430l521 -600h-99l-477 541l-207 -195v-346h-88v1264q-154 160 -381 159q-145 0 -242.5 -76.5t-97.5 -222.5v-94h498v-80h-498v-950h-88v950h-278v80h278v105q0 174 120 272t302 98q236 0 397 -145l17 121h61v-1026h6l600 575h107z" />
    <glyph glyph-name="f_t.liga" unicode="ft" horiz-adv-x="1677" 
d="M1436 59q113 0 215 41l18 -77q-2 0 -17.5 -6.5t-35 -12.5t-47 -13t-64.5 -11.5t-75 -4.5q-340 0 -340 371v604h-693v-950h-88v950h-278v80h278v105q0 176 111.5 273t294.5 97q53 0 103 -6t89 -14t77 -21.5t63.5 -25t50 -25.5t38 -23.5t27 -19.5t15.5 -10v-330h491v-80
h-491v-594q0 -154 61.5 -225.5t196.5 -71.5zM1090 1030v299q-150 100 -369 101q-150 0 -237 -75t-87 -225v-100h693z" />
    <glyph glyph-name="f_y.liga" unicode="fy" horiz-adv-x="1927" 
d="M1442 111l387 919h90l-471 -1128q-94 -223 -182 -301t-254 -78q-41 0 -115 16v84q59 -16 119 -16q135 0 203.5 67.5t146.5 251.5l25 62l-428 962h-566v-950h-90v950h-276v80h276v105q2 182 91 276t259 94q39 0 77 -4t66.5 -10t49 -12t37 -12.5t18.5 -6.5l-18 -80
q-106 43 -223 43q-135 0 -201 -72.5t-66 -226.5v-94h623l414 -919h8z" />
    <glyph glyph-name="r_f.liga" unicode="rf" horiz-adv-x="1507" 
d="M1245 1423q-268 0 -268 -299v-94h506v-80h-506v-950h-88v954q-115 14 -146 15q-246 0 -370.5 -116t-124.5 -325v-528h-88v1030h61l23 -248h8q119 270 491 271q23 0 146 -15v97q0 182 89 276t259 94q39 0 77 -4t66.5 -10t49 -12t37 -12.5t18.5 -6.5l-19 -80
q-106 43 -221 43z" />
    <glyph glyph-name="r_t.liga" unicode="rt" horiz-adv-x="1497" 
d="M1257 59q113 0 216 41l16 -77q-111 -47 -238 -48q-340 0 -340 371v604q-111 18 -168 19q-246 0 -370.5 -116t-124.5 -325v-528h-88v1030h61l23 -248h8q119 270 491 271q68 0 168 -19l17 326h71v-330h490v-80h-490v-594q0 -154 61.5 -225.5t196.5 -71.5z" />
    <glyph glyph-name="t_f.liga" unicode="tf" horiz-adv-x="1730" 
d="M1464 1423q-268 0 -268 -299v-94h508v-80h-508v-950h-88v950h-725v-594q0 -297 268 -297q106 0 205 33l6 -82q-119 -35 -219 -35q-170 0 -259 94.5t-89 276.5v604h-279v80h279l16 330h72v-330h725v105q0 182 89 276t259 94q39 0 77 -4t67.5 -11t49 -12t38.5 -12l16 -6
l-18 -80q-109 43 -222 43z" />
    <glyph glyph-name="t_t.liga" unicode="tt" horiz-adv-x="1671" 
d="M1647 100l16 -77q-111 -47 -238 -48q-340 0 -340 371v604h-710v-594q0 -297 268 -297q106 0 205 33l6 -82q-119 -35 -219 -35q-170 0 -259 94.5t-89 276.5v604h-271v80h271l16 330h72v-330h710l17 330h72v-330h489v-80h-489v-594q0 -154 61 -225.5t197 -71.5
q113 0 215 41z" />
    <glyph glyph-name=".notdef" horiz-adv-x="1116" 
d="M883 162v1110h-9l-280 -555l280 -555h9zM270 1364v-12l285 -559h6l283 561v10h-574zM844 70v10l-283 561h-6l-285 -559v-12h574zM164 1434h788v-1434h-788v1434zM233 162h9l280 555l-280 555h-9v-1110z" />
    <glyph glyph-name="glyph1" horiz-adv-x="0" 
 />
    <glyph glyph-name="glyph2" horiz-adv-x="681" 
 />
    <glyph glyph-name="glyph3" horiz-adv-x="0" 
 />
    <glyph glyph-name="glyph3" horiz-adv-x="0" 
 />
    <glyph glyph-name="uni000D" unicode="&#xd;" horiz-adv-x="530" 
 />
    <glyph glyph-name="space" unicode=" " horiz-adv-x="530" 
 />
    <glyph glyph-name="exclam" unicode="!" horiz-adv-x="409" 
d="M242 313h-72l-16 1121h104zM207 129q31 0 53.5 -22.5t22.5 -55.5q0 -29 -22.5 -52.5t-53.5 -23.5t-54.5 22.5t-23.5 53.5q0 33 22.5 55.5t55.5 22.5z" />
    <glyph glyph-name="quotedbl" unicode="&#x22;" horiz-adv-x="534" 
d="M387 1090h-45q-31 293 -31 311q0 25 15.5 40t38 15t39 -15.5t16.5 -39.5zM188 1090h-45q-31 293 -30 311q0 25 15 40t37.5 15t39 -15.5t16.5 -39.5z" />
    <glyph glyph-name="numbersign" unicode="#" horiz-adv-x="1247" 
d="M754 526l86 379h-361l-86 -379h361zM1202 905h-276l-84 -379h291v-77h-314l-102 -449h-86l102 449h-360l-105 -449h-84l103 449h-244v77h264l86 379h-282v76h303l104 453h88l-106 -453h362l105 453h86l-107 -453h258z" />
    <glyph glyph-name="dollar" unicode="$" horiz-adv-x="1296" 
d="M684 770q276 -57 391 -148.5t115 -246.5q0 -174 -136 -284.5t-368 -115.5v-184h-80v189q-129 10 -271 57t-243 115l41 77q262 -166 543 -166q184 0 300 85t116 221q0 121 -96.5 192.5t-344.5 122.5q-268 55 -384.5 144.5t-116.5 248.5q0 154 126.5 260.5t329.5 118.5v186
h80v-186q246 -8 447 -125l-35 -80q-207 117 -451 117q-184 0 -291.5 -84t-107.5 -205q0 -119 98 -188.5t338 -120.5z" />
    <glyph glyph-name="percent" unicode="%" horiz-adv-x="1771" 
d="M1339 705q156 0 263.5 -101.5t107.5 -261.5q0 -156 -103.5 -261.5t-267.5 -105.5q-154 0 -261 102.5t-107 264.5q0 152 103 257.5t265 105.5zM801 1096q0 -154 -103.5 -259.5t-265.5 -105.5q-156 0 -262.5 101.5t-106.5 263.5q0 154 102.5 258t266.5 104
q156 0 262.5 -101t106.5 -261zM1339 49q129 0 210 84t81 209q0 127 -84 207t-207 80q-129 0 -208.5 -82t-79.5 -205q0 -129 82.5 -211t205.5 -82zM143 1096q0 -129 83 -210t206 -81q129 0 210 83t81 208q0 129 -83 207.5t-208 78.5q-129 0 -209 -81.5t-80 -204.5zM1147 1434
h96l-616 -1434h-97z" />
    <glyph glyph-name="ampersand" unicode="&#x26;" horiz-adv-x="1550" 
d="M1481 659h-224q-84 -221 -194 -364v-4l78 -86q55 -59 124.5 -102.5t118.5 -43.5l-18 -84q-59 0 -140 45.5t-141 108.5l-81 90h-7q-207 -244 -475 -244q-195 0 -318.5 100.5t-123.5 260.5q0 162 100.5 266.5t272.5 185.5q0 4 2 7q-170 186 -170 342q0 125 95 222t255 97
q150 0 244 -92t94 -217q0 -117 -84 -199t-285 -170q0 -2 -1 -4t-1 -4l395 -412h7q92 121 157 293v8h-225v86h545v-86zM526 59q229 0 414 222v6l-424 442h-6q-158 -76 -246 -162t-88 -225q0 -123 97 -203t253 -80zM379 1137q0 -72 37 -140.5t129 -165.5h2l2 -2
q186 82 259 150t73 164q0 92 -69 161.5t-177 69.5q-115 0 -185.5 -72.5t-70.5 -164.5z" />
    <glyph glyph-name="quotesingle" unicode="'" horiz-adv-x="331" 
d="M188 1090h-45q-31 293 -30 311q0 25 15 40t37.5 15t39 -15.5t16.5 -39.5z" />
    <glyph glyph-name="parenleft" unicode="(" horiz-adv-x="409" 
d="M305 1497l76 -45q-92 -164 -145.5 -384t-53.5 -445q0 -438 193 -834l-80 -39q-207 393 -207 873q0 240 58.5 475t158.5 399z" />
    <glyph glyph-name="parenright" unicode=")" horiz-adv-x="407" 
d="M29 1452l75 45q100 -164 159 -399.5t59 -474.5q0 -479 -207 -873l-80 39q193 395 192 834q0 225 -53 445t-145 384z" />
    <glyph glyph-name="asterisk" unicode="*" horiz-adv-x="765" 
d="M651 1300l43 -71l-260 -125v-8l258 -129l-41 -72l-239 158l-6 -4l18 -285h-82l16 285l-6 4l-239 -158l-43 72l260 129v8l-258 125l41 76l239 -160l2 2h4l-16 287h82l-18 -287h4l2 -2z" />
    <glyph glyph-name="plus" unicode="+" horiz-adv-x="1136" 
d="M612 1092v-471h471v-89h-471v-471h-88v471h-471v89h471v471h88z" />
    <glyph glyph-name="comma" unicode="," horiz-adv-x="403" 
d="M199 123q37 0 62.5 -30t25.5 -81q0 -68 -35 -130t-86 -99l-53 43q41 29 69.5 72t30.5 82l-8 -3q-6 -2 -10 -2q-31 0 -50.5 21.5t-19.5 52.5t21.5 52.5t52.5 21.5z" />
    <glyph glyph-name="hyphen" unicode="-" horiz-adv-x="1073" 
d="M1018 702v-88h-963v88h963z" />
    <glyph glyph-name="period" unicode="." horiz-adv-x="407" 
d="M203 -25q-31 0 -53.5 22.5t-22.5 53.5t22.5 53.5t53.5 22.5q33 0 55.5 -22.5t22.5 -53.5t-22.5 -53.5t-55.5 -22.5z" />
    <glyph glyph-name="slash" unicode="/" horiz-adv-x="741" 
d="M668 1561l80 -29l-674 -1696l-80 29z" />
    <glyph glyph-name="zero" unicode="0" horiz-adv-x="1220" 
d="M610.5 1456q241.5 0 383 -203.5t141.5 -535.5t-141.5 -537t-383 -205t-383 205t-141.5 537t141.5 535.5t383 203.5zM610.5 66q200.5 0 316 179t115.5 472t-115.5 471t-316 178t-315.5 -178t-115 -471t115 -472t315.5 -179z" />
    <glyph glyph-name="one" unicode="1" horiz-adv-x="1220" 
d="M657 90h449q2 -12 2 -90h-997v90h450v1219h-6l-367 -283l-53 68l434 340h88v-1344z" />
    <glyph glyph-name="two" unicode="2" horiz-adv-x="1220" 
d="M305 96v-8h764v-88h-919v68l571 575q139 139 187 237.5t48 186.5q0 123 -92 213t-231 90q-49 0 -93 -5t-83 -16.5t-64.5 -19.5t-58.5 -27.5t-43 -26.5t-41 -30l-29 -20l-39 73q119 88 201 117q113 41 252 41q184 0 301 -110.5t117 -276.5q0 -109 -56.5 -218.5
t-212.5 -266.5z" />
    <glyph glyph-name="three" unicode="3" horiz-adv-x="1220" 
d="M745 752q127 -25 225.5 -121t98.5 -254q0 -106 -47 -188.5t-123 -126.5t-156.5 -66.5t-162.5 -22.5q-254 0 -428 129l36 76q193 -121 383 -121q68 0 134.5 17.5t128 54.5t100.5 104.5t39 155.5q0 315 -492 316h-166v90h162q451 0 451 282q0 84 -39 145.5t-101.5 91
t-121 43t-115.5 13.5q-82 0 -167 -28.5t-124 -51t-59 -41.5l-41 80q190 127 401 127q80 0 156 -19.5t147.5 -59.5t115.5 -114.5t44 -175.5q0 -127 -80 -214t-199 -113v-8z" />
    <glyph glyph-name="four" unicode="4" horiz-adv-x="1220" 
d="M936 821v-395h223v-82h-223v-344h-96v344h-754l-25 64l824 1026h116l-804 -1002v-6h643v395h96z" />
    <glyph glyph-name="five" unicode="5" horiz-adv-x="1220" 
d="M618.5 909q204.5 0 340 -128t135.5 -322q0 -205 -132.5 -344.5t-379.5 -139.5q-244 0 -457 144l29 78q203 -135 426 -136q205 0 311 115t106 279q0 162 -114.5 265t-290.5 103q-197 0 -381 -116l-55 22v705h850v-86h-756v-527l6 -4q158 92 362.5 92z" />
    <glyph glyph-name="six" unicode="6" horiz-adv-x="1220" 
d="M637 893q221 0 356 -125t135 -326q0 -193 -145 -330t-356 -137q-223 0 -371 152q-164 166 -164 549q0 336 174 558t459 222q176 0 332 -86l-29 -84q-147 82 -303 82q-229 0 -377.5 -186.5t-157.5 -462.5v-105h7q39 123 158.5 201t281.5 78zM627 55q170 0 288.5 114
t118.5 269q0 166 -112.5 270.5t-305.5 104.5q-166 0 -285.5 -110.5t-119.5 -262.5q0 -158 122 -271.5t294 -113.5z" />
    <glyph glyph-name="seven" unicode="7" horiz-adv-x="1220" 
d="M145 1350v84h928v-62l-627 -1372h-104l623 1350h-820z" />
    <glyph glyph-name="eight" unicode="8" horiz-adv-x="1220" 
d="M793 729q143 -41 228 -137t85 -225q0 -170 -141.5 -281t-356.5 -111t-355 111t-140 281q0 129 85 225t228 137v8q-121 41 -192.5 132.5t-71.5 211.5q0 164 127 269.5t319 105.5q195 0 321 -105.5t126 -269.5q0 -121 -71 -212t-191 -132v-8zM608 63q174 0 287 88.5
t113 225.5q0 135 -113 223t-287 88t-286.5 -88t-112.5 -223q0 -137 112.5 -225.5t286.5 -88.5zM256 1071q0 -131 99.5 -216t253 -85t254 85t100.5 216t-100.5 216t-254.5 85q-152 0 -252 -85t-100 -216z" />
    <glyph glyph-name="nine" unicode="9" horiz-adv-x="1220" 
d="M594 1456q225 0 373 -151q162 -164 161 -547q0 -338 -174 -560.5t-458 -222.5q-168 0 -332 91l31 81q141 -82 301 -81q231 0 378.5 185t157.5 464q0 57 -2 104h-6q-39 -125 -159 -202.5t-279 -77.5q-221 0 -357.5 126t-136.5 324q0 195 145.5 331t356.5 136zM606 618
q166 0 286 112t120 263q0 158 -123 271.5t-295 113.5q-170 0 -288 -113.5t-118 -269.5q0 -166 111.5 -271.5t306.5 -105.5z" />
    <glyph glyph-name="colon" unicode=":" horiz-adv-x="407" 
d="M203 901q-31 0 -53.5 22.5t-22.5 53.5t22.5 53.5t53.5 22.5q33 0 55.5 -22.5t22.5 -53.5t-22.5 -53.5t-55.5 -22.5zM203 -25q-31 0 -53.5 22.5t-22.5 53.5t22.5 53.5t53.5 22.5q33 0 55.5 -22.5t22.5 -53.5t-22.5 -53.5t-55.5 -22.5z" />
    <glyph glyph-name="semicolon" unicode=";" horiz-adv-x="403" 
d="M201 901q-31 0 -53.5 22.5t-22.5 53.5t22.5 53.5t53.5 22.5q33 0 55.5 -22.5t22.5 -53.5t-22.5 -53.5t-55.5 -22.5zM199 123q37 0 62.5 -30t25.5 -81q0 -68 -35 -130t-86 -99l-53 43q41 29 69.5 72t30.5 82l-8 -3q-6 -2 -10 -2q-31 0 -50.5 21.5t-19.5 52.5t21.5 52.5
t52.5 21.5z" />
    <glyph glyph-name="less" unicode="&#x3c;" horiz-adv-x="892" 
d="M53 487v66l787 354v-90l-662 -293v-8l662 -293v-88z" />
    <glyph glyph-name="equal" unicode="=" horiz-adv-x="962" 
d="M53 657v80h856v-80h-856zM53 250v78h856v-78h-856z" />
    <glyph glyph-name="greater" unicode="&#x3e;" horiz-adv-x="892" 
d="M840 553v-66l-787 -352v88l662 293v8l-662 293v90z" />
    <glyph glyph-name="question" unicode="?" horiz-adv-x="845" 
d="M336 129q33 0 55.5 -22.5t22.5 -55.5q0 -31 -22.5 -53.5t-55.5 -22.5q-31 0 -53.5 24t-22.5 52q0 33 22.5 55.5t53.5 22.5zM373 1456q184 0 294.5 -103.5t110.5 -267.5q0 -31 -3 -57.5t-12 -53t-15.5 -46t-24.5 -46t-24.5 -37.5t-31 -40t-30.5 -35t-36 -37t-32 -35
q-6 -6 -40.5 -43t-45 -48t-38 -45t-37 -55.5t-24.5 -55t-18.5 -67.5t1.5 -71h-93q-6 59 2.5 110.5t41 103t50 75t71 77.5t61.5 62q70 76 94 104.5t57 95.5t33 134q0 143 -92 222t-230 79q-164 0 -290 -121l-33 72q135 129 334 129z" />
    <glyph glyph-name="at" unicode="@" horiz-adv-x="1495" 
d="M803 1053q281 0 461 -185.5t161 -437.5q-16 -193 -108 -293t-201 -100q-84 0 -132 45t-56 117q-4 0 -8 2q-111 -164 -277 -164q-119 0 -190.5 76.5t-61.5 203.5q12 162 126 275t251 113q86 0 143.5 -43.5t75.5 -110.5h8l33 125h76l-86 -334q-14 -57 -19 -96
q-4 -70 30 -110t99 -40q84 0 157 84t85 250q16 233 -145.5 403.5t-421.5 170.5q-266 0 -464 -194t-218 -464q-20 -276 150.5 -456.5t447.5 -180.5q203 0 385 107l20 -41q-188 -117 -413 -117q-297 0 -480.5 195.5t-162.5 492.5q23 289 234.5 498t500.5 209zM952 399
q23 94 -30.5 167t-153.5 73q-111 0 -201 -93t-100 -224q-8 -100 48 -159t151 -59q106 0 181.5 84t104.5 211z" />
    <glyph glyph-name="A" unicode="A" 
d="M668 1434h106l641 -1434h-106l-156 354h-864l-158 -354h-106zM324 436h792l-391 881h-8z" />
    <glyph glyph-name="B" unicode="B" horiz-adv-x="1437" 
d="M1001 743q145 -35 232.5 -130t87.5 -228q0 -168 -135 -276.5t-342 -108.5h-680v1434h653q186 0 307 -99.5t121 -257.5q0 -113 -65.5 -197.5t-178.5 -127.5v-9zM836 88q170 0 280.5 85t110.5 222q0 135 -109.5 217t-281.5 82h-578v-606h578zM258 1346v-572h549
q150 0 246 80t96 209q0 127 -95.5 205t-246.5 78h-549z" />
    <glyph glyph-name="C" unicode="C" horiz-adv-x="1474" 
d="M895 66q289 0 485 170l37 -93q-209 -168 -522 -168q-344 0 -563 202t-219 530q0 326 221 537.5t561 211.5q244 0 438 -117q-2 -6 -13 -46t-13 -44q-184 117 -414 117q-299 0 -491.5 -187.5t-192.5 -471.5q0 -287 191.5 -464t494.5 -177z" />
    <glyph glyph-name="D" unicode="D" horiz-adv-x="1544" 
d="M729 1434q299 0 500 -203t201 -514t-201 -514t-500 -203h-565v1434h565zM729 88q258 0 431 178t173 450.5t-173 451t-431 178.5h-471v-1258h471z" />
    <glyph glyph-name="E" unicode="E" horiz-adv-x="1341" 
d="M258 672v-582h971v-90h-1065v1434h1042v-91h-948v-589h889v-82h-889z" />
    <glyph glyph-name="F" unicode="F" horiz-adv-x="1251" 
d="M164 0v1434h1020v-91h-924v-636h848v-82h-848v-625h-96z" />
    <glyph glyph-name="G" unicode="G" horiz-adv-x="1558" 
d="M836 647v84h602v-563q-238 -193 -545 -193q-344 0 -562 203t-218 526.5t222 537.5t562 214q274 0 469 -119l-35 -88q-182 117 -434 117q-299 0 -494.5 -188.5t-195.5 -473t191.5 -461.5t494.5 -177q252 0 448 151v430h-505z" />
    <glyph glyph-name="H" unicode="H" horiz-adv-x="1525" 
d="M1268 752v682h96v-1434h-96v659h-1008v-659h-96v1434h96v-682h1008z" />
    <glyph glyph-name="I" unicode="I" horiz-adv-x="421" 
d="M164 0v1434h94v-1434h-94z" />
    <glyph glyph-name="J" unicode="J" horiz-adv-x="974" 
d="M715 557l2 877h94v-885q0 -573 -514 -574q-139 0 -274 64l28 88q135 -61 256 -61q408 -1 408 491z" />
    <glyph glyph-name="K" unicode="K" horiz-adv-x="1470" 
d="M1341 1434l-624 -594l710 -840h-116l-666 776l-385 -362v-414h-96v1434h96v-902h6l955 902h120z" />
    <glyph glyph-name="L" unicode="L" horiz-adv-x="1259" 
d="M258 1434v-1344h924v-90h-1018v1434h94z" />
    <glyph glyph-name="M" unicode="M" horiz-adv-x="1755" 
d="M258 1260v-1260h-94v1434h119l591 -1284h7l592 1284h118v-1434h-94v1260h-8l-578 -1260h-67l-578 1260h-8z" />
    <glyph glyph-name="N" unicode="N" horiz-adv-x="1527" 
d="M1364 0h-96l-1000 1276h-8v-1276h-96v1434h98l1000 -1276h8v1276h94v-1434z" />
    <glyph glyph-name="O" unicode="O" horiz-adv-x="1658" 
d="M829.5 1456q311.5 0 514 -208t202.5 -531.5t-202.5 -532.5t-514 -209t-514 209t-202.5 532.5t202.5 531.5t514 208zM829 66q268 0 444.5 183t176.5 468q0 283 -175 466t-445.5 183t-446.5 -183.5t-176 -466t176 -466.5t446 -184z" />
    <glyph glyph-name="P" unicode="P" horiz-adv-x="1374" 
d="M258 532v-532h-94v1434h663q207 0 342.5 -128t135.5 -319q0 -193 -135.5 -324t-342.5 -131h-569zM258 1341v-723h559q170 0 281.5 106.5t111.5 260.5t-110.5 255t-282.5 101h-559z" />
    <glyph glyph-name="Q" unicode="Q" horiz-adv-x="1658" 
d="M1546 717q0 -289 -166 -488.5t-432 -240.5v-2q82 -70 244 -119t303 -60l-12 -88q-135 2 -298 55.5t-276 131.5q-49 31 -92 71q-307 4 -505.5 212t-198.5 528q0 324 202.5 531.5t514 207.5t514 -207.5t202.5 -531.5zM829.5 68q270.5 0 445.5 183t175 465.5t-175 466
t-445.5 183.5t-446.5 -183.5t-176 -466t176 -465.5t446.5 -183z" />
    <glyph glyph-name="R" unicode="R" horiz-adv-x="1390" 
d="M956 641q150 -41 197 -197l139 -444h-102l-135 428q-31 94 -107 137t-170 43h-518v-608h-96v1434h612q207 0 339 -112t132 -292q0 -135 -78.5 -237.5t-212.5 -145.5v-6zM764 690q168 0 277.5 92t109.5 240q0 145 -108.5 233t-278.5 88h-504v-653h504z" />
    <glyph glyph-name="S" unicode="S" horiz-adv-x="1292" 
d="M680 770q276 -57 392 -148.5t116 -246.5q0 -178 -141.5 -289t-378.5 -111q-135 0 -300 50.5t-280 126.5l41 81q268 -170 543 -170q184 0 301 86.5t117 219.5q0 121 -97.5 192.5t-343.5 122.5q-268 55 -386 144.5t-118 248.5q0 162 141.5 270.5t362.5 108.5
q264 0 479 -125l-34 -80q-205 115 -451 115q-182 0 -290.5 -83t-108.5 -204q0 -117 98 -187.5t338 -121.5z" />
    <glyph glyph-name="T" unicode="T" horiz-adv-x="1273" 
d="M1208 1434v-91h-524v-1343h-94v1343h-524v91h1142z" />
    <glyph glyph-name="U" unicode="U" horiz-adv-x="1523" 
d="M762 -25q-264 0 -431 155t-167 413v891h94v-891q0 -219 140.5 -348t363.5 -129t363.5 129t140.5 348v891h94v-891q0 -258 -168 -413t-430 -155z" />
    <glyph glyph-name="V" unicode="V" horiz-adv-x="1437" 
d="M774 0h-110l-639 1434h102l588 -1317h8l586 1317h104z" />
    <glyph glyph-name="W" unicode="W" horiz-adv-x="1994" 
d="M1862 1434h100l-446 -1434h-117l-398 1274h-8l-397 -1274h-117l-446 1434h100l402 -1301h8l401 1301h107l401 -1301h8z" />
    <glyph glyph-name="X" unicode="X" horiz-adv-x="1361" 
d="M31 0l583 731l-561 703h113l512 -633h4l512 633h115l-564 -703l584 -731h-112l-535 664h-4l-535 -664h-112z" />
    <glyph glyph-name="Y" unicode="Y" horiz-adv-x="1361" 
d="M684 688l539 746h114l-610 -850v-584h-96v586l-606 848h112l539 -746h8z" />
    <glyph glyph-name="Z" unicode="Z" horiz-adv-x="1331" 
d="M236 96v-6h999v-90h-1139v74l979 1263v6h-948v91h1083v-78z" />
    <glyph glyph-name="bracketleft" unicode="[" horiz-adv-x="428" 
d="M158 1419v-1591h241v-80h-329v1749h329v-78h-241z" />
    <glyph glyph-name="backslash" unicode="\" horiz-adv-x="741" 
d="M-6 1532l80 29l674 -1696l-80 -29z" />
    <glyph glyph-name="bracketright" unicode="]" horiz-adv-x="428" 
d="M270 -172v1591h-241v78h329v-1749h-329v80h241z" />
    <glyph glyph-name="asciicircum" unicode="^" horiz-adv-x="698" 
d="M352 1366h-6l-229 -313h-84l278 381h76l279 -381h-86z" />
    <glyph glyph-name="underscore" unicode="_" horiz-adv-x="1142" 
d="M1155 -25v-90h-1167v90h1167z" />
    <glyph glyph-name="grave" unicode="`" horiz-adv-x="335" 
d="M-6 1468h108l240 -284h-92z" />
    <glyph glyph-name="a" unicode="a" horiz-adv-x="1183" 
d="M516 -23q-182 0 -296 96.5t-114 241.5q0 152 127 245t375 93q172 0 328 -39v56q0 150 -89 224.5t-280 74.5q-37 0 -75.5 -4t-71.5 -11.5t-62.5 -15.5t-53 -15.5t-41 -14.5t-25.5 -11l-11 -4l-30 76l8 2q6 4 17 9t28.5 11t38 13.5t44 14.5t52.5 13t57.5 10.5t62.5 7.5
t66 3q223 0 338 -93.5t115 -293.5v-666h-59l-23 223h-4q-55 -115 -162.5 -180.5t-259.5 -65.5zM616 578q-207 0 -313 -72t-106 -189q0 -115 90 -189.5t243 -74.5q176 0 290 120t114 294v72q-132 39 -318 39z" />
    <glyph glyph-name="b" unicode="b" horiz-adv-x="1304" 
d="M700 1053q213 0 356.5 -151.5t143.5 -387t-144.5 -387.5t-355.5 -152q-147 0 -267 78t-181 211h-6l-25 -264h-61v1481h90v-711h4q61 131 180 207t266 76zM680 61q182 0 306 127t124 326t-124 327t-306 128t-306 -127t-124 -328q0 -199 124 -326t306 -127z" />
    <glyph glyph-name="c" unicode="c" horiz-adv-x="1085" 
d="M684 61q190 0 326 97l10 -88q-145 -94 -336 -95q-248 0 -415 152t-167 387q0 238 166 388.5t414 150.5q168 0 297 -70l-25 -80q-125 66 -272 66q-207 0 -348 -128t-141 -327q0 -197 142 -325t349 -128z" />
    <glyph glyph-name="d" unicode="d" horiz-adv-x="1302" 
d="M622.5 61q182.5 0 306.5 127t124 326q0 201 -124 328t-306.5 127t-306 -128t-123.5 -327t123.5 -326t306 -127zM602 1053q147 0 266 -76t181 -207h4v711h90v-1481h-62l-24 264h-6q-61 -133 -181 -211t-268 -78q-211 0 -355.5 152t-144.5 387.5t143.5 387t356.5 151.5z
" />
    <glyph glyph-name="e" unicode="e" horiz-adv-x="1277" 
d="M639 1053q229 0 383 -150.5t154 -388.5q0 -10 -5 -51h-978q18 -180 153 -291t342 -111q236 0 373 121l20 -84q-147 -123 -393 -123q-264 0 -425 149.5t-161 389.5q0 236 155 387.5t382 151.5zM193 547h892q-2 184 -131 303t-315 119q-182 0 -309 -118t-137 -304z" />
    <glyph glyph-name="f" unicode="f" horiz-adv-x="929" 
d="M905 946h-508v-946h-88v946h-278v84h278v105q0 182 89 276t259 94q39 0 77 -4t66.5 -10t49 -12t37 -12.5t18.5 -6.5l-18 -80q-106 43 -221 43q-137 0 -203 -72.5t-66 -226.5v-94h508v-84z" />
    <glyph glyph-name="g" unicode="g" horiz-adv-x="1273" 
d="M1169 -92q0 -150 -156.5 -267.5t-402.5 -117.5q-125 0 -230.5 30.5t-181 108.5t-75.5 193q0 76 42 140t114 103v4q-178 47 -179 195q0 70 41 123t95 82v4q-70 82 -70 192q0 156 130 255.5t337 99.5q141 0 254 -52q51 59 122.5 91t141.5 24v-78q-111 6 -201 -67v-6
q147 -102 148 -267q0 -156 -129 -252t-338 -96q-213 0 -346 107q-96 -61 -97 -144q0 -72 65.5 -110.5t178.5 -38.5h416q147 -2 234 -66.5t87 -189.5zM207 -131q0 -98 70.5 -162.5t156.5 -86t180 -21.5q203 0 335 93t132 206q0 98 -71.5 144t-182.5 46h-456q-68 -31 -116 -87
t-48 -132zM633 979q-170 0 -274.5 -80t-104.5 -203q0 -121 105.5 -197.5t271.5 -76.5q170 -2 274.5 74.5t104.5 199.5t-106.5 203t-270.5 80z" />
    <glyph glyph-name="h" unicode="h" horiz-adv-x="1323" 
d="M680 1053q205 0 344 -146.5t139 -371.5v-535h-88v532q0 190 -119.5 313.5t-293.5 123.5q-172 0 -293 -123t-121 -307v-539h-88v1481h88v-709h6q55 131 169 206t257 75z" />
    <glyph glyph-name="i" unicode="i" horiz-adv-x="417" 
d="M164 0v1030h90v-1030h-90zM209 1460q33 0 55.5 -22.5t22.5 -55.5q0 -31 -22.5 -53t-55.5 -22t-55.5 22.5t-22.5 52.5q0 33 22.5 55.5t55.5 22.5z" />
    <glyph glyph-name="j" unicode="j" horiz-adv-x="434" 
d="M182 -94v1124h88v-1136q0 -371 -333 -371q-59 0 -142 12l8 82q74 -12 125 -12q135 0 194.5 72.5t59.5 228.5zM225.5 1460q32.5 0 55 -22.5t22.5 -55.5q0 -31 -22.5 -53t-55 -22t-55.5 22.5t-23 52.5q0 33 23 55.5t55.5 22.5z" />
    <glyph glyph-name="k" unicode="k" horiz-adv-x="1060" 
d="M961 1030l-451 -430l520 -600h-98l-477 541l-207 -197v-344h-88v1481h88v-1026h6l600 575h107z" />
    <glyph glyph-name="l" unicode="l" horiz-adv-x="407" 
d="M160 0v1481h88v-1481h-88z" />
    <glyph glyph-name="m" unicode="m" horiz-adv-x="1943" 
d="M1784 0h-88v612q0 158 -98.5 258.5t-241.5 100.5q-145 0 -242.5 -103.5t-97.5 -253.5v-614h-88v612q0 164 -90 261.5t-248 97.5q-141 0 -241.5 -94.5t-100.5 -241.5v-635h-88v1030h61l19 -209h8q49 109 145 172.5t217 63.5q137 0 235.5 -69.5t141.5 -190.5h8
q47 121 148.5 190.5t230.5 69.5q172 0 291 -125t119 -318v-614z" />
    <glyph glyph-name="n" unicode="n" horiz-adv-x="1323" 
d="M1075 532q0 190 -119.5 313.5t-294 123.5t-294 -123t-119.5 -314v-532h-88v1030h61l23 -258h6q59 131 174 206t258 75q205 0 343 -146.5t138 -371.5v-535h-88v532z" />
    <glyph glyph-name="o" unicode="o" horiz-adv-x="1284" 
d="M641 1053q229 0 385 -151.5t156 -387t-156 -386.5t-385 -151t-384 151t-155 386.5t156 387t383 151.5zM641 63q190 0 320.5 126t130.5 325t-130.5 327t-320.5 128t-320.5 -128t-130.5 -327t130.5 -325t320.5 -126z" />
    <glyph glyph-name="p" unicode="p" horiz-adv-x="1296" 
d="M680 967q-182 0 -306 -127t-124 -326q0 -201 124 -328t306 -127t306 128t124 327t-124 326t-306 127zM700 -25q-147 0 -266 76t-180 207h-4v-713h-90v1483h61l25 -264h6q61 133 181 211t267 78q211 0 355.5 -151.5t144.5 -387t-143.5 -387.5t-356.5 -152z" />
    <glyph glyph-name="q" unicode="q" horiz-adv-x="1296" 
d="M596 -25q-213 0 -356.5 152t-143.5 387.5t144.5 387t355.5 151.5q147 0 267 -78t181 -211h7l24 264h62v-1483h-90v713h-5q-61 -131 -180 -207t-266 -76zM616.5 967q-182.5 0 -306.5 -127t-124 -326t124 -327t306.5 -128t306.5 127t124 328q0 199 -124 326t-306.5 127z
" />
    <glyph glyph-name="r" unicode="r" horiz-adv-x="718" 
d="M252 772q59 129 174 205t256 76v-84q-180 0 -307 -123t-127 -316v-530h-88v1030h61l23 -258h8z" />
    <glyph glyph-name="s" unicode="s" horiz-adv-x="978" 
d="M877 262q0 -125 -101.5 -206t-267.5 -81q-262 0 -434 142l35 71q182 -137 397 -137q129 0 205.5 57.5t76.5 151.5q0 90 -65.5 138t-241.5 85q-197 41 -278.5 108.5t-81.5 184.5t99 197t261 80q106 0 208 -30t155 -62l-27 -74q-147 90 -336 90q-125 0 -198.5 -58.5
t-73.5 -142.5q0 -82 64.5 -131t240.5 -86q197 -43 280 -111.5t83 -185.5z" />
    <glyph glyph-name="t" unicode="t" horiz-adv-x="925" 
d="M643 59q113 0 215 41l19 -77q-2 0 -26 -9.5t-49.5 -16.5t-71.5 -14.5t-93 -7.5q-340 0 -340 371v604h-277v80h277l16 322h72v-322h492v-80h-492v-594q0 -154 61.5 -225.5t196.5 -71.5z" />
    <glyph glyph-name="u" unicode="u" horiz-adv-x="1323" 
d="M248 1030v-532q0 -190 119.5 -313.5t294 -123.5t294 123t119.5 314v532h88v-1030h-61l-23 258h-6q-59 -131 -174 -206t-258 -75q-205 0 -343 146.5t-138 372.5v534h88z" />
    <glyph glyph-name="v" unicode="v" horiz-adv-x="1032" 
d="M520 111l410 919h94l-459 -1030h-98l-459 1030h94l410 -919h8z" />
    <glyph glyph-name="w" unicode="w" horiz-adv-x="1585" 
d="M1167 111l297 919h92l-333 -1030h-107l-319 901h-9l-321 -901h-107l-331 1030h92l295 -919h6l326 919h88l327 -919h4z" />
    <glyph glyph-name="x" unicode="x" horiz-adv-x="1042" 
d="M993 1030l-409 -502l430 -528h-107l-383 469h-4l-385 -469h-106l432 528l-410 502h103l366 -448h4l365 448h104z" />
    <glyph glyph-name="y" unicode="y" horiz-adv-x="1038" 
d="M938 1030h92l-473 -1128q-94 -223 -181 -301t-255 -78q-43 0 -113 16v84q59 -16 117 -16q135 0 203.5 67.5t146.5 251.5l33 78l-457 1026h94l408 -905h6z" />
    <glyph glyph-name="z" unicode="z" horiz-adv-x="1173" 
d="M1065 74v-74h-956v63l778 893h-717v74h840v-61l-779 -895h834z" />
    <glyph glyph-name="braceleft" unicode="{" horiz-adv-x="436" 
d="M246 815q-4 -88 -28.5 -130t-92.5 -60v-4q68 -16 93.5 -58.5t27.5 -130.5l22 -473q4 -70 41 -108.5t99 -34.5l-2 -76q-104 -8 -161 48t-61 151l-22 493q-2 33 -7 53.5t-19.5 44t-46.5 36t-83 18.5v80q68 6 102.5 30.5t43 49t10.5 71.5l22 494q4 94 60.5 150.5t161.5 47.5
l2 -75q-61 4 -98.5 -35t-41.5 -109z" />
    <glyph glyph-name="bar" unicode="|" horiz-adv-x="411" 
d="M164 -252v1749h86v-1749h-86z" />
    <glyph glyph-name="braceright" unicode="}" horiz-adv-x="436" 
d="M190 815l-22 473q-4 70 -41 109t-98 35l2 75q104 8 160.5 -48t60.5 -150l22 -494q2 -47 10.5 -71.5t43 -49t102.5 -30.5v-80q-51 -6 -83 -18.5t-46 -36t-19.5 -44t-7.5 -53.5l-22 -493q-4 -94 -60.5 -150.5t-160.5 -48.5l-2 76q61 -4 98 34.5t41 108.5l22 473
q2 88 28 130t93 59v4q-68 18 -92.5 60t-28.5 130z" />
    <glyph glyph-name="asciitilde" unicode="~" horiz-adv-x="849" 
d="M119 631l-70 26q61 154 205 154q74 0 180 -53q10 -4 30.5 -14.5t34 -16.5t32 -13t35 -10.5t32.5 -3.5q92 0 135 103l68 -25q-27 -76 -82 -116.5t-115 -40.5q-18 0 -36.5 3t-33 7t-35 13t-30.5 14.5t-32.5 16.5t-30.5 15q-86 43 -146 43q-94 0 -141 -102z" />
    <glyph glyph-name="uni007F" horiz-adv-x="0" 
 />
    <glyph glyph-name="uni00A0" unicode="&#xa0;" horiz-adv-x="0" 
 />
    <glyph glyph-name="exclamdown" unicode="&#xa1;" horiz-adv-x="409" 
d="M170 715h72l16 -1121h-104zM207 899q-33 0 -55.5 22.5t-22.5 55.5q0 31 23.5 53.5t54.5 22.5t53.5 -23.5t22.5 -52.5q0 -33 -22.5 -55.5t-53.5 -22.5z" />
    <glyph glyph-name="cent" unicode="&#xa2;" horiz-adv-x="1095" 
d="M645 252q205 0 338 139l47 -65q-141 -147 -364 -158v-168h-84v172q-207 23 -343.5 174.5t-136.5 370.5q0 221 135.5 371.5t344.5 173.5v172h84v-168q221 -10 364 -160l-47 -66q-131 141 -336 142q-193 0 -325 -133.5t-132 -332t132.5 -331.5t322.5 -133z" />
    <glyph glyph-name="sterling" unicode="&#xa3;" horiz-adv-x="1075" 
d="M211 86v-6h850v-80h-995l-3 57q102 55 162 152.5t60 208.5q0 53 -35 200h-219v78h200q-45 178 -53 293q-14 211 107 339t327 128q225 0 363 -119l-31 -75q-123 111 -317 110q-174 0 -270.5 -112.5t-84.5 -280.5q8 -119 52 -283h651v-78h-633q33 -131 33 -192
q0 -207 -164 -340z" />
    <glyph glyph-name="currency" unicode="&#xa4;" horiz-adv-x="1257" 
d="M1139 1276l61 -62l-178 -178q117 -143 117 -334q0 -193 -117 -331l178 -181l-61 -61l-181 180q-139 -117 -331.5 -116.5t-331.5 116.5l-180 -180l-62 61l180 181q-117 137 -116 334q0 193 114 329l-178 180l62 62l180 -178q137 115 334 114q193 0 329 -114zM1049 702.5
q0 186.5 -122 306t-300 119.5t-299 -119.5t-121 -306.5q-2 -184 120 -303.5t300 -119.5t300 118.5t122 305z" />
    <glyph glyph-name="yen" unicode="&#xa5;" horiz-adv-x="1136" 
d="M1004 1434h108l-487 -818v-4h432v-63h-447v-176h447v-64h-447v-309h-88v309h-436v64h436v176h-436v63h424v4l-485 818h106l432 -744h6z" />
    <glyph glyph-name="brokenbar" unicode="&#xa6;" horiz-adv-x="411" 
d="M164 862v635h86v-635h-86zM164 -252v637h86v-637h-86z" />
    <glyph glyph-name="section" unicode="&#xa7;" horiz-adv-x="983" 
d="M698 362q150 -84 150 -231q0 -131 -102.5 -216t-270.5 -85q-236 0 -401 133l35 82q160 -125 364 -125q115 0 195 55.5t80 151.5q0 49 -18.5 85t-68 65.5t-83 44t-115.5 45.5q-100 35 -148.5 56t-113 60t-92 88.5t-27.5 116.5q0 90 51 156.5t141 95.5q-141 84 -141 231
q0 125 93 205t249 80q164 0 303 -61l-18 -90q-141 61 -279 61q-106 0 -177 -50t-71 -142q0 -49 19.5 -85t66 -66t80 -44t107.5 -43q201 -76 256 -111q115 -76 115 -211q-1 -178 -179 -252zM489 455q16 -6 57.5 -22.5t63.5 -24.5q78 20 125 71t47 125q0 63 -40 108.5
t-79.5 64t-144.5 57.5q-25 10 -37 14q-92 35 -112 43q-84 -12 -138.5 -63.5t-54.5 -127.5q0 -47 20.5 -82.5t69.5 -65.5t93 -48t130 -49z" />
    <glyph glyph-name="dieresis" unicode="&#xa8;" horiz-adv-x="419" 
d="M295 1333q0 33 20.5 54.5t53 21.5t53 -21.5t20.5 -54.5q0 -31 -20.5 -51t-53 -20t-53 20t-20.5 51zM-23 1333q0 33 21.5 54.5t54.5 21.5q31 0 51.5 -21.5t20.5 -54.5q0 -29 -20.5 -50t-51.5 -21q-33 0 -54.5 20t-21.5 51z" />
    <glyph glyph-name="copyright" unicode="&#xa9;" horiz-adv-x="1595" 
d="M842 385q152 0 254 86l14 -72q-113 -84 -270 -84q-186 0 -304 108.5t-118 287.5q0 176 118.5 290.5t303.5 114.5q135 0 235 -59q0 -16 -18 -72q-94 61 -217 62q-152 0 -249 -96.5t-97 -239.5q0 -145 97 -235.5t251 -90.5zM797 1456q311 0 512.5 -209t201.5 -530
q0 -324 -201.5 -533t-512.5 -209q-309 0 -511 209t-202 533q0 322 202 530.5t511 208.5zM797 35q285 0 470 192.5t185 489.5t-185.5 488.5t-469.5 191.5q-283 0 -468.5 -192.5t-185.5 -487.5q0 -297 185.5 -489.5t468.5 -192.5z" />
    <glyph glyph-name="ordfeminine" unicode="&#xaa;" horiz-adv-x="770" 
d="M367 1456q276 0 276 -237v-392h-41l-16 121h-4q-78 -131 -250 -131q-111 0 -177.5 55.5t-66.5 141.5q0 90 75 147.5t222 57.5q106 0 193 -23v27q0 172 -216 172q-47 0 -97 -11.5t-77 -23.5l-26 -10l-23 55q103 51 228 51zM346 872q100 0 164.5 63.5t64.5 164.5v43
q-76 23 -182 22q-119 0 -179 -41t-60 -108q0 -63 51 -103.5t141 -40.5z" />
    <glyph glyph-name="guillemotleft" unicode="&#xab;" horiz-adv-x="862" 
d="M702 1026h105l-272 -395l272 -400h-105l-270 400zM328 1026h102l-270 -395l270 -400h-102l-273 400z" />
    <glyph glyph-name="logicalnot" unicode="&#xac;" horiz-adv-x="1097" 
d="M53 614v88h985v-389h-88v301h-897z" />
    <glyph glyph-name="uni00AD" unicode="&#xad;" horiz-adv-x="1073" 
d="M1018 758v-88h-963v88h963z" />
    <glyph glyph-name="registered" unicode="&#xae;" horiz-adv-x="1597" 
d="M971 670q78 -23 104 -107l78 -237h-84l-76 229q-29 90 -143 90h-250v-319h-76v774h342q115 0 186.5 -60.5t71.5 -160.5q0 -72 -42 -127.5t-111 -79.5v-2zM858 709q84 0 137.5 45t53.5 116.5t-53.5 115.5t-137.5 44h-258v-321h258zM798.5 1456q309.5 0 512 -209
t202.5 -530q0 -324 -202.5 -533t-512 -209t-512 209t-202.5 533q0 322 202.5 530.5t512 208.5zM798.5 35q282.5 0 468 192.5t185.5 489.5q0 295 -185.5 487.5t-468 192.5t-468 -192.5t-185.5 -487.5q0 -297 185.5 -489.5t468 -192.5z" />
    <glyph glyph-name="macron" unicode="&#xaf;" horiz-adv-x="532" 
d="M-6 1364h545v-70h-545v70z" />
    <glyph glyph-name="degree" unicode="&#xb0;" horiz-adv-x="587" 
d="M293 1456q104 0 177 -67.5t73 -176.5q0 -104 -70 -174.5t-180 -70.5q-104 0 -176 68.5t-72 176.5q0 102 69.5 173t178.5 71zM295 1026q80 0 130 53.5t50 130.5q0 82 -52 133.5t-128 51.5q-80 0 -130 -53.5t-50 -131.5q0 -82 52 -133t128 -51z" />
    <glyph glyph-name="plusminus" unicode="&#xb1;" horiz-adv-x="1148" 
d="M1096 811v-82h-478v-471h-88v471h-477v82h477v469h88v-469h478zM1096 82v-82h-1043v82h1043z" />
    <glyph glyph-name="uni00B2" unicode="&#xb2;" horiz-adv-x="790" 
d="M221 780v-4h471v-63h-592v49l359 334q152 139 151 243q0 70 -59 119t-145 49q-68 0 -127.5 -18.5t-76 -29.5t-55.5 -38l-28 56q43 29 65.5 42t86 32.5t137.5 19.5q123 0 198.5 -64.5t75.5 -167.5q0 -66 -37 -130t-137 -156z" />
    <glyph glyph-name="uni00B3" unicode="&#xb3;" horiz-adv-x="796" 
d="M492 1161q84 -16 146 -72.5t62 -148.5q0 -121 -99 -181.5t-226 -60.5q-145 -2 -287 76l27 57q121 -72 254 -69q100 0 180 46t80 140q0 182 -312 182h-116v60h114q283 0 283 162q0 90 -77 129t-167 39q-121 0 -229 -72l-25 55q121 80 262 80q119 0 213.5 -54t94.5 -167
q0 -76 -50.5 -128t-127.5 -69v-4z" />
    <glyph glyph-name="acute" unicode="&#xb4;" horiz-adv-x="335" 
d="M231 1468h111l-256 -284h-92z" />
    <glyph glyph-name="mu" unicode="&#xb5;" horiz-adv-x="1331" 
d="M1081 1030h90v-1030h-63l-23 252h-6q-59 -127 -175 -202t-257 -75q-123 0 -224 55.5t-167 153.5h-8v-639h-88v1485h94v-532q0 -190 120 -313.5t294 -125.5q174 0 293.5 124t119.5 315v532z" />
    <glyph glyph-name="paragraph" unicode="&#xb6;" horiz-adv-x="1175" 
d="M406 1434h610v-1700h-76v1624h-221v-1624h-74v1028h-239q-154 0 -255.5 98t-101.5 242q0 141 101.5 236.5t255.5 95.5z" />
    <glyph glyph-name="periodcentered" unicode="&#xb7;" horiz-adv-x="407" 
d="M203 641q-31 0 -53.5 22.5t-22.5 53.5t22.5 53.5t53.5 22.5q33 0 55.5 -22.5t22.5 -53.5t-22.5 -53.5t-55.5 -22.5z" />
    <glyph glyph-name="cedilla" unicode="&#xb8;" horiz-adv-x="303" 
d="M143 -84q68 -4 117 -48t49 -113.5t-53 -113.5t-141 -44q-57 0 -121 18l16 61q43 -16 96.5 -16t89 24.5t35.5 69.5q0 47 -37.5 79t-117.5 32l-13 45l54 94h78l-52 -86v-2z" />
    <glyph glyph-name="uni00B9" unicode="&#xb9;" horiz-adv-x="421" 
d="M29 1397l213 170h63v-854h-69v764h-5l-165 -129z" />
    <glyph glyph-name="ordmasculine" unicode="&#xba;" horiz-adv-x="817" 
d="M408 1456q139 0 232 -90t93 -231.5t-93 -231.5t-232 -90q-137 0 -230.5 90t-93.5 231.5t93.5 231.5t230.5 90zM407.5 874q108.5 0 183.5 74t75 186.5t-75 186.5t-183.5 74t-182 -73t-75.5 -187q0 -113 74.5 -187t183 -74z" />
    <glyph glyph-name="guillemotright" unicode="&#xbb;" horiz-adv-x="862" 
d="M432 1026h103l272 -395l-272 -400h-103l270 400zM55 1026h105l270 -395l-270 -400h-105l273 400z" />
    <glyph glyph-name="onequarter" unicode="&#xbc;" horiz-adv-x="1499" 
d="M29 1264l213 170h63v-854h-69v763h-5l-165 -129zM1235 1432l57 -48l-1067 -1374l-57 47zM1288 854v-594h133v-59h-133v-201h-71v201h-467l-25 49l504 604h59zM1217 260v488h-5l-395 -484v-4h400z" />
    <glyph glyph-name="onehalf" unicode="&#xbd;" horiz-adv-x="1587" 
d="M29 1264l213 170h63v-854h-69v763h-5l-165 -129zM1202 1432l58 -48l-1067 -1374l-58 47zM1018 68v-5h471v-63h-592v49l358 334q152 139 152 244q0 70 -59.5 119t-145.5 49q-68 0 -127 -18.5t-75.5 -30t-55.5 -37.5l-29 55q43 29 66 42t86 32.5t137 19.5q123 0 199 -64.5
t76 -166.5q0 -66 -37 -130.5t-137 -156.5z" />
    <glyph glyph-name="threequarters" unicode="&#xbe;" horiz-adv-x="1855" 
d="M492 1028q84 -16 146 -72.5t62 -148.5q0 -121 -99 -181.5t-226 -60.5q-145 -2 -287 76l27 57q121 -72 254 -69q100 0 180 46t80 140q0 182 -312 182h-116v60h114q283 0 283 162q0 90 -77 128.5t-167 38.5q-121 0 -229 -71l-25 55q121 80 262 80q119 0 213.5 -54.5
t94.5 -166.5q0 -76 -50.5 -128t-127.5 -69v-4zM1522 1432l57 -48l-1067 -1374l-57 47zM1645 854v-594h133v-59h-133v-201h-72v201h-467l-25 49l504 604h60zM1573 260v488h-4l-395 -484v-4h399z" />
    <glyph glyph-name="questiondown" unicode="&#xbf;" horiz-adv-x="700" 
d="M510 899q-33 0 -55.5 22.5t-22.5 55.5q0 31 23.5 53.5t54.5 22.5t53.5 -23.5t22.5 -52.5q0 -33 -22.5 -55.5t-53.5 -22.5zM473 -428q-184 0 -294.5 103.5t-110.5 267.5q0 31 3 57.5t12 53t15 46t24.5 46t25 38t31 40t30.5 34.5t35.5 37t31.5 35q6 6 41 43t45.5 48t38 45
t36.5 55.5t24.5 55t18.5 67.5t-1 71h92q6 -59 -2 -110.5t-40.5 -102.5t-50 -75t-71 -78t-61.5 -62q-70 -76 -94.5 -104.5t-57 -95.5t-32.5 -134q0 -143 92 -222t229 -79q164 0 291 121l33 -72q-135 -129 -334 -129z" />
    <glyph glyph-name="Agrave" unicode="&#xc0;" 
d="M668 1434h106l641 -1434h-106l-156 354h-864l-158 -354h-106zM324 436h792l-391 881h-8zM408 1872h108l240 -285h-92z" />
    <glyph glyph-name="Aacute" unicode="&#xc1;" 
d="M668 1434h106l641 -1434h-106l-156 354h-864l-158 -354h-106zM324 436h792l-391 881h-8zM909 1849h111l-256 -284h-92z" />
    <glyph glyph-name="Acircumflex" unicode="&#xc2;" 
d="M668 1434h106l641 -1434h-106l-156 354h-864l-158 -354h-106zM324 436h792l-391 881h-8zM928 1585l-199 230h-4l-199 -230h-88l246 287h82l250 -287h-88z" />
    <glyph glyph-name="Atilde" unicode="&#xc3;" 
d="M668 1434h106l641 -1434h-106l-156 354h-864l-158 -354h-106zM324 436h792l-391 881h-8zM872 1626q-16 0 -32.5 4t-28.5 8t-31.5 14.5t-25.5 14.5t-29 19.5t-27 17.5q-76 51 -120 51q-82 0 -117 -119l-64 19q41 172 172 172q66 0 154 -60q8 -4 27.5 -18t30 -20.5
t26.5 -14.5t29.5 -12t27.5 -4q82 0 113 119l61 -19q-18 -86 -63.5 -129t-102.5 -43z" />
    <glyph glyph-name="Adieresis" unicode="&#xc4;" 
d="M668 1434h106l641 -1434h-106l-156 354h-864l-158 -354h-106zM324 436h792l-391 881h-8zM825 1735q0 33 20.5 54t53.5 21t53.5 -21.5t20.5 -53.5q0 -31 -21.5 -51.5t-52.5 -20.5t-52.5 20.5t-21.5 51.5zM508 1735q0 33 21.5 54t54.5 21q31 0 51 -21.5t20 -53.5
q0 -29 -20.5 -50.5t-50.5 -21.5q-33 0 -54.5 20.5t-21.5 51.5z" />
    <glyph glyph-name="Aring" unicode="&#xc5;" 
d="M668 1434h106l641 -1434h-106l-156 354h-864l-158 -354h-106zM324 436h792l-391 881h-8zM563 1731q0 68 49.5 114.5t120.5 46.5q70 0 119 -47t49 -114q0 -66 -49 -113t-118.5 -47t-120 47t-50.5 113zM834 1733q0 41 -30 70.5t-73 29.5q-41 0 -69.5 -30.5t-28.5 -71.5
t28.5 -70t71.5 -29q41 0 71 30t30 71z" />
    <glyph glyph-name="AE" unicode="&#xc6;" horiz-adv-x="2244" 
d="M1157 672v-582h971v-90h-1067v354h-676l-252 -354h-110l1011 1434h1069v-91h-946v-589h889v-82h-889zM438 436h623v881h-2z" />
    <glyph glyph-name="Ccedilla" unicode="&#xc7;" horiz-adv-x="1474" 
d="M758 -84q68 -4 117 -48t49 -113.5t-53.5 -113.5t-141.5 -44q-57 0 -121 18l17 61q43 -16 96 -16t89 24.5t36 69.5q0 47 -38 79t-118 32l-12 45l45 80q-276 49 -443 241.5t-167 475.5q0 326 221 537.5t561 211.5q244 0 438 -117q-2 -6 -13 -46t-13 -44q-184 117 -414 117
q-299 0 -491.5 -187.5t-192.5 -471.5q0 -287 191.5 -464t494.5 -177q289 0 485 170l37 -93q-209 -168 -522 -168q-51 0 -100 7l-37 -64v-2z" />
    <glyph glyph-name="Egrave" unicode="&#xc8;" horiz-adv-x="1341" 
d="M258 672v-582h971v-90h-1065v1434h1042v-91h-948v-589h889v-82h-889zM422 1872h108l240 -285h-92z" />
    <glyph glyph-name="Eacute" unicode="&#xc9;" horiz-adv-x="1341" 
d="M258 672v-582h971v-90h-1065v1434h1042v-91h-948v-589h889v-82h-889zM860 1872h111l-256 -285h-92z" />
    <glyph glyph-name="Ecircumflex" unicode="&#xca;" horiz-adv-x="1341" 
d="M258 672v-582h971v-90h-1065v1434h1042v-91h-948v-589h889v-82h-889zM881 1585l-199 230h-4l-199 -230h-88l246 287h82l250 -287h-88z" />
    <glyph glyph-name="Edieresis" unicode="&#xcb;" horiz-adv-x="1341" 
d="M258 672v-582h971v-90h-1065v1434h1042v-91h-948v-589h889v-82h-889zM778 1735q0 33 20.5 54t53.5 21t53.5 -21.5t20.5 -53.5q0 -31 -20.5 -51.5t-53.5 -20.5t-53.5 20.5t-20.5 51.5zM461 1735q0 33 21.5 54t54.5 21q31 0 51 -21.5t20 -53.5q0 -29 -20.5 -50.5
t-50.5 -21.5q-33 0 -54.5 20.5t-21.5 51.5z" />
    <glyph glyph-name="Igrave" unicode="&#xcc;" horiz-adv-x="423" 
d="M166 0v1434h94v-1434h-94zM-90 1872h108l240 -285h-92z" />
    <glyph glyph-name="Iacute" unicode="&#xcd;" horiz-adv-x="350" 
d="M127 0v1434h94v-1434h-94zM356 1872h111l-256 -285h-92z" />
    <glyph glyph-name="Icircumflex" unicode="&#xce;" horiz-adv-x="509" 
d="M186 0v1434h95v-1434h-95zM457 1585l-199 230h-4l-199 -230h-88l246 287h82l250 -287h-88z" />
    <glyph glyph-name="Idieresis" unicode="&#xcf;" horiz-adv-x="339" 
d="M117 0v1434h94v-1434h-94zM256 1735q0 33 20.5 54t53 21t53 -21.5t20.5 -53.5q0 -31 -21.5 -51.5t-52 -20.5t-52 20.5t-21.5 51.5zM-61 1735q0 33 21.5 54t53.5 21q31 0 51.5 -21.5t20.5 -53.5q0 -29 -20.5 -50.5t-51.5 -21.5q-33 0 -54 20.5t-21 51.5z" />
    <glyph glyph-name="Eth" unicode="&#xd0;" horiz-adv-x="1697" 
d="M883 1434q301 0 501.5 -203t200.5 -514t-200.5 -514t-501.5 -203h-566v672h-301v90h301v672h566zM883 88q258 0 431 178t173 450.5t-173 451t-431 178.5h-469v-584h399v-90h-399v-584h469z" />
    <glyph glyph-name="Ntilde" unicode="&#xd1;" horiz-adv-x="1527" 
d="M1364 0h-96l-1000 1276h-8v-1276h-96v1434h98l1000 -1276h8v1276h94v-1434zM901 1626q-16 0 -32.5 4t-29 8t-32 14.5t-25.5 14.5t-28.5 19.5t-26.5 17.5q-78 51 -121 51q-82 0 -117 -119l-63 19q41 172 172 172q66 0 154 -60q8 -4 27.5 -18t29.5 -20.5t26.5 -14.5t30 -12
t27.5 -4q82 0 113 119l61 -19q-18 -86 -63.5 -129t-102.5 -43z" />
    <glyph glyph-name="Ograve" unicode="&#xd2;" horiz-adv-x="1658" 
d="M829.5 1456q311.5 0 514 -208t202.5 -531.5t-202.5 -532.5t-514 -209t-514 209t-202.5 532.5t202.5 531.5t514 208zM829 66q268 0 444.5 183t176.5 468q0 283 -175 466t-445.5 183t-446.5 -183.5t-176 -466t176 -466.5t446 -184zM553 1872h109l239 -285h-92z" />
    <glyph glyph-name="Oacute" unicode="&#xd3;" horiz-adv-x="1658" 
d="M829.5 1456q311.5 0 514 -208t202.5 -531.5t-202.5 -532.5t-514 -209t-514 209t-202.5 532.5t202.5 531.5t514 208zM829 66q268 0 444.5 183t176.5 468q0 283 -175 466t-445.5 183t-446.5 -183.5t-176 -466t176 -466.5t446 -184zM1028 1849h111l-256 -284h-92z" />
    <glyph glyph-name="Ocircumflex" unicode="&#xd4;" horiz-adv-x="1658" 
d="M829.5 1456q311.5 0 514 -208t202.5 -531.5t-202.5 -532.5t-514 -209t-514 209t-202.5 532.5t202.5 531.5t514 208zM829 66q268 0 444.5 183t176.5 468q0 283 -175 466t-445.5 183t-446.5 -183.5t-176 -466t176 -466.5t446 -184zM1047 1585l-199 230h-4l-199 -230h-88
l246 287h82l250 -287h-88z" />
    <glyph glyph-name="Otilde" unicode="&#xd5;" horiz-adv-x="1658" 
d="M829.5 1456q311.5 0 514 -208t202.5 -531.5t-202.5 -532.5t-514 -209t-514 209t-202.5 532.5t202.5 531.5t514 208zM829 66q268 0 444.5 183t176.5 468q0 283 -175 466t-445.5 183t-446.5 -183.5t-176 -466t176 -466.5t446 -184zM989 1626q-16 0 -32.5 4t-29 8
t-31.5 14.5t-25.5 14.5t-29 19.5t-26.5 17.5q-76 51 -121 51q-82 0 -116 -119l-64 19q41 172 172 172q66 0 154 -60q8 -4 27.5 -18t29.5 -20.5t26.5 -14.5t30 -12t27.5 -4q82 0 113 119l61 -19q-18 -86 -63.5 -129t-102.5 -43z" />
    <glyph glyph-name="Odieresis" unicode="&#xd6;" horiz-adv-x="1658" 
d="M829.5 1456q311.5 0 514 -208t202.5 -531.5t-202.5 -532.5t-514 -209t-514 209t-202.5 532.5t202.5 531.5t514 208zM829 66q268 0 444.5 183t176.5 468q0 283 -175 466t-445.5 183t-446.5 -183.5t-176 -466t176 -466.5t446 -184zM942 1735q0 33 20.5 54t53.5 21
t53.5 -21.5t20.5 -53.5q0 -31 -20.5 -51.5t-53.5 -20.5t-53.5 20.5t-20.5 51.5zM625 1735q0 33 21.5 54t53.5 21q31 0 51.5 -21.5t20.5 -53.5q0 -29 -20.5 -50.5t-51.5 -21.5q-33 0 -54 20.5t-21 51.5z" />
    <glyph glyph-name="multiply" unicode="&#xd7;" horiz-adv-x="1052" 
d="M922 385l-64 -63l-332 333l-333 -333l-62 63l332 332l-332 334l62 61l333 -332l332 332l64 -61l-334 -334z" />
    <glyph glyph-name="Oslash" unicode="&#xd8;" horiz-adv-x="1656" 
d="M1266 1315q131 -100 204.5 -255t73.5 -343q0 -324 -202.5 -533t-512.5 -209q-195 0 -358 91l-65 -105l-80 51l67 105q-133 100 -206.5 255.5t-73.5 344.5q0 324 202.5 531.5t513.5 207.5q193 0 357 -90l65 104l80 -51zM442 195l695 1093q-143 78 -308 78
q-270 0 -446 -183.5t-176 -465.5q0 -164 62 -298t173 -224zM829 66q268 0 444.5 183t176.5 468q0 332 -236 520l-692 -1094q139 -77 307 -77z" />
    <glyph glyph-name="Ugrave" unicode="&#xd9;" horiz-adv-x="1523" 
d="M762 -25q-264 0 -431 155t-167 413v891h94v-891q0 -219 140.5 -348t363.5 -129t363.5 129t140.5 348v891h94v-891q0 -258 -168 -413t-430 -155zM414 1872h108l240 -285h-92z" />
    <glyph glyph-name="Uacute" unicode="&#xda;" horiz-adv-x="1523" 
d="M762 -25q-264 0 -431 155t-167 413v891h94v-891q0 -219 140.5 -348t363.5 -129t363.5 129t140.5 348v891h94v-891q0 -258 -168 -413t-430 -155zM899 1872h111l-256 -285h-92z" />
    <glyph glyph-name="Ucircumflex" unicode="&#xdb;" horiz-adv-x="1523" 
d="M762 -25q-264 0 -431 155t-167 413v891h94v-891q0 -219 140.5 -348t363.5 -129t363.5 129t140.5 348v891h94v-891q0 -258 -168 -413t-430 -155zM911 1585l-198 230h-4l-199 -230h-88l246 287h82l249 -287h-88z" />
    <glyph glyph-name="Udieresis" unicode="&#xdc;" horiz-adv-x="1523" 
d="M762 -25q-264 0 -431 155t-167 413v891h94v-891q0 -219 140.5 -348t363.5 -129t363.5 129t140.5 348v891h94v-891q0 -258 -168 -413t-430 -155zM809 1735q0 33 20.5 54t53 21t53 -21.5t20.5 -53.5q0 -31 -21.5 -51.5t-52 -20.5t-52 20.5t-21.5 51.5zM492 1735
q0 33 21.5 54t53.5 21q31 0 51.5 -21.5t20.5 -53.5q0 -29 -20.5 -50.5t-51.5 -21.5q-33 0 -54 20.5t-21 51.5z" />
    <glyph glyph-name="Yacute" unicode="&#xdd;" horiz-adv-x="1361" 
d="M684 688l539 746h114l-610 -850v-584h-96v586l-606 848h112l539 -746h8zM829 1872h111l-256 -285h-92z" />
    <glyph glyph-name="Thorn" unicode="&#xde;" horiz-adv-x="1333" 
d="M786 1167q207 0 342.5 -128t135.5 -318q0 -193 -135.5 -324t-342.5 -131h-528v-266h-94v1434h94v-267h528zM776 352q170 0 281.5 106.5t111.5 260t-110.5 255t-282.5 101.5h-518v-723h518z" />
    <glyph glyph-name="germandbls" unicode="&#xdf;" horiz-adv-x="1181" 
d="M961 586q57 -51 90.5 -88t63.5 -93.5t30 -115.5q0 -152 -115 -232t-274 -80q-137 0 -269 58l19 74q121 -55 242 -56q129 0 219 60.5t90 175.5q0 49 -29 98t-52.5 72.5t-76.5 72.5q-12 10 -61.5 47t-69.5 56.5t-53 55.5t-46.5 73t-13.5 78q0 119 80 177t197 66
q39 61 39 142q0 129 -97.5 204.5t-224.5 75.5q-213 0 -306 -144t-93 -378v-985h-90v985q0 281 116.5 442.5t372.5 161.5q168 0 290 -99t122 -257q0 -115 -62 -195q-111 -4 -183.5 -49t-72.5 -139q0 -55 31 -98t105 -100.5t82 -65.5z" />
    <glyph glyph-name="agrave" unicode="&#xe0;" horiz-adv-x="1183" 
d="M516 -23q-182 0 -296 96.5t-114 241.5q0 152 127 245t375 93q172 0 328 -39v56q0 150 -89 224.5t-280 74.5q-37 0 -75.5 -4t-71.5 -11.5t-62.5 -15.5t-53 -15.5t-41 -14.5t-25.5 -11l-11 -4l-30 76l8 2q6 4 17 9t28.5 11t38 13.5t44 14.5t52.5 13t57.5 10.5t62.5 7.5
t66 3q223 0 338 -93.5t115 -293.5v-666h-59l-23 223h-4q-55 -115 -162.5 -180.5t-259.5 -65.5zM616 578q-207 0 -313 -72t-106 -189q0 -115 90 -189.5t243 -74.5q176 0 290 120t114 294v72q-132 39 -318 39zM309 1473h109l239 -285h-92z" />
    <glyph glyph-name="aacute" unicode="&#xe1;" horiz-adv-x="1183" 
d="M516 -23q-182 0 -296 96.5t-114 241.5q0 152 127 245t375 93q172 0 328 -39v56q0 150 -89 224.5t-280 74.5q-37 0 -75.5 -4t-71.5 -11.5t-62.5 -15.5t-53 -15.5t-41 -14.5t-25.5 -11l-11 -4l-30 76l8 2q6 4 17 9t28.5 11t38 13.5t44 14.5t52.5 13t57.5 10.5t62.5 7.5
t66 3q223 0 338 -93.5t115 -293.5v-666h-59l-23 223h-4q-55 -115 -162.5 -180.5t-259.5 -65.5zM616 578q-207 0 -313 -72t-106 -189q0 -115 90 -189.5t243 -74.5q176 0 290 120t114 294v72q-132 39 -318 39zM737 1473h111l-256 -285h-92z" />
    <glyph glyph-name="acircumflex" unicode="&#xe2;" horiz-adv-x="1183" 
d="M516 -23q-182 0 -296 96.5t-114 241.5q0 152 127 245t375 93q172 0 328 -39v56q0 150 -89 224.5t-280 74.5q-37 0 -75.5 -4t-71.5 -11.5t-62.5 -15.5t-53 -15.5t-41 -14.5t-25.5 -11l-11 -4l-30 76l8 2q6 4 17 9t28.5 11t38 13.5t44 14.5t52.5 13t57.5 10.5t62.5 7.5
t66 3q223 0 338 -93.5t115 -293.5v-666h-59l-23 223h-4q-55 -115 -162.5 -180.5t-259.5 -65.5zM616 578q-207 0 -313 -72t-106 -189q0 -115 90 -189.5t243 -74.5q176 0 290 120t114 294v72q-132 39 -318 39zM799 1186l-199 229h-4l-199 -229h-88l246 287h82l250 -287h-88z
" />
    <glyph glyph-name="atilde" unicode="&#xe3;" horiz-adv-x="1183" 
d="M516 -23q-182 0 -296 96.5t-114 241.5q0 152 127 245t375 93q172 0 328 -39v56q0 150 -89 224.5t-280 74.5q-37 0 -75.5 -4t-71.5 -11.5t-62.5 -15.5t-53 -15.5t-41 -14.5t-25.5 -11l-11 -4l-30 76l8 2q6 4 17 9t28.5 11t38 13.5t44 14.5t52.5 13t57.5 10.5t62.5 7.5
t66 3q223 0 338 -93.5t115 -293.5v-666h-59l-23 223h-4q-55 -115 -162.5 -180.5t-259.5 -65.5zM616 578q-207 0 -313 -72t-106 -189q0 -115 90 -189.5t243 -74.5q176 0 290 120t114 294v72q-132 39 -318 39zM743 1227q-16 0 -32.5 4t-28.5 8t-31.5 14.5t-26 14.5t-29 19.5
t-26.5 17.5q-76 51 -120 51q-82 0 -117 -119l-64 18q41 172 172 172q66 0 154 -59q8 -4 27.5 -18.5t30 -20.5t26.5 -14t29.5 -12.5t27.5 -4.5q82 0 113 119l61 -18q-18 -86 -63.5 -129t-102.5 -43z" />
    <glyph glyph-name="adieresis" unicode="&#xe4;" horiz-adv-x="1183" 
d="M516 -23q-182 0 -296 96.5t-114 241.5q0 152 127 245t375 93q172 0 328 -39v56q0 150 -89 224.5t-280 74.5q-37 0 -75.5 -4t-71.5 -11.5t-62.5 -15.5t-53 -15.5t-41 -14.5t-25.5 -11l-11 -4l-30 76l8 2q6 4 17 9t28.5 11t38 13.5t44 14.5t52.5 13t57.5 10.5t62.5 7.5
t66 3q223 0 338 -93.5t115 -293.5v-666h-59l-23 223h-4q-55 -115 -162.5 -180.5t-259.5 -65.5zM616 578q-207 0 -313 -72t-106 -189q0 -115 90 -189.5t243 -74.5q176 0 290 120t114 294v72q-132 39 -318 39zM696 1337q0 33 20.5 54.5t53.5 21.5t53.5 -21.5t20.5 -54.5
q0 -31 -20.5 -51t-53.5 -20t-53.5 20t-20.5 51zM379 1337q0 33 21.5 54.5t54.5 21.5q31 0 51 -21.5t20 -54.5q0 -29 -20.5 -50t-50.5 -21q-33 0 -54.5 20t-21.5 51z" />
    <glyph glyph-name="aring" unicode="&#xe5;" horiz-adv-x="1183" 
d="M516 -23q-182 0 -296 96.5t-114 241.5q0 152 127 245t375 93q172 0 328 -39v56q0 150 -89 224.5t-280 74.5q-37 0 -75.5 -4t-71.5 -11.5t-62.5 -15.5t-53 -15.5t-41 -14.5t-25.5 -11l-11 -4l-30 76l8 2q6 4 17 9t28.5 11t38 13.5t44 14.5t52.5 13t57.5 10.5t62.5 7.5
t66 3q223 0 338 -93.5t115 -293.5v-666h-59l-23 223h-4q-55 -115 -162.5 -180.5t-259.5 -65.5zM616 578q-207 0 -313 -72t-106 -189q0 -115 90 -189.5t243 -74.5q176 0 290 120t114 294v72q-132 39 -318 39zM694 1335q0 41 -29.5 71t-72.5 30q-41 0 -69.5 -31t-28.5 -72
t28.5 -69.5t71.5 -28.5q41 0 70.5 29.5t29.5 70.5zM424 1333q0 68 49 115t121 47q70 0 119 -47t49 -115q0 -66 -49 -112.5t-119 -46.5t-120 46.5t-50 112.5z" />
    <glyph glyph-name="ae" unicode="&#xe6;" horiz-adv-x="2115" 
d="M1501 1053q223 0 367.5 -132.5t144.5 -365.5q0 -6 -4 -68h-948q10 -193 136 -309.5t339 -116.5q227 0 365 121l18 -84q-147 -123 -381 -123q-197 0 -333 88.5t-191 243.5h-8q-53 -150 -182.5 -240t-303.5 -90q-184 0 -299 96.5t-115 243.5q0 154 121 245t369 91
q186 0 369 -65v82q0 147 -102.5 223t-297.5 76q-37 0 -75.5 -4t-71.5 -11.5t-62.5 -15.5t-53 -15.5t-41 -14.5t-28.5 -11l-8 -4l-28 76q168 84 372 84q397 0 469 -265h9q66 123 186.5 194t267.5 71zM961 461v53q-176 68 -365 68q-205 0 -303 -72t-98 -193q0 -115 92 -190.5
t245 -75.5q180 0 304.5 117t124.5 293zM1063 563h860q-2 195 -123 300.5t-303 105.5q-176 0 -298 -113t-136 -293z" />
    <glyph glyph-name="ccedilla" unicode="&#xe7;" horiz-adv-x="1085" 
d="M559 -84q68 -4 117 -48t49 -113.5t-53.5 -113.5t-141.5 -44q-57 0 -120 18l16 61q43 -16 96 -16t89 24.5t36 69.5q0 47 -38 79t-117 32l-13 45l47 84q-190 45 -307 185t-117 335q0 238 166 388.5t414 150.5q168 0 297 -70l-25 -80q-125 66 -272 66q-207 0 -348 -128
t-141 -327q0 -197 142 -325t349 -128q190 0 326 97l10 -88q-145 -94 -336 -95q-45 0 -88 7l-37 -64v-2z" />
    <glyph glyph-name="egrave" unicode="&#xe8;" horiz-adv-x="1277" 
d="M639 1053q229 0 383 -150.5t154 -388.5q0 -10 -5 -51h-978q18 -180 153 -291t342 -111q236 0 373 121l20 -84q-147 -123 -393 -123q-264 0 -425 149.5t-161 389.5q0 236 155 387.5t382 151.5zM193 547h892q-2 184 -131 303t-315 119q-182 0 -309 -118t-137 -304z
M483 1468h109l239 -284h-92z" />
    <glyph glyph-name="eacute" unicode="&#xe9;" horiz-adv-x="1277" 
d="M639 1053q229 0 383 -150.5t154 -388.5q0 -10 -5 -51h-978q18 -180 153 -291t342 -111q236 0 373 121l20 -84q-147 -123 -393 -123q-264 0 -425 149.5t-161 389.5q0 236 155 387.5t382 151.5zM193 547h892q-2 184 -131 303t-315 119q-182 0 -309 -118t-137 -304z
M713 1468h110l-256 -284h-92z" />
    <glyph glyph-name="ecircumflex" unicode="&#xea;" horiz-adv-x="1277" 
d="M639 1053q229 0 383 -150.5t154 -388.5q0 -10 -5 -51h-978q18 -180 153 -291t342 -111q236 0 373 121l20 -84q-147 -123 -393 -123q-264 0 -425 149.5t-161 389.5q0 236 155 387.5t382 151.5zM193 547h892q-2 184 -131 303t-315 119q-182 0 -309 -118t-137 -304z
M856 1182l-199 229h-4l-198 -229h-88l245 286h82l250 -286h-88z" />
    <glyph glyph-name="edieresis" unicode="&#xeb;" horiz-adv-x="1277" 
d="M639 1053q229 0 383 -150.5t154 -388.5q0 -10 -5 -51h-978q18 -180 153 -291t342 -111q236 0 373 121l20 -84q-147 -123 -393 -123q-264 0 -425 149.5t-161 389.5q0 236 155 387.5t382 151.5zM193 547h892q-2 184 -131 303t-315 119q-182 0 -309 -118t-137 -304z
M752 1331q0 33 20.5 54.5t53 21.5t53 -21.5t20.5 -54.5q0 -29 -21.5 -50t-52 -21t-52 21t-21.5 50zM434 1331q0 33 21.5 54.5t54.5 21.5q31 0 51.5 -21.5t20.5 -54.5q0 -29 -20.5 -50t-51.5 -21q-33 0 -54.5 20t-21.5 51z" />
    <glyph glyph-name="igrave" unicode="&#xec;" horiz-adv-x="329" 
d="M102 0v1030h91v-1030h-91zM-145 1468h108l240 -284h-92z" />
    <glyph glyph-name="iacute" unicode="&#xed;" horiz-adv-x="331" 
d="M125 0v1030h90v-1030h-90zM352 1468h111l-256 -284h-92z" />
    <glyph glyph-name="icircumflex" unicode="&#xee;" horiz-adv-x="491" 
d="M180 0v1030h90v-1030h-90zM446 1182l-198 229h-4l-199 -229h-88l246 286h82l250 -286h-89z" />
    <glyph glyph-name="idieresis" unicode="&#xef;" horiz-adv-x="321" 
d="M115 0v1030h90v-1030h-90zM246 1331q0 33 20.5 54.5t53 21.5t53 -21.5t20.5 -54.5q0 -29 -20.5 -50t-53 -21t-53 21t-20.5 50zM-72 1331q0 33 21.5 54.5t54.5 21.5q31 0 51.5 -21.5t20.5 -54.5q0 -29 -20.5 -50t-51.5 -21q-33 0 -54.5 20t-21.5 51z" />
    <glyph glyph-name="eth" unicode="&#xf0;" horiz-adv-x="1241" 
d="M684 1339q211 -150 333 -367.5t122 -475.5q0 -106 -40 -208t-110 -169q-141 -141 -368 -142q-221 0 -370 140.5t-149 365.5q0 213 143.5 358.5t366.5 145.5q225 0 367 -170l4 2q-102 287 -381 477l-205 -137l-35 49l177 123v4q-98 61 -199 95l33 71q133 -47 252 -121
l174 117l37 -49l-152 -102v-7zM918 182q121 121 120 305q0 180 -118.5 297t-296.5 117q-188 0 -304 -121t-116 -297q0 -180 118.5 -297.5t301.5 -117.5q180 -1 295 114z" />
    <glyph glyph-name="ntilde" unicode="&#xf1;" horiz-adv-x="1323" 
d="M1075 532q0 190 -119.5 313.5t-294 123.5t-294 -123t-119.5 -314v-532h-88v1030h61l23 -258h6q59 131 174 206t258 75q205 0 343 -146.5t138 -371.5v-535h-88v532zM815 1223q-16 0 -32.5 4t-29 8t-32 14.5t-25.5 14.5l-28.5 19t-26.5 17q-76 51 -121 52q-82 0 -117 -119
l-63 18q41 172 172 172q66 0 154 -59q8 -4 27.5 -18.5t29.5 -20.5t26.5 -14t30 -12.5t27.5 -4.5q82 0 113 119l61 -18q-18 -86 -63.5 -129t-102.5 -43z" />
    <glyph glyph-name="ograve" unicode="&#xf2;" horiz-adv-x="1284" 
d="M641 1053q229 0 385 -151.5t156 -387t-156 -386.5t-385 -151t-384 151t-155 386.5t156 387t383 151.5zM641 63q190 0 320.5 126t130.5 325t-130.5 327t-320.5 128t-320.5 -128t-130.5 -327t130.5 -325t320.5 -126zM371 1468h108l240 -284h-92z" />
    <glyph glyph-name="oacute" unicode="&#xf3;" horiz-adv-x="1284" 
d="M641 1053q229 0 385 -151.5t156 -387t-156 -386.5t-385 -151t-384 151t-155 386.5t156 387t383 151.5zM641 63q190 0 320.5 126t130.5 325t-130.5 327t-320.5 128t-320.5 -128t-130.5 -327t130.5 -325t320.5 -126zM807 1468h111l-256 -284h-93z" />
    <glyph glyph-name="ocircumflex" unicode="&#xf4;" horiz-adv-x="1284" 
d="M641 1053q229 0 385 -151.5t156 -387t-156 -386.5t-385 -151t-384 151t-155 386.5t156 387t383 151.5zM641 63q190 0 320.5 126t130.5 325t-130.5 327t-320.5 128t-320.5 -128t-130.5 -327t130.5 -325t320.5 -126zM842 1182l-199 229h-4l-199 -229h-88l246 286h82
l250 -286h-88z" />
    <glyph glyph-name="otilde" unicode="&#xf5;" horiz-adv-x="1284" 
d="M641 1053q229 0 385 -151.5t156 -387t-156 -386.5t-385 -151t-384 151t-155 386.5t156 387t383 151.5zM641 63q190 0 320.5 126t130.5 325t-130.5 327t-320.5 128t-320.5 -128t-130.5 -327t130.5 -325t320.5 -126zM797 1223q-16 0 -32.5 4t-29 8t-32 14.5t-25.5 14.5
l-28.5 19t-26.5 17q-76 51 -121 52q-82 0 -117 -119l-63 18q41 172 172 172q66 0 153 -59q8 -4 27.5 -18.5t30 -20.5t27 -14t29.5 -12.5t27 -4.5q82 0 113 119l62 -18q-18 -86 -63.5 -129t-102.5 -43z" />
    <glyph glyph-name="odieresis" unicode="&#xf6;" horiz-adv-x="1284" 
d="M641 1053q229 0 385 -151.5t156 -387t-156 -386.5t-385 -151t-384 151t-155 386.5t156 387t383 151.5zM641 63q190 0 320.5 126t130.5 325t-130.5 327t-320.5 128t-320.5 -128t-130.5 -327t130.5 -325t320.5 -126zM727 1331q0 33 20.5 54.5t53.5 21.5t53 -21.5t20 -54.5
q0 -29 -21.5 -50t-52 -21t-52 21t-21.5 50zM410 1331q0 33 21.5 54.5t53.5 21.5q31 0 51.5 -21.5t20.5 -54.5q0 -29 -20.5 -50t-51.5 -21q-33 0 -54 20t-21 51z" />
    <glyph glyph-name="divide" unicode="&#xf7;" horiz-adv-x="1073" 
d="M1020 758v-84h-967v84h967zM537 1221q33 0 55 -22.5t22 -53.5t-22.5 -53.5t-54.5 -22.5q-31 0 -53.5 22.5t-22.5 53.5t22.5 53.5t53.5 22.5zM537 362q33 0 55 -22.5t22 -53t-22.5 -53t-54.5 -22.5q-31 0 -53.5 22.5t-22.5 53t22.5 53t53.5 22.5z" />
    <glyph glyph-name="oslash" unicode="&#xf8;" horiz-adv-x="1284" 
d="M971 950q211 -154 211 -436q0 -236 -156 -387.5t-383 -151.5q-139 0 -252 60l-43 -68l-65 41l41 66q-102 72 -162 186.5t-60 253.5q0 236 156 387.5t385 151.5q139 0 262 -62l39 62l66 -41zM369 141l493 781q-100 53 -219 53q-193 0 -325 -130t-132 -331q1 -238 183 -373
zM643 55q193 0 324 129t131 330q0 231 -172 367l-492 -779q94 -47 209 -47z" />
    <glyph glyph-name="ugrave" unicode="&#xf9;" horiz-adv-x="1323" 
d="M248 1030v-532q0 -190 119.5 -313.5t294 -123.5t294 123t119.5 314v532h88v-1030h-61l-23 258h-6q-59 -131 -174 -206t-258 -75q-205 0 -343 146.5t-138 372.5v534h88zM430 1468h109l239 -284h-92z" />
    <glyph glyph-name="uacute" unicode="&#xfa;" horiz-adv-x="1323" 
d="M248 1030v-532q0 -190 119.5 -313.5t294 -123.5t294 123t119.5 314v532h88v-1030h-61l-23 258h-6q-59 -131 -174 -206t-258 -75q-205 0 -343 146.5t-138 372.5v534h88zM809 1468h111l-256 -284h-93z" />
    <glyph glyph-name="ucircumflex" unicode="&#xfb;" horiz-adv-x="1323" 
d="M248 1030v-532q0 -190 119.5 -313.5t294 -123.5t294 123t119.5 314v532h88v-1030h-61l-23 258h-6q-59 -131 -174 -206t-258 -75q-205 0 -343 146.5t-138 372.5v534h88zM870 1182l-198 229h-4l-199 -229h-88l246 286h82l249 -286h-88z" />
    <glyph glyph-name="udieresis" unicode="&#xfc;" horiz-adv-x="1323" 
d="M248 1030v-532q0 -190 119.5 -313.5t294 -123.5t294 123t119.5 314v532h88v-1030h-61l-23 258h-6q-59 -131 -174 -206t-258 -75q-205 0 -343 146.5t-138 372.5v534h88zM768 1331q0 33 20.5 54.5t53 21.5t53 -21.5t20.5 -54.5q0 -29 -21.5 -50t-52 -21t-52 21t-21.5 50z
M451 1331q0 33 21.5 54.5t53.5 21.5q31 0 51.5 -21.5t20.5 -54.5q0 -29 -20.5 -50t-51.5 -21q-33 0 -54 20t-21 51z" />
    <glyph glyph-name="yacute" unicode="&#xfd;" horiz-adv-x="1038" 
d="M938 1030h92l-473 -1128q-94 -223 -181 -301t-255 -78q-43 0 -113 16v84q59 -16 117 -16q135 0 203.5 67.5t146.5 251.5l33 78l-457 1026h94l408 -905h6zM702 1468h111l-256 -284h-92z" />
    <glyph glyph-name="thorn" unicode="&#xfe;" horiz-adv-x="1298" 
d="M698 1053q213 0 358.5 -151.5t145.5 -387t-145.5 -387.5t-358.5 -152q-143 0 -262 74t-182 203h-4v-707h-90v1936h90v-703h6q63 127 181 201t261 74zM682 61q182 0 306 127t124 326q0 201 -124 328t-306 127t-306 -127t-126 -328q0 -199 125 -326t307 -127z" />
    <glyph glyph-name="ydieresis" unicode="&#xff;" horiz-adv-x="1038" 
d="M938 1030h92l-473 -1128q-94 -223 -181 -301t-255 -78q-43 0 -113 16v84q59 -16 117 -16q135 0 203.5 67.5t146.5 251.5l33 78l-457 1026h94l408 -905h6zM657 1333q0 33 20.5 54.5t53.5 21.5t53.5 -21.5t20.5 -54.5q0 -31 -21.5 -51t-52.5 -20t-52.5 20t-21.5 51z
M340 1333q0 33 21.5 54.5t54.5 21.5q31 0 51 -21.5t20 -54.5q0 -29 -20.5 -50t-50.5 -21q-33 0 -54.5 20t-21.5 51z" />
    <glyph glyph-name="Amacron" unicode="&#x100;" 
d="M668 1434h106l641 -1434h-106l-156 354h-864l-158 -354h-106zM324 436h792l-391 881h-8zM444 1767h545v-69h-545v69z" />
    <glyph glyph-name="amacron" unicode="&#x101;" horiz-adv-x="1181" 
d="M516 -23q-182 0 -296 96.5t-114 241.5q0 152 127 245t375 93q172 0 328 -39v56q0 150 -89 224.5t-280 74.5q-37 0 -75.5 -4t-71.5 -11.5t-62.5 -15.5t-53 -15.5t-41 -14.5t-25.5 -11l-11 -4l-30 76l8 2q6 4 17 9t28.5 11t38 13.5t44 14.5t52.5 13t57.5 10.5t62.5 7.5
t66 3q223 0 338 -93.5t115 -293.5v-666h-59l-23 223h-4q-55 -115 -162.5 -180.5t-259.5 -65.5zM616 578q-207 0 -313 -72t-106 -189q0 -115 90 -189.5t243 -74.5q176 0 290 120t114 294v72q-132 39 -318 39zM334 1368h545v-70h-545v70z" />
    <glyph glyph-name="Abreve" unicode="&#x102;" 
d="M668 1434h106l641 -1434h-106l-156 354h-864l-158 -354h-106zM324 436h792l-391 881h-8zM438 1855h68q6 -88 57 -143t135 -55t135.5 55t57.5 143h67q-6 -125 -78.5 -196.5t-181 -71.5t-181.5 71.5t-79 196.5z" />
    <glyph glyph-name="abreve" unicode="&#x103;" horiz-adv-x="1183" 
d="M516 -23q-182 0 -296 96.5t-114 241.5q0 152 127 245t375 93q172 0 328 -39v56q0 150 -89 224.5t-280 74.5q-37 0 -75.5 -4t-71.5 -11.5t-62.5 -15.5t-53 -15.5t-41 -14.5t-25.5 -11l-11 -4l-30 76l8 2q6 4 17 9t28.5 11t38 13.5t44 14.5t52.5 13t57.5 10.5t62.5 7.5
t66 3q223 0 338 -93.5t115 -293.5v-666h-59l-23 223h-4q-55 -115 -162.5 -180.5t-259.5 -65.5zM616 578q-207 0 -313 -72t-106 -189q0 -115 90 -189.5t243 -74.5q176 0 290 120t114 294v72q-132 39 -318 39zM334 1456h67q6 -88 57.5 -143.5t135.5 -55.5t135 55.5t57 143.5
h68q-6 -125 -79 -196.5t-181.5 -71.5t-181 71.5t-78.5 196.5z" />
    <glyph glyph-name="Aogonek" unicode="&#x104;" horiz-adv-x="1476" 
d="M692 1434h107l641 -1434h-35q-63 -35 -102 -90t-39 -113q0 -49 30.5 -79.5t91.5 -30.5q66 0 115 28l17 -67q-63 -37 -146 -37q-86 0 -135 43t-49 125q0 61 38 123.5t103 107.5l-151 344h-865l-157 -354h-107zM348 436h793l-391 881h-9z" />
    <glyph glyph-name="aogonek" unicode="&#x105;" horiz-adv-x="1138" 
d="M516 -23q-182 0 -296 96.5t-114 241.5q0 152 127 245t375 93q172 0 328 -39v56q0 150 -89 224.5t-280 74.5q-37 0 -75.5 -4t-71.5 -11.5t-62.5 -15.5t-53 -15.5t-41 -14.5t-25.5 -11l-11 -4l-30 76l8 2q6 4 17 9t28.5 11t38 13.5t44 14.5t52.5 13t57.5 10.5t62.5 7.5
t66 3q223 0 338 -93.5t115 -293.5v-666h-2q-63 -35 -102 -90t-39 -113q0 -49 30.5 -79.5t92.5 -30.5q66 0 114 28l17 -67q-66 -37 -146 -37q-86 0 -135 43t-49 125q0 66 42 132t116 109l-21 203h-4q-55 -115 -162.5 -180.5t-259.5 -65.5zM616 578q-207 0 -313 -72t-106 -189
q0 -115 90 -189.5t243 -74.5q176 0 290 120t114 294v72q-132 39 -318 39z" />
    <glyph glyph-name="Cacute" unicode="&#x106;" horiz-adv-x="1474" 
d="M895 66q289 0 485 170l37 -93q-209 -168 -522 -168q-344 0 -563 202t-219 530q0 326 221 537.5t561 211.5q244 0 438 -117q-2 -6 -13 -46t-13 -44q-184 117 -414 117q-299 0 -491.5 -187.5t-192.5 -471.5q0 -287 191.5 -464t494.5 -177zM969 1872h110l-256 -285h-92z" />
    <glyph glyph-name="cacute" unicode="&#x107;" horiz-adv-x="1085" 
d="M684 61q190 0 326 97l10 -88q-145 -94 -336 -95q-248 0 -415 152t-167 387q0 238 166 388.5t414 150.5q168 0 297 -70l-25 -80q-125 66 -272 66q-207 0 -348 -128t-141 -327q0 -197 142 -325t349 -128zM766 1468h111l-256 -284h-93z" />
    <glyph glyph-name="Ccircumflex" unicode="&#x108;" horiz-adv-x="1474" 
d="M895 66q289 0 485 170l37 -93q-209 -168 -522 -168q-344 0 -563 202t-219 530q0 326 221 537.5t561 211.5q244 0 438 -117q-2 -6 -13 -46t-13 -44q-184 117 -414 117q-299 0 -491.5 -187.5t-192.5 -471.5q0 -287 191.5 -464t494.5 -177zM979 1585l-199 230h-4l-198 -230
h-89l246 287h82l250 -287h-88z" />
    <glyph glyph-name="ccircumflex" unicode="&#x109;" horiz-adv-x="1085" 
d="M684 61q190 0 326 97l10 -88q-145 -94 -336 -95q-248 0 -415 152t-167 387q0 238 166 388.5t414 150.5q168 0 297 -70l-25 -80q-125 66 -272 66q-207 0 -348 -128t-141 -327q0 -197 142 -325t349 -128zM766 1182l-199 229h-4l-198 -229h-89l246 286h82l250 -286h-88z" />
    <glyph glyph-name="Cdotaccent" unicode="&#x10a;" horiz-adv-x="1474" 
d="M895 66q289 0 485 170l37 -93q-209 -168 -522 -168q-344 0 -563 202t-219 530q0 326 221 537.5t561 211.5q244 0 438 -117q-2 -6 -13 -46t-13 -44q-184 117 -414 117q-299 0 -491.5 -187.5t-192.5 -471.5q0 -287 191.5 -464t494.5 -177zM705 1737q0 33 20 54t53 21
t53.5 -21.5t20.5 -53.5q0 -29 -20.5 -50.5t-53.5 -21.5t-53 21.5t-20 50.5z" />
    <glyph glyph-name="cdotaccent" unicode="&#x10b;" horiz-adv-x="1085" 
d="M684 61q190 0 326 97l10 -88q-145 -94 -336 -95q-248 0 -415 152t-167 387q0 238 166 388.5t414 150.5q168 0 297 -70l-25 -80q-125 66 -272 66q-207 0 -348 -128t-141 -327q0 -197 142 -325t349 -128zM492 1333q0 33 20 54.5t53 21.5t53.5 -21.5t20.5 -54.5
q0 -31 -20.5 -51t-53.5 -20t-53 20t-20 51z" />
    <glyph glyph-name="Ccaron" unicode="&#x10c;" horiz-adv-x="1474" 
d="M895 66q289 0 485 170l37 -93q-209 -168 -522 -168q-344 0 -563 202t-219 530q0 326 221 537.5t561 211.5q244 0 438 -117q-2 -6 -13 -46t-13 -44q-184 117 -414 117q-299 0 -491.5 -187.5t-192.5 -471.5q0 -287 191.5 -464t494.5 -177zM838 1585h-84l-246 287h88
l199 -227h6l196 227h88z" />
    <glyph glyph-name="ccaron" unicode="&#x10d;" horiz-adv-x="1085" 
d="M684 61q190 0 326 97l10 -88q-145 -94 -336 -95q-248 0 -415 152t-167 387q0 238 166 388.5t414 150.5q168 0 297 -70l-25 -80q-125 66 -272 66q-207 0 -348 -128t-141 -327q0 -197 142 -325t349 -128zM625 1182h-84l-246 286h88l199 -227h6l196 227h88z" />
    <glyph glyph-name="Dcaron" unicode="&#x10e;" horiz-adv-x="1544" 
d="M729 1434q299 0 500 -203t201 -514t-201 -514t-500 -203h-565v1434h565zM729 88q258 0 431 178t173 450.5t-173 451t-431 178.5h-471v-1258h471zM819 1585h-84l-246 287h89l198 -227h6l197 227h88z" />
    <glyph glyph-name="dcaron" unicode="&#x10f;" horiz-adv-x="1525" 
d="M622.5 61q182.5 0 306.5 127t124 326q0 201 -124 328t-306.5 127t-306 -128t-123.5 -327t123.5 -326t306 -127zM602 1053q147 0 266 -76t181 -207h4v711h90v-1481h-62l-24 264h-6q-61 -133 -181 -211t-268 -78q-211 0 -355.5 152t-144.5 387.5t143.5 387t356.5 151.5z
M1210 1190q139 12 140 149q0 43 -21 113l80 10q25 -59 25 -129q0 -88 -52.5 -146.5t-156.5 -62.5z" />
    <glyph glyph-name="Dcroat" unicode="&#x110;" horiz-adv-x="1697" 
d="M883 1434q301 0 501.5 -203t200.5 -514t-200.5 -514t-501.5 -203h-566v672h-301v90h301v672h566zM883 88q258 0 431 178t173 450.5t-173 451t-431 178.5h-469v-584h399v-90h-399v-584h469z" />
    <glyph glyph-name="dcroat" unicode="&#x111;" horiz-adv-x="1445" 
d="M1432 1288v-71h-291v-1217h-62l-22 252h-8q-63 -129 -181 -203t-264 -74q-211 0 -356.5 152t-145.5 387.5t144.5 387t357.5 151.5q143 0 260 -72t180 -197h9v433h-332v71h332v193h88v-193h291zM622.5 61q182.5 0 306.5 127t124 326t-124 327t-306.5 128t-307.5 -128
t-125 -327t125 -326t307.5 -127z" />
    <glyph glyph-name="Emacron" unicode="&#x112;" horiz-adv-x="1341" 
d="M258 672v-582h971v-90h-1065v1434h1042v-91h-948v-589h889v-82h-889zM397 1767h545v-69h-545v69z" />
    <glyph glyph-name="emacron" unicode="&#x113;" horiz-adv-x="1277" 
d="M639 1053q229 0 383 -150.5t154 -388.5q0 -10 -5 -51h-978q18 -180 153 -291t342 -111q236 0 373 121l20 -84q-147 -123 -393 -123q-264 0 -425 149.5t-161 389.5q0 236 155 387.5t382 151.5zM193 547h892q-2 184 -131 303t-315 119q-182 0 -309 -118t-137 -304z
M373 1364h545v-70h-545v70z" />
    <glyph glyph-name="Ebreve" unicode="&#x114;" horiz-adv-x="1341" 
d="M258 672v-582h971v-90h-1065v1434h1042v-91h-948v-589h889v-82h-889zM410 1855h67q6 -88 57.5 -143t135.5 -55t135 55t57 143h68q-6 -125 -79 -196.5t-181.5 -71.5t-181 71.5t-78.5 196.5z" />
    <glyph glyph-name="ebreve" unicode="&#x115;" horiz-adv-x="1277" 
d="M639 1053q229 0 383 -150.5t154 -388.5q0 -10 -5 -51h-978q18 -180 153 -291t342 -111q236 0 373 121l20 -84q-147 -123 -393 -123q-264 0 -425 149.5t-161 389.5q0 236 155 387.5t382 151.5zM193 547h892q-2 184 -131 303t-315 119q-182 0 -309 -118t-137 -304z
M385 1452h68q6 -88 57 -143.5t135 -55.5t135 55.5t58 143.5h67q-6 -125 -78.5 -196.5t-181 -71.5t-181.5 71.5t-79 196.5z" />
    <glyph glyph-name="Edotaccent" unicode="&#x116;" horiz-adv-x="1341" 
d="M258 672v-582h971v-90h-1065v1434h1042v-91h-948v-589h889v-82h-889zM606 1737q0 33 20.5 54t53.5 21t53.5 -21.5t20.5 -53.5q0 -29 -20.5 -50.5t-53.5 -21.5t-53.5 21.5t-20.5 50.5z" />
    <glyph glyph-name="edotaccent" unicode="&#x117;" horiz-adv-x="1277" 
d="M639 1053q229 0 383 -150.5t154 -388.5q0 -10 -5 -51h-978q18 -180 153 -291t342 -111q236 0 373 121l20 -84q-147 -123 -393 -123q-264 0 -425 149.5t-161 389.5q0 236 155 387.5t382 151.5zM193 547h892q-2 184 -131 303t-315 119q-182 0 -309 -118t-137 -304z
M582 1333q0 33 20.5 54.5t53 21.5t53 -21.5t20.5 -54.5q0 -31 -20.5 -51t-53 -20t-53 20t-20.5 51z" />
    <glyph glyph-name="Eogonek" unicode="&#x118;" horiz-adv-x="1261" 
d="M258 672v-582h971v-90h-12q-63 -35 -102.5 -90t-39.5 -113q0 -49 31 -79.5t92 -30.5q66 0 115 28l16 -67q-63 -37 -145 -37q-86 0 -135.5 43t-49.5 125q0 123 127 221h-962v1434h1042v-91h-948v-589h889v-82h-889z" />
    <glyph glyph-name="eogonek" unicode="&#x119;" horiz-adv-x="1277" 
d="M639 1053q229 0 383 -150.5t154 -388.5q0 -10 -5 -51h-978q18 -180 153 -291t342 -111q236 0 373 121l20 -84q-147 -123 -393 -123q-27 0 -39 2q-104 -80 -104 -180q0 -49 30.5 -79.5t92.5 -30.5q66 0 114 28l17 -67q-66 -37 -146 -37q-86 0 -135 43t-49 125
q0 111 106 205q-217 31 -345 174t-128 356q0 236 155 387.5t382 151.5zM193 547h892q-2 184 -131 303t-315 119q-182 0 -309 -118t-137 -304z" />
    <glyph glyph-name="Ecaron" unicode="&#x11a;" horiz-adv-x="1341" 
d="M258 672v-582h971v-90h-1065v1434h1042v-91h-948v-589h889v-82h-889zM739 1585h-84l-245 287h88l198 -227h6l197 227h88z" />
    <glyph glyph-name="ecaron" unicode="&#x11b;" horiz-adv-x="1277" 
d="M639 1053q229 0 383 -150.5t154 -388.5q0 -10 -5 -51h-978q18 -180 153 -291t342 -111q236 0 373 121l20 -84q-147 -123 -393 -123q-264 0 -425 149.5t-161 389.5q0 236 155 387.5t382 151.5zM193 547h892q-2 184 -131 303t-315 119q-182 0 -309 -118t-137 -304z
M715 1182h-84l-246 286h88l199 -227h6l196 227h89z" />
    <glyph glyph-name="Gcircumflex" unicode="&#x11c;" horiz-adv-x="1558" 
d="M836 647v84h602v-563q-238 -193 -545 -193q-344 0 -562 203t-218 526.5t222 537.5t562 214q274 0 469 -119l-35 -88q-182 117 -434 117q-299 0 -494.5 -188.5t-195.5 -473t191.5 -461.5t494.5 -177q252 0 448 151v430h-505zM1010 1585l-199 230h-4l-199 -230h-88l246 287
h82l250 -287h-88z" />
    <glyph glyph-name="gcircumflex" unicode="&#x11d;" horiz-adv-x="1273" 
d="M1169 -92q0 -150 -156.5 -267.5t-402.5 -117.5q-125 0 -230.5 30.5t-181 108.5t-75.5 193q0 76 42 140t114 103v4q-178 47 -179 195q0 70 41 123t95 82v4q-70 82 -70 192q0 156 130 255.5t337 99.5q141 0 254 -52q51 59 122.5 91t141.5 24v-78q-111 6 -201 -67v-6
q147 -102 148 -267q0 -156 -129 -252t-338 -96q-213 0 -346 107q-96 -61 -97 -144q0 -72 65.5 -110.5t178.5 -38.5h416q147 -2 234 -66.5t87 -189.5zM207 -131q0 -98 70.5 -162.5t156.5 -86t180 -21.5q203 0 335 93t132 206q0 98 -71.5 144t-182.5 46h-456q-68 -31 -116 -87
t-48 -132zM633 979q-170 0 -274.5 -80t-104.5 -203q0 -121 105.5 -197.5t271.5 -76.5q170 -2 274.5 74.5t104.5 199.5t-106.5 203t-270.5 80zM918 1182l-199 229h-4l-199 -229h-88l246 286h82l250 -286h-88z" />
    <glyph glyph-name="Gbreve" unicode="&#x11e;" horiz-adv-x="1558" 
d="M836 647v84h602v-563q-238 -193 -545 -193q-344 0 -562 203t-218 526.5t222 537.5t562 214q274 0 469 -119l-35 -88q-182 117 -434 117q-299 0 -494.5 -188.5t-195.5 -473t191.5 -461.5t494.5 -177q252 0 448 151v430h-505zM524 1855h68q6 -88 57 -143t135 -55t135.5 55
t57.5 143h67q-6 -125 -78.5 -196.5t-181 -71.5t-181.5 71.5t-79 196.5z" />
    <glyph glyph-name="gbreve" unicode="&#x11f;" horiz-adv-x="1273" 
d="M1169 -92q0 -150 -156.5 -267.5t-402.5 -117.5q-125 0 -230.5 30.5t-181 108.5t-75.5 193q0 76 42 140t114 103v4q-178 47 -179 195q0 70 41 123t95 82v4q-70 82 -70 192q0 156 130 255.5t337 99.5q141 0 254 -52q51 59 122.5 91t141.5 24v-78q-111 6 -201 -67v-6
q147 -102 148 -267q0 -156 -129 -252t-338 -96q-213 0 -346 107q-96 -61 -97 -144q0 -72 65.5 -110.5t178.5 -38.5h416q147 -2 234 -66.5t87 -189.5zM207 -131q0 -98 70.5 -162.5t156.5 -86t180 -21.5q203 0 335 93t132 206q0 98 -71.5 144t-182.5 46h-456q-68 -31 -116 -87
t-48 -132zM633 979q-170 0 -274.5 -80t-104.5 -203q0 -121 105.5 -197.5t271.5 -76.5q170 -2 274.5 74.5t104.5 199.5t-106.5 203t-270.5 80zM446 1452h68q6 -88 57.5 -143.5t135.5 -55.5t135 55.5t57 143.5h68q-6 -125 -79 -196.5t-181.5 -71.5t-181.5 71.5t-79 196.5z" />
    <glyph glyph-name="Gdotaccent" unicode="&#x120;" horiz-adv-x="1558" 
d="M836 647v84h602v-563q-238 -193 -545 -193q-344 0 -562 203t-218 526.5t222 537.5t562 214q274 0 469 -119l-35 -88q-182 117 -434 117q-299 0 -494.5 -188.5t-195.5 -473t191.5 -461.5t494.5 -177q252 0 448 151v430h-505zM715 1737q0 33 20.5 54t53 21t53 -21.5
t20.5 -53.5q0 -29 -21.5 -50.5t-52 -21.5t-52 21.5t-21.5 50.5z" />
    <glyph glyph-name="gdotaccent" unicode="&#x121;" horiz-adv-x="1273" 
d="M1169 -92q0 -150 -156.5 -267.5t-402.5 -117.5q-125 0 -230.5 30.5t-181 108.5t-75.5 193q0 76 42 140t114 103v4q-178 47 -179 195q0 70 41 123t95 82v4q-70 82 -70 192q0 156 130 255.5t337 99.5q141 0 254 -52q51 59 122.5 91t141.5 24v-78q-111 6 -201 -67v-6
q147 -102 148 -267q0 -156 -129 -252t-338 -96q-213 0 -346 107q-96 -61 -97 -144q0 -72 65.5 -110.5t178.5 -38.5h416q147 -2 234 -66.5t87 -189.5zM207 -131q0 -98 70.5 -162.5t156.5 -86t180 -21.5q203 0 335 93t132 206q0 98 -71.5 144t-182.5 46h-456q-68 -31 -116 -87
t-48 -132zM633 979q-170 0 -274.5 -80t-104.5 -203q0 -121 105.5 -197.5t271.5 -76.5q170 -2 274.5 74.5t104.5 199.5t-106.5 203t-270.5 80zM643 1333q0 33 20.5 54.5t53.5 21.5t53.5 -21.5t20.5 -54.5q0 -31 -20.5 -51t-53.5 -20t-53.5 20t-20.5 51z" />
    <glyph glyph-name="uni0122" unicode="&#x122;" horiz-adv-x="1558" 
d="M836 647v84h602v-563q-238 -193 -545 -193q-344 0 -562 203t-218 526.5t222 537.5t562 214q274 0 469 -119l-35 -88q-182 117 -434 117q-299 0 -494.5 -188.5t-195.5 -473t191.5 -461.5t494.5 -177q252 0 448 151v430h-505zM711 -352q139 12 139 149q0 43 -21 113l80 10
q25 -59 25 -129q0 -88 -52.5 -146.5t-156.5 -62.5z" />
    <glyph glyph-name="uni0123" unicode="&#x123;" horiz-adv-x="1273" 
d="M1169 -92q0 -150 -156.5 -267.5t-402.5 -117.5q-125 0 -230.5 30.5t-181 108.5t-75.5 193q0 76 42 140t114 103v4q-178 47 -179 195q0 70 41 123t95 82v4q-70 82 -70 192q0 156 130 255.5t337 99.5q141 0 254 -52q51 59 122.5 91t141.5 24v-78q-111 6 -201 -67v-6
q147 -102 148 -267q0 -156 -129 -252t-338 -96q-213 0 -346 107q-96 -61 -97 -144q0 -72 65.5 -110.5t178.5 -38.5h416q147 -2 234 -66.5t87 -189.5zM207 -131q0 -98 70.5 -162.5t156.5 -86t180 -21.5q203 0 335 93t132 206q0 98 -71.5 144t-182.5 46h-456q-68 -31 -116 -87
t-48 -132zM633 979q-170 0 -274.5 -80t-104.5 -203q0 -121 105.5 -197.5t271.5 -76.5q170 -2 274.5 74.5t104.5 199.5t-106.5 203t-270.5 80zM776 1571l15 -66q-139 -12 -140 -149q0 -43 21 -113l-80 -10q-25 59 -25 129q0 88 52.5 146.5t156.5 62.5z" />
    <glyph glyph-name="Hcircumflex" unicode="&#x124;" horiz-adv-x="1525" 
d="M1268 752v682h96v-1434h-96v659h-1008v-659h-96v1434h96v-682h1008zM977 1585l-199 230h-4l-199 -230h-88l246 287h82l250 -287h-88z" />
    <glyph glyph-name="hcircumflex" unicode="&#x125;" horiz-adv-x="1345" 
d="M702 1053q205 0 344.5 -146.5t139.5 -371.5v-535h-88v532q0 190 -120 313.5t-294 123.5q-172 0 -293 -123t-121 -307v-539h-88v1481h88v-709h6q55 131 169 206t257 75zM424 1585l-199 230h-4l-198 -230h-89l246 287h82l250 -287h-88z" />
    <glyph glyph-name="Hbar" unicode="&#x126;" horiz-adv-x="1669" 
d="M1434 1434v-306h219v-86h-219v-1042h-95v659h-1009v-659h-94v1042h-220v86h220v306h94v-306h1009v306h95zM1339 752v290h-1009v-290h1009z" />
    <glyph glyph-name="hbar" unicode="&#x127;" horiz-adv-x="1466" 
d="M825 1053q205 0 343.5 -146.5t138.5 -371.5v-535h-88v532q0 190 -120 313.5t-294 123.5q-172 0 -293 -123t-121 -307v-539h-88v1217h-289v71h289v193h88v-193h334v-71h-334v-445h6q55 131 170 206t258 75z" />
    <glyph glyph-name="Itilde" unicode="&#x128;" horiz-adv-x="456" 
d="M197 0v1434h94v-1434h-94zM383 1626q-16 0 -32.5 4t-29 8t-32 14.5t-25.5 14.5t-28.5 19.5t-26.5 17.5q-78 51 -121 51q-82 0 -117 -119l-63 19q41 172 172 172q66 0 153 -60q8 -4 28 -18t30 -20.5t26.5 -14.5t29.5 -12t28 -4q82 0 112 119l62 -19q-18 -86 -63.5 -129
t-102.5 -43z" />
    <glyph glyph-name="itilde" unicode="&#x129;" horiz-adv-x="458" 
d="M184 0v1030h90v-1030h-90zM373 1223q-16 0 -32.5 4t-29 8t-32 14.5t-25.5 14.5l-28.5 19t-26.5 17q-76 51 -121 52q-82 0 -117 -119l-63 18q41 172 172 172q66 0 153 -59q8 -4 27.5 -18.5t30 -20.5t27 -14t29.5 -12.5t28 -4.5q82 0 112 119l62 -18q-18 -86 -63.5 -129
t-102.5 -43z" />
    <glyph glyph-name="Imacron" unicode="&#x12a;" horiz-adv-x="446" 
d="M188 0v1434h95v-1434h-95zM-53 1767h545v-69h-545v69z" />
    <glyph glyph-name="imacron" unicode="&#x12b;" horiz-adv-x="481" 
d="M199 0v1030h90v-1030h-90zM-33 1364h545v-70h-545v70z" />
    <glyph glyph-name="Ibreve" unicode="&#x12c;" horiz-adv-x="446" 
d="M182 0v1434h94v-1434h-94zM-37 1855h68q6 -88 57 -143t135 -55t135.5 55t57.5 143h67q-6 -125 -78.5 -196.5t-181 -71.5t-181.5 71.5t-79 196.5z" />
    <glyph glyph-name="ibreve" unicode="&#x12d;" horiz-adv-x="417" 
d="M162 0v1030h90v-1030h-90zM-53 1452h67q6 -88 57.5 -143.5t135.5 -55.5t135 55.5t57 143.5h68q-6 -125 -79 -196.5t-181.5 -71.5t-181 71.5t-78.5 196.5z" />
    <glyph glyph-name="Iogonek" unicode="&#x12e;" horiz-adv-x="423" 
d="M260 0h-33q-63 -35 -102 -90t-39 -113q0 -49 30.5 -79.5t92.5 -30.5q66 0 115 28l16 -67q-66 -37 -145 -37q-86 0 -135.5 43t-49.5 125q0 63 42 129.5t114 109.5v1416h94v-1434z" />
    <glyph glyph-name="iogonek" unicode="&#x12f;" horiz-adv-x="438" 
d="M264 0h-14q-63 -35 -102 -90t-39 -113q0 -49 30.5 -79.5t91.5 -30.5q66 0 115 28l16 -67q-66 -37 -145 -37q-86 0 -135 43t-49 125q0 61 38 123.5t103 107.5v1020h90v-1030zM219 1460q33 0 55.5 -22.5t22.5 -55.5q0 -31 -22.5 -53t-55.5 -22t-55.5 22.5t-22.5 52.5
q0 33 22.5 55.5t55.5 22.5z" />
    <glyph glyph-name="Idotaccent" unicode="&#x130;" horiz-adv-x="471" 
d="M168 0v1434h94v-1434h-94zM162 1737q0 33 20.5 54t53 21t53 -21.5t20.5 -53.5q0 -29 -21.5 -50.5t-52 -21.5t-52 21.5t-21.5 50.5z" />
    <glyph glyph-name="dotlessi" unicode="&#x131;" horiz-adv-x="409" 
d="M160 0v1030h90v-1030h-90z" />
    <glyph glyph-name="IJ" unicode="&#x132;" horiz-adv-x="1355" 
d="M164 0v1434h94v-1434h-94zM1096 557l2 877h94v-885q0 -573 -514 -574q-139 0 -275 64l29 88q135 -61 256 -61q408 -1 408 491z" />
    <glyph glyph-name="ij" unicode="&#x133;" horiz-adv-x="808" 
d="M164 0v1030h90v-1030h-90zM209 1460q33 0 55.5 -22.5t22.5 -55.5q0 -31 -22.5 -53t-55.5 -22t-55.5 22.5t-22.5 52.5q0 33 22.5 55.5t55.5 22.5zM559 -94v1124h88v-1136q0 -371 -334 -371q-59 0 -141 12l8 82q74 -12 125 -12q135 0 194.5 72.5t59.5 228.5zM602 1460
q33 0 55.5 -22.5t22.5 -55.5q0 -31 -22.5 -53t-55.5 -22t-55.5 22.5t-22.5 52.5q0 33 22.5 55.5t55.5 22.5z" />
    <glyph glyph-name="Jcircumflex" unicode="&#x134;" horiz-adv-x="1048" 
d="M715 557l2 877h94v-885q0 -573 -514 -574q-139 0 -274 64l28 88q135 -61 256 -61q408 -1 408 491zM993 1585l-198 230h-4l-199 -230h-88l246 287h81l250 -287h-88z" />
    <glyph glyph-name="jcircumflex" unicode="&#x135;" horiz-adv-x="487" 
d="M182 -94v1124h88v-1136q0 -371 -333 -371q-59 0 -142 12l8 82q74 -12 125 -12q135 0 194.5 72.5t59.5 228.5zM444 1182l-198 229h-4l-199 -229h-88l246 286h82l249 -286h-88z" />
    <glyph glyph-name="uni0136" unicode="&#x136;" horiz-adv-x="1470" 
d="M1341 1434l-624 -594l710 -840h-116l-666 776l-385 -362v-414h-96v1434h96v-902h6l955 902h120zM580 -352q139 12 139 149q0 43 -21 113l80 10q25 -59 25 -129q0 -88 -52.5 -146.5t-156.5 -62.5z" />
    <glyph glyph-name="uni0137" unicode="&#x137;" horiz-adv-x="1060" 
d="M961 1030l-451 -430l520 -600h-98l-477 541l-207 -197v-344h-88v1481h88v-1026h6l600 575h107zM365 -352q139 12 139 149q0 43 -21 113l80 10q25 -59 25 -129q0 -88 -52.5 -146.5t-156.5 -62.5z" />
    <glyph glyph-name="kgreenlandic" unicode="&#x138;" horiz-adv-x="1060" 
d="M961 1030l-451 -430l520 -600h-106l-473 537l-203 -193v-344h-88v1030h88v-569h6l596 569h111z" />
    <glyph glyph-name="Lacute" unicode="&#x139;" horiz-adv-x="1341" 
d="M340 1434v-1344h924v-90h-1018v1434h94zM471 1872h111l-256 -285h-93z" />
    <glyph glyph-name="lacute" unicode="&#x13a;" horiz-adv-x="331" 
d="M111 0v1481h88v-1481h-88zM340 1872h111l-256 -285h-93z" />
    <glyph glyph-name="uni013B" unicode="&#x13b;" horiz-adv-x="1259" 
d="M258 1434v-1344h924v-90h-1018v1434h94zM461 -352q139 12 139 149q0 43 -20 113l79 10q25 -59 25 -129q0 -88 -52 -146.5t-157 -62.5z" />
    <glyph glyph-name="uni013C" unicode="&#x13c;" horiz-adv-x="518" 
d="M219 0v1481h88v-1481h-88zM106 -352q139 12 140 149q0 43 -21 113l80 10q25 -59 25 -129q0 -88 -52.5 -146.5t-156.5 -62.5z" />
    <glyph glyph-name="Lcaron" unicode="&#x13d;" horiz-adv-x="1259" 
d="M258 1434v-1344h924v-90h-1018v1434h94zM678 1124l-14 66q139 12 139 149q0 43 -21 113l80 10q25 -59 25 -129q0 -88 -52.5 -146.5t-156.5 -62.5z" />
    <glyph glyph-name="lcaron" unicode="&#x13e;" horiz-adv-x="645" 
d="M160 0v1481h88v-1481h-88zM375 1190q139 12 139 149q0 43 -20 113l79 10q25 -59 25 -129q0 -88 -52 -146.5t-157 -62.5z" />
    <glyph glyph-name="Ldot" unicode="&#x13f;" horiz-adv-x="1259" 
d="M258 1434v-1344h924v-90h-1018v1434h94zM760 901q-31 0 -53.5 22.5t-22.5 53.5t22.5 53.5t53.5 22.5q33 0 55.5 -22.5t22.5 -53.5t-22.5 -53.5t-55.5 -22.5z" />
    <glyph glyph-name="ldot" unicode="&#x140;" horiz-adv-x="634" 
d="M160 0v1481h88v-1481h-88zM530 901q-31 0 -53 22.5t-22 53.5t22.5 53.5t52.5 22.5q33 0 55.5 -22.5t22.5 -53.5t-22.5 -53.5t-55.5 -22.5z" />
    <glyph glyph-name="Lslash" unicode="&#x141;" horiz-adv-x="1378" 
d="M379 694v-604h921v-90h-1017v649l-267 -172v90l267 172v695h96v-650l266 172v-90z" />
    <glyph glyph-name="lslash" unicode="&#x142;" horiz-adv-x="663" 
d="M377 1481v-674l270 172v-88l-270 -174v-717h-90v674l-271 -174v90l271 174v717h90z" />
    <glyph glyph-name="Nacute" unicode="&#x143;" horiz-adv-x="1527" 
d="M1364 0h-96l-1000 1276h-8v-1276h-96v1434h98l1000 -1276h8v1276h94v-1434zM963 1872h110l-256 -285h-92z" />
    <glyph glyph-name="nacute" unicode="&#x144;" horiz-adv-x="1323" 
d="M1075 532q0 190 -119.5 313.5t-294 123.5t-294 -123t-119.5 -314v-532h-88v1030h61l23 -258h6q59 131 174 206t258 75q205 0 343 -146.5t138 -371.5v-535h-88v532zM889 1468h110l-256 -284h-92z" />
    <glyph glyph-name="uni0145" unicode="&#x145;" horiz-adv-x="1527" 
d="M1364 0h-96l-1000 1276h-8v-1276h-96v1434h98l1000 -1276h8v1276h94v-1434zM598 -352q139 12 139 149q0 43 -20 113l80 10q25 -59 24 -129q0 -88 -52 -146.5t-157 -62.5z" />
    <glyph glyph-name="uni0146" unicode="&#x146;" horiz-adv-x="1323" 
d="M1075 532q0 190 -119.5 313.5t-294 123.5t-294 -123t-119.5 -314v-532h-88v1030h61l23 -258h6q59 131 174 206t258 75q205 0 343 -146.5t138 -371.5v-535h-88v532zM498 -352q139 12 139 149q0 43 -21 113l80 10q25 -59 25 -129q0 -88 -52.5 -146.5t-156.5 -62.5z" />
    <glyph glyph-name="Ncaron" unicode="&#x147;" horiz-adv-x="1527" 
d="M1364 0h-96l-1000 1276h-8v-1276h-96v1434h98l1000 -1276h8v1276h94v-1434zM836 1585h-84l-246 287h88l199 -227h6l196 227h88z" />
    <glyph glyph-name="ncaron" unicode="&#x148;" horiz-adv-x="1323" 
d="M1075 532q0 190 -119.5 313.5t-294 123.5t-294 -123t-119.5 -314v-532h-88v1030h61l23 -258h6q59 131 174 206t258 75q205 0 343 -146.5t138 -371.5v-535h-88v532zM729 1182h-84l-246 286h88l199 -227h6l197 227h88z" />
    <glyph glyph-name="napostrophe" unicode="&#x149;" horiz-adv-x="1443" 
d="M1196 532q0 190 -120 313.5t-294 123.5t-293.5 -123t-119.5 -314v-532h-88v1030h61l23 -258h6q59 131 173.5 206t258.5 75q205 0 343 -146.5t138 -371.5v-535h-88v532zM133 1124l-14 66q139 12 139 149q0 43 -20 113l79 10q25 -59 25 -129q0 -88 -52.5 -146.5
t-156.5 -62.5z" />
    <glyph glyph-name="Eng" unicode="&#x14a;" horiz-adv-x="1527" 
d="M1270 158v1276h94v-1540q0 -369 -334 -369q-61 0 -139 12l6 82q74 -12 127 -12q133 0 192.5 71.5t59.5 227.5v84l-1008 1286h-8v-1276h-96v1434h98l1000 -1276h8z" />
    <glyph glyph-name="eng" unicode="&#x14b;" horiz-adv-x="1323" 
d="M684 1053q203 0 341 -146.5t138 -371.5v-641q0 -369 -334 -369q-61 0 -139 12l8 82q70 -12 125 -12q133 0 192.5 71.5t59.5 227.5v626q0 190 -119.5 313.5t-294 123.5t-294 -123t-119.5 -314v-532h-88v1030h61l23 -252h8q59 127 174 201t258 74z" />
    <glyph glyph-name="Omacron" unicode="&#x14c;" horiz-adv-x="1658" 
d="M829.5 1456q311.5 0 514 -208t202.5 -531.5t-202.5 -532.5t-514 -209t-514 209t-202.5 532.5t202.5 531.5t514 208zM829 66q268 0 444.5 183t176.5 468q0 283 -175 466t-445.5 183t-446.5 -183.5t-176 -466t176 -466.5t446 -184zM563 1767h545v-69h-545v69z" />
    <glyph glyph-name="omacron" unicode="&#x14d;" horiz-adv-x="1284" 
d="M641 1053q229 0 385 -151.5t156 -387t-156 -386.5t-385 -151t-384 151t-155 386.5t156 387t383 151.5zM641 63q190 0 320.5 126t130.5 325t-130.5 327t-320.5 128t-320.5 -128t-130.5 -327t130.5 -325t320.5 -126zM373 1364h545v-70h-545v70z" />
    <glyph glyph-name="Obreve" unicode="&#x14e;" horiz-adv-x="1658" 
d="M829.5 1456q311.5 0 514 -208t202.5 -531.5t-202.5 -532.5t-514 -209t-514 209t-202.5 532.5t202.5 531.5t514 208zM829 66q268 0 444.5 183t176.5 468q0 283 -175 466t-445.5 183t-446.5 -183.5t-176 -466t176 -466.5t446 -184zM575 1855h68q6 -88 57.5 -143t135.5 -55
t135 55t57 143h68q-6 -125 -79 -196.5t-181.5 -71.5t-181.5 71.5t-79 196.5z" />
    <glyph glyph-name="obreve" unicode="&#x14f;" horiz-adv-x="1284" 
d="M641 1053q229 0 385 -151.5t156 -387t-156 -386.5t-385 -151t-384 151t-155 386.5t156 387t383 151.5zM641 63q190 0 320.5 126t130.5 325t-130.5 327t-320.5 128t-320.5 -128t-130.5 -327t130.5 -325t320.5 -126zM385 1452h68q6 -88 57 -143.5t135 -55.5t135 55.5
t58 143.5h67q-6 -125 -78.5 -196.5t-181 -71.5t-181.5 71.5t-79 196.5z" />
    <glyph glyph-name="Ohungarumlaut" unicode="&#x150;" horiz-adv-x="1658" 
d="M829.5 1456q311.5 0 514 -208t202.5 -531.5t-202.5 -532.5t-514 -209t-514 209t-202.5 532.5t202.5 531.5t514 208zM829 66q268 0 444.5 183t176.5 468q0 283 -175 466t-445.5 183t-446.5 -183.5t-176 -466t176 -466.5t446 -184zM1159 1872h105l-254 -285h-86zM885 1872
h102l-254 -285h-86z" />
    <glyph glyph-name="ohungarumlaut" unicode="&#x151;" horiz-adv-x="1284" 
d="M641 1053q229 0 385 -151.5t156 -387t-156 -386.5t-385 -151t-384 151t-155 386.5t156 387t383 151.5zM641 63q190 0 320.5 126t130.5 325t-130.5 327t-320.5 128t-320.5 -128t-130.5 -327t130.5 -325t320.5 -126zM961 1468h104l-254 -284h-86zM686 1468h102l-253 -284
h-86z" />
    <glyph glyph-name="OE" unicode="&#x152;" horiz-adv-x="2404" 
d="M1317 672v-582h971v-90h-1063q-123 -25 -267 -25q-377 0 -611 208t-234 533.5t234.5 532.5t610.5 207q154 0 267 -22h1040v-91h-948v-589h889v-82h-889zM958 66q147 0 265 26v1249q-106 25 -265 25q-330 0 -541.5 -182.5t-211.5 -467t211.5 -467.5t541.5 -183z" />
    <glyph glyph-name="oe" unicode="&#x153;" horiz-adv-x="2220" 
d="M1604 1053q227 0 370.5 -149.5t143.5 -389.5q0 -31 -2 -49h-947q16 -184 144.5 -294t335.5 -110q219 0 356 121l20 -84q-152 -123 -374 -123q-195 0 -332 87.5t-195 238.5h-8q-59 -150 -190 -238t-297 -88q-223 0 -375 152t-152 387q2 236 153 387.5t374 151.5
q166 0 297 -88t190 -238h8q55 150 184.5 238t295.5 88zM635 61q186 0 314 127t128 326t-127 327t-315.5 128t-315 -128t-126.5 -327t128 -326t314 -127zM1169 539h861q-2 188 -123 309t-308 121q-182 0 -302 -118.5t-128 -311.5z" />
    <glyph glyph-name="Racute" unicode="&#x154;" horiz-adv-x="1390" 
d="M956 641q150 -41 197 -197l139 -444h-102l-135 428q-31 94 -107 137t-170 43h-518v-608h-96v1434h612q207 0 339 -112t132 -292q0 -135 -78.5 -237.5t-212.5 -145.5v-6zM764 690q168 0 277.5 92t109.5 240q0 145 -108.5 233t-278.5 88h-504v-653h504zM754 1872h110
l-256 -285h-92z" />
    <glyph glyph-name="racute" unicode="&#x155;" horiz-adv-x="727" 
d="M252 772q59 129 174 205t256 76v-84q-180 0 -307 -123t-127 -316v-530h-88v1030h61l23 -258h8zM422 1468h110l-256 -284h-92z" />
    <glyph glyph-name="uni0156" unicode="&#x156;" horiz-adv-x="1390" 
d="M956 641q150 -41 197 -197l139 -444h-102l-135 428q-31 94 -107 137t-170 43h-518v-608h-96v1434h612q207 0 339 -112t132 -292q0 -135 -78.5 -237.5t-212.5 -145.5v-6zM764 690q168 0 277.5 92t109.5 240q0 145 -108.5 233t-278.5 88h-504v-653h504zM551 -352
q139 12 139 149q0 43 -20 113l80 10q25 -59 24 -129q0 -88 -52 -146.5t-157 -62.5z" />
    <glyph glyph-name="uni0157" unicode="&#x157;" horiz-adv-x="813" 
d="M346 772q59 129 174 205t256 76v-84q-180 0 -307 -123t-127 -316v-530h-88v1030h61l23 -258h8zM152 -352q139 12 139 149q0 43 -21 113l80 10q25 -59 25 -129q0 -88 -52.5 -146.5t-156.5 -62.5z" />
    <glyph glyph-name="Rcaron" unicode="&#x158;" horiz-adv-x="1390" 
d="M956 641q150 -41 197 -197l139 -444h-102l-135 428q-31 94 -107 137t-170 43h-518v-608h-96v1434h612q207 0 339 -112t132 -292q0 -135 -78.5 -237.5t-212.5 -145.5v-6zM764 690q168 0 277.5 92t109.5 240q0 145 -108.5 233t-278.5 88h-504v-653h504zM756 1585h-84
l-246 287h88l199 -227h6l196 227h89z" />
    <glyph glyph-name="rcaron" unicode="&#x159;" horiz-adv-x="763" 
d="M297 772q59 129 174 205t256 76v-84q-180 0 -307 -123t-127 -316v-530h-88v1030h61l23 -258h8zM469 1182h-84l-246 286h88l199 -227h6l197 227h88z" />
    <glyph glyph-name="Sacute" unicode="&#x15a;" horiz-adv-x="1292" 
d="M680 770q276 -57 392 -148.5t116 -246.5q0 -178 -141.5 -289t-378.5 -111q-135 0 -300 50.5t-280 126.5l41 81q268 -170 543 -170q184 0 301 86.5t117 219.5q0 121 -97.5 192.5t-343.5 122.5q-268 55 -386 144.5t-118 248.5q0 162 141.5 270.5t362.5 108.5
q264 0 479 -125l-34 -80q-205 115 -451 115q-182 0 -290.5 -83t-108.5 -204q0 -117 98 -187.5t338 -121.5zM821 1872h111l-256 -285h-92z" />
    <glyph glyph-name="sacute" unicode="&#x15b;" horiz-adv-x="978" 
d="M877 262q0 -125 -101.5 -206t-267.5 -81q-262 0 -434 142l35 71q182 -137 397 -137q129 0 205.5 57.5t76.5 151.5q0 90 -65.5 138t-241.5 85q-197 41 -278.5 108.5t-81.5 184.5t99 197t261 80q106 0 208 -30t155 -62l-27 -74q-147 90 -336 90q-125 0 -198.5 -58.5
t-73.5 -142.5q0 -82 64.5 -131t240.5 -86q197 -43 280 -111.5t83 -185.5zM698 1468h111l-256 -284h-92z" />
    <glyph glyph-name="Scircumflex" unicode="&#x15c;" horiz-adv-x="1292" 
d="M680 770q276 -57 392 -148.5t116 -246.5q0 -178 -141.5 -289t-378.5 -111q-135 0 -300 50.5t-280 126.5l41 81q268 -170 543 -170q184 0 301 86.5t117 219.5q0 121 -97.5 192.5t-343.5 122.5q-268 55 -386 144.5t-118 248.5q0 162 141.5 270.5t362.5 108.5
q264 0 479 -125l-34 -80q-205 115 -451 115q-182 0 -290.5 -83t-108.5 -204q0 -117 98 -187.5t338 -121.5zM850 1585l-199 230h-4l-198 -230h-89l246 287h82l250 -287h-88z" />
    <glyph glyph-name="scircumflex" unicode="&#x15d;" horiz-adv-x="978" 
d="M877 262q0 -125 -101.5 -206t-267.5 -81q-262 0 -434 142l35 71q182 -137 397 -137q129 0 205.5 57.5t76.5 151.5q0 90 -65.5 138t-241.5 85q-197 41 -278.5 108.5t-81.5 184.5t99 197t261 80q106 0 208 -30t155 -62l-27 -74q-147 90 -336 90q-125 0 -198.5 -58.5
t-73.5 -142.5q0 -82 64.5 -131t240.5 -86q197 -43 280 -111.5t83 -185.5zM696 1182l-198 229h-4l-199 -229h-88l246 286h82l249 -286h-88z" />
    <glyph glyph-name="Scedilla" unicode="&#x15e;" horiz-adv-x="1292" 
d="M651 -84q68 -4 117 -48t49 -113.5t-53 -113.5t-141 -44q-57 0 -121 18l16 61q43 -16 96.5 -16t89 24.5t35.5 69.5q0 47 -37.5 79t-117.5 32l-13 45l37 67q-131 10 -275.5 58.5t-244.5 116.5l41 81q268 -170 543 -170q184 0 301 86.5t117 219.5q0 121 -97.5 192.5
t-343.5 122.5q-268 55 -386 144.5t-118 248.5q0 162 141.5 270.5t362.5 108.5q264 0 479 -125l-34 -80q-205 115 -451 115q-182 0 -290.5 -83t-108.5 -204q0 -117 98 -187.5t338 -121.5q276 -57 392 -148.5t116 -246.5q0 -174 -136.5 -284.5t-367.5 -115.5l-33 -57v-2z" />
    <glyph glyph-name="scedilla" unicode="&#x15f;" horiz-adv-x="978" 
d="M498 -84q68 -4 117 -48t49 -113.5t-53.5 -113.5t-141.5 -44q-57 0 -121 18l17 61q43 -16 96 -16t89 24.5t36 69.5q0 47 -38 79t-118 32l-12 45l37 67q-231 16 -381 140l35 71q182 -137 397 -137q129 0 205.5 57.5t76.5 151.5q0 90 -65.5 138t-241.5 85
q-197 41 -278.5 108.5t-81.5 184.5t99 197t261 80q106 0 208 -30t155 -62l-27 -74q-147 90 -336 90q-125 0 -198.5 -58.5t-73.5 -142.5q0 -82 64.5 -131t240.5 -86q197 -43 280 -111.5t83 -185.5q0 -119 -94.5 -198.5t-250.5 -88.5l-34 -57v-2z" />
    <glyph glyph-name="Scaron" unicode="&#x160;" horiz-adv-x="1292" 
d="M680 770q276 -57 392 -148.5t116 -246.5q0 -178 -141.5 -289t-378.5 -111q-135 0 -300 50.5t-280 126.5l41 81q268 -170 543 -170q184 0 301 86.5t117 219.5q0 121 -97.5 192.5t-343.5 122.5q-268 55 -386 144.5t-118 248.5q0 162 141.5 270.5t362.5 108.5
q264 0 479 -125l-34 -80q-205 115 -451 115q-182 0 -290.5 -83t-108.5 -204q0 -117 98 -187.5t338 -121.5zM709 1585h-84l-246 287h88l199 -227h6l196 227h88z" />
    <glyph glyph-name="scaron" unicode="&#x161;" horiz-adv-x="978" 
d="M877 262q0 -125 -101.5 -206t-267.5 -81q-262 0 -434 142l35 71q182 -137 397 -137q129 0 205.5 57.5t76.5 151.5q0 90 -65.5 138t-241.5 85q-197 41 -278.5 108.5t-81.5 184.5t99 197t261 80q106 0 208 -30t155 -62l-27 -74q-147 90 -336 90q-125 0 -198.5 -58.5
t-73.5 -142.5q0 -82 64.5 -131t240.5 -86q197 -43 280 -111.5t83 -185.5zM555 1182h-84l-246 286h88l199 -227h6l197 227h88z" />
    <glyph glyph-name="uni0162" unicode="&#x162;" horiz-adv-x="1273" 
d="M627 -84q68 -4 117 -48t49 -113.5t-53.5 -113.5t-141.5 -44q-57 0 -121 18l17 61q43 -16 96 -16t89 24.5t36 69.5q0 47 -38 79t-118 32l-12 45l51 90h-8v1343h-524v91h1142v-91h-524v-1343h-8l-49 -82v-2z" />
    <glyph glyph-name="uni0163" unicode="&#x163;" horiz-adv-x="880" 
d="M674 -84q68 -4 117 -48t49 -113.5t-53.5 -113.5t-141.5 -44q-57 0 -121 18l17 61q43 -16 96 -16t89 24.5t36 69.5q0 47 -38 79t-118 32l-12 45l37 65q-338 2 -338 371v604h-277v80h277l16 322h72v-322h491v-80h-491v-594q0 -154 61.5 -225.5t196.5 -71.5q113 0 215 41
l18 -77q-2 0 -18 -6.5t-33.5 -12.5t-47.5 -13t-62 -11l-37 -62v-2z" />
    <glyph glyph-name="Tcaron" unicode="&#x164;" horiz-adv-x="1273" 
d="M1208 1434v-91h-524v-1343h-94v1343h-524v91h1142zM713 1585h-84l-246 287h88l199 -227h6l196 227h89z" />
    <glyph glyph-name="tcaron" unicode="&#x165;" horiz-adv-x="944" 
d="M639 59q113 0 215 41l18 -77q-2 0 -25.5 -9.5t-49 -16.5t-71.5 -14.5t-93 -7.5q-340 0 -340 371v604h-277v80h277l16 322h72v-322h491v-80h-491v-594q0 -154 61.5 -225.5t196.5 -71.5zM715 1260l-15 65q139 12 140 150q0 43 -21 112l80 10q25 -59 25 -129
q0 -88 -52.5 -146t-156.5 -62z" />
    <glyph glyph-name="Tbar" unicode="&#x166;" horiz-adv-x="1275" 
d="M66 1343v91h1144v-91h-524v-546h393v-90h-393v-707h-96v707h-393v90h393v546h-524z" />
    <glyph glyph-name="tbar" unicode="&#x167;" horiz-adv-x="880" 
d="M639 59q113 0 215 41l18 -77q-2 0 -17 -6.5t-34.5 -12.5t-47.5 -13t-64.5 -11.5t-75.5 -4.5q-340 0 -340 371v191h-277v77h277v336h-277v80h279l16 318h70v-318h491v-80h-491v-336h491v-77h-491v-181q0 -154 61.5 -225.5t196.5 -71.5z" />
    <glyph glyph-name="Utilde" unicode="&#x168;" horiz-adv-x="1523" 
d="M762 -25q-264 0 -431 155t-167 413v891h94v-891q0 -219 140.5 -348t363.5 -129t363.5 129t140.5 348v891h94v-891q0 -258 -168 -413t-430 -155zM856 1626q-16 0 -32.5 4t-29 8t-32 14.5t-25.5 14.5t-28.5 19.5t-26.5 17.5q-76 51 -121 51q-82 0 -117 -119l-63 19
q41 172 172 172q66 0 154 -60q8 -4 27.5 -18t29.5 -20.5t26.5 -14.5t30 -12t27.5 -4q82 0 113 119l61 -19q-18 -86 -63.5 -129t-102.5 -43z" />
    <glyph glyph-name="utilde" unicode="&#x169;" horiz-adv-x="1323" 
d="M248 1030v-532q0 -190 119.5 -313.5t294 -123.5t294 123t119.5 314v532h88v-1030h-61l-23 258h-6q-59 -131 -174 -206t-258 -75q-205 0 -343 146.5t-138 372.5v534h88zM809 1223q-16 0 -32.5 4t-29 8t-32 14.5t-25.5 14.5l-28.5 19t-26.5 17q-76 51 -121 52
q-82 0 -117 -119l-63 18q41 172 172 172q66 0 153 -59q8 -4 28 -18.5t30 -20.5t26.5 -14t29.5 -12.5t28 -4.5q82 0 112 119l62 -18q-18 -86 -63.5 -129t-102.5 -43z" />
    <glyph glyph-name="Umacron" unicode="&#x16a;" horiz-adv-x="1523" 
d="M762 -25q-264 0 -431 155t-167 413v891h94v-891q0 -219 140.5 -348t363.5 -129t363.5 129t140.5 348v891h94v-891q0 -258 -168 -413t-430 -155zM428 1767h545v-69h-545v69z" />
    <glyph glyph-name="umacron" unicode="&#x16b;" horiz-adv-x="1323" 
d="M248 1030v-532q0 -190 119.5 -313.5t294 -123.5t294 123t119.5 314v532h88v-1030h-61l-23 258h-6q-59 -131 -174 -206t-258 -75q-205 0 -343 146.5t-138 372.5v534h88zM381 1364h545v-70h-545v70z" />
    <glyph glyph-name="Ubreve" unicode="&#x16c;" horiz-adv-x="1523" 
d="M762 -25q-264 0 -431 155t-167 413v891h94v-891q0 -219 140.5 -348t363.5 -129t363.5 129t140.5 348v891h94v-891q0 -258 -168 -413t-430 -155zM440 1855h68q6 -88 57 -143t135 -55t135.5 55t57.5 143h68q-6 -125 -79 -196.5t-181.5 -71.5t-181.5 71.5t-79 196.5z" />
    <glyph glyph-name="ubreve" unicode="&#x16d;" horiz-adv-x="1323" 
d="M248 1030v-532q0 -190 119.5 -313.5t294 -123.5t294 123t119.5 314v532h88v-1030h-61l-23 258h-6q-59 -131 -174 -206t-258 -75q-205 0 -343 146.5t-138 372.5v534h88zM393 1452h68q6 -88 57 -143.5t135 -55.5t135.5 55.5t57.5 143.5h67q-6 -125 -78.5 -196.5t-181 -71.5
t-181.5 71.5t-79 196.5z" />
    <glyph glyph-name="Uring" unicode="&#x16e;" horiz-adv-x="1523" 
d="M762 -25q-264 0 -431 155t-167 413v891h94v-891q0 -219 140.5 -348t363.5 -129t363.5 129t140.5 348v891h94v-891q0 -258 -168 -413t-430 -155zM817 1733q0 41 -29.5 70.5t-72.5 29.5q-41 0 -70 -30.5t-29 -71.5t29 -70t72 -29q41 0 70.5 30t29.5 71zM547 1731
q0 68 49 114.5t121 46.5q70 0 119 -47t49 -114q0 -66 -49.5 -113t-119 -47t-119.5 47t-50 113z" />
    <glyph glyph-name="uring" unicode="&#x16f;" horiz-adv-x="1323" 
d="M248 1030v-532q0 -190 119.5 -313.5t294 -123.5t294 123t119.5 314v532h88v-1030h-61l-23 258h-6q-59 -131 -174 -206t-258 -75q-205 0 -343 146.5t-138 372.5v534h88zM770 1329q0 41 -29.5 71t-72.5 30q-41 0 -70 -31t-29 -72t29 -69.5t72 -28.5q41 0 70.5 29.5
t29.5 70.5zM500 1327q0 68 49 115t121 47q70 0 119 -47t49 -115q0 -66 -49.5 -113t-119 -47t-119.5 47t-50 113z" />
    <glyph glyph-name="Uhungarumlaut" unicode="&#x170;" horiz-adv-x="1523" 
d="M762 -25q-264 0 -431 155t-167 413v891h94v-891q0 -219 140.5 -348t363.5 -129t363.5 129t140.5 348v891h94v-891q0 -258 -168 -413t-430 -155zM1026 1872h104l-253 -285h-86zM752 1872h102l-254 -285h-86z" />
    <glyph glyph-name="uhungarumlaut" unicode="&#x171;" horiz-adv-x="1323" 
d="M248 1030v-532q0 -190 119.5 -313.5t294 -123.5t294 123t119.5 314v532h88v-1030h-61l-23 258h-6q-59 -131 -174 -206t-258 -75q-205 0 -343 146.5t-138 372.5v534h88zM999 1468h105l-254 -284h-86zM725 1468h102l-254 -284h-86z" />
    <glyph glyph-name="Uogonek" unicode="&#x172;" horiz-adv-x="1523" 
d="M1360 543q0 -248 -154.5 -400.5t-400.5 -165.5q-104 -80 -105 -180q0 -49 31 -79.5t92 -30.5q66 0 115 28l16 -67q-63 -37 -145 -37q-86 0 -135 43t-49 125q0 106 98 198q-248 10 -403.5 163t-155.5 403v891h94v-891q0 -219 140.5 -348t363.5 -129t363.5 129t140.5 348
v891h94v-891z" />
    <glyph glyph-name="uogonek" unicode="&#x173;" horiz-adv-x="1259" 
d="M248 1030v-532q0 -190 119.5 -313.5t294 -123.5t294 123t119.5 314v532h88v-1030q-63 -35 -102 -90t-39 -113q0 -49 30.5 -79.5t92.5 -30.5q66 0 115 28l16 -67q-63 -37 -146 -37q-86 0 -135 43t-49 125q0 63 41 128.5t113 110.5l-21 240h-6q-59 -131 -174 -206t-258 -75
q-205 0 -343 146.5t-138 372.5v534h88z" />
    <glyph glyph-name="Wcircumflex" unicode="&#x174;" horiz-adv-x="1994" 
d="M1862 1434h100l-446 -1434h-117l-398 1274h-8l-397 -1274h-117l-446 1434h100l402 -1301h8l401 1301h107l401 -1301h8zM1196 1585l-199 230h-4l-198 -230h-88l245 287h82l250 -287h-88z" />
    <glyph glyph-name="wcircumflex" unicode="&#x175;" horiz-adv-x="1585" 
d="M1167 111l297 919h92l-333 -1030h-107l-319 901h-9l-321 -901h-107l-331 1030h92l295 -919h6l326 919h88l327 -919h4zM961 1182l-199 229h-4l-199 -229h-88l246 286h82l250 -286h-88z" />
    <glyph glyph-name="Ycircumflex" unicode="&#x176;" horiz-adv-x="1361" 
d="M684 688l539 746h114l-610 -850v-584h-96v586l-606 848h112l539 -746h8zM852 1585l-199 230h-4l-198 -230h-89l246 287h82l250 -287h-88z" />
    <glyph glyph-name="ycircumflex" unicode="&#x177;" horiz-adv-x="1038" 
d="M938 1030h92l-473 -1128q-94 -223 -181 -301t-255 -78q-43 0 -113 16v84q59 -16 117 -16q135 0 203.5 67.5t146.5 251.5l33 78l-457 1026h94l408 -905h6zM727 1182l-199 229h-4l-198 -229h-88l245 286h82l250 -286h-88z" />
    <glyph glyph-name="Ydieresis" unicode="&#x178;" horiz-adv-x="1361" 
d="M684 688l539 746h114l-610 -850v-584h-96v586l-606 848h112l539 -746h8zM791 1735q0 33 20 54t53 21t53.5 -21.5t20.5 -53.5q0 -31 -20.5 -51.5t-53.5 -20.5t-53 20.5t-20 51.5zM473 1735q0 33 21.5 54t54.5 21q31 0 51.5 -21.5t20.5 -53.5q0 -29 -20.5 -50.5
t-51.5 -21.5q-33 0 -54.5 20.5t-21.5 51.5z" />
    <glyph glyph-name="Zacute" unicode="&#x179;" horiz-adv-x="1331" 
d="M236 96v-6h999v-90h-1139v74l979 1263v6h-948v91h1083v-78zM856 1872h111l-256 -285h-93z" />
    <glyph glyph-name="zacute" unicode="&#x17a;" horiz-adv-x="1173" 
d="M1065 74v-74h-956v63l778 893h-717v74h840v-61l-779 -895h834zM739 1468h111l-256 -284h-92z" />
    <glyph glyph-name="Zdotaccent" unicode="&#x17b;" horiz-adv-x="1331" 
d="M236 96v-6h999v-90h-1139v74l979 1263v6h-948v91h1083v-78zM602 1737q0 33 20.5 54t53.5 21t53.5 -21.5t20.5 -53.5q0 -29 -20.5 -50.5t-53.5 -21.5t-53.5 21.5t-20.5 50.5z" />
    <glyph glyph-name="zdotaccent" unicode="&#x17c;" horiz-adv-x="1173" 
d="M1065 74v-74h-956v63l778 893h-717v74h840v-61l-779 -895h834zM518 1333q0 33 20.5 54.5t53.5 21.5t53.5 -21.5t20.5 -54.5q0 -31 -21.5 -51t-52.5 -20t-52.5 20t-21.5 51z" />
    <glyph glyph-name="Zcaron" unicode="&#x17d;" horiz-adv-x="1331" 
d="M236 96v-6h999v-90h-1139v74l979 1263v6h-948v91h1083v-78zM735 1585h-84l-245 287h88l198 -227h6l197 227h88z" />
    <glyph glyph-name="zcaron" unicode="&#x17e;" horiz-adv-x="1173" 
d="M1065 74v-74h-956v63l778 893h-717v74h840v-61l-779 -895h834zM651 1182h-84l-245 286h88l198 -227h6l197 227h88z" />
    <glyph glyph-name="longs" unicode="&#x17f;" horiz-adv-x="862" 
d="M397 1124v-1124h-88v946h-278v84h278v105q0 182 89 276t259 94q39 0 77 -4t66.5 -10t49 -12t37 -12.5t18.5 -6.5l-18 -80q-106 43 -221 43q-137 0 -203 -72.5t-66 -226.5z" />
    <glyph glyph-name="florin" unicode="&#x192;" horiz-adv-x="745" 
d="M344 1163q55 295 299 295q61 0 133 -18v-90q-68 18 -117 18q-90 0 -144 -54t-79 -186l-43 -237h303v-82h-319l-193 -1018h-98l190 1018h-215v82h232z" />
    <glyph glyph-name="Ohorn" unicode="&#x1a0;" horiz-adv-x="1802" 
d="M831 1456q188 0 341 -78t247 -219q94 4 142.5 60.5t48.5 189.5v160h88v-160q0 -162 -61.5 -233.5t-176.5 -81.5q90 -170 90 -377q0 -324 -203.5 -533t-515.5 -209q-313 0 -515.5 209t-202.5 532.5t202.5 531.5t515.5 208zM1454 716.5q0 284.5 -176 467t-446.5 182.5
t-446.5 -182.5t-176 -467t176 -467.5t446.5 -183t446.5 183t176 467.5z" />
    <glyph glyph-name="ohorn" unicode="&#x1a1;" horiz-adv-x="1454" 
d="M1182 514q0 -236 -156 -387.5t-383 -151.5q-229 0 -385 152t-156 387.5t156 387t385 151.5q145 0 266 -65.5t193 -180.5q80 8 121 62.5t41 181.5v157h88v-157q0 -154 -55.5 -226.5t-159.5 -87.5q45 -102 45 -223zM193 514q0 -199 130 -326t320.5 -127t320.5 127t130 326
t-130 327t-320.5 128t-320.5 -128t-130 -327z" />
    <glyph glyph-name="Uhorn" unicode="&#x1af;" horiz-adv-x="1550" 
d="M1266 1434h94v-275q90 6 135 61.5t45 188.5v160h88v-160q0 -170 -68.5 -241.5t-199.5 -75.5v-551q0 -258 -167 -412t-431 -154q-262 0 -430 154t-168 412v893h94v-893q0 -219 140.5 -347t363.5 -128t363.5 128t140.5 347v893z" />
    <glyph glyph-name="uhorn" unicode="&#x1b0;" horiz-adv-x="1388" 
d="M664 59q174 0 292.5 123t118.5 316h2v532h88v-252q88 4 132 59.5t44 188.5v158h89v-158q0 -170 -69 -241.5t-196 -75.5v-709h-61l-25 260h-4q-59 -131 -175 -208t-259 -77q-205 0 -343 146.5t-138 374.5v534h90l-2 -532q0 -193 120 -316t296 -123z" />
    <glyph glyph-name="Gcaron" unicode="&#x1e6;" horiz-adv-x="1558" 
d="M836 647v84h602v-563q-238 -193 -545 -193q-344 0 -562 203t-218 526.5t222 537.5t562 214q274 0 469 -119l-35 -88q-182 117 -434 117q-299 0 -494.5 -188.5t-195.5 -473t191.5 -461.5t494.5 -177q252 0 448 151v430h-505zM854 1585h-84l-246 287h88l199 -227h6l197 227
h88z" />
    <glyph glyph-name="gcaron" unicode="&#x1e7;" horiz-adv-x="1273" 
d="M1169 -92q0 -150 -156.5 -267.5t-402.5 -117.5q-125 0 -230.5 30.5t-181 108.5t-75.5 193q0 76 42 140t114 103v4q-178 47 -179 195q0 70 41 123t95 82v4q-70 82 -70 192q0 156 130 255.5t337 99.5q141 0 254 -52q51 59 122.5 91t141.5 24v-78q-111 6 -201 -67v-6
q147 -102 148 -267q0 -156 -129 -252t-338 -96q-213 0 -346 107q-96 -61 -97 -144q0 -72 65.5 -110.5t178.5 -38.5h416q147 -2 234 -66.5t87 -189.5zM207 -131q0 -98 70.5 -162.5t156.5 -86t180 -21.5q203 0 335 93t132 206q0 98 -71.5 144t-182.5 46h-456q-68 -31 -116 -87
t-48 -132zM633 979q-170 0 -274.5 -80t-104.5 -203q0 -121 105.5 -197.5t271.5 -76.5q170 -2 274.5 74.5t104.5 199.5t-106.5 203t-270.5 80zM672 1186h-84l-246 287h88l199 -228h6l196 228h89z" />
    <glyph glyph-name="uni01F4" unicode="&#x1f4;" horiz-adv-x="1558" 
d="M836 647v84h602v-563q-238 -193 -545 -193q-344 0 -562 203t-218 526.5t222 537.5t562 214q274 0 469 -119l-35 -88q-182 117 -434 117q-299 0 -494.5 -188.5t-195.5 -473t191.5 -461.5t494.5 -177q252 0 448 151v430h-505zM973 1849h110l-256 -284h-92z" />
    <glyph glyph-name="uni01F5" unicode="&#x1f5;" horiz-adv-x="1273" 
d="M1169 -92q0 -150 -156.5 -267.5t-402.5 -117.5q-125 0 -230.5 30.5t-181 108.5t-75.5 193q0 76 42 140t114 103v4q-178 47 -179 195q0 70 41 123t95 82v4q-70 82 -70 192q0 156 130 255.5t337 99.5q141 0 254 -52q51 59 122.5 91t141.5 24v-78q-111 6 -201 -67v-6
q147 -102 148 -267q0 -156 -129 -252t-338 -96q-213 0 -346 107q-96 -61 -97 -144q0 -72 65.5 -110.5t178.5 -38.5h416q147 -2 234 -66.5t87 -189.5zM207 -131q0 -98 70.5 -162.5t156.5 -86t180 -21.5q203 0 335 93t132 206q0 98 -71.5 144t-182.5 46h-456q-68 -31 -116 -87
t-48 -132zM633 979q-170 0 -274.5 -80t-104.5 -203q0 -121 105.5 -197.5t271.5 -76.5q170 -2 274.5 74.5t104.5 199.5t-106.5 203t-270.5 80zM831 1468h111l-256 -284h-92z" />
    <glyph glyph-name="Aringacute" unicode="&#x1fa;" 
d="M668 1434h106l641 -1434h-106l-156 354h-864l-158 -354h-106zM324 436h792l-391 881h-8zM813 2019h90l-160 -147q68 -4 113 -50t45 -111.5t-49 -113t-118.5 -47.5t-120 47.5t-50.5 112.5q0 86 76 135zM834 1712q0 41 -30 70.5t-73 29.5q-41 0 -69.5 -30.5t-28.5 -71.5
t28.5 -69.5t71.5 -28.5q41 0 71 29.5t30 70.5z" />
    <glyph glyph-name="aringacute" unicode="&#x1fb;" horiz-adv-x="1183" 
d="M516 -23q-182 0 -296 96.5t-114 241.5q0 152 127 245t375 93q172 0 328 -39v56q0 150 -89 224.5t-280 74.5q-37 0 -75.5 -4t-71.5 -11.5t-62.5 -15.5t-53 -15.5t-41 -14.5t-25.5 -11l-11 -4l-30 76l8 2q6 4 17 9t28.5 11t38 13.5t44 14.5t52.5 13t57.5 10.5t62.5 7.5
t66 3q223 0 338 -93.5t115 -293.5v-666h-59l-23 223h-4q-55 -115 -162.5 -180.5t-259.5 -65.5zM616 578q-207 0 -313 -72t-106 -189q0 -115 90 -189.5t243 -74.5q176 0 290 120t114 294v72q-132 39 -318 39zM670 1642h90l-160 -147q68 -4 113 -50t45 -111.5t-49.5 -112.5
t-119 -47t-119.5 47t-50 112q0 86 76 135zM690 1335q0 41 -29.5 71t-72.5 30q-41 0 -70 -31t-29 -72t29 -69.5t72 -28.5q41 0 70.5 29.5t29.5 70.5z" />
    <glyph glyph-name="AEacute" unicode="&#x1fc;" horiz-adv-x="2244" 
d="M1157 672v-582h971v-90h-1067v354h-676l-252 -354h-110l1011 1434h1069v-91h-946v-589h889v-82h-889zM438 436h623v881h-2zM1325 1872h111l-256 -285h-93z" />
    <glyph glyph-name="aeacute" unicode="&#x1fd;" horiz-adv-x="2115" 
d="M1501 1053q223 0 367.5 -132.5t144.5 -365.5q0 -6 -4 -68h-948q10 -193 136 -309.5t339 -116.5q227 0 365 121l18 -84q-147 -123 -381 -123q-197 0 -333 88.5t-191 243.5h-8q-53 -150 -182.5 -240t-303.5 -90q-184 0 -299 96.5t-115 243.5q0 154 121 245t369 91
q186 0 369 -65v82q0 147 -102.5 223t-297.5 76q-37 0 -75.5 -4t-71.5 -11.5t-62.5 -15.5t-53 -15.5t-41 -14.5t-28.5 -11l-8 -4l-28 76q168 84 372 84q397 0 469 -265h9q66 123 186.5 194t267.5 71zM961 461v53q-176 68 -365 68q-205 0 -303 -72t-98 -193q0 -115 92 -190.5
t245 -75.5q180 0 304.5 117t124.5 293zM1063 563h860q-2 195 -123 300.5t-303 105.5q-176 0 -298 -113t-136 -293zM1208 1468h111l-256 -284h-92z" />
    <glyph glyph-name="Oslashacute" unicode="&#x1fe;" horiz-adv-x="1656" 
d="M1266 1315q131 -100 204.5 -255t73.5 -343q0 -324 -202.5 -533t-512.5 -209q-195 0 -358 91l-65 -105l-80 51l67 105q-133 100 -206.5 255.5t-73.5 344.5q0 324 202.5 531.5t513.5 207.5q193 0 357 -90l65 104l80 -51zM442 195l695 1093q-143 78 -308 78
q-270 0 -446 -183.5t-176 -465.5q0 -164 62 -298t173 -224zM829 66q268 0 444.5 183t176.5 468q0 332 -236 520l-692 -1094q139 -77 307 -77zM1018 1872h110l-256 -285h-92z" />
    <glyph glyph-name="oslashacute" unicode="&#x1ff;" horiz-adv-x="1284" 
d="M971 950q211 -154 211 -436q0 -236 -156 -387.5t-383 -151.5q-139 0 -252 60l-43 -68l-65 41l41 66q-102 72 -162 186.5t-60 253.5q0 236 156 387.5t385 151.5q139 0 262 -62l39 62l66 -41zM369 141l493 781q-100 53 -219 53q-193 0 -325 -130t-132 -331q1 -238 183 -373
zM643 55q193 0 324 129t131 330q0 231 -172 367l-492 -779q94 -47 209 -47zM819 1468h111l-256 -284h-92z" />
    <glyph glyph-name="uni0218" unicode="&#x218;" horiz-adv-x="1292" 
d="M680 770q276 -57 392 -148.5t116 -246.5q0 -178 -141.5 -289t-378.5 -111q-135 0 -300 50.5t-280 126.5l41 81q268 -170 543 -170q184 0 301 86.5t117 219.5q0 121 -97.5 192.5t-343.5 122.5q-268 55 -386 144.5t-118 248.5q0 162 141.5 270.5t362.5 108.5
q264 0 479 -125l-34 -80q-205 115 -451 115q-182 0 -290.5 -83t-108.5 -204q0 -117 98 -187.5t338 -121.5zM539 -352q139 12 139 149q0 43 -21 113l80 10q25 -59 25 -129q0 -88 -52.5 -146.5t-156.5 -62.5z" />
    <glyph glyph-name="uni0219" unicode="&#x219;" horiz-adv-x="978" 
d="M877 262q0 -125 -101.5 -206t-267.5 -81q-262 0 -434 142l35 71q182 -137 397 -137q129 0 205.5 57.5t76.5 151.5q0 90 -65.5 138t-241.5 85q-197 41 -278.5 108.5t-81.5 184.5t99 197t261 80q106 0 208 -30t155 -62l-27 -74q-147 90 -336 90q-125 0 -198.5 -58.5
t-73.5 -142.5q0 -82 64.5 -131t240.5 -86q197 -43 280 -111.5t83 -185.5zM350 -352q139 12 139 149q0 43 -20 113l80 10q25 -59 24 -129q0 -88 -52 -146.5t-156 -62.5z" />
    <glyph glyph-name="uni021A" unicode="&#x21a;" horiz-adv-x="1273" 
d="M1208 1434v-91h-524v-1343h-94v1343h-524v91h1142zM489 -352q139 12 140 149q0 43 -21 113l80 10q25 -59 25 -129q0 -88 -52.5 -146.5t-156.5 -62.5z" />
    <glyph glyph-name="uni021B" unicode="&#x21b;" horiz-adv-x="880" 
d="M639 59q113 0 215 41l18 -77q-2 0 -25.5 -9.5t-49 -16.5t-71.5 -14.5t-93 -7.5q-340 0 -340 371v604h-277v80h277l16 322h72v-322h491v-80h-491v-594q0 -154 61.5 -225.5t196.5 -71.5zM471 -352q139 12 139 149q0 43 -20 113l80 10q25 -59 24 -129q0 -88 -52 -146.5
t-157 -62.5z" />
    <glyph glyph-name="uni021C" unicode="&#x21c;" horiz-adv-x="1028" 
d="M455 692q90 0 172 -19.5t157.5 -63.5t119.5 -126t44 -194q0 -125 -56 -234.5t-146.5 -187.5t-206 -139.5t-228 -96t-221.5 -51.5l-10 88q117 18 241.5 62.5t250.5 117t207 187.5t81 250q0 96 -40 166.5t-107.5 106.5t-145.5 51.5t-168 11.5q-117 -6 -211 -33l-14 80
q573 170 574 419q0 145 -104.5 216t-242.5 71q-193 0 -356 -114l-27 69q178 127 396 127q170 0 295 -90t125 -266q0 -240 -379 -400v-8z" />
    <glyph glyph-name="uni0232" unicode="&#x232;" horiz-adv-x="1361" 
d="M684 688l539 746h114l-610 -850v-584h-96v586l-606 848h112l539 -746h8zM369 1767h544v-69h-544v69z" />
    <glyph glyph-name="uni0233" unicode="&#x233;" horiz-adv-x="1038" 
d="M938 1030h92l-473 -1128q-94 -223 -181 -301t-255 -78q-43 0 -113 16v84q59 -16 117 -16q135 0 203.5 67.5t146.5 251.5l33 78l-457 1026h94l408 -905h6zM240 1364h544v-70h-544v70z" />
    <glyph glyph-name="uni0237" unicode="&#x237;" horiz-adv-x="434" 
d="M182 -94v1124h88v-1136q0 -371 -333 -371q-59 0 -142 12l8 82q74 -12 125 -12q135 0 194.5 72.5t59.5 228.5z" />
    <glyph glyph-name="circumflex" unicode="&#x2c6;" horiz-adv-x="565" 
d="M483 1182l-198 229h-4l-199 -229h-88l246 286h82l249 -286h-88z" />
    <glyph glyph-name="caron" unicode="&#x2c7;" horiz-adv-x="565" 
d="M324 1182h-84l-246 286h88l199 -227h6l196 227h88z" />
    <glyph glyph-name="uni02C9" unicode="&#x2c9;" horiz-adv-x="532" 
d="M-6 1364h545v-70h-545v70z" />
    <glyph glyph-name="breve" unicode="&#x2d8;" horiz-adv-x="507" 
d="M-6 1452h67q6 -88 57.5 -143.5t135.5 -55.5t135 55.5t57 143.5h68q-6 -125 -79 -196.5t-181.5 -71.5t-181 71.5t-78.5 196.5z" />
    <glyph glyph-name="dotaccent" unicode="&#x2d9;" horiz-adv-x="155" 
d="M4 1333q0 33 20.5 54.5t53.5 21.5t53.5 -21.5t20.5 -54.5q0 -31 -20.5 -51t-53.5 -20t-53.5 20t-20.5 51z" />
    <glyph glyph-name="ring" unicode="&#x2da;" horiz-adv-x="325" 
d="M264 1331q0 41 -29.5 71t-72.5 30q-41 0 -70 -31t-29 -72t29 -69.5t72 -28.5q41 0 70.5 29.5t29.5 70.5zM-6 1329q0 68 49 115t121 47q70 0 119 -47t49 -115q0 -66 -49.5 -113t-119 -47t-119.5 47t-50 113z" />
    <glyph glyph-name="ogonek" unicode="&#x2db;" horiz-adv-x="317" 
d="M154 23l57 -23q-63 -35 -102 -90t-39 -113q0 -49 30.5 -79.5t92.5 -30.5q66 0 114 28l17 -67q-66 -37 -146 -37q-86 0 -135 43t-49 125q0 63 43 131t117 113z" />
    <glyph glyph-name="tilde" unicode="&#x2dc;" horiz-adv-x="628" 
d="M469 1223q-16 0 -32.5 4t-29 8t-32 14.5t-25.5 14.5l-28.5 19t-26.5 17q-78 51 -121 52q-82 0 -117 -119l-63 18q41 172 172 172q66 0 153 -59q8 -4 28 -18.5t30 -20.5t26.5 -14t29.5 -12.5t28 -4.5q82 0 112 119l62 -18q-18 -86 -63.5 -129t-102.5 -43z" />
    <glyph glyph-name="hungarumlaut" unicode="&#x2dd;" horiz-adv-x="604" 
d="M506 1468h104l-254 -284h-86zM231 1468h103l-254 -284h-86z" />
    <glyph glyph-name="gravecomb" unicode="&#x300;" horiz-adv-x="335" 
d="M-6 1468h108l240 -284h-92z" />
    <glyph glyph-name="acutecomb" unicode="&#x301;" horiz-adv-x="335" 
d="M231 1468h111l-256 -284h-92z" />
    <glyph glyph-name="uni0302" unicode="&#x302;" horiz-adv-x="565" 
d="M483 1182l-198 229h-4l-199 -229h-88l246 286h82l249 -286h-88z" />
    <glyph glyph-name="tildecomb" unicode="&#x303;" horiz-adv-x="628" 
d="M469 1223q-16 0 -32.5 4t-29 8t-32 14.5t-25.5 14.5l-28.5 19t-26.5 17q-78 51 -121 52q-82 0 -117 -119l-63 18q41 172 172 172q66 0 153 -59q8 -4 28 -18.5t30 -20.5t26.5 -14t29.5 -12.5t28 -4.5q82 0 112 119l62 -18q-18 -86 -63.5 -129t-102.5 -43z" />
    <glyph glyph-name="uni0304" unicode="&#x304;" horiz-adv-x="532" 
d="M-6 1364h545v-70h-545v70z" />
    <glyph glyph-name="uni0306" unicode="&#x306;" horiz-adv-x="507" 
d="M446 1452h68q-6 -125 -79 -196.5t-181.5 -71.5t-181 71.5t-78.5 196.5h67q6 -88 57.5 -143.5t135.5 -55.5t135 55.5t57 143.5z" />
    <glyph glyph-name="uni0307" unicode="&#x307;" horiz-adv-x="135" 
d="M-6 1333q0 33 20.5 54.5t53 21.5t53 -21.5t20.5 -54.5q0 -31 -21.5 -51t-52 -20t-52 20t-21.5 51z" />
    <glyph glyph-name="uni0308" unicode="&#x308;" horiz-adv-x="452" 
d="M311 1331q0 33 20.5 54.5t53.5 21.5t53.5 -21.5t20.5 -54.5q0 -29 -20.5 -50t-53.5 -21t-53.5 21t-20.5 50zM-6 1331q0 33 21.5 54.5t54.5 21.5q31 0 51 -21.5t20 -54.5q0 -29 -20.5 -50t-50.5 -21q-33 0 -54.5 20t-21.5 51z" />
    <glyph glyph-name="uni030A" unicode="&#x30a;" horiz-adv-x="325" 
d="M264 1329q0 41 -29.5 71t-72.5 30q-41 0 -70 -31t-29 -72t29 -69.5t72 -28.5q41 0 70.5 29.5t29.5 70.5zM-6 1327q0 68 49 115t121 47q70 0 119 -47t49 -115q0 -66 -49.5 -113t-119 -47t-119.5 47t-50 113z" />
    <glyph glyph-name="uni030B" unicode="&#x30b;" horiz-adv-x="604" 
d="M506 1468h104l-254 -284h-86zM231 1468h103l-254 -284h-86z" />
    <glyph glyph-name="uni030C" unicode="&#x30c;" horiz-adv-x="565" 
d="M324 1182h-84l-246 286h88l199 -227h6l196 227h88z" />
    <glyph glyph-name="uni0326" unicode="&#x326;" horiz-adv-x="210" 
d="M8 -418l-14 66q139 12 139 149q0 43 -20 113l80 10q25 -59 24 -129q0 -88 -52.5 -146.5t-156.5 -62.5z" />
    <glyph glyph-name="uni0327" unicode="&#x327;" horiz-adv-x="303" 
d="M143 -84q68 -4 117 -48t49 -113.5t-53 -113.5t-141 -44q-57 0 -121 18l16 61q43 -16 96.5 -16t89 24.5t35.5 69.5q0 47 -37.5 79t-117.5 32l-13 45l54 94h78l-52 -86v-2z" />
    <glyph glyph-name="uni0328" unicode="&#x328;" horiz-adv-x="317" 
d="M154 23l57 -23q-63 -35 -102 -90t-39 -113q0 -49 30.5 -79.5t92.5 -30.5q66 0 114 28l17 -67q-66 -37 -146 -37q-86 0 -135 43t-49 125q0 63 43 131t117 113z" />
    <glyph glyph-name="uni0344" unicode="&#x344;" horiz-adv-x="673" 
d="M541 1341q0 31 19.5 50.5t49.5 19.5q29 0 49.5 -19.5t20.5 -50.5q0 -29 -20.5 -49t-51.5 -20q-29 0 -48 20t-19 49zM344 1493h105l-146 -295h-84zM-6 1341q0 31 19.5 50.5t49.5 19.5q29 0 49.5 -19.5t20.5 -50.5q0 -29 -20.5 -49t-49.5 -20q-31 0 -50 20t-19 49z" />
    <glyph glyph-name="uni0374" unicode="&#x374;" horiz-adv-x="198" 
d="M109 1501h96l-131 -305h-80z" />
    <glyph glyph-name="uni0375" unicode="&#x375;" horiz-adv-x="301" 
d="M211 0h96l-131 -305h-80z" />
    <glyph glyph-name="uni037E" unicode="&#x37e;" horiz-adv-x="403" 
d="M201 901q-31 0 -53.5 22.5t-22.5 53.5t22.5 53.5t53.5 22.5q33 0 55.5 -22.5t22.5 -53.5t-22.5 -53.5t-55.5 -22.5zM199 123q37 0 62.5 -30t25.5 -81q0 -68 -35 -130t-86 -99l-53 43q41 29 69.5 72t30.5 82l-8 -3q-6 -2 -10 -2q-31 0 -50.5 21.5t-19.5 52.5t21.5 52.5
t52.5 21.5z" />
    <glyph glyph-name="tonos" unicode="&#x384;" horiz-adv-x="413" 
d="M305 1501h96l-131 -305h-80z" />
    <glyph glyph-name="dieresistonos" unicode="&#x385;" horiz-adv-x="1103" 
d="M756 1341q0 31 19.5 50.5t49.5 19.5q29 0 49.5 -19.5t20.5 -50.5q0 -29 -20.5 -49t-51.5 -20q-29 0 -48 20t-19 49zM559 1493h105l-146 -295h-84zM209 1341q0 31 19.5 50.5t50.5 19.5q29 0 49 -19.5t20 -50.5q0 -29 -20.5 -49t-48.5 -20q-31 0 -50.5 20t-19.5 49z" />
    <glyph glyph-name="Alphatonos" unicode="&#x386;" 
d="M668 1434h106l641 -1434h-106l-156 354h-864l-158 -354h-106zM324 436h792l-391 881h-8zM420 1442h96l-131 -305h-80z" />
    <glyph glyph-name="anoteleia" unicode="&#x387;" horiz-adv-x="346" 
d="M172 641q-31 0 -53.5 22.5t-22.5 53.5t22.5 53.5t53.5 22.5q33 0 55.5 -22.5t22.5 -53.5t-22.5 -53.5t-55.5 -22.5z" />
    <glyph glyph-name="Epsilontonos" unicode="&#x388;" horiz-adv-x="1460" 
d="M377 672v-582h971v-90h-1065v1434h1042v-91h-948v-589h889v-82h-889zM86 1442h96l-131 -305h-80z" />
    <glyph glyph-name="Etatonos" unicode="&#x389;" horiz-adv-x="1646" 
d="M1386 752v682h97v-1434h-97v659h-1007v-659h-96v1434h96v-682h1007zM86 1442h96l-131 -305h-80z" />
    <glyph glyph-name="Iotatonos" unicode="&#x38a;" horiz-adv-x="540" 
d="M283 0v1434h94v-1434h-94zM86 1442h96l-131 -305h-80z" />
    <glyph glyph-name="Omicrontonos" unicode="&#x38c;" horiz-adv-x="1650" 
d="M821.5 1456q311.5 0 514 -208t202.5 -531.5t-202.5 -532.5t-514 -209t-514.5 209t-203 532.5t203 531.5t514.5 208zM821 66q268 0 444.5 183t176.5 468q0 283 -175 466t-445.5 183t-446.5 -183.5t-176 -466t176 -466.5t446 -184zM229 1442l-131 -305h-80l115 305h96z" />
    <glyph glyph-name="Upsilontonos" unicode="&#x38e;" horiz-adv-x="1540" 
d="M1430 1460l12 -86q-164 -25 -292 -175t-190.5 -349t-62.5 -397v-451h-88v451q0 199 -62.5 397.5t-191.5 349t-293 174.5l12 86q215 -25 370 -234.5t204 -490.5h8q31 180 107.5 336t200 264.5t266.5 124.5zM231 1442l-131 -305h-80l115 305h96z" />
    <glyph glyph-name="Omegatonos" unicode="&#x38f;" horiz-adv-x="1677" 
d="M1161 98v-8h393v-90h-593v84q211 43 368.5 245.5t157.5 420.5q0 291 -172 454.5t-450.5 163.5t-449.5 -164t-171 -454q0 -217 156.5 -420t367.5 -246v-84h-592v90h391v8q-188 84 -304 275.5t-116 390.5q0 319 199 506.5t518.5 187.5t518 -187.5t198.5 -506.5
q0 -199 -116 -390.5t-304 -275.5zM268 1442l-131 -305h-80l115 305h96z" />
    <glyph glyph-name="iotadieresistonos" unicode="&#x390;" horiz-adv-x="464" 
d="M436 1341q0 31 19.5 50.5t50.5 19.5q29 0 49 -19.5t20 -50.5q0 -29 -20 -49t-51 -20q-29 0 -48.5 20t-19.5 49zM240 1493h104l-145 -295h-84zM-111 1341q0 31 19.5 50.5t50.5 19.5q29 0 49.5 -19.5t20.5 -50.5q0 -29 -20.5 -49t-49.5 -20q-31 0 -50.5 20t-19.5 49z
M322 59q41 0 84 15l12 -82q-90 -16 -107 -17q-197 0 -196 213v842h86v-817q0 -80 25.5 -117t95.5 -37z" />
    <glyph glyph-name="Alpha" unicode="&#x391;" 
d="M668 1434h106l641 -1434h-106l-156 354h-864l-158 -354h-106zM324 436h792l-391 881h-8z" />
    <glyph glyph-name="Beta" unicode="&#x392;" horiz-adv-x="1437" 
d="M1001 743q145 -35 232.5 -130t87.5 -228q0 -168 -135 -276.5t-342 -108.5h-680v1434h653q186 0 307 -99.5t121 -257.5q0 -113 -65.5 -197.5t-178.5 -127.5v-9zM836 88q170 0 280.5 85t110.5 222q0 135 -109.5 217t-281.5 82h-578v-606h578zM258 1346v-572h549
q150 0 246 80t96 209q0 127 -95.5 205t-246.5 78h-549z" />
    <glyph glyph-name="Gamma" unicode="&#x393;" horiz-adv-x="1191" 
d="M164 1434h960v-91h-864v-1343h-96v1434z" />
    <glyph glyph-name="uni0394" unicode="&#x394;" horiz-adv-x="1277" 
d="M692 1434l561 -1362v-72h-1228v72l561 1362h106zM131 84h1016l-504 1233h-8z" />
    <glyph glyph-name="Epsilon" unicode="&#x395;" horiz-adv-x="1341" 
d="M258 672v-582h971v-90h-1065v1434h1042v-91h-948v-589h889v-82h-889z" />
    <glyph glyph-name="Zeta" unicode="&#x396;" horiz-adv-x="1331" 
d="M236 96v-6h999v-90h-1139v74l979 1263v6h-948v91h1083v-78z" />
    <glyph glyph-name="Eta" unicode="&#x397;" horiz-adv-x="1525" 
d="M1268 752v682h96v-1434h-96v659h-1008v-659h-96v1434h96v-682h1008z" />
    <glyph glyph-name="Theta" unicode="&#x398;" horiz-adv-x="1656" 
d="M827 66q270 0 446.5 183t176.5 467.5t-176 468t-447 183.5q-268 0 -444 -183.5t-176 -468t176 -467.5t444 -183zM827 1458q311 0 514 -209t203 -532.5t-202.5 -532.5t-514.5 -209q-309 0 -511.5 209t-202.5 532.5t202.5 532.5t511.5 209zM1251 676h-848v82h848v-82z" />
    <glyph glyph-name="Iota" unicode="&#x399;" horiz-adv-x="421" 
d="M164 0v1434h94v-1434h-94z" />
    <glyph glyph-name="Kappa" unicode="&#x39a;" horiz-adv-x="1470" 
d="M1341 1434l-624 -594l710 -840h-116l-666 776l-385 -362v-414h-96v1434h96v-902h6l955 902h120z" />
    <glyph glyph-name="Lambda" unicode="&#x39b;" 
d="M772 1434l643 -1434h-106l-586 1313h-8l-584 -1313h-106l641 1434h106z" />
    <glyph glyph-name="Mu" unicode="&#x39c;" horiz-adv-x="1755" 
d="M258 1260v-1260h-94v1434h119l591 -1284h7l592 1284h118v-1434h-94v1260h-8l-578 -1260h-67l-578 1260h-8z" />
    <glyph glyph-name="Nu" unicode="&#x39d;" horiz-adv-x="1527" 
d="M1364 0h-96l-1000 1276h-8v-1276h-96v1434h98l1000 -1276h8v1276h94v-1434z" />
    <glyph glyph-name="Xi" unicode="&#x39e;" horiz-adv-x="1290" 
d="M172 758h944v-82h-944v82zM113 1434h1063v-91h-1063v91zM113 0v90h1063v-90h-1063z" />
    <glyph glyph-name="Omicron" unicode="&#x39f;" horiz-adv-x="1658" 
d="M829.5 1456q311.5 0 514 -208t202.5 -531.5t-202.5 -532.5t-514 -209t-514 209t-202.5 532.5t202.5 531.5t514 208zM829 66q268 0 444.5 183t176.5 468q0 283 -175 466t-445.5 183t-446.5 -183.5t-176 -466t176 -466.5t446 -184z" />
    <glyph glyph-name="Pi" unicode="&#x3a0;" horiz-adv-x="1454" 
d="M164 1434h1128v-1434h-94v1343h-940v-1343h-94v1434z" />
    <glyph glyph-name="Rho" unicode="&#x3a1;" horiz-adv-x="1374" 
d="M258 532v-532h-94v1434h663q207 0 342.5 -128t135.5 -319q0 -193 -135.5 -324t-342.5 -131h-569zM258 1341v-723h559q170 0 281.5 106.5t111.5 260.5t-110.5 255t-282.5 101h-559z" />
    <glyph glyph-name="Sigma" unicode="&#x3a3;" horiz-adv-x="1288" 
d="M657 717l-419 -623v-4h938v-90h-1063v78l432 639l-412 643v74h1022v-91h-895v-4z" />
    <glyph glyph-name="Tau" unicode="&#x3a4;" horiz-adv-x="1273" 
d="M1208 1434v-91h-524v-1343h-94v1343h-524v91h1142z" />
    <glyph glyph-name="Upsilon" unicode="&#x3a5;" horiz-adv-x="1228" 
d="M1192 1460l12 -86q-164 -25 -292 -175t-190.5 -349t-62.5 -397v-451h-88v451q0 199 -62.5 397.5t-191.5 349t-292 174.5l12 86q215 -25 369.5 -234.5t203.5 -490.5h8q31 180 108 336t200 264.5t266 124.5z" />
    <glyph glyph-name="Phi" unicode="&#x3a6;" horiz-adv-x="1658" 
d="M1546 717q0 -274 -187.5 -454.5t-484.5 -194.5v-115h-92v115q-295 16 -482 197t-187 452q0 274 187 455.5t482 197.5v111h92v-111q299 -14 485.5 -195.5t186.5 -457.5zM209 717q0 -236 159.5 -393.5t413.5 -173.5v1136q-254 -16 -413.5 -173.5t-159.5 -395.5zM874 150
q256 14 417 171.5t161 395.5q0 240 -161 397.5t-417 171.5v-1136z" />
    <glyph glyph-name="Chi" unicode="&#x3a7;" horiz-adv-x="1361" 
d="M31 0l583 731l-561 703h113l512 -633h4l512 633h115l-564 -703l584 -731h-112l-535 664h-4l-535 -664h-112z" />
    <glyph glyph-name="Psi" unicode="&#x3a8;" horiz-adv-x="1579" 
d="M1323 1434h92v-545q0 -248 -160.5 -383t-418.5 -148v-358h-93v358q-256 12 -417.5 148.5t-161.5 382.5v545h94v-545q0 -207 135 -317.5t350 -122.5v985h93v-985q217 12 352 121.5t135 318.5v545z" />
    <glyph glyph-name="uni03A9" unicode="&#x3a9;" horiz-adv-x="1658" 
d="M1126 98v-8h394v-90h-594v84q211 43 368.5 245.5t157.5 420.5q0 291 -172 454.5t-450.5 163.5t-449.5 -164t-171 -454q0 -217 156.5 -420t367.5 -246v-84h-592v90h391v8q-188 84 -303.5 275.5t-115.5 390.5q0 319 198.5 506.5t518 187.5t518 -187.5t198.5 -506.5
q0 -199 -116 -390.5t-304 -275.5z" />
    <glyph glyph-name="Iotadieresis" unicode="&#x3aa;" horiz-adv-x="339" 
d="M123 0v1434h94v-1434h-94zM256 1735q0 33 20.5 54t53 21t53 -21.5t20.5 -53.5q0 -31 -21.5 -51.5t-52 -20.5t-52 20.5t-21.5 51.5zM-61 1735q0 33 21.5 54t53.5 21q31 0 51.5 -21.5t20.5 -53.5q0 -29 -20.5 -50.5t-51.5 -21.5q-33 0 -54 20.5t-21 51.5z" />
    <glyph glyph-name="Upsilondieresis" unicode="&#x3ab;" horiz-adv-x="1228" 
d="M1192 1460l12 -86q-164 -25 -292 -175t-190.5 -349t-62.5 -397v-451h-88v451q0 199 -62.5 397.5t-191.5 349t-292 174.5l12 86q215 -25 369.5 -234.5t203.5 -490.5h8q31 180 108 336t200 264.5t266 124.5zM700 1735q0 33 20.5 54t53.5 21t53.5 -21.5t20.5 -53.5
q0 -31 -20.5 -51.5t-53.5 -20.5t-53.5 20.5t-20.5 51.5zM383 1735q0 33 21.5 54t54.5 21q31 0 51 -21.5t20 -53.5q0 -29 -20.5 -50.5t-50.5 -21.5q-33 0 -54.5 20.5t-21.5 51.5z" />
    <glyph glyph-name="alphatonos" unicode="&#x3ac;" horiz-adv-x="1400" 
d="M1282 61q45 0 70 15l10 -82q-37 -18 -98 -19q-76 0 -113 59.5t-41 145.5v13q-2 14 -3 38.5t-1 47.5h-8q-61 -139 -188.5 -221.5t-284.5 -82.5q-221 0 -372 152t-151 387.5t150.5 387t372.5 151.5q166 0 296 -88t189 -240h8l29 305h88l-49 -526q2 -2 6 -141.5t4 -147.5
q4 -154 86 -154zM641 61q190 0 320.5 127t130.5 326t-130.5 327t-320.5 128t-320.5 -128t-130.5 -327t130.5 -326t320.5 -127zM766 1501h96l-131 -305h-80z" />
    <glyph glyph-name="epsilontonos" unicode="&#x3ad;" horiz-adv-x="1079" 
d="M625 51q217 0 383 45l14 -65q-168 -53 -416 -54q-225 0 -361 72t-136 219q0 90 72.5 164t193.5 98v9q-109 33 -167 96t-58 131q0 133 119.5 211t348.5 78q188 0 367 -51l-16 -72q-176 49 -336 49q-387 0 -387 -219q0 -76 99 -138.5t261 -62.5h301v-67h-327
q-174 0 -273.5 -66t-99.5 -154q0 -113 112.5 -168t305.5 -55zM649 1501h96l-131 -305h-79z" />
    <glyph glyph-name="etatonos" unicode="&#x3ae;" horiz-adv-x="1323" 
d="M745 1053q205 0 343.5 -146.5t138.5 -371.5v-990h-88v987q0 190 -120 313.5t-294 123.5t-294 -123t-120 -314v-532h-88v1030h62l22 -252h8q59 127 173 201t257 74zM791 1501h96l-131 -305h-80z" />
    <glyph glyph-name="iotatonos" unicode="&#x3af;" horiz-adv-x="514" 
d="M430 59q41 0 84 15l12 -82q-90 -16 -106 -17q-197 0 -197 213v842h86v-817q0 -80 25.5 -117t95.5 -37zM346 1501h96l-131 -305h-80z" />
    <glyph glyph-name="upsilondieresistonos" unicode="&#x3b0;" horiz-adv-x="1263" 
d="M1061 1030h94q70 -174 70 -352q0 -150 -28 -271.5t-87 -221t-163.5 -155t-248.5 -55.5q-209 0 -342 130.5t-133 381.5v543h88v-532q0 -217 108.5 -327t285.5 -110q156 0 254 86t136 216.5t38 304.5q0 200 -72 362zM928 1341q0 31 19.5 50.5t49.5 19.5q29 0 49.5 -19.5
t20.5 -50.5q0 -29 -20.5 -49t-51.5 -20q-29 0 -48 20t-19 49zM731 1493h105l-146 -295h-84zM381 1341q0 31 19.5 50.5t50.5 19.5q29 0 49 -19.5t20 -50.5q0 -29 -20.5 -49t-48.5 -20q-31 0 -50.5 20t-19.5 49z" />
    <glyph glyph-name="alpha" unicode="&#x3b1;" horiz-adv-x="1400" 
d="M1282 61q45 0 70 15l10 -82q-37 -18 -98 -19q-76 0 -113 59.5t-41 145.5v13q-2 14 -3 38.5t-1 47.5h-8q-61 -139 -188.5 -221.5t-284.5 -82.5q-221 0 -372 152t-151 387.5t150.5 387t372.5 151.5q166 0 296 -88t189 -240h8l29 305h88l-49 -526q2 -2 6 -141.5t4 -147.5
q4 -154 86 -154zM641 61q190 0 320.5 127t130.5 326t-130.5 327t-320.5 128t-320.5 -128t-130.5 -327t130.5 -326t320.5 -127z" />
    <glyph glyph-name="beta" unicode="&#x3b2;" horiz-adv-x="1239" 
d="M793 799q154 -29 248 -136.5t94 -254.5q0 -184 -136.5 -307.5t-341.5 -123.5q-106 0 -222 48.5t-181 109.5h-6v-151q0 -315 28 -439h-90q-27 119 -26 439v1007q0 258 126 386t341 128q180 0 295.5 -102.5t115.5 -255.5q0 -66 -21.5 -130.5t-79.5 -126t-144 -87.5v-4z
M641 59q172 0 285.5 104.5t113.5 254.5q0 152 -112.5 248t-313.5 96h-84v63h78q186 2 266 93.5t80 209.5q0 125 -93 209t-238 84q-170 0 -272.5 -105.5t-102.5 -318.5v-755q55 -70 168.5 -126.5t224.5 -56.5z" />
    <glyph glyph-name="gamma" unicode="&#x3b3;" horiz-adv-x="985" 
d="M834 1030h90q2 -236 -130 -491.5t-294 -434.5q2 -12 2 -555h-92q2 23 1 280t-8 280q-10 225 -145 509.5t-270 411.5h112q121 -119 240 -374t139 -441h6q351 483 349 815z" />
    <glyph glyph-name="delta" unicode="&#x3b4;" horiz-adv-x="1261" 
d="M623 985q231 -94 299 -135q238 -141 237 -385q0 -221 -154.5 -355.5t-375.5 -134.5q-223 0 -375 134.5t-152 355.5q0 319 351 493v9q-207 102 -207 268q0 92 66.5 156.5t151.5 89t177 24.5q154 0 303 -71l-26 -74q-139 68 -273 67q-117 0 -211 -47t-94 -139
q0 -88 66.5 -141.5t216.5 -114.5zM630.5 63q184.5 0 309.5 113t125 291q0 94 -35 164.5t-123 126t-139 78t-178 67.5q-29 10 -43 17q-158 -70 -255 -182.5t-97 -266.5q0 -184 125.5 -296t310 -112z" />
    <glyph glyph-name="epsilon" unicode="&#x3b5;" horiz-adv-x="1079" 
d="M618 51q217 0 383 45l15 -65q-168 -53 -416 -54q-225 0 -361.5 72t-136.5 219q0 90 73 164t194 98v9q-109 33 -167.5 96t-58.5 131q0 133 120 211t349 78q188 0 367 -51l-16 -72q-176 49 -336 49q-387 0 -387 -219q0 -76 99 -138.5t261 -62.5h301v-67h-328
q-174 0 -273 -66t-99 -154q0 -113 112 -168t305 -55z" />
    <glyph glyph-name="zeta" unicode="&#x3b6;" horiz-adv-x="1134" 
d="M1049 1366q-129 -63 -263.5 -150.5t-274.5 -202t-229 -248.5t-89 -255q0 -70 26.5 -130.5t57 -99t96 -82.5t102.5 -63.5t118 -57.5t103 -48q186 -94 195 -219q4 -121 -100 -226l-66 49q78 74 74 166q-6 92 -158 166q-18 8 -79.5 37t-86 41t-79 42t-80 49.5t-67.5 52
t-61.5 63.5t-43 69.5t-33 84t-9.5 96.5q0 125 72 254t192.5 240.5t237.5 195.5t244 158v6h-692v80h884z" />
    <glyph glyph-name="eta" unicode="&#x3b7;" horiz-adv-x="1323" 
d="M682 1053q205 0 343 -146.5t138 -371.5v-990h-88v987q0 190 -119.5 313.5t-294 123.5t-294 -123t-119.5 -314v-532h-88v1030h61l23 -252h8q59 127 173 201t257 74z" />
    <glyph glyph-name="theta" unicode="&#x3b8;" horiz-adv-x="1337" 
d="M668 1505q246 0 406.5 -206.5t160.5 -557.5q0 -346 -162 -556t-405.5 -210t-404.5 209t-161 557q0 350 161 557t405 207zM668 59q201 0 335 174.5t142 468.5h-955q8 -295 143.5 -469t334.5 -174zM190 780h955q-8 297 -142.5 470t-334.5 173q-199 0 -334.5 -173
t-143.5 -470z" />
    <glyph glyph-name="iota" unicode="&#x3b9;" horiz-adv-x="501" 
d="M367 59q41 0 84 15l12 -82q-90 -16 -107 -17q-197 0 -196 213v842h86v-817q0 -80 25.5 -117t95.5 -37z" />
    <glyph glyph-name="kappa" unicode="&#x3ba;" horiz-adv-x="1060" 
d="M961 1030l-451 -430l520 -600h-98l-477 541l-207 -197v-344h-88v1030h88v-575h8l600 575h105z" />
    <glyph glyph-name="lambda" unicode="&#x3bb;" horiz-adv-x="1013" 
d="M145 1507q117 0 189 -72.5t133 -209.5l539 -1225h-95q-170 408 -403 918h-4l-398 -918h-98l451 1032l-78 170q-47 109 -97.5 166t-129.5 57q-43 0 -84 -12l-15 80q35 14 90 14z" />
    <glyph glyph-name="uni03BC" unicode="&#x3bc;" horiz-adv-x="1331" 
d="M1081 1030h90v-1030h-63l-23 252h-6q-59 -127 -175 -202t-257 -75q-123 0 -224 55.5t-167 153.5h-8v-639h-88v1485h94v-532q0 -190 120 -313.5t294 -125.5q174 0 293.5 124t119.5 315v532z" />
    <glyph glyph-name="nu" unicode="&#x3bd;" horiz-adv-x="1083" 
d="M520 111l410 919h94l-459 -1030h-98l-459 1030h94l410 -919h8z" />
    <glyph glyph-name="xi" unicode="&#x3be;" horiz-adv-x="1193" 
d="M715 55q14 -4 75.5 -19.5t81 -21.5t67.5 -23.5t66.5 -32.5t46 -41t40 -57.5t14.5 -70.5q6 -113 -115 -207l-61 49q90 72 86 146q-2 37 -23.5 67.5t-46 49t-70 35t-74 23.5t-79.5 17.5t-66 14.5q-256 66 -350 114q-205 106 -205 316q0 174 142.5 268t349.5 113v8
q-170 33 -283.5 115.5t-113.5 216.5q0 113 80.5 188.5t188 104t230.5 28.5q102 0 197.5 -18.5t135.5 -32.5t58 -25l-20 -69q-176 70 -360 69q-98 0 -187.5 -20.5t-160 -80.5t-70.5 -151q0 -135 171 -214.5t453 -82.5h78v-88h-76q-102 0 -181 -4t-186.5 -22.5t-178 -51
t-120.5 -96t-50 -151.5q0 -47 15 -89t34.5 -72t58.5 -56.5t69 -42t84 -34t83.5 -26.5t90.5 -22.5t81 -20.5z" />
    <glyph glyph-name="omicron" unicode="&#x3bf;" horiz-adv-x="1284" 
d="M641 1053q229 0 385 -151.5t156 -387t-156 -386.5t-385 -151t-384 151t-155 386.5t156 387t383 151.5zM641 63q190 0 320.5 126t130.5 325t-130.5 327t-320.5 128t-320.5 -128t-130.5 -327t130.5 -325t320.5 -126z" />
    <glyph glyph-name="pi" unicode="&#x3c0;" horiz-adv-x="1298" 
d="M16 952v78h1266l-12 -78h-244q6 -516 166 -952h-90q-158 432 -162 952h-578v-952h-88v952h-258z" />
    <glyph glyph-name="rho" unicode="&#x3c1;" horiz-adv-x="1333" 
d="M698.5 1053q227.5 0 383 -151.5t155.5 -387t-151.5 -387.5t-372.5 -152q-154 0 -274 76t-185 207h-6v-713h-88v971q0 236 155.5 386.5t383 150.5zM698 61q188 0 318.5 127t130.5 326t-130 327t-319 128q-190 0 -320 -128t-130 -327t130 -326t320 -127z" />
    <glyph glyph-name="sigma1" unicode="&#x3c2;" horiz-adv-x="1013" 
d="M684 969q-213 0 -352 -113t-139 -309q0 -92 40.5 -167t115.5 -127t144.5 -87t163.5 -74q25 -10 37 -14q145 -59 185 -92q59 -49 59 -125q0 -104 -115 -232l-65 47q86 100 86 170q0 55 -41 85t-164 81q-74 31 -106.5 45.5t-102.5 48t-104.5 59t-85 70t-75 87.5t-44 102
t-19.5 125q0 233 164 368.5t416 135.5q162 0 297 -70l-27 -80q-131 66 -268 66z" />
    <glyph glyph-name="sigma" unicode="&#x3c3;" horiz-adv-x="1296" 
d="M1235 948l-356 10v-4q137 -59 216 -181t79 -275q0 -219 -148.5 -370t-384 -151t-387.5 152t-152 375q0 225 152 375.5t387 150.5h604zM1092 504q0 188 -126 316t-325 128q-197 0 -324 -128t-127 -316q0 -186 127 -314.5t324 -128.5t324 128.5t127 314.5z" />
    <glyph glyph-name="tau" unicode="&#x3c4;" horiz-adv-x="1179" 
d="M893 59q102 0 215 45l18 -92q-129 -37 -239 -37q-340 0 -340 371v604h-494v80h1073v-80h-491v-594q0 -154 61.5 -225.5t196.5 -71.5z" />
    <glyph glyph-name="upsilon" unicode="&#x3c5;" horiz-adv-x="1263" 
d="M997 1030h95q70 -174 69 -352q0 -150 -27.5 -271.5t-87 -221t-164 -155t-247.5 -55.5q-209 0 -342 130.5t-133 381.5v543h88v-532q0 -217 108.5 -327t284.5 -110q117 0 203 47.5t133 134.5t69.5 191.5t22.5 233.5q0 200 -72 362z" />
    <glyph glyph-name="phi" unicode="&#x3c6;" horiz-adv-x="1536" 
d="M1038 1053q178 0 286 -154t108 -340q0 -270 -176.5 -419.5t-446.5 -162.5v-432h-88v432q-272 12 -445.5 153.5t-173.5 397.5q0 182 112 325.5t271 199.5l31 -60q-143 -49 -235.5 -177t-92.5 -286q0 -223 153 -348t380 -135v588q0 186 80.5 302t236.5 116zM809 47
q244 12 391.5 147.5t147.5 362.5q0 166 -82 297t-222 131q-125 0 -180 -97t-55 -249v-592z" />
    <glyph glyph-name="chi" unicode="&#x3c7;" horiz-adv-x="1157" 
d="M1049 -395q33 0 67 10l12 -80q-37 -12 -79 -12q-113 0 -178.5 71.5t-127.5 212.5l-174 408h-6l-370 -670h-101l420 762l-184 441q-23 53 -40.5 84.5t-44 67.5t-60 53.5t-77.5 17.5q-12 0 -69 -10l-8 79q37 12 80 13q113 0 178 -72t127 -213l149 -356h8l342 618h101
l-393 -708l206 -492q25 -53 41.5 -85t44 -68.5t61.5 -54t75 -17.5z" />
    <glyph glyph-name="psi" unicode="&#x3c8;" horiz-adv-x="1525" 
d="M1202 1030h94q70 -178 70 -350q0 -309 -140.5 -498.5t-432.5 -204.5v-432h-86v432q-102 4 -195.5 36t-174.5 90.5t-129 156.5t-48 223v547h88v-538q0 -109 40 -193t107.5 -135t146.5 -78t165 -33v1184h86v-1184q248 12 366.5 179t118.5 438q0 186 -76 360z" />
    <glyph glyph-name="omega" unicode="&#x3c9;" horiz-adv-x="1570" 
d="M1235 1030h92q55 -74 97 -202t42 -279q0 -272 -102 -423t-293 -151q-219 0 -283 240h-8q-63 -240 -282 -240q-190 0 -293 150.5t-103 423.5q0 152 42 280.5t98 200.5h90q-139 -195 -139 -481q0 -229 79.5 -359.5t229.5 -130.5q115 0 177 92.5t62 264.5v381h86v-381
q0 -172 62.5 -264.5t175.5 -92.5q150 0 230.5 130t80.5 360q0 291 -141 481z" />
    <glyph glyph-name="iotadieresis" unicode="&#x3ca;" horiz-adv-x="440" 
d="M401 59q41 0 84 15l13 -82q-90 -16 -107 -17q-197 0 -196 213v842h86v-817q0 -80 25 -117t95 -37zM313 1331q0 33 20.5 54.5t53.5 21.5t53.5 -21.5t20.5 -54.5q0 -29 -21.5 -50t-52.5 -21t-52.5 21t-21.5 50zM-4 1331q0 33 21.5 54.5t54.5 21.5q31 0 51 -21.5t20 -54.5
q0 -29 -20.5 -50t-50.5 -21q-33 0 -54.5 20t-21.5 51z" />
    <glyph glyph-name="upsilondieresis" unicode="&#x3cb;" horiz-adv-x="1263" 
d="M997 1030h95q70 -174 69 -352q0 -150 -27.5 -271.5t-87 -221t-164 -155t-247.5 -55.5q-209 0 -342 130.5t-133 381.5v543h88v-532q0 -217 108.5 -327t284.5 -110q117 0 203 47.5t133 134.5t69.5 191.5t22.5 233.5q0 200 -72 362zM743 1331q0 33 20.5 54.5t53.5 21.5
t53.5 -21.5t20.5 -54.5q0 -29 -21.5 -50t-52.5 -21t-52.5 21t-21.5 50zM426 1331q0 33 21.5 54.5t54.5 21.5q31 0 51 -21.5t20 -54.5q0 -29 -20.5 -50t-50.5 -21q-33 0 -54.5 20t-21.5 51z" />
    <glyph glyph-name="omicrontonos" unicode="&#x3cc;" horiz-adv-x="1284" 
d="M641 1053q229 0 385 -151.5t156 -387t-156 -386.5t-385 -151t-384 151t-155 386.5t156 387t383 151.5zM641 63q190 0 320.5 126t130.5 325t-130.5 327t-320.5 128t-320.5 -128t-130.5 -327t130.5 -325t320.5 -126zM713 1501h96l-131 -305h-80z" />
    <glyph glyph-name="upsilontonos" unicode="&#x3cd;" horiz-adv-x="1263" 
d="M997 1030h95q70 -174 69 -352q0 -150 -27.5 -271.5t-87 -221t-164 -155t-247.5 -55.5q-209 0 -342 130.5t-133 381.5v543h88v-532q0 -217 108.5 -327t284.5 -110q117 0 203 47.5t133 134.5t69.5 191.5t22.5 233.5q0 200 -72 362zM721 1501h96l-131 -305h-80z" />
    <glyph glyph-name="omegatonos" unicode="&#x3ce;" horiz-adv-x="1570" 
d="M1235 1030h92q55 -74 97 -202t42 -279q0 -272 -102 -423t-293 -151q-219 0 -283 240h-8q-63 -240 -282 -240q-190 0 -293 150.5t-103 423.5q0 152 42 280.5t98 200.5h90q-139 -195 -139 -481q0 -229 79.5 -359.5t229.5 -130.5q115 0 177 92.5t62 264.5v381h86v-381
q0 -172 62.5 -264.5t175.5 -92.5q150 0 230.5 130t80.5 360q0 291 -141 481zM860 1501h96l-131 -305h-80z" />
    <glyph glyph-name="uni0400" unicode="&#x400;" horiz-adv-x="1341" 
d="M258 672v-582h971v-90h-1065v1434h1042v-91h-948v-589h889v-82h-889zM440 1872h109l239 -285h-92z" />
    <glyph glyph-name="uni0401" unicode="&#x401;" horiz-adv-x="1341" 
d="M258 672v-582h971v-90h-1065v1434h1042v-91h-948v-589h889v-82h-889zM711 1735q0 33 20.5 54t53 21t53 -21.5t20.5 -53.5q0 -31 -21.5 -51.5t-52 -20.5t-52 20.5t-21.5 51.5zM393 1735q0 33 21.5 54t54.5 21q31 0 51.5 -21.5t20.5 -53.5q0 -29 -20.5 -50.5t-51.5 -21.5
q-33 0 -54.5 20.5t-21.5 51.5z" />
    <glyph glyph-name="uni0402" unicode="&#x402;" horiz-adv-x="1609" 
d="M997 936q238 0 377 -152.5t139 -384.5q0 -256 -186 -450.5t-432 -243.5l-21 74q223 51 385 224t162 392q0 203 -119.5 332t-322.5 129q-223 0 -356 -123v-733h-95v1346h-465v88h1137v-88h-577v-519h6q139 109 368 109z" />
    <glyph glyph-name="uni0403" unicode="&#x403;" horiz-adv-x="1130" 
d="M326 0h-95v1434h899v-91h-804v-1343zM805 1872h110l-256 -285h-92z" />
    <glyph glyph-name="uni0404" unicode="&#x404;" horiz-adv-x="1353" 
d="M879 63q227 0 385 95l28 -84q-178 -98 -418 -99q-330 0 -545.5 206t-215.5 528q0 324 217 536.5t544 212.5q209 0 371 -78l-20 -84q-147 74 -351 74q-276 0 -462.5 -172t-202.5 -440h1014v-82h-1014q10 -270 198.5 -441.5t471.5 -171.5z" />
    <glyph glyph-name="uni0405" unicode="&#x405;" horiz-adv-x="1292" 
d="M680 770q276 -57 392 -148.5t116 -246.5q0 -178 -141.5 -289t-378.5 -111q-135 0 -300 50.5t-280 126.5l41 81q268 -170 543 -170q184 0 301 86.5t117 219.5q0 121 -97.5 192.5t-343.5 122.5q-268 55 -386 144.5t-118 248.5q0 162 141.5 270.5t362.5 108.5
q264 0 479 -125l-34 -80q-205 115 -451 115q-182 0 -290.5 -83t-108.5 -204q0 -117 98 -187.5t338 -121.5z" />
    <glyph glyph-name="uni0406" unicode="&#x406;" horiz-adv-x="421" 
d="M164 0v1434h94v-1434h-94z" />
    <glyph glyph-name="uni0407" unicode="&#x407;" horiz-adv-x="339" 
d="M123 0v1434h94v-1434h-94zM256 1735q0 33 20.5 54t53 21t53 -21.5t20.5 -53.5q0 -31 -21.5 -51.5t-52 -20.5t-52 20.5t-21.5 51.5zM-61 1735q0 33 21.5 54t53.5 21q31 0 51.5 -21.5t20.5 -53.5q0 -29 -20.5 -50.5t-51.5 -21.5q-33 0 -54 20.5t-21 51.5z" />
    <glyph glyph-name="uni0408" unicode="&#x408;" horiz-adv-x="974" 
d="M715 557l2 877h94v-885q0 -573 -514 -574q-139 0 -274 64l28 88q135 -61 256 -61q408 -1 408 491z" />
    <glyph glyph-name="uni0409" unicode="&#x409;" horiz-adv-x="2144" 
d="M1563 928q229 0 371.5 -129t142.5 -336q0 -201 -142.5 -332t-351.5 -131h-475v1352h-625v-518q0 -184 -26.5 -331t-66.5 -236t-95 -153.5t-102.5 -93t-98.5 -45.5l-28 82q53 18 103 62.5t104.5 128.5t87 234.5t32.5 346.5v605h805v-566q166 60 365 60zM1565 78
q180 0 301 108.5t121 278.5t-124 276.5t-316.5 106.5t-348.5 -64v-706h367z" />
    <glyph glyph-name="uni040A" unicode="&#x40a;" horiz-adv-x="2101" 
d="M1538 918q227 0 361.5 -123t134.5 -332q0 -201 -142.5 -332t-349.5 -131h-493v764h-791v-764h-94v1434h94v-584h791v584h94v-576q291 60 395 60zM1522 78q180 0 302 108.5t122 278.5t-116 271.5t-308 101.5q-55 0 -122 -10.5t-144.5 -28t-112.5 -23.5v-698h379z" />
    <glyph glyph-name="uni040B" unicode="&#x40b;" horiz-adv-x="1540" 
d="M938 997q195 0 323 -116.5t128 -364.5v-516h-97v510q0 213 -106.5 308t-270.5 95q-111 0 -219 -51t-161 -137v-725h-93v1346h-462v88h1136v-88h-581v-517h8q61 78 171.5 123t223.5 45z" />
    <glyph glyph-name="uni040C" unicode="&#x40c;" horiz-adv-x="1470" 
d="M1341 1434l-624 -594l710 -840h-116l-666 776l-385 -362v-414h-96v1434h96v-902h6l955 902h120zM780 1872h111l-256 -285h-92z" />
    <glyph glyph-name="uni040D" unicode="&#x40d;" horiz-adv-x="1527" 
d="M260 0h-96v1434h94v-1276h8l1000 1276h98v-1434h-96v1276h-8zM508 1872h108l240 -285h-92z" />
    <glyph glyph-name="uni040E" unicode="&#x40e;" horiz-adv-x="1157" 
d="M606 436l432 998h95l-467 -1080q-96 -223 -187.5 -301t-257.5 -78q-45 0 -115 17l5 86q55 -18 118 -19q125 0 191.5 56.5t134.5 203.5l-530 1115h98l475 -998h8zM309 1855h68q6 -88 57 -143t135 -55t135.5 55t57.5 143h67q-6 -125 -78.5 -196.5t-181 -71.5t-181.5 71.5
t-79 196.5z" />
    <glyph glyph-name="uni040F" unicode="&#x40f;" horiz-adv-x="1392" 
d="M1135 1434h96v-1434h-494l-8 -332h-67l-9 332h-489v1434h94v-1344h877v1344z" />
    <glyph glyph-name="uni0410" unicode="&#x410;" 
d="M668 1434h106l641 -1434h-106l-156 354h-864l-158 -354h-106zM324 436h792l-391 881h-8z" />
    <glyph glyph-name="uni0411" unicode="&#x411;" horiz-adv-x="1206" 
d="M1137 463q0 -201 -142.5 -332t-351.5 -131h-479v1434h842v-88h-752v-480q61 25 168.5 43.5t198.5 18.5q229 0 372.5 -129t143.5 -336zM625 78q178 0 300 108.5t122 278.5t-124 276.5t-319 106.5q-188 0 -350 -64v-706h371z" />
    <glyph glyph-name="uni0412" unicode="&#x412;" horiz-adv-x="1437" 
d="M1001 743q145 -35 232.5 -130t87.5 -228q0 -168 -135 -276.5t-342 -108.5h-680v1434h653q186 0 307 -99.5t121 -257.5q0 -113 -65.5 -197.5t-178.5 -127.5v-9zM836 88q170 0 280.5 85t110.5 222q0 135 -109.5 217t-281.5 82h-578v-606h578zM258 1346v-572h549
q150 0 246 80t96 209q0 127 -95.5 205t-246.5 78h-549z" />
    <glyph glyph-name="uni0413" unicode="&#x413;" horiz-adv-x="1130" 
d="M258 0h-94v1434h899v-91h-805v-1343z" />
    <glyph glyph-name="uni0414" unicode="&#x414;" horiz-adv-x="1462" 
d="M1286 1434v-1346h107l-11 -420h-65l-10 332h-1155l-9 -332h-65l-12 420h122q106 76 188.5 293t82.5 545v508h827zM1196 88v1264h-647v-422q0 -305 -71.5 -514t-178.5 -322v-6h897z" />
    <glyph glyph-name="uni0415" unicode="&#x415;" horiz-adv-x="1341" 
d="M258 672v-582h971v-90h-1065v1434h1042v-91h-948v-589h889v-82h-889z" />
    <glyph glyph-name="uni0416" unicode="&#x416;" horiz-adv-x="1898" 
d="M1300 750v-5l555 -745h-98l-534 709h-226v-709h-96v709h-225l-535 -709h-98l555 745v5l-483 684h96l463 -646h227v646h96v-646h228l463 646h96z" />
    <glyph glyph-name="uni0417" unicode="&#x417;" horiz-adv-x="1273" 
d="M780 754q377 -68 377 -375q0 -115 -54 -200t-145.5 -131t-191.5 -68.5t-213 -22.5q-244 0 -494 98l29 78q2 0 32 -12t67.5 -24.5t91 -26t125 -21.5t145.5 -8q131 0 241.5 29.5t193.5 110.5t83 206q0 76 -29.5 134.5t-86 92t-113 55t-139.5 31t-132 11.5t-121 2h-210v78
h206q92 0 159 5t151 22.5t137 48t90 89t37 138.5q0 86 -46 147.5t-123 93t-155 45t-164 13.5q-70 0 -135 -8.5t-115.5 -19.5t-85 -22.5t-61.5 -21.5t-29 -10l-24 78q2 0 25.5 9t48 18t67.5 20.5t87 19.5t105.5 14.5t123.5 6.5q109 0 205 -18.5t181 -59.5t135 -117t50 -178
q0 -272 -326 -342v-8z" />
    <glyph glyph-name="uni0418" unicode="&#x418;" horiz-adv-x="1527" 
d="M260 0h-96v1434h94v-1276h8l1000 1276h98v-1434h-96v1276h-8z" />
    <glyph glyph-name="uni0419" unicode="&#x419;" horiz-adv-x="1527" 
d="M260 0h-96v1434h94v-1276h8l1000 1276h98v-1434h-96v1276h-8zM506 1855h67q6 -88 57.5 -143t135.5 -55t135 55t57 143h68q-6 -125 -79 -196.5t-181.5 -71.5t-181 71.5t-78.5 196.5z" />
    <glyph glyph-name="uni041A" unicode="&#x41a;" horiz-adv-x="1470" 
d="M1341 1434l-624 -594l710 -840h-116l-666 776l-385 -362v-414h-96v1434h96v-902h6l955 902h120z" />
    <glyph glyph-name="uni041B" unicode="&#x41b;" horiz-adv-x="1452" 
d="M483 834q0 -184 -26.5 -332t-65.5 -237t-93 -153.5t-101 -93t-99 -43.5l-32 82q57 20 107 62.5t104.5 125.5t86 233.5t31.5 350.5v605h895v-1434h-90v1352h-717v-518z" />
    <glyph glyph-name="uni041C" unicode="&#x41c;" horiz-adv-x="1755" 
d="M258 1260v-1260h-94v1434h119l591 -1284h7l592 1284h118v-1434h-94v1260h-8l-578 -1260h-67l-578 1260h-8z" />
    <glyph glyph-name="uni041D" unicode="&#x41d;" horiz-adv-x="1527" 
d="M1268 752v682h96v-1434h-96v659h-1008v-659h-96v1434h96v-682h1008z" />
    <glyph glyph-name="uni041E" unicode="&#x41e;" horiz-adv-x="1658" 
d="M829.5 1456q311.5 0 514 -208t202.5 -531.5t-202.5 -532.5t-514 -209t-514 209t-202.5 532.5t202.5 531.5t514 208zM829 66q268 0 444.5 183t176.5 468q0 283 -175 466t-445.5 183t-446.5 -183.5t-176 -466t176 -466.5t446 -184z" />
    <glyph glyph-name="uni041F" unicode="&#x41f;" horiz-adv-x="1454" 
d="M164 1434h1128v-1434h-94v1343h-940v-1343h-94v1434z" />
    <glyph glyph-name="uni0420" unicode="&#x420;" horiz-adv-x="1374" 
d="M258 532v-532h-94v1434h663q207 0 342.5 -128t135.5 -319q0 -193 -135.5 -324t-342.5 -131h-569zM258 1341v-723h559q170 0 281.5 106.5t111.5 260.5t-110.5 255t-282.5 101h-559z" />
    <glyph glyph-name="uni0421" unicode="&#x421;" horiz-adv-x="1474" 
d="M895 66q289 0 485 170l37 -93q-209 -168 -522 -168q-344 0 -563 202t-219 530q0 326 221 537.5t561 211.5q244 0 438 -117q-2 -6 -13 -46t-13 -44q-184 117 -414 117q-299 0 -491.5 -187.5t-192.5 -471.5q0 -287 191.5 -464t494.5 -177z" />
    <glyph glyph-name="uni0422" unicode="&#x422;" horiz-adv-x="1273" 
d="M1208 1434v-91h-524v-1343h-94v1343h-524v91h1142z" />
    <glyph glyph-name="uni0423" unicode="&#x423;" horiz-adv-x="1157" 
d="M606 436l432 998h95l-467 -1080q-96 -223 -187.5 -301t-257.5 -78q-45 0 -115 17l5 86q55 -18 118 -19q125 0 191.5 56.5t134.5 203.5l-530 1115h98l475 -998h8z" />
    <glyph glyph-name="uni0424" unicode="&#x424;" horiz-adv-x="1658" 
d="M1546 717q0 -274 -187.5 -454.5t-484.5 -194.5v-115h-92v115q-295 16 -482 197t-187 452q0 274 187 455.5t482 197.5v111h92v-111q299 -14 485.5 -195.5t186.5 -457.5zM209 717q0 -236 159.5 -393.5t413.5 -173.5v1136q-254 -16 -413.5 -173.5t-159.5 -395.5zM874 150
q256 14 417 171.5t161 395.5q0 240 -161 397.5t-417 171.5v-1136z" />
    <glyph glyph-name="uni0425" unicode="&#x425;" horiz-adv-x="1361" 
d="M31 0l583 731l-561 703h113l512 -633h4l512 633h115l-564 -703l584 -731h-112l-535 664h-4l-535 -664h-112z" />
    <glyph glyph-name="uni0426" unicode="&#x426;" horiz-adv-x="1402" 
d="M1231 1434v-1348h102l-12 -418h-66l-8 332h-1083v1434h94v-1344h879v1344h94z" />
    <glyph glyph-name="uni0427" unicode="&#x427;" horiz-adv-x="1296" 
d="M1038 709v725h95v-1434h-95v604h-6q-59 -76 -189 -122t-249 -46q-199 0 -336 118t-137 364v516h96v-510q0 -111 34 -192t93 -126t127 -65.5t145 -20.5q115 0 242 52.5t180 136.5z" />
    <glyph glyph-name="uni0428" unicode="&#x428;" horiz-adv-x="2021" 
d="M1763 1434h95v-1434h-1694v1434h94v-1344h705v1344h96v-1344h704v1344z" />
    <glyph glyph-name="uni0429" unicode="&#x429;" horiz-adv-x="2048" 
d="M1876 1434v-1348h104l-10 -418h-65l-9 332h-1714v1434h94v-1344h705v1344h96v-1344h705v1344h94z" />
    <glyph glyph-name="uni042A" unicode="&#x42a;" horiz-adv-x="1437" 
d="M854 928q229 0 372.5 -129t141.5 -336q0 -201 -142.5 -332t-348.5 -131h-480v1346h-331v88h419v-568q160 62 369 62zM856 78q180 0 302 108.5t122 278.5t-125 276.5t-317 106.5q-186 0 -353 -64v-706h371z" />
    <glyph glyph-name="uni042B" unicode="&#x42b;" horiz-adv-x="1599" 
d="M623 928q229 0 371.5 -129t142.5 -336q0 -203 -142.5 -334t-351.5 -129h-479v1434h90v-570q61 25 170 44.5t199 19.5zM625 78q178 0 300 108.5t122 276.5q0 170 -124 276.5t-317 106.5q-84 0 -187.5 -19.5t-164.5 -44.5v-704h371zM1339 0v1434h97v-1434h-97z" />
    <glyph glyph-name="uni042C" unicode="&#x42c;" horiz-adv-x="1206" 
d="M164 0v1434h90v-568q61 25 168.5 43.5t200.5 18.5q227 0 370.5 -129t143.5 -336q0 -201 -142.5 -332t-351.5 -131h-479zM604 848q-184 0 -350 -64v-706h371q178 0 300 108.5t122 278.5t-124 276.5t-319 106.5z" />
    <glyph glyph-name="uni042D" unicode="&#x42d;" horiz-adv-x="1351" 
d="M473 63q283 0 471.5 171.5t198.5 441.5h-1014v82h1014q-16 268 -202.5 440t-463.5 172q-203 0 -350 -74l-21 84q162 78 371 78q328 0 545 -213t217 -536q0 -322 -216 -528t-546 -206q-240 0 -418 99l29 84q158 -95 385 -95z" />
    <glyph glyph-name="uni042E" unicode="&#x42e;" horiz-adv-x="1818" 
d="M1096 1458q268 0 439 -200.5t171 -540.5q0 -338 -171 -540t-439 -202q-258 0 -427 188.5t-182 506.5h-229v-670h-94v1434h94v-670h229q12 319 181.5 506.5t427.5 187.5zM1094 66q227 0 370.5 176t143.5 475q0 303 -143.5 477t-371 174t-370.5 -175t-143 -476
q0 -299 144.5 -475t369.5 -176z" />
    <glyph glyph-name="uni042F" unicode="&#x42f;" horiz-adv-x="1390" 
d="M434 641v6q-133 43 -212 145.5t-79 237.5q0 180 132.5 292t338.5 112h613v-1434h-97v608h-518q-94 0 -169.5 -43t-106.5 -137l-135 -428h-103l140 444q46 156 196 197zM627 690h503v653h-503q-170 0 -278.5 -88t-108.5 -233q0 -147 109.5 -239.5t277.5 -92.5z" />
    <glyph glyph-name="uni0430" unicode="&#x430;" horiz-adv-x="1183" 
d="M516 -23q-182 0 -296 96.5t-114 241.5q0 152 127 245t375 93q172 0 328 -39v56q0 150 -89 224.5t-280 74.5q-37 0 -75.5 -4t-71.5 -11.5t-62.5 -15.5t-53 -15.5t-41 -14.5t-25.5 -11l-11 -4l-30 76l8 2q6 4 17 9t28.5 11t38 13.5t44 14.5t52.5 13t57.5 10.5t62.5 7.5
t66 3q223 0 338 -93.5t115 -293.5v-666h-59l-23 223h-4q-55 -115 -162.5 -180.5t-259.5 -65.5zM616 578q-207 0 -313 -72t-106 -189q0 -115 90 -189.5t243 -74.5q176 0 290 120t114 294v72q-132 39 -318 39z" />
    <glyph glyph-name="uni0431" unicode="&#x431;" horiz-adv-x="1208" 
d="M608 1055q205 0 344.5 -150.5t139.5 -386t-141.5 -389.5t-352.5 -154q-213 0 -353.5 155t-140.5 396q0 369 136.5 563.5t406.5 235.5q147 25 219 69t72 85h94q0 -63 -86 -126t-241 -85q-403 -61 -494 -430l10 -4q66 104 167 162.5t220 58.5zM598 61q172 0 289 128
t117 329t-117 330t-289 129t-288.5 -129t-116.5 -330t116.5 -329t288.5 -128z" />
    <glyph glyph-name="uni0432" unicode="&#x432;" horiz-adv-x="1118" 
d="M754 528q100 -25 161.5 -92t61.5 -166q0 -123 -94.5 -196.5t-239.5 -73.5h-483v1030h446q145 0 239.5 -71.5t94.5 -192.5q0 -86 -50 -147.5t-136 -90.5zM633 80q109 0 181.5 54t72.5 146.5t-72 145.5t-182 53h-385v-399h385zM248 950v-389h346q111 0 184.5 52.5
t73.5 142.5t-73.5 142t-184.5 52h-346z" />
    <glyph glyph-name="uni0433" unicode="&#x433;" horiz-adv-x="948" 
d="M899 1030v-84h-651v-946h-88v1030h739z" />
    <glyph glyph-name="uni0434" unicode="&#x434;" horiz-adv-x="1165" 
d="M109 -332h-68l-10 414h110q86 39 135.5 142.5t49.5 334.5v471h671v-948h101l-11 -414h-65l-10 332h-895zM412 561q0 -350 -125 -479h624v868h-499v-389z" />
    <glyph glyph-name="uni0435" unicode="&#x435;" horiz-adv-x="1277" 
d="M639 1053q229 0 383 -150.5t154 -388.5q0 -10 -5 -51h-978q18 -180 153 -291t342 -111q236 0 373 121l20 -84q-147 -123 -393 -123q-264 0 -425 149.5t-161 389.5q0 236 155 387.5t382 151.5zM193 547h892q-2 184 -131 303t-315 119q-182 0 -309 -118t-137 -304z" />
    <glyph glyph-name="uni0436" unicode="&#x436;" horiz-adv-x="1542" 
d="M1087 543v-6l424 -537h-100l-395 502h-201v-502h-88v502h-201l-395 -502h-100l424 537v6l-371 487h100l344 -455h199v455h88v-455h199l344 455h100z" />
    <glyph glyph-name="uni0437" unicode="&#x437;" horiz-adv-x="1081" 
d="M709 528q123 -25 195.5 -98.5t72.5 -163.5q0 -147 -136 -219t-362 -72q-248 0 -416 54l15 69q182 -49 383 -49q193 0 305.5 55.5t112.5 167.5q0 88 -99.5 154t-273.5 66h-328v67h299q164 0 262.5 62.5t98.5 138.5q0 219 -385 219q-154 0 -336 -51l-17 73q178 51 367 52
q227 0 348 -78t121 -211q0 -68 -59.5 -131.5t-167.5 -95.5v-9z" />
    <glyph glyph-name="uni0438" unicode="&#x438;" horiz-adv-x="1206" 
d="M963 1030h84v-1030h-89v895h-8l-706 -895h-84v1030h88v-897h6z" />
    <glyph glyph-name="uni0439" unicode="&#x439;" horiz-adv-x="1206" 
d="M963 1030h84v-1030h-89v895h-8l-706 -895h-84v1030h88v-897h6zM334 1452h67q6 -88 57.5 -143.5t135.5 -55.5t135 55.5t57 143.5h68q-6 -125 -79 -196.5t-181.5 -71.5t-181 71.5t-78.5 196.5z" />
    <glyph glyph-name="uni043A" unicode="&#x43a;" horiz-adv-x="1060" 
d="M961 1030l-451 -430l520 -600h-106l-473 537l-203 -193v-344h-88v1030h88v-569h6l596 569h111z" />
    <glyph glyph-name="uni043B" unicode="&#x43b;" horiz-adv-x="1171" 
d="M285 559v471h727v-1030h-88v950h-553v-389q0 -143 -20.5 -248.5t-47.5 -162t-76 -95.5t-80.5 -51t-87.5 -27l-28 80q47 14 72.5 25.5t65.5 46.5t61.5 83t38 137t16.5 210z" />
    <glyph glyph-name="uni043C" unicode="&#x43c;" horiz-adv-x="1484" 
d="M250 899v-899h-90v1030h123l465 -928h8l448 928h121v-1030h-88v899h-6l-436 -899h-86l-451 899h-8z" />
    <glyph glyph-name="uni043D" unicode="&#x43d;" horiz-adv-x="1187" 
d="M940 1030h88v-1030h-88v496h-694v-496h-86v1030h86v-457h694v457z" />
    <glyph glyph-name="uni043E" unicode="&#x43e;" horiz-adv-x="1284" 
d="M641 1053q229 0 385 -151.5t156 -387t-156 -386.5t-385 -151t-384 151t-155 386.5t156 387t383 151.5zM641 63q190 0 320.5 126t130.5 325t-130.5 327t-320.5 128t-320.5 -128t-130.5 -327t130.5 -325t320.5 -126z" />
    <glyph glyph-name="uni043F" unicode="&#x43f;" horiz-adv-x="1157" 
d="M909 950h-661l2 -950h-90v1030h837v-1030h-88v950z" />
    <glyph glyph-name="uni0440" unicode="&#x440;" horiz-adv-x="1296" 
d="M680 967q-182 0 -306 -127t-124 -326q0 -201 124 -328t306 -127t306 128t124 327t-124 326t-306 127zM700 -25q-147 0 -266 76t-180 207h-4v-713h-90v1483h61l25 -264h6q61 133 181 211t267 78q211 0 355.5 -151.5t144.5 -387t-143.5 -387.5t-356.5 -152z" />
    <glyph glyph-name="uni0441" unicode="&#x441;" horiz-adv-x="1085" 
d="M684 61q190 0 326 97l10 -88q-145 -94 -336 -95q-248 0 -415 152t-167 387q0 238 166 388.5t414 150.5q168 0 297 -70l-25 -80q-125 66 -272 66q-207 0 -348 -128t-141 -327q0 -197 142 -325t349 -128z" />
    <glyph glyph-name="uni0442" unicode="&#x442;" horiz-adv-x="976" 
d="M532 0h-88v950h-395v80h879v-80h-396v-950z" />
    <glyph glyph-name="uni0443" unicode="&#x443;" horiz-adv-x="1044" 
d="M559 111l385 919h92l-479 -1143q-94 -223 -181 -301t-255 -78q-43 0 -113 17v84q59 -16 117 -17q135 0 203.5 68t146.5 252l33 78l-463 1038h94l414 -917h6z" />
    <glyph glyph-name="uni0444" unicode="&#x444;" horiz-adv-x="1445" 
d="M1333 514.5q0 -235.5 -162.5 -386.5t-402.5 -153v-426h-88v426q-240 2 -403.5 153t-163.5 386.5t163.5 387t403.5 151.5v428h88v-428q240 0 402.5 -151.5t162.5 -387zM680 61v908q-203 -4 -340 -131t-137 -324q0 -195 137 -322t340 -131zM768 61q201 4 339 131t138 322
q0 197 -138 324t-339 131v-908z" />
    <glyph glyph-name="uni0445" unicode="&#x445;" horiz-adv-x="1042" 
d="M993 1030l-409 -502l430 -528h-107l-383 469h-4l-385 -469h-106l432 528l-410 502h103l366 -448h4l365 448h104z" />
    <glyph glyph-name="uni0446" unicode="&#x446;" horiz-adv-x="1132" 
d="M985 1030v-950h80l-10 -412h-68l-8 332h-819v1030h88v-952h647v952h90z" />
    <glyph glyph-name="uni0447" unicode="&#x447;" horiz-adv-x="1173" 
d="M924 520v510h90v-1030h-90v420h-6q-133 -154 -351 -154q-190 0 -303.5 97.5t-113.5 316.5v350h90v-346q0 -340 348 -340q207 0 336 176z" />
    <glyph glyph-name="uni0448" unicode="&#x448;" horiz-adv-x="1695" 
d="M1536 1030v-1030h-1376v1030h88v-952h555v952h90v-952h553v952h90z" />
    <glyph glyph-name="uni0449" unicode="&#x449;" horiz-adv-x="1695" 
d="M1534 1030v-948h94l-10 -414h-68l-8 332h-1382v1030h88v-952h553v952h90v-952h555v952h88z" />
    <glyph glyph-name="uni044A" unicode="&#x44a;" horiz-adv-x="1175" 
d="M764 625q145 0 239.5 -84t94.5 -227.5t-94.5 -228.5t-239.5 -85h-395v950h-318l-2 80h406v-405h309zM754 80q111 0 183.5 61.5t72.5 172t-73 171t-183 60.5h-299v-465h299z" />
    <glyph glyph-name="uni044B" unicode="&#x44b;" horiz-adv-x="1316" 
d="M555 625q145 0 239.5 -84t94.5 -227.5t-94.5 -228.5t-239.5 -85h-395v1030h88v-405h307zM545 80q111 0 183.5 61.5t72.5 172t-73 171t-183 60.5h-297v-465h297zM1071 0l-2 1030h88v-1030h-86z" />
    <glyph glyph-name="uni044C" unicode="&#x44c;" horiz-adv-x="966" 
d="M555 625q145 0 239.5 -84t94.5 -227.5t-94.5 -228.5t-239.5 -85h-395v1030h86v-405h309zM545 80q111 0 183.5 61.5t72.5 172t-73 171t-183 60.5h-299v-465h299z" />
    <glyph glyph-name="uni044D" unicode="&#x44d;" horiz-adv-x="1101" 
d="M422 55q217 0 348 115t143 307h-735v76h735q-12 186 -141 303t-317 117q-190 0 -303 -72l-27 78q129 74 334 74q229 0 384.5 -151.5t155.5 -387.5q0 -242 -154.5 -390.5t-424.5 -148.5q-186 0 -354 86q6 29 24 76q156 -82 332 -82z" />
    <glyph glyph-name="uni044E" unicode="&#x44e;" horiz-adv-x="1492" 
d="M922 1053q199 0 333 -151.5t134 -387t-134.5 -387.5t-332.5 -152q-188 0 -319.5 138.5t-145.5 357.5h-209v-471h-88v1030h88v-473h209q14 219 145.5 357.5t319.5 138.5zM921.5 59q159.5 0 269 128t109.5 327t-109.5 326t-269 127t-268 -127t-108.5 -326t108.5 -327
t268 -128z" />
    <glyph glyph-name="uni044F" unicode="&#x44f;" horiz-adv-x="1159" 
d="M393 494v4q-94 27 -149.5 94t-55.5 162q0 127 94.5 201.5t239.5 74.5h479v-1030h-90v463h-288q-143 2 -194.5 -34t-92.5 -144l-107 -285h-100l113 301q35 94 63.5 135.5t87.5 57.5zM537 532h374v422h-374q-113 0 -187 -57t-74 -153.5t74 -154t187 -57.5z" />
    <glyph glyph-name="uni0450" unicode="&#x450;" horiz-adv-x="1277" 
d="M639 1053q229 0 383 -150.5t154 -388.5q0 -10 -5 -51h-978q18 -180 153 -291t342 -111q236 0 373 121l20 -84q-147 -123 -393 -123q-264 0 -425 149.5t-161 389.5q0 236 155 387.5t382 151.5zM193 547h892q-2 184 -131 303t-315 119q-182 0 -309 -118t-137 -304z
M463 1468h108l240 -284h-92z" />
    <glyph glyph-name="uni0451" unicode="&#x451;" horiz-adv-x="1277" 
d="M639 1053q229 0 383 -150.5t154 -388.5q0 -10 -5 -51h-978q18 -180 153 -291t342 -111q236 0 373 121l20 -84q-147 -123 -393 -123q-264 0 -425 149.5t-161 389.5q0 236 155 387.5t382 151.5zM193 547h892q-2 184 -131 303t-315 119q-182 0 -309 -118t-137 -304z
M739 1331q0 33 20.5 54.5t53.5 21.5t53.5 -21.5t20.5 -54.5q0 -29 -21.5 -50t-52.5 -21t-52.5 21t-21.5 50zM422 1331q0 33 21.5 54.5t54.5 21.5q31 0 51 -21.5t20 -54.5q0 -29 -20.5 -50t-50.5 -21q-33 0 -54.5 20t-21.5 51z" />
    <glyph glyph-name="uni0452" unicode="&#x452;" horiz-adv-x="1413" 
d="M772 1053q205 0 343 -146.5t138 -371.5v-641q0 -369 -333 -369q-59 0 -142 12l8 82q74 -12 125 -12q133 0 193.5 71.5t60.5 227.5v626q0 190 -119.5 313.5t-293.5 123.5q-172 0 -293 -123t-121 -307v-539h-88v1241h-236v70h236v170h88v-170h389v-70h-389v-469h4
q57 131 172 206t258 75z" />
    <glyph glyph-name="uni0453" unicode="&#x453;" horiz-adv-x="942" 
d="M899 1030v-84h-651v-946h-88v1030h739zM686 1468h111l-256 -284h-92z" />
    <glyph glyph-name="uni0454" unicode="&#x454;" horiz-adv-x="1101" 
d="M680 55q176 0 332 82q18 -47 24 -76q-168 -86 -354 -86q-270 0 -425 148.5t-155 390.5q0 236 156 387.5t385 151.5q205 0 334 -74l-27 -78q-113 72 -303 72q-188 0 -317 -117t-142 -303h736v-76h-736q12 -193 143.5 -307.5t348.5 -114.5z" />
    <glyph glyph-name="uni0455" unicode="&#x455;" horiz-adv-x="978" 
d="M877 262q0 -125 -101.5 -206t-267.5 -81q-262 0 -434 142l35 71q182 -137 397 -137q129 0 205.5 57.5t76.5 151.5q0 90 -65.5 138t-241.5 85q-197 41 -278.5 108.5t-81.5 184.5t99 197t261 80q106 0 208 -30t155 -62l-27 -74q-147 90 -336 90q-125 0 -198.5 -58.5
t-73.5 -142.5q0 -82 64.5 -131t240.5 -86q197 -43 280 -111.5t83 -185.5z" />
    <glyph glyph-name="uni0456" unicode="&#x456;" horiz-adv-x="417" 
d="M164 0v1030h90v-1030h-90zM209 1460q33 0 55.5 -22.5t22.5 -55.5q0 -31 -22.5 -53t-55.5 -22t-55.5 22.5t-22.5 52.5q0 33 22.5 55.5t55.5 22.5z" />
    <glyph glyph-name="uni0457" unicode="&#x457;" horiz-adv-x="321" 
d="M104 0v1030h91v-1030h-91zM246 1331q0 33 20.5 54.5t53 21.5t53 -21.5t20.5 -54.5q0 -29 -20.5 -50t-53 -21t-53 21t-20.5 50zM-72 1331q0 33 21.5 54.5t54.5 21.5q31 0 51.5 -21.5t20.5 -54.5q0 -29 -20.5 -50t-51.5 -21q-33 0 -54.5 20t-21.5 51z" />
    <glyph glyph-name="uni0458" unicode="&#x458;" horiz-adv-x="434" 
d="M182 -94v1124h88v-1136q0 -371 -333 -371q-59 0 -142 12l8 82q74 -12 125 -12q135 0 194.5 72.5t59.5 228.5zM225.5 1460q32.5 0 55 -22.5t22.5 -55.5q0 -31 -22.5 -53t-55 -22t-55.5 22.5t-23 52.5q0 33 23 55.5t55.5 22.5z" />
    <glyph glyph-name="uni0459" unicode="&#x459;" horiz-adv-x="1738" 
d="M1325 625q145 0 239.5 -84t94.5 -227.5t-94.5 -228.5t-239.5 -85h-405v950h-549v-389q0 -143 -20.5 -248.5t-47.5 -162t-76 -95.5t-80.5 -51t-87.5 -27l-28 80q47 14 72.5 25.5t65.5 46.5t61.5 83t38 137t16.5 210v471h723v-405h317zM1315 80q113 0 184.5 61.5t71.5 172
t-72 171t-184 60.5h-307v-465h307z" />
    <glyph glyph-name="uni045A" unicode="&#x45a;" horiz-adv-x="1681" 
d="M1268 625q145 0 239.5 -84t94.5 -227.5t-94.5 -228.5t-241.5 -85h-402v545h-618v-545h-86v1030h86v-405h618v405h86v-405h318zM1255 80q111 0 184.5 61.5t73.5 171.5q0 109 -73.5 170.5t-184.5 61.5h-305v-465h305z" />
    <glyph glyph-name="uni045B" unicode="&#x45b;" horiz-adv-x="1415" 
d="M774 1053q205 0 343 -146.5t138 -371.5v-535h-88v532q0 190 -120.5 313.5t-294.5 123.5q-172 0 -292 -123t-120 -307v-539h-88v1241h-238v70h238v170h88v-170h389v-70h-389v-469h4q57 131 172 206t258 75z" />
    <glyph glyph-name="uni045C" unicode="&#x45c;" horiz-adv-x="1060" 
d="M961 1030l-451 -430l520 -600h-106l-473 537l-203 -193v-344h-88v1030h88v-569h6l596 569h111zM721 1468h110l-256 -284h-92z" />
    <glyph glyph-name="uni045D" unicode="&#x45d;" horiz-adv-x="1206" 
d="M963 1030h84v-1030h-89v895h-8l-706 -895h-84v1030h88v-897h6zM336 1468h108l240 -284h-92z" />
    <glyph glyph-name="uni045E" unicode="&#x45e;" horiz-adv-x="1038" 
d="M938 1030h92l-473 -1128q-94 -223 -181 -301t-255 -78q-43 0 -113 16v84q59 -16 117 -16q135 0 203.5 67.5t146.5 251.5l33 78l-457 1026h94l408 -905h6zM256 1452h68q6 -88 57 -143.5t135 -55.5t135 55.5t58 143.5h67q-6 -125 -78.5 -196.5t-181 -71.5t-181.5 71.5
t-79 196.5z" />
    <glyph glyph-name="uni045F" unicode="&#x45f;" horiz-adv-x="1153" 
d="M905 1030h88v-1030h-375l-8 -332h-67l-8 332h-375v1030h88v-952h657v952z" />
    <glyph glyph-name="uni0490" unicode="&#x490;" horiz-adv-x="1130" 
d="M973 1761h88l2 -418h-805v-1343h-94v1434h809v327z" />
    <glyph glyph-name="uni0491" unicode="&#x491;" horiz-adv-x="948" 
d="M819 1354h80v-402h-651v-952h-88v1030h659v324z" />
    <glyph glyph-name="uni04D9" unicode="&#x4d9;" horiz-adv-x="1265" 
d="M627 -25q-229 0 -383 150.5t-154 388.5q0 10 4 51h979q-18 180 -153.5 291t-341.5 111q-236 0 -373 -121l-21 84q147 123 394 123q264 0 424.5 -149.5t160.5 -389.5q0 -236 -154.5 -387.5t-381.5 -151.5zM1073 481h-893q2 -184 131 -303t316 -119q182 0 309 118t137 304z
" />
    <glyph glyph-name="uni0E3F" unicode="&#xe3f;" horiz-adv-x="1271" 
d="M842 743q141 -37 227 -132t86 -226q0 -168 -135 -276.5t-342 -108.5h-68v-209h-82v209h-364v1434h364v208h82v-208h41q188 0 308 -99.5t120 -257.5q0 -111 -65.5 -196.5t-171.5 -128.5v-9zM670 88q170 0 280.5 85t110.5 222q0 135 -109.5 217t-281.5 82h-410v-606h410z
M260 1346v-572h381q150 0 247 80t97 209q0 127 -96 205t-248 78h-381z" />
    <glyph glyph-name="Wgrave" unicode="&#x1e80;" horiz-adv-x="1994" 
d="M1862 1434h100l-446 -1434h-117l-398 1274h-8l-397 -1274h-117l-446 1434h100l402 -1301h8l401 1301h107l401 -1301h8zM686 1872h109l239 -285h-92z" />
    <glyph glyph-name="wgrave" unicode="&#x1e81;" horiz-adv-x="1585" 
d="M1167 111l297 919h92l-333 -1030h-107l-319 901h-9l-321 -901h-107l-331 1030h92l295 -919h6l326 919h88l327 -919h4zM471 1468h109l239 -284h-92z" />
    <glyph glyph-name="Wacute" unicode="&#x1e82;" horiz-adv-x="1994" 
d="M1862 1434h100l-446 -1434h-117l-398 1274h-8l-397 -1274h-117l-446 1434h100l402 -1301h8l401 1301h107l401 -1301h8zM1180 1872h110l-256 -285h-92z" />
    <glyph glyph-name="wacute" unicode="&#x1e83;" horiz-adv-x="1585" 
d="M1167 111l297 919h92l-333 -1030h-107l-319 901h-9l-321 -901h-107l-331 1030h92l295 -919h6l326 919h88l327 -919h4zM956 1468h111l-256 -284h-92z" />
    <glyph glyph-name="Wdieresis" unicode="&#x1e84;" horiz-adv-x="1994" 
d="M1862 1434h100l-446 -1434h-117l-398 1274h-8l-397 -1274h-117l-446 1434h100l402 -1301h8l401 1301h107l401 -1301h8zM1092 1735q0 33 20.5 54t53 21t53 -21.5t20.5 -53.5q0 -31 -21.5 -51.5t-52 -20.5t-52 20.5t-21.5 51.5zM774 1735q0 33 21.5 54t54.5 21
q31 0 51.5 -21.5t20.5 -53.5q0 -29 -20.5 -50.5t-51.5 -21.5q-33 0 -54.5 20.5t-21.5 51.5z" />
    <glyph glyph-name="wdieresis" unicode="&#x1e85;" horiz-adv-x="1585" 
d="M1167 111l297 919h92l-333 -1030h-107l-319 901h-9l-321 -901h-107l-331 1030h92l295 -919h6l326 919h88l327 -919h4zM858 1331q0 33 20.5 54.5t53.5 21.5t53.5 -21.5t20.5 -54.5q0 -29 -21.5 -50t-52.5 -21t-52.5 21t-21.5 50zM541 1331q0 33 21.5 54.5t53.5 21.5
q31 0 51.5 -21.5t20.5 -54.5q0 -29 -20.5 -50t-51.5 -21q-33 0 -54 20t-21 51z" />
    <glyph glyph-name="uni1EA0" unicode="&#x1ea0;" 
d="M668 1434h106l641 -1434h-106l-156 354h-864l-158 -354h-106zM324 436h792l-391 881h-8zM725 -342q-31 0 -53.5 22.5t-22.5 53t22.5 53.5t53.5 23q33 0 55.5 -23t22.5 -53.5t-22.5 -53t-55.5 -22.5z" />
    <glyph glyph-name="uni1EA1" unicode="&#x1ea1;" horiz-adv-x="1183" 
d="M516 -23q-182 0 -296 96.5t-114 241.5q0 152 127 245t375 93q172 0 328 -39v56q0 150 -89 224.5t-280 74.5q-37 0 -75.5 -4t-71.5 -11.5t-62.5 -15.5t-53 -15.5t-41 -14.5t-25.5 -11l-11 -4l-30 76l8 2q6 4 17 9t28.5 11t38 13.5t44 14.5t52.5 13t57.5 10.5t62.5 7.5
t66 3q223 0 338 -93.5t115 -293.5v-666h-59l-23 223h-4q-55 -115 -162.5 -180.5t-259.5 -65.5zM616 578q-207 0 -313 -72t-106 -189q0 -115 90 -189.5t243 -74.5q176 0 290 120t114 294v72q-132 39 -318 39zM596 -342q-31 0 -53.5 22.5t-22.5 53t22.5 53.5t53.5 23
q33 0 55.5 -23t22.5 -53.5t-22.5 -53t-55.5 -22.5z" />
    <glyph glyph-name="uni1EA2" unicode="&#x1ea2;" 
d="M668 1434h106l641 -1434h-106l-156 354h-864l-158 -354h-106zM324 436h792l-391 881h-8zM766 1909q68 0 112 -40t44 -97.5t-79 -119t-85 -96.5l-56 19q6 45 77 97t71 91q0 43 -31 62.5t-71 19.5q-80 0 -125 -63l-41 30q73 97 184 97z" />
    <glyph glyph-name="uni1EA3" unicode="&#x1ea3;" horiz-adv-x="1183" 
d="M516 -23q-182 0 -296 96.5t-114 241.5q0 152 127 245t375 93q172 0 328 -39v56q0 150 -89 224.5t-280 74.5q-37 0 -75.5 -4t-71.5 -11.5t-62.5 -15.5t-53 -15.5t-41 -14.5t-25.5 -11l-11 -4l-30 76l8 2q6 4 17 9t28.5 11t38 13.5t44 14.5t52.5 13t57.5 10.5t62.5 7.5
t66 3q223 0 338 -93.5t115 -293.5v-666h-59l-23 223h-4q-55 -115 -162.5 -180.5t-259.5 -65.5zM616 578q-207 0 -313 -72t-106 -189q0 -115 90 -189.5t243 -74.5q176 0 290 120t114 294v72q-132 39 -318 39zM608 1530q68 0 112 -40t44 -97.5t-79 -119t-85 -95.5l-55 18
q6 45 76.5 97.5t70.5 90.5q0 43 -30.5 62.5t-71.5 19.5q-80 0 -125 -63l-41 31q73 96 184 96z" />
    <glyph glyph-name="uni1EA4" unicode="&#x1ea4;" 
d="M668 1434h106l641 -1434h-106l-156 354h-864l-158 -354h-106zM324 436h792l-391 881h-8zM678 1837h82l235 -266h-86l-188 215h-4l-187 -215h-84zM1231 1995l-252 -260h-76l225 260h103z" />
    <glyph glyph-name="uni1EA5" unicode="&#x1ea5;" horiz-adv-x="1220" 
d="M516 -23q-182 0 -296 96.5t-114 241.5q0 152 127 245t375 93q172 0 328 -39v56q0 150 -89 224.5t-280 74.5q-37 0 -75.5 -4t-71.5 -11.5t-62.5 -15.5t-53 -15.5t-41 -14.5t-25.5 -11l-11 -4l-30 76l8 2q6 4 17 9t28.5 11t38 13.5t44 14.5t52.5 13t57.5 10.5t62.5 7.5
t66 3q223 0 338 -93.5t115 -293.5v-666h-59l-23 223h-4q-55 -115 -162.5 -180.5t-259.5 -65.5zM616 578q-207 0 -313 -72t-106 -189q0 -115 90 -189.5t243 -74.5q176 0 290 120t114 294v72q-132 39 -318 39zM1081 1612l-252 -260h-75l225 260h102zM528 1454h82l236 -266h-86
l-189 215h-4l-186 -215h-84z" />
    <glyph glyph-name="uni1EA6" unicode="&#x1ea6;" 
d="M668 1434h106l641 -1434h-106l-156 354h-864l-158 -354h-106zM324 436h792l-391 881h-8zM680 1839h82l233 -266h-86l-186 215h-4l-187 -215h-86zM870 1991l224 -262h-78l-246 262h100z" />
    <glyph glyph-name="uni1EA7" unicode="&#x1ea7;" horiz-adv-x="1183" 
d="M516 -23q-182 0 -296 96.5t-114 241.5q0 152 127 245t375 93q172 0 328 -39v56q0 150 -89 224.5t-280 74.5q-37 0 -75.5 -4t-71.5 -11.5t-62.5 -15.5t-53 -15.5t-41 -14.5t-25.5 -11l-11 -4l-30 76l8 2q6 4 17 9t28.5 11t38 13.5t44 14.5t52.5 13t57.5 10.5t62.5 7.5
t66 3q223 0 338 -93.5t115 -293.5v-666h-59l-23 223h-4q-55 -115 -162.5 -180.5t-259.5 -65.5zM616 578q-207 0 -313 -72t-106 -189q0 -115 90 -189.5t243 -74.5q176 0 290 120t114 294v72q-132 39 -318 39zM725 1608l223 -262h-78l-245 262h100zM535 1456h81l234 -266h-86
l-186 215h-5l-186 -215h-86z" />
    <glyph glyph-name="uni1EA8" unicode="&#x1ea8;" 
d="M668 1434h106l641 -1434h-106l-156 354h-864l-158 -354h-106zM324 436h792l-391 881h-8zM446 1573l232 266h82l235 -266h-88l-186 213h-4l-187 -213h-84zM1006 2040q68 0 111.5 -39t43.5 -98q0 -61 -78 -123q-8 -6 -28.5 -20.5t-29.5 -21.5t-18.5 -17.5t-11.5 -20.5
l-55 18q2 29 76 78q78 53 78 98q0 43 -32 64.5t-71 21.5q-74 0 -123 -69l-45 35q31 41 74 67q48 27 109 27z" />
    <glyph glyph-name="uni1EA9" unicode="&#x1ea9;" horiz-adv-x="1183" 
d="M516 -23q-182 0 -296 96.5t-114 241.5q0 152 127 245t375 93q172 0 328 -39v56q0 150 -89 224.5t-280 74.5q-37 0 -75.5 -4t-71.5 -11.5t-62.5 -15.5t-53 -15.5t-41 -14.5t-25.5 -11l-11 -4l-30 76l8 2q6 4 17 9t28.5 11t38 13.5t44 14.5t52.5 13t57.5 10.5t62.5 7.5
t66 3q223 0 338 -93.5t115 -293.5v-666h-59l-23 223h-4q-55 -115 -162.5 -180.5t-259.5 -65.5zM616 578q-207 0 -313 -72t-106 -189q0 -115 90 -189.5t243 -74.5q176 0 290 120t114 294v72q-132 39 -318 39zM303 1188l232 266h81l236 -266h-88l-186 213h-5l-186 -213h-84z
M862 1655q68 0 112 -39t44 -98q0 -61 -78 -123q-8 -6 -28.5 -20.5t-30 -21.5t-18.5 -17.5t-11 -20.5l-55 18q2 29 75 78q78 53 78 98q0 43 -31.5 64.5t-70.5 21.5q-74 0 -123 -69l-45 35q31 41 74 67q47 27 108 27z" />
    <glyph glyph-name="uni1EAA" unicode="&#x1eaa;" 
d="M668 1434h106l641 -1434h-106l-156 354h-864l-158 -354h-106zM324 436h792l-391 881h-8zM864 1901q-63 0 -168 73q-78 51 -116 51q-78 0 -113 -116l-61 16q41 170 165 170q63 0 150 -57q8 -4 26.5 -18.5t28.5 -20.5t25.5 -14.5t29 -12.5t25.5 -4q80 0 109 117l61 -19
q-18 -84 -62.5 -124.5t-99.5 -40.5zM430 1573l232 266h81l236 -266h-86l-188 215h-5l-186 -215h-84z" />
    <glyph glyph-name="uni1EAB" unicode="&#x1eab;" horiz-adv-x="1183" 
d="M516 -23q-182 0 -296 96.5t-114 241.5q0 152 127 245t375 93q172 0 328 -39v56q0 150 -89 224.5t-280 74.5q-37 0 -75.5 -4t-71.5 -11.5t-62.5 -15.5t-53 -15.5t-41 -14.5t-25.5 -11l-11 -4l-30 76l8 2q6 4 17 9t28.5 11t38 13.5t44 14.5t52.5 13t57.5 10.5t62.5 7.5
t66 3q223 0 338 -93.5t115 -293.5v-666h-59l-23 223h-4q-55 -115 -162.5 -180.5t-259.5 -65.5zM616 578q-207 0 -313 -72t-106 -189q0 -115 90 -189.5t243 -74.5q176 0 290 120t114 294v72q-132 39 -318 39zM301 1188l231 266h82l236 -266h-86l-189 215h-4l-186 -215h-84z
M735 1516q-63 0 -168 73q-76 51 -116 51q-78 0 -113 -116l-62 16q41 170 166 170q63 0 150 -57q8 -4 26.5 -18.5t28.5 -20.5t25.5 -14.5t29 -12.5t25.5 -4q80 0 109 117l61 -19q-18 -84 -62.5 -124.5t-99.5 -40.5z" />
    <glyph glyph-name="uni1EAC" unicode="&#x1eac;" 
d="M668 1434h106l641 -1434h-106l-156 354h-864l-158 -354h-106zM324 436h792l-391 881h-8zM928 1550l-199 230h-4l-199 -230h-88l246 287h82l250 -287h-88zM725 -342q-31 0 -53.5 22.5t-22.5 53t22.5 53.5t53.5 23q33 0 55.5 -23t22.5 -53.5t-22.5 -53t-55.5 -22.5z" />
    <glyph glyph-name="uni1EAD" unicode="&#x1ead;" horiz-adv-x="1183" 
d="M516 -23q-182 0 -296 96.5t-114 241.5q0 152 127 245t375 93q172 0 328 -39v56q0 150 -89 224.5t-280 74.5q-37 0 -75.5 -4t-71.5 -11.5t-62.5 -15.5t-53 -15.5t-41 -14.5t-25.5 -11l-11 -4l-30 76l8 2q6 4 17 9t28.5 11t38 13.5t44 14.5t52.5 13t57.5 10.5t62.5 7.5
t66 3q223 0 338 -93.5t115 -293.5v-666h-59l-23 223h-4q-55 -115 -162.5 -180.5t-259.5 -65.5zM616 578q-207 0 -313 -72t-106 -189q0 -115 90 -189.5t243 -74.5q176 0 290 120t114 294v72q-132 39 -318 39zM817 1182l-199 229h-4l-198 -229h-88l245 286h82l250 -286h-88z
M596 -342q-31 0 -53.5 22.5t-22.5 53t22.5 53.5t53.5 23q33 0 55.5 -23t22.5 -53.5t-22.5 -53t-55.5 -22.5z" />
    <glyph glyph-name="uni1EAE" unicode="&#x1eae;" 
d="M668 1434h106l641 -1434h-106l-156 354h-864l-158 -354h-106zM324 436h792l-391 881h-8zM475 1812h62q8 -82 57 -133t133 -51t134 51.5t57 132.5h61q-8 -117 -78 -184t-174 -67q-102 0 -173 67t-79 184zM862 2083h105l-250 -260h-78z" />
    <glyph glyph-name="uni1EAF" unicode="&#x1eaf;" horiz-adv-x="1183" 
d="M516 -23q-182 0 -296 96.5t-114 241.5q0 152 127 245t375 93q172 0 328 -39v56q0 150 -89 224.5t-280 74.5q-37 0 -75.5 -4t-71.5 -11.5t-62.5 -15.5t-53 -15.5t-41 -14.5t-25.5 -11l-11 -4l-30 76l8 2q6 4 17 9t28.5 11t38 13.5t44 14.5t52.5 13t57.5 10.5t62.5 7.5
t66 3q223 0 338 -93.5t115 -293.5v-666h-59l-23 223h-4q-55 -115 -162.5 -180.5t-259.5 -65.5zM616 578q-207 0 -313 -72t-106 -189q0 -115 90 -189.5t243 -74.5q176 0 290 120t114 294v72q-132 39 -318 39zM731 1702h105l-250 -260h-78zM344 1432h62q8 -82 57 -133.5
t133 -51.5t134 51.5t56 133.5h62q-8 -117 -78 -184.5t-174 -67.5q-102 0 -173 67.5t-79 184.5z" />
    <glyph glyph-name="uni1EB0" unicode="&#x1eb0;" 
d="M668 1434h106l641 -1434h-106l-156 354h-864l-158 -354h-106zM324 436h792l-391 881h-8zM475 1812h62q6 -82 56 -134t134 -52t134 52.5t54 133.5h64q-8 -117 -79 -184t-173 -67q-104 0 -174 67t-78 184zM442 2083h103l225 -260h-80z" />
    <glyph glyph-name="uni1EB1" unicode="&#x1eb1;" horiz-adv-x="1183" 
d="M516 -23q-182 0 -296 96.5t-114 241.5q0 152 127 245t375 93q172 0 328 -39v56q0 150 -89 224.5t-280 74.5q-37 0 -75.5 -4t-71.5 -11.5t-62.5 -15.5t-53 -15.5t-41 -14.5t-25.5 -11l-11 -4l-30 76l8 2q6 4 17 9t28.5 11t38 13.5t44 14.5t52.5 13t57.5 10.5t62.5 7.5
t66 3q223 0 338 -93.5t115 -293.5v-666h-59l-23 223h-4q-55 -115 -162.5 -180.5t-259.5 -65.5zM616 578q-207 0 -313 -72t-106 -189q0 -115 90 -189.5t243 -74.5q176 0 290 120t114 294v72q-132 39 -318 39zM360 1432h62q6 -82 56 -134.5t134 -52.5t134.5 52.5t54.5 134.5
h63q-8 -117 -78.5 -184.5t-173.5 -67.5q-104 0 -174 67.5t-78 184.5zM328 1702h102l225 -260h-80z" />
    <glyph glyph-name="uni1EB2" unicode="&#x1eb2;" 
d="M668 1434h106l641 -1434h-106l-156 354h-864l-158 -354h-106zM324 436h792l-391 881h-8zM913 1812h64q-8 -117 -79 -184t-175 -67q-102 0 -172 67.5t-78 183.5h62q6 -82 56 -133t134 -51t134 51t54 133zM737 2130q70 0 113 -40t43 -97.5t-78 -119t-84 -95.5l-57 18
q6 43 76.5 96.5t70.5 92.5q0 43 -29.5 62t-70.5 19q-80 0 -125 -63l-43 31q73 96 184 96z" />
    <glyph glyph-name="uni1EB3" unicode="&#x1eb3;" horiz-adv-x="1183" 
d="M516 -23q-182 0 -296 96.5t-114 241.5q0 152 127 245t375 93q172 0 328 -39v56q0 150 -89 224.5t-280 74.5q-37 0 -75.5 -4t-71.5 -11.5t-62.5 -15.5t-53 -15.5t-41 -14.5t-25.5 -11l-11 -4l-30 76l8 2q6 4 17 9t28.5 11t38 13.5t44 14.5t52.5 13t57.5 10.5t62.5 7.5
t66 3q223 0 338 -93.5t115 -293.5v-666h-59l-23 223h-4q-55 -115 -162.5 -180.5t-259.5 -65.5zM616 578q-207 0 -313 -72t-106 -189q0 -115 90 -189.5t243 -74.5q176 0 290 120t114 294v72q-132 39 -318 39zM608 1749q70 0 113 -40t43 -97.5t-78 -118.5t-84 -96l-57 18
q6 43 76.5 96.5t70.5 92.5q0 43 -29.5 62.5t-70.5 19.5q-80 0 -125 -64l-43 31q73 96 184 96zM784 1432h64q-8 -117 -79 -184.5t-175 -67.5q-102 0 -172 67.5t-78 184.5h62q6 -82 56 -133.5t134 -51.5t134 51.5t54 133.5z" />
    <glyph glyph-name="uni1EB4" unicode="&#x1eb4;" 
d="M668 1434h106l641 -1434h-106l-156 354h-864l-158 -354h-106zM324 436h792l-391 881h-8zM852 1868q-55 0 -170 74q-74 51 -117 51q-78 0 -110 -115l-64 16q41 170 168 170q61 0 150 -59q8 -6 32.5 -22.5t37 -23.5t30.5 -14.5t35 -7.5q80 0 106 115l64 -18
q-18 -84 -62.5 -125t-99.5 -41zM893 1812h61q-8 -117 -77.5 -184t-174 -67t-174 67.5t-77.5 183.5h61q8 -82 57 -133t133 -51t134.5 51t56.5 133z" />
    <glyph glyph-name="uni1EB5" unicode="&#x1eb5;" horiz-adv-x="1183" 
d="M516 -23q-182 0 -296 96.5t-114 241.5q0 152 127 245t375 93q172 0 328 -39v56q0 150 -89 224.5t-280 74.5q-37 0 -75.5 -4t-71.5 -11.5t-62.5 -15.5t-53 -15.5t-41 -14.5t-25.5 -11l-11 -4l-30 76l8 2q6 4 17 9t28.5 11t38 13.5t44 14.5t52.5 13t57.5 10.5t62.5 7.5
t66 3q223 0 338 -93.5t115 -293.5v-666h-59l-23 223h-4q-55 -115 -162.5 -180.5t-259.5 -65.5zM616 578q-207 0 -313 -72t-106 -189q0 -115 90 -189.5t243 -74.5q176 0 290 120t114 294v72q-132 39 -318 39zM778 1432h62q-8 -117 -78 -184.5t-174.5 -67.5t-174 67.5
t-77.5 184.5h61q8 -82 57.5 -133.5t133.5 -51.5t134 51.5t56 133.5zM737.5 1487q-55.5 0 -170.5 74q-74 51 -116 51q-78 0 -111 -115l-64 16q41 170 168 170q61 0 150 -59q8 -6 32.5 -22.5t37 -23.5t31 -14.5t34.5 -7.5q80 0 107 115l63 -18q-18 -84 -62 -125t-99.5 -41z
" />
    <glyph glyph-name="uni1EB6" unicode="&#x1eb6;" 
d="M668 1434h106l641 -1434h-106l-156 354h-864l-158 -354h-106zM324 436h792l-391 881h-8zM457 1821h67q6 -88 57.5 -143.5t135.5 -55.5t135 55.5t57 143.5h68q-6 -125 -79 -197t-181.5 -72t-181 72t-78.5 197zM725 -342q-31 0 -53.5 22.5t-22.5 53t22.5 53.5t53.5 23
q33 0 55.5 -23t22.5 -53.5t-22.5 -53t-55.5 -22.5z" />
    <glyph glyph-name="uni1EB7" unicode="&#x1eb7;" horiz-adv-x="1183" 
d="M516 -23q-182 0 -296 96.5t-114 241.5q0 152 127 245t375 93q172 0 328 -39v56q0 150 -89 224.5t-280 74.5q-37 0 -75.5 -4t-71.5 -11.5t-62.5 -15.5t-53 -15.5t-41 -14.5t-25.5 -11l-11 -4l-30 76l8 2q6 4 17 9t28.5 11t38 13.5t44 14.5t52.5 13t57.5 10.5t62.5 7.5
t66 3q223 0 338 -93.5t115 -293.5v-666h-59l-23 223h-4q-55 -115 -162.5 -180.5t-259.5 -65.5zM616 578q-207 0 -313 -72t-106 -189q0 -115 90 -189.5t243 -74.5q176 0 290 120t114 294v72q-132 39 -318 39zM328 1452h67q6 -88 57.5 -143.5t135.5 -55.5t135 55.5t57 143.5
h68q-6 -125 -79 -196.5t-181.5 -71.5t-181 71.5t-78.5 196.5zM596 -342q-31 0 -53.5 22.5t-22.5 53t22.5 53.5t53.5 23q33 0 55.5 -23t22.5 -53.5t-22.5 -53t-55.5 -22.5z" />
    <glyph glyph-name="uni1EB8" unicode="&#x1eb8;" horiz-adv-x="1341" 
d="M258 672v-582h971v-90h-1065v1434h1042v-91h-948v-589h889v-82h-889zM678 -342q-31 0 -53.5 22.5t-22.5 53t22.5 53.5t53.5 23q33 0 55.5 -23t22.5 -53.5t-22.5 -53t-55.5 -22.5z" />
    <glyph glyph-name="uni1EB9" unicode="&#x1eb9;" horiz-adv-x="1277" 
d="M639 1053q229 0 383 -150.5t154 -388.5q0 -10 -5 -51h-978q18 -180 153 -291t342 -111q236 0 373 121l20 -84q-147 -123 -393 -123q-264 0 -425 149.5t-161 389.5q0 236 155 387.5t382 151.5zM193 547h892q-2 184 -131 303t-315 119q-182 0 -309 -118t-137 -304z
M653 -342q-31 0 -53 22.5t-22 53t22.5 53.5t52.5 23q33 0 55.5 -23t22.5 -53.5t-22.5 -53t-55.5 -22.5z" />
    <glyph glyph-name="uni1EBA" unicode="&#x1eba;" horiz-adv-x="1341" 
d="M258 672v-582h971v-90h-1065v1434h1042v-91h-948v-589h889v-82h-889zM690 1909q68 0 112 -40t44 -97.5t-79 -119t-85 -96.5l-55 19q6 45 76.5 97t70.5 91q0 43 -30.5 62.5t-71.5 19.5q-80 0 -125 -63l-41 30q73 97 184 97z" />
    <glyph glyph-name="uni1EBB" unicode="&#x1ebb;" horiz-adv-x="1277" 
d="M639 1053q229 0 383 -150.5t154 -388.5q0 -10 -5 -51h-978q18 -180 153 -291t342 -111q236 0 373 121l20 -84q-147 -123 -393 -123q-264 0 -425 149.5t-161 389.5q0 236 155 387.5t382 151.5zM193 547h892q-2 184 -131 303t-315 119q-182 0 -309 -118t-137 -304z
M659 1530q68 0 112 -40t44 -97.5t-79 -119t-85 -95.5l-55 18q6 45 76.5 97.5t70.5 90.5q0 43 -30.5 62.5t-71.5 19.5q-80 0 -125 -63l-41 31q73 96 184 96z" />
    <glyph glyph-name="uni1EBC" unicode="&#x1ebc;" horiz-adv-x="1341" 
d="M258 672v-582h971v-90h-1065v1434h1042v-91h-948v-589h889v-82h-889zM825 1626q-16 0 -32.5 4t-28.5 8t-31.5 14.5t-26 14.5t-29 19.5t-26.5 17.5q-78 51 -121 51q-82 0 -116 -119l-64 19q41 172 172 172q66 0 154 -60q8 -4 27.5 -18t29.5 -20.5t26.5 -14.5t30 -12
t27.5 -4q82 0 113 119l61 -19q-18 -86 -63.5 -129t-102.5 -43z" />
    <glyph glyph-name="uni1EBD" unicode="&#x1ebd;" horiz-adv-x="1277" 
d="M639 1053q229 0 383 -150.5t154 -388.5q0 -10 -5 -51h-978q18 -180 153 -291t342 -111q236 0 373 121l20 -84q-147 -123 -393 -123q-264 0 -425 149.5t-161 389.5q0 236 155 387.5t382 151.5zM193 547h892q-2 184 -131 303t-315 119q-182 0 -309 -118t-137 -304z
M801 1223q-16 0 -32.5 4t-29 8t-32 14.5t-25.5 14.5l-28.5 19t-26.5 17q-78 51 -121 52q-82 0 -117 -119l-63 18q41 172 172 172q66 0 153 -59q8 -4 27.5 -18.5t30 -20.5t27 -14t29.5 -12.5t28 -4.5q82 0 112 119l62 -18q-18 -86 -63.5 -129t-102.5 -43z" />
    <glyph glyph-name="uni1EBE" unicode="&#x1ebe;" horiz-adv-x="1341" 
d="M258 672v-582h971v-90h-1065v1434h1042v-91h-948v-589h889v-82h-889zM1206 1995l-252 -260h-75l225 260h102zM653 1837h82l236 -266h-86l-189 215h-4l-186 -215h-84z" />
    <glyph glyph-name="uni1EBF" unicode="&#x1ebf;" horiz-adv-x="1277" 
d="M639 1053q229 0 383 -150.5t154 -388.5q0 -10 -5 -51h-978q18 -180 153 -291t342 -111q236 0 373 121l20 -84q-147 -123 -393 -123q-264 0 -425 149.5t-161 389.5q0 236 155 387.5t382 151.5zM193 547h892q-2 184 -131 303t-315 119q-182 0 -309 -118t-137 -304z
M1149 1614l-252 -260h-76l226 260h102zM596 1456h82l235 -266h-86l-188 215h-4l-186 -215h-84z" />
    <glyph glyph-name="uni1EC0" unicode="&#x1ec0;" horiz-adv-x="1341" 
d="M258 672v-582h971v-90h-1065v1434h1042v-91h-948v-589h889v-82h-889zM856 1991l223 -262h-78l-245 262h100zM666 1839h82l233 -266h-86l-186 215h-4l-187 -215h-86z" />
    <glyph glyph-name="uni1EC1" unicode="&#x1ec1;" horiz-adv-x="1277" 
d="M639 1053q229 0 383 -150.5t154 -388.5q0 -10 -5 -51h-978q18 -180 153 -291t342 -111q236 0 373 121l20 -84q-147 -123 -393 -123q-264 0 -425 149.5t-161 389.5q0 236 155 387.5t382 151.5zM193 547h892q-2 184 -131 303t-315 119q-182 0 -309 -118t-137 -304z
M784 1610l224 -262h-78l-246 262h100zM594 1458h82l233 -266h-86l-186 215h-4l-187 -215h-86z" />
    <glyph glyph-name="uni1EC2" unicode="&#x1ec2;" horiz-adv-x="1341" 
d="M258 672v-582h971v-90h-1065v1434h1042v-91h-948v-589h889v-82h-889zM428 1573l231 266h82l236 -266h-88l-187 213h-4l-186 -213h-84zM987 2040q68 0 112 -39t44 -98q0 -61 -78 -123q-8 -6 -28.5 -20.5t-30 -21.5t-18.5 -17.5t-11 -20.5l-55 18q2 29 75 78q78 53 78 98
q0 43 -31.5 64.5t-70.5 21.5q-74 0 -123 -69l-45 35q31 41 74 67q47 27 108 27z" />
    <glyph glyph-name="uni1EC3" unicode="&#x1ec3;" horiz-adv-x="1277" 
d="M639 1053q229 0 383 -150.5t154 -388.5q0 -10 -5 -51h-978q18 -180 153 -291t342 -111q236 0 373 121l20 -84q-147 -123 -393 -123q-264 0 -425 149.5t-161 389.5q0 236 155 387.5t382 151.5zM193 547h892q-2 184 -131 303t-315 119q-182 0 -309 -118t-137 -304z
M367 1190l231 266h82l235 -266h-88l-186 213h-4l-186 -213h-84zM926 1657q68 0 111.5 -39t43.5 -98q0 -61 -77 -123q-8 -6 -29 -20.5t-30 -21.5t-18 -17.5t-12 -20.5l-55 18q2 29 76 78q78 53 78 98q0 43 -32 64.5t-71 21.5q-74 0 -123 -69l-45 35q31 39 74 67q48 27 109 27
z" />
    <glyph glyph-name="uni1EC4" unicode="&#x1ec4;" horiz-adv-x="1341" 
d="M258 672v-582h971v-90h-1065v1434h1042v-91h-948v-589h889v-82h-889zM420 1573l231 266h82l236 -266h-86l-189 215h-4l-186 -215h-84zM854 1901q-63 0 -168 73q-76 51 -117 51q-78 0 -112 -116l-62 16q41 170 166 170q63 0 150 -57q8 -4 26.5 -18.5t28.5 -20.5
t25.5 -14.5t29 -12.5t25.5 -4q80 0 108 117l62 -19q-18 -84 -62.5 -124.5t-99.5 -40.5z" />
    <glyph glyph-name="uni1EC5" unicode="&#x1ec5;" horiz-adv-x="1277" 
d="M639 1053q229 0 383 -150.5t154 -388.5q0 -10 -5 -51h-978q18 -180 153 -291t342 -111q236 0 373 121l20 -84q-147 -123 -393 -123q-264 0 -425 149.5t-161 389.5q0 236 155 387.5t382 151.5zM193 547h892q-2 184 -131 303t-315 119q-182 0 -309 -118t-137 -304z
M360 1190l232 266h82l235 -266h-86l-188 215h-4l-187 -215h-84zM795 1518q-63 0 -168 73q-78 51 -117 51q-78 0 -113 -116l-61 16q41 170 166 170q63 0 149 -57q8 -4 26.5 -18.5t29 -20.5t26 -14.5t28.5 -12.5t25 -4q80 0 109 117l61 -19q-18 -84 -62 -124.5t-99 -40.5z" />
    <glyph glyph-name="uni1EC6" unicode="&#x1ec6;" horiz-adv-x="1341" 
d="M258 672v-582h971v-90h-1065v1434h1042v-91h-948v-589h889v-82h-889zM895 1550l-199 230h-4l-198 -230h-88l245 287h82l250 -287h-88zM692 -342q-31 0 -53.5 22.5t-22.5 53t23 53.5t53 23q33 0 55.5 -23t22.5 -53.5t-22.5 -53t-55.5 -22.5z" />
    <glyph glyph-name="uni1EC7" unicode="&#x1ec7;" horiz-adv-x="1277" 
d="M639 1053q229 0 383 -150.5t154 -388.5q0 -10 -5 -51h-978q18 -180 153 -291t342 -111q236 0 373 121l20 -84q-147 -123 -393 -123q-264 0 -425 149.5t-161 389.5q0 236 155 387.5t382 151.5zM193 547h892q-2 184 -131 303t-315 119q-182 0 -309 -118t-137 -304z
M854 1182l-199 229h-4l-198 -229h-88l245 286h82l250 -286h-88zM651 -342q-31 0 -53.5 22.5t-22.5 53t23 53.5t53 23q33 0 55.5 -23t22.5 -53.5t-22.5 -53t-55.5 -22.5z" />
    <glyph glyph-name="uni1EC8" unicode="&#x1ec8;" horiz-adv-x="389" 
d="M150 0v1434h94v-1434h-94zM201 1909q68 0 111.5 -40t43.5 -97.5t-78.5 -119t-84.5 -96.5l-56 19q6 45 77 97t71 91q0 43 -31 62.5t-72 19.5q-80 0 -125 -63l-41 30q74 97 185 97z" />
    <glyph glyph-name="uni1EC9" unicode="&#x1ec9;" horiz-adv-x="462" 
d="M186 0v1030h90v-1030h-90zM262 1530q68 0 112 -40t44 -97.5t-79 -119t-85 -95.5l-55 18q6 45 76.5 97.5t70.5 90.5q0 43 -30.5 62.5t-71.5 19.5q-80 0 -125 -63l-41 31q73 96 184 96z" />
    <glyph glyph-name="uni1ECA" unicode="&#x1eca;" horiz-adv-x="481" 
d="M201 0v1434h94v-1434h-94zM240 -240q-31 0 -53.5 22.5t-22.5 53.5t22.5 53.5t53.5 22.5q33 0 55 -22.5t22 -53.5t-22 -53.5t-55 -22.5z" />
    <glyph glyph-name="uni1ECB" unicode="&#x1ecb;" horiz-adv-x="456" 
d="M180 0v1030h90v-1030h-90zM225.5 1460q32.5 0 55 -22.5t22.5 -55.5q0 -31 -22.5 -53t-55 -22t-55.5 22.5t-23 52.5q0 33 23 55.5t55.5 22.5zM231 -342q-31 0 -53 22.5t-22 53t22.5 53.5t52.5 23q33 0 55.5 -23t22.5 -53.5t-22.5 -53t-55.5 -22.5z" />
    <glyph glyph-name="uni1ECC" unicode="&#x1ecc;" horiz-adv-x="1658" 
d="M829.5 1456q311.5 0 514 -208t202.5 -531.5t-202.5 -532.5t-514 -209t-514 209t-202.5 532.5t202.5 531.5t514 208zM829 66q268 0 444.5 183t176.5 468q0 283 -175 466t-445.5 183t-446.5 -183.5t-176 -466t176 -466.5t446 -184zM844 -342q-31 0 -53.5 22.5t-22.5 53
t22.5 53.5t53.5 23q33 0 55.5 -23t22.5 -53.5t-22.5 -53t-55.5 -22.5z" />
    <glyph glyph-name="uni1ECD" unicode="&#x1ecd;" horiz-adv-x="1284" 
d="M641 1053q229 0 385 -151.5t156 -387t-156 -386.5t-385 -151t-384 151t-155 386.5t156 387t383 151.5zM641 63q190 0 320.5 126t130.5 325t-130.5 327t-320.5 128t-320.5 -128t-130.5 -327t130.5 -325t320.5 -126zM641 -342q-31 0 -53.5 22.5t-22.5 53t22.5 53.5t53.5 23
q33 0 55.5 -23t22.5 -53.5t-22.5 -53t-55.5 -22.5z" />
    <glyph glyph-name="uni1ECE" unicode="&#x1ece;" horiz-adv-x="1658" 
d="M829.5 1456q311.5 0 514 -208t202.5 -531.5t-202.5 -532.5t-514 -209t-514 209t-202.5 532.5t202.5 531.5t514 208zM829 66q268 0 444.5 183t176.5 468q0 283 -175 466t-445.5 183t-446.5 -183.5t-176 -466t176 -466.5t446 -184zM840 1909q68 0 111.5 -40t43.5 -97.5
t-78.5 -119t-85.5 -96.5l-55 19q6 45 77 97t71 91q0 43 -31 62.5t-72 19.5q-80 0 -125 -63l-41 30q74 97 185 97z" />
    <glyph glyph-name="uni1ECF" unicode="&#x1ecf;" horiz-adv-x="1284" 
d="M641 1053q229 0 385 -151.5t156 -387t-156 -386.5t-385 -151t-384 151t-155 386.5t156 387t383 151.5zM641 63q190 0 320.5 126t130.5 325t-130.5 327t-320.5 128t-320.5 -128t-130.5 -327t130.5 -325t320.5 -126zM659 1530q68 0 112 -40t44 -97.5t-79 -119t-85 -95.5
l-55 18q6 45 76.5 97.5t70.5 90.5q0 43 -30.5 62.5t-71.5 19.5q-80 0 -125 -63l-41 31q73 96 184 96z" />
    <glyph glyph-name="uni1ED0" unicode="&#x1ed0;" horiz-adv-x="1658" 
d="M829.5 1456q311.5 0 514 -208t202.5 -531.5t-202.5 -532.5t-514 -209t-514 209t-202.5 532.5t202.5 531.5t514 208zM829 66q268 0 444.5 183t176.5 468q0 283 -175 466t-445.5 183t-446.5 -183.5t-176 -466t176 -466.5t446 -184zM1331 1995l-252 -260h-75l225 260h102z
M778 1837h82l236 -266h-86l-189 215h-4l-186 -215h-84z" />
    <glyph glyph-name="uni1ED1" unicode="&#x1ed1;" horiz-adv-x="1284" 
d="M641 1053q229 0 385 -151.5t156 -387t-156 -386.5t-385 -151t-384 151t-155 386.5t156 387t383 151.5zM641 63q190 0 320.5 126t130.5 325t-130.5 327t-320.5 128t-320.5 -128t-130.5 -327t130.5 -325t320.5 -126zM1155 1614l-252 -260h-76l226 260h102zM602 1456h82
l236 -266h-86l-189 215h-4l-186 -215h-84z" />
    <glyph glyph-name="uni1ED2" unicode="&#x1ed2;" horiz-adv-x="1658" 
d="M829.5 1456q311.5 0 514 -208t202.5 -531.5t-202.5 -532.5t-514 -209t-514 209t-202.5 532.5t202.5 531.5t514 208zM829 66q268 0 444.5 183t176.5 468q0 283 -175 466t-445.5 183t-446.5 -183.5t-176 -466t176 -466.5t446 -184zM967 1991l223 -262h-78l-246 262h101z
M776 1839h82l234 -266h-86l-187 215h-4l-186 -215h-86z" />
    <glyph glyph-name="uni1ED3" unicode="&#x1ed3;" horiz-adv-x="1284" 
d="M641 1053q229 0 385 -151.5t156 -387t-156 -386.5t-385 -151t-384 151t-155 386.5t156 387t383 151.5zM641 63q190 0 320.5 126t130.5 325t-130.5 327t-320.5 128t-320.5 -128t-130.5 -327t130.5 -325t320.5 -126zM793 1610l223 -262h-78l-246 262h101zM602 1458h82
l234 -266h-87l-186 215h-4l-186 -215h-86z" />
    <glyph glyph-name="uni1ED4" unicode="&#x1ed4;" horiz-adv-x="1658" 
d="M829.5 1456q311.5 0 514 -208t202.5 -531.5t-202.5 -532.5t-514 -209t-514 209t-202.5 532.5t202.5 531.5t514 208zM829 66q268 0 444.5 183t176.5 468q0 283 -175 466t-445.5 183t-446.5 -183.5t-176 -466t176 -466.5t446 -184zM549 1571l231 266h82l236 -266h-88
l-187 213h-4l-186 -213h-84zM1108 2038q68 0 112 -39t44 -98q0 -61 -78 -123q-8 -6 -28.5 -20.5t-30 -21.5t-18.5 -17.5t-11 -20.5l-56 18q2 29 76 78q78 53 78 98q0 43 -31.5 64.5t-70.5 21.5q-74 0 -123 -69l-45 35q31 39 73 67q48 27 109 27z" />
    <glyph glyph-name="uni1ED5" unicode="&#x1ed5;" horiz-adv-x="1284" 
d="M641 1053q229 0 385 -151.5t156 -387t-156 -386.5t-385 -151t-384 151t-155 386.5t156 387t383 151.5zM641 63q190 0 320.5 126t130.5 325t-130.5 327t-320.5 128t-320.5 -128t-130.5 -327t130.5 -325t320.5 -126zM371 1190l231 266h82l236 -266h-89l-186 213h-4
l-186 -213h-84zM930 1657q68 0 111.5 -39t43.5 -98q0 -61 -77 -123q-8 -6 -29 -20.5t-30 -21.5t-18 -17.5t-11 -20.5l-56 18q2 29 76 78q78 53 78 98q0 43 -32 64.5t-71 21.5q-74 0 -122 -69l-45 35q31 39 73 67q48 27 109 27z" />
    <glyph glyph-name="uni1ED6" unicode="&#x1ed6;" horiz-adv-x="1658" 
d="M829.5 1456q311.5 0 514 -208t202.5 -531.5t-202.5 -532.5t-514 -209t-514 209t-202.5 532.5t202.5 531.5t514 208zM829 66q268 0 444.5 183t176.5 468q0 283 -175 466t-445.5 183t-446.5 -183.5t-176 -466t176 -466.5t446 -184zM543 1571l231 266h82l236 -266h-86
l-189 215h-4l-186 -215h-84zM977 1898q-63 0 -168 74q-76 51 -117 51q-78 0 -112 -116l-62 16q41 170 166 170q63 0 150 -57q8 -4 26.5 -18.5t28.5 -20.5t25.5 -14.5t28.5 -12.5t26 -4q80 0 108 117l62 -19q-18 -84 -62.5 -125t-99.5 -41z" />
    <glyph glyph-name="uni1ED7" unicode="&#x1ed7;" horiz-adv-x="1284" 
d="M641 1053q229 0 385 -151.5t156 -387t-156 -386.5t-385 -151t-384 151t-155 386.5t156 387t383 151.5zM641 63q190 0 320.5 126t130.5 325t-130.5 327t-320.5 128t-320.5 -128t-130.5 -327t130.5 -325t320.5 -126zM358 1190l232 266h82l235 -266h-86l-188 215h-4
l-187 -215h-84zM793 1518q-63 0 -168 73q-76 51 -117 51q-78 0 -113 -116l-61 16q41 170 166 170q63 0 149 -57q8 -4 26.5 -18.5t29 -20.5t25.5 -14.5t28.5 -12.5t25.5 -4q80 0 109 117l61 -19q-18 -84 -62 -124.5t-99 -40.5z" />
    <glyph glyph-name="uni1ED8" unicode="&#x1ed8;" horiz-adv-x="1650" 
d="M829.5 1456q311.5 0 514 -208t202.5 -531.5t-202.5 -532.5t-514 -209t-514 209t-202.5 532.5t202.5 531.5t514 208zM829 66q268 0 444.5 183t176.5 468q0 283 -175 466t-445.5 183t-446.5 -183.5t-176 -466t176 -466.5t446 -184zM1042 1550l-198 230h-4l-199 -230h-88
l246 287h82l249 -287h-88zM840 -342q-31 0 -53.5 22.5t-22.5 53t22.5 53.5t53.5 23q33 0 55.5 -23t22.5 -53.5t-22.5 -53t-55.5 -22.5z" />
    <glyph glyph-name="uni1ED9" unicode="&#x1ed9;" horiz-adv-x="1284" 
d="M641 1053q229 0 385 -151.5t156 -387t-156 -386.5t-385 -151t-384 151t-155 386.5t156 387t383 151.5zM641 63q190 0 320.5 126t130.5 325t-130.5 327t-320.5 128t-320.5 -128t-130.5 -327t130.5 -325t320.5 -126zM850 1182l-199 229h-4l-198 -229h-89l246 286h82
l250 -286h-88zM647 -342q-31 0 -53.5 22.5t-22.5 53t22.5 53.5t53.5 23q33 0 55.5 -23t22.5 -53.5t-22.5 -53t-55.5 -22.5z" />
    <glyph glyph-name="uni1EDA" unicode="&#x1eda;" horiz-adv-x="1802" 
d="M831 1456q188 0 341 -78t247 -219q94 4 142.5 60.5t48.5 189.5v160h88v-160q0 -162 -61.5 -233.5t-176.5 -81.5q90 -170 90 -377q0 -324 -203.5 -533t-515.5 -209q-313 0 -515.5 209t-202.5 532.5t202.5 531.5t515.5 208zM1454 716.5q0 284.5 -176 467t-446.5 182.5
t-446.5 -182.5t-176 -467t176 -467.5t446.5 -183t446.5 183t176 467.5zM1057 1872h110l-256 -285h-92z" />
    <glyph glyph-name="uni1EDB" unicode="&#x1edb;" horiz-adv-x="1454" 
d="M1182 514q0 -236 -156 -387.5t-383 -151.5q-229 0 -385 152t-156 387.5t156 387t385 151.5q145 0 266 -65.5t193 -180.5q80 8 121 62.5t41 181.5v157h88v-157q0 -154 -55.5 -226.5t-159.5 -87.5q45 -102 45 -223zM193 514q0 -199 130 -326t320.5 -127t320.5 127t130 326
t-130 327t-320.5 128t-320.5 -128t-130 -327zM758 1468h110l-256 -284h-92z" />
    <glyph glyph-name="uni1EDC" unicode="&#x1edc;" horiz-adv-x="1802" 
d="M831 1456q188 0 341 -78t247 -219q94 4 142.5 60.5t48.5 189.5v160h88v-160q0 -162 -61.5 -233.5t-176.5 -81.5q90 -170 90 -377q0 -324 -203.5 -533t-515.5 -209q-313 0 -515.5 209t-202.5 532.5t202.5 531.5t515.5 208zM1454 716.5q0 284.5 -176 467t-446.5 182.5
t-446.5 -182.5t-176 -467t176 -467.5t446.5 -183t446.5 183t176 467.5zM631 1872h108l240 -285h-92z" />
    <glyph glyph-name="uni1EDD" unicode="&#x1edd;" horiz-adv-x="1454" 
d="M1182 514q0 -236 -156 -387.5t-383 -151.5q-229 0 -385 152t-156 387.5t156 387t385 151.5q145 0 266 -65.5t193 -180.5q80 8 121 62.5t41 181.5v157h88v-157q0 -154 -55.5 -226.5t-159.5 -87.5q45 -102 45 -223zM193 514q0 -199 130 -326t320.5 -127t320.5 127t130 326
t-130 327t-320.5 128t-320.5 -128t-130 -327zM266 1468h109l239 -284h-92z" />
    <glyph glyph-name="uni1EDE" unicode="&#x1ede;" horiz-adv-x="1802" 
d="M831 1456q188 0 341 -78t247 -219q94 4 142.5 60.5t48.5 189.5v160h88v-160q0 -162 -61.5 -233.5t-176.5 -81.5q90 -170 90 -377q0 -324 -203.5 -533t-515.5 -209q-313 0 -515.5 209t-202.5 532.5t202.5 531.5t515.5 208zM1454 716.5q0 284.5 -176 467t-446.5 182.5
t-446.5 -182.5t-176 -467t176 -467.5t446.5 -183t446.5 183t176 467.5zM864 1909q68 0 112 -40t44 -97.5t-79 -119t-85 -96.5l-55 19q6 45 76.5 97t70.5 91q0 43 -30.5 62.5t-71.5 19.5q-80 0 -125 -63l-41 30q73 97 184 97z" />
    <glyph glyph-name="uni1EDF" unicode="&#x1edf;" horiz-adv-x="1454" 
d="M1182 514q0 -236 -156 -387.5t-383 -151.5q-229 0 -385 152t-156 387.5t156 387t385 151.5q145 0 266 -65.5t193 -180.5q80 8 121 62.5t41 181.5v157h88v-157q0 -154 -55.5 -226.5t-159.5 -87.5q45 -102 45 -223zM193 514q0 -199 130 -326t320.5 -127t320.5 127t130 326
t-130 327t-320.5 128t-320.5 -128t-130 -327zM602 1530q68 0 112 -40t44 -97.5t-79 -119t-85 -95.5l-55 18q6 45 76.5 97.5t70.5 90.5q0 43 -30.5 62.5t-71.5 19.5q-80 0 -125 -63l-41 31q73 96 184 96z" />
    <glyph glyph-name="uni1EE0" unicode="&#x1ee0;" horiz-adv-x="1802" 
d="M831 1456q188 0 341 -78t247 -219q94 4 142.5 60.5t48.5 189.5v160h88v-160q0 -162 -61.5 -233.5t-176.5 -81.5q90 -170 90 -377q0 -324 -203.5 -533t-515.5 -209q-313 0 -515.5 209t-202.5 532.5t202.5 531.5t515.5 208zM1454 716.5q0 284.5 -176 467t-446.5 182.5
t-446.5 -182.5t-176 -467t176 -467.5t446.5 -183t446.5 183t176 467.5zM1020 1626q-16 0 -32.5 4t-29 8t-32 14.5t-25.5 14.5t-28.5 19.5t-26.5 17.5q-76 51 -121 51q-82 0 -117 -119l-63 19q41 172 172 172q66 0 153 -60q8 -4 28 -18t30 -20.5t26.5 -14.5t29.5 -12t28 -4
q82 0 112 119l62 -19q-18 -86 -63.5 -129t-102.5 -43z" />
    <glyph glyph-name="uni1EE1" unicode="&#x1ee1;" horiz-adv-x="1454" 
d="M1182 514q0 -236 -156 -387.5t-383 -151.5q-229 0 -385 152t-156 387.5t156 387t385 151.5q145 0 266 -65.5t193 -180.5q80 8 121 62.5t41 181.5v157h88v-157q0 -154 -55.5 -226.5t-159.5 -87.5q45 -102 45 -223zM193 514q0 -199 130 -326t320.5 -127t320.5 127t130 326
t-130 327t-320.5 128t-320.5 -128t-130 -327zM717 1223q-16 0 -32.5 4t-29 8t-32 14.5t-25.5 14.5l-28.5 19t-26.5 17q-76 51 -121 52q-82 0 -117 -119l-63 18q41 172 172 172q66 0 153 -59q8 -4 27.5 -18.5t30 -20.5t27 -14t29.5 -12.5t28 -4.5q82 0 112 119l62 -18
q-18 -86 -63.5 -129t-102.5 -43z" />
    <glyph glyph-name="uni1EE2" unicode="&#x1ee2;" horiz-adv-x="1802" 
d="M831 1456q188 0 341 -78t247 -219q94 4 142.5 60.5t48.5 189.5v160h88v-160q0 -162 -61.5 -233.5t-176.5 -81.5q90 -170 90 -377q0 -324 -203.5 -533t-515.5 -209q-313 0 -515.5 209t-202.5 532.5t202.5 531.5t515.5 208zM1454 716.5q0 284.5 -176 467t-446.5 182.5
t-446.5 -182.5t-176 -467t176 -467.5t446.5 -183t446.5 183t176 467.5zM897 -342q-31 0 -53.5 22.5t-22.5 53t22.5 53.5t53.5 23q33 0 55.5 -23t22.5 -53.5t-22.5 -53t-55.5 -22.5z" />
    <glyph glyph-name="uni1EE3" unicode="&#x1ee3;" horiz-adv-x="1454" 
d="M1182 514q0 -236 -156 -387.5t-383 -151.5q-229 0 -385 152t-156 387.5t156 387t385 151.5q145 0 266 -65.5t193 -180.5q80 8 121 62.5t41 181.5v157h88v-157q0 -154 -55.5 -226.5t-159.5 -87.5q45 -102 45 -223zM193 514q0 -199 130 -326t320.5 -127t320.5 127t130 326
t-130 327t-320.5 128t-320.5 -128t-130 -327zM596 -342q-31 0 -53.5 22.5t-22.5 53t22.5 53.5t53.5 23q33 0 55.5 -23t22.5 -53.5t-22.5 -53t-55.5 -22.5z" />
    <glyph glyph-name="uni1EE4" unicode="&#x1ee4;" horiz-adv-x="1523" 
d="M762 -25q-264 0 -431 155t-167 413v891h94v-891q0 -219 140.5 -348t363.5 -129t363.5 129t140.5 348v891h94v-891q0 -258 -168 -413t-430 -155zM762 -342q-31 0 -53.5 22.5t-22.5 53t22.5 53.5t53.5 23q33 0 55.5 -23t22.5 -53.5t-22.5 -53t-55.5 -22.5z" />
    <glyph glyph-name="uni1EE5" unicode="&#x1ee5;" horiz-adv-x="1323" 
d="M248 1030v-532q0 -190 119.5 -313.5t294 -123.5t294 123t119.5 314v532h88v-1030h-61l-23 258h-6q-59 -131 -174 -206t-258 -75q-205 0 -343 146.5t-138 372.5v534h88zM674 -342q-31 0 -53.5 22.5t-22.5 53t22.5 53.5t53.5 23q33 0 55.5 -23t22.5 -53.5t-22.5 -53
t-55.5 -22.5z" />
    <glyph glyph-name="uni1EE6" unicode="&#x1ee6;" horiz-adv-x="1523" 
d="M762 -25q-264 0 -431 155t-167 413v891h94v-891q0 -219 140.5 -348t363.5 -129t363.5 129t140.5 348v891h94v-891q0 -258 -168 -413t-430 -155zM786 1909q68 0 112 -40t44 -97.5t-79 -119t-85 -96.5l-55 19q6 45 76.5 97t70.5 91q0 43 -30.5 62.5t-71.5 19.5
q-80 0 -125 -63l-41 30q73 97 184 97z" />
    <glyph glyph-name="uni1EE7" unicode="&#x1ee7;" horiz-adv-x="1323" 
d="M248 1030v-532q0 -190 119.5 -313.5t294 -123.5t294 123t119.5 314v532h88v-1030h-61l-23 258h-6q-59 -131 -174 -206t-258 -75q-205 0 -343 146.5t-138 372.5v534h88zM680 1530q68 0 112 -40t44 -97.5t-79 -119t-85 -95.5l-56 18q6 45 77 97.5t71 90.5q0 43 -31 62.5
t-71 19.5q-80 0 -125 -63l-41 31q73 96 184 96z" />
    <glyph glyph-name="uni1EE8" unicode="&#x1ee8;" horiz-adv-x="1550" 
d="M1266 1434h94v-275q90 6 135 61.5t45 188.5v160h88v-160q0 -170 -68.5 -241.5t-199.5 -75.5v-551q0 -258 -167 -412t-431 -154q-262 0 -430 154t-168 412v893h94v-893q0 -219 140.5 -347t363.5 -128t363.5 128t140.5 347v893zM899 1872h111l-256 -285h-92z" />
    <glyph glyph-name="uni1EE9" unicode="&#x1ee9;" horiz-adv-x="1388" 
d="M664 59q174 0 292.5 123t118.5 316h2v532h88v-252q88 4 132 59.5t44 188.5v158h89v-158q0 -170 -69 -241.5t-196 -75.5v-709h-61l-25 260h-4q-59 -131 -175 -208t-259 -77q-205 0 -343 146.5t-138 374.5v534h90l-2 -532q0 -193 120 -316t296 -123zM748 1468h110
l-256 -284h-92z" />
    <glyph glyph-name="uni1EEA" unicode="&#x1eea;" horiz-adv-x="1550" 
d="M1266 1434h94v-275q90 6 135 61.5t45 188.5v160h88v-160q0 -170 -68.5 -241.5t-199.5 -75.5v-551q0 -258 -167 -412t-431 -154q-262 0 -430 154t-168 412v893h94v-893q0 -219 140.5 -347t363.5 -128t363.5 128t140.5 347v893zM436 1872h109l239 -285h-92z" />
    <glyph glyph-name="uni1EEB" unicode="&#x1eeb;" horiz-adv-x="1388" 
d="M664 59q174 0 292.5 123t118.5 316h2v532h88v-252q88 4 132 59.5t44 188.5v158h89v-158q0 -170 -69 -241.5t-196 -75.5v-709h-61l-25 260h-4q-59 -131 -175 -208t-259 -77q-205 0 -343 146.5t-138 374.5v534h90l-2 -532q0 -193 120 -316t296 -123zM305 1468h109l239 -284
h-92z" />
    <glyph glyph-name="uni1EEC" unicode="&#x1eec;" horiz-adv-x="1550" 
d="M1266 1434h94v-275q90 6 135 61.5t45 188.5v160h88v-160q0 -170 -68.5 -241.5t-199.5 -75.5v-551q0 -258 -167 -412t-431 -154q-262 0 -430 154t-168 412v893h94v-893q0 -219 140.5 -347t363.5 -128t363.5 128t140.5 347v893zM823 1909q68 0 112 -40t44 -97.5t-79 -119
t-85 -96.5l-55 19q6 45 76.5 97t70.5 91q0 43 -30.5 62.5t-71.5 19.5q-80 0 -125 -63l-41 30q73 97 184 97z" />
    <glyph glyph-name="uni1EED" unicode="&#x1eed;" horiz-adv-x="1388" 
d="M664 59q174 0 292.5 123t118.5 316h2v532h88v-252q88 4 132 59.5t44 188.5v158h89v-158q0 -170 -69 -241.5t-196 -75.5v-709h-61l-25 260h-4q-59 -131 -175 -208t-259 -77q-205 0 -343 146.5t-138 374.5v534h90l-2 -532q0 -193 120 -316t296 -123zM707 1530
q68 0 111.5 -40t43.5 -97.5t-78.5 -119t-85.5 -95.5l-55 18q6 45 77 97.5t71 90.5q0 43 -31 62.5t-72 19.5q-80 0 -125 -63l-41 31q74 96 185 96z" />
    <glyph glyph-name="uni1EEE" unicode="&#x1eee;" horiz-adv-x="1550" 
d="M1266 1434h94v-275q90 6 135 61.5t45 188.5v160h88v-160q0 -170 -68.5 -241.5t-199.5 -75.5v-551q0 -258 -167 -412t-431 -154q-262 0 -430 154t-168 412v893h94v-893q0 -219 140.5 -347t363.5 -128t363.5 128t140.5 347v893zM831 1626q-16 0 -32.5 4t-28.5 8t-31.5 14.5
t-25.5 14.5t-28.5 19.5t-27.5 17.5q-76 51 -120 51q-82 0 -117 -119l-64 19q41 172 172 172q66 0 154 -60q8 -4 27.5 -18t30 -20.5t26.5 -14.5t29.5 -12t27.5 -4q82 0 113 119l61 -19q-18 -86 -63.5 -129t-102.5 -43z" />
    <glyph glyph-name="uni1EEF" unicode="&#x1eef;" horiz-adv-x="1388" 
d="M664 59q174 0 292.5 123t118.5 316h2v532h88v-252q88 4 132 59.5t44 188.5v158h89v-158q0 -170 -69 -241.5t-196 -75.5v-709h-61l-25 260h-4q-59 -131 -175 -208t-259 -77q-205 0 -343 146.5t-138 374.5v534h90l-2 -532q0 -193 120 -316t296 -123zM723 1223
q-16 0 -32.5 4t-29 8t-32 14.5t-25.5 14.5l-28.5 19t-26.5 17q-76 51 -121 52q-82 0 -117 -119l-63 18q41 172 172 172q66 0 153 -59q8 -4 28 -18.5t30 -20.5t26.5 -14t29.5 -12.5t28 -4.5q82 0 112 119l62 -18q-18 -86 -63.5 -129t-102.5 -43z" />
    <glyph glyph-name="uni1EF0" unicode="&#x1ef0;" horiz-adv-x="1550" 
d="M1266 1434h94v-275q90 6 135 61.5t45 188.5v160h88v-160q0 -170 -68.5 -241.5t-199.5 -75.5v-551q0 -258 -167 -412t-431 -154q-262 0 -430 154t-168 412v893h94v-893q0 -219 140.5 -347t363.5 -128t363.5 128t140.5 347v893zM684 -342q-31 0 -53.5 22.5t-22.5 53
t22.5 53.5t53.5 23q33 0 55.5 -23t22.5 -53.5t-22.5 -53t-55.5 -22.5z" />
    <glyph glyph-name="uni1EF1" unicode="&#x1ef1;" horiz-adv-x="1388" 
d="M664 59q174 0 292.5 123t118.5 316h2v532h88v-252q88 4 132 59.5t44 188.5v158h89v-158q0 -170 -69 -241.5t-196 -75.5v-709h-61l-25 260h-4q-59 -131 -175 -208t-259 -77q-205 0 -343 146.5t-138 374.5v534h90l-2 -532q0 -193 120 -316t296 -123zM559 -342
q-31 0 -53.5 22.5t-22.5 53t22.5 53.5t53.5 23q33 0 55.5 -23t22.5 -53.5t-22.5 -53t-55.5 -22.5z" />
    <glyph glyph-name="Ygrave" unicode="&#x1ef2;" horiz-adv-x="1361" 
d="M684 688l539 746h114l-610 -850v-584h-96v586l-606 848h112l539 -746h8zM381 1872h108l240 -285h-92z" />
    </font>
</defs>
</svg>
