<svg width="1170" height="658" viewBox="0 0 1170 658" fill="none" xmlns="http://www.w3.org/2000/svg">
<rect width="1170" height="658" fill="#EFF1F4"/>
<path d="M892.625 302.75V530.125C892.625 559.55 868.55 583.625 839.125 583.625H330.875C301.45 583.625 277.375 559.55 277.375 530.125V128.875C277.375 99.45 301.45 75.375 330.875 75.375H839.125C868.55 75.375 892.625 99.45 892.625 128.875M277.375 209.125H692M791.777 189.585L858.652 256.46M651.875 329.5L718.75 396.375M357.625 316.125H478M357.625 396.375H558.25M357.625 476.625H785.625M377.688 128.875C381.432 128.875 384.375 131.817 384.375 135.562C384.375 139.307 381.432 142.25 377.688 142.25C373.943 142.25 371 139.307 371 135.562C371 131.817 373.943 128.875 377.688 128.875ZM457.938 128.875C461.683 128.875 464.625 131.817 464.625 135.562C464.625 139.307 461.683 142.25 457.938 142.25C454.192 142.25 451.25 139.307 451.25 135.562C451.25 131.817 454.192 128.875 457.938 128.875ZM538.188 128.875C541.933 128.875 544.875 131.817 544.875 135.562C544.875 139.307 541.933 142.25 538.188 142.25C534.442 142.25 531.5 139.307 531.5 135.562C531.5 131.817 534.442 128.875 538.188 128.875ZM718.75 396.369L625.125 423.119L651.875 329.494L811.84 169.529C830.297 151.606 859.99 151.874 878.18 170.064C896.37 188.254 896.637 217.946 878.715 236.404L718.75 396.369Z" stroke="url(#paint0_linear)" stroke-width="15" stroke-linecap="round" stroke-linejoin="round"/>
<defs>
<linearGradient id="paint0_linear" x1="585" y1="75.375" x2="585" y2="583.625" gradientUnits="userSpaceOnUse">
<stop stop-color="white"/>
<stop offset="0.671875" stop-color="white" stop-opacity="0"/>
</linearGradient>
</defs>
</svg>
